<?xml version="1.0" encoding="UTF-8" standalone="no"?>
<svg
   version="1.1"
   x="0px"
   y="0px"
   width="1024px"
   height="600px"
   viewBox="0 0 1024 600"
   enable-background="new 0 0 1024 600"
   xml:space="preserve"
   id="svg1652"
   sodipodi:docname="lcars6.svg"
   inkscape:version="1.2.2 (732a01da63, 2022-12-09)"
   xmlns:inkscape="http://www.inkscape.org/namespaces/inkscape"
   xmlns:sodipodi="http://sodipodi.sourceforge.net/DTD/sodipodi-0.dtd"
   xmlns="http://www.w3.org/2000/svg"
   xmlns:svg="http://www.w3.org/2000/svg"><defs
   id="defs1656" /><sodipodi:namedview
   id="namedview1654"
   pagecolor="#000000"
   bordercolor="#111111"
   borderopacity="1"
   inkscape:showpageshadow="0"
   inkscape:pageopacity="0"
   inkscape:pagecheckerboard="1"
   inkscape:deskcolor="#d1d1d1"
   showgrid="false"
   inkscape:zoom="0.59716798"
   inkscape:cx="699.13327"
   inkscape:cy="543.39819"
   inkscape:window-width="958"
   inkscape:window-height="1000"
   inkscape:window-x="946"
   inkscape:window-y="0"
   inkscape:window-maximized="0"
   inkscape:current-layer="svg1652" />
<g
   id="Background"
   style="display:inline;fill:#ffffff;fill-opacity:1"
   transform="translate(-40)">
	<rect
   x="-1"
   width="1025"
   height="600"
   id="rect2"
   y="0"
   style="display:none;fill:#ffffff;fill-opacity:1" /><path
   fill="#717278"
   d="m 436,472.61692 v 93 h 136 v -93 z"
   id="path1637-7"
   sodipodi:nodetypes="ccccc"
   style="display:none;fill:#ffffff;fill-opacity:1" />
</g>
<g
   id="Main_Labels"
   style="display:inline"
   transform="translate(-168)">
	
	
	
	
</g>
<g
   id="Structural_Elements"
   transform="translate(-173.14)"><g
   id="g799"
   style="display:inline;fill:#ffffff;fill-opacity:1"
   transform="translate(132)"><path
     fill="#e8e7e2"
     d="m 643.694,532.812 c 0,0 0,0 -0.03,0 h -4.306 v 4.908 h 9.209 2.392 4.545 1.286 v -4.908 h -12.916 c -0.03,0 -0.03,0 -0.03,0 -0.03,0 -0.03,0 -0.06,0 0,0 0,0 -0.03,0 0,0 0,0 -0.029,0 h -0.031"
     id="path132"
     style="display:none;fill:#ffffff;fill-opacity:1" /><path
     fill="#e8e7e2"
     d="m 616.655,532.812 c 0,0 0,0 -0.1,0 0,0 0,0 -0.099,0 v 0 c -0.101,0 -0.101,0 -0.101,0 -0.1,0 -0.1,0 -0.1,0 -0.099,0 -0.099,0 -0.099,0 -0.1,0 -0.1,0 -0.1,0 H 577.24 v 4.908 h 15.13 7.962 30.656 v -4.908 h -14.333"
     id="path136"
     style="display:none;fill:#ffffff;fill-opacity:1" /><path
     fill="#cd5920"
     d="m 660,539.031 v 0 c 0.051,0 0.084,0.017 0.118,0.017 0.42,0.118 0.79,0.319 1.109,0.655 0.487,0.471 0.723,1.042 0.723,1.731 0,0.286 -0.033,0.555 -0.135,0.807 -0.017,0.067 -0.05,0.135 -0.067,0.202 -0.117,0.252 -0.285,0.504 -0.521,0.723 -0.017,0.017 -0.051,0.05 -0.084,0.084 0,0.017 -0.017,0.017 -0.034,0.034 -0.017,0.017 -0.033,0.033 -0.05,0.033 -0.067,0.067 -0.151,0.135 -0.235,0.185 -0.387,0.252 -0.808,0.37 -1.277,0.387 -0.018,0 -0.034,0 -0.034,0 -0.017,0 -0.017,0 -0.017,0 -0.017,0 -0.033,0 -0.051,0 h -1.025 -0.336 v -4.908 h 1.361 c 0.018,0 0.034,0 0.051,0 0,0 0,0 0.017,0 0,0 0.017,0 0.034,0 0.033,0 0.084,0 0.117,0 0.117,0.016 0.219,0.016 0.336,0.05"
     id="path140"
     style="display:none;fill:#ffffff;fill-opacity:1" /><path
     fill="#e8e7e2"
     d="m 661.95,553.739 c 0,0.285 -0.033,0.555 -0.135,0.807 -0.017,0.067 -0.05,0.135 -0.067,0.201 -0.117,0.253 -0.285,0.505 -0.521,0.723 -0.017,0.018 -0.051,0.051 -0.084,0.084 0,0.018 -0.017,0.018 -0.034,0.034 -0.017,0.017 -0.033,0.034 -0.05,0.034 -0.067,0.067 -0.151,0.134 -0.235,0.185 -0.387,0.252 -0.808,0.369 -1.277,0.387 -0.018,0 -0.034,0 -0.034,0 -0.017,0 -0.017,0 -0.017,0 -0.017,0 -0.033,0 -0.051,0 h -1.025 -0.336 v -4.908 h 1.361 c 0.018,0 0.034,0 0.051,0 0,0 0,0 0.017,0 0,0 0.017,0 0.034,0 0.033,0 0.084,0 0.117,0.017 0.117,0 0.219,0 0.336,0.033 v 0 c 0.051,0 0.084,0.017 0.118,0.017 0.42,0.118 0.79,0.319 1.109,0.656 0.488,0.469 0.723,1.041 0.723,1.73"
     id="path144"
     style="display:none;fill:#ffffff;fill-opacity:1" /><path
     fill="#e8e7e2"
     d="m 660.118,563.656 c 0.42,0.117 0.79,0.319 1.109,0.655 0.487,0.471 0.723,1.042 0.723,1.731 0,0.286 -0.033,0.555 -0.135,0.807 -0.017,0.067 -0.05,0.135 -0.067,0.202 -0.117,0.252 -0.285,0.504 -0.521,0.723 -0.017,0.017 -0.051,0.051 -0.084,0.084 0,0.017 -0.017,0.017 -0.034,0.034 -0.017,0.017 -0.033,0.033 -0.05,0.033 -0.067,0.067 -0.151,0.135 -0.235,0.186 -0.387,0.252 -0.808,0.369 -1.277,0.386 -0.018,0 -0.034,0 -0.034,0 -0.017,0 -0.017,0 -0.017,0 -0.017,0 -0.033,0 -0.051,0 h -1.025 -0.336 v -4.908 h 1.361 c 0.018,0 0.034,0 0.051,0 0,0 0,0 0.017,0 0,0 0.017,0 0.034,0 0.033,0 0.084,0 0.117,0 0.117,0.017 0.219,0.017 0.336,0.051 v 0 c 0.051,0 0.084,0.016 0.118,0.016"
     id="path148"
     style="display:none;fill:#ffffff;fill-opacity:1" /><path
     fill="#fbca67"
     d="m 616.456,557.437 c -0.1,0 -0.1,0 -0.1,0 -0.1,0 -0.1,0 -0.1,0 -0.099,0 -0.099,0 -0.099,0 -0.101,0 -0.101,0 -0.101,0 H 577.24 v 4.908 h 15.13 7.962 30.656 v -4.908 h -14.333 c 0,0 0,0 -0.1,0 0.001,0 0.001,0 -0.099,0 v 0"
     id="path152"
     style="display:none;fill:#ffffff;fill-opacity:1" /><path
     fill="#e8e7e2"
     d="m 616.655,563.589 c 0,0 0,0 -0.1,0 0,0 0,0 -0.1,0 v 0 c -0.1,0 -0.1,0 -0.1,0 -0.1,0 -0.1,0 -0.1,0 -0.099,0 -0.099,0 -0.099,0 -0.101,0 -0.101,0 -0.101,0 H 577.24 v 4.908 h 15.13 7.962 30.656 v -4.908 h -14.333"
     id="path154"
     style="display:none;fill:#ffffff;fill-opacity:1" /><path
     fill="#cd5920"
     d="m 656.79,543.889 v -4.908 h -12.916 c -0.03,0 -0.03,0 -0.03,0 -0.03,0 -0.03,0 -0.06,0 0,0 0,0 -0.03,0 0,0 0,0 -0.029,0 h -0.03 c 0,0 0,0 -0.03,0 h -4.306 v 4.908 h 9.209 2.392 4.545 1.285"
     id="path156"
     style="display:none;fill:#ffffff;fill-opacity:1" /><path
     fill="#fbca67"
     d="m 643.784,545.133 c 0,0 0,0 -0.03,0 0,0 0,0 -0.029,0 h -0.03 c 0,0 0,0 -0.03,0 h -4.306 v 4.908 h 9.209 2.392 4.545 1.286 v -4.908 h -12.916 c -0.03,0 -0.03,0 -0.03,0 -0.032,0 -0.032,0 -0.061,0"
     id="path158"
     style="display:none;fill:#ffffff;fill-opacity:1" /><path
     fill="#fbca67"
     d="m 648.567,556.193 h 2.392 4.545 1.286 v -4.908 h -12.916 c -0.03,0 -0.03,0 -0.03,0 -0.03,0 -0.03,0 -0.06,0 0,0 0,0 -0.03,0 0,0 0,0 -0.029,0 h -0.03 c 0,0 0,0 -0.03,0 h -4.306 v 4.908 h 9.208"
     id="path160"
     style="display:none;fill:#ffffff;fill-opacity:1" /><path
     fill="#fbca67"
     d="m 643.874,557.437 c -0.03,0 -0.03,0 -0.03,0 -0.03,0 -0.03,0 -0.06,0 0,0 0,0 -0.03,0 0,0 0,0 -0.029,0 h -0.03 c 0,0 0,0 -0.03,0 h -4.306 v 4.908 h 9.209 2.392 4.545 1.286 v -4.908 h -12.917"
     id="path162"
     style="display:none;fill:#ffffff;fill-opacity:1" /><polyline
     fill="#e8e7e2"
     points="656.79,563.589 639.358,563.589 639.358,568.497 656.79,568.497 656.79,563.589  "
     id="polyline164"
     style="display:none;fill:#ffffff;fill-opacity:1" /><g
     id="g412"
     style="display:none;fill:#ffffff;fill-opacity:1">
		<path
   fill="#e8e7e2"
   d="m 634.836,564.516 c 0,-0.305 0.08,-0.535 0.238,-0.691 0.16,-0.156 0.393,-0.234 0.699,-0.234 0.305,0 0.537,0.078 0.697,0.234 0.158,0.156 0.238,0.387 0.238,0.691 v 0.719 c 0,0.205 -0.051,0.375 -0.148,0.506 -0.097,0.131 -0.246,0.223 -0.439,0.275 0.205,0.037 0.355,0.115 0.447,0.234 0.094,0.117 0.141,0.287 0.141,0.512 v 0.949 c 0,0.303 -0.08,0.535 -0.238,0.691 -0.16,0.158 -0.393,0.236 -0.697,0.236 -0.307,0 -0.539,-0.078 -0.699,-0.236 -0.158,-0.156 -0.238,-0.389 -0.238,-0.691 v -0.938 c 0,-0.219 0.041,-0.383 0.123,-0.494 0.08,-0.113 0.219,-0.199 0.416,-0.264 -0.205,-0.053 -0.346,-0.131 -0.424,-0.234 -0.076,-0.104 -0.115,-0.279 -0.115,-0.523 v -0.742 z m 1.15,0.869 v -0.928 c 0,-0.105 -0.018,-0.18 -0.049,-0.225 -0.033,-0.043 -0.088,-0.064 -0.164,-0.064 -0.076,0 -0.129,0.021 -0.162,0.064 -0.033,0.041 -0.049,0.117 -0.049,0.225 v 0.928 c 0,0.107 0.016,0.184 0.049,0.229 0.033,0.045 0.086,0.068 0.162,0.068 0.074,0 0.127,-0.023 0.162,-0.07 0.034,-0.046 0.051,-0.122 0.051,-0.227 z m -0.423,1.258 v 1.094 c 0,0.109 0.016,0.186 0.049,0.23 0.033,0.043 0.086,0.064 0.162,0.064 0.074,0 0.127,-0.021 0.162,-0.066 0.033,-0.045 0.051,-0.121 0.051,-0.229 v -1.094 c 0,-0.107 -0.018,-0.184 -0.051,-0.229 -0.035,-0.047 -0.088,-0.07 -0.162,-0.07 -0.076,0 -0.129,0.023 -0.162,0.068 -0.033,0.045 -0.049,0.122 -0.049,0.232 z"
   id="path408"
   style="fill:#ffffff;fill-opacity:1" />
		<path
   fill="#e8e7e2"
   d="m 637.049,564.516 c 0,-0.305 0.08,-0.535 0.238,-0.691 0.16,-0.156 0.393,-0.234 0.699,-0.234 0.305,0 0.537,0.078 0.697,0.234 0.158,0.156 0.238,0.387 0.238,0.691 v 0.719 c 0,0.205 -0.051,0.375 -0.148,0.506 -0.097,0.131 -0.246,0.223 -0.439,0.275 0.205,0.037 0.355,0.115 0.447,0.234 0.094,0.117 0.141,0.287 0.141,0.512 v 0.949 c 0,0.303 -0.08,0.535 -0.238,0.691 -0.16,0.158 -0.393,0.236 -0.697,0.236 -0.307,0 -0.539,-0.078 -0.699,-0.236 -0.158,-0.156 -0.238,-0.389 -0.238,-0.691 v -0.938 c 0,-0.219 0.041,-0.383 0.123,-0.494 0.08,-0.113 0.219,-0.199 0.416,-0.264 -0.205,-0.053 -0.346,-0.131 -0.424,-0.234 -0.076,-0.104 -0.115,-0.279 -0.115,-0.523 v -0.742 z m 1.15,0.869 v -0.928 c 0,-0.105 -0.018,-0.18 -0.049,-0.225 -0.033,-0.043 -0.088,-0.064 -0.164,-0.064 -0.076,0 -0.129,0.021 -0.162,0.064 -0.033,0.041 -0.049,0.117 -0.049,0.225 v 0.928 c 0,0.107 0.016,0.184 0.049,0.229 0.033,0.045 0.086,0.068 0.162,0.068 0.074,0 0.127,-0.023 0.162,-0.07 0.034,-0.046 0.051,-0.122 0.051,-0.227 z m -0.424,1.258 v 1.094 c 0,0.109 0.016,0.186 0.049,0.23 0.033,0.043 0.086,0.064 0.162,0.064 0.074,0 0.127,-0.021 0.162,-0.066 0.033,-0.045 0.051,-0.121 0.051,-0.229 v -1.094 c 0,-0.107 -0.018,-0.184 -0.051,-0.229 -0.035,-0.047 -0.088,-0.07 -0.162,-0.07 -0.076,0 -0.129,0.023 -0.162,0.068 -0.033,0.045 -0.049,0.122 -0.049,0.232 z"
   id="path410"
   style="fill:#ffffff;fill-opacity:1" />
	</g><g
     id="g418"
     style="display:none;fill:#ffffff;fill-opacity:1">
		<path
   fill="#e8e7e2"
   d="m 635.639,537.174 1.053,0.004 v 0.584 h -1.871 c -0.004,-0.033 -0.008,-0.068 -0.008,-0.104 -0.002,-0.037 -0.002,-0.09 -0.002,-0.16 0,-0.27 0.033,-0.529 0.102,-0.781 0.069,-0.252 0.191,-0.551 0.367,-0.898 0.053,-0.102 0.135,-0.244 0.244,-0.432 0.309,-0.527 0.463,-0.959 0.463,-1.297 v -0.41 c 0,-0.096 -0.018,-0.164 -0.049,-0.203 -0.033,-0.039 -0.088,-0.059 -0.164,-0.059 -0.064,0 -0.113,0.023 -0.15,0.068 -0.035,0.047 -0.055,0.111 -0.055,0.193 v 0.92 h -0.725 v -0.854 c 0,-0.303 0.082,-0.531 0.246,-0.689 0.164,-0.158 0.402,-0.236 0.715,-0.236 0.301,0 0.527,0.068 0.68,0.207 0.154,0.137 0.23,0.342 0.23,0.613 v 0.584 c 0,0.355 -0.148,0.797 -0.447,1.324 -0.047,0.082 -0.082,0.146 -0.104,0.189 -0.207,0.379 -0.344,0.67 -0.414,0.873 -0.07,0.203 -0.107,0.39 -0.111,0.564 z"
   id="path414"
   style="fill:#ffffff;fill-opacity:1" />
		<path
   fill="#e8e7e2"
   d="m 637.049,533.746 c 0,-0.305 0.08,-0.535 0.238,-0.691 0.16,-0.156 0.393,-0.234 0.699,-0.234 0.305,0 0.537,0.078 0.697,0.234 0.158,0.156 0.238,0.387 0.238,0.691 v 3.195 c 0,0.303 -0.08,0.535 -0.238,0.691 -0.16,0.158 -0.393,0.236 -0.697,0.236 -0.307,0 -0.539,-0.078 -0.699,-0.236 -0.158,-0.156 -0.238,-0.389 -0.238,-0.691 z m 0.726,-0.058 v 3.279 c 0,0.109 0.016,0.186 0.049,0.23 0.033,0.043 0.086,0.064 0.162,0.064 0.074,0 0.127,-0.021 0.162,-0.066 0.033,-0.045 0.051,-0.121 0.051,-0.229 v -3.279 c 0,-0.105 -0.018,-0.18 -0.049,-0.225 -0.033,-0.043 -0.088,-0.064 -0.164,-0.064 -0.076,0 -0.129,0.021 -0.162,0.064 -0.033,0.042 -0.049,0.118 -0.049,0.226 z"
   id="path416"
   style="fill:#ffffff;fill-opacity:1" />
	</g><g
     id="g424"
     style="display:none;fill:#ffffff;fill-opacity:1">
		<path
   fill="#e8e7e2"
   d="m 636.721,555.406 c 0,0.303 -0.078,0.535 -0.238,0.691 -0.158,0.158 -0.391,0.236 -0.697,0.236 -0.311,0 -0.541,-0.076 -0.691,-0.229 -0.148,-0.15 -0.225,-0.385 -0.225,-0.699 v -0.957 h 0.707 v 0.982 c 0,0.109 0.016,0.186 0.049,0.23 0.033,0.043 0.086,0.064 0.16,0.064 0.074,0 0.129,-0.021 0.164,-0.066 0.035,-0.045 0.053,-0.121 0.053,-0.229 v -1.35 c 0,-0.082 -0.016,-0.148 -0.047,-0.193 -0.031,-0.047 -0.078,-0.068 -0.137,-0.068 -0.039,0 -0.074,0.012 -0.105,0.033 -0.029,0.023 -0.059,0.059 -0.084,0.107 h -0.73 v -2.578 h 1.85 v 0.596 h -1.123 v 1.463 c 0.088,-0.094 0.174,-0.16 0.258,-0.201 0.084,-0.041 0.18,-0.061 0.287,-0.061 0.199,0 0.34,0.055 0.426,0.166 0.084,0.109 0.125,0.33 0.125,0.66 v 1.403 z"
   id="path420"
   style="fill:#ffffff;fill-opacity:1" />
		<path
   fill="#e8e7e2"
   d="m 637.646,556.227 v -3.678 h -0.521 v -0.531 c 0.217,-0.014 0.381,-0.072 0.49,-0.178 0.111,-0.105 0.166,-0.252 0.166,-0.439 v -0.018 h 0.596 v 4.844 z"
   id="path422"
   style="fill:#ffffff;fill-opacity:1" />
	</g><g
     id="g428"
     style="display:none;fill:#ffffff;fill-opacity:1">
		<path
   fill="#cd5920"
   d="m 637.045,539.906 c 0,-0.305 0.08,-0.535 0.238,-0.691 0.16,-0.156 0.393,-0.234 0.699,-0.234 0.305,0 0.537,0.078 0.697,0.234 0.158,0.156 0.238,0.387 0.238,0.691 v 0.719 c 0,0.205 -0.051,0.375 -0.148,0.506 -0.097,0.131 -0.246,0.223 -0.439,0.275 0.205,0.037 0.355,0.115 0.447,0.234 0.094,0.117 0.141,0.287 0.141,0.512 v 0.949 c 0,0.303 -0.08,0.535 -0.238,0.691 -0.16,0.158 -0.393,0.236 -0.697,0.236 -0.307,0 -0.539,-0.078 -0.699,-0.236 -0.158,-0.156 -0.238,-0.389 -0.238,-0.691 v -0.938 c 0,-0.219 0.041,-0.383 0.123,-0.494 0.08,-0.113 0.219,-0.199 0.416,-0.264 -0.205,-0.053 -0.346,-0.131 -0.424,-0.234 -0.076,-0.104 -0.115,-0.279 -0.115,-0.523 v -0.742 z m 1.15,0.869 v -0.928 c 0,-0.105 -0.018,-0.18 -0.049,-0.225 -0.033,-0.043 -0.088,-0.064 -0.164,-0.064 -0.076,0 -0.129,0.021 -0.162,0.064 -0.033,0.041 -0.049,0.117 -0.049,0.225 v 0.928 c 0,0.107 0.016,0.184 0.049,0.229 0.033,0.045 0.086,0.068 0.162,0.068 0.074,0 0.127,-0.023 0.162,-0.07 0.034,-0.045 0.051,-0.121 0.051,-0.227 z m -0.424,1.258 v 1.094 c 0,0.109 0.016,0.186 0.049,0.23 0.033,0.043 0.086,0.064 0.162,0.064 0.074,0 0.127,-0.021 0.162,-0.066 0.033,-0.045 0.051,-0.121 0.051,-0.229 v -1.094 c 0,-0.107 -0.018,-0.184 -0.051,-0.229 -0.035,-0.047 -0.088,-0.07 -0.162,-0.07 -0.076,0 -0.129,0.023 -0.162,0.068 -0.033,0.045 -0.049,0.123 -0.049,0.232 z"
   id="path426"
   style="fill:#ffffff;fill-opacity:1" />
	</g><g
     id="g434"
     style="display:none;fill:#ffffff;fill-opacity:1">
		<path
   fill="#fbca67"
   d="m 635.852,562.379 v -1.205 h -1.182 v -0.541 l 0.916,-3.098 h 0.988 v 3.047 h 0.301 v 0.592 h -0.301 v 1.205 z m -0.559,-1.797 h 0.588 l 0.039,-1.752 c 0,-0.037 0.014,-0.219 0.043,-0.545 l 0.01,-0.123 h -0.066 c -0.023,0.137 -0.045,0.254 -0.066,0.355 -0.021,0.101 -0.041,0.189 -0.061,0.27 z"
   id="path430"
   style="fill:#ffffff;fill-opacity:1" />
		<path
   fill="#fbca67"
   d="m 637.111,562.379 1.088,-4.248 h -1.258 v -0.596 h 1.98 v 0.607 l -1.031,4.236 h -0.779 z"
   id="path432"
   style="fill:#ffffff;fill-opacity:1" />
	</g><g
     id="g440"
     style="display:none;fill:#ffffff;fill-opacity:1">
		<path
   fill="#e8e7e2"
   d="m 634.898,550.074 1.088,-4.248 h -1.258 v -0.596 h 1.98 v 0.607 l -1.031,4.236 h -0.779 z"
   id="path436"
   style="fill:#ffffff;fill-opacity:1" />
		<path
   fill="#e8e7e2"
   d="m 637.852,549.486 1.053,0.004 v 0.584 h -1.871 c -0.004,-0.033 -0.008,-0.068 -0.008,-0.104 -0.002,-0.037 -0.002,-0.09 -0.002,-0.16 0,-0.27 0.033,-0.529 0.102,-0.781 0.069,-0.252 0.191,-0.551 0.367,-0.898 0.053,-0.102 0.135,-0.244 0.244,-0.432 0.309,-0.527 0.463,-0.959 0.463,-1.297 v -0.41 c 0,-0.096 -0.018,-0.164 -0.049,-0.203 -0.033,-0.039 -0.088,-0.059 -0.164,-0.059 -0.064,0 -0.113,0.023 -0.15,0.068 -0.035,0.047 -0.055,0.111 -0.055,0.193 v 0.92 h -0.725 v -0.854 c 0,-0.303 0.082,-0.531 0.246,-0.689 0.164,-0.158 0.402,-0.236 0.715,-0.236 0.301,0 0.527,0.068 0.68,0.207 0.154,0.137 0.23,0.342 0.23,0.613 v 0.584 c 0,0.355 -0.148,0.797 -0.447,1.324 -0.047,0.082 -0.082,0.146 -0.104,0.189 -0.207,0.379 -0.344,0.67 -0.414,0.873 -0.07,0.203 -0.108,0.391 -0.111,0.564 z"
   id="path438"
   style="fill:#ffffff;fill-opacity:1" />
	</g><path
     fill="#e8e7e2"
     d="m 643.694,495.812 c 0,0 0,0 -0.03,0 h -4.306 v 4.908 h 9.209 2.392 4.545 1.286 v -4.908 h -12.916 c -0.03,0 -0.03,0 -0.03,0 -0.03,0 -0.03,0 -0.06,0 0,0 0,0 -0.03,0 0,0 0,0 -0.029,0 h -0.031"
     id="path442"
     style="display:none;fill:#ffffff;fill-opacity:1" /><path
     fill="#e8e7e2"
     d="m 658.084,495.812 h 1.361 c 0.018,0 0.034,0 0.051,0 0,0 0,0 0.017,0 0,0 0.017,0 0.034,0 0.033,0 0.084,0 0.117,0.017 0.117,0 0.219,0.018 0.336,0.034 v 0 c 0.051,0.017 0.084,0.017 0.118,0.033 0.42,0.101 0.79,0.319 1.109,0.639 0.487,0.487 0.723,1.06 0.723,1.731 0,0.303 -0.033,0.571 -0.135,0.823 -0.017,0.067 -0.05,0.135 -0.067,0.186 -0.117,0.269 -0.285,0.504 -0.521,0.723 -0.017,0.033 -0.051,0.067 -0.084,0.101 0,0 -0.017,0.018 -0.034,0.034 -0.017,0 -0.033,0.017 -0.05,0.033 -0.067,0.067 -0.151,0.118 -0.235,0.185 -0.387,0.235 -0.808,0.37 -1.277,0.37 -0.018,0 -0.034,0 -0.034,0 -0.017,0 -0.017,0 -0.017,0 -0.017,0 -0.033,0 -0.051,0 h -1.025 -0.336 v -4.909"
     id="path444"
     style="display:none;fill:#ffffff;fill-opacity:1" /><path
     fill="#e8e7e2"
     d="m 616.655,495.812 c 0,0 0,0 -0.1,0 0,0 0,0 -0.099,0 v 0 c -0.101,0 -0.101,0 -0.101,0 -0.1,0 -0.1,0 -0.1,0 -0.099,0 -0.099,0 -0.099,0 -0.1,0 -0.1,0 -0.1,0 H 577.24 v 4.908 h 15.13 7.962 30.656 v -4.908 h -14.333"
     id="path446"
     style="display:none;fill:#ffffff;fill-opacity:1" /><path
     fill="#cd5920"
     d="m 616.655,501.98 c 0,0 0,0 -0.1,0 0,0 0,0 -0.1,0 v 0 c -0.1,0 -0.1,0 -0.1,0 -0.1,0 -0.1,0 -0.1,0 -0.099,0 -0.099,0 -0.099,0 -0.101,0 -0.101,0 -0.101,0 H 577.24 v 4.908 h 15.13 7.962 30.656 v -4.908 h -14.333"
     id="path448"
     style="display:none;fill:#ffffff;fill-opacity:1" /><path
     fill="#cd5920"
     d="m 660,502.031 v 0 c 0.051,0 0.084,0.017 0.118,0.017 0.42,0.118 0.79,0.319 1.109,0.655 0.487,0.471 0.723,1.042 0.723,1.731 0,0.286 -0.033,0.555 -0.135,0.807 -0.017,0.067 -0.05,0.135 -0.067,0.202 -0.117,0.252 -0.285,0.504 -0.521,0.723 -0.017,0.017 -0.051,0.05 -0.084,0.084 0,0.017 -0.017,0.017 -0.034,0.034 -0.017,0.017 -0.033,0.033 -0.05,0.033 -0.067,0.067 -0.151,0.135 -0.235,0.185 -0.387,0.252 -0.808,0.37 -1.277,0.387 -0.018,0 -0.034,0 -0.034,0 -0.017,0 -0.017,0 -0.017,0 -0.017,0 -0.033,0 -0.051,0 h -1.025 -0.336 v -4.908 h 1.361 c 0.018,0 0.034,0 0.051,0 0,0 0,0 0.017,0 0,0 0.017,0 0.034,0 0.033,0 0.084,0 0.117,0 0.117,0.016 0.219,0.016 0.336,0.05"
     id="path450"
     style="display:none;fill:#ffffff;fill-opacity:1" /><path
     fill="#e8e7e2"
     d="m 616.655,508.133 c 0,0 0,0 -0.1,0 0,0 0,0 -0.1,0 v 0 c -0.1,0 -0.1,0 -0.1,0 -0.1,0 -0.1,0 -0.1,0 -0.099,0 -0.099,0 -0.099,0 -0.101,0 -0.101,0 -0.101,0 H 577.24 v 4.908 h 15.13 7.962 30.656 v -4.908 h -14.333"
     id="path452"
     style="display:none;fill:#ffffff;fill-opacity:1" /><path
     fill="#e8e7e2"
     d="m 661.95,516.739 c 0,0.285 -0.033,0.555 -0.135,0.807 -0.017,0.067 -0.05,0.135 -0.067,0.201 -0.117,0.253 -0.285,0.505 -0.521,0.723 -0.017,0.018 -0.051,0.051 -0.084,0.084 0,0.018 -0.017,0.018 -0.034,0.034 -0.017,0.017 -0.033,0.034 -0.05,0.034 -0.067,0.067 -0.151,0.134 -0.235,0.185 -0.387,0.252 -0.808,0.369 -1.277,0.387 -0.018,0 -0.034,0 -0.034,0 -0.017,0 -0.017,0 -0.017,0 -0.017,0 -0.033,0 -0.051,0 h -1.025 -0.336 v -4.908 h 1.361 c 0.018,0 0.034,0 0.051,0 0,0 0,0 0.017,0 0,0 0.017,0 0.034,0 0.033,0 0.084,0 0.117,0.017 0.117,0 0.219,0 0.336,0.033 v 0 c 0.051,0 0.084,0.017 0.118,0.017 0.42,0.118 0.79,0.319 1.109,0.656 0.488,0.469 0.723,1.041 0.723,1.73"
     id="path454"
     style="display:none;fill:#ffffff;fill-opacity:1" /><path
     fill="#625c5f"
     d="m 661.95,522.892 c 0,0.285 -0.033,0.554 -0.135,0.807 -0.017,0.067 -0.05,0.134 -0.067,0.201 -0.117,0.252 -0.285,0.505 -0.521,0.723 -0.017,0.018 -0.051,0.051 -0.084,0.084 0,0.018 -0.017,0.018 -0.034,0.034 -0.017,0.017 -0.033,0.033 -0.05,0.033 -0.067,0.067 -0.151,0.135 -0.235,0.186 -0.387,0.252 -0.808,0.369 -1.277,0.386 -0.018,0 -0.034,0 -0.034,0 -0.017,0 -0.017,0 -0.017,0 -0.017,0 -0.033,0 -0.051,0 h -1.025 -0.336 v -4.908 h 1.361 c 0.018,0 0.034,0 0.051,0 0,0 0,0 0.017,0 0,0 0.017,0 0.034,0 0.033,0 0.084,0 0.117,0 0.117,0.018 0.219,0.018 0.336,0.051 v 0 c 0.051,0 0.084,0.017 0.118,0.017 0.42,0.118 0.79,0.319 1.109,0.656 0.488,0.468 0.723,1.04 0.723,1.73"
     id="path456"
     style="display:none;fill:#ffffff;fill-opacity:1" /><path
     fill="#e8e7e2"
     d="m 660.118,526.656 c 0.42,0.117 0.79,0.319 1.109,0.655 0.487,0.471 0.723,1.042 0.723,1.731 0,0.286 -0.033,0.555 -0.135,0.807 -0.017,0.067 -0.05,0.135 -0.067,0.202 -0.117,0.252 -0.285,0.504 -0.521,0.723 -0.017,0.017 -0.051,0.051 -0.084,0.084 0,0.017 -0.017,0.017 -0.034,0.034 -0.017,0.017 -0.033,0.033 -0.05,0.033 -0.067,0.067 -0.151,0.135 -0.235,0.186 -0.387,0.252 -0.808,0.369 -1.277,0.386 -0.018,0 -0.034,0 -0.034,0 -0.017,0 -0.017,0 -0.017,0 -0.017,0 -0.033,0 -0.051,0 h -1.025 -0.336 v -4.908 h 1.361 c 0.018,0 0.034,0 0.051,0 0,0 0,0 0.017,0 0,0 0.017,0 0.034,0 0.033,0 0.084,0 0.117,0 0.117,0.017 0.219,0.017 0.336,0.051 v 0 c 0.051,0 0.084,0.016 0.118,0.016"
     id="path458"
     style="display:none;fill:#ffffff;fill-opacity:1" /><path
     fill="#e8e7e2"
     d="m 616.257,514.285 c -0.099,0 -0.099,0 -0.099,0 -0.101,0 -0.101,0 -0.101,0 H 577.24 v 4.908 h 15.13 7.962 30.656 v -4.908 h -14.333 c 0,0 0,0 -0.1,0 0,0 0,0 -0.1,0 v 0 c -0.1,0 -0.1,0 -0.1,0 -0.098,0 -0.098,0 -0.098,0"
     id="path460"
     style="display:none;fill:#ffffff;fill-opacity:1" /><path
     fill="#fbca67"
     d="m 616.456,520.437 c -0.1,0 -0.1,0 -0.1,0 -0.1,0 -0.1,0 -0.1,0 -0.099,0 -0.099,0 -0.099,0 -0.101,0 -0.101,0 -0.101,0 H 577.24 v 4.908 h 15.13 7.962 30.656 v -4.908 h -14.333 c 0,0 0,0 -0.1,0 0.001,0 0.001,0 -0.099,0 v 0"
     id="path462"
     style="display:none;fill:#ffffff;fill-opacity:1" /><path
     fill="#cd5920"
     d="m 656.79,506.889 v -4.908 h -12.916 c -0.03,0 -0.03,0 -0.03,0 -0.03,0 -0.03,0 -0.06,0 0,0 0,0 -0.03,0 0,0 0,0 -0.029,0 h -0.03 c 0,0 0,0 -0.03,0 h -4.306 v 4.908 h 9.209 2.392 4.545 1.285"
     id="path466"
     style="display:none;fill:#ffffff;fill-opacity:1" /><path
     fill="#fbca67"
     d="m 643.784,508.133 c 0,0 0,0 -0.03,0 0,0 0,0 -0.029,0 h -0.03 c 0,0 0,0 -0.03,0 h -4.306 v 4.908 h 9.209 2.392 4.545 1.286 v -4.908 h -12.916 c -0.03,0 -0.03,0 -0.03,0 -0.032,0 -0.032,0 -0.061,0"
     id="path468"
     style="display:none;fill:#ffffff;fill-opacity:1" /><path
     fill="#fbca67"
     d="m 648.567,519.193 h 2.392 4.545 1.286 v -4.908 h -12.916 c -0.03,0 -0.03,0 -0.03,0 -0.03,0 -0.03,0 -0.06,0 0,0 0,0 -0.03,0 0,0 0,0 -0.029,0 h -0.03 c 0,0 0,0 -0.03,0 h -4.306 v 4.908 h 9.208"
     id="path470"
     style="display:none;fill:#ffffff;fill-opacity:1" /><polyline
     fill="#e8e7e2"
     points="656.79,526.589 639.358,526.589 639.358,531.497 656.79,531.497 656.79,526.589  "
     id="polyline474"
     style="display:none;fill:#ffffff;fill-opacity:1" /><g
     id="g722"
     style="display:none;fill:#ffffff;fill-opacity:1">
		<path
   fill="#e8e7e2"
   d="m 634.836,527.516 c 0,-0.305 0.08,-0.535 0.238,-0.691 0.16,-0.156 0.393,-0.234 0.699,-0.234 0.305,0 0.537,0.078 0.697,0.234 0.158,0.156 0.238,0.387 0.238,0.691 v 0.719 c 0,0.205 -0.051,0.375 -0.148,0.506 -0.097,0.131 -0.246,0.223 -0.439,0.275 0.205,0.037 0.355,0.115 0.447,0.234 0.094,0.117 0.141,0.287 0.141,0.512 v 0.949 c 0,0.303 -0.08,0.535 -0.238,0.691 -0.16,0.158 -0.393,0.236 -0.697,0.236 -0.307,0 -0.539,-0.078 -0.699,-0.236 -0.158,-0.156 -0.238,-0.389 -0.238,-0.691 v -0.938 c 0,-0.219 0.041,-0.383 0.123,-0.494 0.08,-0.113 0.219,-0.199 0.416,-0.264 -0.205,-0.053 -0.346,-0.131 -0.424,-0.234 -0.076,-0.104 -0.115,-0.279 -0.115,-0.523 v -0.742 z m 1.15,0.869 v -0.928 c 0,-0.105 -0.018,-0.18 -0.049,-0.225 -0.033,-0.043 -0.088,-0.064 -0.164,-0.064 -0.076,0 -0.129,0.021 -0.162,0.064 -0.033,0.041 -0.049,0.117 -0.049,0.225 v 0.928 c 0,0.107 0.016,0.184 0.049,0.229 0.033,0.045 0.086,0.068 0.162,0.068 0.074,0 0.127,-0.023 0.162,-0.07 0.034,-0.046 0.051,-0.122 0.051,-0.227 z m -0.423,1.258 v 1.094 c 0,0.109 0.016,0.186 0.049,0.23 0.033,0.043 0.086,0.064 0.162,0.064 0.074,0 0.127,-0.021 0.162,-0.066 0.033,-0.045 0.051,-0.121 0.051,-0.229 v -1.094 c 0,-0.107 -0.018,-0.184 -0.051,-0.229 -0.035,-0.047 -0.088,-0.07 -0.162,-0.07 -0.076,0 -0.129,0.023 -0.162,0.068 -0.033,0.045 -0.049,0.122 -0.049,0.232 z"
   id="path718"
   style="fill:#ffffff;fill-opacity:1" />
		<path
   fill="#e8e7e2"
   d="m 637.049,527.516 c 0,-0.305 0.08,-0.535 0.238,-0.691 0.16,-0.156 0.393,-0.234 0.699,-0.234 0.305,0 0.537,0.078 0.697,0.234 0.158,0.156 0.238,0.387 0.238,0.691 v 0.719 c 0,0.205 -0.051,0.375 -0.148,0.506 -0.097,0.131 -0.246,0.223 -0.439,0.275 0.205,0.037 0.355,0.115 0.447,0.234 0.094,0.117 0.141,0.287 0.141,0.512 v 0.949 c 0,0.303 -0.08,0.535 -0.238,0.691 -0.16,0.158 -0.393,0.236 -0.697,0.236 -0.307,0 -0.539,-0.078 -0.699,-0.236 -0.158,-0.156 -0.238,-0.389 -0.238,-0.691 v -0.938 c 0,-0.219 0.041,-0.383 0.123,-0.494 0.08,-0.113 0.219,-0.199 0.416,-0.264 -0.205,-0.053 -0.346,-0.131 -0.424,-0.234 -0.076,-0.104 -0.115,-0.279 -0.115,-0.523 v -0.742 z m 1.15,0.869 v -0.928 c 0,-0.105 -0.018,-0.18 -0.049,-0.225 -0.033,-0.043 -0.088,-0.064 -0.164,-0.064 -0.076,0 -0.129,0.021 -0.162,0.064 -0.033,0.041 -0.049,0.117 -0.049,0.225 v 0.928 c 0,0.107 0.016,0.184 0.049,0.229 0.033,0.045 0.086,0.068 0.162,0.068 0.074,0 0.127,-0.023 0.162,-0.07 0.034,-0.046 0.051,-0.122 0.051,-0.227 z m -0.424,1.258 v 1.094 c 0,0.109 0.016,0.186 0.049,0.23 0.033,0.043 0.086,0.064 0.162,0.064 0.074,0 0.127,-0.021 0.162,-0.066 0.033,-0.045 0.051,-0.121 0.051,-0.229 v -1.094 c 0,-0.107 -0.018,-0.184 -0.051,-0.229 -0.035,-0.047 -0.088,-0.07 -0.162,-0.07 -0.076,0 -0.129,0.023 -0.162,0.068 -0.033,0.045 -0.049,0.122 -0.049,0.232 z"
   id="path720"
   style="fill:#ffffff;fill-opacity:1" />
	</g><g
     id="g728"
     style="display:none;fill:#ffffff;fill-opacity:1">
		<path
   fill="#e8e7e2"
   d="m 635.639,500.174 1.053,0.004 v 0.584 h -1.871 c -0.004,-0.033 -0.008,-0.068 -0.008,-0.104 -0.002,-0.037 -0.002,-0.09 -0.002,-0.16 0,-0.27 0.033,-0.529 0.102,-0.781 0.069,-0.252 0.191,-0.551 0.367,-0.898 0.053,-0.102 0.135,-0.244 0.244,-0.432 0.309,-0.527 0.463,-0.959 0.463,-1.297 v -0.41 c 0,-0.096 -0.018,-0.164 -0.049,-0.203 -0.033,-0.039 -0.088,-0.059 -0.164,-0.059 -0.064,0 -0.113,0.023 -0.15,0.068 -0.035,0.047 -0.055,0.111 -0.055,0.193 v 0.92 h -0.725 v -0.854 c 0,-0.303 0.082,-0.531 0.246,-0.689 0.164,-0.158 0.402,-0.236 0.715,-0.236 0.301,0 0.527,0.068 0.68,0.207 0.154,0.137 0.23,0.342 0.23,0.613 v 0.584 c 0,0.355 -0.148,0.797 -0.447,1.324 -0.047,0.082 -0.082,0.146 -0.104,0.189 -0.207,0.379 -0.344,0.67 -0.414,0.873 -0.07,0.203 -0.107,0.39 -0.111,0.564 z"
   id="path724"
   style="fill:#ffffff;fill-opacity:1" />
		<path
   fill="#e8e7e2"
   d="m 637.049,496.746 c 0,-0.305 0.08,-0.535 0.238,-0.691 0.16,-0.156 0.393,-0.234 0.699,-0.234 0.305,0 0.537,0.078 0.697,0.234 0.158,0.156 0.238,0.387 0.238,0.691 v 3.195 c 0,0.303 -0.08,0.535 -0.238,0.691 -0.16,0.158 -0.393,0.236 -0.697,0.236 -0.307,0 -0.539,-0.078 -0.699,-0.236 -0.158,-0.156 -0.238,-0.389 -0.238,-0.691 z m 0.726,-0.058 v 3.279 c 0,0.109 0.016,0.186 0.049,0.23 0.033,0.043 0.086,0.064 0.162,0.064 0.074,0 0.127,-0.021 0.162,-0.066 0.033,-0.045 0.051,-0.121 0.051,-0.229 v -3.279 c 0,-0.105 -0.018,-0.18 -0.049,-0.225 -0.033,-0.043 -0.088,-0.064 -0.164,-0.064 -0.076,0 -0.129,0.021 -0.162,0.064 -0.033,0.042 -0.049,0.118 -0.049,0.226 z"
   id="path726"
   style="fill:#ffffff;fill-opacity:1" />
	</g><g
     id="g734"
     style="display:none;fill:#ffffff;fill-opacity:1">
		<path
   fill="#e8e7e2"
   d="m 636.721,518.406 c 0,0.303 -0.078,0.535 -0.238,0.691 -0.158,0.158 -0.391,0.236 -0.697,0.236 -0.311,0 -0.541,-0.076 -0.691,-0.229 -0.148,-0.15 -0.225,-0.385 -0.225,-0.699 v -0.957 h 0.707 v 0.982 c 0,0.109 0.016,0.186 0.049,0.23 0.033,0.043 0.086,0.064 0.16,0.064 0.074,0 0.129,-0.021 0.164,-0.066 0.035,-0.045 0.053,-0.121 0.053,-0.229 v -1.35 c 0,-0.082 -0.016,-0.148 -0.047,-0.193 -0.031,-0.047 -0.078,-0.068 -0.137,-0.068 -0.039,0 -0.074,0.012 -0.105,0.033 -0.029,0.023 -0.059,0.059 -0.084,0.107 h -0.73 v -2.578 h 1.85 v 0.596 h -1.123 v 1.463 c 0.088,-0.094 0.174,-0.16 0.258,-0.201 0.084,-0.041 0.18,-0.061 0.287,-0.061 0.199,0 0.34,0.055 0.426,0.166 0.084,0.109 0.125,0.33 0.125,0.66 v 1.403 z"
   id="path730"
   style="fill:#ffffff;fill-opacity:1" />
		<path
   fill="#e8e7e2"
   d="m 637.646,519.227 v -3.678 h -0.521 v -0.531 c 0.217,-0.014 0.381,-0.072 0.49,-0.178 0.111,-0.105 0.166,-0.252 0.166,-0.439 v -0.018 h 0.596 v 4.844 z"
   id="path732"
   style="fill:#ffffff;fill-opacity:1" />
	</g><g
     id="g738"
     style="display:none;fill:#ffffff;fill-opacity:1">
		<path
   fill="#cd5920"
   d="m 637.045,502.906 c 0,-0.305 0.08,-0.535 0.238,-0.691 0.16,-0.156 0.393,-0.234 0.699,-0.234 0.305,0 0.537,0.078 0.697,0.234 0.158,0.156 0.238,0.387 0.238,0.691 v 0.719 c 0,0.205 -0.051,0.375 -0.148,0.506 -0.097,0.131 -0.246,0.223 -0.439,0.275 0.205,0.037 0.355,0.115 0.447,0.234 0.094,0.117 0.141,0.287 0.141,0.512 v 0.949 c 0,0.303 -0.08,0.535 -0.238,0.691 -0.16,0.158 -0.393,0.236 -0.697,0.236 -0.307,0 -0.539,-0.078 -0.699,-0.236 -0.158,-0.156 -0.238,-0.389 -0.238,-0.691 v -0.938 c 0,-0.219 0.041,-0.383 0.123,-0.494 0.08,-0.113 0.219,-0.199 0.416,-0.264 -0.205,-0.053 -0.346,-0.131 -0.424,-0.234 -0.076,-0.104 -0.115,-0.279 -0.115,-0.523 v -0.742 z m 1.15,0.869 v -0.928 c 0,-0.105 -0.018,-0.18 -0.049,-0.225 -0.033,-0.043 -0.088,-0.064 -0.164,-0.064 -0.076,0 -0.129,0.021 -0.162,0.064 -0.033,0.041 -0.049,0.117 -0.049,0.225 v 0.928 c 0,0.107 0.016,0.184 0.049,0.229 0.033,0.045 0.086,0.068 0.162,0.068 0.074,0 0.127,-0.023 0.162,-0.07 0.034,-0.045 0.051,-0.121 0.051,-0.227 z m -0.424,1.258 v 1.094 c 0,0.109 0.016,0.186 0.049,0.23 0.033,0.043 0.086,0.064 0.162,0.064 0.074,0 0.127,-0.021 0.162,-0.066 0.033,-0.045 0.051,-0.121 0.051,-0.229 v -1.094 c 0,-0.107 -0.018,-0.184 -0.051,-0.229 -0.035,-0.047 -0.088,-0.07 -0.162,-0.07 -0.076,0 -0.129,0.023 -0.162,0.068 -0.033,0.045 -0.049,0.123 -0.049,0.232 z"
   id="path736"
   style="fill:#ffffff;fill-opacity:1" />
	</g><g
     id="g744"
     style="display:none;fill:#ffffff;fill-opacity:1">
		<path
   fill="#fbca67"
   d="m 635.852,525.379 v -1.205 h -1.182 v -0.541 l 0.916,-3.098 h 0.988 v 3.047 h 0.301 v 0.592 h -0.301 v 1.205 z m -0.559,-1.797 h 0.588 l 0.039,-1.752 c 0,-0.037 0.014,-0.219 0.043,-0.545 l 0.01,-0.123 h -0.066 c -0.023,0.137 -0.045,0.254 -0.066,0.355 -0.021,0.101 -0.041,0.189 -0.061,0.27 z"
   id="path740"
   style="fill:#ffffff;fill-opacity:1" />
		<path
   fill="#fbca67"
   d="m 637.111,525.379 1.088,-4.248 h -1.258 v -0.596 h 1.98 v 0.607 l -1.031,4.236 h -0.779 z"
   id="path742"
   style="fill:#ffffff;fill-opacity:1" />
	</g><g
     id="g750"
     style="display:none;fill:#ffffff;fill-opacity:1">
		<path
   fill="#e8e7e2"
   d="m 634.898,513.074 1.088,-4.248 h -1.258 v -0.596 h 1.98 v 0.607 l -1.031,4.236 h -0.779 z"
   id="path746"
   style="fill:#ffffff;fill-opacity:1" />
		<path
   fill="#e8e7e2"
   d="m 637.852,512.486 1.053,0.004 v 0.584 h -1.871 c -0.004,-0.033 -0.008,-0.068 -0.008,-0.104 -0.002,-0.037 -0.002,-0.09 -0.002,-0.16 0,-0.27 0.033,-0.529 0.102,-0.781 0.069,-0.252 0.191,-0.551 0.367,-0.898 0.053,-0.102 0.135,-0.244 0.244,-0.432 0.309,-0.527 0.463,-0.959 0.463,-1.297 v -0.41 c 0,-0.096 -0.018,-0.164 -0.049,-0.203 -0.033,-0.039 -0.088,-0.059 -0.164,-0.059 -0.064,0 -0.113,0.023 -0.15,0.068 -0.035,0.047 -0.055,0.111 -0.055,0.193 v 0.92 h -0.725 v -0.854 c 0,-0.303 0.082,-0.531 0.246,-0.689 0.164,-0.158 0.402,-0.236 0.715,-0.236 0.301,0 0.527,0.068 0.68,0.207 0.154,0.137 0.23,0.342 0.23,0.613 v 0.584 c 0,0.355 -0.148,0.797 -0.447,1.324 -0.047,0.082 -0.082,0.146 -0.104,0.189 -0.207,0.379 -0.344,0.67 -0.414,0.873 -0.07,0.203 -0.108,0.391 -0.111,0.564 z"
   id="path748"
   style="fill:#ffffff;fill-opacity:1" />
	</g><path
     fill="#e8e7e2"
     d="m 472.33982,67.902666 c 0,0 0,0 -0.0893,0 0,0 0,0 -0.0894,0 v 0 c -0.0893,0 -0.0893,0 -0.0893,0 -0.0894,0 -0.0894,0 -0.0894,0 -0.0884,0 -0.0884,0 -0.0884,0 -0.0902,0 -0.0902,0 -0.0902,0 H 437.14 v 9.644401 h 13.51194 7.11052 27.37754 v -9.644401 h -12.80018"
     id="path464-7"
     style="display:inline;fill:#ffffff;fill-opacity:1;stroke-width:0.999998" /><path
     fill="#e8e7e2"
     d="m 472.33982,550.3905 c 0,0 0,0 -0.0893,0 0,0 0,0 -0.0894,0 v 0 c -0.0893,0 -0.0893,0 -0.0893,0 -0.0894,0 -0.0894,0 -0.0894,0 -0.0884,0 -0.0884,0 -0.0884,0 -0.0902,0 -0.0902,0 -0.0902,0 H 437.14 v 9.6444 h 13.51194 7.11052 27.37754 v -9.6444 h -12.80018"
     id="path464-7-1"
     style="display:inline;fill:#ffffff;fill-opacity:1;stroke-width:0.999998" /><g
     id="Button_CALIBRATE_TMP"
     style="display:inline;fill:#ffffff;fill-opacity:1;stroke-width:0.702541"
     transform="matrix(2.0260821,0,0,1,-678.52036,126)">
		<path
   fill="#ff9c00"
   d="m 639.564,41 c 0,0 0,0 -0.159,0 0,0 0,0 -0.158,0 v 0 c -0.16,0 -0.16,0 -0.16,0 -0.158,0 -0.158,0 -0.158,0 -0.157,0 -0.157,0 -0.157,0 -0.158,0 -0.158,0 -0.158,0 h -61.806 v 74.015 h 24.088 12.678 48.81 V 41 h -22.82"
   id="path1525"
   style="fill:#ffffff;fill-opacity:1;stroke-width:0.702541" />
		
	</g></g>
	
	
	
	
	
	
	
	
	
	
	
	
	
	
	
	
	
	
	
	
	
	
	
	
	
	
	
	
	
	
	
	
	
	
	
	
	
	
	
	
	
	
	
	
	
	
	
	
	
	
	
	
	
	
	
	
	
	
	
	
	
	
	
	
	
	
	
	
	
	
	
	
	
	
	
	
	
	
	
	
	
	
	
	
	
	
	
	
	
	
	
	
	
	
	
	
	
	
	
	
	
	
	
	
	
	
	
	
	
	
	
	
	
	
	
	
	
	
	
	
	
	
	
	
	
	
	
	
	
	
	
	
	
	
	
	
	
	
	
	
	
	
	
	
	
	
	
	
	
	
	
	
	
	
	
	
	
	
	
	
	
	
	
	
	
	
	
	
	
	
	
	
	
	
	
	
	
	
	
	
	
	
	
	
	
	
	
	
	
	
	
	
	
	
	
	
	
	
	
	
	
	
	
	
	
	
	
	
	
	
	
	
	
	
	
	
	
	
	
	
	
	
	
	
	
	
	
	
	
	
	
	
	
	
	
	
	
	
	
	
	
	
	
	
	
	
	
	
	
	
	
	
	
	
	
	
	
	
	
	
	
	
	
	
	
	
	
	
	
	
	
	
	
	
	
	
	
	
	
	
	
	
	
	
	
	
	
	
	<path
   fill="#939497"
   d="M 1001.035,473 H 995 v 12 h 6.035 c 1.741,0 3.218,-0.508 4.441,-1.742 1.224,-1.225 1.841,-2.653 1.841,-4.394 0,-1.73 -0.617,-2.998 -1.841,-4.232 -1.223,-1.223 -2.7,-1.632 -4.441,-1.632 z M 790,492.964 c 0,-1.871 0.902,-3.55 2.246,-4.876 1.258,-1.275 3.01,-2.088 4.778,-2.088 H 705 v 7 h 85 z M 905,473 H 717.132 c -3.349,0 -6.126,1.125 -8.505,3.521 -2.398,2.381 -3.627,5.069 -3.627,8.435 V 485 h 200 z m 96.035,-23 H 995 v 13 h 6.035 c 1.741,0 3.218,-0.801 4.441,-2.023 1.224,-1.234 1.841,-2.803 1.841,-4.533 0,-1.74 -0.617,-3.298 -1.841,-4.522 -1.223,-1.235 -2.7,-1.922 -4.441,-1.922 z M 717.132,463 H 993 V 450 H 705 v 0.309 c 0,3.365 1.229,6.422 3.627,8.803 2.379,2.396 5.156,3.888 8.505,3.888 z m 75.114,-15.956 C 790.902,445.718 790,444.172 790,442.301 V 442 h -85 v 7 h 92.024 c -1.768,0 -3.52,-0.681 -4.778,-1.956 z M 20.281,11.883 c -1.887,1.887 -2.839,4.187 -2.839,6.873 0,2.669 0.952,4.725 2.839,6.628 C 22.168,27.271 24.446,28 27.132,28 H 37 V 9 h -9.868 c -2.686,0 -4.964,0.979 -6.851,2.883 z m -0.998,570.056 c -1.223,1.223 -1.84,2.749 -1.84,4.49 0,1.73 0.617,3.352 1.84,4.585 1.224,1.224 2.7,1.985 4.441,1.985 H 30 v -13 h -6.276 c -1.741,10e-4 -3.218,0.706 -4.441,1.94 z M 1001.035,580 H 995 v 13 h 6.035 c 1.741,0 3.218,-0.737 4.441,-1.961 1.224,-1.233 1.841,-2.77 1.841,-4.5 0,-1.742 -0.617,-3.347 -1.841,-4.57 -1.223,-1.235 -2.7,-1.969 -4.441,-1.969 z M 681.118,9 H 542 V 9 H 488 V 9 H 218 v 19 h 251.264 0.017 88.179 c 1.683,1 3.228,1.093 4.435,2.486 1.343,1.496 2.105,3.558 2.105,5.683 V 36 h 136 v -8.076 c 0,-5.117 -2.012,-9.547 -5.667,-13.202 C 690.661,11.05 686.252,9 681.118,9 Z m 323.361,16.395 c 1.887,-1.904 2.839,-4.065 2.839,-6.734 0,-2.687 -0.952,-4.95 -2.839,-6.837 C 1002.591,9.92 1000.313,9 997.627,9 H 988 v 19 h 9.627 c 2.686,0 4.964,-0.718 6.852,-2.605 z M 790,36.169 c 0,-2.125 0.902,-4.187 2.246,-5.683 C 793.453,29.092 795.137,29 796.82,28 H 935.514 935.531 878 V 9 h 39 V 9 H 862 V 9 H 723.678 c -5.135,0 -9.441,2.05 -13.113,5.722 C 706.91,18.377 705,22.807 705,27.924 V 36 h 85 z M 100,593 h 587.663 c 3.35,0 6.228,-1.429 8.608,-3.826 2.396,-2.38 3.729,-5.373 3.729,-8.739 V 580 H 100 Z m 464,-20.572 c 0,1.87 -0.763,3.354 -2.105,4.68 -1.258,1.275 -2.87,1.893 -4.638,1.893 H 700 v -7 H 564 Z m 141,8.007 c 0,3.366 1.229,6.359 3.627,8.739 2.379,2.397 5.156,3.826 8.505,3.826 H 992 V 580 H 705 Z m 87.246,-3.328 c -1.344,-1.326 -2.246,-2.81 -2.246,-4.68 v -0.428 h -85 v 7 h 92.024 c -1.768,10e-4 -3.52,-0.616 -4.778,-1.892 z"
   id="path752"
   sodipodi:nodetypes="sccscscsscccccscscscccsccscscsscccscscsccccccscsccsccscsccccsccscscsscccccccccccccssscscsccsccccccccccccsssccccscscccscccccsscscccscsccccc"
   style="display:none;fill:#ffffff;fill-opacity:1" />
</g>


<g
   id="Contours"
   transform="translate(-168)">
	
</g>
<path
   fill="#3a3a3a"
   d="m 396,174.04338 v 44.63383 h 48 v -44.63383 z"
   id="path1639-2"
   sodipodi:nodetypes="ccccc"
   style="display:inline;fill:#ffffff;fill-opacity:1;stroke-width:1" /><path
   fill="#3a3a3a"
   d="m 396,315.163 v 44.63383 h 48 V 315.163 Z"
   id="path1639-21"
   sodipodi:nodetypes="ccccc"
   style="display:inline;fill:#ffffff;fill-opacity:1;stroke-width:1" /></svg>
