<?xml version="1.0" encoding="UTF-8" standalone="no"?>
<svg
   width="1952"
   height="2500"
   viewBox="130.93 206.396 333.528 427.082"
   version="1.1"
   id="svg4201"
   sodipodi:docname="starfleet.svg"
   inkscape:version="1.2.2 (732a01da63, 2022-12-09)"
   xmlns:inkscape="http://www.inkscape.org/namespaces/inkscape"
   xmlns:sodipodi="http://sodipodi.sourceforge.net/DTD/sodipodi-0.dtd"
   xmlns="http://www.w3.org/2000/svg"
   xmlns:svg="http://www.w3.org/2000/svg">
  <defs
     id="defs4205" />
  <sodipodi:namedview
     id="namedview4203"
     pagecolor="#000000"
     bordercolor="#111111"
     borderopacity="1"
     inkscape:showpageshadow="0"
     inkscape:pageopacity="0"
     inkscape:pagecheckerboard="1"
     inkscape:deskcolor="#d1d1d1"
     showgrid="false"
     inkscape:zoom="0.684"
     inkscape:cx="1294.5906"
     inkscape:cy="2121.345"
     inkscape:window-width="1920"
     inkscape:window-height="1009"
     inkscape:window-x="-8"
     inkscape:window-y="-8"
     inkscape:window-maximized="1"
     inkscape:current-layer="svg4201" />
  <path
     fill="#0B1123"
     d="M158.719 632.53c-1.964-1.436-2.124-2.852-1.364-12.043 2.74-26.209 7.337-52.157 12.449-77.925-17.62-25.619-32.519-56.414-37.301-82.552-2.891-16.534-1.669-45.453 2.609-61.782 6.081-23.203 19.49-48.675 36.737-69.783 26.627-27.747 53.81-44.975 86.877-55.642l9.608-19.872c17.36-35.904 24.645-46.536 31.885-46.536 3.542 0 4.938.955 9.103 6.224 4.742 6 23.541 42.801 27.996 54.81 1.915 5.16 2.844 6.091 7.909 7.926 33.304 12.068 53.185 24.548 73.63 46.221 8.969 9.508 23.141 29.797 29.209 41.818 16.931 33.54 20.875 72.696 11.231 111.498-5.139 20.675-15.923 42.977-29.368 60.73-4.705 6.213-6.358 9.389-5.88 11.295 1.243 4.952 4.401 28.36 6.173 45.758 1.909 18.745 1.37 22.177-3.38 21.5-12.711-15.38-15.712-28.714-28.097-47.967-57.534 37.018-123.363 41.786-182.748 13.064-4.011-1.653-3.205-2.419-25.236 23.977-12.954 15.52-24.664 28.066-27.818 29.806-1.29.707-2.789.521-4.225-.521v-.004zm101.716-125.686c25.536-22.327 49.988-37.259 69.449-42.406 11.101-2.937 17.315-.754 27.614 9.714 21.087 23.827 45.92 74.678 55.391 82.484-.01-3.715-8.133-43.555-12.95-63.141-9.849-40.048-16.277-60.961-34.312-111.615-23.507-66.026-31.178-86.085-45.292-118.437-12.904-29.578-19.371-40.925-23.326-40.925-5.811 0-19.151 27.435-44.928 92.393-9.006 22.693-31.578 85.322-37.322 103.554-8.19 25.992-25.465 89.167-28.147 102.934-3.303 23.643-9.835 48.844-9.909 72.14 27.63-27.121 54.038-60.262 83.732-86.695zm38.262-86.975l-23.763 17.965 4.632-28.554-25.837-14.075 31.29-6.577 14.298-111.208 13.686 112.463 28.648 5.433-24.086 13.59 5.662 30.583-24.53-19.62zm93.592 133.14c-1.858-4.845-21.763-38.073-30.131-50.908-11.662-17.887-19.579-26.589-24.188-26.589-17.806 0-56.795 28.418-95.372 69.513-9.698 10.33-18.498 20.502-18.24 21.288 50.563 27.567 117.009 24.251 167.931-13.304zm33.3-36.264c24.217-36.265 31.139-88.158 17.218-129.088-11.182-32.874-35.39-62.654-66.108-81.328-13.384-8.136-26.186-13.822-27.628-12.27-.516.558 4.038 14.681 10.119 31.393 28.986 79.655 43.144 124.608 54.483 173.003 5.585 23.836 5.686 24.185 7.015 24.182.533-.002 2.738-2.653 4.901-5.892zM252.024 291.962c-.921-1.489-16.929 5.331-27.239 11.302-34.382 19.912-60.407 52.199-73.5 91.186-5.607 16.698-7.188 44.144-3.696 64.169 5.781 20.54 17.612 54.996 28.441 64.773 12.79-66.826 46.52-157.599 75.994-231.43z"
     id="path4199"
     style="fill:#000000;fill-opacity:1" />
  <path
     id="rect5665"
     style="fill:#000000;fill-opacity:1;stroke:none;stroke-width:1.61447;stroke-linecap:round;stroke-miterlimit:4.5;stroke-opacity:1;paint-order:fill markers stroke"
     d="m 299.27117,277.50595 13.6862,112.46305 28.64788,5.43296 -24.08592,13.58976 5.66189,30.58312 -24.52977,-19.62008 -23.76321,17.96516 4.63203,-28.5541 -25.83695,-14.07499 31.28994,-6.57695 z m -48.305,14.35498 c -3.82198,0.38951 -17.2055,6.26436 -26.22674,11.48898 -34.38196,19.91198 -60.40722,52.19909 -73.50021,91.18605 -5.60699,16.69798 -7.18795,44.14374 -3.69595,64.16872 5.78099,20.53998 17.61198,54.99611 28.44097,64.7731 12.78999,-66.82594 46.52013,-157.59904 75.9941,-231.42997 -0.11512,-0.18613 -0.46617,-0.24253 -1.01217,-0.18688 z m 99.11124,2.03168 c -0.5142,-0.0228 -0.87197,0.0583 -1.05222,0.2523 -0.516,0.558 4.03807,14.68107 10.11906,31.39306 28.98597,79.65492 43.14418,124.60795 54.48316,173.0029 5.585,23.83597 5.6858,24.18503 7.0148,24.18203 0.533,-0.002 2.73802,-2.65316 4.90102,-5.89216 24.21697,-36.26497 31.13895,-88.15803 17.21796,-129.08799 -11.18199,-32.87397 -35.39001,-62.65397 -66.10797,-81.32795 -11.71099,-7.11899 -22.97642,-12.36233 -26.57581,-12.52219 z m -12.15309,181.70533 c -17.80599,0 -56.79494,28.41796 -95.3719,69.51292 -9.69799,10.32999 -18.49815,20.50201 -18.24015,21.28801 50.56295,27.56697 117.00907,24.25087 167.93102,-13.30409 -1.858,-4.845 -21.76294,-38.07303 -30.13093,-50.90802 -11.66199,-17.88698 -19.57905,-26.58882 -24.18804,-26.58882 z"
     sodipodi:nodetypes="ccccccccccccccccccscccccccssccccs" />
</svg>
