<?xml version="1.0" encoding="UTF-8" standalone="no"?>
<!-- Created with Inkscape (http://www.inkscape.org/) -->

<svg
   width="1500"
   height="500"
   viewBox="0 0 396.87498 132.29167"
   version="1.1"
   id="svg5"
   inkscape:version="1.2.2 (732a01da63, 2022-12-09)"
   xml:space="preserve"
   sodipodi:docname="3do.svg"
   xmlns:inkscape="http://www.inkscape.org/namespaces/inkscape"
   xmlns:sodipodi="http://sodipodi.sourceforge.net/DTD/sodipodi-0.dtd"
   xmlns="http://www.w3.org/2000/svg"
   xmlns:svg="http://www.w3.org/2000/svg"><sodipodi:namedview
     id="namedview7"
     pagecolor="#000000"
     bordercolor="#111111"
     borderopacity="1"
     inkscape:showpageshadow="0"
     inkscape:pageopacity="0"
     inkscape:pagecheckerboard="1"
     inkscape:deskcolor="#d1d1d1"
     inkscape:document-units="mm"
     showgrid="false"
     inkscape:zoom="0.62760417"
     inkscape:cx="958.40663"
     inkscape:cy="595.91701"
     inkscape:window-width="1920"
     inkscape:window-height="1009"
     inkscape:window-x="-8"
     inkscape:window-y="-8"
     inkscape:window-maximized="1"
     inkscape:current-layer="layer1" /><defs
     id="defs2" /><g
     inkscape:label="Layer 1"
     inkscape:groupmode="layer"
     id="layer1"><path
       id="rect231"
       style="fill:#ffffff;stroke-width:0.8001;stroke-linecap:square;paint-order:fill markers stroke"
       d="M -55.5625,-74.619087 V 211.13091 h 508 V -74.619087 Z M 323.29913,0.42387826 c 15.45685,0 29.28615,5.73343704 41.48532,17.19791574 12.2039,11.469199 18.29398,27.783709 18.29398,48.926729 0,19.81538 -5.74983,35.706947 -17.2899,47.658067 -11.53772,11.94876 -25.63161,17.92552 -42.27908,17.92552 -17.98928,0 -32.64999,-6.35946 -43.94202,-19.03346 -11.29675,-12.674 -16.95245,-28.445307 -16.95245,-47.313387 0,-19.17282 5.93874,-34.8613 17.85679,-47.074646 C 292.37092,6.5208973 306.65402,0.42387826 323.29913,0.42387826 Z M 110.91881,2.1767423 h 68.36637 c 19.76814,0 35.431,5.950701 46.95217,17.8805627 11.52118,11.908598 17.2899,26.956878 17.2899,45.123348 0,9.41396 -1.75995,18.28468 -5.27513,26.5529 -3.52226,8.291837 -8.92976,15.834697 -16.23415,22.614637 -7.30202,6.77758 -14.79305,11.14299 -22.47304,13.09429 -7.68,1.9513 -17.101,2.92023 -28.29854,2.92023 h -60.32758 v -6.2606 h 17.06356 V 8.4295913 h -17.06356 z m -59.54985,0.580843 c 12.12593,0 22.34039,2.735608 30.66531,8.1855467 8.34145,5.452301 12.50156,12.433063 12.50156,20.984761 0,16.81757 -14.73608,26.9757 -44.18748,30.4767 v 0.38292 c 16.26713,0.32128 28.27942,3.76087 36.03501,10.31875 7.75559,6.55788 11.63495,14.48831 11.63495,23.77943 0,10.380157 -4.40823,18.948567 -13.24106,25.688347 -8.81628,6.76104 -20.56428,10.1415 -35.20612,10.1415 -12.655098,0 -22.435399,-2.69781 -29.359444,-8.06979 C 13.287642,119.27613 9.82679,113.16228 9.82679,106.2784 c 0,-4.56406 1.552216,-8.265867 4.65398,-11.062897 3.101764,-2.79702 6.829561,-4.18372 11.162109,-4.18372 4.065603,0 7.566466,1.22835 10.460344,3.65921 2.912776,2.45684 4.349088,5.695477 4.349088,9.699667 0,5.35072 -3.366357,9.83476 -10.120312,13.45861 -1.322916,0.70161 -2.002979,1.50725 -2.002979,2.39313 0,1.64892 1.889811,3.09712 5.693193,4.34444 3.78212,1.24732 7.642136,1.85208 11.613247,1.85208 12.99764,0 19.50578,-10.16071 19.50578,-30.479267 0,-20.11541 -7.81223,-30.17439 -23.420272,-30.17439 l -12.957349,0.56224 c -2.612758,0 -3.938261,-1.02526 -3.938261,-3.07578 0,-2.35526 1.381831,-3.54345 4.12688,-3.54345 l 9.440251,0.38292 c 9.626571,0 16.077871,-2.27266 19.349721,-6.84145 3.29312,-4.54279 4.91856,-11.02296 4.91856,-19.43292 0,-8.650919 -1.22813,-15.027065 -3.70623,-19.090305 -2.4781,-4.086864 -6.73529,-6.1159057 -12.75219,-6.1159057 -3.269493,0 -6.354951,0.585864 -9.22993,1.7694007 -2.874978,1.171725 -4.329968,2.315253 -4.329968,3.463354 0,1.063057 0.944795,2.171076 2.837036,3.319178 4.956208,3.35926 7.453292,6.99714 7.453292,10.923368 0,3.86007 -1.382052,6.91903 -4.162537,9.21287 -2.780484,2.27494 -5.903371,3.42098 -9.385473,3.42098 -4.008906,0 -7.583003,-1.30897 -10.724927,-3.90519 -3.139562,-2.61512 -4.729427,-5.83228 -4.729427,-9.71362 0,-6.6004 3.501011,-12.313019 10.500651,-17.120399 6.997277,-4.8310027 15.96478,-7.2429687 26.937893,-7.2429687 z m 271.53536,3.921725 c -6.14919,0 -11.04872,1.547121 -14.70091,4.6276237 -3.64747,3.09704 -5.91769,8.046175 -6.82956,14.866279 -0.88824,6.8201 -1.34152,20.13434 -1.34152,39.95208 0,19.61458 0.3754,32.61035 1.15497,38.948527 0.75595,6.33582 2.79954,11.38624 6.10919,15.14946 3.31201,3.7585 8.5137,5.62963 15.60783,5.62963 5.88225,0 10.68743,-1.50703 14.39395,-4.52375 3.70889,-3.04035 6.03603,-7.94932 6.96444,-14.76706 0.94494,-6.820097 1.39836,-20.238507 1.39836,-40.235787 0,-19.63348 -0.38041,-32.56959 -1.13636,-38.80383 -0.77485,-6.257863 -2.7427,-11.287614 -5.92006,-15.112257 -3.17972,-3.8199177 -8.41957,-5.7309157 -15.70033,-5.7309157 z M 160.8801,8.4295913 V 124.10211 h 10.64741 c 16.2884,0 26.1251,-4.5448 29.51035,-13.61622 3.38761,-9.09504 5.07204,-24.625237 5.07204,-46.611617 0,-17.20027 -1.04187,-29.57429 -3.12074,-37.07474 -2.06233,-7.524085 -5.2208,-12.475436 -9.44232,-14.825973 -4.21679,-2.3576237 -9.58871,-3.5439687 -16.07809,-3.5439687 z" /></g></svg>
