<?xml version="1.0" encoding="UTF-8" standalone="no"?>
<!-- Created with Inkscape (http://www.inkscape.org/) -->

<svg
   width="1500"
   height="500"
   viewBox="0 0 396.87498 132.29167"
   version="1.1"
   id="svg5"
   inkscape:version="1.2.2 (732a01da63, 2022-12-09)"
   xml:space="preserve"
   sodipodi:docname="adam.svg"
   xmlns:inkscape="http://www.inkscape.org/namespaces/inkscape"
   xmlns:sodipodi="http://sodipodi.sourceforge.net/DTD/sodipodi-0.dtd"
   xmlns="http://www.w3.org/2000/svg"
   xmlns:svg="http://www.w3.org/2000/svg"><sodipodi:namedview
     id="namedview7"
     pagecolor="#000000"
     bordercolor="#111111"
     borderopacity="1"
     inkscape:showpageshadow="0"
     inkscape:pageopacity="0"
     inkscape:pagecheckerboard="1"
     inkscape:deskcolor="#d1d1d1"
     inkscape:document-units="mm"
     showgrid="false"
     inkscape:zoom="0.62760417"
     inkscape:cx="958.40663"
     inkscape:cy="595.91701"
     inkscape:window-width="1920"
     inkscape:window-height="1009"
     inkscape:window-x="-8"
     inkscape:window-y="-8"
     inkscape:window-maximized="1"
     inkscape:current-layer="layer1" /><defs
     id="defs2" /><g
     inkscape:label="Layer 1"
     inkscape:groupmode="layer"
     id="layer1"><path
       id="rect231"
       style="fill:#ffffff;stroke-width:0.8001;stroke-linecap:square;paint-order:fill markers stroke"
       d="M -55.56255,-78.413278 V 207.33672 h 508 V -78.413278 Z m 78.3146,101.67131 h 44.26241 l 35.28209,80.946998 c 0,0.80914 -0.6508,1.46038 -1.45986,1.46038 H 78.14298 L 72.46013,92.403682 H 29.835855 L 24.152998,105.66541 H 1.459809 c -0.809375,0 -1.459859,-0.65124 -1.459859,-1.46038 L 24.113724,49.346362 c 0,-3.31579 -1.913987,-5.24981 -5.249809,-5.24981 h -5.583639 c -0.986903,0 -1.183876,-0.7693 -0.750341,-1.75596 l 8.032067,-17.50281 c 0.454105,-0.96753 1.203383,-1.57975 2.190048,-1.57975 z m 77.23663,0 h 70.25049 c 9.25491,0 15.88482,6.63146 15.88482,15.88637 v 50.63464 c 0,9.25485 -6.62991,15.886368 -15.88482,15.886368 H 104.2308 c -0.80907,0 -1.46038,-0.65124 -1.46038,-1.46038 V 49.346362 c 0,-3.31579 -1.93366,-5.24981 -5.24826,-5.24981 h -7.00629 c -0.98666,0 -1.18336,-0.7693 -0.74982,-1.75596 l 8.03103,-17.50281 c 0.45506,-0.96753 1.20493,-1.57975 2.1916,-1.57975 z m 104.62565,0 h 44.26087 l 34.80924,79.858178 -0.0387,-53.769848 c 0,-3.31579 -1.91266,-5.24981 -5.24878,-5.24981 h -7.00526 c -0.98666,0 -1.18404,-0.7693 -0.7493,-1.75596 l 8.03051,-17.50281 c 0.45387,-0.96753 1.2039,-1.57975 2.19057,-1.57975 h 43.88724 l 15.53032,46.808 15.52877,-46.808 H 396.875 v 80.946998 c 0,0.80914 -0.65079,1.46038 -1.45986,1.46038 h -20.75842 c -0.80907,0 -1.46089,-0.65124 -1.46089,-1.46038 V 46.504682 c 0,-0.55313 -0.63148,-0.98651 -1.16427,-0.98651 l 0.0202,0.0191 c -0.55313,0 -1.0467,0.41426 -1.2237,0.96739 L 352.14083,104.5993 c -0.19793,0.61176 -0.84845,1.06609 -1.49965,1.06609 h -20.24631 c -0.6518,0 -1.30232,-0.45433 -1.49965,-1.06609 l -19.1611,-58.094638 c -0.1782,-0.55313 -0.67177,-0.96739 -1.2237,-0.96739 l 0.0191,-0.0191 c -0.5328,0 -1.16427,0.43338 -1.16427,0.98651 v 57.700348 c 0,0.80914 -0.65131,1.46038 -1.46038,1.46038 h -20.7579 c -0.67835,0 -1.05797,-0.59958 -1.22422,-1.2237 -0.16612,0.62429 -0.54625,1.2237 -1.22421,1.2237 h -22.69319 l -5.68234,-13.261728 h -42.62479 l -5.68234,13.261728 h -22.69371 c -0.80966,0 -1.46037,-0.65124 -1.46037,-1.46038 l 24.11429,-54.858668 c 0,-3.31579 -1.91445,-5.24981 -5.24878,-5.24981 h -5.58519 c -0.98666,0 -1.18336,-0.7693 -0.74982,-1.75596 l 8.03155,-17.50281 c 0.45327,-0.96753 1.2033,-1.57975 2.19056,-1.57975 z m -76.70384,20.83852 c -0.80907,0 -1.46089,0.65183 -1.46089,1.4609 v 36.86131 c 0,0.80961 0.65182,1.45986 1.46089,1.45986 h 30.23175 c 3.31519,0 5.24877,-1.93304 5.24877,-5.24877 v -29.28349 c 0,-3.31579 -1.93358,-5.24981 -5.24877,-5.24981 z m -76.76224,0.94723 -0.1974,0.0202 c -0.552,0 -1.04527,0.41441 -1.2237,0.96635 l -10.774022,25.1411 c -0.355498,0.82874 -0.07891,1.341 0.749825,1.341 H 62.59355 c 0.82879,0 1.10502,-0.51226 0.74982,-1.341 l -10.77454,-25.1411 c -0.17724,-0.55194 -0.67043,-0.96635 -1.22266,-0.96635 z m 181.86177,0 -0.19637,0.0202 c -0.55313,0 -1.0467,0.41441 -1.2237,0.96635 l -10.77454,25.1411 c -0.3552,0.82874 -0.0789,1.341 0.74931,1.341 h 22.89163 c 0.8282,0 1.10399,-0.51226 0.74879,-1.341 l -10.77402,-25.1411 c -0.177,-0.55194 -0.67057,-0.96635 -1.2237,-0.96635 z" /><g
       id="g12"
       transform="matrix(0.05979789,0,0,-0.05979789,55.562496,184.07844)"
       style="fill:#ffffff;fill-opacity:1;stroke:none;stroke-width:0.589949" /></g></svg>
