<?xml version="1.0" encoding="UTF-8" standalone="no"?>
<!-- Created with Inkscape (http://www.inkscape.org/) -->

<svg
   width="1500"
   height="500"
   viewBox="0 0 396.87498 132.29167"
   version="1.1"
   id="svg5"
   inkscape:version="1.2.2 (732a01da63, 2022-12-09)"
   xml:space="preserve"
   sodipodi:docname="ags.svg"
   xmlns:inkscape="http://www.inkscape.org/namespaces/inkscape"
   xmlns:sodipodi="http://sodipodi.sourceforge.net/DTD/sodipodi-0.dtd"
   xmlns="http://www.w3.org/2000/svg"
   xmlns:svg="http://www.w3.org/2000/svg"><sodipodi:namedview
     id="namedview7"
     pagecolor="#000000"
     bordercolor="#111111"
     borderopacity="1"
     inkscape:showpageshadow="0"
     inkscape:pageopacity="0"
     inkscape:pagecheckerboard="1"
     inkscape:deskcolor="#d1d1d1"
     inkscape:document-units="mm"
     showgrid="false"
     inkscape:zoom="0.62760417"
     inkscape:cx="958.40663"
     inkscape:cy="595.91701"
     inkscape:window-width="1920"
     inkscape:window-height="1009"
     inkscape:window-x="-8"
     inkscape:window-y="-8"
     inkscape:window-maximized="1"
     inkscape:current-layer="layer1" /><defs
     id="defs2" /><g
     inkscape:label="Layer 1"
     inkscape:groupmode="layer"
     id="layer1"><path
       id="rect231"
       style="fill:#ffffff;stroke-width:0.8001;stroke-linecap:square;paint-order:fill markers stroke"
       d="M -55.5625,-76.729167 V 209.02083 h 508 V -76.729167 Z M 64.39038,24.820703 c 0.37241,0 0.55863,0.21192 0.55863,0.63459 0,-0.37174 -0.068,0.18604 -0.20361,1.67432 -0.18587,1.87788 -0.32911,4.27895 -0.43098,7.20524 -0.1356,3.31523 -0.20257,7.08755 -0.20257,11.31559 0,6.98499 0.19449,11.95741 0.58343,14.91744 0.0337,0.32146 0.0501,0.5254 0.0501,0.60874 0,0.18654 -0.12596,0.29582 -0.3793,0.33022 -0.60921,0.0847 -2.85131,0.1266 -6.72414,0.1266 -0.91347,0 -1.43809,-0.17692 -1.57303,-0.53278 -0.0344,-0.64228 -0.067,-1.28548 -0.10077,-1.92908 -0.0179,-0.13494 -0.0847,-0.27021 -0.20309,-0.40514 -0.10186,0.0503 -0.22835,0.15209 -0.37982,0.30489 -1.82695,1.79321 -4.11099,2.68872 -6.85074,2.68872 -3.56857,0 -6.4281,-1.25134 -8.575192,-3.75429 -2.04655,-2.38456 -3.06958,-5.39583 -3.06958,-9.03253 0,-3.68696 1.006783,-6.72289 3.018937,-9.10745 2.131217,-2.53735 5.005675,-3.80597 8.625835,-3.80597 2.55388,0 4.54095,0.81178 5.96242,2.43499 0.2368,0.2712 0.4056,0.4067 0.50746,0.4067 0.15214,0 0.2279,-0.22056 0.2279,-0.66043 0,-1.30241 -0.0337,-3.24768 -0.1018,-5.8353 -0.0675,-2.58696 -0.10129,-4.52425 -0.10129,-5.80946 0,-0.49014 0.13512,-0.76984 0.40566,-0.83665 1.08214,-0.0516 2.57028,-0.15223 4.46536,-0.30437 3.38269,-0.42267 4.88042,-0.63459 4.49016,-0.63459 z m 213.36993,0.20413 c 2.56976,0 4.98841,0.4908 7.25588,1.47174 2.45203,1.08215 4.38039,2.60439 5.78466,4.56561 0.28708,0.4068 0.4315,0.69433 0.4315,0.863 0,0.54173 -0.7571,1.75479 -2.27118,3.6406 -1.51407,1.88648 -2.49018,2.82826 -2.93005,2.82826 -0.10054,0 -0.49084,-0.34572 -1.16685,-1.04025 -0.82881,-0.82881 -1.67323,-1.4715 -2.53577,-1.92857 -1.28653,-0.6932 -2.70733,-1.04024 -4.26175,-1.04024 -2.53735,0 -4.55115,0.94793 -6.03943,2.84168 -1.38707,1.74162 -2.07997,3.9152 -2.07997,6.52002 0,2.75696 0.71793,4.93917 2.15594,6.54585 1.48828,1.65762 3.5937,2.48616 6.31692,2.48616 1.72509,0 3.65411,-0.43144 5.78466,-1.29398 -0.0516,-0.55761 -0.20333,-1.97907 -0.45733,-4.26176 -0.22027,-1.75881 -0.32918,-3.18027 -0.32918,-4.26175 0,-0.32147 0.10957,-0.51648 0.32918,-0.58395 0.0853,-0.0337 0.22045,-0.0506 0.40566,-0.0506 0.4908,0 1.23099,0.0465 2.22053,0.13849 0.98955,0.0933 1.73852,0.14056 2.24586,0.14056 0.54041,0 1.35271,-0.0386 2.43551,-0.11472 1.08281,-0.0761 1.89341,-0.1142 2.43448,-0.1142 0.42333,0 0.6351,0.27903 0.6351,0.83664 0,0.81227 -0.0469,2.0388 -0.13952,3.67988 -0.0933,1.64041 -0.14005,2.86606 -0.14005,3.67833 0,2.18148 0.16053,5.44558 0.48266,9.79268 l 0.0238,0.28009 c 0.0337,0.45706 -0.20321,0.68574 -0.71055,0.68574 -0.32147,0 -1.24648,-0.18636 -2.77709,-0.5581 -1.53127,-0.37174 -2.47357,-0.62574 -2.82877,-0.76068 -3.53549,1.38708 -6.92615,2.07998 -10.17457,2.07998 -5.22486,0 -9.5133,-1.74148 -12.86226,-5.22604 -3.31457,-3.43363 -4.97283,-7.772 -4.97283,-13.01471 0,-5.36244 1.60636,-9.81046 4.82038,-13.34596 3.31523,-3.65323 7.61949,-5.47976 12.91446,-5.47976 z m -264.56835,0.22789 c 0.457067,0 1.162927,0.0425 2.118733,0.12712 0.955807,0.0853 1.671113,0.12609 2.144056,0.12609 0.457067,0 1.12911,-0.0295 2.017447,-0.0884 0.888338,-0.0589 1.551741,-0.0889 1.99161,-0.0889 0.320807,0 0.616748,0.27926 0.887284,0.83819 0.828807,1.77602 3.247972,7.86502 7.256405,18.26711 4.025631,10.46889 6.037874,15.93174 6.037874,16.38814 0,0.30494 -0.210881,0.51633 -0.633553,0.63407 -0.507338,0.13494 -2.080537,0.20309 -4.719091,0.20309 -2.418951,0 -3.97458,-0.0682 -4.668449,-0.20309 -0.574807,-0.1184 -0.938755,-0.49925 -1.09089,-1.14153 -0.575468,-2.43482 -1.023152,-3.73807 -1.344621,-3.90674 -0.271197,-0.1184 -2.537296,-0.17725 -6.799068,-0.17725 -2.875356,0 -4.405953,0.0764 -4.592484,0.2279 -0.287734,0.27119 -0.608563,1.17653 -0.963766,2.71508 -0.321468,1.40361 -0.710303,2.16518 -1.16737,2.28358 -0.574807,0.13493 -2.503169,0.20309 -5.78466,0.20309 C 1.293794,61.660273 0,61.414683 0,60.923883 c 0,-0.43921 1.910936,-5.84307 5.7335,-16.21142 4.143371,-11.21369 6.393884,-17.37897 6.748425,-18.49551 0.203068,-0.64227 0.439498,-0.96428 0.710035,-0.96428 z m 140.37748,3.29902 c 0.45706,0 1.10736,0.10145 1.95337,0.30386 0.9644,0.22027 1.63227,0.34764 2.00401,0.38137 0.86254,0.1184 2.16446,0.2787 3.90674,0.48111 0.42333,0.0351 0.6351,0.17816 0.6351,0.4315 0,0.67667 -0.0557,1.69918 -0.16485,3.06906 -0.11046,1.36988 -0.16485,2.40273 -0.16485,3.09594 0,0.8288 0.24508,1.24333 0.73588,1.24333 0.592,0 1.48803,-0.0257 2.68924,-0.076 1.20121,-0.0509 2.10536,-0.076 2.71456,-0.076 0.37174,0 0.55862,0.12634 0.55862,0.38034 0,0.38894 -0.0425,0.97226 -0.12712,1.7508 -0.0853,0.77787 -0.12661,1.36134 -0.12661,1.75028 0,0.4068 0.008,0.9981 0.0258,1.77663 0.0165,0.77788 0.0253,1.36999 0.0253,1.77612 0,0.35521 -0.24455,0.53279 -0.73535,0.53279 -0.33867,0 -0.90509,-0.0125 -1.70016,-0.0382 -0.79573,-0.0251 -1.36178,-0.0377 -1.69912,-0.0377 h -1.90324 c -0.254,0 -0.38086,0.37259 -0.38086,1.11673 v 1.80092 c 0.0165,0.81161 0.0258,1.41317 0.0258,1.80145 0,1.42014 0.16082,2.40175 0.48163,2.94348 0.45706,0.72629 1.35309,1.09038 2.68924,1.09038 0.42267,0 1.02788,-0.0962 1.81436,-0.29197 0.78647,-0.19447 1.3403,-0.29249 1.66243,-0.29249 0.35322,-6.6e-4 0.53123,0.18585 0.53123,0.55759 0,0.50733 -0.0637,1.27636 -0.19069,2.3089 -0.12633,1.03187 -0.19068,1.7886 -0.19068,2.27014 0,0.48221 -0.0501,0.79214 -0.15193,0.92708 -0.10186,0.1356 -0.38061,0.32891 -0.83767,0.58291 -2.18215,1.20121 -4.6008,1.80144 -7.25589,1.80144 -4.88817,0 -7.33185,-1.86951 -7.33185,-5.60741 0,-1.11654 0.0426,-2.79367 0.1266,-5.03535 0.0847,-2.24168 0.12713,-3.91933 0.12713,-5.03587 0,-0.74414 -0.43144,-1.11673 -1.29398,-1.11673 h -0.3297 c -0.15213,0.0172 -0.26237,0.0253 -0.32918,0.0253 -0.64293,0 -0.96428,-0.22816 -0.96428,-0.68523 0,-0.27053 0.0206,-0.6852 0.0636,-1.24281 0.0423,-0.55827 0.0641,-0.97332 0.0641,-1.24386 0,-0.3552 -0.0217,-0.89621 -0.0641,-1.62315 -0.0417,-0.72628 -0.0636,-1.26847 -0.0636,-1.62368 0,-0.33734 0.54153,-0.52385 1.62368,-0.55758 0.6092,-0.0165 0.93867,-0.18666 0.9896,-0.50747 0.10186,-0.64227 0.13554,-1.6577 0.1018,-3.04477 -0.0681,-2.18149 -0.1018,-3.22157 -0.1018,-3.11971 0,-1.96254 0.18585,-2.94349 0.55759,-2.94349 z m -45.43806,7.12618 c 3.2471,0 6.00415,1.18474 8.2703,3.55276 2.26682,2.36802 3.39979,5.18532 3.39979,8.44961 0,1.70788 -0.54965,2.68085 -1.64899,2.91765 -0.18653,0.0337 -1.93665,0.21959 -5.25188,0.55759 -1.99562,0.22027 -4.97256,0.48158 -8.93072,0.78652 0.2368,1.1 0.95525,1.93681 2.15646,2.51095 0.98094,0.47361 2.09701,0.71055 3.34915,0.71055 1.50481,0 3.01879,-0.40574 4.54081,-1.21801 0.64227,-0.40613 1.28496,-0.81151 1.92856,-1.21698 0.3552,0.16867 0.95046,1.03184 1.78852,2.58692 0.83675,1.55641 1.25574,2.54614 1.25574,2.96881 0,0.11841 -0.12648,0.3129 -0.37982,0.58343 -2.06441,2.21588 -5.269,3.3228 -9.61544,3.3228 -4.02497,0 -7.27333,-1.17507 -9.74255,-3.52589 -2.53669,-2.38455 -3.80546,-5.57289 -3.80546,-9.56479 0,-3.89069 1.13313,-7.07889 3.39928,-9.56531 2.33428,-2.57108 5.42996,-3.85661 9.28625,-3.85661 z m 125.20218,0 c 3.24776,0 6.004,1.18474 8.27081,3.55276 2.26748,2.36868 3.40135,5.18532 3.40135,8.44961 0,1.70788 -0.55069,2.68085 -1.65003,2.91765 -0.18587,0.0337 -1.93665,0.21959 -5.25188,0.55759 -1.99562,0.22027 -4.97285,0.48158 -8.92968,0.78652 0.2368,1.1 0.95539,1.93681 2.15594,2.51095 0.98094,0.47361 2.09649,0.71055 3.34863,0.71055 1.50481,0 3.01879,-0.40574 4.54081,-1.21801 0.64227,-0.40613 1.28614,-0.81151 1.92908,-1.21698 0.3552,0.16867 0.95126,1.03184 1.788,2.58692 0.83741,1.55641 1.25574,2.54614 1.25574,2.96881 0,0.11841 -0.12634,0.3129 -0.38034,0.58343 -2.06375,2.21588 -5.26848,3.3228 -9.61492,3.3228 -4.02629,0 -7.27319,-1.17507 -9.74307,-3.52589 -2.53669,-2.38455 -3.80545,-5.57289 -3.80545,-9.56479 0,-3.89069 1.13312,-7.07889 3.39927,-9.56531 2.33363,-2.57108 5.4301,-3.85661 9.28574,-3.85661 z m 151.86877,0 c 3.24842,0 6.00451,1.18474 8.27133,3.55276 2.26747,2.36868 3.40134,5.18532 3.40134,8.44961 0,1.70788 -0.55017,2.68085 -1.64951,2.91765 -0.18653,0.0337 -1.93717,0.21959 -5.25239,0.55759 -1.99562,0.22027 -4.97271,0.48158 -8.93021,0.78652 0.2368,1.1 0.95525,1.93681 2.15646,2.51095 0.98094,0.47361 2.09701,0.71055 3.34915,0.71055 1.50481,0 3.01879,-0.40574 4.54081,-1.21801 0.64227,-0.40613 1.28496,-0.81151 1.92856,-1.21698 0.3552,0.16867 0.95126,1.03184 1.78801,2.58692 0.8374,1.55641 1.25625,2.54614 1.25625,2.96881 0,0.11841 -0.12634,0.3129 -0.38034,0.58343 -2.06375,2.21588 -5.26848,3.3228 -9.61492,3.3228 -4.02629,0 -7.2737,-1.17507 -9.74359,-3.52589 -2.53669,-2.38455 -3.80493,-5.57289 -3.80493,-9.56479 0,-3.89069 1.1326,-7.07889 3.39876,-9.56531 2.33296,-2.57108 5.43024,-3.85661 9.28522,-3.85661 z m -76.33901,0.58601 c 2.65509,0 4.75239,0.93037 6.2916,2.79105 0.0675,0.0853 0.12735,0.1266 0.17829,0.1266 0.15279,0 0.32539,-0.40903 0.51986,-1.22989 0.19381,-0.82021 0.4271,-1.23042 0.69763,-1.23042 0.62574,0 1.81794,0.1781 3.57808,0.5333 1.67349,0.33801 2.87528,0.62531 3.60288,0.86145 0.254,0.10186 0.38034,0.23684 0.38034,0.40617 0,0.0675 -0.0261,0.24505 -0.077,0.53279 -0.54239,3.06056 -0.81184,6.30043 -0.81184,9.7162 0,1.30241 0.0759,3.23838 0.22738,5.80946 0.15346,2.57109 0.22893,4.49931 0.22893,5.78518 0,0.67601 -0.29565,1.03878 -0.88832,1.09037 -2.09682,0.15214 -4.49922,0.22841 -7.20525,0.22841 -0.3208,0 -0.53667,-0.48567 -0.64647,-1.45934 -0.11046,-0.97234 -0.24046,-1.46643 -0.39325,-1.48363 -0.1356,0.0675 -0.31356,0.2119 -0.53382,0.4315 -1.89376,1.91161 -3.9232,2.86649 -6.08749,2.86649 -3.29869,0 -6.02975,-1.3014 -8.19536,-3.90622 -2.04721,-2.43615 -3.06958,-5.34494 -3.06958,-8.72763 0,-3.90723 1.0567,-7.05312 3.17138,-9.43767 2.19802,-2.46922 5.20944,-3.70417 9.03201,-3.70417 z m 36.98947,10e-4 c 1.55641,0 2.94324,0.34637 4.16099,1.04024 1.36988,0.77788 2.25778,1.86958 2.66392,3.27319 0.89627,-1.21775 2.13107,-2.24195 3.70468,-3.0701 1.57229,-0.8288 3.10303,-1.24333 4.59197,-1.24333 2.23242,0 4.05069,0.51649 5.45496,1.54771 1.58949,1.16747 2.38539,2.83371 2.38539,4.99866 0,0.89627 -0.0261,2.24497 -0.077,4.04678 -0.0509,1.80115 -0.0765,3.1505 -0.0765,4.04678 0,1.06495 0.0256,2.66816 0.0765,4.80798 0.0509,2.13716 0.077,3.73992 0.077,4.80487 0,0.59267 -0.25386,0.92199 -0.7612,0.99012 -0.50733,0.0668 -1.76051,0.1018 -3.75481,0.1018 -2.06441,0 -3.34875,-0.0512 -3.85609,-0.15244 -0.508,-0.10054 -0.76223,-0.51522 -0.76223,-1.24282 0,-0.77721 0.0262,-1.94167 0.0765,-3.48816 0.0516,-1.54781 0.0765,-2.71 0.0765,-3.48919 0,-2.96003 -0.0345,-5.06545 -0.10128,-6.31693 -0.10187,-2.01215 -1.05712,-3.01894 -2.86753,-3.01894 -0.79507,0 -1.58444,0.33497 -2.37091,1.00304 -0.78714,0.66874 -1.22275,1.40724 -1.30742,2.21951 -0.0675,0.70974 -0.10025,2.79079 -0.10025,6.24096 0,0.79507 0.0244,2.00052 0.076,3.6158 0.0503,1.61528 0.076,2.82914 0.076,3.64009 0,0.55827 -0.24625,0.83767 -0.73639,0.83767 h -7.68738 c -0.47361,0 -0.71004,-0.34638 -0.71004,-1.04025 0,-0.79507 0.0254,-1.98793 0.077,-3.57807 0.0503,-1.58882 0.0765,-2.79061 0.0765,-3.60288 0,-0.62574 -0.0179,-1.57235 -0.0517,-2.84169 -0.0337,-1.26801 -0.0517,-2.2237 -0.0517,-2.86597 0,-2.41896 -0.92106,-3.62821 -2.76521,-3.62821 -0.74414,0 -1.54765,0.28834 -2.41019,0.86248 -0.94787,0.62574 -1.42058,1.28534 -1.42058,1.97921 0,1.53987 0.008,3.83964 0.0248,6.90087 0.0165,3.06057 0.0253,5.3525 0.0253,6.87452 0,0.42333 -0.0511,0.68531 -0.15296,0.78651 -0.10186,0.1012 -0.36318,0.16907 -0.78651,0.20412 -0.76134,0.0668 -1.96181,0.10181 -3.60289,0.10181 -1.06494,0 -2.27382,-0.0519 -3.62716,-0.15245 -0.40548,-0.0344 -0.64792,-0.0932 -0.72399,-0.17725 -0.0761,-0.0847 -0.11421,-0.33838 -0.11421,-0.76171 0,-1.35202 0.009,-3.37737 0.0253,-6.07611 0.0172,-2.69743 0.0258,-4.72278 0.0258,-6.07612 0,-2.77349 -0.20313,-5.89434 -0.60926,-9.3617 -0.0344,-0.20241 -0.0512,-0.35496 -0.0512,-0.45682 0,-0.28774 0.11821,-0.48274 0.35502,-0.58395 0.37174,-0.15213 1.07445,-0.27847 2.10633,-0.38033 1.26867,-0.11841 2.01999,-0.19387 2.25877,-0.22893 0.16868,-0.0337 0.83669,-0.2108 2.0035,-0.53227 0.82881,-0.2368 1.49771,-0.35502 2.00505,-0.35502 0.3208,0 0.49026,0.58728 0.50746,1.76269 0.0165,1.17541 0.0847,1.7632 0.20309,1.7632 0.16867,-0.0681 0.3625,-0.18635 0.58342,-0.35502 1.52202,-1.18401 2.72182,-1.99564 3.60288,-2.43551 1.30175,-0.62574 2.71391,-0.93844 4.23592,-0.93844 z m -205.88149,0.10077 c 2.14775,0 3.93996,0.50771 5.37797,1.52238 1.60668,1.16681 2.4107,2.7914 2.4107,4.87102 v 8.09357 c 0,1.1 0.008,2.74435 0.0258,4.9351 0.0152,2.18876 0.0243,3.83369 0.0243,4.93303 0,0.45574 -0.23695,0.71919 -0.71055,0.786 -0.47294,0.0675 -1.70752,0.1018 -3.70313,0.1018 -2.13188,0 -3.45108,-0.0512 -3.95842,-0.15245 -0.50734,-0.10186 -0.76068,-0.44758 -0.76068,-1.04024 0,-0.79441 0.0244,-1.99554 0.076,-3.60288 0.0509,-1.60668 0.0765,-2.81594 0.0765,-3.62821 0,-0.62573 -0.0176,-1.56056 -0.0506,-2.80344 -0.0351,-1.24354 -0.0517,-2.17719 -0.0517,-2.80293 0,-2.31709 -1.00678,-3.47628 -3.01894,-3.47628 -0.65947,0 -1.42931,0.28834 -2.30838,0.86248 -0.94721,0.64294 -1.42059,1.27751 -1.42059,1.90325 v 13.69994 c 0,0.55827 -0.26264,0.87215 -0.78651,0.93896 -0.59201,0.0675 -1.80126,0.1018 -3.62821,0.1018 -1.97908,0 -3.26409,-0.0512 -3.85609,-0.15245 -0.52454,-0.0847 -0.786,-0.36289 -0.786,-0.83715 0,-1.31961 0.008,-3.30668 0.0253,-5.96243 0.0165,-2.65509 0.0248,-4.65057 0.0248,-5.98672 0,-4.2115 -0.3291,-7.51805 -0.98857,-9.9198 -0.0344,-0.1528 -0.0512,-0.27951 -0.0512,-0.38138 0,-0.27053 0.127,-0.45704 0.38033,-0.55758 1.06561,-0.11841 2.48641,-0.30477 4.26176,-0.55811 2.68883,-0.52387 4.20318,-0.786 4.54184,-0.786 0.18587,0 0.32912,0.57088 0.43098,1.71256 0.10187,1.14101 0.24497,1.71256 0.4315,1.71256 -0.18653,0 0.72341,-0.58779 2.72697,-1.7632 2.00421,-1.17541 3.75865,-1.7632 5.26479,-1.7632 z m 69.84483,0.0491 c 0.30494,0 0.49928,0.5334 0.58395,1.59835 0.0784,0.99414 0.21851,1.50432 0.41548,1.57096 0.0163,-0.10507 0.72104,-0.53801 2.12183,-1.30431 1.62322,-0.88834 3.18792,-1.3317 4.69274,-1.3317 0.94787,0 1.42162,0.20247 1.42162,0.60926 0,0.49081 -0.0514,1.18319 -0.15193,2.07946 -0.10187,0.96441 -0.16109,1.65834 -0.17829,2.08101 0,0.49081 0.008,1.14176 0.0248,1.95337 0.0337,0.99814 0.0517,1.6584 0.0517,1.97921 0,0.66013 -0.3638,0.98909 -1.0914,0.98909 -0.32081,0 -0.79053,-0.0211 -1.40767,-0.0641 -0.6178,-0.0423 -1.07873,-0.0636 -1.38234,-0.0636 -1.40362,0 -2.35953,0.2207 -2.86753,0.6599 -0.50734,0.44054 -0.76119,1.32726 -0.76119,2.66341 0,0.7276 0.013,1.83123 0.0388,3.31091 0.0251,1.481 0.0382,2.58396 0.0382,3.31091 0,0.4908 0.0333,1.2225 0.10077,2.19418 0.0681,0.973 0.1018,1.69577 0.1018,2.16937 0,0.40548 -0.27955,0.6343 -0.83716,0.68523 -0.81161,0.0668 -2.05453,0.10232 -3.73001,0.10232 -1.60668,0 -2.8922,-0.0519 -3.85661,-0.15244 -0.55761,-0.0681 -0.83664,-0.34607 -0.83664,-0.83819 0,-1.35202 0.009,-3.37737 0.0258,-6.07612 0.0165,-2.69742 0.0243,-4.72277 0.0243,-6.07611 0,-3.9747 -0.36277,-7.24759 -1.09038,-9.81801 -0.0337,-0.1528 -0.0506,-0.27899 -0.0506,-0.38086 0,-0.25333 0.12649,-0.42213 0.37982,-0.50746 0.93067,-0.10186 2.29181,-0.28691 4.08503,-0.5581 2.67228,-0.52388 4.05114,-0.786 4.13514,-0.786 z m -117.97574,0.88625 c 0.42267,0 0.7017,0.2207 0.83664,0.65991 0.29038,0.96639 0.4346,2.92799 0.4346,5.88801 0,2.89255 -0.0932,4.60036 -0.27905,5.12423 -0.38894,1.20121 -1.55573,3.24018 -3.50108,6.11488 -1.69135,2.46922 -3.13835,4.39772 -4.33824,5.78414 -0.44053,0.52454 -1.76785,0.786 -3.98373,0.786 -1.92882,0 -3.18015,-0.0676 -3.7543,-0.20257 -0.3552,-0.0847 -0.65151,-0.25413 -0.88832,-0.50747 -1.01467,-1.09934 -2.46087,-3.01027 -4.33875,-5.7335 -2.01348,-2.92628 -3.21314,-4.93092 -3.6034,-6.01307 -0.42267,-1.16747 -0.63407,-2.91759 -0.63407,-5.25187 0,-0.66014 0.008,-1.65338 0.0258,-2.98225 0.0165,-1.32754 0.0248,-2.32934 0.0248,-3.00602 0,-0.4392 0.29565,-0.65939 0.88831,-0.65939 0.86255,0 2.16014,0.0257 3.89382,0.076 1.73435,0.0516 3.03232,0.076 3.89486,0.076 0.38893,0 0.58342,0.26264 0.58342,0.78652 0,0.4736 -0.0337,1.18839 -0.1018,2.14353 -0.0675,0.95581 -0.10232,1.6791 -0.10232,2.1699 0,1.75881 0.0511,3.19689 0.15296,4.31343 0.0503,0.57481 0.54071,1.65735 1.47072,3.24683 0.9644,1.67415 1.66594,2.51251 2.10581,2.51251 0.42201,0 1.09932,-0.82013 2.02933,-2.46187 0.89628,-1.53855 1.37844,-2.58779 1.44591,-3.14606 0.13494,-1.20121 0.20309,-2.65567 0.20309,-4.36356 0,-0.49014 -0.0514,-1.23033 -0.15193,-2.22053 -0.10186,-0.98954 -0.15296,-1.72058 -0.15296,-2.19418 0,-0.52388 0.17743,-0.78652 0.5333,-0.78652 0.40547,0 1.01031,0.009 1.81332,0.0253 0.80368,0.0172 1.40808,0.0258 1.81488,0.0258 0.40547,0 1.01778,-0.0343 1.83865,-0.1018 0.82021,-0.0681 1.43421,-0.10232 1.83968,-0.10232 z m 81.74488,0.004 c 0.77721,0 1.96158,0.008 3.55172,0.0258 1.58882,0.0172 2.77356,0.0243 3.55276,0.0243 0.52387,0 0.78599,0.22056 0.78599,0.66043 0,0.11774 -0.0174,0.2948 -0.0512,0.53226 -0.3552,2.30055 -0.53278,4.63466 -0.53278,7.00268 0,2.94216 0.0925,4.95573 0.27905,6.03787 0.30427,1.86068 1.41156,2.79156 3.32383,2.79156 0.74414,0 1.55197,-0.32961 2.42311,-0.98908 0.87048,-0.66014 1.32329,-1.34543 1.35702,-2.05518 0.0337,-0.6264 0.0517,-4.87144 0.0517,-12.73617 0,-0.55761 0.0414,-0.88854 0.12609,-0.98909 0.10186,-0.16933 0.40578,-0.25476 0.91312,-0.25476 0.82881,0 2.0762,0.009 3.74241,0.0258 1.66489,0.0179 2.91308,0.0258 3.74189,0.0258 0.50734,0 0.80299,0.12619 0.88832,0.38085 0.0344,0.13295 0.0517,0.33615 0.0517,0.60668 0,1.25214 -0.0594,3.12926 -0.17776,5.63222 -0.1184,2.50295 -0.17674,4.38044 -0.17674,5.63324 0,1.21775 0.0414,3.04414 0.12609,5.48029 0.0847,2.43615 0.12713,4.25456 0.12713,5.45445 0,0.45706 -0.2114,0.74408 -0.63407,0.86248 -0.64294,0.16933 -2.00422,0.25373 -4.08451,0.25373 -1.84414,0 -3.12967,-0.0507 -3.85661,-0.15193 -0.32213,-0.0503 -0.52526,-0.25421 -0.60926,-0.60875 l -0.15245,-1.52187 c -0.084,-0.77721 -0.20274,-1.16685 -0.35553,-1.16685 0.2368,0 -0.61795,0.57468 -2.56264,1.72496 -1.94468,1.15027 -3.71186,1.72444 -5.302,1.72444 -4.4827,0 -7.13763,-2.02088 -7.96644,-6.06371 -0.3724,-1.87788 -0.55914,-4.60031 -0.55914,-8.16953 0,-3.8563 0.31271,-6.90036 0.93845,-9.13278 0.18653,-0.69387 0.53342,-1.04024 1.04076,-1.04024 z m -155.926916,0.40462 c -0.355203,0.74414 -0.956098,2.35943 -1.801441,4.84519 -0.913473,2.63855 -1.369425,4.18686 -1.369425,4.64261 0,0.30493 0.50705,0.47372 1.522387,0.50746 0.523875,0.0351 1.386377,0.0517 2.586923,0.0517 1.11654,0 1.733537,-0.13644 1.8526,-0.40566 0.03373,-0.0847 0.05064,-0.20354 0.05064,-0.35501 0,-0.55827 -0.38898,-2.09751 -1.166854,-4.61833 -0.761338,-2.43548 -1.319631,-3.99126 -1.674833,-4.66793 z m 89.482906,4.46536 c -1.0656,0 -1.94473,0.44887 -2.63859,1.34514 -0.64294,0.82881 -0.9648,1.80111 -0.9648,2.91765 0,0.45707 0.23694,0.68523 0.71055,0.68523 1.25148,0 3.19675,-0.19449 5.8353,-0.58343 0.55893,-0.0853 0.83767,-0.22082 0.83767,-0.40669 0,-1.04907 -0.37258,-1.97065 -1.11672,-2.76572 -0.74414,-0.79507 -1.63219,-1.19218 -2.66341,-1.19218 z m 125.2027,0 c -1.06495,0 -1.94473,0.44887 -2.6386,1.34514 -0.64228,0.82881 -0.96428,1.80111 -0.96428,2.91765 0,0.45707 0.23643,0.68523 0.71003,0.68523 1.25148,0 3.19727,-0.19449 5.83582,-0.58343 0.55959,-0.0853 0.83871,-0.22082 0.83871,-0.40669 0,-1.04907 -0.37178,-1.97065 -1.11725,-2.76572 -0.74414,-0.79507 -1.63322,-1.19218 -2.66443,-1.19218 z m 151.87031,0 c -1.06494,0 -1.94473,0.44887 -2.63859,1.34514 -0.64228,0.82881 -0.9648,1.80111 -0.9648,2.91765 0,0.45707 0.23694,0.68523 0.71055,0.68523 1.25148,0 3.19675,-0.19449 5.8353,-0.58343 0.55959,-0.0853 0.83871,-0.22082 0.83871,-0.40669 0,-1.04907 -0.37178,-1.97065 -1.11725,-2.76572 -0.74347,-0.79507 -1.63204,-1.19218 -2.66392,-1.19218 z M 50.615,43.747553 c -1.38708,0 -2.4907,0.50324 -3.31091,1.50998 -0.82021,1.00608 -1.23093,2.21153 -1.23093,3.6158 0,1.36988 0.41401,2.5287 1.24281,3.47524 0.84601,1.01468 1.94569,1.52187 3.29903,1.52187 1.35334,0 2.48646,-0.50719 3.39927,-1.52187 0.91348,-1.01467 1.37098,-2.2065 1.37098,-3.57704 0,-1.33614 -0.46643,-2.50792 -1.39578,-3.514 -0.93067,-1.00674 -2.05486,-1.50998 -3.37447,-1.50998 z m 259.54281,0.20309 c -1.4552,0 -2.63064,0.46511 -3.52691,1.39578 -0.8976,0.93001 -1.34514,2.12249 -1.34514,3.57704 0,1.36988 0.47323,2.54612 1.4211,3.5264 0.94787,0.9816 2.09695,1.47174 3.45095,1.47174 1.43669,0 2.61227,-0.46957 3.5264,-1.40818 0.91348,-0.93861 1.36994,-2.13475 1.36994,-3.58996 0,-1.43801 -0.45318,-2.62603 -1.35805,-3.56464 -0.90554,-0.93927 -2.08507,-1.40818 -3.53829,-1.40818 z m -163.81067,25.54107 c 0.254,0 0.45713,0.2021 0.60926,0.60823 0.43921,1.23495 1.46239,3.46723 3.06907,6.69779 0.0509,0.1012 0.076,0.18678 0.076,0.25424 0,0.28774 -0.15189,0.4315 -0.45682,0.4315 -0.1356,0 -0.36428,-0.0259 -0.68574,-0.0775 -0.32213,-0.0503 -0.56669,-0.076 -0.73536,-0.076 -1.21774,0 -2.28323,0.27875 -3.1967,0.83768 -1.10001,0.64227 -1.649,1.53897 -1.649,2.68924 0,1.03254 0.60836,2.30049 1.82676,3.80597 2.14776,2.70668 3.27313,4.12682 3.37499,4.26175 1.19856,1.86267 1.79886,3.71381 1.79886,5.55729 0,3.43296 -1.44583,6.376747 -4.33772,8.829427 -2.53735,2.16429 -5.62372,3.54249 -9.26042,4.13515 -0.13626,0.0165 -0.24517,0.0248 -0.32918,0.0248 -0.3896,0 -1.25181,-1.18869 -2.58795,-3.56464 -1.33615,-2.37596 -2.00402,-3.82648 -2.00402,-4.351677 0,-0.18587 0.12686,-0.30394 0.38086,-0.35553 2.45202,-0.55827 4.07595,-1.03099 4.87102,-1.42059 1.75882,-0.87973 2.6386,-2.18217 2.6386,-3.90725 0,-1.09868 -0.57483,-2.32602 -1.72444,-3.67936 -1.99562,-2.29923 -3.07816,-3.57626 -3.24683,-3.83026 -1.16748,-1.75882 -1.75132,-3.70409 -1.75132,-5.8353 0,-3.09496 1.42944,-5.66682 4.2876,-7.71271 2.33428,-1.69135 5.20047,-2.79065 8.60102,-3.29799 0.18587,-0.0172 0.32964,-0.0243 0.4315,-0.0243 z m 84.33025,0.0222 c 0.37108,0.003 0.55707,0.21502 0.55707,0.63769 0,-0.37108 -0.0671,0.1867 -0.20205,1.67432 -0.18719,1.87787 -0.32963,4.27895 -0.4315,7.20524 -0.1356,3.31589 -0.20309,7.08755 -0.20309,11.31559 0,6.98499 0.19369,11.957557 0.58395,14.916917 0.0337,0.32213 0.0512,0.5246 0.0512,0.60926 0,0.18587 -0.12634,0.2953 -0.38034,0.3297 -0.60854,0.084 -2.85013,0.12609 -6.72362,0.12609 -0.91414,0 -1.4381,-0.1781 -1.57303,-0.5333 -0.0337,-0.64228 -0.0677,-1.28511 -0.10077,-1.92805 -0.0179,-0.13494 -0.0854,-0.26954 -0.20309,-0.40514 -0.10187,0.0509 -0.22806,0.15172 -0.38086,0.30386 -1.82628,1.79255 -4.11047,2.68975 -6.85022,2.68975 -3.56923,0 -6.42744,-1.25288 -8.57519,-3.75584 -2.04655,-2.38455 -3.06906,-5.394937 -3.06906,-9.030967 0,-3.68763 1.00612,-6.72342 3.01893,-9.10797 2.13056,-2.53669 5.00582,-3.80701 8.62532,-3.80701 2.55455,0 4.54161,0.81215 5.96242,2.43603 0.2368,0.27054 0.4056,0.40566 0.50747,0.40566 0.15213,0 0.22737,-0.22018 0.22737,-0.65939 0,-1.30241 -0.0338,-3.24834 -0.10128,-5.8353 -0.0675,-2.58829 -0.10181,-4.52448 -0.10181,-5.81102 0,-0.4908 0.13668,-0.7702 0.40721,-0.83767 1.08149,-0.0509 2.56963,-0.15239 4.46536,-0.30386 3.3827,-0.42267 4.87859,-0.63459 4.48965,-0.63459 z m 9.38496,1.72755 c 1.31961,0 2.46189,0.39799 3.42563,1.19372 1.03254,0.84601 1.54874,1.91976 1.54874,3.22151 0,2.94349 -1.65863,4.41472 -4.97385,4.41472 -1.42015,0 -2.59602,-0.37141 -3.52537,-1.11621 -1.016,-0.81161 -1.52342,-1.91209 -1.52342,-3.29851 0,-1.31895 0.52528,-2.40068 1.57303,-3.24735 0.9644,-0.77721 2.1219,-1.16788 3.47524,-1.16788 z m -84.12768,2.00453 c 0.45707,0 1.10788,0.10116 1.95388,0.30489 0.96375,0.2196 1.63228,0.34674 2.00402,0.37982 0.86254,0.11906 2.16394,0.27973 3.90622,0.48214 0.42333,0.0344 0.6351,0.17698 0.6351,0.43098 0,0.67667 -0.0557,1.70074 -0.16485,3.07061 -0.1098,1.36988 -0.16433,2.40184 -0.16433,3.09439 0,0.82947 0.24507,1.24333 0.73587,1.24333 0.59135,0 1.48818,-0.025 2.68873,-0.076 1.20121,-0.0516 2.10639,-0.076 2.7156,-0.076 0.37173,0 0.55758,0.12634 0.55758,0.38034 0,0.38894 -0.0426,0.97293 -0.1266,1.7508 -0.0853,0.77721 -0.12661,1.36149 -0.12661,1.74977 0,0.40547 0.009,0.9981 0.0258,1.77663 0.0165,0.77787 0.0253,1.36998 0.0253,1.77612 0,0.35586 -0.24507,0.53382 -0.73587,0.53382 -0.33801,0 -0.90442,-0.0135 -1.70016,-0.0393 -0.79441,-0.0245 -1.36111,-0.0377 -1.69912,-0.0377 h -1.90324 c -0.254,0 -0.38034,0.37259 -0.38034,1.11673 v 1.80144 c 0.0165,0.81094 0.0253,1.4125 0.0253,1.80144 0,1.42147 0.16067,2.40175 0.48214,2.94349 0.45641,0.7276 1.35324,1.09089 2.68873,1.09089 0.42333,0 1.02788,-0.0967 1.81436,-0.29249 0.78647,-0.19315 1.3403,-0.29197 1.66243,-0.29197 0.35322,6.6e-4 0.53123,0.18659 0.53123,0.55965 0,0.50602 -0.0638,1.27651 -0.19017,2.308387 -0.127,1.03121 -0.19017,1.7886 -0.19017,2.27014 0,0.48155 -0.0511,0.79045 -0.15296,0.92605 -0.1012,0.13493 -0.38009,0.32957 -0.83716,0.58291 -2.18149,1.2012 -4.60146,1.80195 -7.25589,1.80195 -4.88883,0 -7.33185,-1.86848 -7.33185,-5.60637 0,-1.116537 0.0419,-2.794847 0.12661,-5.035867 0.084,-2.24102 0.12661,-3.91985 0.12661,-5.03639 0,-0.74414 -0.43144,-1.11672 -1.29398,-1.11672 h -0.32918 c -0.15214,0.0179 -0.26223,0.0253 -0.3297,0.0253 -0.64293,0 -0.96428,-0.22765 -0.96428,-0.68472 0,-0.27053 0.0211,-0.68506 0.0641,-1.24333 0.0423,-0.55827 0.0636,-0.97228 0.0636,-1.24282 0,-0.35586 -0.0212,-0.89659 -0.0636,-1.62419 -0.0423,-0.7276 -0.0641,-1.26781 -0.0641,-1.62367 0,-0.33801 0.5419,-0.52371 1.62471,-0.55811 0.6092,-0.0172 0.9383,-0.18599 0.98857,-0.50746 0.10186,-0.64228 0.13554,-1.65755 0.1018,-3.04529 -0.0681,-2.18149 -0.1018,-3.22209 -0.1018,-3.12023 0,-1.96188 0.18651,-2.94348 0.55759,-2.94348 z m 104.90729,7.51065 c 3.82256,0 6.91757,1.19666 9.28625,3.59048 2.36736,2.39315 3.55224,5.50156 3.55224,9.32346 0,3.85563 -1.17938,6.984607 -3.5388,9.387017 -2.35876,2.40175 -5.4597,3.6034 -9.29814,3.6034 -3.7207,0 -6.7827,-1.18488 -9.18445,-3.55224 -2.40176,-2.36802 -3.6034,-5.411927 -3.6034,-9.133287 0,-3.92377 1.15055,-7.1083 3.45044,-9.55239 2.29988,-2.44409 5.41275,-3.66644 9.33586,-3.66644 z m -84.89094,1.24437 c 0.77721,0 1.96157,0.009 3.55172,0.0253 1.58948,0.0179 2.77356,0.0248 3.55275,0.0248 0.52388,0 0.78652,0.22019 0.78652,0.65939 0,0.11907 -0.0179,0.2965 -0.0517,0.5333 -0.3552,2.30055 -0.5333,4.63547 -0.5333,7.00216 0,2.94349 0.0925,4.95691 0.27905,6.03839 0.30427,1.86068 1.41222,2.79156 3.32383,2.79156 0.74414,0 1.55263,-0.32947 2.42311,-0.9896 0.87048,-0.65947 1.32329,-1.34491 1.35702,-2.05466 0.0344,-0.62573 0.0517,-4.87144 0.0517,-12.73617 0,-0.55827 0.0426,-0.88774 0.12661,-0.9896 0.10186,-0.16867 0.40512,-0.25373 0.91312,-0.25373 0.82814,0 2.07568,0.009 3.74189,0.0253 1.66555,0.0172 2.91375,0.0248 3.74189,0.0248 0.50734,0 0.80299,0.12686 0.88832,0.38086 0.0351,0.13427 0.0522,0.33784 0.0522,0.60771 0,1.25214 -0.0594,3.12978 -0.17777,5.63273 -0.1184,2.50296 -0.17725,4.38074 -0.17725,5.63222 0,1.2184 0.0426,3.04465 0.12661,5.4808 0.0847,2.434827 0.12661,4.253237 0.12661,5.454447 0,0.45706 -0.21074,0.74408 -0.63407,0.86248 -0.64294,0.16867 -2.00356,0.25373 -4.08451,0.25373 -1.84414,0 -3.129,-0.0507 -3.85661,-0.15193 -0.32213,-0.0516 -0.52408,-0.25406 -0.60875,-0.60927 -0.0503,-0.50667 -0.10217,-1.01453 -0.15244,-1.52187 -0.0847,-0.77721 -0.20288,-1.16737 -0.35502,-1.16737 0.2368,0 -0.61861,0.5752 -2.56263,1.72548 -1.94535,1.15094 -3.71289,1.72496 -5.30304,1.72496 -4.4827,0 -7.13763,-2.01971 -7.96644,-6.0632 -0.3724,-1.877207 -0.5581,-4.600437 -0.5581,-8.169007 0,-3.8563 0.3127,-6.9019 0.93844,-9.13432 0.18587,-0.69255 0.53225,-1.03973 1.04025,-1.03973 z m 59.64649,0 c 0.4736,0 1.19688,0.0511 2.16989,0.15296 0.973,0.1012 1.70418,0.15193 2.19366,0.15193 0.49014,0 1.22668,-0.0421 2.20762,-0.12609 0.9816,-0.0847 1.7163,-0.12713 2.2071,-0.12713 0.40547,0 0.60875,0.17012 0.60875,0.50747 0,0.0681 -0.0181,0.22814 -0.0512,0.48214 -0.37042,3.2967 -0.55707,7.11915 -0.55707,11.46493 0,1.23494 0.0257,3.0751 0.076,5.518527 0.0516,2.44408 0.0765,4.27494 0.0765,5.49268 0,0.35587 -0.21139,0.5683 -0.63407,0.63511 -0.57546,0.10186 -1.86992,0.15193 -3.88141,0.15193 -2.02936,0 -3.33245,-0.0501 -3.90726,-0.15193 -0.3724,-0.0668 -0.60122,-0.17822 -0.68523,-0.3297 -0.0344,-0.0668 -0.0506,-0.32132 -0.0506,-0.76119 0,-1.16615 0.025,-2.92088 0.076,-5.263757 0.0516,-2.34223 0.0765,-4.10663 0.0765,-5.29064 0,-4.8035 -0.18636,-8.62589 -0.5581,-11.46751 -0.0344,-0.26922 -0.0506,-0.4476 -0.0506,-0.53227 0,-0.33801 0.22727,-0.50746 0.68368,-0.50746 z m -18.69654,6.44301 c -1.38774,0 -2.49122,0.5034 -3.31142,1.50947 -0.82021,1.00674 -1.2299,2.21167 -1.2299,3.61529 0,1.36987 0.41386,2.52855 1.24333,3.47575 0.84535,1.01534 1.94531,1.52187 3.29799,1.52187 1.35202,0 2.48647,-0.50653 3.39928,-1.52187 0.91347,-1.01467 1.37046,-2.20819 1.37046,-3.57807 0,-1.33483 -0.46577,-2.50623 -1.39578,-3.51297 -0.93067,-1.00607 -2.05501,-1.50947 -3.37396,-1.50947 z m 43.99215,0.15297 c -1.33615,0 -2.43545,0.52476 -3.29799,1.57251 -0.81161,0.9816 -1.21853,2.14906 -1.21853,3.50108 0,1.36922 0.4056,2.54494 1.21853,3.52588 0.86254,1.04973 1.96184,1.57303 3.29799,1.57303 1.31895,0 2.41027,-0.52396 3.27215,-1.57303 0.79507,-0.98094 1.19321,-2.15666 1.19321,-3.52588 0,-1.33548 -0.41453,-2.51619 -1.24334,-3.5388 -0.82814,-1.02328 -1.90307,-1.53479 -3.22202,-1.53479 z" /><g
       id="g2695"
       transform="matrix(0.66145833,0,0,0.66145833,55.562501,101.55006)"
       style="stroke-width:0.4" /></g></svg>
