<?xml version="1.0" encoding="UTF-8" standalone="no"?>
<!-- Created with Inkscape (http://www.inkscape.org/) -->

<svg
   width="1500"
   height="500"
   viewBox="0 0 396.87498 132.29167"
   version="1.1"
   id="svg5"
   inkscape:version="1.2.2 (732a01da63, 2022-12-09)"
   xml:space="preserve"
   sodipodi:docname="amigacd32.svg"
   xmlns:inkscape="http://www.inkscape.org/namespaces/inkscape"
   xmlns:sodipodi="http://sodipodi.sourceforge.net/DTD/sodipodi-0.dtd"
   xmlns="http://www.w3.org/2000/svg"
   xmlns:svg="http://www.w3.org/2000/svg"><sodipodi:namedview
     id="namedview7"
     pagecolor="#000000"
     bordercolor="#111111"
     borderopacity="1"
     inkscape:showpageshadow="0"
     inkscape:pageopacity="0"
     inkscape:pagecheckerboard="1"
     inkscape:deskcolor="#d1d1d1"
     inkscape:document-units="mm"
     showgrid="false"
     inkscape:zoom="0.62760417"
     inkscape:cx="958.40663"
     inkscape:cy="595.91701"
     inkscape:window-width="1920"
     inkscape:window-height="1009"
     inkscape:window-x="-8"
     inkscape:window-y="-8"
     inkscape:window-maximized="1"
     inkscape:current-layer="layer1" /><defs
     id="defs2" /><g
     inkscape:label="Layer 1"
     inkscape:groupmode="layer"
     id="layer1"><path
       id="rect231"
       style="fill:#ffffff;stroke-width:0.8001;stroke-linecap:square;paint-order:fill markers stroke"
       d="M -55.5625,-76.729167 V 209.02083 h 508 V -76.729167 Z m 400.99723,120.32547 h 12.73617 c 3.59893,0 6.5226,1.30935 6.5226,4.95939 v 3.38067 c 0,3.01715 -1.99932,3.87282 -4.72632,4.07727 l 0.005,0.003 c 3.12839,0.10373 5.52731,0.80879 5.52731,4.11758 v 2.5523 c 0,3.65004 -2.41254,5.71255 -6.5226,5.78621 h -13.54181 c -3.60044,0 -7.32875,-2.13617 -7.32875,-5.78621 v -3.38222 h 7.09259 v 0.68833 c 0,1.64011 1.18334,2.83962 2.80241,2.83962 h 8.31319 c 1.55893,0 2.71508,-0.28864 2.79776,-1.83555 -0.0827,-1.54992 -1.23883,-2.66495 -2.79776,-2.66495 h -6.90759 v -4.5899 l 6.10195,-0.005 c 1.55894,0 2.71612,-1.11246 2.7988,-2.66237 -0.0827,-1.54691 -1.23986,-1.83814 -2.7988,-1.83814 h -7.50755 c -1.61907,0 -2.80241,1.20261 -2.80241,2.84273 v 0.68522 h -7.09259 v -3.37912 c 0,-3.65455 3.72982,-5.78931 7.32875,-5.78931 z m 30.57591,0 h 14.33866 c 3.60344,0 6.5226,2.96299 6.5226,6.61304 v 3.38067 c 0,3.64854 -2.91916,6.61303 -6.5226,6.61303 h -12.18324 c -1.32892,0.15634 -4.1925,2.29415 -1.57974,2.96313 H 396.875 v 5.23172 h -28.15384 v -4.88291 l -0.0362,-0.003 v -3.37757 c 0,-3.65004 3.67105,-5.56245 7.27449,-5.56245 l -0.005,-0.003 11.73468,-0.003 c 1.55894,0 2.71663,-1.11546 2.79932,-2.66237 -0.0827,-1.54992 -1.24038,-2.66651 -2.79932,-2.66651 h -9.11417 c -1.61907,0 -2.80551,1.20411 -2.80551,2.84273 v 0.68522 h -7.08949 v -3.37912 c 0,-3.65455 3.72686,-5.78931 7.3303,-5.78931 z m -197.0443,5.79965 c 2.24595,0 4.84551,0.0735 8.60981,0.34106 0,0 0.32288,-0.0406 0.73329,0.34572 l 0.003,-0.003 c 0.33674,0.30969 0.43149,1.33791 0.43149,1.33791 l -2.22622,10.23451 h -1.20251 c -0.35478,-3.4501 -0.48111,-5.93236 -2.34972,-7.4507 -1.86562,-1.51835 -2.8322,-2.36782 -6.06733,-2.36782 -3.33285,0 -7.54528,1.0208 -10.78643,2.8789 -3.23663,1.85659 -7.25349,4.72215 -9.40924,8.59017 -2.15274,3.87253 -3.45621,7.94051 -3.24425,12.20391 0.18491,3.65906 1.41185,6.45678 3.67885,8.38553 2.2685,1.93025 4.86149,2.89388 7.78092,2.89388 1.23272,0 2.71658,-0.26472 4.45141,-0.7984 l 3.05614,-9.84229 c 0.51714,-1.65365 0.76199,-2.73115 0.73794,-3.24528 -0.0361,-0.6795 -0.42539,-1.25123 -1.17254,-1.71876 -0.75165,-0.46603 -2.01139,-0.70177 -3.7853,-0.70177 l 0.29043,-1.06608 h 20.11866 l -0.25683,1.06608 c -1.19363,0.0601 -2.12451,0.24185 -2.78898,0.55604 -0.66296,0.31119 -1.17704,0.77139 -1.53634,1.37873 -0.21497,0.35779 -0.52437,1.28843 -0.93327,2.78122 l -3.44889,11.08822 c -4.87374,1.60704 -10.04637,2.41122 -15.51843,2.41122 -4.22431,0 -7.84171,-0.59677 -10.86187,-1.78439 -3.02015,-1.19213 -5.56936,-3.07738 -7.64243,-5.65857 -2.07607,-2.58419 -3.19308,-5.5244 -3.35845,-8.82117 -0.34877,-7.03249 3.29645,-12.83215 10.93629,-17.3917 5.98769,-3.53729 12.73904,-5.08444 20.48712,-5.46478 0.73512,0 2.63075,-0.1788 5.27358,-0.1788 z m -138.405508,0.32763 h 1.555977 l -0.0031,30.49788 c 0.01052,1.59351 0.02429,2.55709 0.04082,2.89233 0.06464,1.26879 0.420929,2.18896 1.07487,2.76624 0.655444,0.57727 1.710731,0.91241 3.173451,1.00562 l -0.2961,0.95601 H 25.836149 l 0.333313,-0.95601 c 2.00091,-0.14883 3.147988,-0.27835 3.441134,-0.38809 0.635901,-0.25707 1.196685,-0.80136 1.688269,-1.62367 0.487073,-0.82382 0.741463,-2.25009 0.754992,-4.28708 l 0.04496,-4.77749 H 17.662488 l -2.81895,2.88768 -3.175,3.14193 c -0.610345,0.69002 -1.052273,1.31239 -1.321366,1.86862 -0.211967,0.42694 -0.303763,0.85515 -0.28422,1.28209 0.02255,0.44648 0.335239,0.85994 0.942578,1.24179 0.607338,0.38033 1.592293,0.59869 2.952791,0.65732 l 0.04651,0.95446 H 0 l 0.299207,-0.95446 c 1.232716,-0.16687 2.321306,-0.52165 3.263883,-1.05833 1.253763,-0.74414 3.030355,-2.27344 5.330424,-4.59456 z m 181.874168,0 h 1.55598 l -0.008,30.49788 c 0.0135,1.59351 0.0274,2.55709 0.0439,2.89233 0.0631,1.26879 0.42239,2.18896 1.07332,2.76624 0.65394,0.57727 1.71218,0.91241 3.1719,1.00562 l -0.2961,0.95601 h -20.2706 l 0.33486,-0.95601 c 1.9979,-0.14883 3.14804,-0.27835 3.44269,-0.38809 0.63289,-0.25707 1.19654,-0.80136 1.68361,-1.62367 0.49159,-0.82382 0.74259,-2.25009 0.75913,-4.28708 l 0.0424,-4.77749 h -14.43632 l -2.81895,2.88768 -3.175,3.14193 c -0.60884,0.69002 -1.05237,1.31239 -1.32447,1.86862 -0.20746,0.42694 -0.30367,0.85515 -0.28112,1.28209 0.0241,0.44648 0.33679,0.85994 0.94413,1.24179 0.60583,0.38033 1.58778,0.59869 2.95279,0.65732 l 0.0465,0.95446 h -14.00483 l 0.29766,-0.95446 c 1.23572,-0.16687 2.32229,-0.52165 3.26336,-1.05833 1.25226,-0.74414 3.03247,-2.27344 5.33404,-4.59456 z m 37.07164,0.46612 h 19.03967 c 4.9955,0 9.05112,4.16691 9.05112,9.30072 l -0.003,4.75527 h -8.9793 v -0.96377 c 0,-2.30909 -1.64575,-3.99717 -3.8902,-3.99717 h -11.53211 c -2.24294,0 -3.88607,1.68808 -3.88607,3.99717 v 11.84476 c 0,2.30758 1.64313,3.99562 3.88607,3.99562 h 12.33775 c 2.24444,0 3.89072,-1.68804 3.89072,-3.99562 v -1.78904 h 8.97929 l 0.002,4.75216 c 0,5.13382 -4.05458,9.29918 -9.05009,9.29918 h -19.84065 c -4.99701,0 -9.05164,-4.16687 -9.05164,-9.29918 v -18.60041 l -0.003,10e-4 c 0,-5.13531 4.05458,-9.30072 9.05009,-9.30072 z m 34.39893,0.0331 h 28.89075 c 5.35931,0 9.85728,4.62542 9.85728,10.12755 v 16.94728 c 0,5.50063 -4.49797,10.126 -9.85728,10.126 h -28.89075 z m -171.3823,0.34107 h 22.88336 l -0.40153,0.95601 c -2.07457,0 -3.63952,0.37146 -4.69635,1.11259 -1.05833,0.73813 -1.94205,2.2849 -2.65462,4.6421 l -7.41764,23.86107 c -0.53818,1.70476 -0.79187,2.84413 -0.76481,3.4184 0.0331,0.66747 0.38147,1.18461 1.04593,1.55443 0.85238,0.48106 2.43265,0.74273 4.73873,0.78031 l -0.2992,0.95446 h -23.19187 l 0.33228,-0.95446 c 2.32863,0 4.01235,-0.35967 5.06016,-1.07074 1.0448,-0.71257 1.94853,-2.27564 2.70319,-4.68395 l 7.41712,-23.86056 c 0.4555,-1.48226 0.66291,-2.60397 0.62683,-3.36465 -0.0361,-0.6825 -0.38602,-1.22238 -1.04748,-1.61024 -0.6628,-0.39077 -2.22146,-0.64945 -4.66638,-0.77876 z m -46.66433,0.0243 0.007,0.002 h -0.007 l 4.76767,25.65994 20.98787,-25.66149 h 16.46566 l -0.36949,0.95602 c -2.25497,0 -3.95259,0.3848 -5.08909,1.156 -1.1335,0.7727 -2.05945,2.29537 -2.77503,4.5744 l -7.43055,23.89828 c -0.47806,1.52436 -0.699,2.65664 -0.65991,3.39928 0.0331,0.684 0.40571,1.23727 1.11828,1.65519 0.71257,0.41642 2.08336,0.64304 4.10982,0.68213 l -0.26303,0.95498 H 83.35668 l 0.36535,-0.95498 c 2.51203,0 4.34608,-0.38485 5.50664,-1.15755 1.15755,-0.7712 2.09717,-2.29848 2.81275,-4.5775 l 7.52409,-24.20472 -25.21655,30.89889 H 72.8984 l -5.8074,-31.50351 -7.71374,24.80934 c -0.31569,1.01925 -0.45837,1.87463 -0.4253,2.56315 0.0466,0.92755 0.48092,1.67188 1.30173,2.23862 0.82532,0.56675 2.19358,0.8777 4.1088,0.93483 l -0.29766,0.95498 H 48.58826 l 0.26458,-0.95498 c 1.8611,-0.0571 3.27281,-0.37245 4.23643,-0.94671 1.69724,-1.04029 2.88308,-2.63719 3.56258,-4.79144 l 8.7266,-27.59005 c -1.00873,-0.84336 -1.90607,-1.39352 -2.6908,-1.65209 -0.78172,-0.25557 -2.0835,-0.38499 -3.8995,-0.38499 l 0.3638,-0.95602 h 16.70699 z m 226.89519,7.90133 v 20.66747 0.005 h 15.88999 c 2.77511,0 5.02553,-2.31684 5.02553,-5.16712 v -10.33374 c 0,-2.8578 -2.24891,-5.17126 -5.02553,-5.17126 z m -270.452226,2.90577 -12.36772,12.16514 h 12.055078 z m 181.870556,0 -12.36772,12.16514 h 12.05094 z" /><g
       id="g2944"
       transform="matrix(1.5033144,0,0,1.5033144,198.20695,154.96569)"
       style="stroke-width:0.176" /></g></svg>
