<?xml version="1.0" encoding="UTF-8" standalone="no"?>
<!-- Created with Inkscape (http://www.inkscape.org/) -->

<svg
   width="1500"
   height="500"
   viewBox="0 0 396.87498 132.29167"
   version="1.1"
   id="svg5"
   inkscape:version="1.2.2 (732a01da63, 2022-12-09)"
   xml:space="preserve"
   sodipodi:docname="amiga.svg"
   xmlns:inkscape="http://www.inkscape.org/namespaces/inkscape"
   xmlns:sodipodi="http://sodipodi.sourceforge.net/DTD/sodipodi-0.dtd"
   xmlns="http://www.w3.org/2000/svg"
   xmlns:svg="http://www.w3.org/2000/svg"><sodipodi:namedview
     id="namedview7"
     pagecolor="#000000"
     bordercolor="#111111"
     borderopacity="1"
     inkscape:showpageshadow="0"
     inkscape:pageopacity="0"
     inkscape:pagecheckerboard="1"
     inkscape:deskcolor="#d1d1d1"
     inkscape:document-units="mm"
     showgrid="false"
     inkscape:zoom="0.62760417"
     inkscape:cx="958.40663"
     inkscape:cy="595.91701"
     inkscape:window-width="1920"
     inkscape:window-height="1009"
     inkscape:window-x="-8"
     inkscape:window-y="-8"
     inkscape:window-maximized="1"
     inkscape:current-layer="layer1" /><defs
     id="defs2" /><g
     inkscape:label="Layer 1"
     inkscape:groupmode="layer"
     id="layer1"><path
       id="rect231"
       style="fill:#ffffff;stroke-width:0.800101;stroke-linecap:square;paint-order:fill markers stroke"
       d="M -53.378395,-75.250703 V 207.74066 H 449.71736 V -75.250703 Z M 123.50348,0.73771846 h 17.56209 2.13155 L 65.551055,113.71318 l 1.117724,1.62591 -9.852189,14.32255 -1.113119,-1.62028 -1.618741,2.35518 H 51.952674 34.391097 l 12.674635,-18.44131 8.633134,-12.573807 0.004,0.0059 z m 22.92243,0 h 17.57232 2.13155 L 77.01739,130.39654 H 74.885333 57.323756 Z M 141.2104,64.382118 c 1.44882,0 2.44194,0.383244 2.98007,1.1387 0.53814,0.755455 0.80758,2.400757 0.80758,4.925842 l 2.92838,47.37607 c 0,1.90416 0.1142,3.42566 0.34187,4.56402 0.19663,0.97278 0.67217,1.86273 1.35518,2.57679 0.60022,0.64162 1.33527,1.1589 2.17351,1.41762 1.12801,0.36221 1.68681,1.00392 1.68681,1.95601 0,1.38672 -0.94194,2.07985 -2.83575,2.07985 l -3.02151,-0.27892 -5.56761,-0.27942 c -1.75928,0 -3.7048,0.0721 -5.80558,0.21698 -2.11114,0.14489 -4.36745,0.25897 -6.758,0.35211 h -3.11466 c -1.44882,0 -2.17352,-0.60061 -2.17352,-1.7907 0,-0.81755 0.3005,-1.41765 0.90073,-1.79019 0.60022,-0.38291 1.71755,-0.66226 3.35264,-0.84853 1.63509,-0.18628 2.74253,-0.64152 3.3117,-1.36593 0.56918,-0.72441 0.84853,-1.96634 0.84853,-3.73596 v -3.87056 l -0.48619,-8.34091 h -19.03139 l -2.94937,4.46012 c -0.82789,1.32463 -1.42827,2.30786 -1.81117,2.93912 -0.7658,1.26254 -1.30368,2.27682 -1.61414,3.03227 -0.76581,1.39707 -1.1387,2.56649 -1.1387,3.50822 0,1.83173 1.85283,2.97009 5.57835,3.41508 1.69718,0.25872 2.5558,0.9833 2.5558,2.18375 0,1.45916 -1.00352,2.18323 -3.02151,2.18323 l -3.59113,-0.22774 -6.24009,-0.34135 -8.030765,0.56909 h -2.545576 c -1.510901,0 -2.266654,-0.56904 -2.266654,-1.69704 0,-0.94173 0.299995,-1.62457 0.900214,-2.02817 0.600229,-0.41395 1.738701,-0.7041 3.40484,-0.90072 1.666148,-0.18629 3.073677,-0.87941 4.201681,-2.07986 l 3.68427,-4.62594 1.60391,-2.45243 1.69704,-2.35979 1.69705,-2.45244 29.85646,-42.51267 c 1.51092,-2.266367 2.58689,-3.653139 3.20781,-4.160226 0.63127,-0.507086 1.60427,-0.755376 2.92889,-0.755376 z m 241.47614,0 c 1.44882,0 2.44245,0.383244 2.98058,1.1387 0.53813,0.755455 0.80707,2.400757 0.80707,4.925842 l 2.92889,47.37607 c 0,3.21845 0.33104,5.35045 0.99336,6.39567 0.66232,1.04521 1.90424,1.68704 3.73596,1.94576 1.82137,0.24837 2.7426,0.98279 2.7426,2.18324 0,1.38672 -0.94194,2.08037 -2.83575,2.08037 l -3.02203,-0.27944 -7.46117,-0.27942 c -1.75927,0 -3.7048,0.0721 -5.80558,0.21699 -2.11113,0.14488 -4.36694,0.25897 -6.75749,0.3521 h -3.11517 c -1.44882,0 -2.173,-0.60009 -2.173,-1.79019 0,-0.81754 0.29999,-1.41815 0.90021,-1.7907 0.60023,-0.3829 1.71755,-0.66225 3.35265,-0.84852 1.63509,-0.18628 2.74251,-0.64153 3.31169,-1.36594 0.56918,-0.7244 0.84852,-1.96633 0.84852,-3.73596 v -3.87004 l -0.50716,-8.35166 h -19.03089 l -2.94936,4.46012 c -0.8279,1.32463 -1.42828,2.30786 -1.81117,2.93912 -0.76581,1.26254 -1.30368,2.27682 -1.61414,3.03227 -0.7658,1.39707 -1.1387,2.56649 -1.1387,3.50822 0,1.83173 1.85232,2.97009 5.57784,3.41508 1.69718,0.25872 2.55632,0.9833 2.55632,2.18375 0,1.45916 -1.00404,2.18323 -3.02204,2.18323 l -3.59061,-0.22774 -2.90791,-0.15506 c -2.21462,-0.12418 -4.44,-0.11356 -6.65462,0.021 l -5.99186,0.36182 c -1.51092,0 -2.26614,-0.56904 -2.26614,-1.69704 0,-0.94173 0.29998,-1.62457 0.9002,-2.02817 0.60023,-0.41395 1.73871,-0.7041 3.40485,-0.90072 1.66614,-0.18629 1.81112,-0.87941 2.93912,-2.07986 l 3.68376,-4.62594 1.60442,-2.45243 1.69705,-2.35979 1.69704,-2.45244 29.85596,-42.51267 c 1.51092,-2.266367 2.5874,-3.653139 3.20832,-4.160226 0.63128,-0.507086 1.60375,-0.755376 2.92838,-0.755376 z m -50.54295,1.1387 c 4.02565,0 7.58599,0.341164 10.68025,1.013827 1.573,0.372548 2.35928,1.045548 2.35928,2.028674 0,0.558833 -0.18618,1.272892 -0.56909,2.152527 l -2.3598,7.181751 c -0.94173,3.280531 -2.17285,4.915602 -3.68376,4.915602 -1.63509,0 -2.45294,-1.293738 -2.45294,-3.870559 l 0.18629,-4.82246 c 0,-1.635091 -0.33105,-2.783466 -0.99336,-3.44578 -0.66231,-0.662324 -1.78015,-0.993872 -3.35315,-0.993872 -4.03599,0 -8.15451,0.817729 -12.37678,2.463179 -4.22226,1.635091 -8.21721,3.974041 -11.99448,7.006203 -4.47063,3.590994 -7.99942,8.009849 -10.58659,13.246283 -2.58717,5.236435 -3.87056,10.659217 -3.87056,16.278557 0,5.80562 1.51098,10.41066 4.5328,13.81538 3.02182,3.40472 7.1512,5.11212 12.37729,5.11212 1.573,0 2.65978,-0.238 3.26001,-0.70369 0.60022,-0.46569 1.14851,-1.55208 1.65559,-3.24926 l 3.49799,-12.3256 c 0.24837,-0.69336 0.37257,-1.47976 0.37257,-2.34905 0,-1.37638 -0.27986,-2.27657 -0.84903,-2.68017 -0.56918,-0.40359 -2.07965,-0.76569 -4.53229,-1.08649 -1.32463,0 -1.98722,-0.63155 -1.98722,-1.89409 0,-1.38672 1.09708,-2.07986 3.3117,-2.07986 l 4.71908,0.0932 8.50673,0.27943 h 1.23133 1.03481 c 2.77345,0 5.25691,-0.12409 7.46118,-0.38281 h 4.53279 c 1.57301,0 2.3598,0.53776 2.3598,1.62438 0,1.5109 -1.29374,2.38022 -3.87056,2.61824 -1.63509,0 -2.89777,0.4764 -3.77742,1.41813 -0.88998,0.95208 -1.67615,2.64914 -2.36951,5.11213 0,0 -2.00786,7.05795 -2.9289,10.235 -1.08661,3.70482 -11.32164,9.52055 -23.80216,9.52055 -9.44835,0 -17.13706,-2.35925 -23.0565,-7.0886 -5.91946,-4.719 -8.87932,-10.83526 -8.87932,-18.3277 0,-5.98154 1.79033,-11.652959 5.38132,-17.003234 3.591,-5.350275 8.66181,-9.955037 15.21253,-13.7944 5.35028,-3.146003 11.13498,-5.609261 17.33384,-7.368541 6.19886,-1.75928 12.29435,-2.648948 18.28624,-2.648948 z m -157.84844,0.744631 3.49799,0.383323 h 4.71857 4.71908 6.61316 1.69705 c 0.75546,0 1.20029,0.1242 1.32447,0.372568 0.18628,0.320813 0.27944,1.107098 0.27944,2.359292 l 1.51076,38.631888 25.50995,-39.387275 c 0.63127,-0.962428 1.06577,-1.531748 1.32448,-1.718032 0.24837,-0.175925 0.75531,-0.269196 1.51076,-0.269196 h 0.94167 3.59113 4.16022 7.08861 3.02203 c 1.38672,0 2.07985,0.569558 2.07985,1.697562 0,1.573006 -1.08627,2.473082 -3.25949,2.690404 -2.17323,0.217321 -3.52895,0.662274 -4.06709,1.314238 -0.53813,0.662324 -1.08641,2.152656 -1.65559,4.481108 l -9.26211,38.580201 c -0.24837,1.06592 -0.50752,2.35913 -0.75589,3.87004 -0.24837,1.51091 -0.37258,2.51496 -0.37258,3.02204 0,1.06591 0.3005,1.8522 0.90073,2.35928 0.60022,0.50709 1.71755,0.87959 3.35264,1.12796 1.63509,0.24837 2.45294,0.97306 2.45294,2.17351 0,1.44881 -1.10743,2.173 -3.3117,2.173 h -3.01129 c -4.47063,-0.50709 -8.12413,-0.75539 -10.95967,-0.75539 -3.146,0 -5.85705,0.12409 -8.12341,0.38281 l -4.71908,0.37258 c -1.57301,0 -2.35929,-0.66209 -2.35929,-1.98672 0,-1.06591 0.56904,-1.79061 1.69705,-2.17351 l 1.6039,-0.27942 1.13819,-0.0932 1.03532,-0.18628 c 1.26254,-0.12418 2.15227,-0.61048 2.69041,-1.45907 0.53813,-0.84859 1.24167,-3.01135 2.12131,-6.46782 l 9.63469,-37.617539 -29.85596,44.499389 c -1.44882,2.20427 -2.5248,3.59104 -3.20781,4.16022 -0.69336,0.56918 -1.6353,0.84852 -2.83575,0.84852 -1.26254,0 -2.11093,-0.27934 -2.54558,-0.84852 -0.44499,-0.56918 -0.66274,-1.80069 -0.66274,-3.6945 l -1.51077,-45.078732 -9.54154,26.005872 -1.51076,5.12287 c -1.20045,3.98426 -1.89358,6.40583 -2.07985,7.25443 -0.18628,0.84858 -0.27943,1.94561 -0.27943,3.27024 0,1.52126 0.36209,2.51477 1.0865,2.99081 0.72441,0.47604 2.47327,0.93118 5.24672,1.37617 1.573,0.18627 2.35928,0.8798 2.35928,2.0906 0,1.52126 -1.00352,2.27689 -3.02152,2.27689 l -3.49798,-0.34186 -5.57784,-0.22774 -7.33732,0.27942 c -1.6351,0 -2.45244,-0.63103 -2.45244,-1.89356 0,-1.02452 0.82774,-1.77987 2.49388,-2.25591 0.94173,-0.27941 1.79012,-0.83855 2.45244,-1.56296 0.33115,-0.3622 0.6003,-0.66224 0.6003,-0.66224 0.69336,-0.84859 2.04909,-4.07739 4.06709,-9.68637 l 12.28414,-34.575044 c 1.13836,-3.40472 1.69705,-5.505333 1.69705,-6.333223 0,-0.693361 -0.29999,-1.200814 -0.90022,-1.511277 -0.60022,-0.310454 -1.8112,-0.61045 -3.63258,-0.900205 -1.83171,-0.279416 -2.7426,-0.96226 -2.7426,-2.028169 0,-0.569182 0.2488,-1.065771 0.75589,-1.510763 0.50709,-0.444992 1.09683,-0.66275 1.79019,-0.66275 z m 109.95496,0.103887 c 1.26255,0 1.89357,0.600091 1.89357,1.790199 0,0.817541 -0.32075,1.417631 -0.94167,1.790189 -0.63126,0.372549 -1.78015,0.703592 -3.44629,0.993357 -1.66614,0.279406 -2.78347,0.745513 -3.35264,1.36644 -0.58988,0.631266 -1.19026,1.98699 -1.81117,4.067073 l -11.90083,41.477356 c -0.56918,2.018 -0.84853,3.56003 -0.84853,4.62595 0,2.32845 1.26218,3.49798 3.77691,3.49798 2.26636,0 3.40484,0.70354 3.40484,2.12131 0,1.35567 -0.97299,2.02817 -2.92889,2.02817 h -5.47446 l -10.20378,-0.37258 c -1.95591,0 -3.43583,0.0311 -4.43966,0.0932 -1.00382,0.0621 -3.49762,0.27934 -7.46117,0.66225 h -0.38281 c -1.63509,0 -2.45294,-0.63103 -2.45294,-1.89358 0,-0.75545 0.27986,-1.27269 0.84903,-1.56244 0.56918,-0.28977 1.85206,-0.63173 3.87006,-1.03533 2.01799,-0.41395 3.23927,-0.94158 3.68426,-1.60391 0.43465,-0.66231 1.16919,-2.78367 2.173,-6.37467 l 11.8082,-41.280838 c 0.43464,-1.510901 0.66224,-2.514944 0.66224,-3.022031 0,-1.635091 -1.16953,-2.452423 -3.49798,-2.452423 -2.018,0 -3.02153,-0.600378 -3.02153,-1.811175 0,-0.724408 0.2483,-1.293738 0.75538,-1.718032 0.50708,-0.424294 1.20022,-0.631019 2.07985,-0.631019 h 4.34651 2.17351 3.02153 c 6.04363,0 10.26617,-0.155365 12.65672,-0.45548 z M -0.53604228,79.574174 H 17.026044 19.15759 l 24.578016,35.764916 -9.851678,14.32255 z m 22.93265828,0 h 17.562087 2.131545 L 55.202445,98.657253 45.350258,112.9798 Z M 130.90273,82.119739 116.13546,103.9659 h 15.61631 z m 241.48689,0 -14.76728,21.846161 h 15.61631 z" /><g
       id="g2744"
       transform="matrix(0.10449579,0,0,0.10449579,53.357634,76.729165)"
       style="stroke-width:2.532" /></g></svg>
