<?xml version="1.0" encoding="UTF-8" standalone="no"?>
<!-- Created with Inkscape (http://www.inkscape.org/) -->

<svg
   width="1500"
   height="500"
   viewBox="0 0 396.87498 132.29167"
   version="1.1"
   id="svg5"
   inkscape:version="1.2.2 (732a01da63, 2022-12-09)"
   xml:space="preserve"
   sodipodi:docname="amiga1200.svg"
   xmlns:inkscape="http://www.inkscape.org/namespaces/inkscape"
   xmlns:sodipodi="http://sodipodi.sourceforge.net/DTD/sodipodi-0.dtd"
   xmlns="http://www.w3.org/2000/svg"
   xmlns:svg="http://www.w3.org/2000/svg"><sodipodi:namedview
     id="namedview7"
     pagecolor="#000000"
     bordercolor="#111111"
     borderopacity="1"
     inkscape:showpageshadow="0"
     inkscape:pageopacity="0"
     inkscape:pagecheckerboard="1"
     inkscape:deskcolor="#d1d1d1"
     inkscape:document-units="mm"
     showgrid="false"
     inkscape:zoom="0.62760417"
     inkscape:cx="958.40663"
     inkscape:cy="595.91701"
     inkscape:window-width="1920"
     inkscape:window-height="1009"
     inkscape:window-x="-8"
     inkscape:window-y="-8"
     inkscape:window-maximized="1"
     inkscape:current-layer="layer1" /><defs
     id="defs2" /><g
     inkscape:label="Layer 1"
     inkscape:groupmode="layer"
     id="layer1"><path
       id="rect231"
       style="fill:#ffffff;stroke-width:0.8001;stroke-linecap:square;paint-order:fill markers stroke"
       d="M -55.5625,-76.729167 V 209.02083 h 508 V -76.729167 Z m 98.873035,99.564465 c 4.610995,0 9.057435,0.741365 13.174385,2.058785 v 21.65501 c -3.54058,-2.05847 -7.74036,-3.29334 -12.269014,-3.29334 -13.091922,0 -23.795964,10.29219 -23.795964,22.89008 0,12.59789 10.621703,22.89008 23.795964,22.89008 4.446314,0 8.646094,-1.23487 12.269014,-3.29334 v 21.655007 c -4.11695,1.31742 -8.56339,2.05878 -13.174385,2.05878 C 19.432187,109.45636 0,90.106523 0,66.145833 0,42.267483 19.349848,22.835298 43.310535,22.835298 Z m 77.069195,2.470135 c 2.79953,0 5.26975,0.49419 7.57525,0.90589 l -0.74104,7.24607 c 0,0 -0.57634,-0.16502 -2.22312,-0.57671 -1.56444,-0.4117 -3.12881,-0.5762 -4.69325,-0.5762 -3.12889,0 -6.1753,0.82353 -8.15144,2.38797 -4.69333,3.62292 -4.69368,13.09165 0.16433,17.04392 2.96421,2.47018 8.31655,3.29388 13.09222,2.05879 l 2.22312,-0.57671 0.65888,7.32824 c -1.39977,0.32936 -4.36419,0.90589 -7.98711,0.90589 -4.77567,0 -6.25798,-0.16501 -8.48114,-0.82373 -3.62292,-0.98807 -6.42214,-2.63476 -8.72763,-5.18728 -2.3055,-2.55251 -3.37618,-4.85769 -4.0349,-8.97464 -1.23508,-8.06924 2.22353,-15.48014 8.893,-18.69137 3.3759,-1.64678 7.90418,-2.47013 12.43283,-2.47013 z m 180.56986,0.24701 h 8.39897 l 0.0822,34.8294 h -7.7401 v -4.36356 h -0.0822 c -0.57637,1.39977 -1.6469,2.55246 -3.129,3.45819 -1.48211,0.90573 -3.21115,1.3994 -5.18728,1.3994 -3.62293,-0.0823 -6.33981,-1.39936 -8.23361,-3.86953 -1.81146,-2.47018 -2.79983,-5.51692 -2.79983,-9.22218 0,-3.04655 0.90586,-5.84611 2.63498,-8.31629 1.72912,-2.47017 4.28151,-3.70537 7.65742,-3.87005 1.64678,0 3.21132,0.24735 4.61108,0.82373 1.39977,0.57637 2.63479,1.48171 3.7052,2.88147 h 0.0822 z m 74.92876,10.04538 c 4.44631,0.16468 7.57539,1.48221 9.46919,4.11707 1.81146,2.55251 2.79948,5.76392 2.71715,9.46918 v 1.56425 l -16.71475,-0.0822 c 0.24702,1.64679 0.98804,2.7993 2.22312,3.54036 1.23509,0.74105 2.88179,1.07073 4.94027,1.07073 1.15275,0 2.38795,-0.0825 3.62303,-0.41186 1.23509,-0.24702 2.55228,-0.7412 3.78737,-1.39991 v 5.92832 c -1.31743,0.49403 -2.79929,0.90588 -4.28139,1.1529 -1.48211,0.24702 -3.04665,0.32918 -4.61109,0.32918 -4.11696,-0.0823 -7.41053,-1.15235 -10.04538,-3.37551 -2.63485,-2.14081 -3.95204,-5.26972 -4.03438,-9.30434 0,-4.03462 1.23468,-7.08118 3.62252,-9.30434 2.38783,-2.14082 5.4344,-3.29386 9.30434,-3.29386 z m -232.114,0.0827 c 4.11696,0 7.41053,1.07018 10.04538,3.29334 2.63486,2.22315 3.95204,5.35188 4.03438,9.3865 -0.0823,4.03462 -1.39952,7.08119 -4.03438,9.30434 -2.63485,2.14082 -5.92842,3.29386 -10.04538,3.29386 -4.11696,0 -7.41053,-1.15304 -10.04538,-3.29386 -2.63485,-2.14081 -3.95256,-5.26972 -4.0349,-9.30434 0.0823,-4.03462 1.40005,-7.24569 4.0349,-9.3865 2.63485,-2.14082 5.92842,-3.29334 10.04538,-3.29334 z m 34.08836,0 c 1.72912,0 3.29366,0.41133 4.61109,1.15238 1.31742,0.82339 2.30545,1.97643 2.96416,3.54087 0.98807,-1.64678 2.22309,-2.79982 3.7052,-3.54087 1.4821,-0.74105 3.12898,-1.07022 4.8581,-1.07022 3.45824,0 5.76363,0.98785 6.91637,2.79931 1.15275,1.8938 1.72927,4.44653 1.64693,7.7401 v 14.24461 h -8.39845 v -13.00954 c 0,-1.39977 -0.32969,-2.55246 -0.82372,-3.45819 -0.49404,-0.90573 -1.39956,-1.39991 -2.5523,-1.39991 -1.48211,0 -2.6348,0.57668 -3.45819,1.81177 -0.82339,1.23509 -1.23507,3.21096 -1.23507,5.76347 v 10.21023 h -8.39897 v -13.00954 c 0,-1.39976 -0.32917,-2.55246 -0.8232,-3.45819 -0.49404,-0.90573 -1.39955,-1.39991 -2.5523,-1.39991 -1.48211,0 -2.63531,0.57617 -3.45871,1.81126 -0.82339,1.23509 -1.23506,3.21147 -1.23506,5.76399 v 10.20971 h -8.39846 l 0.0822,-24.12514 h 7.65793 v 4.44624 h 0.0822 c 0.90573,-1.72912 2.05859,-2.96398 3.62303,-3.78737 1.4821,-0.82339 3.29348,-1.23506 5.18728,-1.23506 z m 45.86283,0 c 1.72913,0 3.29367,0.41133 4.61109,1.15238 1.31743,0.82339 2.30545,1.97643 2.96416,3.54087 0.98807,-1.64678 2.2231,-2.79982 3.7052,-3.54087 1.48211,-0.74105 3.12898,-1.07022 4.8581,-1.07022 3.45825,0 5.76363,0.98785 6.91638,2.79931 1.15274,1.8938 1.72926,4.44653 1.64693,7.7401 v 14.24461 h -8.39846 v -13.00954 c 0,-1.39977 -0.32969,-2.55246 -0.82372,-3.45819 -0.49404,-0.90573 -1.39955,-1.39991 -2.5523,-1.39991 -1.4821,0 -2.6348,0.57668 -3.45819,1.81177 -0.82339,1.23509 -1.23506,3.21096 -1.23506,5.76347 v 10.21023 h -8.39846 v -13.00954 c 0,-1.39976 -0.32968,-2.55246 -0.82372,-3.45819 -0.49403,-0.90573 -1.39955,-1.39991 -2.5523,-1.39991 -1.4821,0 -2.63479,0.57617 -3.45819,1.81126 -0.82339,1.23509 -1.23506,3.21147 -1.23506,5.76399 v 10.20971 h -8.39897 l 0.0827,-24.12514 h 7.65741 v 4.44624 h 0.0822 c 0.90573,-1.72912 2.05859,-2.96398 3.62303,-3.78737 1.48211,-0.82339 3.29348,-1.23506 5.18728,-1.23506 z m 42.07547,0 c 4.11696,0 7.41053,1.07018 10.04538,3.29334 2.63486,2.22315 3.95204,5.35188 4.03438,9.3865 -0.0823,4.03462 -1.39952,7.08119 -4.03438,9.30434 -2.63485,2.14082 -5.92842,3.29386 -10.04538,3.29386 -4.03462,0 -7.41053,-1.15304 -10.04538,-3.29386 -2.63485,-2.14081 -3.95256,-5.26972 -4.0349,-9.30434 0.0823,-4.03462 1.40005,-7.24569 4.0349,-9.3865 2.63485,-2.14082 5.92843,-3.29334 10.04538,-3.29334 z m 60.76632,0 c 4.11695,0 7.41053,1.07018 10.04538,3.29334 2.63485,2.22315 3.95204,5.35188 4.03438,9.3865 -0.0823,4.03462 -1.39953,7.08119 -4.03438,9.30434 -2.63485,2.14082 -5.92843,3.29386 -10.04538,3.29386 -4.03462,0 -7.41053,-1.15304 -10.04538,-3.29386 -2.63486,-2.14081 -3.95256,-5.26972 -4.0349,-9.30434 0.0823,-4.03462 1.40004,-7.16335 4.0349,-9.3865 2.63485,-2.14082 5.92842,-3.29334 10.04538,-3.29334 z m 32.35926,0 c 0.49404,0 0.98805,-1.8e-4 1.48208,0.0822 0.49404,0 0.98822,0.0825 1.39992,0.16485 l -0.49403,6.99854 c -0.49403,-0.16468 -0.90588,-0.24701 -1.39991,-0.24701 h -1.39992 c -1.97614,0 -3.45799,0.65868 -4.5284,1.9761 -1.07041,1.31743 -1.56425,3.21131 -1.56425,5.59914 v 10.21023 h -8.39897 v -24.20782 h 7.65741 v 4.44624 h 0.0827 c 0.74105,-1.48211 1.64656,-2.71731 2.79931,-3.62304 1.07041,-0.90573 2.55261,-1.39939 4.36407,-1.39939 z m 16.87959,5.26944 c -1.4821,0 -2.63497,0.49401 -3.37602,1.48208 -0.74105,0.90573 -1.15273,2.14111 -1.23506,3.54087 h 9.22217 c 0,-1.39976 -0.32968,-2.5528 -1.07073,-3.54087 -0.65872,-0.98807 -1.89357,-1.48208 -3.54036,-1.48208 z m -232.03183,0.49403 c -1.97614,0.0823 -3.37583,0.74136 -4.19923,2.05879 -0.82339,1.31742 -1.23506,2.88162 -1.23506,4.77542 -0.0823,1.8938 0.32933,3.45851 1.23506,4.77593 0.90573,1.31743 2.30543,1.97594 4.19923,2.05827 1.8938,-0.0823 3.2935,-0.74084 4.19923,-2.05827 0.82339,-1.31742 1.23507,-2.96447 1.23507,-4.77593 0.0823,-1.8938 -0.32934,-3.458 -1.23507,-4.77542 -0.90573,-1.31743 -2.30543,-1.97645 -4.19923,-2.05879 z m 122.02666,0 c -1.97614,0.0823 -3.37583,0.74136 -4.19923,2.05879 -0.82339,1.31742 -1.23506,2.88162 -1.23506,4.77542 -0.0823,1.8938 0.32933,3.45851 1.23506,4.77593 0.90574,1.31743 2.30543,1.97594 4.19923,2.05827 1.97614,-0.0823 3.2935,-0.74084 4.19923,-2.05827 0.82339,-1.31742 1.23507,-2.96447 1.23507,-4.77593 0.0823,-1.8938 -0.32934,-3.458 -1.23507,-4.77542 -0.90573,-1.31743 -2.30543,-1.97645 -4.19923,-2.05879 z m 60.76632,0 c -1.97614,0.0823 -3.37584,0.74136 -4.19923,2.05879 -0.82339,1.31742 -1.23507,2.88162 -1.23507,4.77542 -0.0823,1.8938 0.41168,3.45851 1.23507,4.77593 0.90573,1.31743 2.30543,1.97594 4.19923,2.05827 1.97614,-0.0823 3.37583,-0.74084 4.19923,-2.05827 0.82339,-1.31742 1.23506,-2.96447 1.23506,-4.77593 0.0823,-1.8938 -0.41167,-3.458 -1.23506,-4.77542 -0.90574,-1.31743 -2.30543,-1.97645 -4.19923,-2.05879 z m -30.71234,0.57671 c -1.64678,0.0823 -2.88215,0.65851 -3.78788,1.81126 -0.90573,1.15274 -1.31723,2.55244 -1.31723,4.19922 0,1.97614 0.49366,3.54051 1.39939,4.69326 0.90573,1.15274 2.14128,1.81177 3.70572,1.81177 1.48211,0 2.71679,-0.57634 3.62252,-1.72909 0.90573,-1.15275 1.48208,-2.6353 1.48208,-4.44676 0,-1.8938 -0.49367,-3.37566 -1.3994,-4.5284 -0.90573,-1.15275 -2.14076,-1.81126 -3.7052,-1.81126 z m -238.94872,7.65741 h 32.2771 L 74.68175,64.745933 H 56.89627 Z m 36.14715,15.1505 H 396.875 v 2.47013 H 93.04342 Z m -36.14715,2.96416 h 17.78548 l 14.49162,15.06781 h -32.2771 z m 285.71744,2.05827 c 4.1993,0 7.57487,1.72904 9.9627,5.18728 2.63485,3.86994 3.3762,8.81024 3.29386,13.25656 0,4.44631 -0.74117,9.13995 -3.37602,12.845207 -2.38784,3.3759 -5.76358,5.10511 -9.88054,5.10511 -4.19929,0 -7.57538,-1.81137 -9.96321,-5.18728 -2.63486,-3.787597 -3.37602,-8.563567 -3.37602,-13.092217 0,-4.44632 0.74116,-9.30428 3.37602,-13.00955 2.38783,-3.3759 5.76392,-5.10511 9.96321,-5.10511 z m -210.95353,0.32918 c 1.07041,0.0823 1.6471,0.4122 1.81178,0.98857 0.16467,0.65871 0.24701,1.39955 0.24701,2.30528 l 1.31723,25.36021 c 0,1.235087 0.0827,2.223457 0.3297,3.046847 0.24702,0.74105 0.98786,1.23506 2.30528,1.48208 0.4117,0 0.65887,0.0823 0.90589,0.24701 0.24702,0.0823 0.32918,0.41151 0.32918,0.82321 0,0.49403 -0.1645,0.74121 -0.57619,0.90588 -0.24702,0.0823 -0.65904,0.16485 -1.07074,0.16485 -0.90573,0 -1.89358,-3.4e-4 -2.79931,-0.0827 -0.90573,0 -1.8941,-0.0822 -2.79983,-0.0822 -1.39976,0 -2.79946,0.0825 -4.19923,0.16485 -1.39976,0.0823 -2.79946,0.16433 -4.19922,0.16433 -0.32936,0 -0.57619,3.5e-4 -0.82321,-0.16433 -0.24702,-0.16468 -0.32969,-0.41168 -0.32969,-0.74104 0,-0.74105 0.41184,-1.23507 1.1529,-1.23507 0.65871,0 1.3999,-0.16484 2.14095,-0.41186 0.74105,-0.24701 1.07056,-1.15287 1.1529,-2.63498 0,-1.070407 -3.4e-4,-2.140757 -0.0827,-3.211167 -0.0823,-1.07041 -0.082,-2.14077 -0.16433,-3.21118 h -10.12806 c -0.49404,0.65872 -1.23488,1.89357 -2.30529,3.54036 -1.07041,1.64678 -1.6471,2.964307 -1.81178,3.870047 0.0823,0.90573 0.41185,1.40008 1.15291,1.56476 0.74105,0.16468 1.3999,0.329 2.14095,0.41134 0.74105,0.0823 1.07056,0.41202 1.1529,1.07074 0,0.41169 -0.16467,0.74069 -0.49403,0.90537 -0.32935,0.16468 -0.65904,0.24701 -1.07073,0.24701 -0.82339,-0.0823 -1.72891,-0.082 -2.5523,-0.16433 -0.82339,-0.0823 -1.64709,-0.16485 -2.55282,-0.16485 -0.98807,0 -1.8934,0.0825 -2.88147,0.16485 -0.98807,0.0823 -1.97627,0.16433 -2.882,0.16433 -0.32936,0 -0.65887,-0.082 -0.90589,-0.16433 -0.24701,-0.0823 -0.41186,-0.32934 -0.41186,-0.74104 0.0823,-0.65871 0.32969,-1.07039 0.82372,-1.23507 0.49404,-0.16467 0.98788,-0.24735 1.56425,-0.32969 0.98807,-0.16468 1.81142,-0.57618 2.47013,-1.31723 0.57638,-0.74106 1.15272,-1.48241 1.7291,-2.305807 l 2.71714,-3.86953 16.3034,-22.89059 c 0.49404,-0.65871 0.90554,-1.31722 1.31723,-1.81126 0.4117,-0.49403 1.07038,-0.82372 1.97611,-0.82372 z m 136.1891,0 c 1.07041,0.0823 1.6471,0.4122 1.81178,0.98857 0.16468,0.65871 0.24701,1.39955 0.24701,2.30528 l 1.31724,25.36021 c 0,1.235087 0.0822,2.223457 0.32917,3.046847 0.24702,0.74105 0.98838,1.23506 2.30581,1.48208 0.41169,0 0.65887,0.0823 0.90588,0.24701 0.24702,0.0823 0.32918,0.41151 0.32918,0.82321 0,0.49403 -0.16467,0.74121 -0.49402,0.90588 -0.24702,0.0823 -0.65853,0.16485 -1.07022,0.16485 -0.90573,0 -1.8941,-3.4e-4 -2.79983,-0.0827 -0.90573,0 -1.89358,-0.0822 -2.79931,-0.0822 -1.39977,0 -2.79947,0.0825 -4.19923,0.16485 -1.39977,0.0823 -2.79998,0.16433 -4.19974,0.16433 -0.32936,0 -0.57619,3.5e-4 -0.82321,-0.16433 -0.24702,-0.16468 -0.32918,-0.41168 -0.32918,-0.74104 0,-0.74105 0.41133,-1.23507 1.15239,-1.23507 0.65871,0 1.3999,-0.16484 2.14095,-0.41186 0.74105,-0.24701 1.07056,-1.15287 1.1529,-2.63498 0,-1.070407 -3.4e-4,-2.140757 -0.0827,-3.211167 -0.0823,-1.07041 -0.082,-2.14077 -0.16433,-3.21118 h -10.21023 c -0.49404,0.65872 -1.23488,1.89357 -2.30529,3.54036 -1.07041,1.64678 -1.64709,2.964307 -1.81177,3.870047 0.0823,0.90573 0.41185,1.40008 1.1529,1.56476 0.74105,0.16468 1.3999,0.329 2.14095,0.41134 0.74106,0.0823 1.07005,0.41202 1.15239,1.07074 0,0.41169 -0.16467,0.74069 -0.49403,0.90537 -0.32936,0.16468 -0.65852,0.24701 -1.07022,0.24701 -0.82339,-0.0823 -1.64657,-0.082 -2.5523,-0.16433 -0.82339,-0.0823 -1.64708,-0.16485 -2.55281,-0.16485 -0.98807,0 -1.89341,0.0825 -2.88148,0.16485 -0.98807,0.0823 -1.97626,0.16433 -2.882,0.16433 -0.32935,0 -0.65887,-0.082 -0.90588,-0.16433 -0.24702,-0.0823 -0.41186,-0.32934 -0.41186,-0.74104 0.0823,-0.65871 0.32968,-1.07039 0.82372,-1.23507 0.49403,-0.16467 0.98787,-0.24735 1.56424,-0.32969 0.98807,-0.16468 1.81142,-0.57618 2.47014,-1.31723 0.57637,-0.74106 1.15272,-1.48241 1.72909,-2.305807 l 2.71715,-3.86953 16.30339,-22.89059 c 0.49404,-0.65871 0.90554,-1.31722 1.31724,-1.81126 0.41169,-0.49403 1.07037,-0.82372 1.9761,-0.82372 z m 103.41798,0 c 4.1993,0 7.57538,1.72955 9.96322,5.1878 2.63485,3.7876 3.37619,8.7279 3.29385,13.25655 0,4.44631 -0.74117,9.13943 -3.37602,12.844697 -2.38783,3.3759 -5.76409,5.10511 -9.88105,5.10511 -4.19929,0 -7.57486,-1.81138 -9.9627,-5.18728 -2.63485,-3.787597 -3.37602,-8.563567 -3.37602,-13.092217 0,-4.44632 0.74117,-9.30429 3.37602,-13.00955 2.38784,-3.3759 5.76341,-5.10511 9.9627,-5.10511 z m -81.9273,0.0827 h 7.7401 v 35.899617 l -8.72815,0.0827 0.0822,-26.101757 -3.21117,2.05878 0.16485,-9.38702 z m 24.71994,0.007 c 1.07009,-0.005 2.14326,0.10632 3.19309,0.32246 3.86994,0.82339 7.49306,3.86981 8.72815,7.65741 0.98807,3.12889 0.90573,5.59927 -0.24702,8.72815 -0.98807,2.63486 -2.71746,4.94058 -4.52892,6.99906 -1.07041,1.31743 -2.30527,2.71678 -3.54035,4.11654 h 8.2336 v 8.234127 h -26.59527 l 13.4214,-15.397507 c 0.98807,-1.07041 1.97575,-2.22328 2.88148,-3.37602 1.64678,-2.14082 3.54072,-4.85772 1.89394,-7.49257 -1.07041,-1.81146 -3.78751,-1.81162 -5.43429,-0.90589 -1.23509,0.65871 -1.97628,1.89375 -2.14096,3.21118 -0.16468,0.82339 -0.0825,2.30562 0.57619,2.88199 l 1.23507,1.1529 -5.1046,6.91637 -1.56476,-1.72909 c -1.97614,-2.14082 -3.21117,-4.77589 -3.45819,-7.74009 -0.24701,-2.63486 0.32951,-5.3521 1.64693,-7.57525 1.31743,-2.22316 3.21131,-3.9522 5.59914,-4.94027 1.64679,-0.72047 3.42189,-1.05466 5.20537,-1.0635 z m -75.35871,0.48731 c 0.4117,0 1.15306,-1.8e-4 2.3058,0.0822 1.15275,0.0823 2.22293,0.16485 3.29334,0.41186 0.98807,0.24702 1.56459,0.57653 1.64693,1.15291 -0.0823,0.32935 -0.32952,1.1527 -0.65887,2.47013 -0.4117,1.31743 -0.65853,2.1406 -0.82321,2.5523 -0.16468,0.49403 -0.32952,1.07055 -0.65887,1.64693 -0.32936,0.57637 -0.7412,0.82303 -1.39992,0.90537 -0.57637,0 -0.9877,-0.24666 -1.15238,-0.65836 -0.16468,-0.4117 -0.24702,-0.90588 -0.24702,-1.39991 0,-0.32936 0.0822,-0.57654 0.0822,-0.90589 0.0823,-0.32936 0.0822,-0.57602 0.0822,-0.90537 0.0823,-1.15275 -0.0822,-1.9761 -0.32918,-2.47014 -0.32936,-0.49403 -1.0702,-0.74104 -2.30529,-0.74104 -2.63485,0.0823 -5.26992,0.74085 -7.98711,2.05827 -2.63485,1.31743 -4.94006,2.8818 -6.75152,4.69326 -1.81146,1.8938 -3.29367,4.11702 -4.36408,6.58719 -1.07041,2.47018 -1.64693,5.10525 -1.64693,7.7401 0,2.88187 0.74085,5.18742 2.30529,7.081217 1.4821,1.8938 3.78783,2.79914 6.75204,2.88148 0.82339,0 1.39974,-0.16467 1.7291,-0.49403 0.32935,-0.32935 0.65852,-0.90536 0.8232,-1.64641 0.32936,-1.07041 0.82371,-2.388107 1.31775,-4.034887 0.57637,-1.72913 0.82303,-2.96415 0.90537,-3.95222 0,-0.90573 -0.32934,-1.48225 -0.98805,-1.64693 -0.65872,-0.24701 -1.23471,-0.329 -1.89343,-0.41134 -0.57637,-0.0823 -0.90571,-0.4122 -0.98805,-0.98857 0,-0.4117 0.1645,-0.74069 0.57619,-0.90537 0.32936,-0.16468 0.74121,-0.24702 1.1529,-0.24702 1.15275,0 2.38743,0.082 3.62252,0.16434 1.15275,0.0823 2.38795,0.16484 3.62304,0.16484 1.31742,0 2.55262,-0.0825 3.87004,-0.16484 1.23509,-0.0823 2.5528,-0.16434 3.78789,-0.16434 0.24701,0 0.57618,0.0823 0.8232,0.24702 0.24702,0.16468 0.41186,0.41168 0.41186,0.74104 0,0.82339 -0.32934,1.23506 -0.98805,1.23506 -0.65871,0 -1.40025,0.16467 -2.22364,0.49403 -0.82339,0.32936 -1.56406,1.48188 -2.14044,3.29334 -0.32935,1.23509 -0.65904,2.55262 -1.07073,3.87005 -0.4117,1.317417 -0.82337,2.634957 -1.23507,3.870047 -0.24702,0.65871 -0.57636,1.07039 -0.98805,1.23506 -0.4117,0.24702 -0.98787,0.41169 -1.56425,0.49403 -1.64678,0.4117 -3.29348,0.74121 -4.94026,0.90589 -1.72913,0.24702 -3.37617,0.32918 -5.02295,0.32918 -2.79953,0 -5.43408,-0.49401 -7.9866,-1.48208 -2.63485,-0.98807 -4.69374,-2.4701 -6.42286,-4.44624 -1.72912,-1.976137 -2.55212,-4.446537 -2.63446,-7.493087 0.0823,-4.77567 1.81155,-8.81009 5.10511,-12.10365 3.29357,-3.29357 7.24565,-5.76396 11.85664,-7.49308 4.61099,-1.64679 9.05709,-2.5523 13.33872,-2.5523 z m 103.91252,0 c -3.7876,0 -6.91685,1.64653 -9.14001,4.77542 -2.47017,3.62292 -3.21117,8.23388 -3.21117,12.51551 0,4.28164 0.65866,8.8926 3.21117,12.515517 2.22316,3.21122 5.27007,4.77593 9.14001,4.77593 3.7876,0 6.91634,-1.56436 9.1395,-4.69325 2.55251,-3.540577 3.211,-8.069547 3.29334,-12.351177 0,-4.36398 -0.65867,-9.13961 -3.21118,-12.76253 -2.22315,-3.21123 -5.35172,-4.77542 -9.22166,-4.77542 z m 28.65355,0.32918 c -3.7876,0 -6.91634,1.64705 -9.13949,4.77593 -2.47018,3.62292 -3.21118,8.23388 -3.21118,12.51552 0,4.28163 0.65866,8.89259 3.21118,12.515507 2.22315,3.21123 5.26955,4.77542 9.13949,4.77542 3.7876,0 6.91685,-1.56436 9.14001,-4.69325 2.55251,-3.540577 3.29334,-8.069027 3.29334,-12.350667 0,-4.36397 -0.65866,-9.13961 -3.21117,-12.76253 -2.22316,-3.21122 -5.35224,-4.77593 -9.22218,-4.77593 z m -57.16033,0.0848 c -1.65644,0.002 -3.29719,0.31698 -4.84105,0.98598 -2.14082,0.98807 -3.9522,2.5521 -5.18728,4.61057 -1.23509,2.14082 -1.81127,4.61123 -1.56425,6.99906 0.24702,2.71719 1.39971,5.18725 3.21117,7.16339 l 0.74104,0.82372 3.95222,-5.26996 -0.65888,-0.5762 c -0.90573,-0.82339 -1.07005,-2.55245 -0.90537,-3.7052 0.24702,-1.64678 1.15236,-3.12933 2.63447,-3.95273 2.14081,-1.0704 5.35245,-0.9054 6.66987,1.31775 1.8938,3.04655 0.0824,6.09296 -1.9761,8.64547 -0.90573,1.15275 -1.89393,2.22327 -2.882,3.37602 l -12.02149,13.832747 h 23.54895 v -6.340177 l -9.22217,-0.0822 c 1.64678,-1.97614 3.29348,-3.78751 4.94027,-5.68131 1.72912,-2.05847 3.376,-4.19952 4.36407,-6.75204 1.07041,-2.88187 1.15274,-5.1874 0.24701,-8.06927 -1.15274,-3.45825 -4.52869,-6.25749 -8.06927,-6.99854 -0.98807,-0.21614 -1.98736,-0.32808 -2.98121,-0.32711 z m -162.2733,0.0801 c 0.65871,0 1.31739,-1.7e-4 1.9761,0.0822 0.65872,0 1.3174,0.0827 1.97611,0.0827 h 3.54035 c 1.15275,-0.0823 2.38812,-0.0827 3.54087,-0.0827 0.4117,0.0823 0.6587,0.16467 0.74104,0.49403 0.0823,0.24701 0.0822,0.57635 0.0822,0.98805 l 0.57671,20.8318 13.99759,-21.16098 c 0,-0.0823 0.082,-0.1645 0.16433,-0.32918 0,-0.0823 0.0825,-0.24735 0.16485,-0.32969 0.4117,-0.32936 1.15254,-0.41135 2.30529,-0.41135 1.15274,0 1.97644,0.0822 2.55281,0.0822 1.07041,0 2.14077,1.7e-4 3.21117,-0.0822 1.07041,-0.0823 2.14077,-0.0827 3.21118,-0.0827 0.32935,0 0.57636,0.0823 0.74104,0.24701 0.24702,0.16468 0.32918,0.41169 0.32918,0.74104 0,0.65872 -0.32918,0.98823 -0.57619,0.90589 -0.49404,0.16468 -0.98805,0.32918 -1.48208,0.32918 -0.98807,0.16468 -1.56459,0.49402 -1.89395,0.98805 -0.32935,0.49404 -0.57636,1.23523 -0.74104,2.14096 l -5.18728,20.8318 c -0.16467,0.57638 -0.24718,1.15255 -0.41186,1.81126 -0.16468,0.65871 -0.24701,1.317567 -0.24701,1.893937 0,0.90573 0.32951,1.40009 0.90589,1.56476 0.57637,0.16468 1.15272,0.32901 1.72909,0.41135 0.57637,0.0823 0.82355,0.49436 0.90589,1.07073 0,0.49404 -0.24735,0.82338 -0.57671,0.98806 -0.4117,0.16468 -0.74103,0.24701 -1.23507,0.24701 -1.15275,0 -2.38743,-0.0825 -3.62252,-0.16485 -1.15274,-0.0823 -2.38794,-0.16484 -3.62303,-0.16484 -1.15275,0 -2.38812,0.0825 -3.54087,0.16484 -1.15275,0.0823 -2.3876,0.16485 -3.54035,0.16485 -0.32936,0 -0.65887,-0.0823 -0.90589,-0.24701 -0.24702,-0.16468 -0.41134,-0.41203 -0.41134,-0.82372 0.0823,-0.65872 0.49367,-1.07039 1.15238,-1.23507 0.65871,-0.0823 1.2354,-0.24701 1.81178,-0.24701 0.90573,-0.24702 1.56406,-0.74069 1.89342,-1.64642 0.32936,-0.90573 0.57636,-1.729247 0.74104,-2.634977 l 5.35213,-20.25561 -16.30288,23.960807 c -0.4117,0.65872 -0.82372,1.23489 -1.31775,1.81126 -0.49404,0.57638 -1.15272,0.90589 -1.97611,0.90589 -0.82339,0 -1.3174,-0.24718 -1.48208,-0.65887 -0.16468,-0.49404 -0.24701,-1.07021 -0.24701,-1.81126 l -0.57619,-24.207827 c -0.4117,1.07041 -1.23522,3.0468 -2.38797,6.011 -1.23509,2.96421 -2.30561,6.09278 -3.37602,9.22166 -1.07041,3.21123 -1.64676,5.59946 -1.7291,7.163907 0,1.15275 0.41185,1.81143 1.15291,1.9761 0.74105,0.16468 1.48206,0.24684 2.22312,0.32918 0.74105,0.0823 1.07056,0.41185 1.1529,1.1529 -0.0823,0.4117 -0.24736,0.7407 -0.57671,0.90538 -0.32936,0.16467 -0.65853,0.24701 -1.07022,0.24701 -0.82339,-0.0823 -1.64674,-0.082 -2.47014,-0.16433 -0.82339,-0.0823 -1.64674,-0.16485 -2.47013,-0.16485 -0.90573,0 -1.81141,-1.7e-4 -2.71715,0.0822 -0.90573,0.0823 -1.81141,0.0827 -2.71714,0.0827 -0.4117,0 -0.74104,-0.0825 -0.98806,-0.16485 -0.24701,-0.16468 -0.41186,-0.41151 -0.41186,-0.82321 0,-0.49403 0.16467,-0.82337 0.49403,-0.98805 0.32936,-0.24702 0.74121,-0.32952 1.1529,-0.41186 1.56444,-0.24702 2.55229,-0.65869 3.04633,-1.23507 0.49403,-0.57637 0.98804,-1.56474 1.48208,-3.046837 1.31742,-3.45824 2.55279,-6.83415 3.78788,-10.29239 1.23509,-3.45825 2.47011,-6.83416 3.7052,-10.2924 0.16468,-0.49403 0.32917,-1.07004 0.57619,-1.64641 0.16468,-0.57637 0.32918,-1.15272 0.32918,-1.72909 -0.16468,-0.74106 -0.74068,-1.15291 -1.89342,-1.15291 -1.07041,0.0823 -1.72927,-0.32951 -1.89394,-1.1529 0.0823,-0.49403 0.24717,-0.74069 0.65887,-0.90537 0.4117,-0.0823 0.82337,-0.16485 1.23507,-0.16485 z m 59.61341,0 c 0.32936,0 0.57636,0.0823 0.74104,0.24702 0.24702,0.16468 0.32918,0.32952 0.32918,0.65887 -0.0823,0.57638 -0.32934,0.90554 -0.74104,1.31723 -0.57637,0.24702 -1.07021,0.32953 -1.56424,0.41187 -0.90574,0.16467 -1.56459,0.49367 -1.89395,0.90537 -0.32935,0.41169 -0.57618,1.07037 -0.8232,1.9761 l -6.42235,22.31389 c -0.0823,0.41169 -0.24736,0.82337 -0.32969,1.235057 -0.0823,0.4117 -0.16434,0.82389 -0.16434,1.23559 0.0823,0.98807 0.41168,1.56441 0.98806,1.72909 0.57637,0.16468 1.23488,0.24684 1.81126,0.32918 0.57637,0.0823 0.90571,0.41151 0.98805,1.07022 -0.0823,0.65871 -0.41151,0.9884 -1.07022,1.07073 -0.65871,0.0823 -1.23506,0.0822 -1.72909,0.0822 -1.23509,-0.0823 -2.38795,-0.0825 -3.62304,-0.16485 -1.23508,-0.0823 -2.38794,-0.16433 -3.62303,-0.16433 -1.15275,0 -2.22327,0.082 -3.37602,0.16433 -1.07041,0.0823 -2.22293,0.16485 -3.29334,0.16485 -0.32936,0 -0.65887,-0.0823 -0.90589,-0.24701 -0.24702,-0.16468 -0.41134,-0.41169 -0.41134,-0.74104 0,-0.57638 0.4115,-0.98823 1.07021,-1.1529 0.65872,-0.16468 1.23506,-0.24684 1.7291,-0.32918 1.07041,-0.24702 1.72891,-0.74103 2.05827,-1.48208 0.32936,-0.74106 0.57671,-1.64674 0.82372,-2.717147 l 6.42235,-22.23212 c 0.0823,-0.32935 0.16467,-0.57619 0.24701,-0.8232 0.0823,-0.32936 0.0822,-0.57671 0.0822,-0.82373 -0.16468,-0.90573 -0.74102,-1.39957 -1.72909,-1.31723 -0.98807,0.0823 -1.56442,-0.32917 -1.7291,-1.07022 0,-0.41169 0.16467,-0.74103 0.49403,-0.98805 0.32936,-0.24702 0.65904,-0.3297 1.07073,-0.3297 0.90573,0 1.72891,3.5e-4 2.5523,0.0827 0.90573,0 1.72891,0.0822 2.5523,0.0822 h 3.45871 c 1.15274,-0.0823 2.22275,-0.16467 3.3755,-0.24701 0.4117,-0.0823 0.90605,-0.16485 1.31775,-0.16485 0.4117,-0.0823 0.8232,-0.0822 1.31723,-0.0822 z m 78.2221,0.0822 -3.29334,2.14095 -0.0822,6.99854 3.12849,-2.05827 V 105.3397 h 6.75204 V 71.333513 Z m 52.94457,0.41186 c 3.62292,0 6.42232,1.48221 8.39846,4.36408 2.05847,2.9642 3.04632,6.99845 3.04632,12.18582 0,5.02268 -0.98785,8.8926 -3.04632,11.774467 -2.05848,2.88187 -4.85787,4.28191 -8.39846,4.28191 -3.54058,0 -6.34049,-1.48221 -8.39897,-4.364067 -2.05848,-2.88187 -3.04632,-6.8343 -3.04632,-11.93933 0,-5.10502 0.98784,-9.05693 3.04632,-11.9388 2.05848,-2.88187 4.85839,-4.36408 8.39897,-4.36408 z m -28.80547,0.2775 c 0.96233,-0.0194 1.97534,0.0748 3.03289,0.29869 3.12888,0.65872 6.25782,3.21112 7.32823,6.42235 0.90573,2.71719 0.82374,4.77589 -0.16433,7.49308 -1.64678,4.44632 -6.0111,8.23386 -10.37508,13.75059 h 10.37508 v 4.364067 H 303.5024 l 10.62158,-12.268497 c 3.12889,-3.54058 7.90447,-8.23422 4.94027,-13.09223 -1.56445,-2.55251 -5.18724,-3.04617 -7.90443,-1.64641 -3.7876,1.8938 -4.03459,7.32786 -1.97611,9.22166 l -2.71715,3.62304 c -6.49192,-7.16351 -1.96088,-17.97869 7.34168,-18.16634 z m 57.5417,0.0517 c 3.62292,0 6.42232,1.48221 8.39846,4.36408 1.97614,2.88186 2.9645,6.99897 3.04684,12.18633 0,5.02269 -0.98836,8.89261 -3.04684,11.774477 -2.05848,2.88187 -4.85787,4.28139 -8.39846,4.28139 -3.54058,0 -6.33997,-1.48221 -8.39845,-4.36408 -2.05848,-2.881867 -3.04684,-6.833777 -3.04684,-11.938797 0,-5.10503 0.98836,-9.05746 3.04684,-11.93932 2.05848,-2.88187 4.85787,-4.36408 8.39845,-4.36408 z m -81.43379,0.16485 5.26997,0.0822 v 32.030087 h -4.8581 l 0.0822,-27.748177 -3.21117,2.05828 0.0827,-4.69326 z m 52.61488,4.03438 c -8.39859,-0.16468 -6.99875,16.30315 -4.69325,20.58479 0.98807,1.8938 2.38775,2.88199 4.69325,2.88199 2.3055,0 3.95254,-0.90551 5.02295,-2.79931 2.38783,-4.03462 3.37564,-20.33812 -5.02295,-20.66747 z m 28.65407,0.32969 c -8.3986,-0.16468 -6.99875,16.30316 -4.69326,20.58479 0.98807,1.8938 2.38776,2.881477 4.69326,2.881477 2.30549,0 3.95254,-0.905507 5.02294,-2.799307 2.38784,-4.11696 3.45799,-20.3376 -5.02294,-20.66696 z m -245.20623,3.12849 -8.06927,11.775 h 8.48113 z m 136.10694,0 -8.06927,11.775 h 8.48062 z" /><g
       id="g2897"
       transform="matrix(0.82339212,0,0,0.82339212,251.57483,-159.96708)"
       style="stroke-width:0.321333" /></g></svg>
