<?xml version="1.0" encoding="UTF-8" standalone="no"?>
<!-- Created with Inkscape (http://www.inkscape.org/) -->

<svg
   width="1500"
   height="500"
   viewBox="0 0 396.87498 132.29167"
   version="1.1"
   id="svg5"
   inkscape:version="1.2.2 (732a01da63, 2022-12-09)"
   xml:space="preserve"
   sodipodi:docname="amstradcpc.svg"
   xmlns:inkscape="http://www.inkscape.org/namespaces/inkscape"
   xmlns:sodipodi="http://sodipodi.sourceforge.net/DTD/sodipodi-0.dtd"
   xmlns="http://www.w3.org/2000/svg"
   xmlns:svg="http://www.w3.org/2000/svg"><sodipodi:namedview
     id="namedview7"
     pagecolor="#000000"
     bordercolor="#111111"
     borderopacity="1"
     inkscape:showpageshadow="0"
     inkscape:pageopacity="0"
     inkscape:pagecheckerboard="1"
     inkscape:deskcolor="#d1d1d1"
     inkscape:document-units="mm"
     showgrid="false"
     inkscape:zoom="0.62760417"
     inkscape:cx="958.40663"
     inkscape:cy="595.91701"
     inkscape:window-width="1920"
     inkscape:window-height="1009"
     inkscape:window-x="-8"
     inkscape:window-y="-8"
     inkscape:window-maximized="1"
     inkscape:current-layer="layer1" /><defs
     id="defs2" /><g
     inkscape:label="Layer 1"
     inkscape:groupmode="layer"
     id="layer1"><path
       id="rect231"
       style="fill:#ffffff;stroke-width:0.8001;stroke-linecap:square;paint-order:fill markers stroke"
       d="M -55.5625,-76.729167 V 209.02083 h 508 V -76.729167 Z m 157.17904,108.22595 c 8.75397,0 11.12077,0.62012 13.28084,3.50366 1.74666,2.26343 2.16007,4.42351 2.16007,10.81071 v 9.68417 h -14.51074 v -0.0103 -8.13387 c 0,-2.16007 -0.10335,-2.88354 -0.31006,-3.40031 -0.41341,-0.72347 -1.03353,-1.24023 -1.74666,-1.24023 -0.72347,0 -1.53996,0.51676 -1.85002,1.24023 -0.2067,0.62012 -0.31005,1.13689 -0.31005,3.40031 v 5.04362 c 0,2.26343 0.62012,3.09025 3.29695,4.52686 l 6.17017,3.41064 c 8.13386,4.52685 9.27075,6.38722 9.27075,15.64763 v 11.01741 c 0,5.97379 -0.41341,7.92717 -2.05672,10.08724 -2.26343,3.090237 -4.73357,3.710367 -15.44092,3.710367 -8.54727,0 -10.91407,-0.51677 -13.17749,-3.090247 -1.34359,-1.43661 -1.95337,-3.09026 -2.26343,-5.66374 -0.2067,-1.34359 -0.2067,-2.88355 -0.2067,-7.51375 v -12.36105 h 14.41772 v 11.53418 1.74667 c 0,2.78019 0.62012,3.91707 2.16008,3.91707 1.34358,0 2.05672,-1.13688 2.05672,-3.09025 v -1.74666 -7.61711 l -0.10336,-1.4366 c -0.10335,-2.57349 -0.41341,-3.09026 -2.88354,-4.42351 -0.93018,-0.51676 -1.64331,-0.82682 -1.74666,-0.93017 l -6.07715,-3.40031 c -6.69726,-3.81372 -7.82381,-5.97381 -7.82381,-14.52108 v -8.03052 c 0,-5.66373 0.62012,-8.13387 2.78019,-10.08724 2.25309,-2.06705 4.92994,-2.58382 14.91382,-2.58382 z m 176.05127,0.19637 h 28.69075 v 17.46664 h -7.24503 v -10.60401 h -19.65772 c -2.97656,0 -4.16512,1.88103 -4.16512,5.6534 v 43.8733 c 0,3.77237 1.18856,5.6534 4.16512,5.6534 h 19.65772 v -11.30681 h 7.24503 v 18.169437 h -28.69075 c -6.55257,-0.0103 -10.12858,-3.679367 -10.12858,-10.635007 v -47.64567 c 0,-6.94531 3.57601,-10.62468 10.12858,-10.62468 z m 90.52677,0 H 396.875 v 17.46664 h -7.24504 v -10.60401 h -19.65771 c -2.97656,0 -4.16512,1.88103 -4.16512,5.6534 v 43.8733 c 0,3.77237 1.18856,5.6534 4.16512,5.6534 h 19.65771 V 82.429073 H 396.875 V 100.59851 H 368.18424 C 361.64202,100.58821 358.066,96.919143 358.066,89.963503 v -47.64567 c 0,-6.94531 3.57602,-10.62468 10.12858,-10.62468 z m -57.77425,0.0103 h 32.85587 c 6.55257,0 10.12859,3.66903 10.12859,10.62467 v 15.78198 c 0,6.94531 -3.57602,10.62468 -10.12859,10.62468 h -19.05826 v 25.01139 h 6.25284 v 6.852297 h -20.05045 v -6.862627 h 6.05648 v -55.19043 h -6.05648 z m -301.769695,0.2067 h 17.807698 l 8.547282,68.677977 H 21.311361 L 20.174479,86.997233 H 14.614095 L 13.580566,100.58813 H 0 Z m 27.285156,0 H 55.08708 l 3.40031,30.37541 3.59668,-30.37541 H 81.132 V 100.58813 H 68.05786 V 61.665443 L 62.91089,100.58813 H 54.46696 L 49.00993,61.458743 V 100.58813 H 35.935791 Z m 82.031169,0 h 28.9388 v 11.12077 h -7.10034 v 57.557207 h -0.0103 -14.52107 V 43.030923 H 117.967 Z m 29.82764,0 h 15.45125 l 5.14697,0.10336 c 10.08723,0.2067 12.55738,2.88355 12.55738,13.28084 v 7.20369 c 0,9.5808 -1.43661,12.86744 -6.49056,14.21102 2.47013,0.82683 3.91707,1.95337 4.94026,3.81372 1.34359,2.36678 1.53996,4.21681 1.53996,12.25765 V 100.59847 H 166.52214 V 80.000243 c 0,-6.80061 -1e-5,-6.69726 -3.60702,-6.80062 H 162.295 v 27.388507 h -14.5004 z m 42.20931,0 h 17.81803 l 8.54728,68.677977 h -13.69425 l -1.13688,-13.590897 h -5.56039 l -1.03353,13.590897 h -13.5909 z m 27.28515,0 h 14.10767 c 12.46434,0 14.21102,0.31007 16.5778,3.09025 2.16007,2.47014 2.67684,5.14699 2.67684,14.62443 v 33.87907 c 0,8.44392 -0.31006,10.70736 -1.95337,13.17749 -1.95337,2.88354 -4.83692,3.813717 -11.94759,3.813717 l -7.30705,0.10336 h -12.1543 z m 106.92888,6.64559 v 23.32674 h 17.27026 c 2.97656,0 4.16512,-1.88102 4.16512,-5.6534 v -12.01994 c 0,-3.77237 -1.18856,-5.6534 -4.16512,-5.6534 z m -161.9126,4.57853 v 17.50798 c 0.5271,-0.0103 0.83716,-0.0103 1.03353,-0.0103 2.78019,0 3.1936,-0.62012 3.1936,-5.04362 v -7.4104 l -0.10335,-1.85001 c 0,-2.47013 -0.62012,-3.19361 -2.57349,-3.19361 h -0.93017 z m 70.83805,0 c -0.31006,0 -0.82682,0.10336 -1.34359,0.10336 v 46.12638 h 1.34359 c 2.26343,0 2.78019,-0.72347 2.78019,-3.60701 v -1.43661 -3.40031 -32.22542 -1.74666 c 0,-3.09025 -0.51676,-3.81373 -2.78019,-3.81373 z m -215.738768,5.87045 -1.953369,26.66504 h 3.917074 z m 181.353268,0 -1.95337,26.66504 h 3.91708 z" /><g
       id="g2990"
       transform="matrix(0.10335286,0,0,0.10335286,-255.89709,72.762339)"
       style="stroke-width:2.56" /></g></svg>
