<?xml version="1.0" encoding="UTF-8" standalone="no"?>
<!-- Created with Inkscape (http://www.inkscape.org/) -->

<svg
   width="1500"
   height="500"
   viewBox="0 0 396.87498 132.29167"
   version="1.1"
   id="svg5"
   inkscape:version="1.2.2 (732a01da63, 2022-12-09)"
   xml:space="preserve"
   sodipodi:docname="androidapps.svg"
   xmlns:inkscape="http://www.inkscape.org/namespaces/inkscape"
   xmlns:sodipodi="http://sodipodi.sourceforge.net/DTD/sodipodi-0.dtd"
   xmlns="http://www.w3.org/2000/svg"
   xmlns:svg="http://www.w3.org/2000/svg"><sodipodi:namedview
     id="namedview7"
     pagecolor="#000000"
     bordercolor="#111111"
     borderopacity="1"
     inkscape:showpageshadow="0"
     inkscape:pageopacity="0"
     inkscape:pagecheckerboard="1"
     inkscape:deskcolor="#d1d1d1"
     inkscape:document-units="mm"
     showgrid="false"
     inkscape:zoom="0.62760417"
     inkscape:cx="958.40663"
     inkscape:cy="595.91701"
     inkscape:window-width="1920"
     inkscape:window-height="1009"
     inkscape:window-x="-8"
     inkscape:window-y="-8"
     inkscape:window-maximized="1"
     inkscape:current-layer="layer1" /><defs
     id="defs2"><rect
       x="885.42926"
       y="125.5928"
       width="1014.1619"
       height="408.17661"
       id="rect334" /></defs><g
     inkscape:label="Layer 1"
     inkscape:groupmode="layer"
     id="layer1"><path
       id="rect231"
       style="fill:#ffffff;stroke-width:0.8001;stroke-linecap:square;paint-order:fill markers stroke"
       d="M -55.5625,-76.729167 V 209.02083 h 508 V -76.729167 Z M 139.36824,0.00981833 c 0.15243,0.01994 0.3149,0.07024 0.48731,0.150379 0.63532,0.371722 0.76688,0.90018097 0.39635,1.58956697 l -5.64461,10.4128007 c 5.66985,2.919008 10.20236,6.984547 13.59452,12.204938 3.39167,5.22445 5.08857,10.9327 5.08857,17.13384 H 79.75275 c 0,-6.20257 1.69667,-11.91058 5.08858,-17.13384 3.39191,-5.220391 7.95071,-9.28593 13.67462,-12.204938 L 92.87082,1.7497643 c -0.37196,-0.689386 -0.23989,-1.21616997 0.39687,-1.58956697 0.68795,-0.319099 1.2176,-0.158468 1.58957,0.475423 l 5.7242,10.49651667 c 5.03453,-2.2265077 10.36148,-3.3424317 15.9799,-3.3424317 5.61724,0 10.9445,1.11568 15.98094,3.3424317 l 5.72368,-10.49651667 c 0.27772,-0.475418 0.64495,-0.685633 1.10226,-0.625802 z M 99.78512,22.023978 c -0.84749,0 -1.56341,0.304623 -2.14612,0.91364 -0.5827,0.610455 -0.87436,1.337895 -0.87436,2.185395 0,0.85037 0.29166,1.57691 0.87436,2.18591 0.58271,0.61189 1.29695,0.91623 2.14612,0.91623 0.8475,0 1.5765,-0.30434 2.18695,-0.91623 0.60757,-0.609 0.91264,-1.33697 0.91467,-2.18591 0,-0.8475 -0.30565,-1.57351 -0.91467,-2.185395 -0.61045,-0.609017 -1.33945,-0.91364 -2.18695,-0.91364 z m 33.55041,0 c -0.84941,0 -1.57873,0.304623 -2.18798,0.91364 -0.61021,0.610455 -0.91467,1.337895 -0.91467,2.185395 0,0.85037 0.30446,1.57691 0.91467,2.18591 0.60925,0.61189 1.33857,0.91623 2.18798,0.91623 0.84606,0 1.56171,-0.30434 2.14561,-0.91623 0.58294,-0.609 0.87436,-1.33697 0.87436,-2.18591 0,-0.8475 -0.29118,-1.57351 -0.87436,-2.185395 -0.58414,-0.609017 -1.29811,-0.91364 -2.14561,-0.91364 z m 172.81788,8.348845 c 1.16613,0 2.14289,0.40842 2.93005,1.22473 0.81631,0.78716 1.22473,1.74913 1.22473,2.88613 0,1.137 -0.40842,2.11374 -1.22473,2.93005 -0.78716,0.78716 -1.76392,1.18081 -2.93005,1.18081 -1.10783,0 -2.0698,-0.39365 -2.88613,-1.18081 -0.81631,-0.81631 -1.22422,-1.79305 -1.22422,-2.93005 0,-1.137 0.40791,-2.09897 1.22422,-2.88613 0.81633,-0.81631 1.7783,-1.22473 2.88613,-1.22473 z m -57.8559,0.26252 h 6.60321 v 32.79799 h -6.60321 v -2.18643 c -1.4577,1.77839 -3.44021,2.66754 -5.94744,2.66754 -2.82793,0 -5.23312,-1.12238 -7.21559,-3.36723 -1.95331,-2.24485 -2.93005,-4.92708 -2.93005,-8.04654 0,-3.11947 0.97674,-5.80169 2.93005,-8.04654 1.98247,-2.24485 4.38766,-3.36724 7.21559,-3.36724 2.50723,0 4.48974,0.88915 5.94744,2.66754 z m 81.38314,0 h 6.60373 v 32.79799 h -6.60373 v -2.18643 c -1.45768,1.77839 -3.44021,2.66754 -5.94744,2.66754 -2.82796,0 -5.23312,-1.12238 -7.21558,-3.36723 -1.95331,-2.24485 -2.93005,-4.92708 -2.93005,-8.04654 0,-3.11947 0.97674,-5.80169 2.93005,-8.04654 1.98246,-2.24485 4.38762,-3.36724 7.21558,-3.36724 2.50723,0 4.48976,0.88915 5.94744,2.66754 z m -140.46378,10.45155 c 2.50724,0 4.48975,0.88915 5.94744,2.66754 v -2.18643 h 6.60374 v 21.86533 h -6.60374 v -2.18643 c -1.45769,1.77839 -3.4402,2.66754 -5.94744,2.66754 -2.82792,0 -5.23311,-1.12238 -7.21558,-3.36723 -1.9533,-2.24485 -2.92953,-4.92708 -2.92953,-8.04654 0,-3.11947 0.97623,-5.80169 2.92953,-8.04654 1.98247,-2.24485 4.38766,-3.36724 7.21558,-3.36724 z m 30.6555,0 c 2.653,0 4.72311,0.88915 6.20995,2.66754 1.51601,1.77839 2.27377,4.12552 2.27377,7.04092 v 12.63798 h -6.60322 v -11.5011 c 0,-3.23609 -1.18043,-4.85397 -3.5419,-4.85397 -1.31192,0 -2.37626,0.48073 -3.19257,1.44281 -0.81631,0.96208 -1.22473,2.39104 -1.22473,4.28604 v 10.62622 h -6.60322 v -21.86533 h 6.60322 v 2.23036 c 1.25362,-1.80755 3.27993,-2.71147 6.0787,-2.71147 z m 67.43309,0 c 3.17775,0 5.88901,1.10813 8.13387,3.32383 2.24486,2.18655 3.36724,4.88302 3.36724,8.08995 0,3.20693 -1.12238,5.91818 -3.36724,8.13387 -2.24486,2.18654 -4.95612,3.2799 -8.13387,3.2799 -3.17779,0 -5.88901,-1.09336 -8.13387,-3.2799 -2.24481,-2.21569 -3.36724,-4.92694 -3.36724,-8.13387 0,-3.20693 1.12243,-5.9034 3.36724,-8.08995 2.24486,-2.2157 4.95608,-3.32383 8.13387,-3.32383 z m -15.17427,0.2186 c 0.75801,0 1.47197,0.0876 2.14251,0.26251 v 6.69107 c -1.02036,-0.34985 -1.99712,-0.52504 -2.93006,-0.52504 -1.39938,0 -2.49274,0.4955 -3.2799,1.48673 -0.758,0.96208 -1.13688,2.24489 -1.13688,3.84835 v 10.36422 h -6.60321 v -21.86533 h 6.60321 v 3.27991 c 0.34982,-0.99123 1.00574,-1.82233 1.96784,-2.49288 0.96209,-0.69969 2.0412,-1.04954 3.23649,-1.04954 z m 30.74231,0.26251 h 6.60373 v 21.86533 h -6.60373 z m -234.09475,1.28313 c 2.2265,0 4.13523,0.79512 5.72523,2.38487 1.58999,1.58975 2.38487,3.49692 2.38487,5.72368 v 34.18551 c 0,2.28224 -0.78308,4.21506 -2.34508,5.80481 -1.56511,1.58999 -3.48733,2.38487 -5.76502,2.38487 -2.27938,0 -4.213,-0.79512 -5.80275,-2.38487 -1.58999,-1.58999 -2.38487,-3.52257 -2.38487,-5.80481 v -34.18551 c 0,-2.22651 0.79511,-4.13393 2.38487,-5.72368 1.58975,-1.58975 3.52337,-2.38487 5.80275,-2.38487 z m 95.56264,0 c 2.27794,0 4.21276,0.78307 5.80275,2.34507 1.58998,1.56488 2.38486,3.48697 2.38486,5.76348 v 34.18551 c 0,2.28224 -0.79488,4.21482 -2.38486,5.80481 -1.58999,1.58999 -3.52481,2.38487 -5.80275,2.38487 -2.22532,0 -4.13421,-0.79488 -5.7242,-2.38487 -1.58999,-1.58999 -2.38487,-3.52257 -2.38487,-5.80481 v -34.18551 c 0,-2.27627 0.79513,-4.1986 2.38487,-5.76348 1.58999,-1.562 3.49745,-2.34507 5.7242,-2.34507 z m -84.27289,1.50947 h 72.97901 v 52.95025 c 0,2.44013 -0.848,4.505927 -2.543,6.201167 -1.69835,1.69525 -3.73748,2.543 -6.12211,2.543 h -5.96294 v 18.04748 c 0,2.27937 -0.79487,4.2143 -2.38487,5.8043 -1.58998,1.58998 -3.5248,2.38486 -5.80275,2.38486 -2.2796,0 -4.21327,-0.79488 -5.80326,-2.38486 -1.58999,-1.59 -2.38487,-3.52516 -2.38487,-5.8043 v -18.04748 h -10.9709 v 18.04748 c 0,2.27937 -0.79488,4.2143 -2.38487,5.8043 -1.58999,1.58998 -3.52481,2.38486 -5.80275,2.38486 -2.22507,0 -4.13445,-0.79488 -5.7242,-2.38486 -1.58975,-1.59 -2.38435,-3.52516 -2.38435,-5.8043 l -0.0806,-18.04903 h -5.88336 c -2.43869,0 -4.5045,-0.84775 -6.20118,-2.543 -1.69524,-1.69524 -2.54299,-3.760807 -2.54299,-6.201167 z m 110.63562,2.71766 c -1.48685,0 -2.69682,0.51027 -3.62975,1.53066 -0.90377,1.02038 -1.35599,2.31743 -1.35599,3.89175 0,1.57431 0.45222,2.87188 1.35599,3.89227 0.93293,1.02038 2.1429,1.53065 3.62975,1.53065 1.48685,0 2.68206,-0.51027 3.58583,-1.53065 0.93292,-1.02039 1.3994,-2.31796 1.3994,-3.89227 0,-1.57432 -0.46648,-2.87137 -1.3994,-3.89175 -0.90377,-1.02039 -2.09898,-1.53066 -3.58583,-1.53066 z m 53.13268,0 c -1.48685,0 -2.69631,0.51027 -3.62924,1.53066 -0.90377,1.02038 -1.35599,2.31743 -1.35599,3.89175 0,1.57431 0.45222,2.87188 1.35599,3.89227 0.93293,1.02038 2.14239,1.53065 3.62924,1.53065 1.48684,0 2.68257,-0.51027 3.58634,-1.53065 0.93293,-1.02039 1.3994,-2.31796 1.3994,-3.89227 0,-1.57432 -0.46647,-2.87137 -1.3994,-3.89175 -0.90377,-1.02039 -2.0995,-1.53066 -3.58634,-1.53066 z m 81.38314,0 c -1.48686,0 -2.69634,0.51027 -3.62923,1.53066 -0.90378,1.02038 -1.35599,2.31743 -1.35599,3.89175 0,1.57431 0.45221,2.87188 1.35599,3.89227 0.93289,1.02038 2.14237,1.53065 3.62923,1.53065 1.48686,0 2.68258,-0.51027 3.58635,-1.53065 0.93291,-1.02039 1.39939,-2.31796 1.39939,-3.89227 0,-1.57432 -0.46648,-2.87137 -1.39939,-3.89175 -0.90377,-1.02039 -2.09949,-1.53066 -3.58635,-1.53066 z m -37.91448,0.17467 c -1.39939,0 -2.56556,0.48123 -3.49849,1.44332 -0.90379,0.96207 -1.35548,2.2301 -1.35548,3.80442 0,1.57431 0.45169,2.84285 1.35548,3.80493 0.93293,0.96208 2.0991,1.44281 3.49849,1.44281 1.39939,0 2.5513,-0.48073 3.45509,-1.44281 0.9329,-0.96208 1.39888,-2.23062 1.39888,-3.80493 0,-1.57432 -0.46598,-2.84235 -1.39888,-3.80442 -0.90379,-0.96209 -2.0557,-1.44332 -3.45509,-1.44332 z m -98.08859,24.58092 c 2.50724,0 4.48975,0.88916 5.94744,2.66754 v -2.18643 h 6.60374 v 21.86533 h -6.60374 v -2.18643 c -1.45769,1.77839 -3.4402,2.66754 -5.94744,2.66754 -2.82792,0 -5.23311,-1.12238 -7.21558,-3.36723 -1.9533,-2.24485 -2.92953,-4.92707 -2.92953,-8.04654 0,-3.11947 0.97623,-5.80169 2.92953,-8.04654 1.98247,-2.24485 4.38766,-3.36724 7.21558,-3.36724 z m 30.52424,0 c 2.82793,0 5.21886,1.12239 7.17217,3.36724 1.98247,2.24485 2.97346,4.92707 2.97346,8.04654 0,3.11947 -0.99099,5.80169 -2.97346,8.04654 -1.95331,2.24485 -4.34424,3.36723 -7.17217,3.36723 -1.34108,0 -2.55054,-0.26226 -3.62924,-0.78703 -1.0787,-0.55392 -1.85174,-1.18081 -2.3182,-1.88051 v 11.326447 h -6.60322 V 72.314963 h 6.60322 v 2.18643 c 0.46646,-0.69969 1.2395,-1.31181 2.3182,-1.83658 1.0787,-0.55393 2.28816,-0.83096 3.62924,-0.83096 z m 26.80715,0 c 2.82792,0 5.21887,1.12239 7.17217,3.36724 1.9825,2.24485 2.97346,4.92707 2.97346,8.04654 0,3.11947 -0.99096,5.80169 -2.97346,8.04654 -1.9533,2.24485 -4.34425,3.36723 -7.17217,3.36723 -1.34108,0 -2.55106,-0.26226 -3.62975,-0.78703 -1.07869,-0.55392 -1.85123,-1.18081 -2.31769,-1.88051 V 103.32031 H 233.9976 V 72.314963 h 6.60322 v 2.18643 c 0.46646,-0.69969 1.239,-1.31181 2.31769,-1.83658 1.07869,-0.55393 2.28867,-0.83096 3.62975,-0.83096 z m 22.4777,0 c 2.50725,0 4.59213,0.62689 6.25388,1.88051 1.69094,1.22446 2.62386,2.95896 2.79879,5.20382 h -6.64714 c -0.2624,-1.34108 -1.10825,-2.01177 -2.53679,-2.01177 -1.48686,0 -2.22984,0.46648 -2.22984,1.3994 0,0.81631 0.74298,1.38515 2.22984,1.70584 l 3.9796,1.04955 c 2.18655,0.58308 3.76113,1.42843 4.72323,2.53628 0.96209,1.10784 1.4428,2.55106 1.4428,4.32945 0,2.01162 -0.87436,3.64428 -2.62361,4.89789 -1.74921,1.22447 -4.00878,1.83658 -6.7784,1.83658 -2.91539,0 -5.32055,-0.71448 -7.21558,-2.14302 -1.86583,-1.45769 -2.85684,-3.27979 -2.97346,-5.46633 h 6.95306 c 0.0583,0.84546 0.40813,1.50137 1.04955,1.96784 0.64138,0.4373 1.44297,0.65629 2.40502,0.65629 1.63263,0 2.44895,-0.46648 2.44895,-1.3994 0,-0.46647 -0.18946,-0.81632 -0.56844,-1.04955 -0.34987,-0.26239 -0.99098,-0.52465 -1.92391,-0.78703 l -4.41679,-1.1374 c -3.6734,-0.96208 -5.51026,-3.25065 -5.51026,-6.86573 0,-1.95331 0.81636,-3.54217 2.44895,-4.76663 1.63263,-1.22447 3.86262,-1.83659 6.69055,-1.83659 z m -78.32184,5.99137 c -1.48685,0 -2.69682,0.50975 -3.62975,1.53014 -0.90377,1.02038 -1.35599,2.31796 -1.35599,3.89227 0,1.57431 0.45222,2.87188 1.35599,3.89227 0.93293,1.02038 2.1429,1.53014 3.62975,1.53014 1.48685,0 2.68206,-0.50976 3.58583,-1.53014 0.93292,-1.02039 1.3994,-2.31796 1.3994,-3.89227 0,-1.57431 -0.46648,-2.87189 -1.3994,-3.89227 -0.90377,-1.02039 -2.09898,-1.53014 -3.58583,-1.53014 z m 27.55026,0 c -1.48685,0 -2.69683,0.50975 -3.62975,1.53014 -0.90378,1.02038 -1.35548,2.31796 -1.35548,3.89227 0,1.57431 0.4517,2.87188 1.35548,3.89227 0.93292,1.02038 2.1429,1.53014 3.62975,1.53014 1.48685,0 2.68206,-0.50976 3.58583,-1.53014 0.93292,-1.02039 1.39939,-2.31796 1.39939,-3.89227 0,-1.57431 -0.46647,-2.87189 -1.39939,-3.89227 -0.90377,-1.02039 -2.09898,-1.53014 -3.58583,-1.53014 z m 26.80715,0 c -1.48685,0 -2.69683,0.50975 -3.62976,1.53014 -0.90377,1.02038 -1.35547,2.31796 -1.35547,3.89227 0,1.57431 0.4517,2.87188 1.35547,3.89227 0.93293,1.02038 2.14291,1.53014 3.62976,1.53014 1.48685,0 2.68205,-0.50976 3.58583,-1.53014 0.93292,-1.02039 1.39939,-2.31796 1.39939,-3.89227 0,-1.57431 -0.46647,-2.87189 -1.39939,-3.89227 -0.90378,-1.02039 -2.09898,-1.53014 -3.58583,-1.53014 z" /><g
       inkscape:label="Layer 1"
       id="layer1-6"
       transform="translate(-6.2923518,21.679241)"><g
         aria-label="android apps"
         transform="matrix(1.0674328,0,0,1.0674328,-725.3875,-74.038843)"
         id="text332"
         style="font-size:64px;font-family:'Euclid Circular A';-inkscape-font-specification:'Euclid Circular A';white-space:pre;shape-inside:url(#rect334);fill:#ffffff;fill-opacity:1;stroke:none;stroke-width:2.70275;stroke-linecap:round;stroke-linejoin:round;stroke-dasharray:none;paint-order:fill markers stroke" /><g
         id="g3348"
         transform="matrix(0.40752205,0,0,0.40752205,2.8417105,26.25163)"
         style="fill:#ffffff;fill-opacity:1;stroke:none;stroke-width:7.80473;stroke-dasharray:none;stroke-opacity:1"><g
           id="g3290"
           style="fill:#ffffff;fill-opacity:1;stroke:none;stroke-width:7.80473;stroke-dasharray:none;stroke-opacity:1">
	<g
   id="g3288"
   style="fill:#ffffff;fill-opacity:1;stroke:none;stroke-width:7.80473;stroke-dasharray:none;stroke-opacity:1">
		
		
		
		
	</g>
</g></g></g></g></svg>
