<?xml version="1.0" encoding="UTF-8" standalone="no"?>
<!-- Created with Inkscape (http://www.inkscape.org/) -->

<svg
   width="1500"
   height="500"
   viewBox="0 0 396.87498 132.29167"
   version="1.1"
   id="svg5"
   inkscape:version="1.2.2 (732a01da63, 2022-12-09)"
   xml:space="preserve"
   sodipodi:docname="androidgames.svg"
   xmlns:inkscape="http://www.inkscape.org/namespaces/inkscape"
   xmlns:sodipodi="http://sodipodi.sourceforge.net/DTD/sodipodi-0.dtd"
   xmlns="http://www.w3.org/2000/svg"
   xmlns:svg="http://www.w3.org/2000/svg"><sodipodi:namedview
     id="namedview7"
     pagecolor="#000000"
     bordercolor="#111111"
     borderopacity="1"
     inkscape:showpageshadow="0"
     inkscape:pageopacity="0"
     inkscape:pagecheckerboard="1"
     inkscape:deskcolor="#d1d1d1"
     inkscape:document-units="mm"
     showgrid="false"
     inkscape:zoom="0.62760417"
     inkscape:cx="958.40663"
     inkscape:cy="595.91701"
     inkscape:window-width="1920"
     inkscape:window-height="1009"
     inkscape:window-x="-8"
     inkscape:window-y="-8"
     inkscape:window-maximized="1"
     inkscape:current-layer="layer1" /><defs
     id="defs2"><rect
       x="885.42926"
       y="125.5928"
       width="1014.1619"
       height="408.17661"
       id="rect334" /><rect
       x="863.4505"
       y="210.36795"
       width="850.89124"
       height="436.435"
       id="rect4589" /><rect
       x="885.42926"
       y="125.5928"
       width="1014.1619"
       height="408.17661"
       id="rect334-8" /></defs><g
     inkscape:label="Layer 1"
     inkscape:groupmode="layer"
     id="layer1"><path
       id="rect231"
       style="fill:#ffffff;stroke-width:0.8001;stroke-linecap:square;paint-order:fill markers stroke"
       d="M -55.5625,-76.729167 V 209.02083 h 508 V -76.729167 Z M 140.99915,0.00981833 c 0.15243,0.01994 0.3149,0.07024 0.4873,0.150379 0.63533,0.371725 0.76689,0.90018197 0.39636,1.58956697 L 136.2382,12.162565 c 5.66985,2.919005 10.20236,6.984545 13.59451,12.204938 3.39168,5.22445 5.08858,10.93272 5.08858,17.13384 H 81.38366 c 0,-6.20256 1.69666,-11.91058 5.08858,-17.13384 3.39191,-5.220393 7.95071,-9.285933 13.67462,-12.204938 L 94.50173,1.7497643 c -0.37196,-0.689385 -0.23989,-1.21617297 0.39687,-1.58956697 0.68796,-0.319101 1.21761,-0.158468 1.58957,0.475423 l 5.7242,10.49651667 c 5.03452,-2.2265117 10.36147,-3.3424317 15.9799,-3.3424317 5.61723,0 10.9445,1.115681 15.98094,3.3424317 l 5.72368,-10.49651667 c 0.27771,-0.475418 0.64494,-0.685633 1.10226,-0.625802 z M 101.41603,22.023978 c -0.8475,0 -1.56342,0.304631 -2.14612,0.91364 -0.5827,0.610455 -0.87437,1.337895 -0.87437,2.185395 0,0.85037 0.29167,1.5769 0.87437,2.18591 0.5827,0.61189 1.29694,0.91623 2.14612,0.91623 0.8475,0 1.5765,-0.30434 2.18695,-0.91623 0.60757,-0.60901 0.91276,-1.33697 0.91467,-2.18591 0,-0.8475 -0.30566,-1.57351 -0.91467,-2.185395 -0.61045,-0.609009 -1.33945,-0.91364 -2.18695,-0.91364 z m 33.55041,0 c -0.84941,0 -1.57873,0.304631 -2.18798,0.91364 -0.61021,0.610455 -0.91467,1.337895 -0.91467,2.185395 0,0.85037 0.30446,1.5769 0.91467,2.18591 0.60925,0.61189 1.33857,0.91623 2.18798,0.91623 0.84607,0 1.56171,-0.30434 2.1456,-0.91623 0.58294,-0.60901 0.87437,-1.33697 0.87437,-2.18591 0,-0.8475 -0.29119,-1.57351 -0.87437,-2.185395 -0.58413,-0.609009 -1.2981,-0.91364 -2.1456,-0.91364 z m 170.26402,10.382825 c 1.13876,0 2.09267,0.39815 2.86133,1.19528 0.79714,0.76866 1.19579,1.70815 1.19579,2.81843 0,1.11029 -0.39865,2.0642 -1.19579,2.86133 -0.76866,0.76866 -1.72257,1.1529 -2.86133,1.1529 -1.0818,0 -2.02129,-0.38424 -2.81843,-1.1529 -0.79712,-0.79713 -1.19579,-1.75104 -1.19579,-2.86133 0,-1.11028 0.39867,-2.04977 1.19579,-2.81843 0.79714,-0.79713 1.73663,-1.19528 2.81843,-1.19528 z m -56.49629,0.2558 h 6.44819 v 32.0275 h -6.44819 v -2.13475 c -1.42345,1.7366 -3.35959,2.60449 -5.80791,2.60449 -2.76149,0 -5.11021,-1.09555 -7.04608,-3.28765 -1.90742,-2.1921 -2.86081,-4.81175 -2.86081,-7.85792 0,-3.04617 0.95339,-5.6653 2.86081,-7.8574 1.93587,-2.1921 4.28459,-3.28817 7.04608,-3.28817 2.44832,0 4.38446,0.86841 5.80791,2.60501 z m 79.4706,0 h 6.44819 v 32.0275 h -6.44819 v -2.13475 c -1.42344,1.7366 -3.35908,2.60449 -5.80739,2.60449 -2.76149,0 -5.11021,-1.09555 -7.04609,-3.28765 -1.90743,-2.1921 -2.86132,-4.81175 -2.86132,-7.85792 0,-3.04617 0.95389,-5.6653 2.86132,-7.8574 1.93588,-2.1921 4.2846,-3.28817 7.04609,-3.28817 2.44831,0 4.38395,0.86841 5.80739,2.60501 z M 70.40966,42.851133 c 2.22651,0 4.13524,0.79511 5.72523,2.38487 1.58999,1.58974 2.38487,3.49693 2.38487,5.72368 v 34.18602 c 0,2.28225 -0.78308,4.21455 -2.34508,5.8043 -1.56511,1.58999 -3.48732,2.38487 -5.76502,2.38487 -2.27937,0 -4.213,-0.79513 -5.80275,-2.38487 -1.58999,-1.58999 -2.38538,-3.52205 -2.38538,-5.8043 v -34.18602 c 0,-2.22651 0.79563,-4.13394 2.38538,-5.72368 1.58975,-1.58976 3.52338,-2.38487 5.80275,-2.38487 z m 95.56264,0 c 2.27794,0 4.21276,0.78307 5.80274,2.34507 1.58999,1.56488 2.38487,3.48697 2.38487,5.76348 v 34.18602 c 0,2.28225 -0.79488,4.21431 -2.38487,5.8043 -1.58998,1.58999 -3.5248,2.38487 -5.80274,2.38487 -2.22532,0 -4.13422,-0.79488 -5.7242,-2.38487 -1.58999,-1.58999 -2.38487,-3.52205 -2.38487,-5.8043 v -34.18602 c 0,-2.27627 0.79512,-4.1986 2.38487,-5.76348 1.58998,-1.562 3.49745,-2.34507 5.7242,-2.34507 z m 25.06927,0.0176 c 2.44833,0 4.38447,0.86841 5.80791,2.60501 v -2.13527 h 6.44819 v 21.35166 h -6.44819 v -2.13475 c -1.42344,1.7366 -3.35958,2.60449 -5.80791,2.60449 -2.76148,0 -5.10968,-1.09555 -7.04557,-3.28765 -1.90741,-2.1921 -2.86132,-4.81175 -2.86132,-7.85792 0,-3.04617 0.95391,-5.6653 2.86132,-7.8574 1.93589,-2.1921 4.28409,-3.28817 7.04557,-3.28817 z m 29.93512,0 c 2.59066,0 4.61231,0.86841 6.06423,2.60501 1.48037,1.7366 2.22054,4.02866 2.22054,6.87555 v 12.34084 h -6.44819 v -11.23083 c 0,-3.16005 -1.15324,-4.73977 -3.45922,-4.73977 -1.28109,0 -2.32,0.46975 -3.11712,1.40922 -0.79714,0.93947 -1.19579,2.33428 -1.19579,4.18476 v 10.37662 h -6.44819 v -21.35166 h 6.44819 v 2.17816 c 1.22416,-1.76507 3.20253,-2.6479 5.93555,-2.6479 z m 65.8487,0 c 3.1031,0 5.75107,1.08216 7.94318,3.24579 2.1921,2.13517 3.28817,4.7682 3.28817,7.89978 0,3.13158 -1.09607,5.77955 -3.28817,7.94319 -2.19211,2.13516 -4.84008,3.20238 -7.94318,3.20238 -3.10312,0 -5.75057,-1.06722 -7.94267,-3.20238 -2.1921,-2.16364 -3.28817,-4.81161 -3.28817,-7.94319 0,-3.13158 1.09607,-5.76461 3.28817,-7.89978 2.1921,-2.16363 4.83955,-3.24579 7.94267,-3.24579 z m -14.81822,0.21394 c 0.74019,0 1.43811,0.085 2.0929,0.2558 v 6.53396 c -0.99642,-0.34162 -1.95033,-0.51263 -2.86133,-0.51263 -1.36649,0 -2.43425,0.48417 -3.2029,1.45211 -0.7402,0.93947 -1.11001,2.19212 -1.11001,3.75791 v 10.12031 h -6.44819 v -21.35166 h 6.44819 v 3.2029 c 0.34163,-0.96794 0.98184,-1.77917 1.92133,-2.43396 0.93946,-0.68325 1.99281,-1.02474 3.16001,-1.02474 z m 30.02091,0.2558 h 6.44818 v 21.35166 h -6.44818 z m -220.32867,1.02216 h 72.979 v 52.95025 c 0,2.44012 -0.84799,4.505927 -2.54299,6.201167 -1.69835,1.69524 -3.73748,2.543 -6.12211,2.543 h -5.96294 v 18.04748 c 0,2.27937 -0.79489,4.21431 -2.38487,5.8043 -1.58999,1.58999 -3.5248,2.38486 -5.80275,2.38486 -2.27961,0 -4.21327,-0.79487 -5.80326,-2.38486 -1.58999,-1.58999 -2.38487,-3.52517 -2.38487,-5.8043 v -18.04748 h -10.9709 v 18.04748 c 0,2.27937 -0.79488,4.21431 -2.38487,5.8043 -1.58999,1.58999 -3.52481,2.38486 -5.80275,2.38486 -2.22508,0 -4.13445,-0.79487 -5.7242,-2.38486 -1.58975,-1.58999 -2.38435,-3.52517 -2.38435,-5.8043 l -0.0806,-18.04903 h -5.88336 c -2.43869,0 -4.5045,-0.84776 -6.20118,-2.543 -1.69524,-1.69524 -2.54299,-3.760807 -2.54299,-6.201167 z m 110.79427,4.3589 c -1.45192,0 -2.63349,0.49807 -3.54449,1.49449 -0.88254,0.99641 -1.32343,2.26296 -1.32343,3.80028 0,1.53732 0.44089,2.80439 1.32343,3.8008 0.911,0.99641 2.09257,1.49448 3.54449,1.49448 1.4519,0 2.61906,-0.49807 3.50159,-1.49448 0.91102,-0.99641 1.36684,-2.26348 1.36684,-3.8008 0,-1.53732 -0.45582,-2.80387 -1.36684,-3.80028 -0.88253,-0.99642 -2.04969,-1.49449 -3.50159,-1.49449 z m 51.88469,0 c -1.45193,0 -2.63349,0.49807 -3.54449,1.49449 -0.88254,0.99641 -1.32395,2.26296 -1.32395,3.80028 0,1.53732 0.44141,2.80439 1.32395,3.8008 0.911,0.99641 2.09256,1.49448 3.54449,1.49448 1.4519,0 2.61905,-0.49807 3.50159,-1.49448 0.911,-0.99641 1.36632,-2.26348 1.36632,-3.8008 0,-1.53732 -0.45532,-2.80387 -1.36632,-3.80028 -0.88254,-0.99642 -2.04969,-1.49449 -3.50159,-1.49449 z m 79.47111,0 c -1.4519,0 -2.63348,0.49807 -3.54448,1.49449 -0.88254,0.99641 -1.32395,2.26296 -1.32395,3.80028 0,1.53732 0.44141,2.80439 1.32395,3.8008 0.911,0.99641 2.09258,1.49448 3.54448,1.49448 1.45192,0 2.61906,-0.49807 3.5016,-1.49448 0.911,-0.99641 1.36632,-2.26348 1.36632,-3.8008 0,-1.53732 -0.45532,-2.80387 -1.36632,-3.80028 -0.88254,-0.99642 -2.04968,-1.49449 -3.5016,-1.49449 z m -37.02409,0.17054 c -1.36651,0 -2.50533,0.46974 -3.41633,1.40921 -0.88254,0.93947 -1.32344,2.1777 -1.32344,3.71502 0,1.53732 0.4409,2.77606 1.32344,3.71554 0.911,0.93947 2.04982,1.40921 3.41633,1.40921 1.36651,0 2.49142,-0.46974 3.37395,-1.40921 0.911,-0.93948 1.36633,-2.17822 1.36633,-3.71554 0,-1.53732 -0.45533,-2.77555 -1.36633,-3.71502 -0.88253,-0.93947 -2.00744,-1.40921 -3.37395,-1.40921 z m -95.69804,21.88858 c 1.2811,0 2.43382,0.24157 3.45871,0.72554 1.05334,0.48397 1.83625,1.11029 2.34869,1.87895 v -2.13475 h 6.44818 v 20.02772 c 0,1.90741 -0.31316,3.57263 -0.93947,4.99608 -0.59784,1.42344 -1.4235,2.53393 -2.47685,3.33106 -1.02488,0.797127 -2.16318,1.380697 -3.41582,1.750797 -1.25263,0.39856 -2.60521,0.59789 -4.05711,0.59789 -2.98924,0 -5.43736,-0.7829 -7.34477,-2.348687 -1.87895,-1.53732 -2.90394,-3.48737 -3.07475,-5.85029 h 6.27713 c 0.65479,1.90742 2.09286,2.86081 4.31344,2.86081 1.19568,0 2.20625,-0.38424 3.03185,-1.1529 0.82559,-0.74019 1.23817,-1.82184 1.23817,-3.24528 v -2.51975 c -0.51244,0.76866 -1.29535,1.39499 -2.34869,1.87896 -1.02489,0.48397 -2.17761,0.72605 -3.45871,0.72605 -2.73301,0 -5.08173,-1.03889 -7.04608,-3.11712 -1.96435,-2.1067 -2.94659,-4.65475 -2.94659,-7.64398 0,-2.98923 0.98224,-5.52285 2.94659,-7.60108 1.96435,-2.1067 4.31307,-3.16002 7.04608,-3.16002 z m 26.17722,0 c 2.44833,0 4.38395,0.86789 5.80739,2.60449 v -2.13475 h 6.44819 v 21.35167 h -6.44819 v -2.13527 c -1.42344,1.7366 -3.35906,2.60501 -5.80739,2.60501 -2.76147,0 -5.11019,-1.09607 -7.04609,-3.28817 -1.90741,-2.19211 -2.86132,-4.81123 -2.86132,-7.8574 0,-3.04618 0.95391,-5.6653 2.86132,-7.85741 1.9359,-2.1921 4.28462,-3.28817 7.04609,-3.28817 z m 29.46538,0 c 2.98924,0 5.18137,1.25265 6.57634,3.75791 0.62632,-1.22416 1.5658,-2.14974 2.81844,-2.77606 1.25263,-0.65478 2.50476,-0.98185 3.75739,-0.98185 2.59066,0 4.58399,0.85399 5.97896,2.56212 1.42344,1.70813 2.13476,4.07076 2.13476,7.08846 v 12.17083 h -6.44819 v -11.06031 c 0,-3.27392 -1.02499,-4.91081 -3.07475,-4.91081 -2.44831,0 -3.7293,1.77905 -3.84317,5.33766 v 10.63346 h -6.44819 v -11.06031 c 0,-3.27392 -1.02499,-4.91081 -3.07475,-4.91081 -1.1957,0 -2.13518,0.46974 -2.81843,1.40922 -0.68326,0.911 -1.02474,2.30581 -1.02474,4.18475 v 10.37715 h -6.44819 v -21.35167 h 6.44819 v 2.17765 c 1.36651,-1.76508 3.18882,-2.64739 5.46633,-2.64739 z m 36.34042,0 c 1.56578,0 3.03167,0.27041 4.39818,0.81132 1.39497,0.54091 2.6193,1.32382 3.67264,2.3487 1.08183,1.02488 1.92191,2.3486 2.51975,3.97133 0.59785,1.62273 0.86825,3.45895 0.81132,5.50871 H 278.0714 c 0.11388,1.16722 0.62637,2.14946 1.53737,2.94659 0.911,0.76866 2.19199,1.1529 3.84318,1.1529 0.93948,0 1.79346,-0.18491 2.56212,-0.55501 0.76866,-0.39856 1.28115,-0.88272 1.53737,-1.4521 h 6.74688 c -0.68327,2.24904 -2.04974,4.07084 -4.0995,5.46581 -2.04975,1.39498 -4.41238,2.0929 -7.08845,2.0929 -3.30241,0 -6.02144,-1.05383 -8.15661,-3.16053 -2.10667,-2.1067 -3.16001,-4.78248 -3.16001,-8.02794 0,-3.18851 1.06775,-5.83597 3.2029,-7.94266 2.16363,-2.1067 4.86826,-3.16002 8.11372,-3.16002 z m 23.44404,0 c 2.44832,0 4.48388,0.6119 6.10661,1.83607 1.65119,1.19569 2.56234,2.88975 2.73317,5.08186 h -6.49108 c -0.25622,-1.30957 -1.08188,-1.96474 -2.47685,-1.96474 -1.45191,0 -2.17765,0.45584 -2.17765,1.36684 0,0.79713 0.72574,1.35186 2.17765,1.66501 l 3.88607,1.02526 c 2.13516,0.56938 3.67265,1.39504 4.61212,2.47686 0.93948,1.08181 1.40921,2.49104 1.40921,4.22765 0,1.96435 -0.85397,3.55849 -2.56211,4.78265 -1.70815,1.19569 -3.9147,1.79369 -6.61924,1.79369 -2.84688,0 -5.1956,-0.69792 -7.04608,-2.0929 -1.822,-1.42344 -2.78982,-3.20249 -2.9037,-5.33766 h 6.78977 c 0.0569,0.8256 0.39842,1.46635 1.02474,1.92185 0.62632,0.42703 1.40923,0.64027 2.34869,0.64027 1.59427,0 2.39159,-0.45532 2.39159,-1.36632 0,-0.45551 -0.18491,-0.79751 -0.555,-1.02526 -0.34164,-0.25622 -0.96796,-0.51221 -1.87896,-0.76843 l -4.31343,-1.11053 c -3.58707,-0.93947 -5.38055,-3.17384 -5.38055,-6.70398 0,-1.90742 0.79734,-3.45932 2.39158,-4.65502 1.59427,-1.19569 3.77197,-1.79317 6.53345,-1.79317 z m -23.61509,5.12424 c -1.22417,0 -2.24914,0.31316 -3.07475,0.93947 -0.79712,0.62632 -1.33795,1.45198 -1.62264,2.47686 h 9.13846 c -0.31315,-1.16723 -0.89673,-2.02121 -1.7508,-2.56212 -0.8256,-0.56938 -1.72234,-0.85421 -2.69027,-0.85421 z m -90.40275,0.72605 c -1.33804,0 -2.49128,0.45532 -3.45922,1.36633 -0.96794,0.911 -1.45159,2.09257 -1.45159,3.54448 0,1.45192 0.48365,2.63348 1.45159,3.54449 0.96794,0.911 2.12118,1.36632 3.45922,1.36632 1.33804,0 2.49077,-0.45532 3.4587,-1.36632 0.96795,-0.91101 1.45211,-2.09257 1.45211,-3.54449 0,-1.45191 -0.48416,-2.63348 -1.45211,-3.54448 -0.96793,-0.91101 -2.12066,-1.36633 -3.4587,-1.36633 z m 26.21959,0 c -1.45191,0 -2.63347,0.49807 -3.54449,1.49448 -0.88254,0.99641 -1.32343,2.26349 -1.32343,3.80081 0,1.53732 0.44089,2.80387 1.32343,3.80028 0.91102,0.99641 2.09258,1.49448 3.54449,1.49448 1.45192,0 2.61906,-0.49807 3.50159,-1.49448 0.911,-0.99641 1.36684,-2.26296 1.36684,-3.80028 0,-1.53732 -0.45584,-2.8044 -1.36684,-3.80081 -0.88253,-0.99641 -2.04967,-1.49448 -3.50159,-1.49448 z" /><g
       inkscape:label="Layer 1"
       id="layer1-3"
       transform="matrix(0.58697275,0,0,0.58697275,7.7717831,39.267145)"
       style="stroke-width:1.70366"><g
         id="g3348"
         transform="matrix(0.40752205,0,0,0.40752205,2.8417105,26.25163)"
         style="fill:#ffffff;fill-opacity:1;stroke:none;stroke-width:13.2966;stroke-dasharray:none;stroke-opacity:1"><g
           id="g3290"
           style="fill:#ffffff;fill-opacity:1;stroke:none;stroke-width:13.2966;stroke-dasharray:none;stroke-opacity:1">
	<g
   id="g3288"
   style="fill:#ffffff;fill-opacity:1;stroke:none;stroke-width:13.2966;stroke-dasharray:none;stroke-opacity:1">
		
		
		
		
	</g>
</g><g
           id="g3292"
           style="fill:#ffffff;fill-opacity:1;stroke:none;stroke-width:13.2966;stroke-dasharray:none;stroke-opacity:1">
</g><g
           id="g3294"
           style="fill:#ffffff;fill-opacity:1;stroke:none;stroke-width:13.2966;stroke-dasharray:none;stroke-opacity:1">
</g><g
           id="g3296"
           style="fill:#ffffff;fill-opacity:1;stroke:none;stroke-width:13.2966;stroke-dasharray:none;stroke-opacity:1">
</g><g
           id="g3298"
           style="fill:#ffffff;fill-opacity:1;stroke:none;stroke-width:13.2966;stroke-dasharray:none;stroke-opacity:1">
</g><g
           id="g3300"
           style="fill:#ffffff;fill-opacity:1;stroke:none;stroke-width:13.2966;stroke-dasharray:none;stroke-opacity:1">
</g><g
           id="g3302"
           style="fill:#ffffff;fill-opacity:1;stroke:none;stroke-width:13.2966;stroke-dasharray:none;stroke-opacity:1">
</g><g
           id="g3304"
           style="fill:#ffffff;fill-opacity:1;stroke:none;stroke-width:13.2966;stroke-dasharray:none;stroke-opacity:1">
</g><g
           id="g3306"
           style="fill:#ffffff;fill-opacity:1;stroke:none;stroke-width:13.2966;stroke-dasharray:none;stroke-opacity:1">
</g><g
           id="g3308"
           style="fill:#ffffff;fill-opacity:1;stroke:none;stroke-width:13.2966;stroke-dasharray:none;stroke-opacity:1">
</g><g
           id="g3310"
           style="fill:#ffffff;fill-opacity:1;stroke:none;stroke-width:13.2966;stroke-dasharray:none;stroke-opacity:1">
</g><g
           id="g3312"
           style="fill:#ffffff;fill-opacity:1;stroke:none;stroke-width:13.2966;stroke-dasharray:none;stroke-opacity:1">
</g><g
           id="g3314"
           style="fill:#ffffff;fill-opacity:1;stroke:none;stroke-width:13.2966;stroke-dasharray:none;stroke-opacity:1">
</g><g
           id="g3316"
           style="fill:#ffffff;fill-opacity:1;stroke:none;stroke-width:13.2966;stroke-dasharray:none;stroke-opacity:1">
</g><g
           id="g3318"
           style="fill:#ffffff;fill-opacity:1;stroke:none;stroke-width:13.2966;stroke-dasharray:none;stroke-opacity:1">
</g><g
           id="g3320"
           style="fill:#ffffff;fill-opacity:1;stroke:none;stroke-width:13.2966;stroke-dasharray:none;stroke-opacity:1">
</g></g><g
         aria-label="android games "
         transform="matrix(1.1367479,0,0,1.1367479,-754.85774,-189.11249)"
         id="text4587"
         style="font-size:64px;font-family:'Euclid Circular A';-inkscape-font-specification:'Euclid Circular A';white-space:pre;shape-inside:url(#rect4589);fill:#ffffff;stroke-width:13.2966;stroke-linecap:round;stroke-linejoin:round;paint-order:fill markers stroke" /></g></g></svg>
