<?xml version="1.0" encoding="UTF-8" standalone="no"?>
<!-- Created with Inkscape (http://www.inkscape.org/) -->

<svg
   width="1500"
   height="500"
   viewBox="0 0 396.87498 132.29167"
   version="1.1"
   id="svg5"
   inkscape:version="1.2.2 (732a01da63, 2022-12-09)"
   xml:space="preserve"
   sodipodi:docname="android.svg"
   xmlns:inkscape="http://www.inkscape.org/namespaces/inkscape"
   xmlns:sodipodi="http://sodipodi.sourceforge.net/DTD/sodipodi-0.dtd"
   xmlns="http://www.w3.org/2000/svg"
   xmlns:svg="http://www.w3.org/2000/svg"><sodipodi:namedview
     id="namedview7"
     pagecolor="#000000"
     bordercolor="#111111"
     borderopacity="1"
     inkscape:showpageshadow="0"
     inkscape:pageopacity="0"
     inkscape:pagecheckerboard="1"
     inkscape:deskcolor="#d1d1d1"
     inkscape:document-units="mm"
     showgrid="false"
     inkscape:zoom="0.62760417"
     inkscape:cx="958.40663"
     inkscape:cy="595.91701"
     inkscape:window-width="1920"
     inkscape:window-height="1009"
     inkscape:window-x="-8"
     inkscape:window-y="-8"
     inkscape:window-maximized="1"
     inkscape:current-layer="layer1" /><defs
     id="defs2" /><g
     inkscape:label="Layer 1"
     inkscape:groupmode="layer"
     id="layer1"><path
       id="rect231"
       style="fill:#ffffff;stroke-width:0.8001;stroke-linecap:square;paint-order:fill markers stroke"
       d="M -55.5625,-76.729167 V 209.02083 h 508 V -76.729167 Z m 276.47098,112.6386 c 3.25292,0 5.77277,2.61157 5.77277,5.77278 0,3.25241 -2.51985,5.81773 -5.77277,5.81773 -3.16121,0 -5.81773,-2.61117 -5.81773,-5.81773 0,-3.16121 2.70238,-5.77278 5.81773,-5.77278 z m 90.2007,0.45992 c 0.70023,-0.0817 1.41352,0.26143 1.7911,0.91416 l 8.88783,15.3479 c 6.77999,-3.06949 14.43084,-4.81056 22.53971,-4.81056 8.10887,0 15.71374,1.74069 22.49423,4.85603 l 8.88732,-15.34738 c 0.50394,-0.8703 1.60396,-1.19072 2.47426,-0.68678 0.87031,0.50394 1.19124,1.60295 0.6873,2.47375 l -8.79636,15.16393 c 15.07229,8.20009 25.33447,23.41019 26.80043,41.36854 H 291.6437 c 1.51181,-18.00421 11.81895,-33.21393 26.84539,-41.41401 l -8.74986,-15.16445 c -0.50393,-0.87081 -0.183,-1.96981 0.6873,-2.47375 0.2177,-0.12599 0.44924,-0.20016 0.68265,-0.22738 z m -186.63616,0.0439 h 8.65839 v 59.19018 h -6.23011 c -1.37475,0 -2.47375,-1.09952 -2.47375,-2.47426 v -2.84014 c -2.19919,3.1612 -6.9638,6.09317 -12.64419,6.09317 -10.812,0 -19.0128,-9.25424 -19.0128,-20.52381 0.0459,-11.27008 8.24626,-20.52485 19.05776,-20.52485 5.68089,0 10.40016,2.93247 12.6447,6.09317 z m 139.59097,0 h 8.65838 v 59.19018 h -6.23011 c -1.37474,0 -2.47427,-1.09952 -2.47427,-2.47426 v -2.84014 c -2.19868,3.1612 -6.96328,6.09317 -12.64367,6.09317 -10.812,0 -19.01279,-9.25424 -19.01279,-20.52381 0.0459,-11.27008 8.24677,-20.52485 19.05827,-20.52485 5.68089,0 10.39964,2.93247 12.64419,6.09317 z M 19.012793,55.333573 c 5.680393,0 10.399144,2.93247 12.644189,6.09317 v -5.31389 h 8.65787 v 39.44462 h -6.230111 c -1.374744,0 -2.473751,-1.09951 -2.473751,-2.47375 v -2.84065 c -2.199186,3.20706 -6.917804,6.13916 -12.598197,6.13916 C 8.200796,96.382233 0,87.127993 0,75.858423 0,64.588343 8.200796,55.333573 19.012793,55.333573 Z m 51.859887,0 c 9.1626,0 15.07194,6.46014 15.07194,16.49305 v 23.73085 H 79.714 c -1.37424,0 -2.47375,-1.09951 -2.47375,-2.47375 v -19.83703 c 0,-6.23069 -3.16115,-10.03298 -8.20054,-10.03298 -5.77211,0 -10.16992,4.48973 -10.16992,12.91911 v 19.42465 h -6.23063 c -1.37424,0 -2.47426,-1.09951 -2.47426,-2.47375 v -36.97087 h 8.70489 v 5.35988 c 2.38212,-3.93979 6.87179,-6.13916 12.00289,-6.13916 z m 118.01295,0 c 11.68179,0 20.66179,9.07134 20.66179,20.52485 0,11.453 -8.98,20.52381 -20.66179,20.52381 -11.6823,0 -20.66127,-9.07081 -20.66127,-20.52381 0,-11.45351 8.97897,-20.52485 20.66127,-20.52485 z m -26.84591,0.3669 c 1.0996,0 2.19917,0.0921 3.38998,0.32091 v 8.93331 c -1.51182,-0.45808 -2.74866,-0.73277 -4.35219,-0.73277 -4.99353,0 -9.48315,4.16891 -9.48315,12.09435 v 19.2412 h -6.23062 c -1.37424,0 -2.47375,-1.09951 -2.47375,-2.47375 v -36.97087 h 0.0915 8.65891 v 7.00939 c 1.51181,-4.48958 5.90978,-7.42177 10.39936,-7.42177 z m 54.56256,0.41238 h 8.65839 v 39.44462 h -6.18412 c -1.37474,0 -2.47427,-1.09951 -2.47427,-2.47375 z m -196.031959,7.10086 c -7.009782,0 -11.773959,5.54371 -11.773959,12.64471 0,7.10099 4.718822,12.64418 11.773959,12.64418 7.009278,0 11.773441,-5.54319 11.773441,-12.64418 0,-7.101 -4.718305,-12.64471 -11.773441,-12.64471 z m 92.816039,0 c -7.00928,0 -11.77344,5.54371 -11.77344,12.64471 0,7.10099 4.7183,12.64418 11.77344,12.64418 7.00928,0 11.77396,-5.54319 11.77396,-12.64418 0,-7.101 -4.76468,-12.64471 -11.77396,-12.64471 z m 139.63696,0 c -7.00928,0 -11.77345,5.54371 -11.77345,12.64471 0,7.10099 4.71831,12.64418 11.77345,12.64418 7.00927,0 11.77395,-5.54319 11.77395,-12.64418 0,-7.101 -4.76468,-12.64471 -11.77395,-12.64471 z m -64.13769,0.18293 c -7.00928,0 -11.91142,5.4525 -11.91142,12.46178 0,7.00927 4.90214,12.46073 11.91142,12.46073 6.96342,0 11.81943,-5.45146 11.81943,-12.46073 0,-7.00928 -4.90187,-12.46178 -11.81943,-12.46178 z m 131.20749,8.47597 c -2.42797,0 -4.39818,1.96969 -4.39818,4.39767 0,2.42797 1.97021,4.39818 4.39818,4.39818 2.42798,0 4.39818,-1.97021 4.39818,-4.39818 0,-2.42798 -1.9702,-4.39767 -4.39818,-4.39767 z m 48.42392,0 c -2.42797,0 -4.39818,1.96969 -4.39818,4.39767 0,2.42797 1.97021,4.39818 4.39818,4.39818 2.42798,0 4.39767,-1.97021 4.39767,-4.39818 0,-2.42798 -1.96969,-4.39767 -4.39767,-4.39767 z" /><g
       id="g3021"
       transform="matrix(0.50393882,0,0,0.50393882,55.448105,112.63867)"
       style="stroke-width:0.525031" /></g></svg>
