<?xml version="1.0" encoding="UTF-8" standalone="no"?>
<!-- Created with Inkscape (http://www.inkscape.org/) -->

<svg
   width="1500"
   height="500"
   viewBox="0 0 396.87498 132.29167"
   version="1.1"
   id="svg5"
   inkscape:version="1.2.2 (732a01da63, 2022-12-09)"
   xml:space="preserve"
   sodipodi:docname="apple2.svg"
   xmlns:inkscape="http://www.inkscape.org/namespaces/inkscape"
   xmlns:sodipodi="http://sodipodi.sourceforge.net/DTD/sodipodi-0.dtd"
   xmlns="http://www.w3.org/2000/svg"
   xmlns:svg="http://www.w3.org/2000/svg"><sodipodi:namedview
     id="namedview7"
     pagecolor="#000000"
     bordercolor="#111111"
     borderopacity="1"
     inkscape:showpageshadow="0"
     inkscape:pageopacity="0"
     inkscape:pagecheckerboard="1"
     inkscape:deskcolor="#d1d1d1"
     inkscape:document-units="mm"
     showgrid="false"
     inkscape:zoom="0.62760417"
     inkscape:cx="958.40663"
     inkscape:cy="595.91701"
     inkscape:window-width="1920"
     inkscape:window-height="1009"
     inkscape:window-x="-8"
     inkscape:window-y="-8"
     inkscape:window-maximized="1"
     inkscape:current-layer="layer1" /><defs
     id="defs2"><rect
       x="885.42926"
       y="125.5928"
       width="1014.1619"
       height="408.17661"
       id="rect334" /><rect
       x="863.4505"
       y="210.36795"
       width="850.89124"
       height="436.435"
       id="rect4589" /><rect
       x="885.42926"
       y="125.5928"
       width="1014.1619"
       height="408.17661"
       id="rect334-8" /><path
       id="SVGID_5_"
       d="M 943.9,810.2 C 891,754.5 864.2,690.4 864.2,619.6 c 0,-71.2 25.7,-134.6 76.3,-188.3 15.6,-16.6 32.4,-30.6 50.3,-42.2 -19.3,-25 -96.1,-114 -210.9,-114 -109.3,0 -137.5,65.4 -213.3,65.4 -83.5,0 -111.2,-72.4 -219.6,-72.4 0,0 -321.9,9.6 -321.9,400.2 0,140.9 123.1,551.6 306.2,551.6 91.6,0 80.6,-56.3 200.1,-56.3 118.9,0 98.6,47.6 210.5,47.6 115.7,0 266.3,-159.8 280.2,-341.7 -27.9,-14.1 -54.1,-33.9 -78.2,-59.3 z" /></defs><g
     inkscape:label="Layer 1"
     inkscape:groupmode="layer"
     id="layer1"><path
       id="rect231"
       style="fill:#ffffff;stroke-width:0.8001;stroke-linecap:square;paint-order:fill markers stroke"
       d="M -55.5625,-76.729167 V 209.02083 h 508 V -76.729167 Z M 75.41555,1.3435873 c 0,8.381908 -3.45199,19.9574397 -5.06429,21.5594067 -3.7207,5.591389 -8.54729,10.759039 -18.83089,11.647869 -1.38493,-8.64029 0.95085,-15.854336 5.05395,-21.559408 C 60.68776,7.2863833 67.80879,3.1109193 75.41555,1.3435873 Z M 258.0504,28.680423 h 15.875 v 60.23405 h -15.875 z m 82.02083,0 h 26.00358 v 60.23405 h -26.00358 v -13.60124 h 10.12858 v -33.03158 h -10.12858 z m 29.62093,0 h 26.00358 v 13.60123 h -10.12858 v 33.03158 h 10.12858 v 13.60124 h -26.00358 z m -337.602129,0.37207 c 1.40043,0 2.670667,0.11733 3.838009,0.32194 1.167341,0.20461 2.232148,0.49674 3.221508,0.84749 1.978721,0.70151 3.656497,1.6366 5.253943,2.57194 2.396169,1.40301 4.611499,2.80613 7.389729,3.41995 0.92608,0.2046 1.91436,0.32142 2.9931,0.32142 1.95853,0 3.6095,-0.42206 5.16093,-1.05575 1.55142,-0.63368 3.00356,-1.47898 4.56354,-2.32388 3.11996,-1.68982 6.67247,-3.37964 12.3207,-3.37964 1.48311,0 2.90479,0.14392 4.26123,0.40049 6.78223,1.28283 11.93214,5.38692 14.95723,8.45116 1.21004,1.2257 2.07998,2.28462 2.57866,2.93057 -1.85002,1.1989 -3.58635,2.64584 -5.19865,4.36149 -1.23643,1.31218 -2.30386,2.68973 -3.25149,4.11138 -0.23641,0.35545 -0.4174,0.73089 -0.63562,1.09296 -0.64007,1.05926 -1.22157,2.13984 -1.70583,3.25458 -0.2273,0.52515 -0.41507,1.06388 -0.60772,1.60094 -0.36205,1.00541 -0.66542,2.03049 -0.90537,3.07681 -0.13604,0.59523 -0.26404,1.19291 -0.3607,1.80092 -0.23503,1.476 -0.41828,2.96877 -0.41858,4.51807 3.5e-4,2.09468 0.28986,4.11698 0.74156,6.09421 0.13994,0.61219 0.36623,1.20052 0.54932,1.80092 0.41082,1.34911 0.91134,2.67224 1.53737,3.95893 0.43589,0.89318 0.88332,1.78288 1.42317,2.64532 0.23529,0.37654 0.45734,0.75728 0.71262,1.12758 0.96431,1.39867 2.02782,2.76705 3.27267,4.07778 1.17779,1.24133 2.41198,2.33105 3.68246,3.31246 1.41462,1.08949 2.87626,2.03886 4.39973,2.80603 -2.4e-4,0.003 -7.9e-4,0.007 -0.001,0.01 3.3e-4,1.7e-4 6.9e-4,3.5e-4 0.001,5.2e-4 -6.9e-4,0.009 -0.004,0.0174 -0.005,0.0263 -0.0829,1.1039 -0.21444,2.20782 -0.39843,3.29128 h -0.15658 c -5.7e-4,0.003 -9.7e-4,0.007 -0.002,0.0103 h 0.16847 c -0.0864,0.52498 -0.31803,1.00229 -0.4253,1.52187 -0.14103,0.68287 -0.17314,1.39323 -0.3483,2.06551 -0.29326,1.12556 -0.75951,2.177167 -1.14153,3.267497 -0.28627,0.81689 -0.51771,1.63672 -0.84956,2.43034 -0.1132,0.27114 -0.17373,0.56792 -0.29197,0.83613 -0.92404,2.09604 -1.99919,4.10103 -3.19154,5.98671 -0.0106,0.0168 -0.024,0.0302 -0.0346,0.047 -0.0243,0.0383 -0.0387,0.0848 -0.0631,0.12299 h -0.0103 c -0.1218,0.19094 -0.27995,0.33452 -0.40411,0.52296 -1.25033,1.89614 -2.60945,3.64692 -4.05764,5.25653 -0.5423,0.60335 -1.10357,1.11071 -1.66656,1.66812 -0.6844,0.67766 -1.33423,1.44066 -2.04277,2.04535 -0.45924,0.39193 -0.9433,0.64992 -1.41025,1.00924 -0.64308,0.49522 -1.27041,0.94626 -1.92391,1.37614 -0.44989,0.29624 -0.88457,0.69335 -1.33739,0.95705 -0.77569,0.45172 -1.55123,0.69282 -2.32906,1.04386 -0.68583,0.30952 -1.36273,0.68932 -2.04432,0.91571 -0.28074,0.0935 -0.55368,0.16355 -0.83302,0.24236 -1.40999,0.39723 -2.80669,0.67231 -4.15117,0.67231 -0.003,0 -0.003,-5.1e-4 -0.006,-5.1e-4 -0.001,0 -0.003,5.1e-4 -0.004,5.1e-4 -8.67388,0 -9.66227,-2.76701 -14.79858,-4.15065 -1.71121,-0.46097 -3.88396,-0.76811 -6.95358,-0.76843 -12.342491,0.002 -11.209048,5.81825 -20.674194,5.81825 -0.0014,0 -0.0027,-5.1e-4 -0.0041,-5.1e-4 -0.0024,0 -0.0038,5.1e-4 -0.0062,5.1e-4 -0.01637,0 -0.0317,-0.007 -0.04806,-0.007 -1.069884,-0.005 -2.114958,-0.17099 -3.143994,-0.4346 -0.360524,-0.092 -0.709745,-0.24111 -1.065052,-0.36277 -0.58772,-0.20172 -1.166335,-0.44002 -1.739428,-0.71882 -1.354663,-0.65775 -2.682651,-1.44837 -3.95118,-2.49029 -0.206594,-0.16969 -0.397815,-0.39577 -0.602031,-0.57464 -0.241241,-0.21142 -0.470599,-0.45266 -0.708484,-0.67644 -0.97156,-0.91332 -1.874231,-2.01344 -2.787943,-3.11351 -1.110114,-1.33626 -2.164867,-2.76863 -3.184819,-4.32842 -0.591172,-0.90372 -1.17942,-1.76315 -1.738912,-2.72696 -0.23953,-0.4124 -0.516233,-0.7537 -0.749825,-1.17564 -0.712322,-1.2896 -1.31426,-2.70501 -1.969905,-4.06539 -0.52277,-1.08391 -1.074195,-2.10135 -1.559595,-3.21737 -1.012799,-2.32607 -1.905732,-4.693037 -2.749703,-7.073987 -0.212414,-0.60094 -0.475274,-1.18542 -0.676444,-1.78542 -0.0153,-0.0455 -0.03644,-0.0904 -0.05168,-0.13591 h 0.01189 c -0.0012,-0.004 -0.0019,-0.007 -0.0031,-0.0103 h -0.0088 c -0.995927,-2.98246 -1.838967,-5.92607 -2.545064,-8.74882 -0.235229,-0.94131 -0.361929,-1.74621 -0.563273,-2.65307 -0.368957,-1.65764 -0.783055,-3.37082 -1.036113,-4.87619 -0.03244,-0.19528 -0.01913,-0.30952 -0.04961,-0.50178 -0.450375,-2.81986 -0.725537,-5.36047 -0.725537,-7.33237 0,-2.82721 0.197252,-5.41619 0.500744,-7.87032 0.02234,-0.17875 0.01282,-0.39668 0.03669,-0.57361 0.05002,-0.37253 0.17408,-0.64354 0.230477,-1.00769 0.39843,-2.58608 0.947344,-4.96646 1.637109,-7.14943 0.137979,-0.43689 0.251275,-0.90293 0.399459,-1.32447 0.829089,-2.35776 1.807575,-4.47594 2.908349,-6.38255 0.07132,-0.12355 0.116338,-0.29218 0.188619,-0.41393 h 0.07286 c 0.566189,-0.94918 1.123773,-1.91588 1.742013,-2.75952 2.680384,-3.65762 5.799326,-6.35265 8.918318,-8.338 8.317313,-5.29424 16.634644,-5.54229 16.634644,-5.54229 z m 271.466639,13.30151 h 26.75805 v 13.57023 l -10.59367,15.46159 h -17.9834 l 11.18278,-15.42025 h -8.16487 c -3.02824,0 -5.46737,0.8785 -7.32772,2.6355 -1.86035,1.757 -2.80086,3.98942 -2.80086,6.69727 0,2.86287 0.98185,5.25032 2.94555,7.15201 1.96371,1.91203 4.3615,2.86288 7.18303,2.86288 h 25.54883 v 13.60124 h -26.83041 c -7.15201,0 -13.22917,-2.06707 -18.21077,-6.19084 -5.34334,-4.4235 -8.00985,-10.1906 -8.00985,-17.2806 0,-6.0358 2.61483,-11.38949 7.86515,-16.07137 5.23999,-4.68188 11.3895,-7.01766 18.43816,-7.01766 z m -190.469,0.0103 h 29.40389 v 46.56046 h -15.875 v -32.95923 h -8.76432 c -2.87321,0 -5.25033,0.88884 -7.14168,2.67684 -1.89136,1.77767 -2.83187,4.08244 -2.83187,6.8833 0,2.75952 0.97152,5.08497 2.91455,6.96599 1.94303,1.88102 4.34082,2.82153 7.21403,2.82153 h 4.99194 v 13.60124 h -9.74617 c -5.99446,0 -11.28614,-2.41847 -15.875,-7.24504 -4.5992,-4.82657 -6.89364,-10.25261 -6.89364,-16.29875 0,-6.08747 2.18075,-11.44116 6.54224,-16.07137 4.36148,-4.61987 9.71517,-6.93497 16.06103,-6.93497 z m 34.31315,0 h 29.93099 c 6.09781,0 11.32748,2.30477 15.67863,6.90397 4.36149,4.59919 6.54224,10.20093 6.54224,16.7845 0,6.3872 -2.19109,11.79257 -6.57324,16.2264 -4.38216,4.4235 -9.70485,6.64559 -15.94735,6.64559 h -10.12858 v -13.61153 h 4.53719 c 3.02823,0 5.57072,-0.8475 7.63777,-2.56315 2.06706,-1.70532 3.10059,-3.91708 3.10059,-6.62492 0,-2.61483 -0.98185,-4.9196 -2.94556,-6.92464 -2.11873,-2.16008 -4.71289,-3.23495 -7.78247,-3.23495 h -8.16487 v 46.560467 h -15.88534 z m 55.32479,0 h 29.93099 c 6.09781,0 11.32748,2.30477 15.67863,6.90397 4.36149,4.59919 6.54224,10.20093 6.54224,16.7845 0,6.3872 -2.19109,11.79257 -6.57325,16.2264 -4.38215,4.4235 -9.70484,6.64559 -15.94734,6.64559 H 222.2283 v -13.61153 h 4.53719 c 3.02823,0 5.57072,-0.8475 7.63777,-2.56315 2.06706,-1.70532 3.10059,-3.91708 3.10059,-6.62492 0,-2.61483 -0.98185,-4.9196 -2.94556,-6.92464 -2.11873,-2.16008 -4.71289,-3.23495 -7.78247,-3.23495 h -8.16487 v 46.560467 h -15.88534 z" /><g
       id="g3288"
       transform="matrix(0.10335286,0,0,0.10335286,51.789249,78.072999)"
       style="stroke-width:2.56" /></g></svg>
