<?xml version="1.0" encoding="UTF-8" standalone="no"?>
<!-- Created with Inkscape (http://www.inkscape.org/) -->

<svg
   width="1500"
   height="500"
   viewBox="0 0 396.87498 132.29167"
   version="1.1"
   id="svg5"
   inkscape:version="1.2.2 (732a01da63, 2022-12-09)"
   xml:space="preserve"
   sodipodi:docname="apple2gs.svg"
   xmlns:inkscape="http://www.inkscape.org/namespaces/inkscape"
   xmlns:sodipodi="http://sodipodi.sourceforge.net/DTD/sodipodi-0.dtd"
   xmlns="http://www.w3.org/2000/svg"
   xmlns:svg="http://www.w3.org/2000/svg"><sodipodi:namedview
     id="namedview7"
     pagecolor="#000000"
     bordercolor="#111111"
     borderopacity="1"
     inkscape:showpageshadow="0"
     inkscape:pageopacity="0"
     inkscape:pagecheckerboard="1"
     inkscape:deskcolor="#d1d1d1"
     inkscape:document-units="mm"
     showgrid="false"
     inkscape:zoom="0.62760417"
     inkscape:cx="958.40663"
     inkscape:cy="595.91701"
     inkscape:window-width="1920"
     inkscape:window-height="1009"
     inkscape:window-x="-8"
     inkscape:window-y="-8"
     inkscape:window-maximized="1"
     inkscape:current-layer="layer1" /><defs
     id="defs2"><rect
       x="885.42926"
       y="125.5928"
       width="1014.1619"
       height="408.17661"
       id="rect334" /><rect
       x="863.4505"
       y="210.36795"
       width="850.89124"
       height="436.435"
       id="rect4589" /><rect
       x="885.42926"
       y="125.5928"
       width="1014.1619"
       height="408.17661"
       id="rect334-8" /><path
       id="SVGID_5_"
       d="M 943.9,810.2 C 891,754.5 864.2,690.4 864.2,619.6 c 0,-71.2 25.7,-134.6 76.3,-188.3 15.6,-16.6 32.4,-30.6 50.3,-42.2 -19.3,-25 -96.1,-114 -210.9,-114 -109.3,0 -137.5,65.4 -213.3,65.4 -83.5,0 -111.2,-72.4 -219.6,-72.4 0,0 -321.9,9.6 -321.9,400.2 0,140.9 123.1,551.6 306.2,551.6 91.6,0 80.6,-56.3 200.1,-56.3 118.9,0 98.6,47.6 210.5,47.6 115.7,0 266.3,-159.8 280.2,-341.7 -27.9,-14.1 -54.1,-33.9 -78.2,-59.3 z" /></defs><g
     inkscape:label="Layer 1"
     inkscape:groupmode="layer"
     id="layer1"><path
       id="rect231"
       style="fill:#ffffff;stroke-width:0.8001;stroke-linecap:square;paint-order:fill markers stroke"
       d="M -55.5625,-76.729167 V 209.02083 h 508 V -76.729167 Z M 65.67609,12.404927 c 0.95961,6.481624 -1.68771,12.820446 -5.16867,17.310056 -3.73275,4.80965 -10.16106,8.53575 -16.37523,8.34161 -1.134032,-6.199 1.77918,-12.58119 5.30717,-16.884242 3.88847,-4.736844 10.54534,-8.375594 16.23673,-8.767424 z m 2.10582,24.960746 c 7.24607,0 14.92885,3.96261 20.40082,10.81381 -1.40047,0.76597 -2.72255,1.66747 -3.9486,2.68976 h 0.45114 c -4.37181,3.71708 -7.13005,8.60565 -7.95972,13.7232 h -0.29921 c -0.74473,4.58264 -0.12011,9.35155 1.7632,13.61415 l -77.493458,-0.003 C -0.049659,73.426203 -0.17,68.820203 0.298173,64.594503 H 0 c 0.434299,-4.67769 2.070253,-10.01033 4.435388,-13.73094 h 0.363286 l 0.02015,-0.031 c 5.491685,-8.49082 14.154443,-13.46016 22.300965,-13.46016 8.295164,0 13.509945,4.56665 20.366721,4.56665 6.65302,0 10.70492,-4.57337 20.2954,-4.57337 z m 171.5549,1.35444 c 0.46767,0 0.7607,0.14814 0.8785,0.4439 0.1178,0.29678 0.17777,0.71045 0.17777,1.24334 0,0.77001 -0.0443,1.65781 -0.13333,2.66444 -0.089,1.00713 -0.13332,2.13123 -0.13332,3.37447 v 47.15474 h 0.002 c 0,1.95359 0.56129,3.19712 1.68723,3.73001 0.47323,0.23712 0.94636,0.37013 1.4211,0.39946 0.47374,0.0308 0.9015,0.0747 1.28726,0.13332 0.38475,0.0597 0.69565,0.19318 0.93328,0.39946 0.2356,0.2083 0.3545,0.57764 0.3545,1.11053 0,0.829657 -0.59254,1.242807 -1.77612,1.242807 -1.00713,0 -2.15927,-0.0887 -3.45509,-0.26613 -1.29582,-0.17797 -2.67506,-0.26665 -4.13773,-0.26665 -1.5208,0 -2.88595,0.0892 -4.09329,0.26665 -1.20886,0.17797 -2.22696,0.26613 -3.05511,0.26613 -1.06578,0 -1.59887,-0.47363 -1.59887,-1.421097 0,-0.82865 0.29577,-1.24333 0.88832,-1.24333 0.65069,0 1.44981,-0.17786 2.39779,-0.53279 0.82865,-0.29577 1.33199,-0.69533 1.50895,-1.19889 0.17797,-0.50255 0.26665,-1.19838 0.26665,-2.08669 v -46.17755 c 0,-0.769 -0.19298,-1.33231 -0.57723,-1.68723 -0.38475,-0.35442 -0.83826,-0.62601 -1.33222,-0.79892 -0.45199,-0.15724 -0.8964,-0.33562 -1.33221,-0.5333 -0.38577,-0.17797 -0.57775,-0.44401 -0.57775,-0.79944 0,-0.65069 0.40007,-1.07895 1.1989,-1.28726 0.79933,-0.20678 1.73039,-0.51767 2.79414,-0.93276 2.04813,-0.76899 3.55343,-1.49404 4.51911,-2.17557 0.96567,-0.68002 1.59397,-1.02165 1.8867,-1.02165 z m -112.33991,4.08554 c 0.65069,0 1.06537,0.38596 1.24333,1.15445 0.17797,0.77001 0.47324,1.77674 0.88832,3.01997 l 13.40642,42.26978 c 0.65069,2.0729 1.24323,3.72958 1.77612,4.97282 0.53289,1.24324 1.39046,2.25046 2.57555,3.01945 0.82866,0.59255 1.58344,0.93215 2.26446,1.02113 0.68052,0.089 1.02216,0.39987 1.02216,0.93276 0,0.829667 -0.62176,1.243327 -1.865,1.243327 -0.77001,0 -1.76159,-0.0892 -2.9745,-0.26665 -1.21391,-0.177457 -2.70835,-0.265607 -4.48448,-0.265607 -2.48647,0 -4.48478,0.074 -5.99446,0.221167 -1.50918,0.14864 -2.56073,0.22221 -3.15226,0.22221 -1.00713,0 -1.50947,-0.355217 -1.50947,-1.065567 0,-0.94646 0.59102,-1.4211 1.77612,-1.4211 1.47934,0 2.45582,-0.14712 2.93057,-0.4439 0.47373,-0.29577 0.71055,-0.85758 0.71055,-1.68775 0,-0.76849 -0.26604,-2.10018 -0.79944,-3.99562 l -3.46335,-11.36624 c -0.11932,-0.47322 -0.56322,-0.71055 -1.33222,-0.71055 h -11.01121 c -0.17797,0 -0.37045,0.0746 -0.57723,0.2217 -0.20021,0.1365 -0.34284,0.34264 -0.39998,0.57774 l -2.13113,7.90339 c -0.88832,3.49361 -1.33222,5.77204 -1.33222,6.83731 0,0.88832 0.17786,1.48086 0.53278,1.77612 0.35493,0.29728 0.94645,0.50437 1.77612,0.62167 1.18358,0.17796 2.07189,0.38605 2.66444,0.62115 0.59103,0.23762 0.88832,0.68153 0.88832,1.33222 0,0.710347 -0.50386,1.065557 -1.50947,1.065557 -0.65221,0 -1.62919,-0.0887 -2.93057,-0.26613 -1.3029,-0.17797 -2.90165,-0.26665 -4.79557,-0.26665 -1.3029,0 -2.44161,0.0751 -3.4184,0.22221 -0.9773,0.14712 -1.79002,0.22169 -2.44223,0.22169 -1.06578,0 -1.59887,-0.38443 -1.59887,-1.153927 0,-0.47374 0.14865,-0.78464 0.44442,-0.93328 0.29678,-0.14713 0.6656,-0.25091 1.11001,-0.31006 0.47323,-0.0617 0.94685,-0.12166 1.42058,-0.17828 0.50256,-0.0582 0.99131,-0.26623 1.46555,-0.62115 0.82866,-0.59103 1.4499,-1.435 1.86448,-2.53112 0.41357,-1.09459 0.85748,-2.44191 1.33222,-4.04058 l 14.11955,-45.822 c 0.23611,-0.65069 0.42909,-1.16815 0.57723,-1.55391 0.14713,-0.38425 0.45801,-0.57775 0.93276,-0.57775 z m 166.24257,3.37499 c 0.47322,0 1.42098,0.11941 2.84168,0.35502 1.42121,0.23762 3.40339,0.35553 5.95003,0.35553 2.54462,0 4.52882,-0.11791 5.95002,-0.35553 1.42121,-0.23561 2.36694,-0.35502 2.84169,-0.35502 0.24209,0 0.44455,0.0376 0.62063,0.0992 0.17624,-0.0617 0.37873,-0.0992 0.62115,-0.0992 0.47323,0 1.42099,0.11941 2.84169,0.35502 1.4212,0.23762 3.40338,0.35553 5.95002,0.35553 2.54462,0 4.52831,-0.11791 5.94951,-0.35553 1.42121,-0.23561 2.36746,-0.35502 2.84221,-0.35502 0.88781,0 1.3317,0.41468 1.3317,1.24334 0,0.41458 -0.0887,0.69675 -0.26614,0.84387 -0.17796,0.14814 -0.44349,0.25243 -0.79891,0.31058 -0.35493,0.0597 -0.77011,0.104 -1.24334,0.13332 -0.47424,0.0308 -0.97708,0.10388 -1.50947,0.22118 -1.12594,0.23762 -1.79153,0.63719 -1.99781,1.19941 -0.2083,0.56322 -0.31109,1.5538 -0.31109,2.97501 l -5.2e-4,40.6709 c 0,0.94798 0.0136,1.71737 0.0444,2.3089 0.0293,0.59255 0.11801,1.08077 0.26665,1.46451 0.13854,0.37464 0.38545,0.70021 0.71004,0.93328 0.32459,0.23712 0.78411,0.44369 1.37666,0.62115 0.53339,0.17797 1.03523,0.26614 1.50947,0.26614 0.47323,0 0.88841,0.0307 1.24333,0.0889 0.35492,0.0597 0.63558,0.19319 0.84388,0.39997 0.20628,0.207797 0.31006,0.547897 0.31006,1.021127 0,0.83017 -0.62125,1.24334 -1.86449,1.24334 -0.53289,0 -1.49525,-0.0892 -2.88561,-0.26665 -1.39188,-0.17747 -3.24155,-0.26562 -5.55057,-0.26562 -2.30901,0 -4.1607,0.0887 -5.55056,0.26562 -1.39188,0.17796 -2.35324,0.26665 -2.88613,0.26665 -0.38355,0 -0.68721,-0.0608 -0.9524,-0.1509 -0.27436,0.0895 -0.59107,0.1509 -0.99994,0.1509 -0.53288,0 -1.49524,-0.0892 -2.88561,-0.26665 -1.39188,-0.17747 -3.24155,-0.26562 -5.55056,-0.26562 -2.30902,0 -4.16019,0.0887 -5.55005,0.26562 -1.39188,0.17796 -2.35376,0.26665 -2.88665,0.26665 -1.24324,0 -1.86448,-0.47313 -1.86448,-1.42111 0,-0.41306 0.10279,-0.710337 0.31109,-0.887797 0.20628,-0.17796 0.47332,-0.29587 0.79892,-0.35553 0.36655,-0.0622 0.73789,-0.0919 1.11001,-0.0889 0.41306,0 0.82824,-0.0585 1.24333,-0.17777 0.70985,-0.17797 1.25703,-0.38454 1.6428,-0.62115 0.38424,-0.23611 0.66539,-0.547 0.84335,-0.93276 0.17747,-0.38425 0.28024,-0.8881 0.31058,-1.50947 0.0293,-0.62137 0.0444,-1.40537 0.0444,-2.35334 v -40.67039 c 0,-1.42121 -0.10378,-2.38258 -0.31006,-2.88665 -0.2083,-0.50204 -0.75499,-0.90109 -1.64331,-1.19837 -0.59255,-0.17746 -1.15434,-0.26614 -1.68723,-0.26614 -0.47424,0 -0.90353,-0.0292 -1.28778,-0.0889 -0.38576,-0.0581 -0.68153,-0.16245 -0.88832,-0.31109 -0.20779,-0.14662 -0.31057,-0.4575 -0.31057,-0.93224 0,-0.82866 0.4439,-1.24334 1.33222,-1.24334 z m 18.11,2.32957 c -0.0852,0.0233 -0.16081,0.052 -0.25993,0.0682 -0.35492,0.0597 -0.77011,0.104 -1.24334,0.13332 -0.47424,0.0308 -0.97657,0.10388 -1.50895,0.22118 -1.12594,0.23762 -1.79205,0.63719 -1.99833,1.19941 -0.2083,0.56322 -0.31109,1.5538 -0.31109,2.97501 l -5.1e-4,40.6709 c 0,0.94798 0.0136,1.71737 0.0444,2.3089 0.0293,0.59255 0.118,1.08077 0.26665,1.46451 0.13853,0.37464 0.38596,0.70021 0.71055,0.93328 0.32459,0.23712 0.78359,0.44369 1.37614,0.62115 0.5334,0.17797 1.03523,0.26614 1.50947,0.26614 0.47323,0 0.88841,0.0307 1.24334,0.0889 0.0901,0.0152 0.16176,0.0487 0.24236,0.0734 0.0807,-0.0253 0.15479,-0.057 0.24443,-0.0734 0.36655,-0.0622 0.73841,-0.0919 1.11052,-0.0889 0.41307,0 0.82825,-0.0585 1.24334,-0.17777 0.70984,-0.17797 1.25651,-0.38454 1.64228,-0.62115 0.38424,-0.23611 0.66591,-0.547 0.84387,-0.93276 0.17746,-0.38425 0.28024,-0.8881 0.31058,-1.50947 0.0293,-0.62137 0.0444,-1.40537 0.0444,-2.35334 v -40.67039 c 0,-1.42121 -0.1043,-2.38258 -0.31058,-2.88665 -0.2083,-0.50204 -0.75447,-0.90109 -1.64279,-1.19837 -0.59255,-0.17746 -1.15435,-0.26614 -1.68724,-0.26614 -0.47424,0 -0.90353,-0.0292 -1.28777,-0.0889 -0.22892,-0.0345 -0.41613,-0.0905 -0.58188,-0.1571 z m -187.10796,9.92498 c -0.23712,0 -0.41447,0.23731 -0.53278,0.71003 l -4.17391,15.71842 c -0.0546,0.20274 -0.0843,0.41134 -0.0889,0.62115 v 0.26614 c 0,0.35543 0.20709,0.5333 0.62167,0.5333 h 8.88007 c 0.17797,0 0.35482,-0.0736 0.53279,-0.22169 0.17797,-0.14713 0.26665,-0.31088 0.26665,-0.48834 0,-0.11781 -0.06,-0.41358 -0.17828,-0.88832 l -4.79506,-15.45177 c -0.17696,-0.53188 -0.3543,-0.79892 -0.53227,-0.79892 z m 226.91535,0.863 c 1.15577,0 2.24739,0.0779 3.27525,0.23357 1.02685,0.15572 1.95787,0.35473 2.7926,0.59893 0.83422,0.24471 1.54135,0.50964 2.11873,0.79479 0.57839,0.28464 0.97317,0.55602 1.18804,0.81235 0.51418,0.51418 0.7705,2.59035 0.7705,6.22804 0,1.19875 -0.27894,1.79783 -0.83458,1.79783 -0.47171,0 -0.80267,-0.28873 -0.9958,-0.86662 -0.19263,-0.57839 -0.46025,-1.29432 -0.80254,-2.15129 -1.49906,-3.76611 -4.13159,-5.6503 -7.89771,-5.6503 -1.84134,0 -3.54233,0.48122 -5.10459,1.44436 -1.56328,0.96314 -2.9215,2.33369 -4.07727,4.10931 -1.15578,1.77714 -2.0544,3.91714 -2.697,6.42131 -0.64209,2.50417 -0.96273,5.29727 -0.96273,8.37882 0,2.8687 0.33095,5.45851 0.99529,7.76955 0.66333,2.31154 1.56245,4.29198 2.69699,5.93969 1.13353,1.64821 2.46084,2.921 3.98064,3.82044 1.51929,0.89843 3.13535,1.348747 4.84828,1.348747 1.24071,0 2.22527,-0.17194 2.95383,-0.516237 0.72703,-0.3433 1.28389,-0.82665 1.66914,-1.44953 0.38526,-0.62288 0.63129,-1.36463 0.73898,-2.22312 0.10617,-0.85849 0.16019,-1.80408 0.16019,-2.83497 v -7.60418 c 0,-1.11685 -0.0962,-1.8473 -0.28887,-2.1916 -0.19263,-0.3433 -0.71759,-0.6228 -1.57354,-0.83768 -0.41408,-0.0774 -0.83147,-0.13087 -1.25161,-0.16019 -0.32256,-0.0162 -0.64372,-0.0486 -0.96325,-0.0961 -0.27908,-0.042 -0.49268,-0.11709 -0.64233,-0.22428 -0.15016,-0.10617 -0.2248,-0.30997 -0.2248,-0.60978 0,-0.59963 0.36388,-0.89917 1.09193,-0.89917 0.42772,0 1.18788,0.0864 2.27944,0.25683 1.09157,0.1719 2.55734,0.25683 4.39818,0.25683 2.05471,0 3.61622,-0.0849 4.68706,-0.25683 1.06982,-0.17038 1.75484,-0.25683 2.05465,-0.25683 0.6426,0 0.96325,0.27893 0.96325,0.83457 0,0.29982 -0.0751,0.51392 -0.22428,0.64234 -0.15066,0.12842 -0.34316,0.21487 -0.57825,0.25683 -0.27605,0.048 -0.55499,0.0805 -0.83458,0.0961 -0.32155,0.0222 -0.67411,0.0753 -1.05937,0.1602 -0.77051,0.1719 -1.25275,0.43953 -1.44487,0.80305 -0.19263,0.36453 -0.28887,1.10257 -0.28887,2.21537 v 9.75961 c 0,0.98488 -0.33196,1.89431 -0.99529,2.72903 -0.66383,0.83473 -1.57274,1.54085 -2.72851,2.118737 -1.15578,0.57788 -2.4944,1.02668 -4.01268,1.34824 -1.5203,0.32104 -3.13636,0.48162 -4.84828,0.48162 -2.65484,0 -5.10466,-0.51364 -7.35149,-1.54099 -2.24733,-1.027347 -4.17425,-2.450417 -5.77949,-4.270027 -1.60524,-1.8191 -2.85692,-3.99151 -3.75636,-6.51743 -0.89843,-2.5254 -1.34876,-5.28608 -1.34876,-8.2827 0,-3.21098 0.50285,-6.17497 1.50947,-8.89351 1.00511,-2.71803 2.38595,-5.06183 4.14135,-7.03109 1.75489,-1.96825 3.85164,-3.50917 6.29161,-4.62298 2.43996,-1.1128 5.09411,-1.66966 7.9623,-1.66966 z m 35.76526,0 c 1.79787,0 3.39179,0.25356 4.78317,0.76016 1.39087,0.50761 2.23698,0.96017 2.5368,1.35857 0.34228,0.42874 0.51418,2.76123 0.51418,6.99906 0,0.89893 -0.27945,1.34823 -0.83509,1.34823 -0.47172,0 -0.78156,-0.28872 -0.93121,-0.86661 -0.15016,-0.57839 -0.46,-1.42247 -0.9307,-2.53628 -0.68507,-1.71192 -1.43493,-3.01814 -2.2474,-3.91707 -0.81349,-0.89894 -1.96994,-1.34824 -3.46749,-1.34824 -1.92629,0 -3.43478,0.58715 -4.52634,1.76062 -1.09156,1.17397 -1.63711,2.78411 -1.63711,4.83174 0,1.70787 0.48121,3.09419 1.44435,4.16047 0.96315,1.0673 2.47266,2.13404 4.52686,3.20032 1.71192,0.89691 3.23174,1.79283 4.55941,2.68873 1.32616,0.89691 2.44967,1.88905 3.37034,2.97708 0.91865,1.0865 1.62662,2.33452 2.08721,3.68039 0.4707,1.36559 0.7059,2.94486 0.7059,4.73666 0,1.87826 -0.31084,3.60576 -0.93069,5.18522 -0.62137,1.57894 -1.47726,2.94467 -2.56832,4.0969 -1.09156,1.15123 -2.39829,2.057907 -3.91707,2.719217 -1.5203,0.66131 -3.17858,0.9927 -4.97645,0.9927 -2.82521,0 -5.11548,-0.44982 -6.87038,-1.34875 -1.7559,-0.898937 -2.63239,-2.267957 -2.63239,-4.109307 0,-0.72704 0.0211,-1.43367 0.0641,-2.11874 0.042,-0.68456 0.0641,-1.32636 0.0641,-1.92649 0,-0.4707 -0.0103,-0.84488 -0.0315,-1.12397 -0.0222,-0.27807 -0.032,-0.45923 -0.032,-0.54518 0,-1.32666 0.32115,-1.99109 0.96325,-1.99109 0.2988,0 0.5134,0.11835 0.64182,0.35295 0.12842,0.2361 0.22466,0.55726 0.28887,0.96324 0.0642,0.40751 0.13834,0.88872 0.22479,1.44436 0.0849,0.55716 0.21361,1.13462 0.38551,1.73374 0.6421,2.18313 1.67917,3.87483 3.11402,5.07256 1.43385,1.19875 2.96345,1.798337 4.59094,1.798337 0.94089,0 1.84002,-0.19302 2.69699,-0.579287 0.84231,-0.37565 1.59652,-0.92359 2.21485,-1.60765 0.62036,-0.68609 1.11289,-1.50086 1.47691,-2.44378 0.36352,-0.94292 0.54571,-1.97132 0.54571,-3.08715 0,-1.97179 -0.60988,-3.73981 -1.82986,-5.3051 -1.21999,-1.5653 -3.04963,-3.03326 -5.48959,-4.40542 -1.21897,-0.69013 -2.42844,-1.39733 -3.62769,-2.12183 -1.13504,-0.68609 -2.11911,-1.47875 -2.95434,-2.3797 -0.83422,-0.89995 -1.49864,-1.97158 -1.99058,-3.21583 -0.49294,-1.24273 -0.73845,-2.80795 -0.73845,-4.6948 -10e-4,-1.67147 0.26609,-3.1914 0.80202,-4.56407 0.53491,-1.37266 1.29405,-2.55136 2.27944,-3.53776 0.98388,-0.98489 2.17224,-1.74663 3.56361,-2.28255 1.39087,-0.53592 2.96371,-0.8046 4.71961,-0.8046 z m -228.40156,0.11368 c 0.59103,0 0.8878,0.62125 0.8878,1.86449 v 4.35219 h -5.2e-4 c 0,0.41458 0.0887,0.62167 0.26613,0.62167 0.17747,0 0.41327,-0.14714 0.71056,-0.44442 l 0.8878,-1.06557 c 1.539,-1.77613 3.10803,-3.064 4.7072,-3.86333 1.59816,-0.79883 3.343,-1.19838 5.23844,-1.19838 1.95359,0 3.81887,0.47414 5.59449,1.42111 1.77613,0.94747 3.31543,2.27966 4.61833,3.99562 1.30138,1.71798 2.33781,3.81856 3.10782,6.30504 0.76899,2.48648 1.15393,5.23956 1.15393,8.25893 0,3.31665 -0.44706,6.33526 -1.3379,9.05784 -0.89085,2.7236 -2.13765,5.07661 -3.74138,7.05952 -1.60422,1.98443 -3.50419,3.52373 -5.70197,4.618317 -2.19779,1.0946 -4.634,1.6428 -7.30653,1.6428 -2.79135,0 -5.37674,-0.68172 -7.75198,-2.042257 l -0.35657,0.266137 -0.0873,12.60956 c 0,1.06527 0.0871,1.8649 0.26459,2.39779 0.17746,0.53289 0.62136,0.94604 1.33222,1.24282 0.59103,0.29577 1.16845,0.47364 1.73167,0.5333 0.56171,0.0581 1.03483,0.1176 1.42059,0.17777 0.38475,0.0581 0.69565,0.17806 0.93328,0.35501 0.2361,0.17797 0.3545,0.53319 0.3545,1.06557 0,0.82815 -0.62125,1.24334 -1.86449,1.24334 -1.1851,0 -2.43897,-0.0892 -3.76411,-0.26665 -1.32666,-0.17797 -2.74869,-0.26562 -4.26899,-0.26562 -1.5203,0 -2.87137,0.0881 -4.0504,0.26562 -1.17953,0.17796 -2.18407,0.26665 -3.01222,0.26665 -1.06578,0 -1.59887,-0.47414 -1.59887,-1.42111 0,-0.83017 0.325,-1.24333 0.9772,-1.24333 0.65069,0 1.4211,-0.17786 2.30891,-0.53279 0.76899,-0.29728 1.28745,-0.71044 1.55339,-1.24333 0.26644,-0.53289 0.39997,-1.39197 0.39997,-2.57555 V 72.731473 c 0,-1.59816 -0.20808,-2.66381 -0.62115,-3.1967 -0.41508,-0.53289 -0.8741,-0.87248 -1.37666,-1.02113 -0.50356,-0.14712 -0.96258,-0.23631 -1.37666,-0.26665 -0.41458,-0.0293 -0.62166,-0.33969 -0.62166,-0.93224 0,-0.71035 0.45801,-1.22832 1.37666,-1.55443 0.91713,-0.32458 2.05635,-0.96095 3.41891,-1.90892 1.71697,-1.18358 2.95948,-2.22001 3.72949,-3.10782 0.769,-0.88781 1.39077,-1.33171 1.86552,-1.33171 z m 40.40477,0 c 0.59103,0 0.8878,0.62125 0.8878,1.86449 v 4.35219 h -5.2e-4 c 0,0.41458 0.0892,0.62167 0.26665,0.62167 0.17746,0 0.41275,-0.14714 0.71003,-0.44442 l 0.88781,-1.06557 c 1.539,-1.77613 3.10803,-3.064 4.7072,-3.86333 1.59816,-0.79883 3.34351,-1.19838 5.23896,-1.19838 1.95359,0 3.81887,0.47414 5.59449,1.42111 1.77613,0.94747 3.31491,2.27966 4.61781,3.99562 1.30138,1.71798 2.33781,3.81856 3.10782,6.30504 0.76899,2.48648 1.15445,5.23956 1.15445,8.25893 0,3.31665 -0.44706,6.33526 -1.33791,9.05784 -0.89084,2.7236 -2.13816,5.07661 -3.74189,7.05952 -1.60422,1.98443 -3.50367,3.52373 -5.70146,4.618317 -2.19778,1.0946 -4.634,1.6428 -7.30653,1.6428 -2.79134,0 -5.37725,-0.68172 -7.7525,-2.042257 l -0.35656,0.266137 -0.0873,12.60956 c 0,1.06527 0.0876,1.8649 0.2651,2.39779 0.17746,0.53289 0.62137,0.94604 1.33222,1.24282 0.59103,0.29577 1.16846,0.47364 1.73168,0.5333 0.56171,0.0581 1.03482,0.1176 1.42058,0.17777 0.38476,0.0581 0.69514,0.17806 0.93276,0.35501 0.23611,0.17797 0.35502,0.53319 0.35502,1.06557 0,0.82815 -0.62125,1.24334 -1.86448,1.24334 -1.1851,0 -2.43897,-0.0892 -3.76412,-0.26665 -1.32666,-0.17797 -2.7492,-0.26562 -4.2695,-0.26562 -1.5203,0 -2.87086,0.0881 -4.04988,0.26562 -1.17954,0.17796 -2.18459,0.26665 -3.01274,0.26665 -1.06578,0 -1.59835,-0.47414 -1.59835,-1.42111 0,-0.83017 0.32499,-1.24333 0.9772,-1.24333 0.65069,0 1.42057,-0.17786 2.30838,-0.53279 0.769,-0.29728 1.28798,-0.71044 1.55391,-1.24333 0.26645,-0.53289 0.39998,-1.39197 0.39998,-2.57555 V 72.731473 c 0,-1.59816 -0.2086,-2.66381 -0.62167,-3.1967 -0.41508,-0.53289 -0.8741,-0.87248 -1.37666,-1.02113 -0.50356,-0.14712 -0.96258,-0.23631 -1.37666,-0.26665 -0.41458,-0.0293 -0.62115,-0.33969 -0.62115,-0.93224 0,-0.71035 0.45801,-1.22832 1.37666,-1.55443 0.91714,-0.32458 2.05584,-0.96095 3.4184,-1.90892 1.71697,-1.18358 2.95999,-2.22001 3.73,-3.10782 0.769,-0.88781 1.39026,-1.33171 1.86501,-1.33171 z m 65.00275,0.2651 c 2.13155,0 4.08502,0.37033 5.86165,1.1095 1.77613,0.74119 3.28517,1.73229 4.52841,2.97553 1.24324,1.24323 2.2046,2.69434 2.88613,4.35115 0.68001,1.65782 1.02164,3.43391 1.02164,5.32784 0,0.77001 -0.23732,1.27387 -0.71055,1.50947 -0.47424,0.23712 -1.24311,0.35502 -2.30839,0.35502 h -19.6267 v 0.002 c -0.47425,0 -0.7695,0.0892 -0.88781,0.26666 -0.11931,0.17746 -0.17776,0.5629 -0.17776,1.15393 v 2.13114 c 0,5.50634 1.16844,9.85767 3.50779,13.0545 2.33834,3.19632 5.37309,4.79505 9.10281,4.79505 1.6563,0 3.09229,-0.26654 4.30671,-0.79943 1.2124,-0.53289 2.22012,-1.12391 3.01945,-1.77612 0.79934,-0.65069 1.42109,-1.24323 1.86449,-1.77612 0.4434,-0.53289 0.75531,-0.79943 0.93328,-0.79943 0.47323,0 0.70951,0.32651 0.70951,0.9772 0,0.6517 -0.3547,1.50926 -1.06505,2.57503 -0.71035,1.06578 -1.73167,2.11733 -3.06389,3.15227 -1.33222,1.03695 -2.91685,1.939867 -4.75062,2.708357 -1.83578,0.769 -3.90765,1.15445 -6.21616,1.15445 -2.42833,0 -4.63322,-0.48822 -6.61613,-1.46451 -1.98392,-0.977297 -3.68546,-2.383077 -5.10666,-4.218857 -1.4207,-1.83427 -2.51658,-4.05427 -3.28507,-6.66006 -0.77001,-2.60428 -1.15446,-5.53472 -1.15446,-8.79171 0,-3.25497 0.42879,-6.20104 1.28778,-8.83616 0.85697,-2.6336 2.05564,-4.86871 3.59616,-6.7045 1.5385,-1.83427 3.35946,-3.25515 5.46169,-4.26279 2.10071,-1.00612 4.39527,-1.50947 6.88175,-1.50947 z m -0.001,2.04381 c -2.07341,0 -3.87822,0.79962 -5.41672,2.39778 -1.54052,1.59816 -2.54624,3.61157 -3.01997,6.03788 l -0.26562,1.42162 v 0.17776 c 0,0.53289 0.3547,0.79944 1.06505,0.79944 h 5.77226 c 2.90005,0 5.0183,-0.325 6.35052,-0.9772 1.33222,-0.65069 1.99781,-1.95368 1.99781,-3.90778 0,-1.47884 -0.60766,-2.84126 -1.82056,-4.0845 -1.21392,-1.24324 -2.76884,-1.865 -4.66277,-1.865 z m -97.38165,3.99614 c -2.49861,0 -4.29849,0.73038 -5.39915,2.18849 -1.10016,1.45862 -1.64952,3.67432 -1.64952,6.64869 v 16.60519 c 5.1e-4,2.85657 0.62498,4.97 1.87328,6.33811 1.24879,1.36964 3.00379,2.05363 5.26427,2.05363 1.72456,0 3.30062,-0.41632 4.7284,-1.24902 1.42777,-0.8322 2.66315,-2.00916 3.70365,-3.52744 1.041,-1.51777 1.84289,-3.33281 2.40915,-5.44566 0.56424,-2.11184 0.8475,-4.41781 0.8475,-6.91844 0,-5.29653 -1.11542,-9.4024 -3.34657,-12.31863 -2.23116,-2.91622 -5.04105,-4.37492 -8.43101,-4.37492 z m 40.40529,0 c -2.49862,0 -4.2985,0.73038 -5.39916,2.18849 -1.10016,1.45862 -1.65003,3.67432 -1.65003,6.64869 v 16.60519 c 5.1e-4,2.85657 0.62498,4.97 1.87327,6.33811 1.2488,1.36964 3.0038,2.05363 5.26428,2.05363 1.72456,0 3.30114,-0.41632 4.72891,-1.24902 1.42778,-0.8322 2.66264,-2.00916 3.70314,-3.52744 1.041,-1.51777 1.84289,-3.33281 2.40915,-5.44566 0.56424,-2.11184 0.84801,-4.41781 0.84801,-6.91844 0,-5.29653 -1.11593,-9.4024 -3.34708,-12.31863 -2.23116,-2.91622 -5.04053,-4.37492 -8.43049,-4.37492 z m -206.254598,12.48709 77.493978,0.003 c 2.39901,5.43152 6.83857,10.04613 13.09016,12.41733 -0.18555,0.41458 -0.36503,0.81098 -0.53744,1.19321 h 5.2e-4 c -2.14622,4.73836 -3.39053,7.19812 -6.36085,11.737777 -0.40801,0.62491 -0.82216,1.24561 -1.24231,1.86242 h -5.1e-4 c -4.37586,6.43663 -10.25,13.52004 -17.37827,13.58729 -6.95586,0.0632 -8.7404,-4.54536 -18.17718,-4.49379 -9.436784,0.0531 -11.406832,4.57399 -18.362191,4.50877 -7.436678,-0.0693 -13.21125,-7.02545 -17.613395,-13.59555 h 10e-4 c -0.229031,-0.34279 -0.456075,-0.685 -0.679545,-1.02526 C 8.335923,100.43642 6.154011,96.218563 4.417825,91.811863 h -10e-4 C 2.618958,87.239843 1.38827,82.648023 0.696122,78.203913 Z" /><g
       id="g3326"
       transform="matrix(0.50558742,0,0,0.50558742,55.29201,88.824166)"
       style="stroke-width:0.523319" /></g></svg>
