<?xml version="1.0" encoding="UTF-8" standalone="no"?>
<!-- Created with Inkscape (http://www.inkscape.org/) -->

<svg
   width="1500"
   height="500"
   viewBox="0 0 396.87498 132.29167"
   version="1.1"
   id="svg5"
   inkscape:version="1.2.2 (732a01da63, 2022-12-09)"
   xml:space="preserve"
   sodipodi:docname="arcadia.svg"
   xmlns:inkscape="http://www.inkscape.org/namespaces/inkscape"
   xmlns:sodipodi="http://sodipodi.sourceforge.net/DTD/sodipodi-0.dtd"
   xmlns="http://www.w3.org/2000/svg"
   xmlns:svg="http://www.w3.org/2000/svg"><sodipodi:namedview
     id="namedview7"
     pagecolor="#000000"
     bordercolor="#111111"
     borderopacity="1"
     inkscape:showpageshadow="0"
     inkscape:pageopacity="0"
     inkscape:pagecheckerboard="1"
     inkscape:deskcolor="#d1d1d1"
     inkscape:document-units="mm"
     showgrid="false"
     inkscape:zoom="0.62760417"
     inkscape:cx="958.40663"
     inkscape:cy="595.91701"
     inkscape:window-width="1920"
     inkscape:window-height="1009"
     inkscape:window-x="-8"
     inkscape:window-y="-8"
     inkscape:window-maximized="1"
     inkscape:current-layer="layer1" /><defs
     id="defs2"><rect
       x="885.42926"
       y="125.5928"
       width="1014.1619"
       height="408.17661"
       id="rect334" /><rect
       x="863.4505"
       y="210.36795"
       width="850.89124"
       height="436.435"
       id="rect4589" /><rect
       x="885.42926"
       y="125.5928"
       width="1014.1619"
       height="408.17661"
       id="rect334-8" /><path
       id="SVGID_5_"
       d="M 943.9,810.2 C 891,754.5 864.2,690.4 864.2,619.6 c 0,-71.2 25.7,-134.6 76.3,-188.3 15.6,-16.6 32.4,-30.6 50.3,-42.2 -19.3,-25 -96.1,-114 -210.9,-114 -109.3,0 -137.5,65.4 -213.3,65.4 -83.5,0 -111.2,-72.4 -219.6,-72.4 0,0 -321.9,9.6 -321.9,400.2 0,140.9 123.1,551.6 306.2,551.6 91.6,0 80.6,-56.3 200.1,-56.3 118.9,0 98.6,47.6 210.5,47.6 115.7,0 266.3,-159.8 280.2,-341.7 -27.9,-14.1 -54.1,-33.9 -78.2,-59.3 z" /></defs><g
     inkscape:label="Layer 1"
     inkscape:groupmode="layer"
     id="layer1"><path
       id="rect231"
       style="fill:#ffffff;stroke-width:0.8001;stroke-linecap:square;paint-order:fill markers stroke"
       d="M -55.5625,-76.729167 V 209.02083 h 508 V -76.729167 Z m 163.04638,110.35192 h 25.81393 v 25.81393 h -25.81393 z m 40.57685,0 h 0.0207 21.95783 l -1.89187,5.17901 h -1.32343 c 0.76501,-2.10894 -0.22751,-3.48402 -5.6963,-3.48402 -2.37773,0 -2.36707,-0.11326 -3.23546,2.22312 l -2.61586,7.21558 h 2.9776 c 1.45765,0 2.74958,-0.92 3.22512,-2.30529 l 0.0517,-0.15503 h 1.09606 l -3.01894,8.85941 h -1.09554 l 0.42375,-1.24023 c 0.56858,-1.68509 -0.68219,-3.43235 -2.46032,-3.43235 h -1.81953 l -2.20193,6.04769 c -0.2171,0.63062 -0.81699,2.15061 -0.86868,2.77089 -0.19642,2.22266 2.00562,2.41897 3.76308,2.41897 4.60039,0 4.1252,-1.08563 6.60631,-5.41724 h 1.31258 l -2.58433,7.13342 h -21.78214 l 0.46509,-1.32343 c 2.72922,0 5.63406,-1.36468 6.47144,-3.74241 l 5.03483,-13.84257 c 0.36183,-0.94075 1.20973,-3.0807 1.29243,-4.02146 0.16518,-1.86854 -2.96732,-1.47937 -4.56148,-1.56063 -0.9319,4e-5 -3.70772,0.0316 -1.64124,2.12907 0.2837,0.28371 0.16085,0.58929 0.0357,0.80409 a 1.9952298,1.9021881 0 0 1 0.50177,0.47801 1.9952298,1.9021881 0 0 1 -1.99522,1.9022 1.9952298,1.9021881 0 0 1 -1.73323,-1.29966 l -0.12764,0.0486 c 0,0 -2.30675,-5.37208 5.41672,-5.38365 z m -5.2e-4,0.002 -0.46508,1.32085 c 0.002,1.1e-4 0.006,4e-4 0.008,5.1e-4 5.1e-4,0 0.002,-5.1e-4 0.002,-5.1e-4 l 0.47594,-1.32292 c -0.008,0 -0.0129,0.002 -0.0212,0.002 z m -27.66394,1.01079 c -6.56461,0 -11.88868,5.32407 -11.88868,11.88868 0,6.56461 5.32407,11.88868 11.88868,11.88868 6.55427,0 11.87834,-5.32407 11.88868,-11.88868 0,-6.56461 -5.32407,-11.88868 -11.88868,-11.88868 z m 0.77515,1.49913 c 0.3825,0 0.70325,0.19628 0.93069,0.54777 0.2171,0.34116 0.32039,0.79619 0.32039,1.37511 0,1.61273 -0.75475,2.63634 -1.67483,3.40134 0.19642,0.55826 0.40303,1.03344 0.56844,1.38493 0.26879,-0.0517 0.55855,-0.0827 0.84801,-0.0827 2.41908,0 4.39353,1.97445 4.39353,4.39353 0,2.33638 -1.84012,4.24932 -4.14548,4.37338 0,0 0.0103,-1e-5 0.0103,0.0103 0.5169,1.00279 0.42356,2.89451 -0.85834,4.46588 -1.28191,1.57137 -3.51503,0.90988 -3.51503,-0.51676 0,-1.42664 1.95423,-1.38559 2.61586,-0.85835 0.67196,0.52724 1.09554,-0.27922 1.09554,-1.61282 0,-0.5996 -0.52696,-0.97146 -1.09554,-1.20923 -0.47555,0.12406 -1.04418,0.16539 -1.85054,0.0724 -2.40874,-0.28947 -4.60023,-1.99557 -4.6209,-4.66277 0,-2.06759 2.43969,-4.0005 4.22816,-5.117 l 0.37207,-0.22737 c 0.36183,-0.22744 0.72338,-0.44487 1.06454,-0.69298 -0.2171,-0.75468 -0.38241,-1.60227 -0.38241,-2.46032 0,-1.62306 0.85813,-2.58434 1.69551,-2.58434 z m 0.0103,0.77515 c -0.33081,0 -0.93018,0.59965 -0.91984,1.81953 0,0.66163 0.10331,1.09589 0.26872,1.71617 0.67197,-0.63062 1.14721,-1.1991 1.14721,-2.37763 0,-0.52724 -0.11366,-0.81697 -0.2067,-0.9617 -0.12406,-0.19642 -0.24804,-0.19637 -0.28939,-0.19637 z m 48.92983,3.19464 c 1.45765,0 2.20197,1.04401 2.07791,2.47065 -0.062,0.76501 -0.23765,1.52996 -0.46509,2.19159 l 0.062,0.0724 c 1.26124,-2.08827 3.53554,-4.72426 6.18206,-4.72426 1.499,0 2.46034,0.86828 2.32595,2.42931 -0.062,0.76501 -0.31001,1.52996 -0.50643,2.2226 l 0.062,0.0724 c 1.37495,-2.1503 3.32878,-4.72426 6.15105,-4.72426 1.76779,0 2.72907,0.97158 2.574,2.70836 -0.10338,1.14752 -0.7342,2.81194 -1.17874,3.92844 l -0.83715,2.0159 c -0.31014,0.734 -1.41644,3.0601 -1.47847,3.75275 -0.031,0.31013 0.17613,0.76532 0.52762,0.76532 0.48588,0 1.05406,-0.54812 1.57096,-1.18907 0.52724,-0.65129 0.98231,-1.3957 1.22008,-1.72651 l 0.66146,0.3824 c -0.36183,0.62028 -0.78535,1.3026 -1.28157,1.95389 -1.14752,1.50934 -2.65726,2.84324 -4.45606,2.84324 -1.45766,0 -2.40867,-1.00318 -2.28462,-2.47117 0.0827,-0.97177 0.80657,-2.88433 1.20975,-3.85609 l 0.8785,-2.08825 c 0.35149,-0.86839 1.4371,-3.26678 1.49913,-4.0628 0.0413,-0.45487 -0.23759,-0.86816 -0.69246,-0.86816 -2.39841,0 -5.59327,7.1226 -6.34794,8.96276 l -1.59163,3.92844 h -3.76308 l 3.19412,-8.33231 c 0.35149,-0.83738 1.09604,-2.60531 1.16841,-3.44268 0.0414,-0.5169 -0.0412,-1.11621 -0.63046,-1.11621 -2.63618,0 -5.27233,6.6058 -6.09937,8.58035 l -1.79885,4.31085 h -3.78375 l 1.6955,-4.31085 c 0.63062,-1.66441 2.18123,-5.9031 2.32596,-7.50548 0.031,-0.3515 -0.10324,-0.83716 -0.54777,-0.83716 -0.86839,0 -2.15067,2.29528 -2.55385,2.98793 l -0.7028,-0.35192 c 1.15785,-2.08827 2.96709,-4.9723 5.61361,-4.9723 z m 39.0462,0.0103 c 1.42664,0 2.01592,1.1474 1.90221,2.42931 -0.0931,1.00278 2.36762,-2.42931 5.10718,-2.42931 1.38528,0 2.388,0.89932 2.26394,2.32596 -0.11372,1.25089 -1.04406,2.0469 -2.26394,2.0469 -1.49901,0 -1.30255,-1.42679 -2.12959,-1.42679 -1.87117,0 -4.62125,6.74079 -5.27255,8.30182 l -1.59215,3.73156 h -3.8871 l 1.73685,-4.34186 c 0.75467,-1.91252 1.96417,-5.41672 2.13992,-7.40161 0.031,-0.38251 0.0104,-0.86868 -0.44442,-0.86868 -0.97177,0 -2.13981,2.25393 -2.55333,3.01894 l -0.73381,-0.35192 c 1.15786,-2.11928 3.04925,-5.03432 5.72679,-5.03432 z m 15.96181,0 c 1.70577,0 4.11453,0.58907 3.92844,2.7497 -0.0724,0.83738 -0.75426,1.4578 -1.58129,1.4578 -1.04414,0 -1.37512,-0.94081 -1.33377,-1.8092 0.0414,-0.83737 -0.17598,-1.22008 -1.1064,-1.22008 -1.1165,0 -1.92285,0.55835 -2.01589,1.6335 -0.11372,1.2819 0.87882,2.22291 1.61282,3.01893 1.23022,1.38529 2.25365,2.7807 2.07791,4.82761 -0.25845,2.98768 -3.47351,4.75579 -6.15105,4.75579 -1.94354,0 -4.61063,-0.94093 -4.39353,-3.33933 0.0827,-0.94076 0.70307,-1.6335 1.67484,-1.6335 0.86838,0 1.55083,0.58939 1.46812,1.53014 l -0.0832,0.58911 -0.0827,0.55811 c -0.062,0.76501 0.70316,1.11673 1.32343,1.11673 1.17853,0 2.1709,-1.00274 2.27428,-2.15026 0.10338,-1.17853 -0.49592,-1.83998 -1.15755,-2.67735 -1.07515,-1.37495 -2.56422,-3.00863 -2.40915,-4.92115 0.26878,-3.01869 3.27714,-4.48655 5.95467,-4.48655 z m 25.06979,0 c 1.53002,0 2.13995,0.8993 2.0159,2.3983 l -0.34107,1.9849 -0.16536,0.66145 0.062,0.0724 c 1.36461,-2.47077 3.71114,-5.10666 6.69882,-5.10666 1.76779,0 2.72959,0.97158 2.57452,2.70836 -0.10338,1.14751 -0.73421,2.81194 -1.17874,3.92844 l -0.83716,2.0159 c -0.31014,0.73399 -1.41644,3.0601 -1.47846,3.75274 -0.031,0.31014 0.1756,0.76533 0.5271,0.76533 0.97176,0 2.31549,-2.25396 2.79104,-2.91559 l 0.66197,0.38241 c -1.18886,2.04692 -3.16348,4.79712 -5.73763,4.79712 -1.45765,0 -2.40867,-1.00317 -2.28461,-2.47116 0.0827,-0.97177 0.80604,-2.88433 1.20922,-3.8561 l 0.87902,-2.08824 c 0.35149,-0.86839 1.43711,-3.26678 1.49913,-4.06281 0.0414,-0.45487 -0.23811,-0.86816 -0.69298,-0.86816 -3.02902,0.0724 -5.448,6.32671 -6.39909,8.477 l -1.91255,4.4142 h -3.64938 l 1.98489,-5.53041 c 0.58926,-1.56103 1.82982,-4.65202 1.96422,-6.22339 0.031,-0.38251 -0.0929,-0.94103 -0.57878,-0.94103 -0.94075,0 -2.12947,2.15058 -2.58434,2.91559 l -0.67231,-0.27957 c 1.13718,-2.22267 2.93607,-4.93097 5.64462,-4.93097 z m -50.11839,0.0103 c 1.80915,0 4.17654,0.73375 3.98012,2.91506 -0.34115,3.92843 -6.60603,5.24135 -9.69708,6.00636 -0.16541,0.66163 -0.32038,1.32326 -0.38241,1.98489 -0.11371,1.35427 0.50656,2.60552 1.99523,2.60552 1.94354,0 3.66973,-1.87136 4.9413,-3.26698 l 0.817,0.66146 c -1.80914,2.36739 -4.21808,4.51807 -7.20576,4.51807 -3.16342,0 -4.82768,-1.9851 -4.54856,-5.17953 0.45487,-5.17932 4.71408,-10.24485 10.10016,-10.24485 z m 38.35373,0 c 3.54593,0 5.54134,2.60516 5.24154,6.00635 -0.41351,4.69344 -4.61086,9.41803 -9.4697,9.41803 -3.54593,0 -5.54134,-2.50179 -5.25188,-5.97535 0.42386,-4.86918 4.47647,-9.44903 9.48004,-9.44903 z m -38.78781,1.03352 c -2.50179,0 -4.20784,4.85916 -4.86947,6.77168 2.39841,-0.6823 5.78925,-2.59499 6.02702,-5.34489 0.0724,-0.79602 -0.33051,-1.42679 -1.15755,-1.42679 z m 38.83949,0.1447 c -2.05726,0 -3.30815,2.81233 -3.96978,4.41472 -0.77535,1.73678 -1.73681,4.37288 -1.90221,6.25439 -0.093,1.07515 0.20688,2.39831 1.53014,2.39831 3.19443,0 5.70657,-8.40453 5.92367,-10.87531 0.093,-1.1165 -0.33093,-2.19211 -1.58182,-2.19211 z m -118.35918,0.63097 c -0.31014,0.2171 -0.62056,0.40303 -0.92036,0.58911 l -0.36174,0.22738 c -1.53002,0.96143 -2.96726,2.70842 -2.95692,4.47621 0,1.46799 0.57932,3.28752 2.47117,3.79408 0.56858,0.14473 1.18846,0.0931 1.56062,-0.12402 -1.27157,-0.77535 -2.11925,-2.1607 -2.11925,-3.75274 0,-1.8505 1.15816,-3.44252 2.79156,-4.08348 -0.14473,-0.31013 -0.31001,-0.68201 -0.46508,-1.12654 z m 2.05723,2.21227 c -1.65407,0 -3.0086,1.34367 -3.0086,3.00808 0,1.66441 1.34419,3.0086 3.0086,3.0086 1.66442,0 3.00809,-1.34419 3.00809,-3.0086 0,-1.66441 -1.34367,-3.00808 -3.00809,-3.00808 z m 0,0.94051 c 1.14752,0 2.06758,0.93039 2.06758,2.06757 0,1.13718 -0.9304,2.06758 -2.06758,2.06758 -1.13717,0 -2.06757,-0.92006 -2.06757,-2.06758 0,-1.14751 0.92006,-2.06757 2.06757,-2.06757 z m 188.49238,21.1 c 9.9658,0 13.64567,7.26751 13.64567,16.24087 0,8.97336 -3.67987,16.24087 -13.64567,16.24087 -9.96581,0 -13.6462,-7.26751 -13.6462,-16.24087 0,-8.97336 3.68039,-16.24087 13.6462,-16.24087 z m 29.50414,0 c 9.97614,0 13.64619,7.26751 13.64619,16.24087 0,8.97336 -3.68039,16.24087 -13.64619,16.24087 -9.9658,0 -13.64568,-7.26751 -13.64568,-16.24087 0,-8.97336 3.67988,-16.24087 13.64568,-16.24087 z m 14.72158,0.24805 8.94209,0.0103 c 2.85328,0 5.16919,2.31592 5.16919,5.1692 v 26.186 h -9.6144 v -21.58577 c 0,-0.66163 -0.53726,-1.20974 -1.20923,-1.20974 h -3.28765 z m -72.54028,0.27802 c 5.06173,-0.004 10.12451,2.73536 11.88713,8.21965 0.0414,0.14473 0.093,0.35185 0.1447,0.62063 0.52723,3.5666 -0.96148,7.13284 -3.79409,9.35551 l -5.50974,4.33203 h 9.40718 v 8.55969 h -20.32434 l 0.0103,-0.0103 c -0.0207,0 -0.0413,0.0103 -0.0517,0.0103 h -0.47542 c -4.39364,0 -6.30646,-5.55142 -2.85358,-8.25997 l 12.71602,-9.9658 c 2.26402,-1.77813 0.0622,-5.4584 -2.49132,-4.15581 -0.86839,0.44453 -1.54046,1.27147 -1.59215,2.36729 -0.031,0.31014 -0.0207,0.62004 0.031,0.94051 h -9.52139 c -0.0517,0 -0.093,-0.0413 -0.093,-0.093 0.0517,-1.34394 0.27896,-2.57424 0.63045,-3.6804 1.75745,-5.48946 6.81817,-8.23645 11.87989,-8.24032 z m -204.91927,0.87488 c 2.62455,0 5.25006,1.49371 6.27352,4.48138 l 8.81858,25.73125 h -9.6144 l -0.9927,-4.0318 h -8.9731 l -0.98237,4.0318 h -9.6144 l 8.81859,-25.73125 c 1.01829,-2.98767 3.64173,-4.48138 6.26628,-4.48138 z m 79.39567,0 c 2.62455,0 5.25006,1.49371 6.27352,4.48138 l 8.81858,25.73125 h -9.6144 l -0.9927,-4.0318 h -8.9731 l -0.98237,4.0318 h -9.6144 l 8.81859,-25.73125 c 1.01829,-2.98767 3.64173,-4.48138 6.26628,-4.48138 z m 71.75583,0 c 2.62455,0 5.25006,1.49371 6.27352,4.48138 l 8.81858,25.73125 h -9.6144 l -0.99271,-4.0318 h -8.97309 l -0.98237,4.0318 h -9.61388 l 8.81806,-25.73125 c 1.01829,-2.98767 3.64174,-4.48138 6.26629,-4.48138 z m -218.24663,0.0672 h 15.197005 l -10.33787,30.14545 H 0 Z m 20.77961,0 H 46.3243 L 35.986434,97.800753 H 20.779093 Z m 20.78943,0 h 15.197 L 56.76601,97.800633 H 41.569039 Z m 46.64521,0.3824 h 5.18935 2.77089 c 9.95547,0 12.46746,4.37316 12.46746,9.22166 0,4.88986 -2.16084,7.41231 -5.18987,10.00714 l 6.50297,10.51357 H 110.2341 l -4.48707,-7.26777 c -1.92286,-3.11173 -1.18882,-8.28036 1.8402,-9.33483 2.92565,-1.01312 1.77841,-4.58008 -1.07487,-4.58008 h -2.77089 v 21.19302 h -9.6144 v -25.32817 c 0,-2.4501 1.98529,-4.42454 4.42505,-4.42454 z m 38.44675,0.0103 h 0.0207 v 8.55968 h -0.0207 c -9.45924,0 -9.45924,12.62301 0,12.62301 v 0.0103 h 0.0207 v 8.55969 h -0.0207 v -0.0103 c -22.27832,0.0103 -22.27832,-29.74237 0,-29.74237 z m 3.64939,0 h 0.0207 v 8.55968 h -0.0207 z m 36.79259,0 h 5.18986 0.7028 0.0103 l 1.53014,0.0517 c 20.2314,1.31292 20.2314,28.3881 0.0103,29.70103 h -7.44347 c -2.4501,0 -4.42454,-1.97444 -4.42454,-4.41421 v -20.91396 c 0,-2.4501 1.98478,-4.42454 4.42454,-4.42454 z m 24.92509,0 h 9.6144 v 29.75271 h -9.6144 z m 108.30089,6.69882 c -2.24334,0 -4.04214,1.8609 -4.04214,7.68118 0,5.82028 1.80913,7.68119 4.04214,7.68119 2.22266,0 4.04213,-1.86091 4.04213,-7.68119 0,-5.82028 -1.80913,-7.68118 -4.04213,-7.68118 z m 29.50414,0 c -2.24334,0 -4.04213,1.8609 -4.04213,7.68118 0,5.82028 1.80913,7.68119 4.04213,7.68119 2.233,0 4.04213,-1.86091 4.04213,-7.68119 0,-5.82028 -1.80913,-7.68118 -4.04213,-7.68118 z m -157.54026,1.86086 v 12.63334 h 0.7028 c 9.45924,0 9.45924,-12.623 0,-12.63334 z m -105.19926,0.68007 c -0.26103,0 -0.52192,0.16269 -0.57878,0.48834 l -2.23294,9.14879 h 5.62343 l -2.23293,-9.14879 c -0.0569,-0.32565 -0.31775,-0.48834 -0.57878,-0.48834 z m 79.39567,0 c -0.26103,0 -0.52192,0.16269 -0.57878,0.48834 l -2.23293,9.14879 h 5.62342 l -2.23293,-9.14879 c -0.0569,-0.32565 -0.31775,-0.48834 -0.57878,-0.48834 z m 71.76616,0 c -0.26103,0 -0.52192,0.16269 -0.57877,0.48834 l -2.23294,9.14879 h 5.62394 l -2.23345,-9.14879 c -0.0569,-0.32565 -0.31774,-0.48834 -0.57878,-0.48834 z m 19.9006,2.73161 h 13.66686 v 8.55969 h -13.66686 z m 128.34617,7.49515 h 8.27029 v 1.55081 H 381.864 v 8.68371 h -1.788 v -8.68371 h -3.23598 z m 9.41803,0 h 2.52232 l 2.82205,8.00158 h 0.031 l 2.75022,-8.00158 h 2.49132 v 10.22418 h -1.70584 v -7.88789 h -0.031 l -2.83239,7.88789 h -1.47846 l -2.83239,-7.88789 h -0.031 v 7.88789 h -1.70584 z m -245.60982,1.72651 h 0.0207 v 8.55969 h -0.0207 z" /><g
       id="g110"
       transform="matrix(0.10337979,0,0,0.10337979,-296.23617,90.030134)"
       style="stroke-width:2.55933">
	<g
   id="g34"
   style="fill:#ffffff;fill-opacity:1;stroke-width:2.55933">
		<g
   id="g22"
   style="fill:#ffffff;fill-opacity:1;stroke-width:2.55933">
			
			
			
			
			
			
			
			
			
		</g>
		<g
   id="g32"
   style="fill:#ffffff;fill-opacity:1;stroke-width:2.55933">
			<g
   id="g28"
   style="fill:#ffffff;fill-opacity:1;stroke-width:2.55933">
				
				
			</g>
			
		</g>
	</g>
	<g
   id="g102"
   style="stroke-width:2.55933">
		
		
		
		
		<g
   id="g100"
   style="fill:#ffffff;fill-opacity:1;stroke-width:2.55933">
			<g
   id="g98"
   style="fill:#ffffff;fill-opacity:1;stroke-width:2.55933">
				
				
				
			</g>
		</g>
	</g>
	<g
   id="g108"
   style="fill:#ffffff;fill-opacity:1;stroke-width:2.55933">
		
		
	</g>
</g></g><style
     type="text/css"
     id="style2">
	.st0{fill:#C70A11;}
	.st1{fill:#2FBB37;}
	.st2{fill:#1E35A0;}
	.st3{fill:#FFFFFF;}
</style></svg>
