<?xml version="1.0" encoding="UTF-8" standalone="no"?>
<!-- Created with Inkscape (http://www.inkscape.org/) -->

<svg
   width="1500"
   height="500"
   viewBox="0 0 396.87498 132.29167"
   version="1.1"
   id="svg5"
   inkscape:version="1.2.2 (732a01da63, 2022-12-09)"
   xml:space="preserve"
   sodipodi:docname="arcade.svg"
   xmlns:inkscape="http://www.inkscape.org/namespaces/inkscape"
   xmlns:sodipodi="http://sodipodi.sourceforge.net/DTD/sodipodi-0.dtd"
   xmlns="http://www.w3.org/2000/svg"
   xmlns:svg="http://www.w3.org/2000/svg"><sodipodi:namedview
     id="namedview7"
     pagecolor="#000000"
     bordercolor="#111111"
     borderopacity="1"
     inkscape:showpageshadow="0"
     inkscape:pageopacity="0"
     inkscape:pagecheckerboard="1"
     inkscape:deskcolor="#d1d1d1"
     inkscape:document-units="mm"
     showgrid="false"
     inkscape:zoom="0.62760417"
     inkscape:cx="958.40663"
     inkscape:cy="595.91701"
     inkscape:window-width="1920"
     inkscape:window-height="1009"
     inkscape:window-x="-8"
     inkscape:window-y="-8"
     inkscape:window-maximized="1"
     inkscape:current-layer="layer1" /><defs
     id="defs2"><rect
       x="885.42926"
       y="125.5928"
       width="1014.1619"
       height="408.17661"
       id="rect334" /><rect
       x="863.4505"
       y="210.36795"
       width="850.89124"
       height="436.435"
       id="rect4589" /><rect
       x="885.42926"
       y="125.5928"
       width="1014.1619"
       height="408.17661"
       id="rect334-8" /><path
       id="SVGID_5_"
       d="M 943.9,810.2 C 891,754.5 864.2,690.4 864.2,619.6 c 0,-71.2 25.7,-134.6 76.3,-188.3 15.6,-16.6 32.4,-30.6 50.3,-42.2 -19.3,-25 -96.1,-114 -210.9,-114 -109.3,0 -137.5,65.4 -213.3,65.4 -83.5,0 -111.2,-72.4 -219.6,-72.4 0,0 -321.9,9.6 -321.9,400.2 0,140.9 123.1,551.6 306.2,551.6 91.6,0 80.6,-56.3 200.1,-56.3 118.9,0 98.6,47.6 210.5,47.6 115.7,0 266.3,-159.8 280.2,-341.7 -27.9,-14.1 -54.1,-33.9 -78.2,-59.3 z" /></defs><g
     inkscape:label="Layer 1"
     inkscape:groupmode="layer"
     id="layer1"><path
       id="rect231"
       style="fill:#ffffff;stroke-width:0.8001;stroke-linecap:square;paint-order:fill markers stroke"
       d="M -55.5625,-76.729167 V 209.02083 h 508 V -76.729167 Z m 220.25529,112.67013 c 5.8291,0 11.48251,1.66398 16.34009,4.8059 3.87573,2.4908 7.11068,5.82911 9.48779,9.73584 l -33.02124,15.6683 33.02124,15.65796 c -2.37711,3.90673 -5.61206,7.2347 -9.48779,9.73584 -4.86792,3.13158 -10.52133,4.79557 -16.34009,4.79557 -16.65013,0 -30.19971,-13.54958 -30.19971,-30.19971 0,-16.65013 13.54958,-30.1997 30.19971,-30.1997 z m 100.07658,0 h 34.14778 c 16.65013,0 30.19971,13.54957 30.19971,30.1997 0,16.65013 -13.54958,30.19971 -30.19971,30.19971 h -34.14778 z m 73.82495,0 H 396.875 v 24.47395 h -36.05981 v 13.5599 h 12.66072 v 2.16007 h -12.66072 v 13.54956 H 396.875 v 6.65593 h -58.28068 z m -266.61939,0.0103 h 37.34139 c 9.96321,0 18.07642,8.10288 18.07642,18.07642 0,9.9632 -8.10287,18.07641 -18.07642,18.07641 h -0.79581 c -1.21956,0 -2.32544,0.71314 -2.82154,1.82935 -0.49609,1.11621 -0.27905,2.41846 0.53744,3.32796 l 17.29093,19.08927 H 71.97493 Z m -40.938065,3.35897 31.036865,57.03011 H 0 Z m 192.794435,0 31.03686,57.03011 h -62.07373 z m 119.37256,0.1757 c -0.59945,0 -1.07487,0.48576 -1.07487,1.07487 v 20.74292 c 0,0.59944 0.47542,1.07487 1.07487,1.07487 0.59944,0 1.07487,-0.48576 1.07487,-1.07487 v -19.66805 h 26.25162 c 0.59945,0 1.07487,-0.48576 1.07487,-1.07487 0,-0.59945 -0.48575,-1.07487 -1.07487,-1.07487 z m -242.30046,11.6479 c -1.788,0 -3.23494,1.44694 -3.23494,3.23494 0,1.788 1.44694,3.23495 3.23494,3.23495 1.788,0 3.23495,-1.44695 3.23495,-3.23495 0,-1.788 -1.44695,-3.23494 -3.23495,-3.23494 z m 21.89014,3.71036 c -0.58911,-0.0827 -1.12655,0.3204 -1.20923,0.90951 -0.84749,6.07714 -6.12883,10.65568 -12.26799,10.65568 -0.58911,0 -1.07486,0.47542 -1.07486,1.07487 0,0.59945 0.48575,1.07487 1.07486,1.07487 3.52433,0 6.92465,-1.28158 9.57048,-3.60702 2.62516,-2.30476 4.33049,-5.46737 4.81624,-8.89868 0.0827,-0.58911 -0.32039,-1.12654 -0.9095,-1.20923 z m 201.71378,11.1001 c -0.59944,-0.0207 -1.0852,0.44442 -1.10587,1.03353 -0.41341,12.38166 -10.03558,22.52059 -22.3759,23.57479 -0.58911,0.0517 -1.02319,0.56844 -0.97151,1.15755 0.0517,0.55811 0.51676,0.98185 1.06453,0.98185 h 0.093 c 6.45955,-0.5581 12.49536,-3.46232 16.99121,-8.18554 4.51651,-4.73356 7.12101,-10.93474 7.33805,-17.4563 0.0207,-0.58911 -0.44442,-1.08521 -1.03353,-1.10588 z m -25.86922,5.4777 c -1.788,0 -3.23494,1.44695 -3.23494,3.23495 0,1.788 1.44694,3.23494 3.23494,3.23494 1.788,0 3.23495,-1.44694 3.23495,-3.23494 0,-1.788 -1.44695,-3.23495 -3.23495,-3.23495 z m -267.601235,0.33073 c -1.788002,0 -3.234944,1.44694 -3.234944,3.23495 0,1.788 1.446942,3.23494 3.234944,3.23494 1.788003,0 3.234945,-1.44694 3.234945,-3.23494 0,-1.78801 -1.446942,-3.23495 -3.234945,-3.23495 z m 192.794435,0 c -1.788,0 -3.23495,1.44694 -3.23495,3.23495 0,1.788 1.44695,3.23494 3.23495,3.23494 1.788,0 3.23494,-1.44694 3.23494,-3.23494 0,-1.78801 -1.44694,-3.23495 -3.23494,-3.23495 z m -60.61129,1.37098 c -0.25838,0.0917 -0.48059,0.28267 -0.60461,0.55139 -0.25838,0.53743 -0.031,1.17822 0.50643,1.44694 l 18.48982,8.76432 c -1.12654,1.07487 -2.35644,2.04639 -3.65869,2.88354 -0.49609,0.3204 -0.64079,0.98186 -0.32039,1.47795 0.2067,0.31006 0.54777,0.48576 0.89917,0.48576 0.19637,0 0.40307,-0.062 0.57877,-0.1757 1.86035,-1.20923 3.57602,-2.64584 5.0953,-4.27881 0.23771,-0.24805 0.33073,-0.59945 0.26872,-0.93018 -0.062,-0.33072 -0.27906,-0.62011 -0.58911,-0.76481 l -19.84375,-9.41544 c -0.26872,-0.12919 -0.56328,-0.13669 -0.82166,-0.045 z M 47.363,77.402513 c -0.26226,-0.0762 -0.55449,-0.0532 -0.81287,0.0863 -0.51676,0.27905 -0.7028,0.93017 -0.42375,1.44694 l 6.37688,11.69954 H 40.638346 c -0.599446,0 -1.074869,0.48576 -1.074869,1.07487 0,0.59945 0.485759,1.07487 1.074869,1.07487 H 54.3016 c 0.37206,0 0.72347,-0.19637 0.9095,-0.5271 0.19637,-0.32039 0.19637,-0.72347 0.0207,-1.0542 l -7.2347,-13.29118 c -0.13953,-0.25838 -0.37181,-0.43382 -0.63407,-0.51004 z m 192.79392,0 c -0.26226,-0.0762 -0.55397,-0.0532 -0.81236,0.0863 -0.51676,0.27905 -0.7028,0.93017 -0.42374,1.44694 l 6.36653,11.69954 h -11.86491 c -0.59944,0 -1.07487,0.48576 -1.07487,1.07487 0,0.59945 0.48576,1.07487 1.07487,1.07487 h 13.66325 c 0.38241,0 0.73381,-0.19637 0.91984,-0.5271 0.19637,-0.32039 0.19637,-0.72347 0.0207,-1.0542 l -7.2347,-13.29118 c -0.13952,-0.25838 -0.37233,-0.43382 -0.63458,-0.51004 z m -138.26133,0.0233 c -0.2558,-0.0943 -0.54777,-0.092 -0.81649,0.032 -0.5271,0.24805 -0.76481,0.8785 -0.51676,1.41594 0.37207,0.80615 0.85783,1.55029 1.45727,2.20141 l 8.67131,9.57048 H 99.45646 c -0.59944,0 -1.07487,0.48576 -1.07487,1.07487 0,0.59944 0.48576,1.07487 1.07487,1.07487 h 13.64258 c 0.42375,0 0.80615,-0.25839 0.98185,-0.64079 0.16537,-0.39274 0.093,-0.8475 -0.18603,-1.15755 l -10.29395,-11.35848 c -0.45475,-0.4961 -0.82682,-1.0542 -1.10587,-1.66398 -0.12403,-0.26355 -0.34365,-0.4545 -0.59945,-0.54881 z" /><g
       id="g3364"
       transform="matrix(0.10335286,0,0,0.10335286,55.562509,112.67013)"
       style="stroke-width:2.56" /></g></svg>
