<?xml version="1.0" encoding="UTF-8" standalone="no"?>
<!-- Created with Inkscape (http://www.inkscape.org/) -->

<svg
   width="1500"
   height="500"
   viewBox="0 0 396.87498 132.29167"
   version="1.1"
   id="svg5"
   inkscape:version="1.2.2 (732a01da63, 2022-12-09)"
   xml:space="preserve"
   sodipodi:docname="archimedes.svg"
   xmlns:inkscape="http://www.inkscape.org/namespaces/inkscape"
   xmlns:sodipodi="http://sodipodi.sourceforge.net/DTD/sodipodi-0.dtd"
   xmlns="http://www.w3.org/2000/svg"
   xmlns:svg="http://www.w3.org/2000/svg"><sodipodi:namedview
     id="namedview7"
     pagecolor="#000000"
     bordercolor="#111111"
     borderopacity="1"
     inkscape:showpageshadow="0"
     inkscape:pageopacity="0"
     inkscape:pagecheckerboard="1"
     inkscape:deskcolor="#d1d1d1"
     inkscape:document-units="mm"
     showgrid="false"
     inkscape:zoom="0.62760417"
     inkscape:cx="958.40663"
     inkscape:cy="595.91701"
     inkscape:window-width="1920"
     inkscape:window-height="1009"
     inkscape:window-x="-8"
     inkscape:window-y="-8"
     inkscape:window-maximized="1"
     inkscape:current-layer="layer1" /><defs
     id="defs2"><rect
       x="885.42926"
       y="125.5928"
       width="1014.1619"
       height="408.17661"
       id="rect334" /><rect
       x="863.4505"
       y="210.36795"
       width="850.89124"
       height="436.435"
       id="rect4589" /><rect
       x="885.42926"
       y="125.5928"
       width="1014.1619"
       height="408.17661"
       id="rect334-8" /><path
       id="SVGID_5_"
       d="M 943.9,810.2 C 891,754.5 864.2,690.4 864.2,619.6 c 0,-71.2 25.7,-134.6 76.3,-188.3 15.6,-16.6 32.4,-30.6 50.3,-42.2 -19.3,-25 -96.1,-114 -210.9,-114 -109.3,0 -137.5,65.4 -213.3,65.4 -83.5,0 -111.2,-72.4 -219.6,-72.4 0,0 -321.9,9.6 -321.9,400.2 0,140.9 123.1,551.6 306.2,551.6 91.6,0 80.6,-56.3 200.1,-56.3 118.9,0 98.6,47.6 210.5,47.6 115.7,0 266.3,-159.8 280.2,-341.7 -27.9,-14.1 -54.1,-33.9 -78.2,-59.3 z" /></defs><g
     inkscape:label="Layer 1"
     inkscape:groupmode="layer"
     id="layer1"><path
       id="rect231"
       style="fill:#ffffff;stroke-width:0.8001;stroke-linecap:square;paint-order:fill markers stroke"
       d="M -55.5625,-76.729167 V 209.02083 h 508 V -76.729167 Z m 131.03128,94.24696 h 8.11372 l -0.009,97.256077 H 76.66281 V 71.369803 c -9.0497,-6.82637 -21.02916,-7.81996 -32.06419,-2.4939 L 8.982914,114.77387 H 0 Z m 1.19424,10.03866 -24.66516,31.78463 c 8.62579,-1.84787 17.27373,-0.57583 24.66516,3.65662 z m 84.41655,16.34733 h 7.2807 l -3.76928,26.28728 c 1.19825,-1.33244 2.5043,-2.56653 3.91759,-3.70158 1.41452,-1.13629 2.94184,-2.0523 4.5837,-2.75074 1.64308,-0.69719 3.40644,-1.05592 5.2896,-1.07642 1.34681,-0.0119 2.68341,0.32499 4.01215,1.01028 1.32752,0.68532 2.43789,1.7896 3.32797,3.31246 0.89089,1.52284 1.35363,3.53216 1.38803,6.03167 0.001,0.77805 -0.0104,1.41013 -0.0341,1.89394 -0.025,0.48299 -0.0687,0.94365 -0.13074,1.38028 -0.062,0.43663 -0.14856,0.9724 -0.26303,1.60765 l -3.42202,24.410907 h -7.36286 l 3.51245,-25.009317 c 0.0846,-0.44482 0.15247,-0.8308 0.20257,-1.1591 0.0514,-0.32705 0.0871,-0.66845 0.10852,-1.02423 0.0212,-0.35578 0.032,-0.79922 0.032,-1.3286 0.0144,-0.63769 -0.0357,-1.24777 -0.14986,-1.8309 -0.11409,-0.58395 -0.37867,-1.17249 -0.79272,-1.7663 -0.44606,-0.60321 -0.98785,-1.06756 -1.62677,-1.39216 -0.63894,-0.32459 -1.26758,-0.48948 -1.88516,-0.49248 -1.00785,0.0238 -1.96359,0.26185 -2.86804,0.71365 -0.90526,0.45221 -1.7156,0.97491 -2.43086,1.56993 -0.71486,0.59503 -1.28956,1.11875 -1.72496,1.57097 -0.12721,0.12105 -0.42536,0.41973 -0.894,0.89452 -0.46987,0.47479 -1.03419,1.07771 -1.69447,1.80815 -0.66026,0.73167 -1.33936,1.54322 -2.03657,2.43655 l -3.68298,25.009317 h -7.28172 z m 167.49882,0 h 7.36648 l -8.39432,58.396427 c -0.67341,0.19984 -1.81263,0.4424 -3.41633,0.72761 -1.60451,0.28561 -3.74883,0.44289 -6.43423,0.47129 -2.72317,-0.009 -5.03521,-0.22723 -6.93601,-0.65319 -1.89997,-0.42594 -3.50063,-0.9988 -4.80229,-1.7198 -1.30126,-0.721 -2.41375,-1.529877 -3.3383,-2.425687 -1.52613,-1.4297 -2.75882,-3.21229 -3.69487,-5.34903 -0.93767,-2.13553 -1.42005,-4.51817 -1.44745,-7.14736 0.005,-2.22127 0.36435,-4.43777 1.07797,-6.64921 0.71361,-2.21183 1.75036,-4.31074 3.10988,-6.29729 1.35994,-1.98574 3.01273,-3.7533 4.95784,-5.302 1.94388,-1.54789 4.1504,-2.7701 6.61872,-3.66593 1.61561,-0.56015 3.12361,-0.95408 4.52375,-1.17977 1.40056,-0.22731 2.76234,-0.35336 4.08658,-0.38086 1.32423,-0.0275 2.68001,-0.0211 4.06745,0.0191 z m -128.73943,6.80372 c 0.83302,0.0119 1.56394,0.20818 2.19057,0.58652 0.62704,0.37959 1.11572,0.87384 1.46658,1.48157 0.35209,0.60817 0.53036,1.25946 0.53536,1.95543 -0.005,0.67095 -0.17624,1.31712 -0.51314,1.94045 -0.33773,0.6221 -0.81361,1.13586 -1.42627,1.54048 -0.61391,0.40461 -1.33593,0.61438 -2.16731,0.62838 -0.80677,-0.0107 -1.52448,-0.20728 -2.15233,-0.59014 -0.62827,-0.38205 -1.12291,-0.8827 -1.48569,-1.50275 -0.36193,-0.61964 -0.54649,-1.29172 -0.55449,-2.01642 0.0259,-1.10386 0.4226,-2.04273 1.18752,-2.81378 0.76491,-0.77313 1.73778,-1.17654 2.9192,-1.20974 z m -53.36211,11.95482 c 1.46663,0.007 2.66517,0.0772 3.59668,0.21188 0.93153,0.13295 1.78814,0.28561 2.56987,0.45837 l -0.94207,6.43113 c -1.00782,-0.17481 -1.94577,-0.31818 -2.81533,-0.42892 -0.86873,-0.11041 -1.7863,-0.16753 -2.75228,-0.17053 -3.0576,0.0308 -5.68956,0.56218 -7.89771,1.59629 -2.20693,1.03248 -4.01823,2.38069 -5.43275,4.04471 -1.41328,1.66319 -2.45852,3.45594 -3.13521,5.37848 -0.6771,1.92254 -1.0132,3.78801 -1.0082,5.59604 -0.009,0.56631 0.054,1.30728 0.19068,2.21951 0.13788,0.91266 0.40511,1.88361 0.80357,2.91403 0.39846,1.03042 0.98606,2.00609 1.76165,2.92695 0.77598,0.92084 1.79814,1.67226 3.06493,2.2562 1.26843,0.58312 2.84054,0.8841 4.71547,0.9033 1.7666,-0.0205 3.32583,-0.24588 4.67879,-0.67799 1.35379,-0.43292 2.52485,-0.95172 3.5171,-1.55495 0.99225,-0.60446 1.83007,-1.17258 2.51044,-1.70687 l -1.11363,7.703917 c -0.6258,0.35701 -1.4312,0.74437 -2.41484,1.16582 -0.98405,0.4198 -2.16286,0.78467 -3.53673,1.09038 -1.37431,0.30694 -2.9587,0.46762 -4.75527,0.48162 -3.21928,-0.032 -5.92149,-0.59737 -8.10338,-1.6955 -2.18189,-1.09689 -3.92031,-2.528837 -5.21829,-4.295867 -1.29796,-1.7666 -2.22991,-3.66958 -2.79621,-5.70869 -0.5663,-2.04032 -0.84232,-4.01929 -0.82992,-5.93607 -0.007,-1.99272 0.27943,-4.05793 0.85886,-6.19549 0.58065,-2.13799 1.49049,-4.21245 2.73265,-6.22649 1.24218,-2.01283 2.85487,-3.8298 4.83691,-5.45032 1.98286,-1.61888 4.37466,-2.90698 7.17373,-3.86229 2.79948,-0.95655 6.04641,-1.44565 9.74049,-1.46865 z m 133.45955,0.002 c 2.70674,0.0193 5.10558,0.68528 7.19594,1.99884 2.0912,1.31315 3.73342,3.1591 4.93045,5.53713 1.19538,2.37805 1.80597,5.17303 1.82987,8.38657 -0.003,0.89089 -0.0394,1.63713 -0.10749,2.23914 -0.0677,0.60077 -0.14615,1.11095 -0.23565,1.53117 h -24.05796 c -0.0439,0.67463 -0.0841,1.31281 -0.1173,1.91358 -0.0344,0.60077 -0.0517,1.21754 -0.0527,1.85157 0.0283,2.40348 0.49337,4.4516 1.39371,6.14433 0.90197,1.69396 2.06431,2.98836 3.48867,3.88296 1.42396,0.89458 2.93565,1.34489 4.53358,1.35289 1.60863,-0.0238 3.20488,-0.33727 4.79092,-0.94051 1.58564,-0.60446 3.10038,-1.35481 4.54443,-2.25309 1.44323,-0.89829 2.75545,-1.802 3.93567,-2.71095 l -1.11259,7.61814 c -2.29392,1.602467 -4.53779,2.722637 -6.73241,3.361547 -2.19624,0.63854 -4.20429,0.94588 -6.02547,0.92088 -3.35264,-0.0308 -6.23397,-0.83283 -8.64443,-2.40657 -2.41005,-1.572907 -4.26499,-3.725527 -5.56297,-6.458517 -1.29798,-2.7326 -1.95436,-5.85604 -1.96836,-9.36791 0.0107,-3.08223 0.44931,-5.98053 1.31517,-8.69507 0.86627,-2.71495 2.09687,-5.11347 3.69073,-7.19646 1.59425,-2.08176 3.48804,-3.71525 5.68182,-4.89996 2.19257,-1.18389 4.6215,-1.78711 7.28638,-1.80971 z m 73.00226,0 h 5.2e-4 c 2.70654,0.0194 5.10519,0.68537 7.19543,1.99884 2.09119,1.31315 3.73382,3.1591 4.92838,5.53713 1.19539,2.37805 1.80874,5.17303 1.83244,8.38657 -0.006,0.89089 -0.0419,1.63713 -0.10748,2.23914 -0.0653,0.60077 -0.1482,1.11095 -0.2372,1.53117 h -24.05693 c -0.0438,0.67463 -0.0836,1.31281 -0.11679,1.91358 -0.0344,0.60077 -0.0519,1.21754 -0.0527,1.85157 0.0283,2.40348 0.4934,4.4516 1.39372,6.14433 0.90199,1.69396 2.06421,2.98836 3.48816,3.88296 1.42437,0.89458 2.93614,1.34489 4.53409,1.35289 1.6082,-0.0238 3.20476,-0.33727 4.7904,-0.94051 1.58604,-0.60446 3.10046,-1.35481 4.54494,-2.25309 1.44324,-0.89829 2.75463,-1.802 3.93361,-2.71095 l -1.11052,7.61814 c -2.29352,1.602467 -4.53779,2.722637 -6.73241,3.361547 -2.19625,0.63854 -4.20481,0.94588 -6.02599,0.92088 -3.35265,-0.0308 -6.23386,-0.83283 -8.64391,-2.40657 -2.41046,-1.572907 -4.26499,-3.725527 -5.56297,-6.458517 -1.29796,-2.7326 -1.95549,-5.85604 -1.96939,-9.36791 0.0107,-3.08223 0.45034,-5.98053 1.3162,-8.69507 0.86627,-2.71495 2.09545,-5.11347 3.6897,-7.19646 1.59425,-2.08176 3.48908,-3.71525 5.68285,-4.89996 2.19243,-1.18381 4.62119,-1.78704 7.28586,-1.80971 z m 32.11691,0.24856 c 1.83184,0.0238 3.50935,0.27064 5.02605,0.73846 1.51709,0.46739 2.84991,1.01023 3.99769,1.62987 1.14817,0.62007 2.07592,1.17003 2.79569,1.65055 v 7.61969 c -1.17157,-0.89827 -2.37906,-1.7268 -3.6282,-2.48926 -1.25529,-0.7612 -2.55254,-1.37693 -3.90261,-1.84433 -1.34436,-0.4666 -2.74829,-0.70745 -4.19974,-0.71985 -1.52285,0.0226 -2.74127,0.38263 -3.65146,1.08107 -0.91018,0.69718 -1.38066,1.59325 -1.40456,2.68769 0.0238,0.74235 0.32162,1.47472 0.90434,2.19573 0.58311,0.72059 1.32019,1.42697 2.21846,2.11925 0.89829,0.69227 1.8265,1.36813 2.79002,2.02469 1.92131,1.31358 3.58707,2.56026 4.9909,3.74292 1.40385,1.18226 2.49239,2.47539 3.25975,3.87677 0.76738,1.40262 1.15342,3.08898 1.16582,5.05912 0,1.40591 -0.2566,2.77207 -0.76791,4.10001 -0.50556,1.32753 -1.26618,2.52624 -2.28306,3.59564 -1.01154,1.068167 -2.26659,1.918697 -3.77755,2.550237 -1.5048,0.63196 -3.25398,0.95596 -5.24671,0.96996 -1.52283,0.006 -2.95615,-0.15823 -4.3124,-0.49144 -1.35623,-0.33321 -2.74258,-0.871 -4.16408,-1.61334 -1.42148,-0.74234 -2.99183,-1.723917 -4.71083,-2.945557 l 1.19476,-7.02386 c 2.29639,1.77645 4.43178,3.17129 6.39496,4.18735 1.96275,1.01481 3.86089,1.53267 5.68699,1.55287 1.3624,-0.0201 2.49169,-0.40944 3.38998,-1.16737 0.90402,-0.75876 1.37415,-1.76822 1.40405,-3.02927 0.0177,-0.91388 -0.24996,-1.76072 -0.79737,-2.54248 -0.54128,-0.77927 -1.44473,-1.66515 -2.71767,-2.65617 -1.26718,-0.9898 -2.97997,-2.25494 -5.13353,-3.79667 -1.15969,-0.7961 -2.22489,-1.69844 -3.18844,-2.70629 -0.96968,-1.00866 -1.74893,-2.1452 -2.33164,-3.41116 -0.58888,-1.26433 -0.89245,-2.68156 -0.90485,-4.24832 0,-1.88438 0.43494,-3.63306 1.31516,-5.24619 0.88023,-1.61435 2.20013,-2.91896 3.961,-3.91449 1.7666,-0.99471 3.974,-1.50713 6.62699,-1.53583 z m -269.16135,0.33435 c 0.72058,0.008 1.33442,0.0757 1.84123,0.20412 0.5068,0.12763 0.94942,0.26221 1.32653,0.40256 v 8.20467 c -0.46411,-0.27821 -1.05287,-0.55574 -1.76526,-0.83561 -0.71155,-0.27822 -1.57866,-0.42789 -2.60088,-0.44959 -0.67914,-0.0226 -1.40491,0.089 -2.17558,0.33642 -0.77229,0.24746 -1.6242,0.76621 -2.55695,1.55494 -0.93276,0.78994 -1.98199,1.98691 -3.14657,3.59306 -0.22981,0.29997 -0.5816,0.81437 -1.05885,1.54358 -0.4756,0.72919 -0.97836,1.67574 -1.50896,2.8391 l -3.0825,21.668957 h -7.27914 l 5.48029,-38.455527 h 7.19336 l -1.11311,8.20467 c 0.76615,-1.50972 1.64931,-2.92983 2.651,-4.26227 1.0017,-1.33121 2.14523,-2.41548 3.43131,-3.25304 1.28607,-0.83754 2.74109,-1.26984 4.36408,-1.29604 z m 110.77928,0 v 5.2e-4 c 1.2241,-0.0168 2.44951,0.23452 3.6773,0.75447 1.22782,0.51869 2.30806,1.40354 3.23959,2.65514 0.93274,1.25119 1.56769,2.96859 1.90583,5.148 0.60406,-0.79118 1.37757,-1.67138 2.31975,-2.6386 0.94218,-0.96721 2.02784,-1.89896 3.25769,-2.79724 1.2315,-0.89706 2.58015,-1.63658 4.04678,-2.21847 1.46703,-0.58148 3.0278,-0.8831 4.68033,-0.9033 0.87693,-0.0131 1.8306,0.1262 2.86184,0.41754 1.03289,0.29178 2.01928,0.81529 2.959,1.572 0.94138,0.75671 1.71341,1.82762 2.31665,3.21014 0.60446,1.38333 0.91566,3.15991 0.93586,5.32991 -0.005,0.98239 -0.058,1.94905 -0.1602,2.90111 -0.10095,0.95162 -0.21956,1.89712 -0.35295,2.83807 l -3.25199,22.793437 h -7.27863 l 3.51245,-24.420207 c 0.0488,-0.49039 0.10189,-1.03299 0.16019,-1.62885 0.0594,-0.59582 0.0916,-1.13863 0.0966,-1.6278 -0.025,-1.6357 -0.28046,-2.86852 -0.76223,-3.69745 -0.48176,-0.82934 -1.03958,-1.38245 -1.67483,-1.65985 -0.63401,-0.27706 -1.19235,-0.40535 -1.67535,-0.38395 -1.0776,0.0181 -2.18034,0.31779 -3.30678,0.89968 -1.12561,0.58066 -2.22469,1.33109 -3.29902,2.24948 -1.07309,0.91838 -2.0709,1.89219 -2.99258,2.92385 -0.92331,1.03042 -1.72044,2.00527 -2.39262,2.92489 l -3.59771,24.420207 h -7.2807 l 2.99724,-20.993027 c 0.21298,-1.6439 0.36695,-3.06987 0.46095,-4.27468 0.0952,-1.20525 0.14201,-2.09343 0.13901,-2.66547 -0.0271,-1.52408 -0.30425,-2.67561 -0.82992,-3.45612 -0.52609,-0.78051 -1.13261,-1.30526 -1.8216,-1.57199 -0.68777,-0.26626 -1.2887,-0.39024 -1.80247,-0.37104 -0.94917,0.0177 -1.91719,0.28023 -2.9037,0.78703 -0.98732,0.5068 -1.94821,1.15064 -2.88096,1.93115 -0.93398,0.78052 -1.79511,1.59054 -2.58382,2.42931 -0.78994,0.84002 -1.46183,1.60143 -2.01745,2.28306 -0.55441,0.68407 -0.94759,1.18003 -1.17822,1.4919 l -3.5109,24.409357 h -7.19594 l 5.48235,-38.455527 h 7.19543 l -0.94258,6.83679 c 2.30664,-2.55656 4.56989,-4.4395 6.78873,-5.6472 2.22087,-1.2085 4.44072,-1.80717 6.65954,-1.79627 z m -31.60892,0.60668 h 7.27397 l -5.47563,38.455527 h -7.27966 z m 84.87182,4.72219 c -1.55485,0.0263 -2.87581,0.36409 -3.96203,1.01493 -1.085,0.64961 -1.97885,1.45594 -2.68304,2.41742 -0.70417,0.96228 -1.26222,1.9237 -1.6738,2.88355 -0.41037,0.96148 -0.72026,1.76389 -0.92708,2.41018 h 16.0936 c 0.0156,-1.88559 -0.27135,-3.47681 -0.86145,-4.77231 -0.5901,-1.29552 -1.40361,-2.2772 -2.44223,-2.94608 -1.03657,-0.66848 -2.21727,-1.00469 -3.54397,-1.00769 z m 73.00278,0 c -1.55485,0.0263 -2.87581,0.36409 -3.96203,1.01493 -1.085,0.64961 -1.97885,1.45594 -2.68304,2.41742 -0.70417,0.96228 -1.26273,1.9237 -1.67432,2.88355 -0.41036,0.96148 -0.71932,1.76389 -0.92656,2.41018 h 16.09359 c 0.0156,-1.88559 -0.27134,-3.47681 -0.86144,-4.77231 -0.5901,-1.29552 -1.4036,-2.2772 -2.44223,-2.94608 -1.03617,-0.66848 -2.21727,-1.00469 -3.54397,-1.00769 z m -27.87272,0.16743 c -1.01975,-0.0312 -2.32213,0.008 -3.90777,0.11783 -1.58688,0.10793 -3.25423,0.4691 -5.00073,1.08055 -2.59102,0.94709 -4.70059,2.27773 -6.32933,3.99304 -1.6287,1.71695 -2.82452,3.61974 -3.58737,5.70766 -0.76368,2.08792 -1.14175,4.16007 -1.13275,6.21926 -0.0168,2.03088 0.38675,3.93168 1.20871,5.70198 0.82195,1.77152 2.15708,3.20986 4.00699,4.31498 1.84867,1.10509 4.30791,1.6747 7.37578,1.7079 0.79363,0 1.43245,-0.021 1.91668,-0.0641 0.483,-0.0427 0.92929,-0.10694 1.33842,-0.19224 z" /></g><style
     type="text/css"
     id="style2">
	.st0{fill:#C70A11;}
	.st1{fill:#2FBB37;}
	.st2{fill:#1E35A0;}
	.st3{fill:#FFFFFF;}
</style></svg>
