<?xml version="1.0" encoding="UTF-8" standalone="no"?>
<!-- Created with Inkscape (http://www.inkscape.org/) -->

<svg
   width="1500"
   height="500"
   viewBox="0 0 396.87498 132.29167"
   version="1.1"
   id="svg5"
   inkscape:version="1.2.2 (732a01da63, 2022-12-09)"
   xml:space="preserve"
   sodipodi:docname="arduboy.svg"
   xmlns:inkscape="http://www.inkscape.org/namespaces/inkscape"
   xmlns:sodipodi="http://sodipodi.sourceforge.net/DTD/sodipodi-0.dtd"
   xmlns="http://www.w3.org/2000/svg"
   xmlns:svg="http://www.w3.org/2000/svg"><sodipodi:namedview
     id="namedview7"
     pagecolor="#000000"
     bordercolor="#111111"
     borderopacity="1"
     inkscape:showpageshadow="0"
     inkscape:pageopacity="0"
     inkscape:pagecheckerboard="1"
     inkscape:deskcolor="#d1d1d1"
     inkscape:document-units="mm"
     showgrid="false"
     inkscape:zoom="0.62760417"
     inkscape:cx="958.40663"
     inkscape:cy="595.91701"
     inkscape:window-width="1920"
     inkscape:window-height="1009"
     inkscape:window-x="-8"
     inkscape:window-y="-8"
     inkscape:window-maximized="1"
     inkscape:current-layer="layer1" /><defs
     id="defs2"><rect
       x="885.42926"
       y="125.5928"
       width="1014.1619"
       height="408.17661"
       id="rect334" /><rect
       x="863.4505"
       y="210.36795"
       width="850.89124"
       height="436.435"
       id="rect4589" /><rect
       x="885.42926"
       y="125.5928"
       width="1014.1619"
       height="408.17661"
       id="rect334-8" /><path
       id="SVGID_5_"
       d="M 943.9,810.2 C 891,754.5 864.2,690.4 864.2,619.6 c 0,-71.2 25.7,-134.6 76.3,-188.3 15.6,-16.6 32.4,-30.6 50.3,-42.2 -19.3,-25 -96.1,-114 -210.9,-114 -109.3,0 -137.5,65.4 -213.3,65.4 -83.5,0 -111.2,-72.4 -219.6,-72.4 0,0 -321.9,9.6 -321.9,400.2 0,140.9 123.1,551.6 306.2,551.6 91.6,0 80.6,-56.3 200.1,-56.3 118.9,0 98.6,47.6 210.5,47.6 115.7,0 266.3,-159.8 280.2,-341.7 -27.9,-14.1 -54.1,-33.9 -78.2,-59.3 z" /><linearGradient
       id="linearGradient4146"><stop
         id="stop4148"
         offset="0"
         style="stop-color:#ffba00;stop-opacity:1;" /><stop
         id="stop4150"
         offset="1"
         style="stop-color:#ff7f02;stop-opacity:1;" /></linearGradient><linearGradient
       id="linearGradient4520"><stop
         id="stop4522"
         offset="0"
         style="stop-color:#794d3b;stop-opacity:1;" /><stop
         id="stop4524"
         offset="1"
         style="stop-color:#5e3c2e;stop-opacity:1;" /></linearGradient><linearGradient
       id="linearGradient4214"><stop
         id="stop4216"
         offset="0"
         style="stop-color:#e5dfdd;stop-opacity:1;" /><stop
         id="stop4218"
         offset="1"
         style="stop-color:#ffffff;stop-opacity:1;" /></linearGradient></defs><g
     inkscape:label="Layer 1"
     inkscape:groupmode="layer"
     id="layer1"><path
       id="rect231"
       style="fill:#ffffff;stroke-width:0.8001;stroke-linecap:square;paint-order:fill markers stroke"
       d="M -55.5625,-76.729167 V 209.02083 h 508 V -76.729167 Z M 71.20961,34.212903 c 1.54797,-0.002 3.32705,5.1e-4 5.3759,5.1e-4 12.5597,0 14.72275,0.0539 15.41921,0.38447 4.55233,2.71759 8.10548,7.88596 11.88971,11.56726 l 0.0744,10.24382 c 0.0648,8.95395 0.0222,10.37813 -0.33538,11.31455 -0.31302,0.81962 -1.57562,2.20648 -5.3759,5.90662 -2.73183,2.65985 -5.45541,5.0967 -5.81102,5.30458 l -0.83612,0.54467 5.92987,5.95933 c 4.88917,4.91381 5.98377,6.14374 6.23786,7.00836 0.96431,3.28141 -2.11489,6.36155 -5.39915,5.4007 -0.88499,-0.25892 -2.44867,-1.70294 -10.01644,-9.24853 l -8.96742,-8.94106 h -5.99188 -5.99188 l -0.006,7.38508 c -0.005,6.62411 -0.0533,7.48899 -0.46922,8.39484 -0.55162,1.20125 -1.11428,1.73979 -2.36626,2.26291 -0.96038,0.40118 -1.91674,0.45828 -2.90473,0.17363 -0.90661,-0.26182 -2.22072,-1.43691 -2.67374,-2.39158 -0.37779,-0.79623 -0.41618,-2.98685 -0.41238,-23.43681 0.003,-8.12422 0.27685,-18.56653 0.0455,-29.04423 l 0.077,-5.96604 0.76378,-0.9431 c 1.39993,-1.7285 0.90823,-1.87098 11.74399,-1.87998 z m 58.57472,0 v 5.1e-4 c 1.54799,-0.002 3.32699,5.2e-4 5.3759,5.2e-4 16.13534,0 15.42831,-0.0679 17.07337,1.62936 1.52984,1.58242 3.38241,3.35245 5.93917,5.90506 3.19674,3.1781 4.13226,4.13497 4.26021,4.80488 0.0896,0.46865 0.16278,9.36245 0.16278,19.76417 0,16.46436 -0.0503,19.0338 -0.38912,19.85098 -0.59702,1.43968 -10.63801,11.51026 -11.70213,11.81013 -4.08037,0.1712 -9.63823,0.0718 -15.81041,0.0718 -7.63562,-9.5e-4 -14.13942,-0.0779 -14.45286,-0.17053 -0.91151,-0.26955 -2.22302,-1.44425 -2.67477,-2.39624 -0.37909,-0.799 -0.41651,-3.26351 -0.41651,-27.28722 0.001,-7.13539 0.0351,-21.951 0.0351,-28.98221 0.0829,-1.97876 0.16053,-2.26321 0.85472,-3.12074 1.39962,-1.729 0.90852,-1.8715 11.74451,-1.8805 z m 185.85325,0 c 8.56943,0 10.23265,0.0591 10.92595,0.38809 0.44976,0.21341 3.20501,2.79817 6.12314,5.74383 4.21339,4.25322 5.3396,5.5312 5.46943,6.20789 0.09,0.46864 0.1633,6.29178 0.1633,12.93978 -0.003,11.4673 0.001,10.81435 0.001,19.79569 0,4.76933 -0.0766,6.12617 -0.38809,6.87968 -0.52368,1.26668 -9.98106,10.79512 -11.35227,11.43755 -0.9374,0.43829 -1.72593,0.47112 -10.9828,0.44442 -5.48505,-0.0157 -10.25685,-0.0812 -10.604,-0.14573 h -0.001 c -0.78269,-0.14521 -11.10119,-10.40407 -11.66027,-11.58224 -0.54327,-2.02854 -0.37931,-5.01154 -0.37931,-7.39697 0,-2.0528 0.004,-12.3671 -0.0791,-16.31838 0,-13.62855 0.053,-15.93149 0.38344,-16.62792 0.50627,-1.06693 10.64814,-11.15069 11.5626,-11.49646 0.45935,-0.17364 4.28581,-0.26872 10.81846,-0.26872 z m -293.041543,0.0119 h 5.17e-4 c 0.553772,-3.6e-4 1.108168,0.0848 1.563212,0.2558 6.384445,3.89115 15.403138,15.07262 21.126354,21.45915 0.0886,0.44393 0.15935,9.28586 0.15555,19.64842 -0.005,17.74145 -0.0326,18.90001 -0.46922,19.85098 -0.551598,1.20125 -1.114798,1.7393 -2.366782,2.2624 -0.960378,0.40118 -1.915712,0.45828 -2.903699,0.17363 v 5.2e-4 c -0.906629,-0.26122 -2.22158,-1.43706 -2.674772,-2.39211 -0.36924,-0.77818 -0.416512,-2.24914 -0.416512,-12.89637 V 70.569853 H 22.724194 8.83822 v 11.93881 c 0,11.87981 0.03089,12.0343 -0.534334,13.1532 -0.835532,1.65391 -1.936672,2.17558 -3.990454,2.17558 -1.481435,0 -1.911097,-0.15125 -2.715597,-0.81442 -1.703892,-1.83005 -1.596285,-0.33338 -1.596285,-20.83904 0,-6.5714 0.06074,-15.29043 0.08113,-20.08146 0.14518,-0.7739 1.083836,-1.89719 5.337659,-6.3221 7.84445,-8.15999 14.825447,-14.99862 15.615584,-15.29777 0.452908,-0.17149 1.006341,-0.25751 1.560112,-0.25787 z m 237.468713,0.0222 c 6.13726,0.002 7.36539,0.0891 7.91166,0.3483 0.45654,0.21664 3.21741,2.80435 6.13554,5.75004 4.2134,4.2532 5.33959,5.5312 5.46943,6.20789 0.0899,0.46865 0.16213,3.19504 0.15813,6.05906 -0.005,4.55303 -0.0653,5.33419 -0.47852,6.21719 -0.2694,0.57572 -1.83784,2.36224 -3.64836,4.1553 l -3.17603,3.14503 3.48713,3.54552 c 2.66256,2.70718 3.52647,3.74703 3.65404,4.39766 0.39233,2.72907 0.16691,5.3333 0.16691,8.49768 0,1.81668 -0.12295,2.95642 -0.38809,3.59771 -0.52368,1.26668 -9.98104,10.7946 -11.35228,11.43703 -0.95291,0.44629 -1.8286,0.47162 -15.52721,0.44442 -7.98457,-0.0159 -14.78502,-0.0799 -15.11278,-0.14211 -0.89964,-0.17067 -2.7548,-2.15318 -2.94039,-3.14297 -0.087,-0.46469 -0.12286,-2.4346 -0.0791,-4.37751 0.11927,-3.37524 0.25292,-18.4812 -0.046,-28.14453 0,-23.50677 0.0217,-24.66873 0.4687,-25.50232 0.25763,-0.48037 0.89287,-1.21705 1.4118,-1.63711 l 0.94361,-0.76378 15.01149,-0.0692 c 3.29331,-0.0146 5.88451,-0.0239 7.93027,-0.0233 z m -79.66336,0.0207 v 5.2e-4 c 1.2967,0.0395 2.27297,0.59503 3.26957,1.82624 l 0.76378,0.9431 0.0682,22.88904 0.0677,22.88904 3.21065,3.21945 3.21066,3.21892 h 7.45536 7.45536 l 3.21582,-3.22254 3.21531,-3.22254 v -22.5971 c 0,-21.52727 0.0219,-22.63835 0.46819,-23.47041 0.77526,-1.44557 2.10215,-2.34404 3.63182,-2.45876 1.59434,-0.11961 2.70731,0.40467 3.84627,1.81177 l 0.76378,0.94362 0.0708,24.02489 c 0.0632,21.52962 0.0284,24.13532 -0.33383,25.09045 -2.2971,3.03708 -3.89281,4.33029 -5.98878,6.59908 -2.64018,2.65798 -4.74933,4.56755 -5.36195,4.85449 -0.9373,0.43831 -1.72696,0.4707 -10.98279,0.4439 -5.48504,-0.0159 -10.24387,-0.0794 -10.57507,-0.14211 v -0.001 c -2.29428,-0.83228 -9.94149,-9.96941 -11.88093,-11.7719 -0.18056,-0.47525 -0.26665,-8.42346 -0.26665,-24.61193 0,-22.80573 0.0214,-23.94939 0.46819,-24.78247 0.77527,-1.44557 2.10216,-2.34405 3.63182,-2.45876 0.19931,-0.0158 0.3915,-0.021 0.57671,-0.015 z m 175.72364,0 0.001,5.2e-4 c 1.29651,0.0394 2.27266,0.59481 3.26956,1.82573 l 0.76378,0.94309 0.12661,4.49844 0.12609,4.49843 6.85539,6.92981 6.8554,6.92981 6.96753,-6.97167 6.96754,-6.97115 v -4.16822 c 0,-4.69384 0.16659,-5.29121 1.85466,-6.65748 0.69064,-0.55896 1.24651,-0.76732 2.24586,-0.84232 1.59404,-0.11959 2.70696,0.40453 3.84628,1.81126 l 0.76378,0.94309 0.0816,5.57382 c 0.0669,4.5886 0.0111,5.75679 -0.31368,6.60735 -2.72015,4.79059 -13.87916,14.37317 -17.77049,17.70435 -0.37162,0.37172 -0.30251,2.23542 -0.30851,14.20688 -0.005,12.36446 -0.0381,13.37136 -0.46922,14.31024 -0.55162,1.20123 -1.11477,1.73927 -2.36678,2.26239 -0.96023,0.40118 -1.91588,0.45865 -2.9037,0.17415 h -5.2e-4 c -0.91098,-0.26271 -2.22155,-1.43901 -2.67994,-2.40502 -0.37987,-0.80033 -0.42111,-2.25597 -0.40411,-14.28646 0.007,-4.92356 0.15813,-7.49515 0.15813,-12.79096 0.0452,-0.15886 -3.98048,-4.29771 -8.79843,-9.19013 -4.81796,-4.89242 -8.93662,-9.26662 -9.15241,-9.72137 -0.31773,-0.66937 -0.39222,-1.8783 -0.39222,-6.34742 0,-6.19396 0.0898,-6.58144 1.85466,-8.00985 0.69062,-0.55896 1.24597,-0.76732 2.24534,-0.84232 0.19927,-0.0158 0.3915,-0.021 0.57671,-0.015 z m -230.1384,8.78758 v 23.1004 23.10195 l 10.54095,-0.008 10.54096,-0.008 3.34502,-3.28559 v 0.002 l 3.34553,-3.28662 v -16.52974 -16.52974 l -3.34553,-3.26906 -3.34502,-3.26956 -10.54096,-0.009 z m -58.57472,10e-4 -0.0398,2.58848 c -0.10062,7.31356 0.0793,16.87535 0.0393,25.18451 l 10.54096,-0.008 10.54096,-0.008 3.34553,-3.28611 3.34501,-3.28559 v -7.34994 -7.34993 c -2.39973,-2.2296 -4.28247,-4.10398 -6.66626,-6.4854 H 77.96477 Z m 175.72364,0 v 9.34155 9.34155 h 10.66395 10.66343 l 3.22254,-3.21531 3.22254,-3.21582 v -2.9037 -2.90318 l -3.21479,-3.22254 -3.21582,-3.22255 h -10.67067 z m 65.00533,0 -3.21221,3.21893 -3.21169,3.21892 -0.0114,14.19035 c -0.004,5.02625 -0.015,9.31159 -0.015,16.41864 l 0.0403,2.71818 3.20549,3.21892 3.20548,3.21893 h 7.45485 7.45536 l 3.21014,-3.21893 3.2091,-3.21892 0.0243,-4.58835 c 0.0235,-3.99838 -0.0129,-10.25543 -0.0129,-16.65945 v -12.0866 l -3.22254,-3.21531 -3.22254,-3.21531 h -7.44813 z m -285.477147,1.83348 c -5.262345,4.8359 -9.024824,8.52644 -13.74128,14.01207 l -0.08372,2.84324 h 13.885974 13.886491 v -1.45625 -1.45676 l -2.376599,-2.36678 c -3.468476,-3.50324 -7.637695,-7.80322 -11.57087,-11.57552 z m 220.472847,25.70128 v 7.51323 c -5.9e-4,3.15466 0,5.0946 0,9.40253 v 1.76733 h 10.67118 10.67067 l 3.21582,-3.22254 c 2.24887,-2.25387 3.2148,-3.39708 3.2148,-3.80235 0.002,-1.55573 0.0113,-3.49521 0,-5.22759 l -3.22255,-3.21582 -3.22254,-3.21479 h -10.66343 z" /><g
       inkscape:label="Layer 1"
       id="layer1-4"
       transform="translate(147.1029,-87.879261)" /></g><style
     type="text/css"
     id="style2">
	.st0{fill:#C70A11;}
	.st1{fill:#2FBB37;}
	.st2{fill:#1E35A0;}
	.st3{fill:#FFFFFF;}
</style></svg>
