<?xml version="1.0" encoding="UTF-8" standalone="no"?>
<!-- Created with Inkscape (http://www.inkscape.org/) -->

<svg
   width="1500"
   height="500"
   viewBox="0 0 396.87498 132.29167"
   version="1.1"
   id="svg5"
   inkscape:version="1.2.2 (732a01da63, 2022-12-09)"
   xml:space="preserve"
   sodipodi:docname="astrocade.svg"
   xmlns:inkscape="http://www.inkscape.org/namespaces/inkscape"
   xmlns:sodipodi="http://sodipodi.sourceforge.net/DTD/sodipodi-0.dtd"
   xmlns="http://www.w3.org/2000/svg"
   xmlns:svg="http://www.w3.org/2000/svg"><sodipodi:namedview
     id="namedview7"
     pagecolor="#000000"
     bordercolor="#111111"
     borderopacity="1"
     inkscape:showpageshadow="0"
     inkscape:pageopacity="0"
     inkscape:pagecheckerboard="1"
     inkscape:deskcolor="#d1d1d1"
     inkscape:document-units="mm"
     showgrid="false"
     inkscape:zoom="0.62760417"
     inkscape:cx="958.40663"
     inkscape:cy="595.91701"
     inkscape:window-width="1920"
     inkscape:window-height="1009"
     inkscape:window-x="-8"
     inkscape:window-y="-8"
     inkscape:window-maximized="1"
     inkscape:current-layer="layer1" /><defs
     id="defs2"><rect
       x="885.42926"
       y="125.5928"
       width="1014.1619"
       height="408.17661"
       id="rect334" /><rect
       x="863.4505"
       y="210.36795"
       width="850.89124"
       height="436.435"
       id="rect4589" /><rect
       x="885.42926"
       y="125.5928"
       width="1014.1619"
       height="408.17661"
       id="rect334-8" /><path
       id="SVGID_5_"
       d="M 943.9,810.2 C 891,754.5 864.2,690.4 864.2,619.6 c 0,-71.2 25.7,-134.6 76.3,-188.3 15.6,-16.6 32.4,-30.6 50.3,-42.2 -19.3,-25 -96.1,-114 -210.9,-114 -109.3,0 -137.5,65.4 -213.3,65.4 -83.5,0 -111.2,-72.4 -219.6,-72.4 0,0 -321.9,9.6 -321.9,400.2 0,140.9 123.1,551.6 306.2,551.6 91.6,0 80.6,-56.3 200.1,-56.3 118.9,0 98.6,47.6 210.5,47.6 115.7,0 266.3,-159.8 280.2,-341.7 -27.9,-14.1 -54.1,-33.9 -78.2,-59.3 z" /><linearGradient
       id="linearGradient4146"><stop
         id="stop4148"
         offset="0"
         style="stop-color:#ffba00;stop-opacity:1;" /><stop
         id="stop4150"
         offset="1"
         style="stop-color:#ff7f02;stop-opacity:1;" /></linearGradient><linearGradient
       id="linearGradient4520"><stop
         id="stop4522"
         offset="0"
         style="stop-color:#794d3b;stop-opacity:1;" /><stop
         id="stop4524"
         offset="1"
         style="stop-color:#5e3c2e;stop-opacity:1;" /></linearGradient><linearGradient
       id="linearGradient4214"><stop
         id="stop4216"
         offset="0"
         style="stop-color:#e5dfdd;stop-opacity:1;" /><stop
         id="stop4218"
         offset="1"
         style="stop-color:#ffffff;stop-opacity:1;" /></linearGradient></defs><g
     inkscape:label="Layer 1"
     inkscape:groupmode="layer"
     id="layer1"><path
       id="rect231"
       style="fill:#ffffff;stroke-width:0.8001;stroke-linecap:square;paint-order:fill markers stroke"
       d="M -55.5625,-76.729167 V 209.02083 h 508 V -76.729167 Z M 346.79227,30.817753 H 362.058 v 57.67504 h -2.95847 v 3.2892 h -3.31143 v 3.40651 h -2.72438 v 2.93729 h -2.4846 v 2.113567 h -3.66955 v 1.19682 h -13.48806 v -1.31413 h -4.0256 v -1.761647 h -2.95589 v -2.58434 h -2.95847 v -3.40651 h -2.96003 v -3.64112 h -2.83962 v -3.99407 h -3.19464 v -25.13697 h 3.07579 v -4.11137 h 2.95847 v -3.29076 h 2.72283 v -3.28662 h 3.07733 v -2.58537 h 3.07423 v -1.87947 l 3.55069,-0.009 v -1.59783 h 11.24324 v 15.23266 h -7.57369 v 3.40651 h -2.96003 v 3.05511 h -3.4308 v 14.68282 h 3.19619 v 3.52382 h 2.71973 v 2.70113 h 8.0486 v -2.70113 h 2.60243 z m -241.00234,6.83886 h 15.58922 v 9.5865 h 2.25361 v 2.5647 h 3.28766 v 3.36 h 3.53105 v 5.43429 h -9.07232 v 21.18941 h 2.74041 v 3.05149 h 2.98431 v 3.23701 h 7.49102 v 15.326197 h -11.02414 v -1.28106 h -3.9579 v -1.955947 h -2.61741 v -2.68459 h -2.62051 v -3.6034 h -2.98225 v -3.5419 h -2.5585 v -3.66386 h -3.04425 v -26.07335 h -8.89094 v -5.43429 h 3.83491 v -3.36 h 3.04581 v -2.5647 h 2.01022 z m -87.566753,5.18057 h 12.948047 v 1.52238 h 3.699516 v 1.92908 h 2.776574 v 2.75384 h 2.960026 v 2.93936 h 3.053561 v 3.39721 H 46.80593 V 101.43618 H 32.513778 V 61.529063 h -3.098519 v -2.84582 h -7.491016 v 2.66082 h -3.329512 v 3.21582 h -3.424598 v 14.87351 h 3.236495 v 3.30471 h 2.961577 v 2.66237 h 7.954036 V 101.43618 H 18.223177 v -1.25212 h -3.886068 v -1.929077 h -2.497005 v -2.66237 H 8.880078 v -3.12074 H 6.01307 v -3.58221 H 3.145028 v -3.94653 H 0 v -25.34109 h 2.682007 v -3.88296 h 3.239595 v -3.37086 h 2.958476 v -3.39876 h 2.775025 v -2.47736 h 2.867008 v -2.11667 l 3.701066,0.004 z m 46.285543,0 h 14.64355 v 1.59008 h 3.53881 v 1.9575 h 2.86701 v 2.48357 h 2.72231 v 3.20497 h 3.01429 v 3.48765 h 2.9285 v 9.41854 H 78.66393 v -2.9962 h -2.9285 v -3.48764 h -7.87136 v 3.24115 h -2.98999 v 2.99723 h 2.98999 v 3.05924 h 19.83032 v 3.4246 h 2.99 v 2.8758 h 3.5388 v 14.68179 h -2.86804 v 3.18068 h -2.86856 v 3.11971 h -2.9285 v 2.50734 h -2.92696 v 1.9575 h -3.2954 v 1.895487 H 64.81258 v -1.895487 h -3.66076 v -1.9575 h -2.68355 v -2.50734 h -3.0515 v -3.18275 h -3.05201 v -3.17966 h -2.9285 v -9.35963 h 15.68276 v 3.05924 h 2.80655 v 3.24115 h 7.8698 v -3.11764 h 3.17397 v -2.9993 h -3.05046 v -3.05924 h -20.5636 v -2.75074 h -2.99052 v -2.99775 h -2.9285 v -15.35203 h 2.62516 v -3.3042 h 3.17345 v -3.20497 h 2.74505 v -2.48357 h 2.6231 v -1.9575 h 3.9057 z m 88.24165,0 h 9.92032 v 1.77198 h 3.20342 v 1.95595 h 3.32848 v 2.56936 h 3.01842 v 3.24114 H 174.81 v 3.05615 h 2.03399 v 13.75833 h -1.6645 v 3.73104 h -2.77193 v 3.30315 h -3.32227 L 179.6774,101.41655 H 164.02513 L 154.7828,79.831823 v -10.94714 h 4.74596 v -2.2009 h 3.14193 v -8.19433 H 152.44186 V 101.41655 H 137.28413 V 55.371813 h 3.32693 v -2.9962 h 2.95847 v -3.24114 h 3.32693 v -2.56936 h 3.08147 v -1.95595 h 2.77244 z m 44.47222,0 h 14.69367 v 1.83399 h 3.54036 v 1.96474 h 2.80344 v 2.37505 h 2.74505 v 3.30419 h 3.10731 v 3.30471 h 3.05046 v 3.91604 h 2.7466 v 0.0615 25.03 0.0646 h -2.74195 v 3.95997 h -3.05046 v 3.30729 h -3.10885 v 3.30264 h -2.74816 v 2.50786 h -2.80344 v 1.83555 h -3.53571 v 1.833987 h -0.24546 -14.38775 -0.0605 v -1.833987 h -3.47576 v -1.83555 h -3.04839 v -2.50786 h -2.49856 v -3.30264 h -3.23236 v -3.30729 h -2.80344 v -3.91294 h -2.98845 v -0.0646 -25.07547 -0.0615 h 2.98845 v -3.91656 h 2.80344 v -3.30419 h 3.23236 v -3.30264 h 2.49856 v -2.50734 h 3.04839 v -1.834 h 3.47111 z m 86.21231,0 h 12.94804 v 1.52238 h 3.69952 v 1.92908 h 2.77657 v 2.75384 h 2.96003 v 2.93936 h 3.05201 v 3.39566 h 3.14503 V 101.43618 H 297.7255 V 61.527513 h -3.09852 v -2.84427 h -7.49102 v 2.66082 h -3.32951 v 3.21582 h -3.4246 v 14.87351 h 3.2365 v 3.30471 h 2.96157 v 2.66237 h 7.95404 V 101.43618 H 283.4349 v -1.25367 h -3.88607 v -1.927527 h -2.49701 v -2.66237 h -2.96002 v -3.12229 h -2.86856 v -3.58066 h -2.86649 v -3.94653 h -3.14503 v -25.34109 h 2.68201 v -3.88296 h 3.23804 v -3.37086 h 2.96003 v -3.39876 h 2.77502 v -2.47736 h 2.86701 v -2.11667 l 3.70107,0.004 z m 99.49987,0 H 396.875 v 15.51843 h -9.73997 v 2.36936 h -3.15072 v 1.80093 h -2.867 v 2.08669 H 396.875 v 14.50247 h -15.66158 v 2.27583 h 2.96158 v 1.79938 h 2.76934 v 2.27634 h 9.93066 v 15.969567 h -13.94023 v -1.27796 h -3.24994 v -1.990057 h -2.96002 v -2.65513 h -2.76624 v -2.93884 h -3.2489 v -3.78995 h -2.57814 v -4.17184 h -3.43803 v -25.41343 l 3.43803,0.0103 v -3.69641 h 2.57814 v -3.22303 h 3.05615 v -3.31763 h 2.67632 v -2.65513 h 3.05459 v -2.17972 h 3.43804 z m -132.3697,0.0718 h 12.11657 v 15.3789 h -8.60206 v 3.02772 h -2.96002 v 3.39618 h -3.40962 v 14.77119 h 2.94659 v 3.11971 h 3.23805 v 3.30264 h 8.78706 v 15.568557 h -12.02511 v -1.916677 h -3.69951 v -1.79524 h -2.96003 v -2.51044 h -2.682 v -3.33313 h -3.14503 v -3.28301 h -2.95848 v -3.94446 h -2.86804 v -25.17624 h 2.86804 v -3.79563 h 2.86701 v -3.43235 h 3.32951 v -3.28146 h 2.58899 v -2.36936 h 2.68356 v -1.98903 h 3.88452 z m -49.91789,15.70963 v 3.05356 h -2.80654 v 3.30574 h -3.29231 v 14.31592 h 3.29231 v 3.30575 h 2.80654 v 3.05769 h 7.79953 v -3.05769 h 3.04839 v -3.30575 h 3.04891 v -14.31178 h -3.04891 v -3.30574 h -3.04839 v -3.0577 z" /><g
       id="g3754"
       transform="matrix(0.26458333,0,0,0.26458333,189.35384,182.64868)" /></g><style
     type="text/css"
     id="style2">
	.st0{fill:#C70A11;}
	.st1{fill:#2FBB37;}
	.st2{fill:#1E35A0;}
	.st3{fill:#FFFFFF;}
</style></svg>
