<?xml version="1.0" encoding="UTF-8" standalone="no"?>
<!-- Created with Inkscape (http://www.inkscape.org/) -->

<svg
   width="1500"
   height="500"
   viewBox="0 0 396.87498 132.29167"
   version="1.1"
   id="svg5"
   inkscape:version="1.2.2 (732a01da63, 2022-12-09)"
   xml:space="preserve"
   sodipodi:docname="atari7800.svg"
   xmlns:inkscape="http://www.inkscape.org/namespaces/inkscape"
   xmlns:sodipodi="http://sodipodi.sourceforge.net/DTD/sodipodi-0.dtd"
   xmlns="http://www.w3.org/2000/svg"
   xmlns:svg="http://www.w3.org/2000/svg"><sodipodi:namedview
     id="namedview7"
     pagecolor="#000000"
     bordercolor="#111111"
     borderopacity="1"
     inkscape:showpageshadow="0"
     inkscape:pageopacity="0"
     inkscape:pagecheckerboard="1"
     inkscape:deskcolor="#d1d1d1"
     inkscape:document-units="mm"
     showgrid="false"
     inkscape:zoom="0.62760417"
     inkscape:cx="708.24896"
     inkscape:cy="595.91701"
     inkscape:window-width="1920"
     inkscape:window-height="1009"
     inkscape:window-x="-8"
     inkscape:window-y="-8"
     inkscape:window-maximized="1"
     inkscape:current-layer="layer1" /><defs
     id="defs2"><rect
       x="885.42926"
       y="125.5928"
       width="1014.1619"
       height="408.17661"
       id="rect334" /><rect
       x="863.4505"
       y="210.36795"
       width="850.89124"
       height="436.435"
       id="rect4589" /><rect
       x="885.42926"
       y="125.5928"
       width="1014.1619"
       height="408.17661"
       id="rect334-8" /><path
       id="SVGID_5_"
       d="M 943.9,810.2 C 891,754.5 864.2,690.4 864.2,619.6 c 0,-71.2 25.7,-134.6 76.3,-188.3 15.6,-16.6 32.4,-30.6 50.3,-42.2 -19.3,-25 -96.1,-114 -210.9,-114 -109.3,0 -137.5,65.4 -213.3,65.4 -83.5,0 -111.2,-72.4 -219.6,-72.4 0,0 -321.9,9.6 -321.9,400.2 0,140.9 123.1,551.6 306.2,551.6 91.6,0 80.6,-56.3 200.1,-56.3 118.9,0 98.6,47.6 210.5,47.6 115.7,0 266.3,-159.8 280.2,-341.7 -27.9,-14.1 -54.1,-33.9 -78.2,-59.3 z" /><linearGradient
       id="linearGradient4146"><stop
         id="stop4148"
         offset="0"
         style="stop-color:#ffba00;stop-opacity:1;" /><stop
         id="stop4150"
         offset="1"
         style="stop-color:#ff7f02;stop-opacity:1;" /></linearGradient><linearGradient
       id="linearGradient4520"><stop
         id="stop4522"
         offset="0"
         style="stop-color:#794d3b;stop-opacity:1;" /><stop
         id="stop4524"
         offset="1"
         style="stop-color:#5e3c2e;stop-opacity:1;" /></linearGradient><linearGradient
       id="linearGradient4214"><stop
         id="stop4216"
         offset="0"
         style="stop-color:#e5dfdd;stop-opacity:1;" /><stop
         id="stop4218"
         offset="1"
         style="stop-color:#ffffff;stop-opacity:1;" /></linearGradient></defs><g
     inkscape:label="Layer 1"
     inkscape:groupmode="layer"
     id="layer1"><path
       id="rect231"
       style="display:inline;fill:#ffffff;stroke-width:0.8001;stroke-linecap:square;paint-order:fill markers stroke"
       d="M -55.5625,-76.729167 V 209.02083 h 508 V -76.729167 Z m 93.468713,100.03059 h 6.453353 v 15.23886 c 0,4.19875 -0.08991,8.48777 -0.271818,12.68501 -0.273602,6.11398 -0.727605,12.22806 -1.637109,18.34204 -0.727604,4.10705 -2.091302,8.21284 -3.908806,12.04629 -2.90891,6.20568 -7.453486,11.40701 -12.635404,15.78767 C 21.270211,101.50684 15.816457,104.42792 10.09034,106.43484 6.817628,107.53075 3.454613,108.44327 0,108.89878 V 96.123333 c 4.090515,-0.63891 8.09089,-2.09854 11.725899,-4.01526 4.364118,-2.28203 8.272554,-5.38478 11.635466,-9.12502 3.454611,-3.83345 6.182006,-8.12251 8.181413,-12.86847 2.45491,-5.38336 3.726388,-11.13224 4.635892,-16.97261 1.091405,-7.39179 1.545643,-14.87506 1.727543,-22.26686 z m 8.998937,0 H 58.81243 V 108.80679 H 46.90515 c -0.0902,-9.033407 0,-18.250247 0,-27.285147 z m 14.54433,0 c 2.09111,0 4.27256,-2.4e-4 6.45387,0.0915 -0.0902,8.66811 0.18162,17.42953 1.18132,25.91573 0.90951,6.66269 2.09103,13.41559 4.72633,19.71146 2.54511,6.11398 6.18196,11.77261 10.90838,16.24346 4.54601,4.28895 10.09001,7.66511 15.99954,9.58184 1.6356,0.4555 3.36282,0.91289 5.09013,1.18649 v 12.774927 c -3.36292,-0.4555 -6.72692,-1.36801 -9.90793,-2.46393 -3.81841,-1.36802 -7.54523,-3.10111 -10.99984,-5.38313 -2.54511,-1.643117 -4.81676,-3.558677 -6.99958,-5.567107 -3.63501,-3.37644 -6.81734,-7.20802 -9.27075,-11.49697 -1.9092,-3.28624 -3.27267,-6.93639 -4.36407,-10.58643 -0.99971,-3.65005 -1.36346,-7.48365 -1.81746,-11.31559 -0.8178,-8.2126 -1.09164,-16.42644 -0.99994,-24.72924 z m 184.52414,0.0413 c 1.01133,-0.0527 2.02834,0.05 3.0055,0.32401 3.54481,0.82081 6.36189,3.92337 7.27139,7.48171 7.45342,25.91712 15.0904,51.92465 22.54384,77.841757 h -13.27154 c -2.00092,-7.20989 -4.09043,-14.328277 -6.18153,-21.536667 h -25.72453 c -2.00091,7.20839 -4.09071,14.326777 -6.27352,21.536667 H 214.0722 c 7.18133,-24.912897 14.36258,-49.734217 21.54391,-74.647117 0.9095,-2.28203 1.18132,-4.83583 2.63653,-6.75256 1.70363,-2.53233 4.68699,-4.08974 7.72098,-4.2478 z m 139.80387,0.0486 c 5.45554,0 11.09751,3.15584 11.09751,9.93428 0,6.87014 -5.54878,9.93221 -11.09751,9.93221 -2.86681,0 -5.64026,-0.83448 -7.58404,-2.31975 -2.3106,-1.8566 -3.6065,-4.4555 -3.6065,-7.61246 0,-3.15545 1.20269,-5.84959 3.6065,-7.61297 2.03549,-1.39207 4.71723,-2.2281 7.58404,-2.32131 z m -232.08145,0.005 c 1.97282,0.16879 3.88147,0.90862 5.38159,2.27738 1.6356,1.36952 2.81711,3.37678 3.45302,5.38521 7.45493,25.91561 15.09042,51.9246 22.54384,77.840207 h -13.27102 c -2.09111,-7.20838 -4.09067,-14.326787 -6.27197,-21.536667 h -25.72453 c -2.09111,7.20988 -4.18241,14.328287 -6.27352,21.536667 h -13.27154 c 7.18132,-24.729497 14.27111,-49.460807 21.45244,-74.190307 1.0012,-2.64733 1.36374,-5.56654 3.18275,-7.66516 2.04544,-2.62328 5.51092,-3.928639 8.79894,-3.64733 z m 143.09566,0.0873 h 15.18047 c 8.54482,0.1834 16.63564,5.47644 20.27215,13.14183 2.5451,5.01806 2.81716,10.85831 2.18126,16.33337 -0.4555,5.75017 -2.90855,11.49918 -7.18096,15.24093 -2.273,2.09862 -5.18207,3.28451 -7.72717,5.20123 -1.3635,1.09442 -1.36351,3.10304 -0.72761,4.47105 6.72735,10.40293 13.72697,20.62384 20.54449,30.935057 h -15.08901 c -6.54541,-9.945917 -12.99934,-19.801667 -19.63497,-29.749087 -1.90921,-2.82773 -2.45491,-6.5692 -1.27331,-9.76374 0.9095,-2.46393 3.09124,-4.28924 5.45445,-5.20175 4.54453,-1.73332 9.09036,-4.471 11.63546,-8.85166 1.9994,-3.19454 1.81774,-7.20976 0.99994,-10.8598 -1.0914,-4.65426 -5.54456,-8.21265 -10.18077,-8.12095 h -9.81801 c -1.4537,0 -2.90886,1.2781 -2.90886,2.73782 V 108.62519 H 285.70194 V 33.612723 c 0,-4.10555 3.09073,-8.21228 7.27294,-9.5803 1.1816,-0.45701 2.545,-0.5488 3.81682,-0.5488 z m -121.71556,0.0915 h 48.08647 v 13.05036 h -17.72554 v 72.365087 h -12.6354 V 36.625483 h -17.72553 z m 170.98542,0 h 13.45293 v 85.415447 h -13.45293 z m 39.71593,7.05848 c -1.47926,0 -4.53099,0.27802 -4.53099,2.69234 0,2.41432 3.05173,2.69234 4.53099,2.69234 1.47928,0 4.53099,-0.27802 4.53099,-2.69234 0,-2.41432 -3.05171,-2.69234 -4.53099,-2.69234 z m -233.0633,12.28762 c -3.18101,10.76823 -6.27193,21.53678 -9.36273,32.30501 h 18.72547 c -3.18101,-10.76823 -6.27192,-21.53678 -9.36274,-32.30501 z m 93.90176,0 c -3.27271,10.76823 -6.27348,21.53678 -9.36428,32.30501 h 18.63504 c -3.09082,-10.76823 -6.27165,-21.53678 -9.27076,-32.30501 z m 139.16154,3.86695 c 5.45554,0 11.09751,3.06207 11.09751,9.93221 0,6.87164 -5.54878,9.93531 -11.09751,9.93531 -2.86681,0 -5.64026,-0.83551 -7.58404,-2.32079 -2.3106,-1.85659 -3.6065,-4.45756 -3.6065,-7.61452 0,-3.15546 1.20269,-5.84804 3.6065,-7.61142 2.03549,-1.48528 4.71723,-2.32079 7.58404,-2.32079 z m 0,7.14788 c -1.47926,0 -4.53099,0.27854 -4.53099,2.69286 0,2.41432 3.05173,2.69234 4.53099,2.69234 1.47928,0 4.53099,-0.27802 4.53099,-2.69234 0,-2.32111 -3.05171,-2.59965 -4.53099,-2.69286 z m 4.53099,15.22595 c 4.25439,0 6.4735,4.9203 6.4735,9.65574 0,4.82864 -2.21911,9.65419 -6.4735,9.65419 -2.31209,0 -4.16127,-1.29882 -5.17902,-3.61994 -0.92453,1.67169 -2.49538,2.69235 -4.34598,2.69235 -4.25436,0 -6.19653,-4.45743 -6.19653,-8.63513 0,-4.17621 1.94217,-8.63359 6.19653,-8.63359 1.75738,0 3.32824,1.11387 4.34598,2.69235 1.10945,-2.22942 2.96014,-3.52786 5.17902,-3.80597 z m -0.64648,7.79745 c -1.01774,0 -1.75751,0.92915 -1.75751,2.13631 0,1.11546 0.73977,2.04305 1.75751,2.13475 0.92454,0 1.6645,-0.92759 1.6645,-2.13475 0,-1.11396 -0.73996,-2.13631 -1.6645,-2.13631 z m -8.78551,0.18656 c -0.83282,0 -1.57199,0.929 -1.57199,1.94975 0,1.11546 0.73917,1.94975 1.57199,1.94975 0.83135,0 1.57097,-0.9275 1.57097,-1.94975 0,-1.11396 -0.64643,-2.04146 -1.57097,-1.94975 z m -6.01152,12.25506 21.91701,9.37772 v 7.890477 l -15.07401,-6.962877 v 9.284177 h -6.843 z" /><g
       id="g4293"
       transform="matrix(0.26458333,0,0,0.26458333,169.53973,139.16809)" /></g><style
     type="text/css"
     id="style2">
	.st0{fill:#C70A11;}
	.st1{fill:#2FBB37;}
	.st2{fill:#1E35A0;}
	.st3{fill:#FFFFFF;}
</style></svg>
