<?xml version="1.0" encoding="UTF-8" standalone="no"?>
<!-- Created with Inkscape (http://www.inkscape.org/) -->

<svg
   width="1500"
   height="500"
   viewBox="0 0 396.87498 132.29167"
   version="1.1"
   id="svg5"
   inkscape:version="1.2.2 (732a01da63, 2022-12-09)"
   xml:space="preserve"
   sodipodi:docname="atarist.svg"
   xmlns:inkscape="http://www.inkscape.org/namespaces/inkscape"
   xmlns:sodipodi="http://sodipodi.sourceforge.net/DTD/sodipodi-0.dtd"
   xmlns="http://www.w3.org/2000/svg"
   xmlns:svg="http://www.w3.org/2000/svg"><sodipodi:namedview
     id="namedview7"
     pagecolor="#000000"
     bordercolor="#111111"
     borderopacity="1"
     inkscape:showpageshadow="0"
     inkscape:pageopacity="0"
     inkscape:pagecheckerboard="1"
     inkscape:deskcolor="#d1d1d1"
     inkscape:document-units="mm"
     showgrid="false"
     inkscape:zoom="0.62760417"
     inkscape:cx="910.6058"
     inkscape:cy="595.91701"
     inkscape:window-width="1920"
     inkscape:window-height="1009"
     inkscape:window-x="-8"
     inkscape:window-y="-8"
     inkscape:window-maximized="1"
     inkscape:current-layer="layer1" /><defs
     id="defs2"><rect
       x="885.42926"
       y="125.5928"
       width="1014.1619"
       height="408.17661"
       id="rect334" /><rect
       x="863.4505"
       y="210.36795"
       width="850.89124"
       height="436.435"
       id="rect4589" /><rect
       x="885.42926"
       y="125.5928"
       width="1014.1619"
       height="408.17661"
       id="rect334-8" /><path
       id="SVGID_5_"
       d="M 943.9,810.2 C 891,754.5 864.2,690.4 864.2,619.6 c 0,-71.2 25.7,-134.6 76.3,-188.3 15.6,-16.6 32.4,-30.6 50.3,-42.2 -19.3,-25 -96.1,-114 -210.9,-114 -109.3,0 -137.5,65.4 -213.3,65.4 -83.5,0 -111.2,-72.4 -219.6,-72.4 0,0 -321.9,9.6 -321.9,400.2 0,140.9 123.1,551.6 306.2,551.6 91.6,0 80.6,-56.3 200.1,-56.3 118.9,0 98.6,47.6 210.5,47.6 115.7,0 266.3,-159.8 280.2,-341.7 -27.9,-14.1 -54.1,-33.9 -78.2,-59.3 z" /><linearGradient
       id="linearGradient4146"><stop
         id="stop4148"
         offset="0"
         style="stop-color:#ffba00;stop-opacity:1;" /><stop
         id="stop4150"
         offset="1"
         style="stop-color:#ff7f02;stop-opacity:1;" /></linearGradient><linearGradient
       id="linearGradient4520"><stop
         id="stop4522"
         offset="0"
         style="stop-color:#794d3b;stop-opacity:1;" /><stop
         id="stop4524"
         offset="1"
         style="stop-color:#5e3c2e;stop-opacity:1;" /></linearGradient><linearGradient
       id="linearGradient4214"><stop
         id="stop4216"
         offset="0"
         style="stop-color:#e5dfdd;stop-opacity:1;" /><stop
         id="stop4218"
         offset="1"
         style="stop-color:#ffffff;stop-opacity:1;" /></linearGradient></defs><g
     inkscape:label="Layer 1"
     inkscape:groupmode="layer"
     id="layer1"><path
       id="rect231"
       style="display:inline;fill:#ffffff;stroke-width:0.8001;stroke-linecap:square;paint-order:fill markers stroke"
       d="M -55.5625,-76.729167 V 209.02083 h 508 V -76.729167 Z m 244.3949,110.12558 c 0.77386,-0.0455 1.55391,0.0253 2.30839,0.22427 2.76984,0.64079 4.87826,3.01791 5.61206,5.70508 5.76709,19.84373 11.55487,39.68752 17.32194,59.53125 -3.41064,0.031 -6.8213,-10e-6 -10.23194,0.0103 -1.59165,-5.4777 -3.15226,-10.96575 -4.75423,-16.45378 -6.57322,0 -13.14649,-0.0104 -19.73006,0.0103 -1.57096,5.48803 -3.1936,10.9554 -4.76457,16.44344 h -10.14925 c 5.47769,-19.04792 11.02777,-38.08555 16.55713,-57.12313 0.57878,-1.71566 0.79583,-3.60702 1.91203,-5.0953 1.33326,-1.93011 3.59694,-3.11589 5.9185,-3.25251 z m -70.92022,0.0294 c 1.51602,0.1299 2.98742,0.69092 4.15789,1.71411 1.27124,1.07487 2.17042,2.55282 2.62516,4.15479 5.77744,19.86439 11.5755,39.71852 17.33228,59.58292 -3.41066,0 -6.81094,-0.0103 -10.2216,0 -1.60195,-5.47769 -3.17292,-10.96574 -4.76457,-16.44344 -6.58357,-0.0103 -13.1775,1e-5 -19.76107,-0.0103 -1.61229,5.47769 -3.20393,10.96574 -4.78523,16.45377 -3.38997,-0.0103 -6.77996,1e-5 -10.16993,-0.0103 5.48804,-18.94456 10.98642,-37.88918 16.49512,-56.83374 0.65114,-1.97404 0.89918,-4.19613 2.32544,-5.80843 1.58905,-2.03476 4.23982,-3.01581 6.76651,-2.79932 z m -72.76765,0.0915 v 65.33968 c -3.028231,0.0103 -6.066818,-0.0104 -9.095051,0.0103 -0.04135,-6.94531 -0.01035,-13.89064 -0.02067,-20.83594 0,-14.83112 0.01032,-29.66229 0,-44.50374 3.038551,-0.0207 6.077144,10e-6 9.115721,-0.0103 z m 89.25554,0 h 36.96931 v 9.97355 c -4.53717,0 -9.07439,-0.0103 -13.61157,0 v 55.37647 h -9.74617 v -55.37647 c -4.53718,-0.0103 -9.07437,0 -13.61157,0 z m 93.44132,0 c 3.88606,0.0104 7.77214,-1e-5 11.6582,0.0103 6.54224,0.12402 12.78476,4.18579 15.61662,10.06656 1.96371,3.82406 2.16008,8.26824 1.66398,12.46436 -0.34107,4.39249 -2.18076,8.785 -5.56038,11.69954 -1.77768,1.59164 -3.99975,2.55282 -5.91179,3.96875 -1.04386,0.79582 -1.10587,2.34612 -0.5581,3.46233 5.1573,7.95816 10.52133,15.80266 15.78198,23.68847 -3.85505,0.0103 -7.69979,-0.0104 -11.55485,0.0103 -5.04361,-7.57576 -10.02523,-15.18255 -15.04818,-22.76864 -1.47793,-2.16007 -1.88102,-5.01261 -0.99218,-7.48275 0.69246,-1.89135 2.3461,-3.26595 4.17545,-3.98942 3.51398,-1.34358 6.97631,-3.44165 8.91935,-6.75927 1.47794,-2.4908 1.40561,-5.56039 0.73381,-8.2889 -0.77515,-3.53467 -4.22714,-6.31486 -7.86515,-6.20118 -2.52182,0.0207 -5.03329,-0.0104 -7.54476,0.0103 -1.13686,-0.031 -2.21175,0.96118 -2.19108,2.11873 -0.0103,17.77668 0.0103,35.55341 -0.0103,53.34042 -3.27628,-0.0103 -6.54224,0 -9.81852,0 -0.0103,-19.14093 0.0103,-38.28192 -0.0103,-57.42285 0.0206,-3.3383 2.40814,-6.5009 5.59139,-7.51376 0.94052,-0.32039 1.9327,-0.43408 2.92489,-0.41341 z m 37.83748,0 h 10.33529 c 0,21.78676 0.0103,43.57359 -0.0103,65.35002 -3.44164,-0.0103 -6.8833,0 -10.32495,0 z m -236.605709,0.0103 c 1.653644,-0.0104 3.307303,0 4.950602,0 0.01032,3.88606 0,7.7618 0,11.64786 0.02064,3.24528 -0.07235,6.48023 -0.206706,9.71517 -0.217037,4.67155 -0.516762,9.36378 -1.291911,13.98365 -0.527102,3.18326 -1.632963,6.26318 -2.997233,9.17773 -2.232419,4.70255 -5.736064,8.68164 -9.673828,12.03027 -3.524326,3.10059 -7.730785,5.36402 -12.154297,6.89364 C 5.198658,97.823423 2.625167,98.495223 0,98.856953 v -9.76684 c 3.162588,-0.47543 6.19083,-1.59164 9.01237,-3.07992 3.348616,-1.76733 6.356207,-4.14445 8.888346,-6.95565 2.614822,-2.89387 4.702574,-6.25285 6.283854,-9.80818 1.860363,-4.09277 2.862856,-8.51628 3.545004,-12.93978 0.847486,-5.62239 1.209241,-11.31715 1.333252,-17.00155 0.02064,-1.92236 0.01033,-3.85506 0.01033,-5.77742 z m 18.097089,0 h 4.92993 c -0.0517,6.63524 0.17569,13.29118 0.96118,19.89542 0.65111,5.1263 1.56062,10.28362 3.60702,15.05851 1.9327,4.61987 4.72323,8.90903 8.36124,12.37134 3.47266,3.30729 7.67913,5.84978 12.24732,7.31739 1.27124,0.40307 2.58382,0.72347 3.90674,0.91984 v 9.76684 c -2.60448,-0.3514 -5.15733,-1.02319 -7.64812,-1.87069 -2.95589,-1.03352 -5.81875,-2.36678 -8.45426,-4.0721 -1.92236,-1.24023 -3.66901,-2.70784 -5.34334,-4.25814 -2.75953,-2.55281 -5.24001,-5.4467 -7.10035,-8.72298 -1.44695,-2.55281 -2.51147,-5.31234 -3.33829,-8.13387 -0.76481,-2.83186 -1.08521,-5.75676 -1.38493,-8.66097 -0.56843,-6.28385 -0.78547,-12.59872 -0.74414,-18.91357 z m 278.13289,0.093 c 7.21402,0 13.84928,1.75701 20.06079,5.53972 l -6.2115,16.19539 c -3.94806,-2.68717 -8.39227,-4.78524 -13.34286,-4.78524 -2.01538,0 -4.9506,0.75448 -4.9506,3.35897 0,2.34611 2.85255,2.68718 4.60954,3.10059 l 5.20898,1.17822 c 9.73584,2.18074 16.78451,7.38974 16.78451,18.12809 0,15.11018 -13.76664,22.57227 -27.44019,22.57227 -7.97885,0 -17.20827,-2.18075 -24.3396,-5.78776 l 7.03833,-17.86971 1.17822,0.91984 c 4.11342,3.18326 9.06405,5.78776 14.35572,5.78776 2.26342,0 5.87044,-0.91985 5.87044,-3.78272 0,-2.85253 -3.0179,-3.10058 -5.11597,-3.52433 l -4.61987,-0.83716 c -8.98135,-1.59163 -16.52612,-6.88331 -16.52612,-16.7845 0,-15.01716 13.68393,-23.40943 27.44018,-23.40943 z m 23.23373,1.00253 H 396.875 v 17.75602 l -12.67106,0.031 v 45.49594 h -22.99601 v -45.49587 l -12.67106,-0.031 z M 189.2391,48.358803 c -2.37713,8.24755 -4.78525,16.49513 -7.15202,24.75301 4.76456,0.0103 9.52913,0 14.30403,0 -2.37712,-8.2579 -4.78524,-16.50546 -7.15201,-24.75301 z m -72.07829,0.031 c -2.41845,8.22688 -4.78524,16.47445 -7.18303,24.70133 4.78525,0.0207 9.57047,0.0103 14.35572,0.0103 -2.38747,-8.22687 -4.77491,-16.47446 -7.17269,-24.71167 z" /><g
       id="g4542"
       transform="matrix(0.26458333,0,0,0.26458333,-276.97593,74.21839)" /></g><style
     type="text/css"
     id="style2">
	.st0{fill:#C70A11;}
	.st1{fill:#2FBB37;}
	.st2{fill:#1E35A0;}
	.st3{fill:#FFFFFF;}
</style></svg>
