<?xml version="1.0" encoding="UTF-8" standalone="no"?>
<!-- Created with Inkscape (http://www.inkscape.org/) -->

<svg
   width="1500"
   height="500"
   viewBox="0 0 396.87498 132.29167"
   version="1.1"
   id="svg5"
   inkscape:version="1.2.2 (732a01da63, 2022-12-09)"
   xml:space="preserve"
   sodipodi:docname="atari5200.svg"
   xmlns:inkscape="http://www.inkscape.org/namespaces/inkscape"
   xmlns:sodipodi="http://sodipodi.sourceforge.net/DTD/sodipodi-0.dtd"
   xmlns="http://www.w3.org/2000/svg"
   xmlns:svg="http://www.w3.org/2000/svg"><sodipodi:namedview
     id="namedview7"
     pagecolor="#000000"
     bordercolor="#111111"
     borderopacity="1"
     inkscape:showpageshadow="0"
     inkscape:pageopacity="0"
     inkscape:pagecheckerboard="1"
     inkscape:deskcolor="#d1d1d1"
     inkscape:document-units="mm"
     showgrid="false"
     inkscape:zoom="0.62760417"
     inkscape:cx="945.65975"
     inkscape:cy="576.79668"
     inkscape:window-width="1920"
     inkscape:window-height="1009"
     inkscape:window-x="-8"
     inkscape:window-y="-8"
     inkscape:window-maximized="1"
     inkscape:current-layer="layer1" /><defs
     id="defs2"><rect
       x="885.42926"
       y="125.5928"
       width="1014.1619"
       height="408.17661"
       id="rect334" /><rect
       x="863.4505"
       y="210.36795"
       width="850.89124"
       height="436.435"
       id="rect4589" /><rect
       x="885.42926"
       y="125.5928"
       width="1014.1619"
       height="408.17661"
       id="rect334-8" /><path
       id="SVGID_5_"
       d="M 943.9,810.2 C 891,754.5 864.2,690.4 864.2,619.6 c 0,-71.2 25.7,-134.6 76.3,-188.3 15.6,-16.6 32.4,-30.6 50.3,-42.2 -19.3,-25 -96.1,-114 -210.9,-114 -109.3,0 -137.5,65.4 -213.3,65.4 -83.5,0 -111.2,-72.4 -219.6,-72.4 0,0 -321.9,9.6 -321.9,400.2 0,140.9 123.1,551.6 306.2,551.6 91.6,0 80.6,-56.3 200.1,-56.3 118.9,0 98.6,47.6 210.5,47.6 115.7,0 266.3,-159.8 280.2,-341.7 -27.9,-14.1 -54.1,-33.9 -78.2,-59.3 z" /><linearGradient
       id="linearGradient4146"><stop
         id="stop4148"
         offset="0"
         style="stop-color:#ffba00;stop-opacity:1;" /><stop
         id="stop4150"
         offset="1"
         style="stop-color:#ff7f02;stop-opacity:1;" /></linearGradient><linearGradient
       id="linearGradient4520"><stop
         id="stop4522"
         offset="0"
         style="stop-color:#794d3b;stop-opacity:1;" /><stop
         id="stop4524"
         offset="1"
         style="stop-color:#5e3c2e;stop-opacity:1;" /></linearGradient><linearGradient
       id="linearGradient4214"><stop
         id="stop4216"
         offset="0"
         style="stop-color:#e5dfdd;stop-opacity:1;" /><stop
         id="stop4218"
         offset="1"
         style="stop-color:#ffffff;stop-opacity:1;" /></linearGradient></defs><g
     inkscape:label="Layer 1"
     inkscape:groupmode="layer"
     id="layer1"><path
       id="rect231"
       style="display:inline;fill:#ffffff;stroke-width:0.8001;stroke-linecap:square;paint-order:fill markers stroke"
       d="M -55.5625,-76.729167 V 209.02083 h 508 V -76.729167 Z m 99.947904,100.03162 c 0.0086,5.09082 -2.05e-4,10.18244 0.0031,15.27659 0.02249,4.25033 -0.09705,8.49854 -0.272335,12.74289 -0.287734,6.13013 -0.670471,12.27293 -1.680517,18.33325 -0.693869,4.17718 -2.131862,8.20676 -3.91449,12.03285 -2.909752,6.16471 -7.481037,11.38072 -12.619902,15.76803 -4.597131,4.066807 -10.084661,7.027347 -15.855879,9.031487 -3.264955,1.12908 -6.624323,2.00193 -10.045382,2.48667 0.0033,-4.26895 0.0033,-8.54164 0,-12.810577 4.118235,-0.62106 8.077134,-2.08853 11.754838,-4.03283 4.362975,-2.31867 8.291405,-5.43673 11.596708,-9.11521 3.414445,-3.79617 6.135462,-8.18977 8.200533,-12.85968 2.431518,-5.36611 3.733293,-11.1621 4.618323,-16.96641 1.109265,-7.37756 1.571212,-14.84064 1.742529,-22.29734 0.02514,-2.52679 0.0041,-5.05444 0.01137,-7.5799 v -0.005 c 2.153045,-0.007 4.306737,1.5e-4 6.461104,-0.005 z m 339.832486,0.005 c 7.0981,0 12.65711,5.63692 12.65711,12.83229 0,6.99257 -5.65833,12.67985 -12.61422,12.67985 -7.01012,0 -12.71343,-5.68728 -12.71343,-12.67985 0,-7.19537 5.57177,-12.83229 12.67054,-12.83229 z m -325.33673,5.2e-4 c 10e-4,28.55807 10e-4,57.11304 0,85.667117 -3.95618,0.006 -7.91315,-0.0214 -11.86801,0.0145 -0.0509,-9.104427 -0.007,-18.211577 -0.0212,-27.316677 -0.006,-19.45214 0.007,-38.89882 -0.007,-58.35096 3.96411,-0.0266 7.93033,-0.004 11.89643,-0.014 z m 2.6448,0.002 v 0.005 c 2.13833,-0.002 4.27552,-0.006 6.42441,-0.005 -0.0695,8.70613 0.22461,17.4292 1.25781,26.07748 0.84468,6.7206 2.0362,13.48835 4.6979,19.74815 2.52346,6.05632 6.16166,11.68483 10.90166,16.22175 4.5257,4.33943 10.0119,7.67492 15.97164,9.59528 1.6629,0.53528 3.36263,0.95514 5.09168,1.20716 -0.002,4.267617 -0.004,8.534847 0,12.801797 -3.39659,-0.4628 -6.72725,-1.34218 -9.96839,-2.44998 -3.86026,-1.34984 -7.59358,-3.09827 -11.02258,-5.34179 -2.50362,-1.617807 -4.78024,-3.554747 -6.96702,-5.574847 -3.60428,-3.34135 -6.83144,-7.1406 -9.2537,-11.44013 -1.89573,-3.34867 -3.27802,-6.96834 -4.36149,-10.65878 -0.99218,-3.70973 -1.41647,-7.54155 -1.80144,-11.35435 -0.7448,-8.24 -1.0234,-16.5214 -0.97048,-24.79332 0,-4.67683 -10e-4,-9.35693 0,-14.03377 -0.004,10e-6 -0.008,0 -0.0124,0 z m 184.48021,0.0145 c 1.00757,-0.05952 2.02394,0.0334 3.00654,0.29353 3.60031,0.83317 6.35394,3.95116 7.30446,7.46207 7.50424,25.96346 15.03509,51.91751 22.53868,77.883617 -4.43971,0.0346 -8.87709,-2.3e-4 -13.31547,0.017 -2.06441,-7.16944 -4.10539,-14.346777 -6.18567,-21.517537 -8.55793,0.005 -17.11417,-0.0147 -25.67078,0.007 -2.0459,7.17476 -4.15609,14.333337 -6.20066,21.508757 -4.4053,0.005 -8.80629,-0.004 -13.21159,0.005 7.13183,-24.922817 14.34818,-49.823167 21.53822,-74.731357 0.76332,-2.2535 1.05706,-4.73348 2.5063,-6.67711 l -0.0109,0.005 c 1.73236,-2.52646 4.67813,-4.07699 7.70082,-4.25556 z m -94.26504,0.0579 c 2.63161,-0.267306 5.35742,0.44321 7.38611,2.22726 1.65959,1.40436 2.82235,3.34252 3.41633,5.42912 7.51152,25.98208 15.05687,51.95204 22.55779,77.939427 -4.43243,0.005 -8.86754,-0.008 -13.29996,0.005 -2.09153,-7.16412 -4.13314,-14.340057 -6.19755,-21.510827 -8.57249,-0.0173 -17.14015,-0.004 -25.71265,-0.009 -2.0988,7.16744 -4.17136,14.342117 -6.23114,21.522197 -4.40928,-0.0146 -8.81768,-0.003 -13.22762,-0.007 7.13647,-24.786497 14.28106,-49.570797 21.45192,-74.349977 0.85395,-2.59395 1.17595,-5.49202 3.03134,-7.60987 l 0.003,0.003 c 1.65364,-2.1265 4.19122,-3.37123 6.82284,-3.63854 z m 145.01595,0.0977 c 5.05618,0.0179 10.11372,0.005 15.16858,0.008 8.51561,0.15826 16.64232,5.46812 20.32796,13.17284 2.55125,5.00305 2.81423,10.82166 2.17196,16.31012 -0.44516,5.74579 -2.84196,11.49103 -7.2347,15.29984 -2.3204,2.07795 -5.2107,3.33865 -7.69514,5.18986 -1.36458,1.0433 -1.43286,3.07166 -0.72708,4.52324 6.71048,10.41504 13.68639,20.66715 20.53776,30.992417 -5.01053,0.009 -10.02185,-0.0112 -15.03371,0.009 -6.55836,-9.904357 -13.0506,-19.859187 -19.58381,-29.777507 -1.92088,-2.82336 -2.44336,-6.56172 -1.29243,-9.78338 0.89694,-2.47161 3.04527,-4.27917 5.43843,-5.21209 4.56737,-1.75279 9.07195,-4.50411 11.60135,-8.83822 1.92485,-3.25624 1.82483,-7.27399 0.95964,-10.8381 -1.01599,-4.62602 -5.49931,-8.26592 -10.23866,-8.107 -3.27752,0.0219 -6.55145,-0.0143 -9.82369,0.015 -1.48165,-0.0346 -2.87519,1.26073 -2.85667,2.76882 -0.0159,23.25647 0.008,46.51411 -0.006,69.769907 -4.26243,-0.009 -8.51869,0 -12.78113,-0.005 -0.008,-25.036517 0.009,-50.074277 -0.008,-75.110137 0.0278,-4.38465 3.12946,-8.51403 7.26622,-9.84591 l 0.004,-0.004 c 1.21774,-0.42357 2.51841,-0.56787 3.80494,-0.53795 z m -121.57656,0.004 5.2e-4,0.004 h 48.10766 v 13.0421 c -5.90616,0.005 -11.80733,-0.007 -17.70952,0.005 0,24.14749 0.005,48.29563 -0.003,72.443117 h -12.6876 c 0,-24.146157 -0.003,-48.294297 0.004,-72.443117 -5.9055,-0.0113 -11.80712,1e-5 -17.71262,-0.005 0,-4.35074 -0.007,-8.69564 0,-13.04572 z m 170.82833,0.004 h 13.4488 c -0.004,28.49889 0.008,56.99283 -0.009,85.490387 -4.47741,-0.0126 -8.95797,3.7e-4 -13.44001,-0.004 V 23.490283 Z m 38.25607,2.81792 c -5.63562,0 -9.89189,4.29365 -9.88467,9.98957 0,5.25307 4.43566,9.52758 9.88673,9.52758 5.39552,0 9.78442,-4.27451 9.78442,-9.52758 0,-5.60283 -4.29763,-9.98957 -9.78442,-9.98957 z m -137.71666,16.58348 c -3.09431,10.79406 -6.22394,21.57849 -9.30434,32.37787 6.20257,0.009 12.40146,0.004 18.60403,0.004 -3.08702,-10.79938 -6.22392,-21.58344 -9.29969,-32.38149 z m -93.8072,0.0537 c -3.14297,10.76258 -6.2221,21.54625 -9.34723,32.31482 6.23028,0.0306 12.45754,0.0114 18.68517,0.0114 -3.11457,-10.77527 -6.2161,-21.55093 -9.33794,-32.32619 z m 231.4696,7.27345 c 7.10207,0 12.66434,5.63626 12.66434,12.83229 0,6.99257 -5.65833,12.67985 -12.61422,12.67985 -7.01012,0 -12.71343,-5.68728 -12.71343,-12.67985 0,-7.19603 5.56123,-12.83229 12.66331,-12.83229 z m 0.0543,2.99775 c -5.63562,0 -9.89189,4.29513 -9.88467,9.98906 0,5.25307 4.43566,9.52706 9.88673,9.52706 5.39552,0 9.78442,-4.27399 9.78442,-9.52706 0,-5.60283 -4.29763,-9.98906 -9.78442,-9.98906 z m -5.43533,23.17378 c 1.80314,0 3.60641,0.68085 4.99349,1.81126 l 9.7591,8.03155 v -9.84281 h 0.007 2.76366 v 15.7701 l -13.04675,-10.68772 c -1.22237,-1.0034 -2.73675,-2.16834 -4.34806,-2.16834 -2.54463,0 -4.63744,2.26664 -4.63744,4.79143 0,2.49488 1.9973,4.53411 4.44469,4.69636 v 3.04374 c -4.31601,-0.48541 -7.21661,-3.30292 -7.21661,-7.7401 0,-4.1446 3.05993,-7.70547 7.28069,-7.70547 z m 9.40666,16.08894 c 5.12298,0 8.63255,4.01492 8.63255,9.034587 0,3.01287 -1.57715,6.02551 -4.25142,7.44916 l -2.12597,-2.26859 c 2.0611,-0.74408 3.60753,-3.23734 3.60753,-5.40639 0,-3.302117 -2.70546,-5.893697 -5.95984,-5.893697 -3.12473,0 -5.76606,2.68532 -5.76606,5.826517 0,1.71622 0.80504,3.49837 2.15904,4.56561 v 0.58446 l -12.46694,-3.75688 v -9.770457 h 2.76986 v 7.675497 h 0.007 l -0.005,-0.008 4.99349,1.52136 -0.0971,-1.71618 c 0,-4.727087 4.02675,-7.836727 8.50284,-7.836727 z" /><g
       transform="matrix(0.11641667,0,0,0.1170305,55.562501,100.03153)"
       id="g4211" /></g><style
     type="text/css"
     id="style2">
	.st0{fill:#C70A11;}
	.st1{fill:#2FBB37;}
	.st2{fill:#1E35A0;}
	.st3{fill:#FFFFFF;}
</style></svg>
