<?xml version="1.0" encoding="UTF-8" standalone="no"?>
<!-- Created with Inkscape (http://www.inkscape.org/) -->

<svg
   width="1500"
   height="500"
   viewBox="0 0 396.87498 132.29167"
   version="1.1"
   id="svg5"
   inkscape:version="1.2.2 (732a01da63, 2022-12-09)"
   xml:space="preserve"
   sodipodi:docname="atarixe.svg"
   xmlns:inkscape="http://www.inkscape.org/namespaces/inkscape"
   xmlns:sodipodi="http://sodipodi.sourceforge.net/DTD/sodipodi-0.dtd"
   xmlns="http://www.w3.org/2000/svg"
   xmlns:svg="http://www.w3.org/2000/svg"><sodipodi:namedview
     id="namedview7"
     pagecolor="#000000"
     bordercolor="#111111"
     borderopacity="1"
     inkscape:showpageshadow="0"
     inkscape:pageopacity="0"
     inkscape:pagecheckerboard="1"
     inkscape:deskcolor="#d1d1d1"
     inkscape:document-units="mm"
     showgrid="false"
     inkscape:zoom="0.62760417"
     inkscape:cx="910.6058"
     inkscape:cy="595.91701"
     inkscape:window-width="1920"
     inkscape:window-height="1009"
     inkscape:window-x="-8"
     inkscape:window-y="-8"
     inkscape:window-maximized="1"
     inkscape:current-layer="layer1" /><defs
     id="defs2"><rect
       x="885.42926"
       y="125.5928"
       width="1014.1619"
       height="408.17661"
       id="rect334" /><rect
       x="863.4505"
       y="210.36795"
       width="850.89124"
       height="436.435"
       id="rect4589" /><rect
       x="885.42926"
       y="125.5928"
       width="1014.1619"
       height="408.17661"
       id="rect334-8" /><path
       id="SVGID_5_"
       d="M 943.9,810.2 C 891,754.5 864.2,690.4 864.2,619.6 c 0,-71.2 25.7,-134.6 76.3,-188.3 15.6,-16.6 32.4,-30.6 50.3,-42.2 -19.3,-25 -96.1,-114 -210.9,-114 -109.3,0 -137.5,65.4 -213.3,65.4 -83.5,0 -111.2,-72.4 -219.6,-72.4 0,0 -321.9,9.6 -321.9,400.2 0,140.9 123.1,551.6 306.2,551.6 91.6,0 80.6,-56.3 200.1,-56.3 118.9,0 98.6,47.6 210.5,47.6 115.7,0 266.3,-159.8 280.2,-341.7 -27.9,-14.1 -54.1,-33.9 -78.2,-59.3 z" /><linearGradient
       id="linearGradient4146"><stop
         id="stop4148"
         offset="0"
         style="stop-color:#ffba00;stop-opacity:1;" /><stop
         id="stop4150"
         offset="1"
         style="stop-color:#ff7f02;stop-opacity:1;" /></linearGradient><linearGradient
       id="linearGradient4520"><stop
         id="stop4522"
         offset="0"
         style="stop-color:#794d3b;stop-opacity:1;" /><stop
         id="stop4524"
         offset="1"
         style="stop-color:#5e3c2e;stop-opacity:1;" /></linearGradient><linearGradient
       id="linearGradient4214"><stop
         id="stop4216"
         offset="0"
         style="stop-color:#e5dfdd;stop-opacity:1;" /><stop
         id="stop4218"
         offset="1"
         style="stop-color:#ffffff;stop-opacity:1;" /></linearGradient></defs><g
     inkscape:label="Layer 1"
     inkscape:groupmode="layer"
     id="layer1"><path
       id="rect231"
       style="display:inline;fill:#ffffff;stroke-width:0.8001;stroke-linecap:square;paint-order:fill markers stroke"
       d="M -55.5625,-76.729167 V 209.02083 h 508 V -76.729167 Z M 143.63723,3.3333332e-7 h 35.01233 L 213.60815,44.076383 248.57552,3.3333333e-7 h 35.01285 L 231.12336,66.145833 269.31328,114.29018 V 71.681413 H 244.88531 L 301.74231,3.3333332e-7 h 1.36839 33.64446 28.64889 V 28.739333 H 304.7938 v 17.35294 h 61.32132 l -20.29644,25.58914 H 304.7938 v 35.021627 h 26.30899 13.32993 21.6824 l -20.29644,25.58862 h -1.38596 -33.62637 -27.21798 -12.48399 -22.51955 L 213.61694,88.215283 178.64956,132.29166 h -35.01233 l 52.4738,-66.145827 z M 154.789,5.3826173 l 45.54296,57.4150957 2.65513,3.34812 -2.65513,3.34812 -45.54296,57.415097 h 21.25917 l 33.34783,-42.041877 4.22094,-5.31957 4.22144,5.31957 33.34732,42.041877 h 19.91868 1.34101 l -7.35356,-9.27024 -38.18992,-48.144857 -2.65513,-3.34812 2.65513,-3.34812 45.54348,-57.4150957 H 251.1857 l -33.33853,42.0418757 -4.22093,5.31957 -4.22145,-5.31957 -33.34732,-42.0418757 z m 149.5547,0.0088 -48.3154,60.9073857 h 13.28498 5.3821 v 5.38262 42.608767 12.61887 h 8.89299 27.21798 32.41146 l 11.74554,-14.82391 h -10.53063 -13.32993 -26.30899 -5.38262 v -5.3821 -35.030927 -5.3821 h 5.38262 38.42401 l 11.75484,-14.81512 h -50.17885 -5.38262 v -5.38262 -17.35294 -5.38262 h 5.38262 55.22815 V 5.3914023 H 336.75516 Z M 97.22042,43.698103 c 0.43203,0 0.85515,0.0543 1.26918,0.16227 1.89913,0.43203 3.34835,2.06087 3.83439,3.91501 3.95128,13.59997 7.92964,27.20011 11.88093,40.80009 -2.34917,0.018 -4.6806,9e-5 -7.02076,0.0181 -1.08008,-3.76228 -2.15082,-7.50681 -3.2489,-11.26908 H 90.40688 c -1.08007,3.76227 -2.1869,7.5068 -3.26698,11.26908 h -6.95771 c 3.76227,-13.05995 7.56094,-26.11123 11.35021,-39.15317 0.38703,-1.18809 0.54007,-2.48401 1.31413,-3.50108 0.97207,-1.4041 2.66377,-2.24121 4.37389,-2.24121 z m -49.40422,0.0181 c 1.19709,0 2.39388,0.38699 3.31195,1.18804 0.88206,0.74706 1.48516,1.76441 1.80919,2.83549 3.96028,13.61798 7.92943,27.21777 11.88971,40.83575 h -7.00216 c -1.08908,-3.74427 -2.16942,-7.50681 -3.2675,-11.26908 -1.51211,-0.009 -3.01496,-0.009 -4.51807,-0.009 -3.00621,0 -6.012653,0.009 -9.02787,0.009 -1.10708,3.74427 -2.186991,7.50681 -3.285071,11.26908 H 30.75988 c 3.762271,-12.97894 7.524162,-25.96701 11.295434,-38.94594 0.432031,-1.3591 0.603113,-2.87098 1.593185,-3.97806 0.990071,-1.26909 2.583591,-1.93528 4.167701,-1.93528 z m 75.65947,0.0718 h 0.16174 c 0.89107,0.009 1.77338,0.009 2.66444,0.009 1.78213,0 3.54623,-0.009 5.32836,-0.009 4.49132,0.081 8.75753,2.87147 10.70167,6.91276 1.3411,2.61919 1.48511,5.67039 1.14308,8.5416 -0.23401,3.00621 -1.49383,6.01252 -3.807,8.01966 -1.22409,1.09808 -2.74561,1.74611 -4.0597,2.71818 -0.72905,0.54004 -0.75608,1.60181 -0.38706,2.38487 3.53726,5.45439 7.21851,10.82786 10.82777,16.23725 h -7.92924 c -3.45624,-5.20237 -6.87688,-10.41342 -10.31513,-15.6068 -1.01707,-1.48511 -1.27793,-3.43853 -0.67489,-5.12165 0.47703,-1.29609 1.61105,-2.23193 2.87114,-2.72697 2.40317,-0.92706 4.77937,-2.35842 6.10247,-4.62659 1.02607,-1.71012 0.96318,-3.80732 0.51315,-5.67045 -0.52204,-2.36717 -2.79018,-4.24832 -5.22036,-4.24832 h -0.17104 c -0.57604,0.009 -1.15202,0.009 -1.72806,0.009 -1.15209,0 -2.30404,-0.009 -3.45612,-0.009 h -0.0274 c -0.77406,0 -1.48467,0.67495 -1.48467,1.44901 -0.018,12.17787 0,24.36511 0,36.54299 h -6.7417 v -39.34179 c 0.027,-2.31317 1.66532,-4.49164 3.85247,-5.1847 0.59405,-0.19801 1.21502,-0.27905 1.83607,-0.27905 z m -63.89584,0.009 h 25.33695 c 0,2.27717 -2.4e-4,4.54546 0.009,6.83163 h -9.3338 v 37.96461 h -6.67815 v -37.96461 h -9.33379 z m 89.9976,0 h 7.07451 v 44.79624 h -7.07451 z m -52.40197,10.17044 c -1.63811,5.64341 -3.28501,11.305 -4.90512,16.96641 h 9.81077 c -1.62012,-5.66141 -3.28553,-11.305 -4.90565,-16.96641 z m -49.40422,0.0181 c -1.65612,5.64341 -3.28561,11.28683 -4.923726,16.93023 1.098079,0.009 2.187506,0.009 3.285586,0.009 2.18716,0 4.3739,-0.009 6.55206,-0.009 -1.62912,-5.6434 -3.2668,-11.28682 -4.91392,-16.93023 z" /><g
       id="g4590"
       transform="matrix(0.26458333,0,0,0.26458333,86.322246,76.729166)" /></g><style
     type="text/css"
     id="style2">
	.st0{fill:#C70A11;}
	.st1{fill:#2FBB37;}
	.st2{fill:#1E35A0;}
	.st3{fill:#FFFFFF;}
</style></svg>
