<?xml version="1.0" encoding="UTF-8" standalone="no"?>
<!-- Created with Inkscape (http://www.inkscape.org/) -->

<svg
   width="1500"
   height="500"
   viewBox="0 0 396.87498 132.29167"
   version="1.1"
   id="svg5"
   inkscape:version="1.2.2 (732a01da63, 2022-12-09)"
   xml:space="preserve"
   sodipodi:docname="atari2600.svg"
   xmlns:inkscape="http://www.inkscape.org/namespaces/inkscape"
   xmlns:sodipodi="http://sodipodi.sourceforge.net/DTD/sodipodi-0.dtd"
   xmlns="http://www.w3.org/2000/svg"
   xmlns:svg="http://www.w3.org/2000/svg"><sodipodi:namedview
     id="namedview7"
     pagecolor="#000000"
     bordercolor="#111111"
     borderopacity="1"
     inkscape:showpageshadow="0"
     inkscape:pageopacity="0"
     inkscape:pagecheckerboard="1"
     inkscape:deskcolor="#d1d1d1"
     inkscape:document-units="mm"
     showgrid="false"
     inkscape:zoom="0.62760417"
     inkscape:cx="958.40663"
     inkscape:cy="595.91701"
     inkscape:window-width="1920"
     inkscape:window-height="1009"
     inkscape:window-x="-8"
     inkscape:window-y="-8"
     inkscape:window-maximized="1"
     inkscape:current-layer="layer1" /><defs
     id="defs2"><rect
       x="885.42926"
       y="125.5928"
       width="1014.1619"
       height="408.17661"
       id="rect334" /><rect
       x="863.4505"
       y="210.36795"
       width="850.89124"
       height="436.435"
       id="rect4589" /><rect
       x="885.42926"
       y="125.5928"
       width="1014.1619"
       height="408.17661"
       id="rect334-8" /><path
       id="SVGID_5_"
       d="M 943.9,810.2 C 891,754.5 864.2,690.4 864.2,619.6 c 0,-71.2 25.7,-134.6 76.3,-188.3 15.6,-16.6 32.4,-30.6 50.3,-42.2 -19.3,-25 -96.1,-114 -210.9,-114 -109.3,0 -137.5,65.4 -213.3,65.4 -83.5,0 -111.2,-72.4 -219.6,-72.4 0,0 -321.9,9.6 -321.9,400.2 0,140.9 123.1,551.6 306.2,551.6 91.6,0 80.6,-56.3 200.1,-56.3 118.9,0 98.6,47.6 210.5,47.6 115.7,0 266.3,-159.8 280.2,-341.7 -27.9,-14.1 -54.1,-33.9 -78.2,-59.3 z" /><linearGradient
       id="linearGradient4146"><stop
         id="stop4148"
         offset="0"
         style="stop-color:#ffba00;stop-opacity:1;" /><stop
         id="stop4150"
         offset="1"
         style="stop-color:#ff7f02;stop-opacity:1;" /></linearGradient><linearGradient
       id="linearGradient4520"><stop
         id="stop4522"
         offset="0"
         style="stop-color:#794d3b;stop-opacity:1;" /><stop
         id="stop4524"
         offset="1"
         style="stop-color:#5e3c2e;stop-opacity:1;" /></linearGradient><linearGradient
       id="linearGradient4214"><stop
         id="stop4216"
         offset="0"
         style="stop-color:#e5dfdd;stop-opacity:1;" /><stop
         id="stop4218"
         offset="1"
         style="stop-color:#ffffff;stop-opacity:1;" /></linearGradient></defs><g
     inkscape:label="Layer 1"
     inkscape:groupmode="layer"
     id="layer1"><path
       id="rect231"
       style="display:inline;fill:#ffffff;stroke-width:0.8001;stroke-linecap:square;paint-order:fill markers stroke"
       d="M -55.5625,-76.729167 V 209.02083 h 508 V -76.729167 Z m 99.946871,100.03317 c 0.0092,5.09082 3.58e-4,10.18244 0.0036,15.27194 0.02249,4.24966 -0.09771,8.49869 -0.272335,12.74237 -0.288387,6.1308 -0.669947,12.27242 -1.68,18.33273 -0.693866,4.17785 -2.131051,8.20743 -3.915007,12.03286 -2.909087,6.16471 -7.480513,11.38072 -12.619385,15.76803 -4.59779,4.066807 -10.084668,7.027857 -15.855879,9.032007 -3.264961,1.12974 -6.624319,2.0014 -10.045382,2.48615 0.0033,-4.26895 0.0033,-8.54112 0,-12.810067 4.118236,-0.62106 8.077134,-2.09067 11.754838,-4.03231 4.362978,-2.31933 8.291409,-5.43924 11.596708,-9.11573 3.414451,-3.79683 6.134803,-8.19191 8.200533,-12.85916 2.431523,-5.36611 3.733436,-11.16195 4.617806,-16.96692 1.109264,-7.37624 1.571064,-14.84014 1.743046,-22.29683 0.02447,-2.52148 0.0033,-5.04994 0.01137,-7.57473 v -0.005 c 2.153043,-0.007 4.307028,1.6e-4 6.460071,-0.005 z m 14.495239,0.003 c 10e-4,28.55342 10e-4,57.10869 0,85.666087 -3.95552,0.009 -7.9125,-0.0184 -11.86801,0.0155 -0.0503,-9.105097 -0.007,-18.212247 -0.0212,-27.316677 -0.005,-19.45098 0.008,-38.90013 -0.006,-58.35045 v -0.003 c 3.96345,-0.0259 7.9301,-0.004 11.89488,-0.0114 z m 2.65048,0 c 2.14043,-0.001 4.28067,-0.005 6.41977,0.002 -0.0695,8.70613 0.22527,17.42891 1.2578,26.07852 0.84468,6.7186 2.03686,13.48628 4.69791,19.74608 2.52412,6.05566 6.16113,11.68482 10.90114,16.22175 4.52635,4.33943 10.0119,7.67543 15.97163,9.59579 1.66291,0.53462 3.36381,0.95382 5.0922,1.20716 -0.002,4.267617 -0.004,8.534997 0,12.801287 -3.39658,-0.4628 -6.72724,-1.34218 -9.96838,-2.44998 -3.86027,-1.34984 -7.59359,-3.09805 -11.02259,-5.34024 -2.50361,-1.619137 -4.77957,-3.556297 -6.96701,-5.576407 -3.60429,-3.34135 -6.83078,-7.14007 -9.2537,-11.43961 -1.89574,-3.34866 -3.27817,-6.96715 -4.36098,-10.65826 -0.99284,-3.70973 -1.41647,-7.54207 -1.80144,-11.35486 -0.74546,-8.24067 -1.02406,-16.52207 -0.97048,-24.79332 0.004,-4.67922 0.003,-9.3609 0.004,-14.03946 z m 184.47505,0.0145 c 1.00761,-0.05952 2.02429,0.0334 3.00705,0.29353 3.59966,0.83317 6.35263,3.95116 7.30446,7.46207 7.50359,25.96346 15.03422,51.91765 22.53713,77.883097 -4.4397,0.0346 -8.87642,-3.8e-4 -13.31547,0.0176 -2.0644,-7.1701 -4.10566,-14.347437 -6.18463,-21.517547 -8.55793,0.004 -17.11388,-0.0146 -25.67182,0.007 -2.04523,7.17476 -4.15454,14.333487 -6.1991,21.508247 -4.40531,0.005 -8.80733,-0.004 -13.21263,0.005 7.13184,-24.922147 14.34855,-49.822797 21.53925,-74.730317 0.74878,-2.25417 1.04274,-4.73348 2.49132,-6.67711 l 0.004,0.005 c 1.73284,-2.52646 4.678,-4.07699 7.70082,-4.25556 z m 138.18433,0.004 c 7.11332,0 12.68553,5.64776 12.68553,12.8571 0,7.00387 -5.66761,12.7031 -12.6354,12.7031 -7.02336,0 -12.73773,-5.69923 -12.73773,-12.7031 h -0.004 c 0,-7.20934 5.5718,-12.8571 12.69173,-12.8571 z m -232.44886,0.0543 c 2.63169,-0.267307 5.3569,0.44321 7.38559,2.22726 1.65894,1.40436 2.82182,3.34252 3.41582,5.42912 7.51217,25.98208 15.05686,51.95152 22.55779,77.938907 -4.43242,0.005 -8.86753,-0.008 -13.29996,0.005 -2.09087,-7.16412 -4.13211,-14.340057 -6.19652,-21.510827 -8.57315,-0.0173 -17.14081,-0.004 -25.71264,-0.008 -2.09881,7.16679 -4.17122,14.341607 -6.23166,21.521687 -4.40862,-0.0146 -8.81783,-0.003 -13.2271,-0.007 7.13646,-24.785827 14.28055,-49.570637 21.4514,-74.350497 0.85395,-2.59395 1.1761,-5.49098 3.03082,-7.60883 l 0.004,0.003 c 1.65332,-2.1265 4.19115,-3.37123 6.82284,-3.63854 z m 145.02215,0.0977 c 5.05618,0.0179 10.11204,0.005 15.16755,0.007 8.51496,0.15826 16.64247,5.46864 20.32745,13.17336 2.55189,5.00305 2.81437,10.82166 2.17144,16.31012 -0.44384,5.74512 -2.84078,11.49051 -7.23418,15.29932 -2.31973,2.07795 -5.21019,3.33851 -7.69463,5.19038 -1.36393,1.04264 -1.43337,3.07167 -0.7276,4.52324 6.71048,10.41437 13.68675,20.66664 20.5388,30.991907 -5.01121,0.009 -10.0225,-0.0112 -15.03371,0.009 -6.55968,-9.904357 -13.05112,-19.858517 -19.58433,-29.777507 -1.92022,-2.82336 -2.44285,-6.56172 -1.29191,-9.78338 0.89693,-2.4716 3.04542,-4.27917 5.43791,-5.21209 4.56802,-1.75213 9.07127,-4.50344 11.60136,-8.83822 1.92418,-3.25623 1.82431,-7.27414 0.95911,-10.83758 -1.01534,-4.62669 -5.49893,-8.26592 -10.23762,-8.107 -3.27752,0.022 -6.55248,-0.0143 -9.82472,0.015 -1.48167,-0.0346 -2.87534,1.26006 -2.85616,2.76882 -0.0152,23.25647 0.007,46.51425 -0.007,69.769387 -4.26112,-0.009 -8.51795,0 -12.77907,-0.005 -0.008,-25.035857 0.008,-50.074137 -0.008,-75.110657 0,-4.38399 3.10049,-8.513 7.24452,-9.84488 l 0.0248,-0.004 c 1.2184,-0.42357 2.51876,-0.56787 3.80596,-0.53795 z m -121.58224,0.007 h 48.10663 v 13.04262 c -5.90549,0.005 -11.80629,-0.007 -17.70848,0.005 0,24.14683 0.005,48.29512 -0.003,72.442607 H 192.889 c 0,-24.145497 -0.004,-48.293787 0.004,-72.442607 -5.9055,-0.0113 -11.80726,1e-5 -17.7121,-0.005 0,-4.35037 -0.007,-8.69358 0,-13.04262 z m 170.82627,0 h 13.44776 c -0.004,28.4989 0.008,56.9935 -0.008,85.490387 -4.47741,-0.0126 -8.95812,-1.4e-4 -13.43949,-0.004 V 23.487743 Z m 38.23746,2.84428 c -5.64833,5.4e-4 -9.90431,4.30315 -9.90431,10.00869 0,5.2637 4.44228,9.54515 9.90327,9.54515 5.4061,0 9.80251,-4.28145 9.80251,-9.54515 0,-5.61311 -4.30328,-10.00813 -9.80147,-10.00869 z m -137.71098,16.55645 c -3.10092,10.79406 -6.23014,21.57835 -9.31054,32.37839 6.20513,0.008 12.40643,0.004 18.61023,0.004 -3.08635,-10.79938 -6.22325,-21.58329 -9.29969,-32.38201 z m -93.79272,0.0532 c -3.14309,10.76295 -6.22253,21.54693 -9.34775,32.31586 6.23026,0.0299 12.45806,0.0114 18.68568,0.0114 -3.11531,-10.77625 -6.216,-21.55165 -9.33793,-32.32723 z m 231.44892,7.09879 c 7.11332,0 12.68553,5.64872 12.68553,12.85607 0,7.00586 -5.66761,12.70465 -12.6354,12.70465 -7.02336,0 -12.73773,-5.69879 -12.73773,-12.70465 h -0.004 c 0,-7.20735 5.5718,-12.85607 12.69173,-12.85607 z m 0.0548,3.00344 c -5.64833,5.4e-4 -9.90431,4.30286 -9.90431,10.00972 0,5.26304 4.44228,9.54464 9.90327,9.54464 5.4061,0 9.80251,-4.2816 9.80251,-9.54464 0,-5.61178 -4.30328,-10.00916 -9.80147,-10.00972 z m 4.62194,23.14587 c 4.45228,0 8.00364,3.63357 8.00364,8.07806 0,4.21642 -3.48605,8.14369 -7.77627,8.14369 -2.45466,0 -4.51824,-1.23296 -6.42389,-2.65927 l -11.1647,-8.33954 1.48312,-2.20504 -0.002,-10e-4 h 0.002 l -5.1e-4,10e-4 8.77569,6.52002 0.0661,-0.0646 c -0.35586,-0.71548 -0.58032,-1.52485 -0.58032,-2.40192 0,-4.02158 3.71135,-7.0714 7.61659,-7.0714 z m 0.31884,2.91869 c -3.03383,3e-4 -5.2281,2.59591 -5.2281,5.19038 0,2.66111 2.42067,5.19141 5.06584,5.19141 2.80921,0 5.1325,-2.39931 5.1325,-5.19141 0,-2.72544 -2.25335,-5.19007 -4.96972,-5.19038 z m -10.39213,14.07976 c 1.80776,0 3.61455,0.68217 5.00228,1.81591 l 9.77925,8.046527 -0.007,-9.857277 0.008,-0.003 h 2.77399 V 108.98514 L 383.28047,98.279343 c -1.22568,-1.00673 -2.7434,-2.17507 -4.35735,-2.17507 -2.54926,0 -4.64623,2.27299 -4.64623,4.801777 0,2.49886 1.99887,4.54223 4.45089,4.70514 v 3.04942 c -4.32461,-0.48607 -7.22798,-3.3094 -7.22798,-7.75456 0,-4.151247 3.06623,-7.721487 7.29361,-7.721487 z" /><g
       transform="matrix(0.11641667,0,0,0.1170305,220.97209,113.4519)"
       id="g3870" /></g><style
     type="text/css"
     id="style2">
	.st0{fill:#C70A11;}
	.st1{fill:#2FBB37;}
	.st2{fill:#1E35A0;}
	.st3{fill:#FFFFFF;}
</style></svg>
