<?xml version="1.0" encoding="UTF-8" standalone="no"?>
<!-- Created with Inkscape (http://www.inkscape.org/) -->

<svg
   width="1500"
   height="500"
   viewBox="0 0 396.87498 132.29167"
   version="1.1"
   id="svg5"
   inkscape:version="1.2.2 (732a01da63, 2022-12-09)"
   xml:space="preserve"
   sodipodi:docname="atarijaguarcd.svg"
   xmlns:inkscape="http://www.inkscape.org/namespaces/inkscape"
   xmlns:sodipodi="http://sodipodi.sourceforge.net/DTD/sodipodi-0.dtd"
   xmlns="http://www.w3.org/2000/svg"
   xmlns:svg="http://www.w3.org/2000/svg"><sodipodi:namedview
     id="namedview7"
     pagecolor="#000000"
     bordercolor="#111111"
     borderopacity="1"
     inkscape:showpageshadow="0"
     inkscape:pageopacity="0"
     inkscape:pagecheckerboard="1"
     inkscape:deskcolor="#d1d1d1"
     inkscape:document-units="mm"
     showgrid="false"
     inkscape:zoom="0.62760417"
     inkscape:cx="910.6058"
     inkscape:cy="595.91701"
     inkscape:window-width="1920"
     inkscape:window-height="1009"
     inkscape:window-x="-8"
     inkscape:window-y="-8"
     inkscape:window-maximized="1"
     inkscape:current-layer="layer1" /><defs
     id="defs2"><rect
       x="885.42926"
       y="125.5928"
       width="1014.1619"
       height="408.17661"
       id="rect334" /><rect
       x="863.4505"
       y="210.36795"
       width="850.89124"
       height="436.435"
       id="rect4589" /><rect
       x="885.42926"
       y="125.5928"
       width="1014.1619"
       height="408.17661"
       id="rect334-8" /><path
       id="SVGID_5_"
       d="M 943.9,810.2 C 891,754.5 864.2,690.4 864.2,619.6 c 0,-71.2 25.7,-134.6 76.3,-188.3 15.6,-16.6 32.4,-30.6 50.3,-42.2 -19.3,-25 -96.1,-114 -210.9,-114 -109.3,0 -137.5,65.4 -213.3,65.4 -83.5,0 -111.2,-72.4 -219.6,-72.4 0,0 -321.9,9.6 -321.9,400.2 0,140.9 123.1,551.6 306.2,551.6 91.6,0 80.6,-56.3 200.1,-56.3 118.9,0 98.6,47.6 210.5,47.6 115.7,0 266.3,-159.8 280.2,-341.7 -27.9,-14.1 -54.1,-33.9 -78.2,-59.3 z" /><linearGradient
       id="linearGradient4146"><stop
         id="stop4148"
         offset="0"
         style="stop-color:#ffba00;stop-opacity:1;" /><stop
         id="stop4150"
         offset="1"
         style="stop-color:#ff7f02;stop-opacity:1;" /></linearGradient><linearGradient
       id="linearGradient4520"><stop
         id="stop4522"
         offset="0"
         style="stop-color:#794d3b;stop-opacity:1;" /><stop
         id="stop4524"
         offset="1"
         style="stop-color:#5e3c2e;stop-opacity:1;" /></linearGradient><linearGradient
       id="linearGradient4214"><stop
         id="stop4216"
         offset="0"
         style="stop-color:#e5dfdd;stop-opacity:1;" /><stop
         id="stop4218"
         offset="1"
         style="stop-color:#ffffff;stop-opacity:1;" /></linearGradient></defs><g
     inkscape:label="Layer 1"
     inkscape:groupmode="layer"
     id="layer1"><path
       id="rect231"
       style="display:inline;fill:#ffffff;stroke-width:0.8001;stroke-linecap:square;paint-order:fill markers stroke"
       d="M -55.5625,-76.729167 V 209.02083 h 508 V -76.729167 Z M 127.04599,0.00310033 c 0.93393,0 2.18736,-0.117661 2.37247,1.06866897 -0.25242,0.496405 -0.93384,0.496266 -1.37976,0.874882 -4.06381,0.622614 -8.32094,0.875129 -12.26696,1.81746 -0.62261,1.623842 1.12748,1.564893 2.06138,1.497583 0.31131,0.437512 0.87475,-0.126203 0.94206,0 0,1.876251 -3.00388,1.127486 -2.44016,3.315043 -1.56496,1.4387387 -3.94584,0.875317 -5.56969,2.2551597 0.12621,0.126206 0.25271,0.184888 0.31161,0.311092 -2.69237,1.068537 -5.50275,2.381036 -8.38863,2.692342 0.43748,1.060123 -1.18655,1.94364 -1.69137,2.566252 -1.80893,-0.126207 -3.12947,0.816075 -4.62711,1.497583 -1.80052,11.265917 -5.67941,21.715977 -8.86819,32.418177 -3.37389,6.38598 -5.19138,13.39436 -10.63501,18.96422 -5.56987,7.3199 -13.51215,15.83455 -23.71794,12.76356 -6.00735,-2.50728 -13.706354,-4.69495 -16.205209,-11.77086 -0.06731,-0.62261 0.496665,-0.87477 1.00149,-1.00097 0.437514,-0.1851 0.311508,0.25208 0.49661,0.43718 0.748823,0.43751 1.623558,0.74892 1.749764,1.81746 3.819812,2.25486 7.067545,5.82246 12.014775,5.25033 9.32237,-0.99282 15.27109,-10.56787 19.71352,-17.76998 6.06626,-12.19984 9.32216,-25.65305 12.32586,-39.173835 -0.1262,-0.126206 -0.25219,-0.185403 -0.31109,-0.311609 -7.75742,0.689922 -15.27128,2.372738 -22.96139,2.566252 -0.43751,-0.622612 -0.56344,-1.312526 -0.94206,-1.943551 -0.81613,-0.311306 -1.94385,0.690135 -2.25516,-0.311092 0.43752,-0.126206 -0.0672,-0.311496 -0.12609,-0.437699 0.94234,0.06731 1.62371,-0.62253 2.06964,-1.379761 0.25241,-0.942331 -0.87506,-1.068372 -1.31258,-1.623674 -0.62262,-0.126206 -1.18624,-0.252654 -1.37976,-0.942578 0,-0.622611 8e-5,-1.253471 0.6227,-1.623673 0.87503,-0.563718 3.31499,0.62248 2.81017,-1.068669 -0.56373,-0.0589 -2.00248,0.311448 -2.06138,-0.874882 0.0673,-0.942331 0.18517,-1.817576 1.31258,-1.69137 8.00983,0.689922 14.95116,-1.6238607 22.83479,-2.0613717 11.32481,-1.564943 22.08616,-4.820842 33.22587,-6.318478 3.76092,-0.6142 7.51334,-1.17816597 11.27425,-1.80919197 z m 65.76085,7.51168597 c 0.13471,0.02051 0.28241,0.07679 0.44648,0.178801 0.244,0.193513 0.48771,0.445751 0.61392,0.75706 -1.00124,1.6238387 2.18773,2.4399777 0.4377,4.0049227 1.0012,0.689922 2.06131,0.31101 2.69234,1.690853 -1.06855,3.062581 -3.2563,5.696043 -4.50154,8.699727 -2.06134,1.379843 -1.12711,4.005143 -2.38073,5.696293 -2.18757,3.12989 -4.25747,6.31883 -5.1325,9.94513 -4.13112,5.44365 -6.13357,11.82104 -7.95094,18.27434 -0.31131,0.93391 -0.25244,2.25484 0.74879,2.75125 2.81858,0.3702 4.75362,-2.94482 6.88227,-4.06383 0.81613,-1.31254 2.56636,-1.69081 3.18895,-3.18844 3.0626,-2.81858 7.75745,-5.82271 8.06876,-10.19783 1.37985,-1.18633 0.1263,-3.44089 1.81746,-4.50101 0,-1.62384 -1.8e-4,-3.69393 1.50585,-4.31654 -0.37862,-1.18633 -0.68962,-2.49881 0.31161,-3.50004 -0.1851,-0.43751 0.31119,-0.68957 0.12609,-1.18598 0.43752,0.25241 0.94225,-0.37027 1.37976,-0.56379 1.62383,-1.12743 -1.38007,-1.94382 0.31109,-3.00395 1.06011,-1.37984 1.37179,-3.49987 2.81895,-4.257102 -0.49641,-0.875023 1.00096,-1.312825 0.94207,-2.255159 1.25362,-1.750045 1.87647,-3.945945 3.75274,-5.384684 0.74879,0.689921 2.18752,-0.126045 2.69234,1.18649 1.25365,-0.622614 2.31358,-0.689921 3.56722,0 0.43752,0.748818 1.12741,1.565138 0.7488,2.440162 -0.18511,0.437512 -0.69,0.748349 -0.56379,1.312064 0.81613,0.437512 2.00244,0.748808 1.94355,1.943551 v 0.942578 c -6.31867,11.26592 -11.19818,23.08727 -15.3293,35.29552 -0.0673,1.12743 -0.56412,2.3137 -0.12661,3.44113 0.31128,0.74882 1.06026,1.69126 1.93528,1.81746 0.25242,0.25241 0.56358,0.68971 0.87489,0.3111 1.87623,-3.69361 5.25883,-6.38603 7.06778,-10.07122 -1.25365,0.1851 -2.69225,0.81628 -4.0721,1.18649 -0.1851,-1.00123 1.18636,-1.56506 1.25367,-2.68408 0.25241,-0.87502 -1.31274,-0.74862 -0.49661,-1.50585 1.31252,-0.74882 3.12961,-1.06032 3.75222,-2.44016 1.25363,-1.00123 3.18903,-0.87499 3.75275,-2.69234 3.18878,-0.68992 2.94455,-4.13114 5.00589,-6.00739 0.31131,-1.94356 2.38125,-3.00363 3.13004,-4.63589 0.25242,0.19352 0.56369,0.1263 0.7488,-0.185 -0.50483,-2.31376 3.56755,-2.25512 3.13004,-4.9475 1.81737,-0.56372 1.56468,-2.4988 3.00343,-3.44114 1.06852,-1.438736 2.12875,-3.003562 3.76101,-4.072099 -0.19351,-0.370202 0.37051,-0.437486 0.31161,-0.748792 2.12868,-2.12866 5.69601,-3.441186 5.4436,-6.756177 0.0673,-0.875023 0.12584,-2.254714 1.18597,-2.8184317 1.06011,0 2.06171,0.4962657 2.81895,0.8748817 0.0673,0.496408 -0.18502,1.438657 0.6227,1.379761 2.18755,0.563718 3.69333,-2.58e-4 5.69578,1.000972 0.31131,0.25241 3e-4,0.690169 0.31161,0.942578 -4.25733,17.517287 -3.31502,37.794547 -6.00739,56.001747 0.37862,2.56618 -0.62292,5.3173 -0.31161,7.63106 -0.43751,0.31131 -0.37847,1.0601 -0.87488,0.74879 0.12621,-0.37861 -0.2526,-0.62247 -0.4377,-0.87488 0,-0.87502 0.25236,-2.25513 -0.50488,-3.00395 -0.1262,0.25241 -0.43748,0.31161 -0.74879,0.31161 -0.43749,-0.31131 -0.25238,-0.87518 -0.74879,-1.18649 1.43872,-0.43751 1.06878,-2.00273 0.94258,-3.00395 -0.94231,-0.0673 -0.74898,-1.12714 -1.18649,-1.69086 0.25241,-0.37861 1.4979,-0.31135 1.00149,-1.31258 -0.31129,-0.81612 -0.62277,0.3702 -1.18649,0 -0.31131,-0.68992 -0.69012,-1.43863 -0.4377,-2.12855 -0.87503,-1.25364 0.12645,-3.38248 -1.05989,-4.38371 0,-0.74882 0.68993,-1.69133 0,-2.38125 -0.74882,0.37861 -0.37847,1.75045 -0.87488,2.12907 -0.25239,-2.56617 -1.56493,-5.51109 0,-7.82485 -0.25239,-1.25364 -1.37982,-2.62498 -0.74879,-4.18992 -0.25241,-2.75127 0.5635,-5.88126 0.31109,-8.57364 -1.50606,-0.25241 -2.69269,1.12708 -4.25762,1.18597 -0.37862,0.87503 -1.49741,0.81629 -2.25464,1.1865 -2.18755,0.4964 -3.18876,3.00385 -5.50251,3.18895 -0.37862,0.37861 -0.93383,0.37869 -1.37976,0.56379 0,-0.12621 0.059,-0.37881 -0.12609,-0.4377 -0.56372,0.74882 -2.18778,0.12601 -1.69137,1.50585 -0.74882,0 -1.25347,0.81619 -1.62367,1.37149 -3.00368,5.63717 -5.81393,11.32484 -9.32243,16.76849 -0.56372,1.56494 -1.81765,2.87769 -2.25516,4.50153 -0.25241,0.31131 -0.81599,0.12632 -0.87488,-0.12609 -0.56372,-0.74882 -1.25356,0.49627 -1.37976,0.87488 -1.43875,2.87748 -2.94482,6.00717 -5.2586,8.26203 -0.25241,0.12621 -0.4376,-0.12597 -0.6227,-0.25218 0.0673,-0.68992 0.50488,-1.31264 0.50488,-1.81746 -1.12742,0.94233 -1.81743,2.06992 -2.56625,3.13004 -1.43873,0.3702 -0.37834,-1.25374 -0.94206,-1.81746 -1.37983,1.37985 -1.81728,4.0721 -4.18993,4.0721 -0.1262,-0.68992 0.18489,-1.5646 0.31109,-2.38073 -0.50479,-0.49641 -1.06833,0.6222 -1.50585,-0.18552 0.31131,-1.25363 1.81725,-2.31348 2.12855,-3.75222 1.31255,-0.49641 0.9421,-2.44012 2.25465,-3.13004 -0.25242,-1.12744 0.87488,-1.31231 0.87488,-2.25465 1.31254,-1.25363 1.25411,-3.13007 2.69286,-4.38371 -3.07099,0.43751 -7.88365,3.62622 -10.07122,-0.56379 0.43751,-0.87502 0.0673,-1.94323 -0.74879,-2.43964 0.43751,-2.62507 -0.12646,-4.50171 0.94206,-6.88279 -0.12621,-1.25363 1.43872,-1.74991 0.74879,-2.87734 -3.18878,3.50009 -6.75639,7.06729 -10.3911,10.26449 -2.69237,1.31253 -5.75451,1.81764 -8.57312,0.2527 -1.0601,-0.62261 -1.00146,-1.75011 -1.75028,-2.50734 -1.12744,-5.00614 -0.93377,-10.1386 1.18649,-14.58103 1.18631,-2.49886 0.62226,-5.75459 2.38074,-7.94215 0.81613,-5.13234 3.56787,-9.449 5.44411,-14.14384 1.12744,-2.692372 1.94318,-5.569862 3.87831,-7.950932 0.94234,-2.944789 2.07015,-6.192106 4.82142,-7.9421507 0.43751,-0.252412 0.94227,-1.001432 1.49758,-0.496611 0.98649,0.272393 1.30283,-1.323331 2.24586,-1.179773 z m 96.69073,1.398365 c 1.4219,0.917092 3.67673,-0.647588 5.11545,0.732255 3.2561,-0.05889 6.13332,2.6840327 9.01082,4.5098017 3.4412,2.936375 5.13261,6.629769 4.94751,11.072195 -0.37862,8.44733 -9.07012,14.95095 -15.89361,18.33325 0.56372,0.93391 1.75001,1.75023 2.69234,2.44016 3.00368,2.94478 5.06514,7.00885 8.57364,9.76012 1.00121,2.12866 3.62636,2.25488 5.2586,4.00493 2.43998,4.31622 7.19382,5.56982 9.88621,9.50743 3.2561,2.81858 6.51224,6.25976 10.07122,8.69973 1.56493,2.87747 4.82094,2.25479 6.13348,5.38468 0.87503,0.31131 1.49774,1.25363 1.81746,1.94355 -2.00247,1.80894 -3.44123,-1.94352 -5.25859,-2.69234 -1.37986,-0.87502 -2.44009,-2.12882 -3.87884,-3.13004 -6.57108,-5.13235 -12.26748,-10.3908 -19.08255,-14.89212 -2.12865,-1.06854 -3.56706,-3.50843 -5.13199,-5.38468 -3.7525,-1.06013 -4.88009,-5.13253 -7.94267,-7.19388 -0.49641,-0.94233 -1.3124,-1.87633 -2.06964,-2.56625 -0.0589,1.06854 -1.25385,0.68981 -1.69137,0.12609 -1.12744,-1.43874 -3.06237,-2.00209 -4.31601,-3.12952 0.50482,-1.56495 -1.31281,-0.564 -1.8092,-1.0604 -0.74882,-0.93392 -1.6911,-2.00254 -2.69234,-2.56626 -0.74882,0.37862 -1.1e-4,0.81615 0.12609,1.19476 2.38109,1.69115 3.06258,5.25868 6.00739,5.8813 2.81857,3.12989 5.94876,5.56976 9.01133,8.13594 -0.25241,0.3113 -0.94224,0.18528 -1.37976,0.43769 5.94849,2.87748 10.50852,9.07017 16.27188,12.45247 2.18757,2.06136 4.44274,4.00493 6.26008,6.00739 0.12621,0.1851 -0.25281,0.25208 -0.12661,0.43718 7.69852,5.19124 13.83219,13.51254 22.08599,17.89607 0.25242,0.62261 -0.43748,0.69011 -0.74879,0.4377 -8.88486,-5.62875 -16.51608,-13.39461 -25.52712,-18.77095 -7.51342,-5.56986 -12.51105,-13.57995 -20.8995,-17.71106 -0.25241,-1.43874 -1.75,-1.37143 -2.69234,-1.94355 -0.94234,-1.37985 -2.94506,-2.56636 -3.00395,-4.38372 -1.31255,-1.43874 -3.75217,-2.06126 -4.3832,-4.18992 -1.18634,-0.62261 -2.2551,-1.81727 -3.75274,-1.37976 -1.06013,-0.68992 -1.56471,-2.38115 -3.00344,-2.56625 -0.25241,-0.56372 -1.06879,-0.50499 -1.00148,-1.18649 1.31254,-0.18511 0.87533,-1.87613 2.25515,-2.06965 1.12745,0.62262 2.38089,0.56361 3.56723,0.12609 1.00121,-1.94355 -1.81743,-2.43957 -2.56625,-3.87831 -0.56372,-0.81613 0.49649,-1.62385 0.6227,-2.00246 2.06134,-0.0589 3.25591,4.06348 5.56968,2.43964 0.5637,0 0.80766,0.69011 1.49759,0.4377 1.49764,-2.49886 3.50015,-4.82122 5.37641,-7.19388 0.62259,-1.50604 1.94373,-2.93623 1.18649,-4.82089 -2.69237,-3.441197 -7.50478,-4.072275 -11.82098,-3.31504 -1.12744,1.00122 -3.38268,0.37049 -3.62665,2.25516 -0.19352,1.62384 -1.25363,2.81849 -1.94355,4.18992 -0.37862,-0.0589 -0.43719,-0.37017 -0.43719,-0.74879 0.31131,-0.1851 -0.25259,-0.49648 -0.43769,-0.56379 -1.94355,2.38107 -2.18751,5.75505 -3.50005,8.57364 -0.43751,0 -0.25238,-0.6227 -0.74879,-0.6227 -3.3823,10.19738 -5.31768,20.89962 -7.63984,31.53451 -0.25242,0.74881 -0.74888,1.06007 -1.3715,1.49758 -0.94234,-0.68992 0.74897,-2.38094 -0.87488,-2.87735 -2.00244,4.56863 -3.81995,9.19589 -5.88129,13.70563 -0.62262,-0.94234 0.0672,-1.81732 -0.56379,-2.69234 -0.87503,-0.1851 -1.31248,0.18496 -1.49759,0.87488 -0.875,1.94356 -0.62237,4.62754 -2.25464,6.00738 0.0673,-0.43751 0.50482,-1.7497 0,-2.38073 -0.81613,0.56372 -0.74891,2.49885 -1.81746,1.94355 0,-1.31254 -1.37141,-2.81858 0,-3.94601 -1.80893,-2.50728 1.18621,-5.57017 2.12855,-8.26255 0.56372,-0.43751 1.75,-0.74865 0.74879,-1.62367 0.62262,-0.68992 -0.37833,-2.69246 1.00149,-2.56625 0.80772,-0.56372 0.0587,-0.9425 -0.4377,-1.18649 1.06852,-2.31377 1.49771,-4.8796 2.56626,-7.19336 1.06013,-0.37862 1.87624,-1.25383 1.94355,-2.44016 -0.81611,-0.12621 -0.62281,-1.12727 -0.4377,-1.62368 2.00247,-5.56985 3.13013,-11.51821 5.69629,-16.83566 0.31131,-1.18633 0.49637,-2.8103 1.49758,-3.87883 0.37862,-2.06977 1.56494,-3.69384 1.94355,-5.6963 -2.62506,0.49641 -5.19118,3.94631 -8.25376,2.25516 0.0589,-3.12989 -4.00504,0.49633 -3.87883,-2.56625 -0.25241,-1.87625 -2.50702,-0.18509 -3.00343,-1.94355 0,-1.25364 0.68959,-1.87652 0.43718,-3.00395 1.12744,0.56371 1.80931,-0.816103 2.87786,-0.748793 1.18634,-0.93392 0.62244,-2.624908 1.62367,-3.626135 2.56617,-0.622615 4.75389,-2.498728 7.19388,-2.877344 0.31131,-0.437509 0.56377,-1.068799 1.25367,-1.001489 1.25365,0.06731 2.4986,-0.748578 3.75223,-1.059884 0,0.0589 0.0672,0.05878 0.12609,0.12609 1.25364,-0.807713 3.00373,-0.749068 4.06383,-1.809191 2.56619,-0.252413 5.00611,-1.749577 7.50497,-1.312065 1.69116,-0.311306 4.07266,0.125742 5.3852,-1.4980997 1.31252,-0.933917 2.87738,0.6226407 4.18992,-0.748791 z M 127.30334,10.257255 c 0.60053,-0.08203 1.21098,0.01052 1.67793,0.448034 0.68993,1.312536 -1.06016,4.501632 1.49759,4.316533 1.31254,2.31376 0.0672,5.064755 0.12609,7.698238 -1.37986,14.269603 -1.6911,29.599583 -1.49759,43.986983 -0.3113,0.62261 0.25224,2.63358 -1.18649,1.81746 -0.68992,-0.68993 -0.74864,-2.07006 -1.62367,-2.25516 -1.06854,1.81735 -0.50495,4.13123 -1.06867,5.82238 -1.18631,-0.43751 -1.25355,-1.6238 -1.37976,-2.69234 1.18634,-2.00246 -1.87653,-3.00373 -1.0604,-5.2586 -0.87503,0.49641 3e-5,2.31392 -0.74879,3.13005 -0.875,0.25241 -1.00103,-0.87534 -1.50585,-1.50637 0.1262,-1.37143 -1.49742,-2.87709 -0.25218,-3.87832 0.87503,-2.25487 -1.49773,-3.62652 -0.6227,-5.69629 -0.12621,-4.06381 -0.3115,-8.88486 -0.4377,-12.76356 l -0.3111,-0.3111 c -3.7525,1.56495 -7.82508,2.94467 -11.57758,4.07211 -0.81611,0.3702 -1.49771,1.2538 -2.56625,1.18649 -4.00492,7.4461 -7.0082,15.32966 -10.6345,22.96087 0.1851,2.06135 -2.56658,2.49883 -2.12907,4.6948 -0.49641,0.94234 -0.74876,2.12866 -1.49758,2.81017 -0.62262,-1.18633 1.37985,-2.7514 0,-3.87883 0.49641,-1.25364 1.0012,-2.69241 0.74879,-4.06384 -1.87626,2.62507 -2.94457,5.75494 -4.31601,8.69973 -0.62262,0.1851 -0.74901,-0.81629 -0.4377,-1.18649 0.3702,-0.74882 1.0602,-1.81692 0.56379,-2.56574 h -0.31936 c -1.18634,1.75846 -1.43921,4.25685 -3.44165,5.25808 0.49641,-1.63225 -0.2523,-2.38068 -0.12609,-3.87832 0,-1.81735 1.75037,-2.49889 1.62419,-4.06383 0.6899,-0.37862 -0.18536,-1.50637 0.94206,-1.50637 -0.0673,-0.81613 1.94342,-1.37132 0.87488,-2.12855 0.81613,-2.38107 2.32207,-4.56862 3.32331,-6.75618 0.87503,-0.74881 0.56406,-2.00256 1.62419,-2.68407 0.81611,-2.12866 1.87618,-4.38333 3.44113,-6.31848 -0.68992,-1.12743 1.31261,-1.18651 0.62271,-2.38125 0.25238,-0.68992 0.87463,-1.25363 1.06815,-1.94355 -0.56372,-0.43751 -2.50706,0.31166 -2.25465,-1.18597 0.31131,-0.43752 -0.50479,-0.43761 -0.74879,-0.62271 0.87503,-0.87502 2.38089,-1.37976 3.56723,-1.37976 0.25241,-0.68992 1.12765,-0.49638 1.69137,-0.74879 0.62259,-1.56494 2.56616,-2.87798 1.94355,-4.75423 1.00123,-0.68992 1.94355,-1.69113 1.94355,-2.75125 0,-2.43997 2.87764,-4.37469 3.18895,-6.57066 1.37983,-1.00123 1.6239,-2.87751 2.50734,-4.06384 1.25365,-0.2524 0.0588,-1.43868 1.37976,-1.49758 1.49762,-2.751271 1.81706,-6.133882 4.50102,-8.262543 1.00123,-1.438739 1.56493,-3.003783 1.94355,-4.627625 0.68993,-0.370202 1.06025,9.8e-5 1.81746,-0.185001 0.56372,0.563715 -9e-5,2.128766 1.37976,1.81746 0.43751,-0.942334 0.059,-3.130042 1.93528,-3.130042 1.50606,-0.06731 3.25603,0.816039 4.18993,-0.622701 0.4291,-0.260824 1.02004,-0.517413 1.62057,-0.599446 z m 32.77474,1.441255 c 0.75724,2.010869 3.94578,0.386634 3.00344,3.011703 1.69116,0.437509 1.49799,3.130183 3.56774,2.255159 0.56372,-0.126203 1.25362,0.563749 0.74879,1.253671 -0.31131,0.185099 -0.69005,0.37869 -1.06867,0.56379 0.31131,0.622614 1.00102,1.438628 0.31109,2.128552 -1.87623,1.001227 -4.06372,1.068372 -6.13347,1.623673 -7.44611,2.818585 -15.51446,8.514495 -18.64434,16.389695 -1.56496,5.25855 -1.81746,12.01487 1.37976,16.6424 2.62506,2.69238 5.69602,5.56977 9.44852,6.19238 3.31499,0.74882 6.19255,-0.49648 8.57364,-2.56625 0,-0.74881 -1.49773,-1.12702 -0.62271,-1.81694 -1.75005,-2.12866 0.18481,-4.44242 -0.3116,-6.75618 0.62261,-2.43997 0.87514,-4.44241 1.81746,-6.75617 -1.37983,-0.12621 -2.69231,0.81598 -4.18993,0.87488 0.62259,-0.31131 -1.8e-4,-1.12751 -0.4377,-0.56379 -2.8186,1.31253 -5.82197,2.12878 -8.44703,3.87883 -0.37862,-0.0589 -1.06861,-0.37006 -0.56379,-0.87488 2.75968,-0.80771 1.69101,-4.50181 4.8209,-4.69532 0.43751,-1.87625 2.69268,-2.12836 4.31653,-2.49856 -0.43752,-1.87625 1.69082,-0.68995 2.43964,-1.25367 2.18755,-1.12743 4.69494,-1.69139 6.57118,-3.75274 0.87503,-0.43751 1.69114,-0.25244 1.94355,0.74879 0.0673,0.3702 -0.0675,0.74906 0.31109,0.94258 1.00121,-0.12621 1.75052,-1.6914 2.69286,-0.94258 -0.0673,9.70098 -5.75543,18.33341 -3.44165,28.27838 -0.12621,0.93392 0.1854,2.0615 0.31161,3.13004 -0.19352,0.31131 -0.5048,0.3115 -0.74879,0.4377 -0.31131,-0.25241 -3e-4,-0.74895 -0.31161,-1.06867 -2.12865,1.12743 -1.0684,-2.25486 -2.81844,-1.94355 -0.87502,-0.87502 -1.3125,-2.18758 -2.75125,-2.06137 -1.75003,1.87625 -2.94502,4.62781 -5.69629,5.06532 -3.69361,1.00123 -8.00977,0.37827 -11.39207,-1.62419 -4.94725,-1.94356 -8.44743,-6.50343 -10.51719,-11.13937 -2.12865,-8.57354 -1.691,-18.64504 3.13004,-25.83873 0.87503,-2.87748 3.69349,-4.5687 4.93872,-7.31997 2.49885,-1.379846 3.56784,-4.753645 6.1929,-6.192387 0.43752,0.06731 1.06816,-7.4e-5 1.06816,-0.56379 3.18878,-1.817355 6.75641,-2.62472 10.50891,-3.188436 z m 77.15343,12.023043 c -3.25609,4.0638 -6.82334,8.00994 -8.82581,12.63747 h 0.43718 c 0.56372,-0.87503 2.69264,-0.3113 3.00395,-1.94355 1.56496,-0.49641 2.94466,-2.38123 4.82089,-1.18649 -0.62261,-1.31254 1.18623,-1.69123 0.1261,-2.56626 -0.12621,-0.68992 0.0677,-1.69114 0.87539,-1.94355 -0.1851,-1.62384 1.00096,-3.00365 0.94207,-4.6948 -0.0673,0.25241 -0.49614,0.80769 -0.94207,0.74879 -0.3113,-0.23558 -0.49659,-0.55521 -0.4377,-1.05161 z m -118.01036,0.63097 c -0.12621,0.2524 -0.4377,0.43748 -0.4377,0.74879 -0.37862,0.43751 -1.12713,2.12875 -1.69086,0.6227 -3.12988,5.00614 -5.75516,10.19735 -8.38863,15.4559 -0.1851,0.37862 -0.1851,0.81615 0,1.19476 1.49765,0.31131 1.31266,-0.87523 1.81746,-1.63246 0.87503,-0.49641 1.87599,-1.06021 3.00343,-0.6227 1.25362,-1.87625 3.56789,-2.44002 5.50303,-3.31504 -0.1178,-4.25732 0.37837,-8.20304 0.19327,-12.45195 z m 154.56059,20.16259 c 1.23716,0.20459 2.73529,1.46672 3.98684,1.30896 0.82454,0.36179 1.44711,0.98428 1.82572,1.80041 0.68993,0.43751 1.38013,1.0015 2.25516,1.0604 2.81858,4.31622 7.75751,7.19343 10.51719,11.70316 1.37983,1.25364 3.81972,1.62408 4.18993,3.75274 2.81857,2.31376 6.31869,4.62765 7.95093,7.82485 1.94358,1.00123 3.69332,2.25471 5.75469,2.81843 5.69605,4.50132 10.01234,9.32232 15.2709,14.26115 3.3823,3.8787 7.94288,4.75385 11.57759,7.82484 2.49885,2.38108 5.822,4.753547 7.69824,7.513237 -0.12618,0.25241 -0.68965,0.25241 -0.94206,0 -7.82473,-6.756187 -16.39032,-11.955747 -24.15615,-18.897037 -1.12742,0.12621 -2.12841,-0.74876 -3.00344,-1.49758 -5.13233,-2.62507 -8.38837,-9.26345 -14.14332,-10.70219 -1.75006,-3.12989 -4.94726,-5.00613 -7.95094,-6.75618 -2.38106,-0.93391 -2.62533,-4.00501 -4.9475,-4.62762 -0.68992,-0.87503 -1.94333,-0.94223 -2.25464,-2.12855 -2.25486,-2.50728 -4.50126,-5.31733 -7.38715,-6.88227 -0.87502,-0.87502 -1.31254,-1.87663 -1.94355,-2.87786 -1.00123,-0.1851 -2.75123,0.56386 -3.44113,-0.87488 -1.00123,0 -2.12914,0.18512 -2.69286,-0.7488 0.12621,-1.06012 1.12744,-1.62392 0,-2.56625 0.44488,-1.17371 1.09325,-1.43172 1.83555,-1.30896 z m -1.28106,6.71018 c 1.94,-0.28711 3.62302,1.76419 5.59604,2.09548 1.06011,1.06013 2.62519,1.62404 3.87883,2.44016 1.25362,1.06013 2.31354,2.25448 2.25465,3.87832 2.18754,3.81981 5.88142,6.50384 9.01133,9.32243 1.00121,1.81735 2.1875,3.56744 3.50005,5.25859 2.62506,-1.12743 4.19011,1.87619 5.82238,3.44114 -0.31131,1.94355 2.1876,2.3137 3.31504,3.44113 0.94234,-0.37862 1.50589,0.56378 1.62368,1.37149 2.12865,0.87502 3.06253,3.62643 5.44359,3.87884 0.94234,1.87625 3.62654,1.06859 3.75275,3.31504 2.00247,1.56494 4.25723,2.75118 6.13347,4.18992 -0.18507,1.25364 1.81706,0.56371 1.69085,1.94355 0.94234,0.68993 1.87631,2.00271 3.25614,1.8092 0.25241,1.81735 2.25493,1.81731 3.31504,2.692337 5.69608,4.82104 12.14133,9.13718 17.58497,14.14332 -0.8161,0 -1.50633,-0.50479 -2.25516,-0.74879 -14.83332,-11.63612 -30.533,-21.900807 -45.18122,-34.226847 -0.81611,-0.43751 -0.87505,-1.37132 -1.25367,-2.12855 -5.06504,-0.68993 -7.75744,-6.19276 -12.01477,-9.01134 -1.56496,-4.25732 -7.44626,-5.19139 -7.94267,-9.88622 -1.56493,-1.43874 -4.31601,-0.87456 -5.0648,-3.31453 -0.43752,-0.18509 -0.4376,-0.81628 -0.62271,-1.18649 -0.87502,-0.87502 -3.44113,-0.6228 -2.69234,-2.44016 0.28922,-0.14829 0.57139,-0.237 0.84853,-0.27802 z m -10.30583,18.93115 c 0.25241,0.11779 0.50516,0.37029 0.75758,0.6227 -0.31131,2.56617 -1.43914,4.88021 -2.87787,7.00887 -0.62261,-0.1262 -0.56362,-1.12748 -1.37976,-1.31258 0.0673,-0.3113 0.4376,-0.49638 0.6227,-0.74879 0.31131,0 0.56369,-0.0676 0.7488,-0.31161 0.94231,-1.69115 -0.1852,-4.56867 2.12855,-5.25859 z m 3.46645,12.11605 c 1.32096,0 3.54222,1.15272 4.77904,1.85105 0.54689,0.31131 0.89194,0.89151 0.89194,1.51412 v 0.4377 h 9.46505 c 4.34988,0 12.7217,2.20462 12.7217,11.914 0,13.293617 -18.10616,23.835517 -31.66059,29.767177 -0.34497,0.15145 -0.73229,-0.0502 -0.85008,-0.40359 -0.19352,-0.57214 -0.26065,-1.36313 0.70693,-1.54823 0.25241,-0.0505 0.4041,-0.31982 0.3452,-0.56379 -0.28607,-1.22841 -0.60603,-4.34978 2.7342,-6.19239 4.23209,-2.33058 19.67962,-11.91354 20.17603,-18.36683 0.488,-6.276607 -3.78612,-7.143237 -7.7742,-7.143237 v -5.1e-4 c -6.81508,0 -8.03493,1.9269 -8.22844,4.3248 -0.32814,4.055387 -2.01912,9.271767 -3.3569,12.620417 -1.83417,4.59386 -6.09162,12.03193 -6.09162,17.31573 0,2.93637 -1.13585,2.70888 -1.13585,2.70888 -0.66468,0 -1.01829,-0.65602 -1.21181,-1.32911 -0.0589,-0.22715 -0.38673,-0.21893 -0.43718,0.008 -0.29448,1.33779 -0.93429,3.10472 -2.28048,3.10472 -2.16231,0 -2.43138,-3.76101 -2.43138,-3.76101 0,-7.52183 8.90178,-30.104097 8.90178,-30.104097 0,0 -6.80666,3.441067 -8.10235,3.474717 -2.45681,0.0757 -2.78493,-3.146537 -0.8077,-3.836457 0.14304,-0.0505 0.1345,-0.26075 -0.017,-0.30282 -0.94234,-0.26083 -2.35593,-0.84974 -2.35593,-2.09496 0,-2.8859 4.7452,-5.34256 13.75627,-7.42074 0,0 0.36192,-5.9738 2.26342,-5.9738 z m 72.74647,3.6773 c 0.54702,-0.0812 1.05007,0.42195 1.37821,1.03404 0.74882,0.31131 1.31282,1.12757 2.25516,1.06867 1.87626,0.94234 2.75123,3.1888 4.6948,4.00493 -1.25365,1.50605 -2.56619,-1.0687 -4.06383,-1.18649 -1.37986,-2.00246 -4.25769,-2.31387 -4.82141,-4.62763 0.1872,-0.17458 0.37473,-0.26644 0.55707,-0.29352 z m -96.6494,1.60507 c 1.13164,-0.0936 2.15356,0.009 2.38073,0.65732 0.44593,1.26205 3.57572,-0.64776 3.86178,2.02779 0.20193,1.89308 -0.90835,1.43866 -1.03456,3.38222 -0.0673,1.11902 -1.59053,2.33096 -3.35742,2.54971 -5.6035,0.46276 -15.65744,4.509757 -15.65744,13.958327 0,0 -0.62286,10.54199 10.35699,10.54199 0,0 6.84857,1.10226 12.32586,-6.46162 0.3029,-0.42069 1.19525,-0.78263 1.67484,-0.58911 0.29448,0.11779 0.5296,0.37877 0.50436,0.91725 -0.0169,0.51324 -0.28586,0.98424 -0.63924,1.35444 -0.25241,0.27765 -0.49647,0.71534 -0.23564,1.2454 0.46275,0.93392 0.33664,2.23783 -0.78238,3.4494 0,0 -5.18301,5.19969 -12.7553,5.19969 -7.58073,0 -17.85369,-2.55763 -17.85369,-16.17938 0,-13.621737 10.22266,-19.847727 18.17357,-21.530467 0.66468,-0.13882 1.9059,-0.42936 3.03754,-0.52296 z m 106.03746,4.99918 c 1.32093,0.1851 2.06979,1.74996 3.25613,2.24637 2.94478,1.94356 6.19236,3.18872 8.88473,5.384687 -3.6263,-0.437517 -6.75624,-3.062437 -10.07122,-4.820897 -0.93393,-0.25241 -1.87591,-0.69027 -2.38074,-1.62419 0.0673,-0.43751 -0.25263,-1.00087 0.3111,-1.18597 z m -3.8592,4.13876 c 0.1103,-0.0242 0.23505,-0.0119 0.35915,0.0512 2.69237,1.25364 5.06498,3.441077 7.50497,4.938717 -0.37862,0.62261 -1.06007,0.12621 -1.49758,0 -2.31376,-1.06012 -4.44253,-2.624977 -6.57118,-4.189927 -0.32814,-0.32813 -0.12626,-0.72738 0.20464,-0.79995 z m 2.83135,8.685257 c 0.69532,0.0643 1.50313,1.51904 2.34869,1.56321 v 0.31988 c -1.0012,0.43751 -2.1284,-0.62305 -3.00343,-1.38028 0.20403,-0.39123 0.42297,-0.52424 0.65474,-0.50281 z" /><g
       id="g4423"
       transform="matrix(0.26458333,0,0,0.26458333,-271.36773,-68.876769)" /></g><style
     type="text/css"
     id="style2">
	.st0{fill:#C70A11;}
	.st1{fill:#2FBB37;}
	.st2{fill:#1E35A0;}
	.st3{fill:#FFFFFF;}
</style></svg>
