<?xml version="1.0" encoding="UTF-8" standalone="no"?>
<!-- Created with Inkscape (http://www.inkscape.org/) -->

<svg
   width="1500"
   height="500"
   viewBox="0 0 396.87498 132.29167"
   version="1.1"
   id="svg5"
   inkscape:version="1.2.2 (732a01da63, 2022-12-09)"
   xml:space="preserve"
   sodipodi:docname="atari800.svg"
   xmlns:inkscape="http://www.inkscape.org/namespaces/inkscape"
   xmlns:sodipodi="http://sodipodi.sourceforge.net/DTD/sodipodi-0.dtd"
   xmlns="http://www.w3.org/2000/svg"
   xmlns:svg="http://www.w3.org/2000/svg"><sodipodi:namedview
     id="namedview7"
     pagecolor="#000000"
     bordercolor="#111111"
     borderopacity="1"
     inkscape:showpageshadow="0"
     inkscape:pageopacity="0"
     inkscape:pagecheckerboard="1"
     inkscape:deskcolor="#d1d1d1"
     inkscape:document-units="mm"
     showgrid="false"
     inkscape:zoom="0.62760417"
     inkscape:cx="958.40663"
     inkscape:cy="595.91701"
     inkscape:window-width="1920"
     inkscape:window-height="1009"
     inkscape:window-x="-8"
     inkscape:window-y="-8"
     inkscape:window-maximized="1"
     inkscape:current-layer="layer1" /><defs
     id="defs2"><rect
       x="885.42926"
       y="125.5928"
       width="1014.1619"
       height="408.17661"
       id="rect334" /><rect
       x="863.4505"
       y="210.36795"
       width="850.89124"
       height="436.435"
       id="rect4589" /><rect
       x="885.42926"
       y="125.5928"
       width="1014.1619"
       height="408.17661"
       id="rect334-8" /><path
       id="SVGID_5_"
       d="M 943.9,810.2 C 891,754.5 864.2,690.4 864.2,619.6 c 0,-71.2 25.7,-134.6 76.3,-188.3 15.6,-16.6 32.4,-30.6 50.3,-42.2 -19.3,-25 -96.1,-114 -210.9,-114 -109.3,0 -137.5,65.4 -213.3,65.4 -83.5,0 -111.2,-72.4 -219.6,-72.4 0,0 -321.9,9.6 -321.9,400.2 0,140.9 123.1,551.6 306.2,551.6 91.6,0 80.6,-56.3 200.1,-56.3 118.9,0 98.6,47.6 210.5,47.6 115.7,0 266.3,-159.8 280.2,-341.7 -27.9,-14.1 -54.1,-33.9 -78.2,-59.3 z" /><linearGradient
       id="linearGradient4146"><stop
         id="stop4148"
         offset="0"
         style="stop-color:#ffba00;stop-opacity:1;" /><stop
         id="stop4150"
         offset="1"
         style="stop-color:#ff7f02;stop-opacity:1;" /></linearGradient><linearGradient
       id="linearGradient4520"><stop
         id="stop4522"
         offset="0"
         style="stop-color:#794d3b;stop-opacity:1;" /><stop
         id="stop4524"
         offset="1"
         style="stop-color:#5e3c2e;stop-opacity:1;" /></linearGradient><linearGradient
       id="linearGradient4214"><stop
         id="stop4216"
         offset="0"
         style="stop-color:#e5dfdd;stop-opacity:1;" /><stop
         id="stop4218"
         offset="1"
         style="stop-color:#ffffff;stop-opacity:1;" /></linearGradient></defs><g
     inkscape:label="Layer 1"
     inkscape:groupmode="layer"
     id="layer1"><path
       id="rect231"
       style="fill:#ffffff;stroke-width:0.8001;stroke-linecap:square;paint-order:fill markers stroke"
       d="M -55.5625,-76.729167 V 209.02083 h 508 V -76.729167 Z m 311.75358,113.41943 c 8.44392,0 15.3169,6.87298 15.3169,15.32723 0,2.12907 -0.43409,4.19613 -1.27124,6.10816 4.64053,4.02042 7.32771,9.82886 7.31738,16.09204 0,11.78221 -9.59116,21.37337 -21.37337,21.37337 -11.78222,0 -21.37338,-9.59116 -21.37338,-21.37337 0,-6.26318 2.68718,-12.06128 7.32772,-16.09204 -0.83716,-1.91203 -1.27124,-3.97909 -1.27124,-6.10816 0,-8.45425 6.88331,-15.32723 15.32723,-15.32723 z m 51.27336,0 c 16.23671,0 29.45556,13.20852 29.44523,29.45557 0,16.24705 -13.20852,29.45557 -29.44523,29.45557 -16.24706,0 -29.45557,-13.21885 -29.45557,-29.45557 0,-16.24705 13.21885,-29.45557 29.45557,-29.45557 z m 59.96533,0 c 16.23672,0 29.44523,13.20852 29.44523,29.45557 0,16.24705 -13.20851,29.45557 -29.44523,29.45557 -16.24705,0 -29.45557,-13.21885 -29.45557,-29.45557 0,-16.24705 13.21885,-29.45557 29.45557,-29.45557 z m -219.01557,1.48053 c 0.66129,-0.0383 1.3286,0.0233 1.97455,0.19379 2.36678,0.54777 4.17546,2.58382 4.79558,4.87826 4.92992,16.96018 9.8702,33.91009 14.80013,50.87028 -2.91455,0.0207 -5.82911,0 -8.74366,0.0103 -1.35392,-4.68188 -2.69751,-9.37411 -4.06176,-14.05599 -5.62239,0 -11.23447,-0.0103 -16.85686,0 -1.34358,4.68188 -2.72851,9.36378 -4.0721,14.04566 h -8.6713 c 4.68188,-16.27806 9.42578,-32.54584 14.13867,-48.81356 0.49609,-1.45728 0.69246,-3.07992 1.64331,-4.35116 1.13946,-1.65106 3.06955,-2.66279 5.05344,-2.77761 z m -61.89235,0.0377 c 1.72858,-0.17441 3.51917,0.29042 4.85242,1.45831 1.0852,0.91984 1.85001,2.18074 2.24275,3.545 4.92993,16.97052 9.89088,33.93077 14.81047,50.90129 -2.91455,0 -5.81877,-0.0103 -8.73332,0 -1.37459,-4.68188 -2.71818,-9.36378 -4.0721,-14.04566 -5.63272,-0.0103 -11.25513,0 -16.87752,-0.0103 -1.37459,4.68187 -2.73885,9.36377 -4.09278,14.05599 -2.89387,-0.0103 -5.78776,0 -8.68164,-0.0103 4.68188,-16.1747 9.37411,-32.3598 14.087,-48.54484 0.5581,-1.69499 0.76481,-3.58635 1.98437,-4.97127 1.08521,-1.3901 2.75178,-2.20375 4.48035,-2.37815 z m -80.341349,0.0114 H 49.66105 c 3.40031,0 6.17017,2.78019 6.1805,6.1805 v 43.48055 c 0,3.4003 -2.78019,6.1805 -6.1805,6.1805 H 6.180501 C 2.780196,94.061443 0,91.281243 0,87.880943 v -43.48055 c 0,-3.40031 2.780196,-6.1805 6.180501,-6.1805 z m 175.565509,0.0517 c 3.31763,0.0103 6.6456,0 9.96322,0 5.59138,0.10336 10.9244,3.57602 13.34285,8.59896 1.67432,3.26595 1.85002,7.06934 1.42627,10.65568 -0.28938,3.75171 -1.87069,7.50342 -4.75423,9.99422 -1.51928,1.35392 -3.42098,2.18075 -5.05395,3.38998 -0.89917,0.68213 -0.94051,2.00504 -0.47543,2.95589 4.40283,6.80061 8.99171,13.49789 13.48755,20.24683 -3.28662,0.0103 -6.58358,-0.0103 -9.8702,0.0103 -4.30981,-6.46988 -8.56795,-12.97079 -12.85709,-19.45101 -1.26091,-1.83968 -1.60197,-4.28914 -0.8475,-6.38721 0.58911,-1.6123 2.00505,-2.79052 3.57601,-3.4003 2.99723,-1.14722 5.95313,-2.94556 7.61711,-5.77743 1.2609,-2.12907 1.19889,-4.75423 0.63045,-7.07967 -0.66146,-3.0179 -3.60702,-5.39502 -6.71794,-5.29167 -2.14973,0.0103 -4.29948,-0.0103 -6.44921,0.0103 -0.97152,-0.0207 -1.89136,0.82682 -1.87069,1.80867 -0.0103,15.19286 0,30.37543 0,45.56828 -2.80086,-0.0103 -5.59139,0 -8.39225,0 -0.0103,-16.3504 0.0103,-32.70086 -0.0103,-49.0616 0,-2.87321 2.03606,-5.57072 4.75423,-6.43889 0.79582,-0.27905 1.65365,-0.37207 2.50114,-0.3514 z m -79.82975,0.0103 h 31.58464 v 8.51627 h -11.6272 v 47.31495 h -8.33024 v -47.31495 c -3.87573,-0.0103 -7.75147,0 -11.6272,0 0,-2.8422 -0.0103,-5.67407 0,-8.51627 z m 112.15853,0 h 8.82633 c 0,18.61383 0.0103,37.22772 -0.0103,55.84155 -2.93522,-0.0103 -5.88078,0 -8.82634,0 0.0103,-18.62416 0.0103,-37.23806 0.0103,-55.84155 z m 42.11629,1.98437 c -6.48022,0 -11.73055,5.25033 -11.73055,11.73055 0,2.6665 0.89917,5.11597 2.39779,7.09001 -5.06429,3.14192 -8.45427,8.72299 -8.45427,15.12052 0,9.82885 7.96852,17.78703 17.78703,17.78703 9.81851,0 17.77669,-7.95818 17.78703,-17.78703 0,-6.39753 -3.38998,-11.98893 -8.45427,-15.12052 1.49862,-1.97404 2.39779,-4.42351 2.39779,-7.09001 0,-6.48022 -5.25033,-11.73055 -11.73055,-11.73055 z m 51.27336,0.0207 c -14.25235,0 -25.85889,11.59621 -25.85889,25.85889 0,14.25235 11.59621,25.85889 25.85889,25.85889 14.26268,0 25.85888,-11.60654 25.85888,-25.85889 0,-14.25235 -11.5962,-25.85889 -25.85888,-25.85889 z m 59.96533,0 c -14.25235,0 -25.85889,11.59621 -25.85889,25.85889 0,14.25235 11.59621,25.85889 25.85889,25.85889 14.25234,0 25.85889,-11.60654 25.85889,-25.85889 0,-14.25235 -11.59621,-25.85889 -25.85889,-25.85889 z m -111.23869,6.04615 c 3.00757,0 5.43636,2.42879 5.43636,5.43636 0,3.00756 -2.43913,5.43636 -5.43636,5.43636 -3.00756,0 -5.43636,-2.4288 -5.43636,-5.43636 0,-3.00757 2.43913,-5.43636 5.43636,-5.43636 z m 51.27336,0.79581 c 10.47997,0 19.01692,8.52663 19.01692,19.01693 0,10.4903 -8.53695,19.01693 -19.01692,19.01693 -10.49031,0 -19.01693,-8.53696 -19.01693,-19.01693 0,-10.4903 8.53696,-19.01693 19.01693,-19.01693 z m 59.96533,0 c 10.47997,0 19.00659,8.52663 19.01693,19.01693 0,10.4903 -8.53696,19.01693 -19.01693,19.01693 -10.49031,0 -19.01693,-8.53696 -19.01693,-19.01693 0,-10.4903 8.53696,-19.01693 19.01693,-19.01693 z m -345.922039,1.64331 c 0,1.06454 0.01033,2.13941 0,3.21428 -0.07235,3.17293 -0.268718,6.33553 -0.744141,9.46712 -0.382405,2.47013 -0.940512,4.92993 -1.974039,7.20369 -0.888834,1.98438 -2.046388,3.84473 -3.503662,5.45704 -1.415933,1.56062 -3.090253,2.88354 -4.950603,3.86539 -1.570961,0.82683 -3.255617,1.44694 -5.012613,1.71566 v 5.43636 c 1.467609,-0.2067 2.893881,-0.57878 4.289143,-1.0542 2.470131,-0.84749 4.805911,-2.1084 6.769613,-3.83439 2.191078,-1.86035 4.144451,-4.0721 5.384684,-6.68693 0.764811,-1.62264 1.374594,-3.32796 1.674317,-5.10563 0.423746,-2.57348 0.589111,-5.17798 0.713134,-7.78247 0.07235,-1.79834 0.124024,-3.59668 0.113689,-5.40536 0,-2.16007 0.01033,-4.32015 0,-6.49056 z m 10.076904,0 v 5.96346 c -0.02067,3.514 0.09302,7.028 0.413412,10.52133 0.165364,1.6123 0.341065,3.24528 0.764811,4.81624 0.465087,1.57096 1.0542,3.11092 1.860352,4.52685 1.033527,1.82935 2.408123,3.44166 3.948079,4.85759 0.94051,0.85783 1.912029,1.68465 2.976563,2.36678 1.467609,0.95084 3.059248,1.69499 4.702558,2.26343 1.37459,0.47542 2.80086,0.84749 4.2478,1.04386 v -5.43636 c -0.7338,-0.11369 -1.45728,-0.28939 -2.17041,-0.51676 -2.54248,-0.81649 -4.878258,-2.23243 -6.810954,-4.07211 -2.025714,-1.92236 -3.576011,-4.30981 -4.650879,-6.8833 -1.136881,-2.65616 -1.643311,-5.52938 -2.005046,-8.38191 -0.444417,-3.66903 -0.56844,-7.3794 -0.537435,-11.0691 z m -6.201171,0.0207 v 24.76335 c 0.01033,3.86539 -0.01034,7.7308 0.01033,11.59619 1.68465,-0.0207 3.37964,-0.0103 5.06429,-0.0103 v -36.34921 c -1.694985,0 -3.37964,-0.0103 -5.074625,0 z m 230.807616,1.13689 c -1.02319,0 -1.83968,0.82682 -1.83968,1.83968 0,1.01285 0.82682,1.83968 1.83968,1.83968 1.01286,0 1.83968,-0.82683 1.83968,-1.83968 0,-1.01286 -0.82682,-1.83968 -1.83968,-1.83968 z m 51.27336,0.79581 c -8.50594,0 -15.43059,6.91432 -15.43059,15.42025 0,8.4956 6.92465,15.42025 15.43059,15.42025 8.50593,0 15.42024,-6.91432 15.42024,-15.42025 0,-8.4956 -6.91431,-15.42025 -15.42024,-15.42025 z m 59.96533,0 c -8.50593,0 -15.43058,6.91432 -15.43058,15.42025 0,8.4956 6.92465,15.42025 15.43058,15.42025 8.4956,0 15.42025,-6.91432 15.42025,-15.42025 0,-8.4956 -6.91432,-15.42025 -15.42025,-15.42025 z m -218.67399,0.22738 c -2.02572,7.04866 -4.08244,14.09734 -6.10816,21.14599 4.0721,0.0103 8.14421,0 12.21631,0 -2.02571,-7.05899 -4.08244,-14.09733 -6.10815,-21.14599 z m -61.5673,0.031 c -2.06706,7.02799 -4.08244,14.07667 -6.13916,21.10466 4.09277,0.0207 8.17521,0.0103 12.26798,0.0103 -2.04638,-7.03832 -4.08244,-14.07666 -6.12882,-21.11499 z m 169.0026,12.90878 c 5.8601,0 10.62468,4.75424 10.62468,10.62467 0,5.87044 -4.75424,10.62468 -10.62468,10.62468 -5.87044,0 -10.62467,-4.75424 -10.62467,-10.62468 0,-5.87043 4.75423,-10.62467 10.62467,-10.62467 z m 0,3.58634 c -3.87573,0 -7.02799,3.15227 -7.02799,7.028 0,3.87573 3.15226,7.02799 7.02799,7.02799 3.87573,0 7.028,-3.15226 7.028,-7.02799 0,-3.87573 -3.15227,-7.028 -7.028,-7.028 z" /><g
       id="g3831"
       transform="matrix(0.10335286,0,0,0.10335286,-258.00497,56.125701)"
       style="stroke-width:2.56" /></g><style
     type="text/css"
     id="style2">
	.st0{fill:#C70A11;}
	.st1{fill:#2FBB37;}
	.st2{fill:#1E35A0;}
	.st3{fill:#FFFFFF;}
</style></svg>
