<?xml version="1.0" encoding="UTF-8" standalone="no"?>
<!-- Created with Inkscape (http://www.inkscape.org/) -->

<svg
   width="1500"
   height="500"
   viewBox="0 0 396.87498 132.29167"
   version="1.1"
   id="svg5"
   inkscape:version="1.2.2 (732a01da63, 2022-12-09)"
   xml:space="preserve"
   sodipodi:docname="atarijaguar.svg"
   xmlns:inkscape="http://www.inkscape.org/namespaces/inkscape"
   xmlns:sodipodi="http://sodipodi.sourceforge.net/DTD/sodipodi-0.dtd"
   xmlns="http://www.w3.org/2000/svg"
   xmlns:svg="http://www.w3.org/2000/svg"><sodipodi:namedview
     id="namedview7"
     pagecolor="#000000"
     bordercolor="#111111"
     borderopacity="1"
     inkscape:showpageshadow="0"
     inkscape:pageopacity="0"
     inkscape:pagecheckerboard="1"
     inkscape:deskcolor="#d1d1d1"
     inkscape:document-units="mm"
     showgrid="false"
     inkscape:zoom="0.62760417"
     inkscape:cx="910.6058"
     inkscape:cy="595.91701"
     inkscape:window-width="1920"
     inkscape:window-height="1009"
     inkscape:window-x="-8"
     inkscape:window-y="-8"
     inkscape:window-maximized="1"
     inkscape:current-layer="layer1" /><defs
     id="defs2"><rect
       x="885.42926"
       y="125.5928"
       width="1014.1619"
       height="408.17661"
       id="rect334" /><rect
       x="863.4505"
       y="210.36795"
       width="850.89124"
       height="436.435"
       id="rect4589" /><rect
       x="885.42926"
       y="125.5928"
       width="1014.1619"
       height="408.17661"
       id="rect334-8" /><path
       id="SVGID_5_"
       d="M 943.9,810.2 C 891,754.5 864.2,690.4 864.2,619.6 c 0,-71.2 25.7,-134.6 76.3,-188.3 15.6,-16.6 32.4,-30.6 50.3,-42.2 -19.3,-25 -96.1,-114 -210.9,-114 -109.3,0 -137.5,65.4 -213.3,65.4 -83.5,0 -111.2,-72.4 -219.6,-72.4 0,0 -321.9,9.6 -321.9,400.2 0,140.9 123.1,551.6 306.2,551.6 91.6,0 80.6,-56.3 200.1,-56.3 118.9,0 98.6,47.6 210.5,47.6 115.7,0 266.3,-159.8 280.2,-341.7 -27.9,-14.1 -54.1,-33.9 -78.2,-59.3 z" /><linearGradient
       id="linearGradient4146"><stop
         id="stop4148"
         offset="0"
         style="stop-color:#ffba00;stop-opacity:1;" /><stop
         id="stop4150"
         offset="1"
         style="stop-color:#ff7f02;stop-opacity:1;" /></linearGradient><linearGradient
       id="linearGradient4520"><stop
         id="stop4522"
         offset="0"
         style="stop-color:#794d3b;stop-opacity:1;" /><stop
         id="stop4524"
         offset="1"
         style="stop-color:#5e3c2e;stop-opacity:1;" /></linearGradient><linearGradient
       id="linearGradient4214"><stop
         id="stop4216"
         offset="0"
         style="stop-color:#e5dfdd;stop-opacity:1;" /><stop
         id="stop4218"
         offset="1"
         style="stop-color:#ffffff;stop-opacity:1;" /></linearGradient></defs><g
     inkscape:label="Layer 1"
     inkscape:groupmode="layer"
     id="layer1"><g
       id="g4350"
       transform="matrix(0.26458333,0,0,0.26458333,155.29176,69.612723)"><path
         id="path29"
         style="fill:#ffffff;stroke-width:0.999998"
         d="m 828.67003,202.80762 c 7.52172,4.41848 11.15766,7.79893 8.55984,1.03261 -2.58156,-6.76089 -6.74464,-5.45654 -12.45662,-8.31524 -5.70652,-2.86414 -5.92394,-0.0489 -4.63044,1.52174 l 8.52722,5.75545 z M 813.61024,163.0086 c 0,0 17.90765,12.22286 24.64674,15.34787 6.75,3.11957 10.64133,5.72284 8.30435,2.07609 -2.33152,-3.64674 0,-2.8587 -7.53262,-7.28263 -7.52718,-4.41849 -11.66845,-5.97827 -15.03809,-9.35871 -3.38045,-3.38045 -10.12499,-6.23915 -10.39129,-3.90219 -0.25539,2.33153 0.0268,3.11957 0.0268,3.11957 z m 51.11969,-1.82609 c -0.40222,-0.48369 -10.43482,-5.91306 -10.90227,-6.23915 -2.1032,-1.49456 -3.40216,-0.91848 -5.50546,-2.42935 -4.0108,-2.89674 -7.82064,-6.05436 -11.70651,-9.10328 -2.03807,-1.6087 -5.13042,-2.81522 -5.47285,0.36956 -0.21742,2.04892 0.28265,4.54893 2.1957,5.64132 0.68477,0.39675 1.36955,0.79348 2.05433,1.18479 3.93475,2.03805 7.84779,4.0924 11.77719,6.11958 1.72825,0.89131 27.15227,18.76091 31.29899,17.98374 4.16308,-0.78804 0.51634,-5.46197 0.51634,-5.46197 0,0 -13.58704,-7.25546 -14.24465,-8.09241 z m -49.80447,-31.32616 c -6.98378,-5.17393 -14.0653,-10.22285 -21.14138,-15.27178 -1.46195,-1.03805 -2.48916,-4.13045 -4.64679,-2.125 -0.75001,0.69022 0.26629,3.76631 1.04892,5.50001 0.59783,1.30979 1.98373,2.3587 3.21746,3.25544 7.46194,5.42937 14.90761,10.89677 22.53809,16.07069 2.03261,1.3587 4.70103,1.78262 7.13041,2.47284 0.41848,0.11413 1.06518,-0.60326 1.77722,-1.04348 -0.71739,-0.84239 -1.13587,-1.47827 -1.69573,-1.95653 -2.70648,-2.33153 -5.36409,-4.76631 -8.22285,-6.89676 z M -63.391991,34.3561 c 10.961992,4.570663 23.353328,5.923924 35.587048,3.39675 5.038059,-1.038048 6.195672,-1.385879 14.369599,-6.206539 8.1793688,-4.82066 13.76633777,-16.418521 15.4348218,-17.027215 1.673917,-0.60326 6.90219,-0.896741 8.5054582,0.461954 0.945657,0.793484 3.461965,4.081535 6.625018,6.53806 3.163052,2.461968 0.02717,2.22827 2.418484,5.559795 2.39131,3.336967 5.815234,-0.315213 5.875017,1.347828 0.05978,1.663051 1.298911,3.000013 4.010876,2.989147 2.722832,-0.0057 2.152179,-10.597854 1.581526,-16.722868 -0.559786,-3.538058 -1.80979,-17.2609124 -1.554351,-20.2609254 0.25543,-2.99457 1.092398,-8.1304526 1.641309,-12.2011206 -0.20109,-5.250006 4.396748,-22.559835 5.141316,-26.298972 -0.336955,-0.516313 3.266308,-10.451114 5.358714,-20.114185 2.103262,-9.663062 3.679355,-21.141357 3.788045,-24.717453 0.211956,-5.58697 1.26088,-15.000026 0.630435,-16.766336 -0.630435,-1.77718 -4.065226,-1.04891 -5.364138,-0.32609 -1.293478,0.72826 -0.668486,1.20109 -1.00544,1.80435 l -0.05978,0.25544 c -0.249997,-0.0381 -0.472829,0.0272 -0.641302,0.27174 -4.793494,0.84239 -7.282628,-3.96197 -9.179376,-4.67392 -1.896739,-0.71196 -3.255443,-0.86957 -5.565228,-0.50544 -2.304351,0.36413 -10.84785,8.913056 -14.9456942,10.831536 -4.092401,1.92392 -17.880472,8.09785 -22.6359248,7.39133 -0.402171,0.3913 -0.880433,0.52718 -1.429344,0.40761 -1.836965,1.907605 -3.527191,5.266314 -5.548928,5.47827 -9.907636,1.054348 -15.57613,8.429366 -22.51636,13.945687 -1.211964,1.581526 -2.929355,2.989137 -3.554357,4.777186 -1.86414,5.347839 -3.880445,8.788063 -9.255458,11.625026 -0.298914,0.157616 -0.559787,0.983699 -0.407613,1.217397 0.228265,0.34783 0.826092,0.619569 1.277179,0.635868 3.402183,0.114132 7.440234,-2.798913 7.440234,-2.798913 0,0 16.728301,-7.201104 25.054411,-10.880468 3.603273,-1.597825 6.99458,-2.510875 10.934808,-0.608694 1.5000008,0.728259 3.8152288,-0.228264 5.7554508,-0.418479 l 2.288053,-1.326086 c 0.782609,-0.20109 1.559784,-0.407613 2.34239297,-0.608703 l 1.451094,-0.14674 c 1.05434803,0.168482 2.11957103,0.34783 3.18478503,0.516302 -1.923914,5.78806 -2.82608803,16.016351 -3.10870303,17.85875 -0.277172,1.836956 -0.956524,2.864129 -1.364137,4.331532 -0.60869297,2.184786 -1.29347797,4.369573 -1.62499997,6.608709 -1.076089,7.233711 -2.510874,14.478298 -2.804355,21.766359 -0.184781,4.505448 2.494576,11.4456786 3.902186,13.0978526 1.40761097,1.652185 2.967396,3.96197 0.53804497,5.98915005 C -3.2614032,2.8831947 -5.1527092,4.7582014 -7.3157632,6.7201656 -10.022285,7.7255965 -15.353825,11.856048 -23.190797,13.073435 -31.033211,14.285398 -37.804969,13.975619 -48.886518,9.0136418 -59.978932,4.0571077 -68.984392,-4.9646524 -75.103972,-10.513581 c -6.11958,-5.554362 -15.06526,-26.853326 -15.69569,-36.494655 -0.63044,-9.64133 0.2826,-19.418524 0.57608,-23.331577 0.29349,-3.913053 2.47827,-17.081564 5.98915,-26.179411 3.51088,-9.092406 13.712,-21.706576 15.13047,-23.304396 5.288059,-5.12502 10.576115,-10.25003 15.869613,-15.37504 6.005449,-4.58153 15.510904,-12.83699 29.07072,-20.38048 3.076094,-1.50545 20.0707008,-11.23373 32.9674728,-12.25547 3.7554462,-0.29892 7.4185022,-1.78805 11.0109002,-3.06523 3.260875,-1.15762 5.135882,-3.46197 3.59783,-7.14132 -1.05978,-2.53805 -1.027172,-4.99458 1.809791,-5.7011 3.576098,-0.89131 0.353263,-6.40763 -1.336962,-6.01633 -1.82609,0.42392 -3.641314,1.21196 -6.24458,-0.47826 -2.836963,-1.84782 -5.22284,-5.53262 -6.179364,-10.26089 -0.391304,-1.95653 2.663049,-1.85327 0.733702,-4.45653 -1.929356,-2.5924 -5.6739272,-0.9837 -7.2771952,-2.29892 -0.532612,-0.19022 -1.065223,-0.37501 -1.592392,-0.56522 -2.000005,-0.25544 -3.98914403,-0.50544 -5.983716,-0.75544 -0.30978,-0.27717 -0.625003,-0.55435 -0.934783,-0.83152 -2.000005,-2.37501 -4.320665,-2.65218 -7.4674088,-2.39132 -9.298932,0.76631 -17.826132,4.34241 -26.739193,6.46741 -3.179361,1.11958 -6.364154,2.23914 -9.548939,3.35871 -1.391311,1.09239 -2.728274,2.25001 -4.168492,3.25545 -3.739138,2.63044 -7.527192,5.19566 -11.293505,7.78805 -0.461963,0.48371 -0.923916,0.9674 -1.385869,1.4511 l -0.141307,0.18478 c -1.190222,1.52717 -2.380444,3.04892 -3.570663,4.58154 -0.36413,0.47281 -0.7174,0.94564 -1.07066,1.41304 -1.0326,1.01087 -2.05979,2.02175 -3.09239,3.02718 -0.54892,0.49457 -1.09783,0.98913 -1.64131,1.4837 -0.93478,0.59239 -1.86414,1.17935 -2.79892,1.77174 l -0.0924,0.0978 c -0.58697,1 -1.17392,1.99457 -1.76631,3.00001 l -0.0978,0.60326 c -0.8098,0.83695 -1.61958,1.67935 -2.42937,2.5163 -0.70651,0.83153 -1.41847,1.65762 -2.125,2.48371 -0.53261,0.65761 -1.06522,1.30979 -1.59239,1.96197 l -1.47284,1.30434 c -0.88586,1.16305 -1.77174,2.33154 -2.66305,3.49458 l -0.17935,0.20109 c -1.16304,1.40217 -2.31521,2.79892 -3.47283,4.20653 l -1.18479,1.94022 -5.48914,9.15764 c -0.51087,0.21195 -0.79348,0.59782 -0.83696,1.1576 -0.494558,1.16305 -0.983698,2.33154 -1.478258,3.49459 -0.52175,0.91847 -1.04348,1.84782 -1.57066,2.77173 v 0 c -5.20653,4.03806 -8.00002,9.57612 -9.70111,15.78266 -0.3587,0.44565 -0.7174,0.8913 -1.07065,1.33152 -0.6087,1.61957 -1.22283,3.23914 -1.83697,4.85871 -0.93478,2.51087 -1.86957,5.01631 -2.80435,7.52175 -5.67936,10.277196 -7.11958,21.712006 -7.86958,33.038118 -0.9837,14.826129 -0.79349,29.739206 2.7663,44.342503 1.17936,4.842411 9.46199,23.5218006 13.5707,29.7446386 4.10326,6.2174141 15.114158,18.4891844 22.135918,23.3044114 6.96197,4.793485 13.33699,8.47285 24.320709,13.03807 z M 451.57668,44.703956 c -1.94021,0 -3.97282,1.413044 -5.75005,2.576091 -0.70648,0.461953 -0.98368,1.777174 -1.20101,2.755439 -0.65225,2.978271 -1.14677,5.98915 -1.76631,8.978287 -0.85332,4.114143 -0.25549,8.695672 -4.53268,11.635892 -1.92931,1.326096 -0.77718,3.239144 0.51088,4.625013 1.61413,1.722833 3.52173,1.320662 4.55984,-0.347821 2.01081,-3.222835 3.8261,-6.630451 5.28805,-10.141334 2.02716,-4.869576 4.80433,-12.396768 5.64674,-15.445688 0.83696,-3.021745 -1.84781,-4.61958 -2.75546,-4.61958 z M 721.5121,150.7314 c -1.22282,-3.68479 -3.77712,-5.33153 -6.33151,-7.13046 -3.30977,-2.33696 -7.05982,-4.04348 -10.57064,-6.10327 -5.01095,-2.95653 -10.34242,-5.47827 -12.46198,-11.73916 -0.57611,-1.67391 -2.64134,-3.72284 -4.2881,-4.00001 -7.04345,-1.21196 -10.81522,-8.76089 -18.23918,-9.12503 -0.91846,-0.0435 -1.73915,-1.73913 -2.6359,-2.62501 -1.81519,-1.79348 -3.79883,-3.43479 -5.45103,-5.3587 -3.70108,-4.34784 -10.03805,-6.076099 -11.962,-12.288076 -0.27175,-0.885875 -2.4511,-1.358703 -3.8261,-1.66305 -7.35873,-1.635876 -13.337,-5.255448 -16.09791,-12.52721 -1.98909,-5.244572 -5.82064,-8.815238 -9.39125,-12.788073 -3.02175,-3.364142 -6.37504,-4.885886 -10.79896,-4.315223 -3.64675,0.472819 -6.41856,-0.61957 -8.15762,-4.211967 -0.7392,-1.532619 -2.36414,-2.635883 -3.58161,-3.940228 -1.67927,-1.923923 -3.35319,-3.847837 -5.0271,-5.766327 -0.42939,-0.581519 -0.84787,-1.16848 -1.2718,-1.744566 -0.0325,-0.505436 -0.22822,-0.929349 -0.58692,-1.277179 -0.71194,-4.451097 -2.83695,-7.934795 -6.84785,-10.146766 -6.27719,-5.222831 -12.91852,-10.076108 -18.75007,-15.766344 -7.87496,-7.679366 -15.45656,-15.6413361 -18.05984,-27.1468064 -0.78262,-3.4347906 -3.55434,-6.8967566 -6.32061,-9.2663246 -4.63044,-3.967402 -9.75549,-7.510883 -15.10877,-10.418505 -8.0326,-4.358707 -15.82071,-9.456539 -25.1033,-11.054374 -2.9239,-0.500003 -5.91849,-1.668483 -7.95656,1.516311 -1.31522,2.054355 0.32063,3.472832 2.03262,4.706527 1.0163,0.728269 2.25538,1.603268 3.40216,1.614134 5.3859,0.05978 7.68481,3.717406 9.07617,7.967413 1.89124,5.820668 5.53798,8.494592 11.62501,9.33155 4.97823,0.684785 10.31525,2.499999 12.08157,8.0761026 3.09235,9.7500292 9.71733,16.6467854 17.41849,22.6033174 7.12505,5.521755 13.337,11.793509 18.62505,19.059828 1.03802,1.42392 2.02171,2.978271 3.35864,4.070669 5.30986,4.30979 10.73918,8.47284 16.13053,12.684816 0.5435,0.505428 1.08154,1.005431 1.6304,1.516301 1.54899,1.554351 3.1087,3.114145 4.65769,4.668496 4.07059,7.461977 10.32061,11.994589 18.58698,13.798947 1.06519,0.418479 2.14673,0.836958 3.21737,1.250004 1.84781,1.592393 3.87507,3.016312 5.51091,4.809794 2.87503,3.152177 5.32612,6.7011 8.27719,9.771762 2.1033,2.190219 4.70648,3.902186 7.12505,5.793492 8.26628,6.489145 16.39673,13.184815 24.86962,19.391355 8.63042,6.32067 17.67388,12.08699 26.42942,18.24461 3.96192,2.78806 7.8587,5.73371 11.4185,8.99459 6.04342,5.51632 11.95655,11.07068 19.36961,14.80982 3.02175,1.53262 5.5706,4.00545 8.32606,6.04893 0.47826,0.0598 35.8751,24.0218 39.2501,26.91854 1.97283,1.69566 16.34249,10.90765 29.42401,21.02724 9.27177,7.17936 17.21197,15.41308 22.67392,19.09787 24.72288,16.67939 15.37506,4.49458 16.16314,4.5924 -0.70658,-1.08152 -91.6742,-67.32626 -92.37523,-68.40778 -2.47826,-2.53805 -18.4457,-10.50546 -19.46201,-13.54895 z m 58.33715,6.85328 c -8.10329,-4.85328 -16.32069,-9.50546 -24.43488,-14.33699 -5.19019,-3.09784 -10.94024,-5.6522 -15.25541,-9.71199 -19.76637,-18.587 -38.97834,-37.766395 -58.66867,-56.424057 -7.5707,-7.173928 -15.39678,-14.13591 -25.79353,-17.391353 -4.59237,-1.434786 -8.9457,-3.826095 -13.13049,-6.266312 -2.53804,-1.483702 -5.2011,-3.516316 -6.63043,-5.972841 -5.55979,-9.576114 -14.65768,-15.331565 -22.78813,-22.141365 -9.58695,-7.30437 -15.39133,-18.7174396 -26.45113,-24.44027335 -0.88039,-0.451087 -1.64676,-1.255438 -2.2663,-2.05978805 -7.28259,-9.5217646 -15.09786,-18.5217926 -24.09789,-26.5218036 -9.27178,-8.244595 -17.01092,-18.173962 -27.77726,-24.782672 -2.54349,-1.554351 -4.50542,-4.114142 -6.55429,-6.385887 -0.22833,-0.250006 -4.72294,-4.576105 -7.58706,-6.195672 -2.87502,-1.625 -9.55433,-3.326092 -14.39673,-4.809794 -5.98373,-1.842399 -8.46199,-0.10869 -9.38589,6.288063 -0.33153,2.28261 -0.50543,4.608704 -0.49462,6.913056 0.0163,4.782619 0.80434,5.510888 5.78266,6.19024 1.99455,0.277171 4.60328,0.06524 5.84245,1.233695 3.08144,2.940221 6.51087,2.826098 10.05431,2.255436 3.5489,-0.576086 5.54899,0.853267 7.69571,3.608706 4.06523,5.206541 8.10874,10.75546 13.28258,14.663079 6.63053,5.005451 11.84243,11.222856 17.60874,16.978308 6.68486,6.6576256 12.29353,14.3587326 21.20116,18.7337387 3.32612,1.6358757 5.40761,5.8369763 8.04896,8.8750203 2.66851,3.059795 4.89128,6.711976 8.06522,9.059811 5.10869,3.793487 10.84239,6.733708 16.31523,10.032634 1.97828,1.581526 4.00009,3.114136 5.92395,4.760877 4.05441,3.494574 8.63587,6.586977 11.88595,10.722852 2.8206,3.586965 5.54344,5.98915 10.02714,7.391328 4.52723,1.423919 9.00549,3.961969 12.65768,7.016322 11.4076,9.543496 22.4457,19.516348 33.55438,29.41855 7.63048,6.804372 14.75553,14.228292 25.24467,16.864182 2.2772,0.56522 4.23913,2.68479 6.19024,4.27175 4.32062,3.52175 8.55439,7.15219 12.82068,10.73372 1.21736,0.93479 2.44018,1.86957 3.65765,2.80435 0.32608,0.39131 0.60863,0.84784 0.99995,1.16305 12.25001,10.07068 26.32076,17.67396 37.96749,28.61963 2.21741,2.0761 6.80978,1.14132 9.21199,3.39132 37.24465,34.92944 38.03818,26.94572 39.32078,26.35333 -0.73375,-1.0163 -36.7175,-30.36421 -37.68493,-30.94573 z M 526.6638,-61.198487 c 2.33153,0.766309 7.674,2.168487 11.54898,3.135877 4.80433,1.211964 9.02174,3.228268 12.42935,7.059806 4.38595,4.945659 9.14131,9.570671 13.6957,14.369599 1.02721,1.076089 2.1957,2.184787 2.78263,3.510873 3.88587,8.809804 8.79896,16.505478 18.61414,19.798962 2.06523,0.684785 3.7446,2.559792 5.53808,3.9619696 1.34784,1.065223 2.47826,2.440226 3.9185,3.369575 5.99453,3.885878 12.17396,7.489151 18.06529,11.5326354 4.17389,2.8695715 7.97827,6.288063 11.95109,9.456548 0.54895,0.423913 1.087,0.836959 1.6304,1.250005 3.5707,3.163052 7.15221,6.320662 10.72837,9.483714 21.1848,21.195707 41.59788,43.31533 67.90774,58.549062 2.05433,1.260871 4.1141,2.532617 6.16307,3.79892 1.42388,0.853267 2.83696,1.701092 4.25003,2.554359 1.20101,0.896741 2.38041,1.798915 3.57061,2.695656 6.125,4.608709 12.39138,9.043506 18.34249,13.864166 9.9402,8.06524 19.64136,16.40766 29.51632,24.53811 2.96197,2.44023 31.22294,21.53266 34.36971,23.72833 0.30427,0.21195 8.68476,2.49456 2.07604,-3.11958 -4.26083,-3.61957 -24.45659,-15.95113 -24.6522,-16.12504 -5.77721,-5.01089 -13.21743,-9.08155 -18.92941,-14.17395 -7.63048,-6.79349 -15.14139,-13.712 -22.69028,-20.60332 -9.01629,-8.239147 -16.64676,-18.114175 -28.01094,-23.576146 -1.31522,-0.630435 -2.61418,-1.815224 -3.32067,-3.086961 -5.36954,-9.635896 -14.02177,-16.244605 -21.924,-23.402235 -5.42932,-4.929359 -12.28808,-8.244585 -18.17395,-12.72829 -7.51627,-5.717411 -14.7011,-11.875033 -22.03267,-17.837008 -0.66296,-0.690218 -1.32603,-1.391302 -1.98909,-2.08152 -3.26634,-2.983704 -6.52722,-5.967408 -9.78811,-8.9402457 -5.72278,-4.2337081 -11.39669,-8.5434987 -17.19562,-12.6685077 -2.47835,-1.755441 -5.28269,-3.059785 -7.8588,-4.701094 -0.85867,-0.554354 -2.81514,-1.494578 -0.49997,-2.5706676 3.71198,-1.744565 1.44569,-2.755439 -0.26085,-4.059783 -10.34786,-7.923939 -20.44569,-16.059825 -29.08157,-25.989202 -3.22827,-3.70653 -8.17943,-5.902183 -12.31525,-8.820671 -1.43478,-1.016306 -2.99459,-1.97283 -4.13591,-3.266318 -5.72824,-6.467402 -8.97831,-14.956551 -16.39683,-20.065268 -0.74991,-0.516303 -1.16303,-1.706525 -1.43478,-2.668481 -0.24994,-0.864134 -0.0708,-1.831524 -0.0813,-2.75544 0.90765,0.08695 2.14673,-0.173915 2.69568,0.320656 2.69022,2.375001 5.1196,5.016317 7.7663,7.423926 1.46741,1.331529 3.07073,3.157619 4.80979,3.402183 3.38045,0.478262 5.60331,1.527176 6.91308,4.945668 0.5435,1.407611 2.69022,2.233703 4.16853,3.228268 4.22822,2.858705 8.60326,5.505445 12.6902,8.559798 2.29891,1.722833 4.02716,4.00001 7.33702,1.934789 0.64125,-0.396737 2.49452,0.228265 3.17929,0.956524 8.31526,9.016327 16.47287,18.173962 24.77187,27.212031 3.73914,4.070659 6.80432,8.842412 12.17387,11.2935046 2.89683,1.320653 5.77721,3.119568 8.02724,5.342405 3.97828,3.95652705 7.70107,8.2228435 11.11414,12.684807 3.88588,5.1087174 8.64133,8.6358984 14.8859,10.1304674 1.64675,1.211954 3.31521,2.418485 4.96742,3.635872 2.23367,1.679359 4.4728,3.364142 6.70112,5.038058 5.91304,4.413057 11.83153,8.831547 17.73921,13.250036 1.03257,0.885875 2.07604,1.760874 3.11406,2.641307 0.58157,0.478262 1.15223,0.967399 1.7337,1.451094 0.95117,0.755434 1.91305,1.516311 2.86421,2.271744 0.49998,0.304347 0.99995,0.608694 1.49993,0.91305 7.15767,5.750009 14.39683,11.402195 21.44029,17.266346 9.44567,7.864146 18.66857,15.983733 28.15222,23.788096 7.07617,5.826115 15.04353,10.570688 21.07078,17.663098 0.80434,0.94566 1.99454,1.9674 3.13042,2.14674 1.86417,0.28261 4.51632,0.65761 5.63048,-0.35326 1.88043,-1.71196 0.13582,-3.59783 -1.39681,-5.13045 -2.69023,-2.71196 -6.03261,-5.168488 -7.64674,-8.451106 -1.538,-3.135882 -3.53264,-4.929364 -6.47825,-5.929362 C 753.97443,85.7421 745.40914,76.829029 736.43082,68.475754 728.76783,61.345299 721.09928,54.214845 713.44164,47.08439 c -2.15754,-2.02718 -4.30972,-4.05435 -6.4619,-6.076097 -0.49461,-0.483695 -0.98914,-0.972833 -1.4783,-1.451095 -1.19021,-1.195655 -2.37505,-2.391309 -3.55435,-3.592397 -0.83151,-0.934782 -1.66847,-1.869574 -2.49997,-2.804356 -3.0055,-2.706532 -5.83154,-5.673927 -9.06526,-8.065237 -4.90765,-3.619572 -10.38595,-6.494586 -15.10333,-10.320681 -4.68477,-3.798921 -9.50001,-7.8532809 -12.85329,-12.7500324 -4.06523,-5.956532 -8.17398,-11.01089 -15.56523,-12.5272006 -1.42943,-0.298913 -2.62508,-1.543485 -3.96747,-2.277177 -7.1304,-3.89132 -11.85869,-10.407639 -17.09786,-16.239172 -5.09234,-5.673927 -9.42932,-12.027207 -14.09782,-18.076139 -0.58157,-0.570652 -1.16304,-1.146738 -1.73915,-1.717391 -2.57066,-3.440224 -4.75001,-7.288061 -7.79893,-10.24459 -4.17934,-4.059793 -9.00548,-7.456543 -13.56523,-11.125032 -4.16853,-3.3424 -4.2174,-5.108707 0.3587,-8.01632 2.55975,-1.635875 5.68481,-2.342402 8.25002,-3.967402 15.81526,-10.005455 31.01634,-20.766341 41.92396,-36.456601 3.27179,-5.38045 7.16312,-10.49459 9.69571,-16.20113 4.64134,-10.44568 5.27714,-21.44027 4.3913,-32.96205 -0.89674,-11.56524 -5.05982,-21.0707 -12.31524,-29.64137 -0.0651,-0.50544 -3.80438,-4.17392 -4.19025,-4.58697 -1.45104,-1.46196 -4.79342,-4.30436 -14.1576,-11.48373 -9.36418,-7.18479 -22.65766,-14.29351 -34.32074,-15.82068 -11.66854,-1.53262 -27.76091,0.84782 -34.78275,1.48913 -1.17385,0.10326 -2.66306,0.73913 -3.34783,1.63044 -3.26089,4.25 -8.21195,4.92392 -12.77715,6.44567 -3.80438,-0.087 -7.61958,-0.33696 -11.41851,-0.21196 -3.96747,0.13586 -7.93484,0.63587 -11.89676,0.97826 -1.42933,0.087 -5.17939,0.57066 -5.61958,0.7174 -1.8261,0.30434 -8.31525,1.85326 -9.49464,2.24457 -6.97278,3.17935 -26.71744,10.63046 -30.80983,12.24459 -4.08158,1.61414 -5.79892,1.58696 -11.43486,2.78262 -2.40212,0.51087 -5.19019,2.29348 -7.69016,3.83152 l -0.81525,0.61414 c -2.71739,1.38587 -5.42932,2.78261 -8.15762,4.16849 -1.47285,0.8913 -2.94571,1.78261 -4.41847,2.67392 -2.60327,1.13044 -5.212,2.27174 -7.82618,3.40218 -0.96188,0.40217 -3.16303,0.82609 -4.52713,1.64131 -1.3641,0.82609 -4.96197,4.28261 -5.38045,6.08697 -0.41848,1.80978 -0.68477,3.04349 -1.02721,4.56523 -0.35324,1.21739 -0.70103,2.43479 -1.05973,3.64675 0,0 -0.25549,0.58695 -0.26094,0.58695 -0.80979,1.90218 -3.72824,2.73915 -5.42932,3.46198 -2.33698,0.99999 -5.32612,1.8424 -7.33157,3.44565 -1.84237,1.47827 -2.17932,3.85871 -3.01628,5.94024 -0.64131,1.57609 -0.47283,4.04892 0.22825,5.5761 0.68479,1.49457 3.60328,4.25001 5.17934,4.49457 1.80984,0.27175 4.53804,0.45653 5.41307,0.82066 0.86957,0.36413 3.50546,3.27174 3.33702,4.48914 -0.16309,1.2174 0.79344,4.34784 3.27169,5.21741 1.77177,0.29348 3.5489,0.58151 5.32612,0.88043 1.79348,0.0761 3.58696,0.15218 5.3859,0.22826 0.42393,0.48913 0.85322,0.97284 1.27715,1.4511 0.77717,2.36957 2.03806,4.00544 4.87502,3.28805 2.07068,0.006 5.96737,0.83696 10.08702,-0.0272 4.11956,-0.8587 6.14127,-2.27174 9.01629,-3.78805 3.08154,-1.63044 5.91849,-3.7174 8.85875,-5.60328 1.70653,-1.36413 3.66301,-1.95652 3.50537,1.05436 -0.32608,6.15219 -1.84236,12.07611 -5.24452,17.34787 -0.23368,0.55434 -0.462,1.11413 -0.68478,1.66848 -1.58151,8.27719 -19.97834,54.163163 -22.43488,63.402322 -2.4619,9.250016 -4.84786,18.809831 -5.54344,20.456573 -0.15763,0.673909 -0.30437,1.336962 -0.462,2.005438 -0.99995,3.163052 -2.20651,6.288063 -2.90219,9.510889 -0.45655,2.114137 -1.64675,7.23372 -0.043,6.472844 5.03256,-2.364135 1.78257,3.076095 -2.7392,6.146756 -2.70648,0.179348 -10.10874,16.8532991 -11.01629,25.505497 -0.5544,5.326106 -4.1142,13.119604 -2.75545,15.282649 0.27175,0.440221 1.23908,1.36957 0.69022,1.592392 -3.66846,1.489136 -6.28809,16.630477 -6.28809,16.630477 0,0 1.21201,0.663044 0.60873,1.271747 -0.60873,0.614126 -0.68477,0.7663 -1.10325,1.135872 -0.7392,0.739134 -4.84243,9.266324 -5.61417,11.233721 -0.32065,0.570653 -4.15762,8.38046 -4.63588,9.304375 -2.67936,3.788045 -3.58153,13.4946 -2.58153,18.260911 0.66848,3.152186 1.32609,-0.597828 1.39131,2.641316 0.0164,0.7663 -0.17935,1.222829 -0.17935,1.951088 0.006,1.53261 0.92935,10.413073 2.22827,11.005463 2.41305,1.11414 2.58695,-1.5 3.36957,-2.95109 0.23913,-0.43479 0.63044,-0.78262 0.95653,-1.168477 -0.14674,-0.554354 2.19023,-3.043487 2.6902,-3.315235 0.50543,0.168482 -2.26086,7.864152 -0.35324,7.342412 1.91304,-0.51087 7.54353,-19.467447 8.17933,-20.864182 1.10325,-2.108705 2.2066,-4.211967 3.30986,-6.320671 0.95107,-0.288048 1.89669,-0.576086 2.8424,-0.864133 0.97824,0.29348 1.95102,0.581528 2.913,0.874999 0.33698,0.51087 0.66852,1.032615 1.0055,1.543485 0.022,1.505435 -0.14683,3.038054 0.14128,4.489138 0.14128,0.744568 1.07609,1.331529 1.64675,1.994573 0.60328,-0.67391 1.20646,-1.33152 1.80974,-2.010872 0.47826,-1.146747 0.92391,-2.298919 1.40762,-3.445666 5.1196,-12.12503 10.24456,-24.25006 15.3479,-36.37509 1.11407,-2.652173 1.77168,-5.47827 2.94017,-8.108711 0.19025,-0.434787 4.19024,-6.804366 4.88592,-5.722843 0.53259,0.820659 1.42388,1.603267 1.51083,2.467401 0.13592,1.483692 -0.48362,3.054352 -0.29346,4.527179 0.13592,1.05979 0.95652,2.711965 1.68482,2.842406 0.913,0.157607 2.34779,-0.744567 3.02721,-1.608701 1.0869,-1.380445 2.07604,-3.016311 2.53259,-4.701104 1.01085,-3.858703 7.52717,-37.8316174 15.21743,-70.994738 7.53808,-32.516386 17.86958,-67.31537 18.92396,-67.31537 2.3695,0 3.48366,-1.13589 3.92385,-3.27719 1.04893,-4.65219 2.1033,-9.30437 3.15223,-13.95656 0.5544,-1.89131 1.0978,-3.77718 1.63584,-5.66849 0.53805,-1.20653 1.07609,-2.41848 1.60878,-3.63044 1.58152,-2.92392 3.04892,-5.91849 4.76626,-8.75002 1.37501,-2.26632 2.97288,-3.09784 4.0109,0.33152 0.77172,2.55979 2.47826,3.00001 3.63584,0.77717 2.56521,-4.93479 5.39681,-9.96197 6.58701,-15.29351 0.86957,-3.91849 2.69567,-5.82067 5.81518,-7.28806 18.51094,-8.68481 36.65773,-7.89677 54.39694,2.21739 7.32611,4.18479 10.47279,10.01634 8.70657,17.03266 -1.61414,6.46197 -4.0109,12.60329 -8.19569,18.02721 -5.78266,7.50546 -11.25006,15.27178 -16.66858,23.0544 -4.47825,6.423926 -15.5326,7.494576 -21.22287,1.9511 -2.75,-2.68479 -5.56524,-5.33697 -8.60871,-7.66306 -2.61954,-2.01087 -6.27174,-1.24457 -7.13041,1.47827 -0.82615,2.60326 -1.60868,5.51087 1.16849,7.782616 2.79889,2.27174 5.80428,4.38044 8.11955,7.0761 1.30977,1.52174 2.15763,4.23914 1.78258,6.130446 -0.26085,1.326096 -2.88038,2.945663 -4.54885,3.081537 -3.25553,0.266306 -6.59246,-0.56522 -9.90222,-0.635878 -1.66846,-0.04343 -4.15763,0.02171 -4.89673,1.038048 -1.64675,2.266311 -4.21205,5.298932 -4.34788,8.21741 -0.22823,3.695664 8.92934,11.766334 10.97831,12.445686 z M 154.02703,-208.05754 c -1.54348,-0.58153 -3.08696,-1.17392 -4.61957,-1.75544 -0.006,-0.38044 -0.12501,-0.71196 -0.36414,-0.9837 -0.0707,-0.0707 4.60871,-5.75002 1.9511,-8.50546 -0.71739,-0.55978 -4.71197,-1.94565 -5.42936,-2.50544 -0.3587,-2.23914 -0.77718,-4.47284 -1.06523,-6.72827 -0.47826,-3.62502 -2.68479,-4.52176 -5.91849,-3.91849 -1.04348,0.74457 -2.08696,1.48369 -3.13588,2.22826 l -0.45652,-0.0109 -4.88045,-0.38588 c -3.51631,1.04892 -2.1087,2.91849 -5.61958,3.96741 -0.79892,0.58696 -1.59782,1.16848 -2.39674,1.75544 -2.40218,2.04348 -4.08697,3.20652 -7.02719,7.28806 -2.94023,4.08153 -6.32067,10.73916 -8.36959,14.44026 -2.04348,3.69565 -10.456545,25.65767 -10.597852,25.92941 -0.67391,0.61957 -14.733729,31.79356 -19.375041,42.24467 -3.614139,8.13045 -8.36415,17.87504 -11.896774,27.67397 -3.532615,9.798946 -6.923932,24.739193 -7.717407,25.663109 -0.266306,0.67391 -0.532611,1.353261 -0.798917,2.032613 l -1.048915,3.119569 c -0.141307,1.021749 -0.271738,2.043489 -0.413046,3.070661 -0.999998,5.614145 -2.505442,13.29351 -3.576098,16.722868 -1.076089,3.423925 -3.380441,7.293504 -4.684795,11.10329 -1.065214,7.26632 -2.304352,14.510907 -3.130435,21.809834 -0.635878,5.586979 -0.755443,11.233731 -1.097831,16.8533086 0.217389,2.038046 0.440221,4.065226 0.663043,6.11414805 1.02174,3.63043825 1.255438,5.35870455 3.070662,10.90220035 1.815224,5.543486 9.456548,10.739151 9.456548,10.739151 9.027194,5.081533 24.239184,5.065234 31.092467,0.358696 6.853273,-4.706527 11.554377,-7.858713 14.510901,-10.456546 2.9511,-2.5923994 17.88047,-14.4728654 24.95115,-22.36962 7.06524,-7.902197 9.72285,-11.695684 11.80982,-13.78808 1.05434,3.646747 0.0326,6.815242 -2.23371,9.701112 -0.47826,1.385879 -0.96195,2.771748 -1.45109,4.152184 -0.375,6.3043626 -1.04892,12.6032916 -1.07066,18.9076542 -0.0272,8.4728498 3.35328,26.2500648 12.17395,27.7881168 8.82068,1.538043 10.27176,1.592392 15.47286,-1.05979 4.04893,-2.059778 8.67394,-3.119568 13.14678,-4.146741 3.2337,-0.733702 4.33153,0.82065 2.91305,3.90761 -1.60871,3.489141 -3.46197,6.880458 -5.40763,10.201116 -7.75001,13.277211 -15.44568,26.581587 -23.35875,39.77184 -3.14675,5.244582 -1.3587,5.961975 2.90218,6.021757 0.76631,0.01626 -0.76631,4.282616 -0.6413,5.701107 0.4076,4.521742 2.6087,5.880442 6.35327,3.266309 2.19023,-1.538052 3.85327,-3.978273 5.40219,-6.250018 1.56523,-2.304361 2.56522,-5.000017 4.12501,-7.309802 0.28804,-0.434788 2.64675,-0.260873 3.04348,0.326088 0.98914,1.429353 -0.52717,4.869577 2.76632,4.266316 1.55978,-0.282614 2.80435,-2.543492 4.09783,-3.983711 0.84784,-0.961957 1.4674,-2.114138 2.28806,-3.097836 1.36957,-1.668474 2.67391,-2.288043 4.0924,0.125008 1.44565,2.472824 3.57065,1.929347 5.0761,0.239131 2.375,-2.679357 4.77175,-5.451105 6.46197,-8.565241 4.48914,-8.326109 8.71741,-16.809825 12.83698,-25.326149 1.49457,-3.08697 3.11414,-5.391322 6.9348,-4.391314 3.21197,0.842391 4.59241,-0.646744 5.61415,-3.538058 1.45109,-4.114142 3.04892,-8.21741 5.12501,-12.032639 6.85872,-12.559808 13.97286,-24.9837517 20.96201,-37.4674784 5.61958,-10.0380756 11.19568,-20.1141836 16.77722,-30.1685596 3.00544,-5.418488 5.35327,-11.282639 8.98372,-16.336997 4.76631,-6.625018 13.96199,-8.010887 16.82069,-7.711973 2.85326,0.298914 5.90763,-1.429353 7.22285,-2.766315 1.31522,-1.326086 1.63043,-1.152171 3.49457,-2.358701 1.86413,-1.206521 3.05979,-2.201086 3.95653,-2.853263 0.88587,-0.652177 14.57612,-6.070674 17.45657,-8.891329 5.54892,-5.440229 14.13046,-8.608714 21.79353,-9.217417 0.72283,3.538057 0.91304,7.369585 0.95109,10.972858 0.0707,8.092412 -0.0978,16.195689 -0.15762,24.282668 -0.0543,1.065223 -0.11413,2.130437 -0.16847,3.190227 -2.08696,5.195665 0.1413,9.89676 1.5,14.777212 0.64674,2.304352 1.31522,5.239139 0.46196,7.233711 -2.82609,6.532628 -1.49457,13.179378 -1.35326,19.7772206 0.0543,2.614141 1.07065,5.282623 4.58697,4.923926 2.90218,-0.288047 3.3424,1.244572 3.53805,3.65218005 0.38043,4.59240515 1.07608,9.16306795 1.65217,13.74460635 0.53804,4.309791 0.97283,8.646756 1.69566,12.934814 0.38044,2.271744 1.31522,4.059793 3.97827,5.081533 4.32066,1.66305 4.45654,2.369568 2.32066,6.717408 -1.20652,2.461959 -2.45653,4.625013 0.0217,6.90219 4.1087,3.766313 4.28262,7.847848 1.19022,12.331553 -1.85326,2.695656 -1.52717,4.91306 2.00001,5.701102 2.97826,0.673909 3.16848,3.119569 3.4837,5.320664 0.26087,1.744575 -0.087,3.570665 -0.21739,5.358714 -0.16304,2.413042 0.625,4.076092 3.30436,4.130442 2.34239,0.05433 2.95653,-1.456527 3.05978,-3.521748 0.55979,-11.260897 1.01631,-22.516361 1.8424,-33.750083 0.34783,-4.793494 2.375,-16.141349 2.44023,-17.065265 0.47826,-4.695661 1.8913,-16.2663377 2.13043,-17.3478697 0.47283,-12.3369857 1.58696,-43.8914153 2.28261,-55.4946993 0.7011,-11.603294 4.35871,-66.027333 4.60328,-74.212133 -0.27718,-0.52718 6.77719,-51.71209 9.1522,-63.32625 2.38044,-11.61416 2.2337,-22.0707 1.94565,-23.26636 -0.28804,-1.19565 -5.34784,-2.58696 -8.16306,-3.05436 -5.65218,-0.92391 -11.39677,-1.2663 -17.11417,-1.84782 -3.71741,-0.4674 -2.95653,-5.03263 -3.27175,-5.83698 -0.30435,-0.80435 -12.40764,-4.27718 -14.83156,-3.01088 -2.42392,1.26632 -3.00544,12.9783 -3.58697,18.39135 -1.51087,2.58697 -3.00543,5.17937 -4.51088,7.77176 -1.1087,1.00544 -2.21739,2.02718 -3.33152,3.03805 -0.43479,0.45652 -0.89131,0.90762 -1.3261,1.35871 -2.9837,1.87499 -5.96196,3.75 -8.94023,5.61958 -4.25545,4.55435 -8.50546,9.09785 -12.77178,13.6522 -0.27717,0.30435 -2.45652,3.04349 -3.07609,3.86958 -2.31522,3.19566 -7.75002,10.13589 -7.80437,10.68481 -0.84783,1.17391 -1.70652,2.34239 -2.56522,3.51087 0,0 -1.91848,0.74457 -2.20653,1.27175 -3.64675,6.65763 -7.20654,13.37503 -10.78807,20.07613 0,0 -2.57609,1.24458 -3.9511,1.91305 -1.18478,0.92392 -2.36957,1.84783 -3.55436,2.76632 -0.47826,0.1576 -7.8424,9.8098 -11.76633,13.92938 -0.80978,0.85326 -2.27175,3.87501 -2.25544,4.3587 -5.27175,2.19566 -4.6087,10.5109 -5.38044,11.494596 -0.77718,0.98913 -4.33698,2.64675 -5.26088,4.37501 -2.67936,5.02718 -5.9022,13.929375 -7.13589,15.548942 -1.22283,1.62501 -3.08154,3.244577 -4.26088,4.347841 -0.78261,0.30978 -1.55436,0.625002 -2.34241,0.940215 -3.37501,0.347831 -4.94022,4.695671 -5.38044,5.608712 -0.44566,0.913049 -1.61414,1.086965 -2.41849,1.630442 -0.57608,0.396738 -1.15761,0.793475 -1.74456,1.201088 l 0.0924,-0.0924 c -1.17936,0.51087 -2.35327,1.032615 -3.52719,1.543485 -7.40762,4.494572 -14.82068,8.945669 -22.16309,13.543507 -0.63044,0.391304 -1.2174,2.005438 -0.90762,2.581533 2.58697,4.972834 0.97283,8.902195 -2.69022,12.467418 -0.30978,0.298914 -0.53805,1.250004 -0.42935,1.320653 0.58695,0.391305 1.42391,0.983699 1.95109,0.809784 3.15762,-1.043472 6.21197,-2.39131 9.38046,-3.391308 1.1087,-0.342397 3.2174,-0.396737 3.50545,0.152174 0.59782,1.119573 0.64673,2.836963 0.2663,4.125009 -0.40218,1.402178 -1.52718,2.608708 -2.36414,3.885878 -2.92936,4.489148 -10.52176,14.559823 -11.09242,15.336998 -4.19022,5.7717506 -8.25546,11.6467676 -12.47829,17.4022197 -2.47283,3.3858743 -5.2011,5.1739234 -9.07068,2.2119613 -2.79348,-2.1467455 -5.45652,-4.4782723 -8.17937,-6.71197535 -0.19021,-1.57066005 -0.38042,-3.13044405 -0.57608,-4.70109505 1.09783,-5.9782826 1.40761,-11.9348146 4.22827,-17.7500496 3.96741,-8.16306 6.38045,-17.086997 9.38046,-25.717453 3.27719,-9.407632 6.4674,-18.847872 9.67394,-28.277245 1.63587,-4.809794 3.24457,-9.652196 4.79892,-14.500044 5.41306,-10.809796 10.89676,-21.586996 16.18482,-32.451146 2.78806,-5.71198 5.23372,-11.58155 7.83698,-17.38592 0.44022,-0.125 0.61413,-0.41304 0.54348,-0.85869 4.77175,-9.25546 9.93481,-18.33701 14.10874,-27.85334 1.52717,-3.5 1.32065,-8.13045 0.70651,-12.04894 -0.29348,-1.8587 -3.34783,-3.36958 -5.28262,-4.86415 -2.05979,-1.59239 -2.03261,-3.00543 -0.63587,-5.18479 2.83697,-4.45653 2.41849,-7.2011 -0.63587,-10.87502 -2.42391,-2.92937 -5.61957,-3.37501 -9.02176,-3.23371 -4.29349,0.16305 -8.36959,0.1087 -12.72285,-1.13044 -3.5761,-1.01631 -8.6522,-2.65218 -11.8533,2.05979 l -0.30978,0.30978 c -1.21196,2.17393 -20.27723,35.35879 -21.33158,37.06531 l -5.39132,8.2935 c -1.38043,2.07609 1.79348,5.40219 1.1087,7.0598 -0.69022,1.65762 -2.3587,-0.80978 -4.9837,1.82066 -0.16848,0.0543 -2.3098,7.6522 -4.08154,14.63047 -0.14674,0.58696 2.15762,1.20109 2.00001,1.82066 -0.13043,0.5 -2.7174,2.65218 -2.84783,3.17391 -1.31523,5.1848 -2.78806,9.38047 -4.19023,14.77722 -0.25543,0.98913 0.30978,1.14131 0.0598,2.09784 -0.24457,0.93478 -1.30979,0.20652 -1.54348,1.09782 -1.33696,5.03262 -2.51088,11.66307 -3.26632,13.804386 -0.21195,0.61956 0.39674,1.22826 0.18479,1.84783 -0.30435,0.85326 -1.41848,1.70652 -1.71196,2.56521 -3.55436,10.26633 -6.92393,20.576136 -10.02177,30.989208 -0.27717,0.695651 -0.55434,1.407611 -0.84239,2.097829 -2.50544,3.375008 -5.01632,6.744583 -7.52176,10.114158 -1.44565,1.288046 -2.89131,2.565225 -4.33153,3.842404 0.006,0.282605 0,0.56522 -0.0217,0.82065 0.0217,-0.260863 0.0272,-0.538045 0.0217,-0.82065 -1.11413,1.27718 -2.22283,2.554349 -3.30435,3.836962 -0.7337,0.592394 -1.46741,1.195655 -2.20653,1.788049 -0.50001,0.124998 -0.80435,0.440221 -0.90762,0.951091 -0.58152,0.60326 -1.1576,1.206521 -1.73913,1.809791 -0.006,-0.06524 0.006,-0.114133 -0.006,-0.173916 -1.7174,1.722834 -3.43479,3.445657 -5.15219,5.173924 0.41304,-0.01626 0.79891,-0.04888 1.17392,-0.103257 -0.37501,0.05433 -0.76088,0.08695 -1.17392,0.103257 -0.70652,0.625002 -1.41305,1.250004 -2.11413,1.869573 -0.86414,0.907608 -1.72284,1.804349 -2.58154,2.706523 -0.46195,0.168482 -2.71739,2.315227 -3.70109,2.978271 -0.45109,0.233698 -0.95109,0.40218 -1.34783,0.695651 -11.38046,8.614157 -22.755488,17.2283036 -34.119651,25.85332665 -0.907607,0.298914 -0.891299,0.369573 -2.706523,0.907617 -1.82609,0.538045 -7.038064,-0.217399 -7.201103,-2.44022605 -0.173915,-2.222837 1.706525,-14.9946006 3.695654,-22.4891856 4.016319,-15.092434 9.315241,-29.538115 16.418521,-43.391411 2.750006,-5.369581 5.445672,-12.733733 7.826106,-16.331564 2.375006,-3.592407 7.157626,-9.994595 8.858716,-13.423945 1.70109,-3.429356 2.61958,-9.918496 4.90219,-14.375026 4.17935,-8.14676 8.92937,-16.02722 13.82612,-23.78268 3.17936,-5.03805 5.85328,-9.96197 6.46741,-16.1359 0.40217,-4.15219 2.11957,-8.32068 3.0761,-9.73916 0.95652,-1.41304 3.36413,-3.4837 3.83696,-4.40762 3.1087,-6.10327 5.99458,-12.32612 8.95111,-18.50548 0,0 6.15219,-9.8859 8.52176,-15.14135 2.40761,-5.40218 2.15762,-5.51631 -3.8424,-8.28805 m -15.56494,161.364532 c -0.0109,0.04888 -0.0163,0.114133 -0.0272,0.168473 0.0272,-0.05433 0.0272,-0.114123 0.0272,-0.168473 z m 47.5273,-121.424212 0.26087,0.34783 -0.25,-0.30436 v -0.0435 z m 153.82647,25.78268 c -1.46196,3.95109 -2.79891,7.54349 -2.44566,11.7935 0.16305,1.95653 -0.48913,4.02175 -1.01086,5.96741 -0.67936,2.54349 -2.3098,3.82066 -5.11416,3.55979 -7.38588,-0.67392 -12.49459,3.3587 -17.1196,8.4348 -1.01087,1.1087 -2.19022,2.3098 -3.54349,2.82067 -2.81522,1.04891 -5.79893,1.66304 -8.70111,2.45652 0.61957,-2.61414 0.94566,-5.35327 1.94566,-7.8261 1.42392,-3.51089 2.91849,-7.13046 5.12502,-10.16307 8.25001,-11.35873 16.80438,-22.49463 25.30984,-33.6577 3.75544,-4.92392 3.1087,-0.0707 4.89131,0.35326 0.49458,0.11957 1.86415,-2.34782 2.35327,-2.19565 0.62501,0.20652 0.82065,0.83152 1.10327,1.36413 0.2663,0.48913 0.47283,1.00544 0.63043,1.54348 0.36957,1.26631 0.47283,2.60871 0.40217,3.92393 -0.13586,2.67391 -1.1576,5.13588 -2.15761,7.58153 -0.58695,1.34784 -1.19565,2.68479 -1.69566,4.0435 z m -478.07727,-53.44579 -4.65762,-1.17936 -0.17935,-0.0489 c -0.30979,-4.30435 -0.49457,-8.61958 -0.9837,-12.9022 -0.26631,-2.32609 0.59238,-5.48915 -3.20654,-6.02176 l -0.0326,0.0434 c -2.41306,-2.01087 -7.64133,-0.39674 -7.64133,-0.39674 0,0 -5.25545,0.97827 -6.32066,3.74458 -3.26632,0.42391 -6.52176,1.16848 -9.78807,1.20652 -11.05982,0.125 -11.02721,0.0435 -15.08156,10.28807 -0.51631,1.30978 -1.58696,2.39132 -2.40218,3.57609 -0.92392,-1.06521 -2.42392,-2.0163 -2.65762,-3.2174 -0.77174,-4.00544 -3.3424,-4.78805 -6.75545,-4.49457 -3.36957,0.28805 -3.40762,2.77175 -4.11414,5.40762 -1.70109,6.37502 -3.38588,13.06526 -9.01089,17.29896 -6.78806,5.1087 -9.50003,12.38047 -11.72829,20.0544 -1.67935,5.8098 -2.29349,12.13046 -7.91306,16.08156 -0.78805,0.55435 -1.53262,4.34783 -1.28805,4.84241 -4.78263,6.40761 -19.47287,28.16311 -21.61962,32.47834 -2.34783,4.71739 -5.16849,9.434796 -6.26089,14.483726 -0.89674,4.16305 -2.07065,7.684796 -5,10.657624 -5.69024,3.125012 -4.3261,8.711981 -4.74458,13.673948 -0.95653,1.538052 -1.91849,3.092404 -2.87502,4.635889 -0.71195,1.021739 -1.42391,2.048912 -2.1413,3.076094 -0.3587,0.385872 -0.71739,0.777176 -1.08153,1.163047 -0.96739,1.124996 -1.10326,2.543483 -2.90761,3.385874 -1.79892,0.836959 -8.10871,3.119569 -12.27721,4.304358 -6.3261,1.788049 -7.69024,2.657615 -7.48915,6.070664 0.28262,4.657621 3.75545,4.809794 7.20111,5.027193 2.88044,0.179348 3.4837,1.956521 2.40761,4.266316 -3.33696,7.173929 -6.62501,14.396774 -10.28263,21.407663 -8.62502,16.53264365 -26.66311,50.847946 -26.89137,51.559905 -1.64675,4.173926 -3.29349,8.347852 -4.94023,12.52721 l -0.0381,1.603258 c -0.65218,0.907617 -1.31522,1.815224 -1.97283,2.717399 -0.36413,0.60327 -0.73912,1.20653 -1.1087,1.80979 -0.10869,0.51087 -0.21739,1.02174 -0.32608,1.53261 -1.81523,3.347833 -4.51632,6.516318 -5.22828,10.092417 -0.79347,3.967402 -2.23913,7.369585 -4.76631,10.168508 -5.33697,5.929357 -3.39675,12.391335 -1.91849,18.86417 0.47826,2.092411 2.30435,2.315233 3.42936,0.956534 1.92392,-2.293486 3.56523,-4.907627 4.91849,-7.592418 1.4674,-2.923921 2.31522,-6.168488 3.78262,-9.097842 0.42392,-0.853267 2.13044,-1.635876 3.08696,-1.478269 0.67936,0.119565 1.72827,2.054355 1.49457,2.864138 -0.81521,2.875005 -2.20109,5.592403 -3.15218,8.440242 -0.24457,0.717393 -0.13587,2.375001 0.5,2.586957 0.63587,0.211956 2.14131,-0.472829 2.44023,-1.081522 1.88044,-3.902187 3.4674,-7.945672 5.28805,-11.880466 3.2011,-6.907623 6.45654,-13.788081 9.80981,-20.619612 0.35326,-0.706527 1.69565,-1.576093 2.24457,-1.391312 0.70652,0.239131 1.2337,1.418487 1.55979,2.288053 0.25543,0.679342 0.20652,1.532609 0.087,2.277177 -1.31522,7.956537 -2.68479,15.896776 -3.99458,23.842447 -0.0707,0.429355 0.21739,1.298921 0.36413,1.309787 0.67935,0.02716 1.74457,0.04352 1.97826,-0.353263 0.72827,-1.239129 1.16849,-2.663049 1.67392,-4.027176 2.27719,-6.13589 2.75001,-13.163078 9.0272,-17.29353 1.11956,-0.739125 2.16305,-2.565215 2.15761,-3.875002 -0.0272,-5.717411 13.27177,-34.233787 14.8533,-37.282707 l 0.0381,-0.03262 c 1.25,-3.152177 16.22286,-34.000079 19.16852,-41.902276 0.3587,-0.978266 5.13589,-11.461987 5.46197,-11.891332 2.1087,-4.614147 4.2174,-9.23916 6.32067,-13.85873 3.18479,-1.565227 6.27175,-3.375008 9.56524,-4.663063 16.79352,-6.532618 56.21753,-22.760924 58.17949,-22.282662 0.0217,0.49457 0.0381,4.288058 0.0598,4.793495 0.0326,1.032605 0.0707,2.070654 0.10869,3.103269 -0.0272,7.130445 -0.18478,14.2609 -0.0435,21.391354 0.11957,5.625011 1.54349,23.945713 1.11957,27.407679 -0.66304,5.4347956 -0.88043,10.5163286 1.56523,15.76634365 2.27174,4.86957665 3.23913,10.27719835 1.71739,15.75546835 l -0.10869,0.163049 c -0.0272,2.076087 -0.0598,4.168483 -0.0924,6.255446 v 0.0109 c 0.37499,3.788055 0.34238,7.5598 3.41305,10.646761 2.1087,2.119571 3.71739,2.798922 5.47283,0.152173 1.27175,-1.896739 2.02175,-1.603258 3.36958,-0.09782 3.42936,3.842405 5.33697,7.972847 4.3587,13.336994 -0.32065,1.749998 0.47283,3.891311 1.29348,5.597836 0.45109,0.945657 1.2174,2.68479 3.0598,2.021747 1.8424,-0.663044 1.66848,-2.429351 1.81522,-3.722839 0.29347,-2.527174 -0.087,-5.135882 0.16304,-7.673932 0.22283,-2.228261 0.67392,-4.510881 1.53261,-6.559793 0.49457,-1.190222 1.86957,-2.28262 3.10327,-2.755448 0.44022,-0.168473 1.79348,1.483702 2.43479,2.489142 0.79892,1.282613 1.04892,2.956529 1.9674,4.114134 2.20653,2.788056 5.26088,2.277186 6.27719,-1.103265 0.64674,-2.163044 0.93478,-4.532612 0.875,-6.798923 -0.26087,-9.483723 -1.08696,-18.967437 -0.98913,-28.4402943 0.19022,-18.9946117 0.86956,-37.9946567 1.30978,-56.9838347 0.43479,-18.744615 0.73914,-37.483782 1.26631,-56.222958 0.15761,-5.61414 1.20653,-11.21198 1.26088,-16.82069 0.16304,-18.25548 1.79891,-36.35879 4.68479,-54.37514 0.85869,-5.35871 -0.0707,-10.44024 -2.94566,-15.1033 l -0.28262,-0.0381 z m -55.34797,100.630676 c -3.07066,1.26087 -6.35328,2.02175 -9.42938,3.27719 -1.29348,0.52716 -4.22283,2.59783 -4.22283,2.59783 0,0 -1.22283,1.456516 -1.58153,1.929345 -2.21196,1.065223 -4.43479,3.021754 -6.64676,3.016311 -5.53805,-0.02171 -9.28806,2.347836 -12.11415,6.777192 -0.68478,1.081532 -1.17935,2.369577 -2.08696,3.217401 -0.63588,0.597828 -1.92936,1.010874 -2.7174,0.788042 -0.70653,-0.206513 -1.65218,-1.451085 -1.58153,-2.152178 0.20653,-2.250003 0.45109,-4.625013 1.36957,-6.641317 3.72283,-8.135896 7.48371,-16.271776 11.6359,-24.190272 6.54349,-12.47286 13.41307,-24.77723 20.14136,-37.15226 1.11413,-2.03261 1.92934,-4.2011 5.16305,-3.32066 1.09782,0.29891 2.67935,-0.74457 3.88045,-1.45109 1.15217,-0.68479 2.08696,-1.72284 3.11413,-2.59784 0.26088,1.48914 0.7337,2.98371 0.73914,4.47827 0.0543,14.15221 -0.13044,28.31529 0.10325,42.46207 0.0978,4.597836 -1.82065,7.358706 -5.74457,8.961966 z m 319.00623,83.565423 0.0272,-0.04888 v 0.02171 z m -455.20223,-24.61419 c 6.84784,-20.48918 12.9783,-41.217491 19.36962,-61.864283 1.58153,-5.092396 3.05979,-10.206536 4.58153,-15.315246 0.19566,-1.1087 5.82067,-20.82071 7.96198,-29.68486 2.56522,-10.60872 5.32066,-21.25005 6.60328,-32.04899 0.78804,-6.69024 3.72283,-10.14134 9.48915,-11.91851 3.3587,-1.03805 5.2174,-2.76088 8.70111,-3.01631 2.8587,-0.20652 4.84783,-0.92935 6.1685,-3.5598 1.11956,-2.23369 4.01087,-3.61414 5.50544,-5.59784 1.1087,-1.47827 2.51631,-3.22826 4.13044,-3.7174 4.61415,-1.39674 9.54351,-1.84239 14.10874,-3.3587 5.76088,-1.91305 12.42394,-3.28805 16.61417,-7.15763 4.28805,-3.9674 8.27176,-6.11958 13.80438,-6.54349 5.13045,-0.39674 9.58699,-2.38045 11.23916,-7.76089 1.02717,-3.33696 3.57066,-4.83697 6.14676,-6.49458 2.35326,-0.4837 3.65761,-1.42392 3.94566,-4.25545 0.28804,-2.83153 -10.31525,-1.25001 -11.01634,-1.96196 -3.26087,-3.3261 -2.94566,-3.98371 1.34783,-5.60871 2.79893,-1.05979 5.86959,-1.39674 8.81524,-2.05435 1.78805,-0.42935 3.58153,-0.8587 5.35871,-1.28261 4.23915,-0.55436 8.46741,-1.15218 12.70655,-1.65218 7.35328,-0.86957 14.71743,-1.61413 22.04898,-2.56522 1.71739,-0.22284 3.55979,-0.75 4.9674,-1.69566 1.29891,-0.875 3.08152,-3.9348 3.13044,-5.42937 0.0435,-1.49456 -2.90218,-2.34239 -4.3098,-2.29348 -5.86414,0.19566 -11.75002,0.60327 -17.55982,1.42935 -9.03806,1.28805 -18.03809,2.86957 -27.02181,4.52719 -7.48914,1.38587 -14.92394,3.05979 -22.38049,4.59784 -1.04891,0.125 -14.50547,3.26631 -15.46743,3.54348 -2.88588,0.69023 -5.76632,1.37501 -8.6522,2.05979 l -0.6413,0.0924 c -2.82066,0.5 -5.64132,1 -8.46198,1.50001 -8.75546,1.82066 -17.4946,3.72283 -26.26637,5.42935 -4.75544,0.92392 -9.62502,2.10871 -14.35873,3.12501 -6.75001,1.44566 -13.3696,2.71197 -20.13591,4.03805 -14.97831,2.94023 -30.01095,5.58154 -45.02186,8.34786 -1.44022,0.0489 -53.29905,9.2772 -80.88607,10.09241 -6.39676,0.18478 -12.81525,0.076 -19.23375,0.0217 -2.21739,-0.0164 -3.98913,0.35326 -4.70109,2.90761 -0.90761,3.27718 -0.15761,4.34241 3.63588,5.85327 1.70652,0.67936 3.11414,2.12501 4.65218,3.21741 -1.77174,1.20108 -3.42936,2.67935 -5.36957,3.4837 -1.3261,0.55435 -3.05437,0.0489 -4.56523,0.26631 -1.21197,0.1739 -2.57609,0.45652 -3.51089,1.16848 -4.05979,3.09239 -2.81522,6.75001 3.12502,9.46741 7.88588,3.60871 8.34784,5.29892 3.43479,12.44025 -0.94566,0.65217 -2.84783,1.26088 -2.84783,1.95653 0.006,0.69021 1.70109,1.61956 2.70109,1.90761 0.84782,0.24457 1.91304,-0.28805 2.88587,-0.47826 1.29349,1.43479 3.03262,2.67391 3.78262,4.35326 1.59239,3.55437 3.90219,4.97285 7.81524,4.66307 10.92394,-0.85327 21.96744,-0.77175 32.78269,-2.3424 11.30437,-1.6413 22.27723,-5.23371 33.77726,-6.25002 9.39132,-0.83152 18.69026,-2.66848 28.03811,-4.04893 2.52174,-0.36956 3.97827,0.5924 3.89131,3.28806 -0.11956,3.5924 0.20653,7.40763 -0.43479,10.75546 -0.63586,3.34241 -2.59783,14.46199 -4.375,22.30441 -2.35327,10.3859 -5.77175,22.09245 -5.83697,22.70114 -1.03805,3.58153 -2.07066,7.15763 -3.10871,10.74459 -3.48913,10.929366 -11.70111,38.244659 -12.36959,40.962057 -3.05979,12.478284 -16.32613,44.500109 -18.24461,48.641427 -4.41306,9.5326296 -8.85328,19.1141766 -14.19026,28.130504 -5.26631,8.891319 -11.6522,17.125038 -17.56525,25.625063 -4.54894,6.543493 -16.11418,17.983738 -16.26635,18.15222 -17.25005,19.722871 -36.82618,23.918538 -37.27727,24.076145 -12.82612,4.445664 -25.07072,4.347831 -37.64683,-2.032613 -5.6685,-2.875014 -11.69568,-5.402189 -16.61417,-9.288067 -5.26088,-4.152183 -10.96742,-9.500022 -15.79895,-13.820688 -1.4511,-1.298921 -2.47827,-3.157619 -4.46741,-4.206533 -2.95109,-1.538043 -4.99457,-0.206523 -5.14131,3.206526 -0.0652,1.483702 0.0435,3.23371 0.77174,4.451097 5.53262,9.320684 11.69568,18.277229 20.99462,24.163112 9.03262,5.706535 22.6631,12.222853 31.72833,15.875038 9.05981,3.646742 16.28809,6.103282 23.2881,7.538072 7.00003,1.42935 18.82614,3.42935 28.70659,0.49456 9.8859,-2.92936 20.83701,-7.451103 36.10335,-19.934835 15.26635,-12.489168 45.89686,-47.538162 57.70124,-69.320831 5.0761,-9.3641477 9.6522,-19.0000444 14.25004,-28.614199 3.82609,-8.021763 8.09241,-15.983733 10.90763,-24.402233 z M -796.9295,-553.10321 h 1920 V 526.8968 h -1920 z" /></g></g><style
     type="text/css"
     id="style2">
	.st0{fill:#C70A11;}
	.st1{fill:#2FBB37;}
	.st2{fill:#1E35A0;}
	.st3{fill:#FFFFFF;}
</style></svg>
