<?xml version="1.0" encoding="UTF-8" standalone="no"?>
<!-- Created with Inkscape (http://www.inkscape.org/) -->

<svg
   width="1500"
   height="500"
   viewBox="0 0 396.87498 132.29167"
   version="1.1"
   id="svg5"
   inkscape:version="1.2.2 (732a01da63, 2022-12-09)"
   xml:space="preserve"
   sodipodi:docname="atomiswave.svg"
   xmlns:inkscape="http://www.inkscape.org/namespaces/inkscape"
   xmlns:sodipodi="http://sodipodi.sourceforge.net/DTD/sodipodi-0.dtd"
   xmlns="http://www.w3.org/2000/svg"
   xmlns:svg="http://www.w3.org/2000/svg"><sodipodi:namedview
     id="namedview7"
     pagecolor="#000000"
     bordercolor="#111111"
     borderopacity="1"
     inkscape:showpageshadow="0"
     inkscape:pageopacity="0"
     inkscape:pagecheckerboard="1"
     inkscape:deskcolor="#d1d1d1"
     inkscape:document-units="mm"
     showgrid="false"
     inkscape:zoom="0.62760417"
     inkscape:cx="910.6058"
     inkscape:cy="595.91701"
     inkscape:window-width="1920"
     inkscape:window-height="1009"
     inkscape:window-x="-8"
     inkscape:window-y="-8"
     inkscape:window-maximized="1"
     inkscape:current-layer="layer1" /><defs
     id="defs2"><rect
       x="885.42926"
       y="125.5928"
       width="1014.1619"
       height="408.17661"
       id="rect334" /><rect
       x="863.4505"
       y="210.36795"
       width="850.89124"
       height="436.435"
       id="rect4589" /><rect
       x="885.42926"
       y="125.5928"
       width="1014.1619"
       height="408.17661"
       id="rect334-8" /><path
       id="SVGID_5_"
       d="M 943.9,810.2 C 891,754.5 864.2,690.4 864.2,619.6 c 0,-71.2 25.7,-134.6 76.3,-188.3 15.6,-16.6 32.4,-30.6 50.3,-42.2 -19.3,-25 -96.1,-114 -210.9,-114 -109.3,0 -137.5,65.4 -213.3,65.4 -83.5,0 -111.2,-72.4 -219.6,-72.4 0,0 -321.9,9.6 -321.9,400.2 0,140.9 123.1,551.6 306.2,551.6 91.6,0 80.6,-56.3 200.1,-56.3 118.9,0 98.6,47.6 210.5,47.6 115.7,0 266.3,-159.8 280.2,-341.7 -27.9,-14.1 -54.1,-33.9 -78.2,-59.3 z" /><linearGradient
       id="linearGradient4146"><stop
         id="stop4148"
         offset="0"
         style="stop-color:#ffba00;stop-opacity:1;" /><stop
         id="stop4150"
         offset="1"
         style="stop-color:#ff7f02;stop-opacity:1;" /></linearGradient><linearGradient
       id="linearGradient4520"><stop
         id="stop4522"
         offset="0"
         style="stop-color:#794d3b;stop-opacity:1;" /><stop
         id="stop4524"
         offset="1"
         style="stop-color:#5e3c2e;stop-opacity:1;" /></linearGradient><linearGradient
       id="linearGradient4214"><stop
         id="stop4216"
         offset="0"
         style="stop-color:#e5dfdd;stop-opacity:1;" /><stop
         id="stop4218"
         offset="1"
         style="stop-color:#ffffff;stop-opacity:1;" /></linearGradient></defs><g
     inkscape:label="Layer 1"
     inkscape:groupmode="layer"
     id="layer1"><path
       id="rect231"
       style="display:inline;fill:#ffffff;stroke-width:0.8001;stroke-linecap:square;paint-order:fill markers stroke"
       d="M -55.5625,-76.729167 V 209.02083 h 508 V -76.729167 Z m 68.702266,115.08652 h 13.894243 l 4.742863,18.09553 3.021004,-12.79198 h 13.894244 0.0103 l -0.005,0.0207 1.9575,7.47189 0.51831,-2.18953 H 65.07781 L 57.9754,79.016913 H 57.9547 44.06046 l -1.955953,-7.46673 -3.016354,12.75943 h -0.01033 -0.317293 c 0.0023,0.007 0.005,0.0136 0.0072,0.0207 H 25.193811 l 0.0047,-0.0207 h -0.01499 l -4.737696,-18.0759 -6.551538,27.70063 H 0 Z m 1.519288,1.1684 11.433927,43.62628 H 37.56825 L 26.134322,39.525753 h -1.07487 z m -0.885218,1.2516 -12.295373,51.98856 h 11.495939 l 6.844543,-28.92382 z m 22.543327,4.05143 8.653217,33.01969 h 11.47475 l -8.6527,-33.01969 z m -0.891935,1.22732 -3.021521,12.78992 6.04976,23.08179 3.022038,-12.777 z m 41.096712,2.90783 h 19.52801 c 1.56101,0 2.86388,1.18919 3.0086,2.73989 l 2.49132,27.28154 H 91.7391 l -0.71313,-7.8047 h -9.72809 l -1.8402,7.8047 H 69.41954 Z m 25.56537,0 h 32.21354 l -1.03405,3.84576 h -10.43089 l -6.19238,26.17618 h -6.2234 c -1.94354,0 -3.38078,-1.81955 -2.93625,-3.7114 l 5.31389,-22.46478 h -10.34821 z m 59.06099,0 c 1.94355,0 3.38081,1.81956 2.93626,3.7114 l -6.22339,26.31003 -23.19859,0.0315 c -1.94355,0 -3.38081,-1.81955 -2.93625,-3.7114 l 6.22391,-26.31054 z m 8.63255,0 35.93476,0.0103 c 1.94355,0 3.38029,1.81955 2.93574,3.7114 l -6.2234,26.32036 h -10.03814 l 6.19238,-26.19634 h -4.81727 l -6.19239,26.186 h -10.03866 l 6.1929,-26.186 h -4.81779 l -6.19239,26.17567 h -10.03815 z m 86.43555,0 -0.9095,3.84576 h -16.95452 l -1.6335,6.92671 h 13.12944 c 1.94352,0 3.38026,1.81956 2.93573,3.7114 l -3.66954,15.53756 h -27.01334 l 0.91984,-3.84525 h 16.95452 l 2.72904,-11.55795 h -13.13925 c -1.94355,0 -3.38079,-1.81955 -2.93626,-3.7114 l 2.57452,-10.87582 z m 4.82813,0 h 10.03815 l -6.19291,26.17618 h 4.8178 l 6.19239,-26.16584 h 10.03814 l -6.18205,26.16584 h 4.81728 l 6.18257,-26.15551 h 10.04848 l -7.10241,30.02194 -35.94509,-0.0103 c -1.94355,0 -3.38078,-1.81955 -2.93626,-3.7114 z m 44.60813,0 h 19.53886 c 1.56104,0 2.86336,1.18919 3.00809,2.73989 l 2.49183,27.28154 h -9.81077 l -0.71365,-7.8047 h -9.72809 l -1.85001,7.8047 h -10.03867 z m 27.43709,0 h 9.81077 l 2.38796,26.17618 h 3.71141 l 6.18205,-26.16584 v 0.0103 h 10.04848 l -7.10241,30.02143 -19.54868,-0.0202 c -1.55069,0 -2.85351,-1.18919 -2.99826,-2.73988 z m 41.34166,0 22.44359,0.0103 -0.90951,3.83542 h -16.78915 l -1.63349,6.92671 h 14.8456 l -0.91002,3.84576 h -14.85542 l -2.72955,11.55795 h 16.78915 l -0.91002,3.84525 -16.78864,0.0207 h -6.22339 c -1.94352,0 -3.38078,-1.81904 -2.93626,-3.71089 l 6.2234,-26.31054 z m -160.07343,0.0207 h 10.03814 l -7.10189,30.02143 h -6.22391 c -1.94355,0 -3.38026,-1.81904 -2.93574,-3.71089 z m -162.26504,1.14774 -0.8077,3.42614 6.04046,23.05855 6.26318,-26.48469 z m 33.55713,2.67735 -3.43235,14.52521 h 8.46718 l -1.32343,-14.52521 z m 61.43863,0 -5.28289,22.33042 h 6.91638 l 5.28288,-22.33042 z m 167.6926,0 -3.43235,14.52521 h 8.46667 l -1.32343,-14.52521 z" /><g
       id="g4671"
       transform="matrix(0.26458333,0,0,0.26458333,-281.90256,86.128134)" /></g><style
     type="text/css"
     id="style2">
	.st0{fill:#C70A11;}
	.st1{fill:#2FBB37;}
	.st2{fill:#1E35A0;}
	.st3{fill:#FFFFFF;}
</style></svg>
