<?xml version="1.0" encoding="UTF-8" standalone="no"?>
<!-- Created with Inkscape (http://www.inkscape.org/) -->

<svg
   width="1500"
   height="500"
   viewBox="0 0 396.87498 132.29167"
   version="1.1"
   id="svg5"
   inkscape:version="1.2.2 (732a01da63, 2022-12-09)"
   xml:space="preserve"
   sodipodi:docname="auto-lastplayed.svg"
   xmlns:inkscape="http://www.inkscape.org/namespaces/inkscape"
   xmlns:sodipodi="http://sodipodi.sourceforge.net/DTD/sodipodi-0.dtd"
   xmlns="http://www.w3.org/2000/svg"
   xmlns:svg="http://www.w3.org/2000/svg"><sodipodi:namedview
     id="namedview7"
     pagecolor="#000000"
     bordercolor="#111111"
     borderopacity="1"
     inkscape:showpageshadow="0"
     inkscape:pageopacity="0"
     inkscape:pagecheckerboard="1"
     inkscape:deskcolor="#d1d1d1"
     inkscape:document-units="mm"
     showgrid="false"
     inkscape:zoom="0.62760417"
     inkscape:cx="908.21577"
     inkscape:cy="594.32365"
     inkscape:window-width="1920"
     inkscape:window-height="1009"
     inkscape:window-x="-8"
     inkscape:window-y="-8"
     inkscape:window-maximized="1"
     inkscape:current-layer="layer1" /><defs
     id="defs2"><rect
       x="885.42926"
       y="125.5928"
       width="1014.1619"
       height="408.17661"
       id="rect334" /><rect
       x="863.4505"
       y="210.36795"
       width="850.89124"
       height="436.435"
       id="rect4589" /><rect
       x="885.42926"
       y="125.5928"
       width="1014.1619"
       height="408.17661"
       id="rect334-8" /><path
       id="SVGID_5_"
       d="M 943.9,810.2 C 891,754.5 864.2,690.4 864.2,619.6 c 0,-71.2 25.7,-134.6 76.3,-188.3 15.6,-16.6 32.4,-30.6 50.3,-42.2 -19.3,-25 -96.1,-114 -210.9,-114 -109.3,0 -137.5,65.4 -213.3,65.4 -83.5,0 -111.2,-72.4 -219.6,-72.4 0,0 -321.9,9.6 -321.9,400.2 0,140.9 123.1,551.6 306.2,551.6 91.6,0 80.6,-56.3 200.1,-56.3 118.9,0 98.6,47.6 210.5,47.6 115.7,0 266.3,-159.8 280.2,-341.7 -27.9,-14.1 -54.1,-33.9 -78.2,-59.3 z" /><linearGradient
       id="linearGradient4146"><stop
         id="stop4148"
         offset="0"
         style="stop-color:#ffba00;stop-opacity:1;" /><stop
         id="stop4150"
         offset="1"
         style="stop-color:#ff7f02;stop-opacity:1;" /></linearGradient><linearGradient
       id="linearGradient4520"><stop
         id="stop4522"
         offset="0"
         style="stop-color:#794d3b;stop-opacity:1;" /><stop
         id="stop4524"
         offset="1"
         style="stop-color:#5e3c2e;stop-opacity:1;" /></linearGradient><linearGradient
       id="linearGradient4214"><stop
         id="stop4216"
         offset="0"
         style="stop-color:#e5dfdd;stop-opacity:1;" /><stop
         id="stop4218"
         offset="1"
         style="stop-color:#ffffff;stop-opacity:1;" /></linearGradient></defs><g
     inkscape:label="Layer 1"
     inkscape:groupmode="layer"
     id="layer1"><path
       id="rect231"
       style="display:inline;fill:#ffffff;stroke-width:0.8001;stroke-linecap:square;paint-order:fill markers stroke"
       d="M -55.5625,-76.729167 V 209.02083 h 508 V -76.729167 Z m 80.45142,121.79567 c 11.662653,0 21.12688,9.44291 21.12688,21.07933 0,11.63635 -9.464227,21.07933 -21.12688,21.07933 -8.203162,0 -15.318886,-4.66718 -18.818489,-11.48767 -0.06935,-0.13526 -0.0629,-0.29721 0.01654,-0.42684 0.07944,-0.12964 0.220819,-0.20874 0.373104,-0.20878 h 4.357873 c 0.145867,0 0.282086,0.0729 0.363286,0.19379 2.959312,4.40419 7.991423,7.30343 13.70769,7.30343 9.113562,0 16.490466,-7.36026 16.490466,-16.45326 0,-9.093 -7.376904,-16.45326 -16.490466,-16.45326 -7.658464,0 -14.077161,5.20984 -15.936495,12.26385 h 2.770374 c 0.165633,2e-5 0.31658,0.093 0.390673,0.24081 0.07408,0.14781 0.05853,0.32459 -0.04082,0.45682 l -5.64255,7.50704 c -0.0826,0.10989 -0.212683,0.17415 -0.350366,0.17415 -0.137679,0 -0.267246,-0.0642 -0.349849,-0.17415 l -5.64255,-7.50704 c -0.09934,-0.13224 -0.11543,-0.30901 -0.04134,-0.45682 0.07409,-0.1478 0.225557,-0.24079 0.391191,-0.24081 h 3.746541 c 1.949299,-9.63398 10.480406,-16.88992 20.705196,-16.88992 z m 116.46834,0 c 5.30357,0 9.97875,0.52689 14.02809,1.57664 l -3.25665,10.09293 c -3.63197,-0.63027 -6.55354,-0.94671 -8.76898,-0.94671 -2.21122,0 -4.08916,0.10546 -5.63428,0.31626 l -0.50177,3.09025 4.19664,0.4408 c 4.25803,0.46374 7.28518,1.48596 9.07903,3.07113 1.79807,1.57041 2.69389,3.6781 2.69389,6.32778 0,2.69183 -0.58399,5.46615 -1.75389,8.32662 -0.5839,1.47134 -1.22468,2.70457 -1.9203,3.69952 -0.68297,0.98229 -1.55743,1.81709 -2.62826,2.50217 -1.06029,0.69983 -2.02573,1.22673 -2.90474,1.57665 -0.87479,0.36467 -1.98171,0.63235 -3.31814,0.80098 -1.96249,0.293 -4.36331,0.44028 -7.20059,0.44028 -5.17709,0 -9.87578,-0.54567 -14.09165,-1.63969 l 3.50521,-10.40712 c 3.50971,0.96544 6.72222,1.45056 9.64592,1.45056 2.9216,0 5.28061,-0.12635 7.07658,-0.3793 l 0.50177,-3.15382 -5.19813,-0.50384 c -3.96713,-0.37943 -6.77727,-1.28383 -8.43411,-2.71301 -1.64419,-1.42918 -2.46393,-3.44845 -2.46393,-6.05597 0,-1.13406 0.12433,-2.39672 0.37517,-3.78374 0.96122,-5.38367 2.70034,-9.08277 5.21932,-11.10217 2.53163,-2.01729 6.45024,-3.0272 11.7538,-3.0272 z m -75.65378,0.94619 H 77.6025 l -5.13457,29.32999 h 10.47946 l 12.25455,-29.32999 h 18.41283 l 2.75487,39.42292 h -12.58838 l -0.25115,-6.24355 h -9.8335 l -2.44068,6.24355 H 82.61305 58.8145 Z m 94.88,0 h 29.12122 l -1.81694,10.09293 h -8.6403 l -5.07411,29.32999 h -11.89902 l 5.07359,-29.32999 h -8.57932 z m 46.6571,0 h 18.788 c 7.09742,0 10.64741,3.32211 10.64741,9.96632 0,3.15347 -0.43826,5.99744 -1.31516,8.5354 -0.8769,2.5527 -1.84238,4.5784 -2.90267,6.07714 -1.07083,1.4861 -2.54045,2.74661 -4.40386,3.78582 -1.85288,1.02235 -3.98797,1.53479 -6.40788,1.53479 h -7.768 l -1.62729,9.52345 h -11.89902 z m 35.88567,0 h 11.89953 l -5.13509,29.32999 h 10.47946 l 12.25455,-29.32999 h 18.41077 l 2.75487,39.42292 h -12.58632 l -0.25063,-6.24355 h -9.8335 l -2.4412,6.24355 h -8.64237 -23.79854 z m 53.3585,0 h 13.15113 l 0.8139,13.87667 h 0.44029 l 5.76089,-13.87667 h 13.15165 l -15.78198,28.69954 -1.81746,10.72338 h -11.89902 l 1.81694,-10.72338 z m 35.63451,0 h 26.17825 l -3.25665,10.09293 h -12.83953 l -0.87694,5.29735 h 11.89953 l -1.62729,9.14621 h -11.89954 l -0.81338,4.7935 h 14.59084 l -1.7539,10.09293 h -26.49037 z m 33.19126,0 h 16.65945 c 5.38788,0 9.21173,0.96171 11.48198,2.87993 2.28289,1.90768 3.42305,5.00384 3.42305,9.29349 0,2.18593 -0.25076,4.7091 -0.75034,7.56956 -1.25212,7.06369 -3.39833,12.11054 -6.43165,15.13965 -3.02067,3.02699 -7.88982,4.54029 -14.61203,4.54029 h -16.65893 z m -341.825649,8.19227 h 1.880506 c 0.349204,0 0.632519,0.28255 0.632519,0.63097 v 12.25558 l 8.566919,5.08238 c 0.299364,0.17763 0.398137,0.56366 0.221175,0.86299 l -0.955497,1.61541 c -0.177381,0.29994 -0.564853,0.40003 -0.86558,0.22324 l -9.801469,-5.76296 c -0.192874,-0.11339 -0.31107,-0.32026 -0.311092,-0.54363 v -13.73301 c 0,-0.34842 0.283311,-0.63097 0.632519,-0.63097 z m 193.838299,1.90066 -1.69085,9.71361 h 2.75538 c 1.42075,0 2.49122,-0.15418 3.21634,-0.46405 0.73568,-0.32041 1.21035,-1.04974 1.41904,-2.18591 0.54385,-3.11131 0.81339,-4.81414 0.81339,-5.10925 0,-0.79891 -0.31187,-1.32421 -0.93793,-1.57717 -0.62606,-0.25295 -1.56628,-0.37723 -2.8205,-0.37723 z m 158.072,0 -3.32021,19.23706 h 4.94751 c 1.62732,0 2.83923,-0.19389 3.63181,-0.58807 0.79469,-0.40473 1.31547,-1.32359 1.56632,-2.75487 l 2.19211,-12.55066 c 0.0401,-0.25295 0.0615,-0.59028 0.0615,-1.00976 0,-0.96754 -0.33328,-1.59779 -1.00149,-1.8929 -0.66821,-0.29512 -1.7114,-0.4408 -3.13004,-0.4408 z m -273.42878,2.01744 -4.38475,11.03706 h 5.01055 v -11.03706 z m 177.42069,0 -4.38474,11.03706 h 5.01054 v -11.03706 z" /><g
       id="g4782"
       transform="matrix(0.26458333,0,0,0.26458333,210.46787,160.80958)"><g
         id="Group"
         transform="matrix(1.66729,0,0,1.663529,5.351232,9.862157)"
         fill-rule="nonzero"
         fill="#bba358" /></g></g><style
     type="text/css"
     id="style2">
	.st0{fill:#C70A11;}
	.st1{fill:#2FBB37;}
	.st2{fill:#1E35A0;}
	.st3{fill:#FFFFFF;}
</style></svg>
