<?xml version="1.0" encoding="UTF-8" standalone="no"?>
<!-- Created with Inkscape (http://www.inkscape.org/) -->

<svg
   width="1500"
   height="500"
   viewBox="0 0 396.87498 132.29167"
   version="1.1"
   id="svg5"
   inkscape:version="1.2.2 (732a01da63, 2022-12-09)"
   xml:space="preserve"
   sodipodi:docname="auto-favorites.svg"
   xmlns:inkscape="http://www.inkscape.org/namespaces/inkscape"
   xmlns:sodipodi="http://sodipodi.sourceforge.net/DTD/sodipodi-0.dtd"
   xmlns="http://www.w3.org/2000/svg"
   xmlns:svg="http://www.w3.org/2000/svg"><sodipodi:namedview
     id="namedview7"
     pagecolor="#000000"
     bordercolor="#111111"
     borderopacity="1"
     inkscape:showpageshadow="0"
     inkscape:pageopacity="0"
     inkscape:pagecheckerboard="1"
     inkscape:deskcolor="#d1d1d1"
     inkscape:document-units="mm"
     showgrid="false"
     inkscape:zoom="0.62760417"
     inkscape:cx="910.6058"
     inkscape:cy="595.91701"
     inkscape:window-width="1920"
     inkscape:window-height="1009"
     inkscape:window-x="-8"
     inkscape:window-y="-8"
     inkscape:window-maximized="1"
     inkscape:current-layer="layer1" /><defs
     id="defs2"><rect
       x="885.42926"
       y="125.5928"
       width="1014.1619"
       height="408.17661"
       id="rect334" /><rect
       x="863.4505"
       y="210.36795"
       width="850.89124"
       height="436.435"
       id="rect4589" /><rect
       x="885.42926"
       y="125.5928"
       width="1014.1619"
       height="408.17661"
       id="rect334-8" /><path
       id="SVGID_5_"
       d="M 943.9,810.2 C 891,754.5 864.2,690.4 864.2,619.6 c 0,-71.2 25.7,-134.6 76.3,-188.3 15.6,-16.6 32.4,-30.6 50.3,-42.2 -19.3,-25 -96.1,-114 -210.9,-114 -109.3,0 -137.5,65.4 -213.3,65.4 -83.5,0 -111.2,-72.4 -219.6,-72.4 0,0 -321.9,9.6 -321.9,400.2 0,140.9 123.1,551.6 306.2,551.6 91.6,0 80.6,-56.3 200.1,-56.3 118.9,0 98.6,47.6 210.5,47.6 115.7,0 266.3,-159.8 280.2,-341.7 -27.9,-14.1 -54.1,-33.9 -78.2,-59.3 z" /><linearGradient
       id="linearGradient4146"><stop
         id="stop4148"
         offset="0"
         style="stop-color:#ffba00;stop-opacity:1;" /><stop
         id="stop4150"
         offset="1"
         style="stop-color:#ff7f02;stop-opacity:1;" /></linearGradient><linearGradient
       id="linearGradient4520"><stop
         id="stop4522"
         offset="0"
         style="stop-color:#794d3b;stop-opacity:1;" /><stop
         id="stop4524"
         offset="1"
         style="stop-color:#5e3c2e;stop-opacity:1;" /></linearGradient><linearGradient
       id="linearGradient4214"><stop
         id="stop4216"
         offset="0"
         style="stop-color:#e5dfdd;stop-opacity:1;" /><stop
         id="stop4218"
         offset="1"
         style="stop-color:#ffffff;stop-opacity:1;" /></linearGradient></defs><g
     inkscape:label="Layer 1"
     inkscape:groupmode="layer"
     id="layer1"><path
       id="rect231"
       style="display:inline;fill:#ffffff;stroke-width:0.8001;stroke-linecap:square;paint-order:fill markers stroke"
       d="M -55.5625,-76.729167 V 209.02083 h 508 V -76.729167 Z m 80.428166,118.20881 c 0.526851,0 1.03926,0.40477 1.439188,1.21181 l 5.304586,10.85773 c 0.787881,1.61647 2.876252,3.14187 4.63641,3.4029 l 11.86336,1.73632 c 1.76734,0.25864 2.16285,1.49898 0.88883,2.75384 l -8.590171,8.4491 c -1.269228,1.25725 -2.066867,3.73587 -1.769917,5.5056 l 2.033467,11.93778 c 0.21553,1.2836 -0.268246,2.04018 -1.159102,2.04018 -0.332872,0 -0.735417,-0.10994 -1.161686,-0.33744 l -10.61589,-5.63945 c -0.780697,-0.4143 -1.824764,-0.62064 -2.866491,-0.62064 -1.034541,0 -2.069172,0.20395 -2.861841,0.62064 l -10.611239,5.63945 c -0.356822,0.20595 -0.756642,0.32067 -1.163753,0.33744 -0.88846,0 -1.377354,-0.75658 -1.157035,-2.04018 l 2.030883,-11.93778 c 0.301741,-1.76973 -0.49557,-4.24595 -1.771985,-5.5056 l -8.585522,-8.4491 c -1.276415,-1.25486 -0.878696,-2.4952 0.886251,-2.75384 l 11.858707,-1.74097 c 1.760158,-0.25864 3.851113,-1.78384 4.638994,-3.40031 l 5.309236,-10.85567 c 0.39035,-0.80704 0.907449,-1.21181 1.42472,-1.21181 z m 176.703424,2.39468 c 6.00849,0 10.29051,1.18813 12.84573,3.55896 2.55283,2.35645 3.83129,5.99642 3.83129,10.91768 0,4.91886 -0.77358,10.07226 -2.3182,15.45332 -1.53027,5.36908 -3.96789,9.53848 -7.3086,12.51758 -3.32874,2.99347 -8.2023,4.49016 -14.6203,4.49016 -6.40362,0 -10.88168,-1.17581 -13.4369,-3.53466 -2.55523,-2.37322 -3.83181,-6.02052 -3.83181,-10.93939 0,-2.34208 0.33071,-5.42902 0.99167,-9.27023 0.66335,-3.8508 1.53709,-7.17208 2.62671,-9.9596 1.08723,-2.80428 2.55524,-5.23063 4.39922,-7.28534 3.54905,-3.96575 9.15552,-5.94848 16.82119,-5.94848 z m 179.40921,0 c 6.00847,0 11.30592,0.59903 15.8967,1.79162 l -3.69021,11.46597 c -4.11663,-0.71604 -7.42851,-1.07539 -9.93583,-1.07539 -2.50732,0 -4.63665,0.11968 -6.38721,0.35915 l -0.56741,3.5109 4.75579,0.50281 c 4.82305,0.52446 8.25509,1.68846 10.28826,3.48454 2.03557,1.78651 3.05304,4.18107 3.05304,7.1913 0,3.05812 -0.66318,6.20966 -1.98747,9.45937 -0.66337,1.67155 -1.38874,3.07509 -2.17662,4.20543 -0.7735,1.11357 -1.76755,2.06202 -2.98173,2.84272 -1.19737,0.79506 -2.29431,1.39099 -3.28817,1.78852 -0.99382,0.4143 -2.24596,0.71844 -3.75946,0.91002 -2.22474,0.33287 -4.94561,0.50074 -8.16177,0.50074 -5.86721,0 -11.19045,-0.62244 -15.96802,-1.86293 l 3.97495,-11.82305 c 3.97296,1.09681 7.61553,1.64486 10.9275,1.64486 3.31197,0 5.98702,-0.14135 8.02018,-0.42633 l 0.56741,-3.58221 -5.88853,-0.57464 c -4.49498,-0.43106 -7.68246,-1.45885 -9.55756,-3.0825 -1.86314,-1.62366 -2.79259,-3.91547 -2.79259,-6.8802 0,-1.29079 0.14135,-2.72269 0.42633,-4.29845 1.08722,-6.11625 3.05826,-10.31899 5.91282,-12.61318 2.87133,-2.2918 7.3111,-3.43907 13.3196,-3.43907 z m -311.76599,1.07539 h 27.67635 l -3.75998,11.46596 H 80.63746 l -0.99374,6.01824 h 11.49749 l -1.91565,10.67842 H 77.72807 L 74.89,89.736643 H 61.40504 Z m 37.96668,0 h 20.86539 l 3.12281,44.78693 h -14.26321 l -0.28474,-7.09569 h -11.14299 l -2.76572,7.09569 H 88.51398 Z m 30.94281,0 h 14.9748 v 28.44736 h 0.63924 l 10.71665,-28.44736 h 14.26322 l -18.23868,44.78693 h -19.728 z m 90.13248,0 h 21.28914 c 8.08955,0 12.13466,3.65449 12.13466,10.96574 0,3.00783 -0.4478,5.87403 -1.34823,8.59689 -1.65479,5.16074 -4.25803,8.59982 -7.8047,10.31926 l 4.68189,14.90504 H 242.3759 l -3.26388,-13.32684 h -2.91197 l -2.27014,13.32684 h -13.4829 z m 41.94163,0 h 13.4829 l -7.80728,44.78693 h -13.48238 z m 18.66501,0 h 33.00005 l -2.05723,11.46596 h -9.79424 l -5.75004,33.32097 h -13.48238 l 5.74746,-33.32097 h -9.72292 z m 38.67826,0 H 357.203 l -3.69021,11.46596 h -14.54847 l -0.99373,6.01824 h 13.48496 l -1.8464,10.3911 h -13.48496 l -0.92191,5.44566 h 16.53594 l -1.98748,11.46597 h -30.01883 z m -128.31206,11.17864 c -1.79848,0 -3.14687,0.22275 -4.0473,0.66818 -0.89804,0.46219 -1.4894,1.50399 -1.77199,3.13004 l -3.26646,18.63142 h 5.60844 c 1.84398,0 3.21611,-0.22035 4.11654,-0.66817 0.89804,-0.4622 1.48941,-1.5038 1.77199,-3.12746 l 3.26647,-18.63401 z m 40.45231,0.28732 -1.56115,8.95656 h 3.12023 c 1.61168,0 2.82333,-0.17487 3.64473,-0.52451 0.83338,-0.3664 1.4034,-1.39367 1.70274,-3.08198 0.31611,-1.70269 0.47439,-2.74688 0.47439,-3.13005 0,-0.95551 -0.36405,-1.56855 -1.08727,-1.83916 -0.74238,-0.25385 -1.94241,-0.38086 -3.5972,-0.38086 z m -124.83476,2.29185 -4.96921,12.54136 h 5.68028 v -12.54136 z" /><g
       id="g4742"
       transform="matrix(0.26458333,0,0,0.26458333,154.39801,156.17223)" /></g><style
     type="text/css"
     id="style2">
	.st0{fill:#C70A11;}
	.st1{fill:#2FBB37;}
	.st2{fill:#1E35A0;}
	.st3{fill:#FFFFFF;}
</style></svg>
