<?xml version="1.0" encoding="UTF-8" standalone="no"?>
<!-- Created with Inkscape (http://www.inkscape.org/) -->

<svg
   width="1500"
   height="500"
   viewBox="0 0 396.87498 132.29167"
   version="1.1"
   id="svg5"
   inkscape:version="1.2.2 (732a01da63, 2022-12-09)"
   xml:space="preserve"
   sodipodi:docname="auto-allgames.svg"
   xmlns:inkscape="http://www.inkscape.org/namespaces/inkscape"
   xmlns:sodipodi="http://sodipodi.sourceforge.net/DTD/sodipodi-0.dtd"
   xmlns="http://www.w3.org/2000/svg"
   xmlns:svg="http://www.w3.org/2000/svg"><sodipodi:namedview
     id="namedview7"
     pagecolor="#000000"
     bordercolor="#111111"
     borderopacity="1"
     inkscape:showpageshadow="0"
     inkscape:pageopacity="0"
     inkscape:pagecheckerboard="1"
     inkscape:deskcolor="#d1d1d1"
     inkscape:document-units="mm"
     showgrid="false"
     inkscape:zoom="0.62760417"
     inkscape:cx="910.6058"
     inkscape:cy="595.91701"
     inkscape:window-width="1920"
     inkscape:window-height="1009"
     inkscape:window-x="-8"
     inkscape:window-y="-8"
     inkscape:window-maximized="1"
     inkscape:current-layer="layer1" /><defs
     id="defs2"><rect
       x="885.42926"
       y="125.5928"
       width="1014.1619"
       height="408.17661"
       id="rect334" /><rect
       x="863.4505"
       y="210.36795"
       width="850.89124"
       height="436.435"
       id="rect4589" /><rect
       x="885.42926"
       y="125.5928"
       width="1014.1619"
       height="408.17661"
       id="rect334-8" /><path
       id="SVGID_5_"
       d="M 943.9,810.2 C 891,754.5 864.2,690.4 864.2,619.6 c 0,-71.2 25.7,-134.6 76.3,-188.3 15.6,-16.6 32.4,-30.6 50.3,-42.2 -19.3,-25 -96.1,-114 -210.9,-114 -109.3,0 -137.5,65.4 -213.3,65.4 -83.5,0 -111.2,-72.4 -219.6,-72.4 0,0 -321.9,9.6 -321.9,400.2 0,140.9 123.1,551.6 306.2,551.6 91.6,0 80.6,-56.3 200.1,-56.3 118.9,0 98.6,47.6 210.5,47.6 115.7,0 266.3,-159.8 280.2,-341.7 -27.9,-14.1 -54.1,-33.9 -78.2,-59.3 z" /><linearGradient
       id="linearGradient4146"><stop
         id="stop4148"
         offset="0"
         style="stop-color:#ffba00;stop-opacity:1;" /><stop
         id="stop4150"
         offset="1"
         style="stop-color:#ff7f02;stop-opacity:1;" /></linearGradient><linearGradient
       id="linearGradient4520"><stop
         id="stop4522"
         offset="0"
         style="stop-color:#794d3b;stop-opacity:1;" /><stop
         id="stop4524"
         offset="1"
         style="stop-color:#5e3c2e;stop-opacity:1;" /></linearGradient><linearGradient
       id="linearGradient4214"><stop
         id="stop4216"
         offset="0"
         style="stop-color:#e5dfdd;stop-opacity:1;" /><stop
         id="stop4218"
         offset="1"
         style="stop-color:#ffffff;stop-opacity:1;" /></linearGradient></defs><g
     inkscape:label="Layer 1"
     inkscape:groupmode="layer"
     id="layer1"><path
       id="rect231"
       style="display:inline;fill:#ffffff;stroke-width:0.8001;stroke-linecap:square;paint-order:fill markers stroke"
       d="M -55.5625,-76.729167 V 209.02083 h 508 V -76.729167 Z m 76.50179,121.96413 h 41.82019 c 13.82842,0.004 23.84276,13.19487 20.13107,26.51725 -4.32021,15.50129 -23.80341,20.51382 -35.06815,9.02115 H 35.865511 c -9.683867,9.87834 -26.119936,7.79774 -33.035193,-4.18424 -8.044447,-13.93716 2.015895,-31.35627 18.108972,-31.35416 z m 206.31196,0.72347 c 1.54741,0 3.52355,0.16721 5.92832,0.50178 2.40476,0.33458 4.17177,0.71091 5.30096,1.12913 l -3.45043,9.59838 c -3.13665,-0.58551 -6.01196,-0.8785 -8.62583,-0.8785 -2.61387,0 -4.48545,0.20913 -5.61465,0.62735 -1.12919,0.41822 -1.798,1.25475 -2.00711,2.50941 l -3.07423,17.75344 h 3.95221 c 1.42195,0 2.47822,-0.15659 3.16829,-0.47026 0.69006,-0.31366 1.13964,-1.03501 1.34875,-2.16421 l 0.31368,-1.69395 h -3.01119 l 1.69395,-9.59838 h 14.36554 l -3.70107,20.95273 c -5.10228,1.88198 -10.22551,2.82308 -15.3696,2.82308 -5.1441,0 -8.85595,-1.02444 -11.13524,-3.07371 -2.2793,-2.04928 -3.41891,-5.20697 -3.41891,-9.47281 0,-1.79834 0.29299,-4.45391 0.87849,-7.96696 1.25466,-7.27701 3.47126,-12.52552 6.64973,-15.74581 3.17847,-3.22028 8.44768,-4.83071 15.80834,-4.83071 z m 155.57138,0 c 5.3114,0 9.99564,0.52283 14.05237,1.56838 l -3.26233,10.03711 c -3.63852,-0.62732 -6.56584,-0.94102 -8.78241,-0.94102 -2.21655,0 -4.09878,0.10456 -5.64617,0.31367 l -0.50178,3.07423 4.20336,0.43874 c 4.26585,0.46004 7.29774,1.47438 9.09609,3.04271 1.79834,1.56832 2.69751,3.66974 2.69751,6.30452 0,2.6766 -0.58549,5.43726 -1.75648,8.28115 -0.58553,1.46377 -1.22301,2.68673 -1.91307,3.66954 -0.69005,0.98282 -1.56849,1.81935 -2.63498,2.50941 -1.06645,0.69006 -2.03885,1.21289 -2.91713,1.56838 -0.87826,0.35548 -1.98658,0.61664 -3.32486,0.78393 -1.96564,0.29275 -4.37014,0.43925 -7.21403,0.43925 -5.18594,0 -9.89089,-0.54354 -14.1149,-1.63091 l 3.51296,-10.35079 c 3.51306,0.96191 6.73338,1.44281 9.66091,1.44281 2.92753,0 5.29011,-0.12579 7.08846,-0.37672 l 0.50177,-3.13625 -5.2064,-0.50229 c -3.97308,-0.3764 -6.78575,-1.27556 -8.43772,-2.69751 -1.65196,-1.42194 -2.47789,-3.42941 -2.47789,-6.02237 0,-1.12919 0.12527,-2.38347 0.37621,-3.7636 0.96189,-5.3532 2.7082,-9.03373 5.23844,-11.04118 2.53023,-2.00746 6.4507,-3.01119 11.76207,-3.01119 z m -271.30747,0.94103 h 18.44383 l 2.76004,39.20794 h -12.60905 l -0.25115,-6.21047 h -9.84901 l -2.44688,6.21047 H 95.01642 Z m 32.24299,0 h 11.91917 l -5.14439,29.17083 h 11.91969 l -1.75649,10.03711 h -23.83885 z m 26.72188,0 h 11.91917 l -5.14387,29.17083 h 11.91917 l -1.75648,10.03711 h -23.83834 z m 81.98776,0 h 18.44384 l 2.76004,39.20794 H 261.0621 l -0.25063,-6.21047 h -9.84901 l -2.44688,6.21047 h -12.54652 z m 33.37419,0 h 15.55771 l 1.12913,19.94917 h 0.43925 l 8.15506,-19.94917 h 15.5577 l -4.64209,39.20794 h -12.48399 l 2.63498,-19.00814 h -0.43925 l -7.84138,19.00814 h -9.0966 l -1.31724,-19.00814 h -0.31367 l -4.07779,19.00814 h -12.42095 z m 49.7427,0 h 26.22269 l -3.26233,10.03711 h -12.8602 l -0.87798,5.26997 h 11.91917 l -1.63143,9.09608 h -11.91916 l -0.81546,4.76767 h 14.61668 l -1.75648,10.03711 h -26.53585 z m -266.56357,7.74216 c -1.76018,0 -3.52052,0.87088 -4.52634,2.61276 -2.01163,3.48586 0.50204,7.83983 4.52531,7.83983 2.8878,0 5.22758,-2.3398 5.22758,-5.22552 0,-0.91799 -0.24226,-1.81969 -0.70021,-2.61431 -1.00582,-1.74188 -2.76616,-2.61276 -4.52634,-2.61276 z m -49.650199,10e-4 c -0.865713,0 -1.565796,0.70059 -1.565796,1.56631 v 6.79597 H 11.00863 c -0.865713,0 -1.566312,0.7006 -1.566312,1.56631 v 3.13676 c 0,0.86571 0.700599,1.56838 1.566312,1.56838 h 6.796485 v 6.7939 c 0,0.86571 0.700083,1.56838 1.565796,1.56838 h 3.136759 c 0.865713,0 1.56838,-0.70267 1.56838,-1.56838 v -6.7939 h 6.7939 c 0.865714,0 1.566313,-0.70267 1.566313,-1.56838 v -3.13676 c 0,-0.86571 -0.700599,-1.56631 -1.566313,-1.56631 h -6.7939 v -6.79597 c 0,-0.86572 -0.702667,-1.56631 -1.56838,-1.56631 z m 98.919539,4.30154 -4.39146,10.97814 h 5.01882 v -10.97814 z m 140.95264,0 -4.39146,10.97814 h 5.01881 v -10.97814 z m -198.58426,8.24033 c -1.76018,0 -3.52052,0.87138 -4.52634,2.61431 -2.01163,3.48376 0.5041,7.83983 4.52737,7.83983 2.88572,0 5.22552,-2.33979 5.22552,-5.22759 0,-0.9159 -0.24226,-1.81763 -0.70021,-2.61224 -1.00582,-1.74293 -2.76616,-2.61431 -4.52634,-2.61431 z" /><g
       id="g4706"
       transform="matrix(0.26458333,0,0,0.26458333,187.28117,161.23117)" /></g><style
     type="text/css"
     id="style2">
	.st0{fill:#C70A11;}
	.st1{fill:#2FBB37;}
	.st2{fill:#1E35A0;}
	.st3{fill:#FFFFFF;}
</style></svg>
