<?xml version="1.0" encoding="UTF-8" standalone="no"?>
<!-- Created with Inkscape (http://www.inkscape.org/) -->

<svg
   width="1500"
   height="500"
   viewBox="0 0 396.87498 132.29167"
   version="1.1"
   id="svg5"
   inkscape:version="1.2.2 (732a01da63, 2022-12-09)"
   xml:space="preserve"
   sodipodi:docname="bbcmicro.svg"
   xmlns:inkscape="http://www.inkscape.org/namespaces/inkscape"
   xmlns:sodipodi="http://sodipodi.sourceforge.net/DTD/sodipodi-0.dtd"
   xmlns="http://www.w3.org/2000/svg"
   xmlns:svg="http://www.w3.org/2000/svg"><sodipodi:namedview
     id="namedview7"
     pagecolor="#000000"
     bordercolor="#111111"
     borderopacity="1"
     inkscape:showpageshadow="0"
     inkscape:pageopacity="0"
     inkscape:pagecheckerboard="1"
     inkscape:deskcolor="#d1d1d1"
     inkscape:document-units="mm"
     showgrid="false"
     inkscape:zoom="0.62760417"
     inkscape:cx="956.0166"
     inkscape:cy="540.14938"
     inkscape:window-width="1920"
     inkscape:window-height="1009"
     inkscape:window-x="-8"
     inkscape:window-y="-8"
     inkscape:window-maximized="1"
     inkscape:current-layer="layer1" /><defs
     id="defs2" /><g
     inkscape:label="Layer 1"
     inkscape:groupmode="layer"
     id="layer1"><path
       id="rect231"
       style="fill:#ffffff;stroke-width:0.8001;stroke-linecap:square;paint-order:fill markers stroke"
       d="M 0 0 L 0 42.424801 A 1.7781786 1.7781786 0 0 1 1.778186 40.646615 A 1.7781786 1.7781786 0 0 1 3.5563721 42.424801 A 1.7781786 1.7781786 0 0 1 1.778186 44.202987 A 1.7781786 1.7781786 0 0 1 0 42.424801 L 0 47.687012 A 1.7781786 1.7781786 0 0 1 1.778186 45.908826 A 1.7781786 1.7781786 0 0 1 3.5563721 47.687012 A 1.7781786 1.7781786 0 0 1 1.778186 49.465198 A 1.7781786 1.7781786 0 0 1 0 47.687012 L 0 52.949223 A 1.7781786 1.7781786 0 0 1 1.778186 51.171037 A 1.7781786 1.7781786 0 0 1 3.5563721 52.949223 A 1.7781786 1.7781786 0 0 1 1.778186 54.727409 A 1.7781786 1.7781786 0 0 1 0 52.949223 L 0 58.211434 A 1.7781786 1.7781786 0 0 1 1.778186 56.433248 A 1.7781786 1.7781786 0 0 1 3.5563721 58.211434 A 1.7781786 1.7781786 0 0 1 1.778186 59.98962 A 1.7781786 1.7781786 0 0 1 0 58.211434 L 0 63.473645 A 1.7781786 1.7781786 0 0 1 1.778186 61.695459 A 1.7781786 1.7781786 0 0 1 3.5563721 63.473645 A 1.7781786 1.7781786 0 0 1 1.778186 65.251831 A 1.7781786 1.7781786 0 0 1 0 63.473645 L 0 132.29167 L 396.875 132.29167 L 396.875 72.788322 C 396.88534 78.567396 395.32405 83.239902 392.19156 86.785917 C 389.05908 90.290579 384.91338 92.048128 379.7546 92.048128 C 373.97552 92.048128 369.6129 90.083998 366.67684 86.145129 C 363.83383 82.257952 362.40734 77.709405 362.40734 72.498934 C 362.40734 69.511184 362.83136 66.833289 363.68943 64.465833 C 364.5475 62.098376 365.73641 60.082593 367.27681 58.428475 C 368.8172 56.774357 370.66772 55.502806 372.81807 54.624056 C 374.97876 53.745306 377.37724 53.310958 380.03417 53.310958 C 382.78414 53.310958 385.21361 53.796956 387.32261 54.76875 C 389.43161 55.740544 391.19949 57.10506 392.61583 58.852222 C 394.04251 60.609722 395.10695 62.666817 395.80995 65.034273 C 396.52329 67.401729 396.875 69.98666 396.875 72.788322 L 396.875 0 L 0 0 z M 172.8866 39.870951 C 176.58769 39.870951 179.68909 40.584715 182.20128 42.001054 C 184.71347 43.417392 186.53299 45.433176 187.6702 48.038411 L 187.6702 40.65695 L 192.78772 40.65695 L 192.78772 58.717863 L 187.24645 58.717863 C 187.00867 54.592907 185.75779 51.253417 183.48337 48.689535 C 181.20896 46.125652 177.91078 44.85411 173.59974 44.85411 C 168.15149 44.85411 164.01612 46.65297 161.19378 50.261015 C 158.37144 53.869059 156.96561 58.955762 156.96561 65.541219 C 156.96561 72.550544 158.34045 77.93681 161.09043 81.679252 C 163.8404 85.421694 167.87248 87.292863 173.17599 87.292863 C 177.20791 87.292863 180.37128 86.124612 182.66637 83.777832 C 184.96146 81.431052 186.23301 78.319326 186.47079 74.432149 L 193.01509 74.432149 C 192.87036 77.326856 192.30172 79.880275 191.30925 82.113334 C 190.31678 84.336055 188.95227 86.227889 187.22578 87.768286 C 185.4993 89.308683 183.43135 90.466605 181.04321 91.252311 C 178.64474 92.038017 176.00869 92.420715 173.11398 92.420715 C 168.80294 92.420715 165.17422 91.66564 162.23816 90.145919 C 159.3021 88.626198 156.93461 86.631082 155.12542 84.139567 C 153.32656 81.648052 152.03436 78.84621 151.24865 75.713725 C 150.46294 72.581239 150.08024 69.386878 150.08024 66.119995 C 150.08024 62.656686 150.53526 59.337852 151.43468 56.164014 C 152.33411 52.990175 153.70895 50.188838 155.5595 47.780029 C 157.41004 45.360882 159.76721 43.448401 162.6309 42.021724 C 165.48425 40.58471 168.90638 39.870951 172.8866 39.870951 z M 6.5339681 40.646615 A 1.7781786 1.7781786 0 0 1 8.3121541 42.424801 A 1.7781786 1.7781786 0 0 1 6.5339681 44.202987 A 1.7781786 1.7781786 0 0 1 4.7557821 42.424801 A 1.7781786 1.7781786 0 0 1 6.5339681 40.646615 z M 11.289233 40.646615 A 1.7781786 1.7781786 0 0 1 13.067419 42.424801 A 1.7781786 1.7781786 0 0 1 11.289233 44.202987 A 1.7781786 1.7781786 0 0 1 9.5110474 42.424801 A 1.7781786 1.7781786 0 0 1 11.289233 40.646615 z M 16.045015 40.646615 A 1.7781786 1.7781786 0 0 1 17.823201 42.424801 A 1.7781786 1.7781786 0 0 1 16.045015 44.202987 A 1.7781786 1.7781786 0 0 1 14.266829 42.424801 A 1.7781786 1.7781786 0 0 1 16.045015 40.646615 z M 20.800798 40.646615 A 1.7781786 1.7781786 0 0 1 22.578467 42.424801 A 1.7781786 1.7781786 0 0 1 20.800798 44.202987 A 1.7781786 1.7781786 0 0 1 19.022611 42.424801 A 1.7781786 1.7781786 0 0 1 20.800798 40.646615 z M 25.556063 40.646615 A 1.7781786 1.7781786 0 0 1 27.334249 42.424801 A 1.7781786 1.7781786 0 0 1 25.556063 44.202987 A 1.7781786 1.7781786 0 0 1 23.777877 42.424801 A 1.7781786 1.7781786 0 0 1 25.556063 40.646615 z M 30.311845 40.646615 A 1.7781786 1.7781786 0 0 1 32.090031 42.424801 A 1.7781786 1.7781786 0 0 1 30.311845 44.202987 A 1.7781786 1.7781786 0 0 1 28.533659 42.424801 A 1.7781786 1.7781786 0 0 1 30.311845 40.646615 z M 35.06711 40.646615 A 1.7781786 1.7781786 0 0 1 36.845296 42.424801 A 1.7781786 1.7781786 0 0 1 35.06711 44.202987 A 1.7781786 1.7781786 0 0 1 33.288924 42.424801 A 1.7781786 1.7781786 0 0 1 35.06711 40.646615 z M 39.833228 40.646615 A 1.7781786 1.7781786 0 0 1 41.611414 42.424801 A 1.7781786 1.7781786 0 0 1 39.833228 44.202987 A 1.7781786 1.7781786 0 0 1 38.055042 42.424801 A 1.7781786 1.7781786 0 0 1 39.833228 40.646615 z M 53.169364 40.65695 L 78.767285 40.65695 C 81.651653 40.65695 83.988164 41.091298 85.766341 41.970048 C 87.544518 42.848798 88.91936 43.944224 89.891154 45.277856 C 90.862948 46.611489 91.503887 48.017833 91.814034 49.506539 C 92.124181 50.995245 92.279122 52.35976 92.279122 53.590011 C 92.279122 55.109731 92.051872 56.505229 91.607328 57.78717 C 91.152446 59.069112 90.501178 60.206378 89.653442 61.198848 C 88.795369 62.191319 87.782061 63.008374 86.593164 63.649345 C 85.404267 64.290316 84.101731 64.703491 82.685392 64.889579 C 86.148702 65.127359 88.82608 66.378245 90.717977 68.652657 C 92.609874 70.927069 93.561214 73.914848 93.561214 77.605599 C 93.561214 79.166673 93.292136 80.779607 92.74421 82.444063 C 92.196283 84.098181 91.307439 85.607825 90.077189 86.962134 C 88.846939 88.316443 87.25466 89.411869 85.311072 90.269942 C 83.367483 91.128016 80.979334 91.552035 78.125981 91.552035 L 53.097017 91.552035 L 53.097017 86.858264 L 60.282109 86.858264 L 60.282109 45.339868 L 53.169364 45.339868 L 53.169364 40.65695 z M 100.59128 40.65695 L 126.18868 40.65695 C 129.07305 40.65695 131.40956 41.091298 133.18774 41.970048 C 134.96591 42.848798 136.34075 43.944224 137.31255 45.277856 C 138.28434 46.601151 138.92528 48.017833 139.23543 49.506539 C 139.54558 50.995245 139.70052 52.35976 139.70052 53.590011 C 139.70052 55.109731 139.47327 56.505229 139.02872 57.78717 C 138.57384 59.069112 137.92257 60.206378 137.07484 61.198848 C 136.21676 62.191319 135.20346 63.008374 134.01456 63.649345 C 132.82566 64.290316 131.52313 64.703491 130.10679 64.889579 C 133.5701 65.127359 136.24799 66.378245 138.13989 68.652657 C 140.03179 70.927069 140.98261 73.914848 140.98261 77.605599 C 140.98261 79.166673 140.71405 80.779607 140.16612 82.444063 C 139.61819 84.098181 138.72883 85.607825 137.49858 86.962134 C 136.26833 88.316443 134.67657 89.411869 132.73298 90.269942 C 130.78939 91.128016 128.40125 91.552035 125.54789 91.552035 L 100.52926 91.552035 L 100.52926 86.858264 L 107.71436 86.858264 L 107.71436 45.339868 L 100.59128 45.339868 L 100.59128 40.65695 z M 210.56958 40.65695 L 228.6925 40.65695 L 241.8426 84.160238 L 255.41697 40.65695 L 273.33267 40.65695 L 273.33267 45.350203 L 266.08557 45.350203 L 266.08557 86.868599 L 273.33267 86.868599 L 273.33267 91.56237 L 253.56643 91.56237 L 253.56643 86.868599 L 260.11022 86.868599 L 260.11022 45.339868 L 259.61413 45.339868 L 244.46828 91.552035 L 238.92702 91.552035 L 223.78169 45.339868 L 223.2856 45.339868 L 223.2856 86.858264 L 229.90173 86.858264 L 229.90173 91.552035 L 210.56958 91.552035 L 210.56958 86.858264 L 217.88903 86.858264 L 217.88903 45.339868 L 210.56958 45.339868 L 210.56958 40.65695 z M 283.49536 40.65695 L 290.11201 40.65695 L 290.11201 46.62196 L 283.49536 46.62196 L 283.49536 40.65695 z M 4.1558187 43.282629 A 1.7781786 1.7781786 0 0 1 5.9340047 45.060815 A 1.7781786 1.7781786 0 0 1 4.1558187 46.839001 A 1.7781786 1.7781786 0 0 1 2.3776326 45.060815 A 1.7781786 1.7781786 0 0 1 4.1558187 43.282629 z M 18.422648 43.282629 A 1.7781786 1.7781786 0 0 1 20.200834 45.060815 A 1.7781786 1.7781786 0 0 1 18.422648 46.839001 A 1.7781786 1.7781786 0 0 1 16.644462 45.060815 A 1.7781786 1.7781786 0 0 1 18.422648 43.282629 z M 23.17843 43.282629 A 1.7781786 1.7781786 0 0 1 24.956616 45.060815 A 1.7781786 1.7781786 0 0 1 23.17843 46.839001 A 1.7781786 1.7781786 0 0 1 21.400244 45.060815 A 1.7781786 1.7781786 0 0 1 23.17843 43.282629 z M 37.455595 43.282629 A 1.7781786 1.7781786 0 0 1 39.233781 45.060815 A 1.7781786 1.7781786 0 0 1 37.455595 46.839001 A 1.7781786 1.7781786 0 0 1 35.677409 45.060815 A 1.7781786 1.7781786 0 0 1 37.455595 43.282629 z M 66.464677 45.350203 L 66.464677 63.194076 L 75.417619 63.194076 C 77.505943 63.183737 79.242833 62.89452 80.617818 62.305241 C 81.992804 61.715961 83.077903 60.951064 83.884285 60.030961 C 84.690668 59.110858 85.248972 58.076883 85.559119 56.939677 C 85.869266 55.802471 86.024723 54.685861 86.024723 53.600346 C 86.024723 52.556184 85.910586 51.542877 85.672807 50.540068 C 85.435027 49.547597 84.970202 48.669079 84.287878 47.914388 C 83.605555 47.159697 82.664544 46.539414 81.475647 46.063855 C 80.28675 45.588296 78.746638 45.350203 76.85474 45.350203 L 66.464677 45.350203 z M 113.88607 45.350203 L 113.88607 63.194076 L 122.83901 63.194076 C 124.92734 63.183737 126.65389 62.89452 128.02888 62.305241 C 129.40386 61.715961 130.48948 60.951064 131.29586 60.030961 C 132.10224 59.110858 132.66055 58.076883 132.97069 56.939677 C 133.28084 55.802471 133.43578 54.685861 133.43578 53.600346 C 133.43578 52.556184 133.32216 51.542877 133.08438 50.540068 C 132.8466 49.547597 132.38126 48.669079 131.69894 47.914388 C 131.01661 47.159697 130.0756 46.539414 128.88671 46.063855 C 127.69781 45.588296 126.1577 45.350203 124.2658 45.350203 L 113.88607 45.350203 z M 11.289233 45.908826 A 1.7781786 1.7781786 0 0 1 13.067419 47.687012 A 1.7781786 1.7781786 0 0 1 11.289233 49.465198 A 1.7781786 1.7781786 0 0 1 9.5110474 47.687012 A 1.7781786 1.7781786 0 0 1 11.289233 45.908826 z M 20.800798 45.908826 A 1.7781786 1.7781786 0 0 1 22.578467 47.687012 A 1.7781786 1.7781786 0 0 1 20.800798 49.465198 A 1.7781786 1.7781786 0 0 1 19.022611 47.687012 A 1.7781786 1.7781786 0 0 1 20.800798 45.908826 z M 30.311845 45.908826 A 1.7781786 1.7781786 0 0 1 32.090031 47.687012 A 1.7781786 1.7781786 0 0 1 30.311845 49.465198 A 1.7781786 1.7781786 0 0 1 28.533659 47.687012 A 1.7781786 1.7781786 0 0 1 30.311845 45.908826 z M 39.833228 45.908826 A 1.7781786 1.7781786 0 0 1 41.611414 47.687012 A 1.7781786 1.7781786 0 0 1 39.833228 49.465198 A 1.7781786 1.7781786 0 0 1 38.055042 47.687012 A 1.7781786 1.7781786 0 0 1 39.833228 45.908826 z M 8.9116007 48.54484 A 1.7781786 1.7781786 0 0 1 10.689787 50.323027 A 1.7781786 1.7781786 0 0 1 8.9116007 52.101213 A 1.7781786 1.7781786 0 0 1 7.1334147 50.323027 A 1.7781786 1.7781786 0 0 1 8.9116007 48.54484 z M 13.667383 48.54484 A 1.7781786 1.7781786 0 0 1 15.445569 50.323027 A 1.7781786 1.7781786 0 0 1 13.667383 52.101213 A 1.7781786 1.7781786 0 0 1 11.889197 50.323027 A 1.7781786 1.7781786 0 0 1 13.667383 48.54484 z M 27.933695 48.54484 A 1.7781786 1.7781786 0 0 1 29.711882 50.323027 A 1.7781786 1.7781786 0 0 1 27.933695 52.101213 A 1.7781786 1.7781786 0 0 1 26.155509 50.323027 A 1.7781786 1.7781786 0 0 1 27.933695 48.54484 z M 32.689478 48.54484 A 1.7781786 1.7781786 0 0 1 34.467664 50.323027 A 1.7781786 1.7781786 0 0 1 32.689478 52.101213 A 1.7781786 1.7781786 0 0 1 30.911292 50.323027 A 1.7781786 1.7781786 0 0 1 32.689478 48.54484 z M 11.289233 51.171037 A 1.7781786 1.7781786 0 0 1 13.067419 52.949223 A 1.7781786 1.7781786 0 0 1 11.289233 54.727409 A 1.7781786 1.7781786 0 0 1 9.5110474 52.949223 A 1.7781786 1.7781786 0 0 1 11.289233 51.171037 z M 30.311845 51.171037 A 1.7781786 1.7781786 0 0 1 32.090031 52.949223 A 1.7781786 1.7781786 0 0 1 30.311845 54.727409 A 1.7781786 1.7781786 0 0 1 28.533659 52.949223 A 1.7781786 1.7781786 0 0 1 30.311845 51.171037 z M 39.833228 51.171037 A 1.7781786 1.7781786 0 0 1 41.611414 52.949223 A 1.7781786 1.7781786 0 0 1 39.833228 54.727409 A 1.7781786 1.7781786 0 0 1 38.055042 52.949223 A 1.7781786 1.7781786 0 0 1 39.833228 51.171037 z M 315.07896 53.290287 C 317.49811 53.290287 319.5552 53.7453 321.26101 54.644727 C 322.96682 55.544153 324.43463 57.01196 325.66488 59.048592 L 325.66488 54.448356 L 330.13127 54.448356 L 330.13127 68.094552 L 325.65454 68.094552 L 325.65454 67.453764 C 325.60285 66.264867 325.35494 65.117274 324.9104 64.000745 C 324.45552 62.884215 323.83524 61.881234 323.02886 60.981807 C 322.22248 60.082381 321.27114 59.358807 320.18562 58.810881 C 319.10011 58.262954 317.89054 57.993876 316.55691 57.993876 C 314.56163 57.993876 312.87691 58.428224 311.47091 59.306974 C 310.07525 60.185724 308.93798 61.312661 308.05923 62.687646 C 307.18048 64.062632 306.53954 65.623917 306.13635 67.381417 C 305.73316 69.138917 305.53639 70.886128 305.53639 72.643628 C 305.53639 74.442481 305.76416 76.220686 306.2087 77.978186 C 306.65324 79.735686 307.33551 81.306784 308.23493 82.702445 C 309.13436 84.098107 310.27163 85.235373 311.64661 86.114124 C 313.0216 86.992874 314.63401 87.427222 316.48456 87.427222 C 318.57288 87.427222 320.38207 86.765627 321.92247 85.431995 C 323.46287 84.1087 324.49684 82.237531 325.01375 79.818384 L 325.15845 78.960038 L 330.56535 78.960038 L 330.49301 80.242131 C 330.25523 82.092675 329.72792 83.746924 328.89052 85.214954 C 328.06346 86.682983 326.9985 87.913211 325.69588 88.91602 C 324.39326 89.90849 322.9048 90.683717 321.21967 91.221305 C 319.53454 91.769232 317.76666 92.037793 315.92645 92.037793 C 313.26953 92.037793 310.91236 91.552312 308.85505 90.580518 C 306.79774 89.608723 305.05052 88.274688 303.63418 86.558541 C 302.2075 84.852732 301.12189 82.857607 300.3672 80.583195 C 299.6125 78.308783 299.23031 75.889637 299.23031 73.336092 C 299.23031 70.017518 299.66466 67.102047 300.54341 64.589856 C 301.42216 62.077664 302.57957 59.989575 304.02692 58.335457 C 305.47427 56.681339 307.15952 55.420115 309.07209 54.57238 C 310.995 53.714306 312.99064 53.290287 315.07896 53.290287 z M 4.1558187 53.807052 A 1.7781786 1.7781786 0 0 1 5.9340047 55.585238 A 1.7781786 1.7781786 0 0 1 4.1558187 57.363424 A 1.7781786 1.7781786 0 0 1 2.3776326 55.585238 A 1.7781786 1.7781786 0 0 1 4.1558187 53.807052 z M 18.422648 53.807052 A 1.7781786 1.7781786 0 0 1 20.200834 55.585238 A 1.7781786 1.7781786 0 0 1 18.422648 57.363424 A 1.7781786 1.7781786 0 0 1 16.644462 55.585238 A 1.7781786 1.7781786 0 0 1 18.422648 53.807052 z M 23.17843 53.807052 A 1.7781786 1.7781786 0 0 1 24.956616 55.585238 A 1.7781786 1.7781786 0 0 1 23.17843 57.363424 A 1.7781786 1.7781786 0 0 1 21.400244 55.585238 A 1.7781786 1.7781786 0 0 1 23.17843 53.807052 z M 37.455595 53.807052 A 1.7781786 1.7781786 0 0 1 39.233781 55.585238 A 1.7781786 1.7781786 0 0 1 37.455595 57.363424 A 1.7781786 1.7781786 0 0 1 35.677409 55.585238 A 1.7781786 1.7781786 0 0 1 37.455595 53.807052 z M 356.29712 53.807052 L 358.71661 53.807052 L 358.71661 59.14161 C 358.2824 59.038227 357.86871 58.965922 357.46552 58.924569 C 357.06233 58.872878 356.66929 58.852222 356.29712 58.852222 C 349.42219 58.852222 345.99025 63.421941 345.99025 72.571281 L 345.99025 87.075822 L 353.03065 87.075822 L 353.03065 91.552035 L 334.32843 91.552035 L 334.32843 87.075822 L 340.23195 87.075822 L 340.23195 58.635181 L 334.32843 58.635181 L 334.32843 54.448356 L 345.99025 54.448356 L 345.99025 61.840153 C 346.55885 60.227388 347.14814 58.914009 347.76844 57.890523 C 348.38873 56.867038 349.09164 56.060829 349.89802 55.471549 C 350.7044 54.88227 351.6139 54.468578 352.63739 54.230798 C 353.66088 53.993019 354.88078 53.848405 356.29712 53.807052 z M 278.02644 54.448356 L 289.68826 54.448356 L 289.68826 87.075822 L 295.44657 87.075822 L 295.44657 91.552035 L 277.95409 91.552035 L 277.95409 87.075822 L 283.92944 87.075822 L 283.92944 58.635181 L 278.02644 58.635181 L 278.02644 54.448356 z M 6.5339681 56.433248 A 1.7781786 1.7781786 0 0 1 8.3121541 58.211434 A 1.7781786 1.7781786 0 0 1 6.5339681 59.98962 A 1.7781786 1.7781786 0 0 1 4.7557821 58.211434 A 1.7781786 1.7781786 0 0 1 6.5339681 56.433248 z M 20.800798 56.433248 A 1.7781786 1.7781786 0 0 1 22.578467 58.211434 A 1.7781786 1.7781786 0 0 1 20.800798 59.98962 A 1.7781786 1.7781786 0 0 1 19.022611 58.211434 A 1.7781786 1.7781786 0 0 1 20.800798 56.433248 z M 35.06711 56.433248 A 1.7781786 1.7781786 0 0 1 36.845296 58.211434 A 1.7781786 1.7781786 0 0 1 35.06711 59.98962 A 1.7781786 1.7781786 0 0 1 33.288924 58.211434 A 1.7781786 1.7781786 0 0 1 35.06711 56.433248 z M 39.833228 56.433248 A 1.7781786 1.7781786 0 0 1 41.611414 58.211434 A 1.7781786 1.7781786 0 0 1 39.833228 59.98962 A 1.7781786 1.7781786 0 0 1 38.055042 58.211434 A 1.7781786 1.7781786 0 0 1 39.833228 56.433248 z M 379.62024 57.704488 C 377.91443 57.704488 376.37432 58.045872 374.99933 58.738534 C 373.62435 59.420857 372.46643 60.392853 371.51531 61.654118 C 370.56419 62.905044 369.83029 64.424501 369.31337 66.202677 C 368.79646 67.980854 368.52738 69.934658 368.52738 72.064335 C 368.52738 75.289865 368.8481 77.812302 369.48907 79.631832 C 370.13005 81.451362 370.99823 82.961005 372.08375 84.149902 C 374.26512 86.517359 376.79788 87.706274 379.69259 87.706274 C 381.00554 87.716613 382.31892 87.406211 383.63188 86.785917 C 384.9345 86.165623 386.13374 85.245794 387.21926 84.015544 C 388.35646 82.785293 389.21432 81.172359 389.78293 79.177079 C 390.35153 77.1818 390.64076 74.907268 390.64076 72.353723 C 390.64076 67.660164 389.68993 64.052113 387.79803 61.508907 C 385.90614 58.976039 383.17659 57.704488 379.62024 57.704488 z M 4.1558187 59.058927 A 1.7781786 1.7781786 0 0 1 5.9340047 60.837113 A 1.7781786 1.7781786 0 0 1 4.1558187 62.615299 A 1.7781786 1.7781786 0 0 1 2.3776326 60.837113 A 1.7781786 1.7781786 0 0 1 4.1558187 59.058927 z M 8.9116007 59.058927 A 1.7781786 1.7781786 0 0 1 10.689787 60.837113 A 1.7781786 1.7781786 0 0 1 8.9116007 62.615299 A 1.7781786 1.7781786 0 0 1 7.1334147 60.837113 A 1.7781786 1.7781786 0 0 1 8.9116007 59.058927 z M 13.667383 59.058927 A 1.7781786 1.7781786 0 0 1 15.445569 60.837113 A 1.7781786 1.7781786 0 0 1 13.667383 62.615299 A 1.7781786 1.7781786 0 0 1 11.889197 60.837113 A 1.7781786 1.7781786 0 0 1 13.667383 59.058927 z M 18.422648 59.058927 A 1.7781786 1.7781786 0 0 1 20.200834 60.837113 A 1.7781786 1.7781786 0 0 1 18.422648 62.615299 A 1.7781786 1.7781786 0 0 1 16.644462 60.837113 A 1.7781786 1.7781786 0 0 1 18.422648 59.058927 z M 23.17843 59.058927 A 1.7781786 1.7781786 0 0 1 24.956616 60.837113 A 1.7781786 1.7781786 0 0 1 23.17843 62.615299 A 1.7781786 1.7781786 0 0 1 21.400244 60.837113 A 1.7781786 1.7781786 0 0 1 23.17843 59.058927 z M 27.933695 59.058927 A 1.7781786 1.7781786 0 0 1 29.711882 60.837113 A 1.7781786 1.7781786 0 0 1 27.933695 62.615299 A 1.7781786 1.7781786 0 0 1 26.155509 60.837113 A 1.7781786 1.7781786 0 0 1 27.933695 59.058927 z M 32.689478 59.058927 A 1.7781786 1.7781786 0 0 1 34.467664 60.837113 A 1.7781786 1.7781786 0 0 1 32.689478 62.615299 A 1.7781786 1.7781786 0 0 1 30.911292 60.837113 A 1.7781786 1.7781786 0 0 1 32.689478 59.058927 z M 6.5339681 61.695459 A 1.7781786 1.7781786 0 0 1 8.3121541 63.473645 A 1.7781786 1.7781786 0 0 1 6.5339681 65.251831 A 1.7781786 1.7781786 0 0 1 4.7557821 63.473645 A 1.7781786 1.7781786 0 0 1 6.5339681 61.695459 z M 11.289233 61.695459 A 1.7781786 1.7781786 0 0 1 13.067419 63.473645 A 1.7781786 1.7781786 0 0 1 11.289233 65.251831 A 1.7781786 1.7781786 0 0 1 9.5110474 63.473645 A 1.7781786 1.7781786 0 0 1 11.289233 61.695459 z M 16.045015 61.695459 A 1.7781786 1.7781786 0 0 1 17.823201 63.473645 A 1.7781786 1.7781786 0 0 1 16.045015 65.251831 A 1.7781786 1.7781786 0 0 1 14.266829 63.473645 A 1.7781786 1.7781786 0 0 1 16.045015 61.695459 z M 20.800798 61.695459 A 1.7781786 1.7781786 0 0 1 22.578467 63.473645 A 1.7781786 1.7781786 0 0 1 20.800798 65.251831 A 1.7781786 1.7781786 0 0 1 19.022611 63.473645 A 1.7781786 1.7781786 0 0 1 20.800798 61.695459 z M 39.833228 61.695459 A 1.7781786 1.7781786 0 0 1 41.611414 63.473645 A 1.7781786 1.7781786 0 0 1 39.833228 65.251831 A 1.7781786 1.7781786 0 0 1 38.055042 63.473645 A 1.7781786 1.7781786 0 0 1 39.833228 61.695459 z M 4.1558187 64.321139 A 1.7781786 1.7781786 0 0 1 5.9340047 66.099325 A 1.7781786 1.7781786 0 0 1 4.1558187 67.877511 A 1.7781786 1.7781786 0 0 1 2.3776326 66.099325 A 1.7781786 1.7781786 0 0 1 4.1558187 64.321139 z M 8.9116007 64.321139 A 1.7781786 1.7781786 0 0 1 10.689787 66.099325 A 1.7781786 1.7781786 0 0 1 8.9116007 67.877511 A 1.7781786 1.7781786 0 0 1 7.1334147 66.099325 A 1.7781786 1.7781786 0 0 1 8.9116007 64.321139 z M 13.667383 64.321139 A 1.7781786 1.7781786 0 0 1 15.445569 66.099325 A 1.7781786 1.7781786 0 0 1 13.667383 67.877511 A 1.7781786 1.7781786 0 0 1 11.889197 66.099325 A 1.7781786 1.7781786 0 0 1 13.667383 64.321139 z M 18.422648 64.321139 A 1.7781786 1.7781786 0 0 1 20.200834 66.099325 A 1.7781786 1.7781786 0 0 1 18.422648 67.877511 A 1.7781786 1.7781786 0 0 1 16.644462 66.099325 A 1.7781786 1.7781786 0 0 1 18.422648 64.321139 z M 23.17843 64.321139 A 1.7781786 1.7781786 0 0 1 24.956616 66.099325 A 1.7781786 1.7781786 0 0 1 23.17843 67.877511 A 1.7781786 1.7781786 0 0 1 21.400244 66.099325 A 1.7781786 1.7781786 0 0 1 23.17843 64.321139 z M 6.5339681 66.957153 A 1.7781786 1.7781786 0 0 1 8.3121541 68.735339 A 1.7781786 1.7781786 0 0 1 6.5339681 70.513525 A 1.7781786 1.7781786 0 0 1 4.7557821 68.735339 A 1.7781786 1.7781786 0 0 1 6.5339681 66.957153 z M 11.289233 66.957153 A 1.7781786 1.7781786 0 0 1 13.067419 68.735339 A 1.7781786 1.7781786 0 0 1 11.289233 70.513525 A 1.7781786 1.7781786 0 0 1 9.5110474 68.735339 A 1.7781786 1.7781786 0 0 1 11.289233 66.957153 z M 16.045015 66.957153 A 1.7781786 1.7781786 0 0 1 17.823201 68.735339 A 1.7781786 1.7781786 0 0 1 16.045015 70.513525 A 1.7781786 1.7781786 0 0 1 14.266829 68.735339 A 1.7781786 1.7781786 0 0 1 16.045015 66.957153 z M 20.800798 66.957153 A 1.7781786 1.7781786 0 0 1 22.578467 68.735339 A 1.7781786 1.7781786 0 0 1 20.800798 70.513525 A 1.7781786 1.7781786 0 0 1 19.022611 68.735339 A 1.7781786 1.7781786 0 0 1 20.800798 66.957153 z M 39.833228 66.957153 A 1.7781786 1.7781786 0 0 1 41.611414 68.735339 A 1.7781786 1.7781786 0 0 1 39.833228 70.513525 A 1.7781786 1.7781786 0 0 1 38.055042 68.735339 A 1.7781786 1.7781786 0 0 1 39.833228 66.957153 z M 66.464677 67.815499 L 66.464677 86.868599 L 75.851701 86.868599 C 78.219157 86.858261 80.141976 86.496739 81.610006 85.762724 C 83.078035 85.028709 84.225628 84.149675 85.063025 83.136528 C 85.890084 82.113042 86.448387 81.089922 86.737858 80.04576 C 87.027329 79.001598 87.161605 78.153561 87.161605 77.481576 C 87.161605 76.10659 87.006664 74.82471 86.696517 73.646151 C 86.38637 72.457254 85.879716 71.443946 85.166378 70.585872 C 84.453039 69.727799 83.522884 69.055875 82.354663 68.559639 C 81.196781 68.063404 79.759443 67.815499 78.053634 67.815499 L 66.464677 67.815499 z M 113.87574 67.815499 L 113.87574 86.868599 L 123.26276 86.868599 C 125.63022 86.858261 127.55304 86.496739 129.02107 85.762724 C 130.48909 85.028709 131.63669 84.149675 132.47408 83.136528 C 133.30114 82.113042 133.85945 81.089922 134.14892 80.04576 C 134.43839 79.001598 134.57318 78.153561 134.57318 77.481576 C 134.57318 76.10659 134.41772 74.82471 134.10758 73.646151 C 133.79743 72.457254 133.29078 71.443946 132.57744 70.585872 C 131.8641 69.727799 130.93394 69.055875 129.76572 68.559639 C 128.60784 68.063404 127.17102 67.815499 125.46521 67.815499 L 113.87574 67.815499 z M 8.9116007 69.58335 A 1.7781786 1.7781786 0 0 1 10.689787 71.361536 A 1.7781786 1.7781786 0 0 1 8.9116007 73.139722 A 1.7781786 1.7781786 0 0 1 7.1334147 71.361536 A 1.7781786 1.7781786 0 0 1 8.9116007 69.58335 z M 13.667383 69.58335 A 1.7781786 1.7781786 0 0 1 15.445569 71.361536 A 1.7781786 1.7781786 0 0 1 13.667383 73.139722 A 1.7781786 1.7781786 0 0 1 11.889197 71.361536 A 1.7781786 1.7781786 0 0 1 13.667383 69.58335 z M 18.422648 69.58335 A 1.7781786 1.7781786 0 0 1 20.200834 71.361536 A 1.7781786 1.7781786 0 0 1 18.422648 73.139722 A 1.7781786 1.7781786 0 0 1 16.644462 71.361536 A 1.7781786 1.7781786 0 0 1 18.422648 69.58335 z M 23.17843 69.58335 A 1.7781786 1.7781786 0 0 1 24.956616 71.361536 A 1.7781786 1.7781786 0 0 1 23.17843 73.139722 A 1.7781786 1.7781786 0 0 1 21.400244 71.361536 A 1.7781786 1.7781786 0 0 1 23.17843 69.58335 z M 11.289233 72.219364 A 1.7781786 1.7781786 0 0 1 13.067419 73.99755 A 1.7781786 1.7781786 0 0 1 11.289233 75.775736 A 1.7781786 1.7781786 0 0 1 9.5110474 73.99755 A 1.7781786 1.7781786 0 0 1 11.289233 72.219364 z M 16.045015 72.219364 A 1.7781786 1.7781786 0 0 1 17.823201 73.99755 A 1.7781786 1.7781786 0 0 1 16.045015 75.775736 A 1.7781786 1.7781786 0 0 1 14.266829 73.99755 A 1.7781786 1.7781786 0 0 1 16.045015 72.219364 z M 20.800798 72.219364 A 1.7781786 1.7781786 0 0 1 22.578467 73.99755 A 1.7781786 1.7781786 0 0 1 20.800798 75.775736 A 1.7781786 1.7781786 0 0 1 19.022611 73.99755 A 1.7781786 1.7781786 0 0 1 20.800798 72.219364 z M 25.556063 72.219364 A 1.7781786 1.7781786 0 0 1 27.334249 73.99755 A 1.7781786 1.7781786 0 0 1 25.556063 75.775736 A 1.7781786 1.7781786 0 0 1 23.777877 73.99755 A 1.7781786 1.7781786 0 0 1 25.556063 72.219364 z M 39.833228 72.219364 A 1.7781786 1.7781786 0 0 1 41.611414 73.99755 A 1.7781786 1.7781786 0 0 1 39.833228 75.775736 A 1.7781786 1.7781786 0 0 1 38.055042 73.99755 A 1.7781786 1.7781786 0 0 1 39.833228 72.219364 z M 13.667383 74.845561 A 1.7781786 1.7781786 0 0 1 15.445569 76.623747 A 1.7781786 1.7781786 0 0 1 13.667383 78.401933 A 1.7781786 1.7781786 0 0 1 11.889197 76.623747 A 1.7781786 1.7781786 0 0 1 13.667383 74.845561 z M 18.422648 74.845561 A 1.7781786 1.7781786 0 0 1 20.200834 76.623747 A 1.7781786 1.7781786 0 0 1 18.422648 78.401933 A 1.7781786 1.7781786 0 0 1 16.644462 76.623747 A 1.7781786 1.7781786 0 0 1 18.422648 74.845561 z M 23.17843 74.845561 A 1.7781786 1.7781786 0 0 1 24.956616 76.623747 A 1.7781786 1.7781786 0 0 1 23.17843 78.401933 A 1.7781786 1.7781786 0 0 1 21.400244 76.623747 A 1.7781786 1.7781786 0 0 1 23.17843 74.845561 z M 27.933695 74.845561 A 1.7781786 1.7781786 0 0 1 29.711882 76.623747 A 1.7781786 1.7781786 0 0 1 27.933695 78.401933 A 1.7781786 1.7781786 0 0 1 26.155509 76.623747 A 1.7781786 1.7781786 0 0 1 27.933695 74.845561 z M 16.045015 77.481576 A 1.7781786 1.7781786 0 0 1 17.823201 79.259762 A 1.7781786 1.7781786 0 0 1 16.045015 81.037948 A 1.7781786 1.7781786 0 0 1 14.266829 79.259762 A 1.7781786 1.7781786 0 0 1 16.045015 77.481576 z M 20.800798 77.481576 A 1.7781786 1.7781786 0 0 1 22.578467 79.259762 A 1.7781786 1.7781786 0 0 1 20.800798 81.037948 A 1.7781786 1.7781786 0 0 1 19.022611 79.259762 A 1.7781786 1.7781786 0 0 1 20.800798 77.481576 z M 25.556063 77.481576 A 1.7781786 1.7781786 0 0 1 27.334249 79.259762 A 1.7781786 1.7781786 0 0 1 25.556063 81.037948 A 1.7781786 1.7781786 0 0 1 23.777877 79.259762 A 1.7781786 1.7781786 0 0 1 25.556063 77.481576 z M 30.311845 77.481576 A 1.7781786 1.7781786 0 0 1 32.090031 79.259762 A 1.7781786 1.7781786 0 0 1 30.311845 81.037948 A 1.7781786 1.7781786 0 0 1 28.533659 79.259762 A 1.7781786 1.7781786 0 0 1 30.311845 77.481576 z M 39.833228 77.481576 A 1.7781786 1.7781786 0 0 1 41.611414 79.259762 A 1.7781786 1.7781786 0 0 1 39.833228 81.037948 A 1.7781786 1.7781786 0 0 1 38.055042 79.259762 A 1.7781786 1.7781786 0 0 1 39.833228 77.481576 z M 18.422648 80.107772 A 1.7781786 1.7781786 0 0 1 20.200834 81.885958 A 1.7781786 1.7781786 0 0 1 18.422648 83.664144 A 1.7781786 1.7781786 0 0 1 16.644462 81.885958 A 1.7781786 1.7781786 0 0 1 18.422648 80.107772 z M 27.933695 80.107772 A 1.7781786 1.7781786 0 0 1 29.711882 81.885958 A 1.7781786 1.7781786 0 0 1 27.933695 83.664144 A 1.7781786 1.7781786 0 0 1 26.155509 81.885958 A 1.7781786 1.7781786 0 0 1 27.933695 80.107772 z M 32.689478 80.107772 A 1.7781786 1.7781786 0 0 1 34.467664 81.885958 A 1.7781786 1.7781786 0 0 1 32.689478 83.664144 A 1.7781786 1.7781786 0 0 1 30.911292 81.885958 A 1.7781786 1.7781786 0 0 1 32.689478 80.107772 z M 16.045015 82.743787 A 1.7781786 1.7781786 0 0 1 17.823201 84.521973 A 1.7781786 1.7781786 0 0 1 16.045015 86.300159 A 1.7781786 1.7781786 0 0 1 14.266829 84.521973 A 1.7781786 1.7781786 0 0 1 16.045015 82.743787 z M 25.556063 82.743787 A 1.7781786 1.7781786 0 0 1 27.334249 84.521973 A 1.7781786 1.7781786 0 0 1 25.556063 86.300159 A 1.7781786 1.7781786 0 0 1 23.777877 84.521973 A 1.7781786 1.7781786 0 0 1 25.556063 82.743787 z M 35.06711 82.743787 A 1.7781786 1.7781786 0 0 1 36.845296 84.521973 A 1.7781786 1.7781786 0 0 1 35.06711 86.300159 A 1.7781786 1.7781786 0 0 1 33.288924 84.521973 A 1.7781786 1.7781786 0 0 1 35.06711 82.743787 z M 39.833228 82.743787 A 1.7781786 1.7781786 0 0 1 41.611414 84.521973 A 1.7781786 1.7781786 0 0 1 39.833228 86.300159 A 1.7781786 1.7781786 0 0 1 38.055042 84.521973 A 1.7781786 1.7781786 0 0 1 39.833228 82.743787 z M 4.1558187 85.369983 A 1.7781786 1.7781786 0 0 1 5.9340047 87.148169 A 1.7781786 1.7781786 0 0 1 4.1558187 88.926355 A 1.7781786 1.7781786 0 0 1 2.3776326 87.148169 A 1.7781786 1.7781786 0 0 1 4.1558187 85.369983 z M 8.9116007 85.369983 A 1.7781786 1.7781786 0 0 1 10.689787 87.148169 A 1.7781786 1.7781786 0 0 1 8.9116007 88.926355 A 1.7781786 1.7781786 0 0 1 7.1334147 87.148169 A 1.7781786 1.7781786 0 0 1 8.9116007 85.369983 z M 13.667383 85.369983 A 1.7781786 1.7781786 0 0 1 15.445569 87.148169 A 1.7781786 1.7781786 0 0 1 13.667383 88.926355 A 1.7781786 1.7781786 0 0 1 11.889197 87.148169 A 1.7781786 1.7781786 0 0 1 13.667383 85.369983 z M 18.422648 85.369983 A 1.7781786 1.7781786 0 0 1 20.200834 87.148169 A 1.7781786 1.7781786 0 0 1 18.422648 88.926355 A 1.7781786 1.7781786 0 0 1 16.644462 87.148169 A 1.7781786 1.7781786 0 0 1 18.422648 85.369983 z M 23.17843 85.369983 A 1.7781786 1.7781786 0 0 1 24.956616 87.148169 A 1.7781786 1.7781786 0 0 1 23.17843 88.926355 A 1.7781786 1.7781786 0 0 1 21.400244 87.148169 A 1.7781786 1.7781786 0 0 1 23.17843 85.369983 z M 27.933695 85.369983 A 1.7781786 1.7781786 0 0 1 29.711882 87.148169 A 1.7781786 1.7781786 0 0 1 27.933695 88.926355 A 1.7781786 1.7781786 0 0 1 26.155509 87.148169 A 1.7781786 1.7781786 0 0 1 27.933695 85.369983 z M 37.455595 85.369983 A 1.7781786 1.7781786 0 0 1 39.233781 87.148169 A 1.7781786 1.7781786 0 0 1 37.455595 88.926355 A 1.7781786 1.7781786 0 0 1 35.677409 87.148169 A 1.7781786 1.7781786 0 0 1 37.455595 85.369983 z M 39.833228 88.005998 A 1.7781786 1.7781786 0 0 1 41.611414 89.784184 A 1.7781786 1.7781786 0 0 1 39.833228 91.56237 A 1.7781786 1.7781786 0 0 1 38.055042 89.784184 A 1.7781786 1.7781786 0 0 1 39.833228 88.005998 z " /><g
       id="g1507"
       transform="matrix(0.10338247,0,0,0.10338247,-7.5470436e-6,39.871179)"
       style="stroke-width:2.55927" /></g></svg>
