<?xml version="1.0" encoding="UTF-8" standalone="no"?>
<!-- Created with Inkscape (http://www.inkscape.org/) -->

<svg
   width="1500"
   height="500"
   viewBox="0 0 396.87498 132.29167"
   version="1.1"
   id="svg5"
   inkscape:version="1.2.2 (732a01da63, 2022-12-09)"
   xml:space="preserve"
   sodipodi:docname="c64.svg"
   xmlns:inkscape="http://www.inkscape.org/namespaces/inkscape"
   xmlns:sodipodi="http://sodipodi.sourceforge.net/DTD/sodipodi-0.dtd"
   xmlns="http://www.w3.org/2000/svg"
   xmlns:svg="http://www.w3.org/2000/svg"><sodipodi:namedview
     id="namedview7"
     pagecolor="#000000"
     bordercolor="#111111"
     borderopacity="1"
     inkscape:showpageshadow="0"
     inkscape:pageopacity="0"
     inkscape:pagecheckerboard="1"
     inkscape:deskcolor="#d1d1d1"
     inkscape:document-units="mm"
     showgrid="false"
     inkscape:zoom="0.62760417"
     inkscape:cx="954.42323"
     inkscape:cy="541.74274"
     inkscape:window-width="1920"
     inkscape:window-height="1009"
     inkscape:window-x="-8"
     inkscape:window-y="-8"
     inkscape:window-maximized="1"
     inkscape:current-layer="layer1" /><defs
     id="defs2" /><g
     inkscape:label="Layer 1"
     inkscape:groupmode="layer"
     id="layer1"><path
       id="rect231"
       style="fill:#ffffff;stroke-width:0.8001;stroke-linecap:square;paint-order:fill markers stroke"
       d="M 0 0 L 0 66.085889 C 0 62.287017 0.74541054 58.626063 2.2412069 55.109814 C 3.7385065 51.598076 5.8146348 48.525577 8.477002 45.891772 C 11.133356 43.260975 14.185419 41.220832 17.615979 39.768632 C 21.055559 38.311922 24.736807 37.582719 28.666467 37.582719 C 31.379947 37.582719 34.096864 37.964468 36.816357 38.704097 L 36.816357 52.399386 C 34.373474 50.893066 31.65806 50.148877 28.666467 50.148877 C 25.811676 50.148877 23.161562 50.861496 20.720182 52.300167 C 18.275796 53.725307 16.354603 55.67807 14.950509 58.152523 C 13.546414 60.613446 12.842627 63.26713 12.842627 66.084338 C 12.842627 68.936123 13.547918 71.568291 14.950509 74.000651 C 16.354603 76.426998 18.283359 78.352842 20.738269 79.774976 C 23.190172 81.1926 25.831219 81.909729 28.666467 81.909729 C 31.631 81.909729 34.349374 81.18964 36.814807 79.759989 L 36.814807 93.516772 C 34.167473 94.312025 31.450603 94.708948 28.666467 94.708948 C 23.555203 94.708948 18.783768 93.425068 14.365531 90.854403 C 9.9503014 88.283738 6.4461156 84.786974 3.8664307 80.385274 C 1.288249 75.983575 0 71.213689 0 66.085889 L 0 132.29167 L 396.875 132.29167 L 396.875 69.112061 L 395.12059 69.112061 L 395.12059 72.261222 L 393.11347 72.261222 L 393.11347 69.112061 L 387.34122 69.112061 L 390.96683 59.24858 L 392.75277 59.916239 L 390.02115 67.315271 L 393.11347 67.315271 L 393.21889 64.452913 L 395.12059 64.452913 L 395.12059 67.315271 L 396.875 67.315271 L 396.875 0 L 0 0 z M 276.29993 47.72887 L 283.916 47.72887 L 283.916 76.353479 L 276.75572 76.353479 L 276.75572 73.691109 L 276.36039 73.691109 C 274.90519 76.138503 272.87274 76.871794 267.34957 76.871794 C 261.85346 76.871794 259.21645 76.31115 257.45457 74.725155 C 255.78289 73.178246 255.27021 71.114423 255.27021 66.051265 C 255.27021 60.899412 256.08787 58.457694 258.24212 57.04458 C 260.0942 55.83742 262.18837 55.501005 267.43794 55.501005 C 272.77771 55.501005 274.53838 56.18511 275.99659 58.761788 L 276.29993 58.761788 L 276.29993 47.72887 z M 37.334672 53.874231 L 61.22417 53.874231 L 50.765377 64.744885 L 37.334672 64.744885 L 37.334672 53.874231 z M 86.460356 55.501005 C 93.21474 55.501005 96.186661 56.012087 98.130444 57.599585 C 99.769055 58.884917 100.31448 60.478295 100.43625 64.2922 L 92.700285 64.2922 C 92.441715 61.980104 90.940228 61.202983 86.460356 61.202983 C 81.165688 61.202983 80.177535 62.016327 80.177535 66.264689 C 80.177535 68.92856 80.609222 69.956924 81.98776 70.51766 C 82.889748 70.905514 84.525169 71.117106 86.545622 71.117106 C 91.022488 71.117106 92.314168 70.517469 92.658427 68.196354 L 100.40472 68.194804 C 100.28446 71.592291 99.859161 73.053705 98.524219 74.38564 C 96.583442 76.353477 94.092534 76.871794 86.075366 76.871794 C 79.833611 76.871794 77.207078 76.44067 75.186625 74.980953 C 73.203755 73.609932 72.558879 71.416589 72.558879 66.051265 C 72.558879 61.160989 73.162038 59.010914 74.967517 57.55721 C 76.903784 55.969712 79.576686 55.501005 86.460356 55.501005 z M 354.47397 55.501005 C 361.33359 55.501005 363.76023 55.927619 365.61231 57.424919 C 367.40275 58.926728 368.10311 61.202799 368.10311 65.793917 C 368.10311 66.050983 368.10316 66.9922 368.07159 67.849089 L 348.16169 67.849089 C 348.16169 69.913137 348.40664 70.595738 349.13424 71.159481 C 349.95355 71.760806 351.53203 72.020927 354.29362 72.020927 C 359.14782 72.020927 360.05733 71.67676 360.3625 69.874288 L 367.94963 69.872738 C 367.37386 75.496631 364.58093 76.871794 353.68642 76.871794 C 347.79945 76.871794 345.00633 76.353478 343.15425 74.980953 C 341.15184 73.480647 340.57611 71.455629 340.57611 66.264689 C 340.57611 60.81518 341.14996 58.797678 343.30721 57.300378 C 345.30962 55.927854 347.82933 55.501005 354.47397 55.501005 z M 116.42855 55.537179 C 123.37837 55.537179 126.32191 56.010583 128.20406 57.384611 C 130.26811 58.884917 130.84421 60.728034 130.84421 65.836292 C 130.84421 71.416589 130.32697 73.309316 128.4764 74.850212 C 126.53562 76.440717 123.98566 76.873344 116.46007 76.873344 C 108.84279 76.873344 106.29344 76.440717 104.38123 74.850212 C 102.46901 73.309316 101.98344 71.417951 101.98344 65.533984 C 101.98344 60.775999 102.59059 58.844328 104.62307 57.384611 C 106.50522 56.012086 109.47723 55.537179 116.42855 55.537179 z M 148.17287 55.537179 C 153.0902 55.537179 155.79007 56.783006 157.43018 59.789632 C 158.73506 56.740914 161.22272 55.537179 166.20019 55.537179 C 170.41698 55.537179 172.93692 56.312515 174.6958 58.154073 C 176.45618 59.956545 176.85122 61.631479 176.85122 66.860002 L 176.85122 76.353479 L 169.23256 76.353479 L 169.23256 66.860002 C 169.17243 63.477548 169.08059 63.094151 168.35148 62.360535 C 167.59381 61.589335 166.28912 61.24484 164.07474 61.24484 C 161.76866 61.24484 160.34177 61.631193 159.55253 62.534684 C 158.67159 63.477261 158.42961 64.678555 158.42961 67.97983 L 158.42961 76.353479 L 150.81095 76.353479 L 150.81095 66.860002 C 150.81095 63.692521 150.72056 63.131734 149.99446 62.360535 C 149.29542 61.589335 147.96085 61.24484 145.77353 61.24484 C 143.46745 61.24484 141.98034 61.631287 141.13247 62.488175 C 140.25303 63.346567 140.00954 64.634959 140.00954 67.97983 L 140.00954 76.353479 L 132.39244 76.353479 L 132.39244 56.055493 L 139.55272 56.055493 L 139.55272 59.099752 L 139.9496 59.099752 C 141.07107 56.658372 143.65241 55.537179 148.17287 55.537179 z M 194.39072 55.537179 C 199.30956 55.537179 202.00947 56.783006 203.64958 59.789632 C 204.95446 56.740914 207.4425 55.537179 212.44853 55.537179 C 216.66683 55.537179 219.15482 56.312515 220.9152 58.154073 C 222.67407 59.956545 223.06907 61.631479 223.06907 66.860002 L 223.06907 76.353479 L 215.45352 76.353479 L 215.45352 66.860002 C 215.42345 63.477548 215.33006 63.094151 214.60396 62.360535 C 213.81321 61.589335 212.53854 61.24484 210.29259 61.24484 C 208.01808 61.24484 206.59171 61.631193 205.7709 62.534684 C 204.89297 63.477261 204.65056 64.678555 204.65056 67.97983 L 204.65056 76.353479 L 197.0319 76.353479 L 197.0319 66.860002 C 197.0319 63.692521 196.94043 63.131734 196.21283 62.360535 C 195.51379 61.589335 194.1803 61.24484 191.99448 61.24484 C 189.71847 61.24484 188.19969 61.631287 187.35032 62.488175 C 186.47088 63.346567 186.22894 64.634959 186.22894 67.97983 L 186.22894 76.353479 L 178.61184 76.353479 L 178.61184 56.055493 L 185.80365 56.055493 L 185.80365 59.099752 L 186.16745 59.099752 C 187.29042 56.658372 189.86875 55.537179 194.39072 55.537179 z M 239.12494 55.537179 C 246.10632 55.537179 249.01976 56.010583 250.93197 57.384611 C 252.99301 58.884917 253.54008 60.728034 253.54008 65.836292 C 253.54008 71.416589 253.02444 73.309316 251.17537 74.850212 C 249.23158 76.440717 246.71362 76.873344 239.15646 76.873344 C 231.53918 76.873344 229.02093 76.440717 227.07865 74.850212 C 225.1965 73.309316 224.70928 71.417951 224.70928 65.533984 C 224.70928 60.775999 225.317 58.844328 227.35098 57.384611 C 229.23163 56.012086 232.20669 55.537179 239.12494 55.537179 z M 299.73106 55.537179 C 306.71094 55.537179 309.62287 56.010583 311.50502 57.384611 C 313.56756 58.884917 314.14465 60.728034 314.14465 65.836292 C 314.14465 71.416589 313.62892 73.309316 311.77684 74.850212 C 309.83305 76.440717 307.28657 76.873344 299.75948 76.873344 C 292.14219 76.873344 289.62235 76.440717 287.67856 74.850212 C 285.76936 73.309316 285.31385 71.417951 285.31385 65.533984 C 285.31385 60.775999 285.92161 58.844328 287.92403 57.384611 C 289.83624 56.012086 292.81131 55.537179 299.73106 55.537179 z M 331.10951 55.537179 C 337.23851 55.537179 339.30384 57.599309 339.30384 63.692236 L 339.30384 65.064762 L 332.14097 65.064762 C 332.14097 62.056633 331.26143 61.24484 328.13604 61.24484 C 326.40573 61.24484 324.97908 61.762123 324.24998 62.7047 C 323.52087 63.692376 323.3105 64.807652 323.3105 67.940556 L 323.3105 76.353479 L 315.69132 76.353479 L 315.69132 56.055493 L 322.88468 56.055493 L 322.88468 59.099752 L 323.28001 59.099752 C 324.67508 56.52157 326.83108 55.537179 331.10951 55.537179 z M 381.03617 59.24858 L 382.68672 60.209245 C 381.56525 61.895962 380.67829 63.310396 380.02435 64.452913 C 379.97925 64.534092 379.93406 64.614003 379.88896 64.692175 C 379.83935 64.771851 379.79904 64.830621 379.76597 64.862191 C 379.95087 64.692316 380.19568 64.555139 380.50236 64.452913 C 380.81354 64.350688 381.17011 64.299951 381.56999 64.299951 C 382.32616 64.299951 382.998 64.478611 383.58279 64.837903 C 384.16307 65.195691 384.61115 65.675203 384.92534 66.275024 C 385.24104 66.874846 385.3987 67.523105 385.3987 68.220642 C 385.3987 69.112107 385.20919 69.884671 384.83336 70.531095 C 384.45753 71.185036 383.93287 71.67789 383.26239 72.011625 C 382.59192 72.349871 381.82687 72.520121 380.96848 72.520121 C 380.19126 72.520121 379.47695 72.349871 378.82752 72.011625 C 378.1811 71.67789 377.6718 71.192318 377.30048 70.556417 C 376.92766 69.923522 376.74135 69.18544 376.74135 68.342082 C 376.74135 67.74677 376.83441 67.161932 377.01781 66.587667 C 377.20122 66.008891 377.5903 65.176101 378.1826 64.092212 C 378.77942 63.00682 379.7313 61.393807 381.03617 59.24858 z M 354.59903 60.215446 C 349.46972 60.215446 348.2565 60.858492 348.16479 63.692236 L 360.45552 63.692236 C 360.39238 62.103235 360.30373 61.719887 359.84522 61.24484 C 359.14768 60.512727 357.60265 60.215446 354.59903 60.215446 z M 269.92771 61.202983 C 263.92047 61.202983 262.88628 61.891552 262.88628 65.967033 C 262.88628 70.425859 263.73533 71.114522 269.47347 71.114522 C 272.26513 71.114522 274.32758 70.773269 275.20852 70.171944 C 276.0579 69.609705 276.36039 68.533 276.36039 66.175806 C 276.36039 61.980059 275.35918 61.202983 269.92771 61.202983 z M 116.45852 61.24484 C 110.63319 61.24484 109.60055 62.016045 109.60055 66.354606 C 109.60055 69.056059 109.96463 69.956924 111.32964 70.51766 C 112.27071 70.9446 113.9991 71.159481 116.45852 71.159481 C 122.22523 71.159481 123.22659 70.427409 123.22659 66.133948 C 123.22659 63.388898 122.76958 62.404177 121.3745 61.849455 C 120.40487 61.463103 118.61127 61.24484 116.45852 61.24484 z M 239.15491 61.24484 C 233.35814 61.24484 232.32845 62.016045 232.32845 66.354606 C 232.32845 69.056059 232.66041 69.956924 234.05548 70.51766 C 234.99806 70.9446 236.72706 71.159481 239.15491 71.159481 C 244.95018 71.159481 245.92142 70.427409 245.92142 66.133948 C 245.92142 63.388898 245.49702 62.404177 244.07037 61.849455 C 243.1293 61.463103 241.30916 61.24484 239.15491 61.24484 z M 299.75948 61.24484 C 293.96271 61.24484 292.92992 62.016045 292.92992 66.354606 C 292.92992 69.056059 293.26502 69.956924 294.6616 70.51766 C 295.57111 70.9446 297.30006 71.159481 299.75948 71.159481 C 305.52318 71.159481 306.52599 70.427409 306.52599 66.133948 C 306.52599 63.388898 306.1006 62.404177 304.67546 61.849455 C 303.73439 61.463103 301.91373 61.24484 299.75948 61.24484 z M 381.14004 65.945846 C 380.40943 65.945846 379.8214 66.166927 379.37943 66.610404 C 378.93745 67.056888 378.71642 67.661175 378.71642 68.427865 C 378.71642 69.125402 378.94351 69.700984 379.39751 70.157992 C 379.84851 70.614999 380.41197 70.842187 381.09147 70.842187 C 381.81005 70.842187 382.37986 70.614999 382.79627 70.157992 C 383.21419 69.700984 383.42311 69.111778 383.42311 68.391691 C 383.42311 67.637028 383.20813 67.041667 382.77819 66.604203 C 382.34824 66.163733 381.803 65.945846 381.14004 65.945846 z M 37.312451 67.549882 L 50.742639 67.549882 L 61.201432 78.420536 L 37.312451 78.420536 L 37.312451 67.549882 z " /><g
       id="g163"
       transform="matrix(1.5033144,0,0,1.5033144,231.08994,93.621879)"
       style="stroke-width:0.176" /></g></svg>
