<?xml version="1.0" encoding="UTF-8" standalone="no"?>
<!-- Created with Inkscape (http://www.inkscape.org/) -->

<svg
   width="1500"
   height="500"
   viewBox="0 0 396.87498 132.29167"
   version="1.1"
   id="svg5"
   inkscape:version="1.2.2 (732a01da63, 2022-12-09)"
   xml:space="preserve"
   sodipodi:docname="cavestory.svg"
   xmlns:inkscape="http://www.inkscape.org/namespaces/inkscape"
   xmlns:sodipodi="http://sodipodi.sourceforge.net/DTD/sodipodi-0.dtd"
   xmlns="http://www.w3.org/2000/svg"
   xmlns:svg="http://www.w3.org/2000/svg"><sodipodi:namedview
     id="namedview7"
     pagecolor="#000000"
     bordercolor="#111111"
     borderopacity="1"
     inkscape:showpageshadow="0"
     inkscape:pageopacity="0"
     inkscape:pagecheckerboard="1"
     inkscape:deskcolor="#d1d1d1"
     inkscape:document-units="mm"
     showgrid="false"
     inkscape:zoom="0.62760417"
     inkscape:cx="954.42323"
     inkscape:cy="541.74274"
     inkscape:window-width="1920"
     inkscape:window-height="1009"
     inkscape:window-x="-8"
     inkscape:window-y="-8"
     inkscape:window-maximized="1"
     inkscape:current-layer="layer1" /><defs
     id="defs2" /><g
     inkscape:label="Layer 1"
     inkscape:groupmode="layer"
     id="layer1"><path
       id="rect231"
       style="fill:#ffffff;stroke-width:0.8001;stroke-linecap:square;paint-order:fill markers stroke"
       d="M 0 0 L 0 49.477083 L 1.6567464 46.261259 C 4.5315901 40.511572 9.696764 35.590076 12.815238 35.590076 C 13.546131 35.590076 15.251191 34.908069 16.615523 34.030998 C 20.026355 31.887047 23.485972 30.1328 26.312089 29.207003 C 29.966551 27.988849 40.978989 27.988849 44.633451 29.207003 C 48.580271 30.522609 51.308609 32.033197 51.942049 33.202625 C 52.283132 33.884791 52.527026 37.295719 52.527026 42.217061 C 52.624479 50.74414 52.819337 51.377591 54.719657 48.746379 C 57.594501 44.848286 65.146733 42.801466 72.748014 43.824715 C 76.499929 44.311977 80.203336 45.676442 80.885502 46.797144 C 81.42149 47.674214 82.445001 47.333122 84.150419 45.627706 L 85.855741 43.922384 L 96.867472 44.068628 C 109.24392 44.263533 109.19541 44.214901 110.36484 47.723185 C 110.90083 49.477327 110.90063 49.866997 109.92611 51.621139 L 108.90291 53.618949 L 110.46251 56.542285 C 112.1192 59.709486 113.48317 60.343199 114.26279 58.2967 C 114.50642 57.66326 114.9452 56.981103 115.18883 56.786198 C 116.16336 56.201484 115.72458 54.495992 114.26279 52.790576 C 112.26502 50.549173 112.16765 47.089509 114.06797 45.286641 C 115.2374 44.16594 115.62729 44.117053 120.74353 44.16578 C 134.92285 44.311958 134.63074 44.263628 135.06927 47.723185 C 135.21545 48.843887 135.60514 49.915516 135.94622 50.012968 C 136.28731 50.159146 138.47979 48.990084 140.86737 47.382121 C 148.5661 42.3146 152.17194 41.729669 157.92163 44.604513 C 159.77322 45.53031 161.72217 46.309835 162.30689 46.309835 C 163.37886 46.309835 167.7158 48.892332 168.73905 50.159212 C 169.08014 50.597748 170.15198 52.108589 171.12651 53.570374 C 172.68574 55.957956 172.88077 56.542549 172.9295 59.807202 C 172.97822 63.412938 172.9781 63.461666 171.12651 65.167082 L 169.27494 66.872404 L 171.07793 68.431482 L 172.9295 70.039653 L 171.32133 74.132426 C 170.44425 76.373829 169.031 79.151401 168.20265 80.272103 C 164.10966 85.631981 156.50862 87.92231 148.85861 86.070715 C 146.0325 85.388549 142.3294 83.682719 141.79341 82.854374 C 141.64723 82.610743 140.5263 82.367582 139.35687 82.367582 C 137.50527 82.367582 136.92067 82.074839 134.63054 79.979614 C 130.87863 76.568783 129.2218 72.963334 128.97817 67.993266 C 128.88072 65.849315 129.07597 63.120319 129.36833 61.902165 C 129.70941 60.684011 130.05001 58.978951 130.19619 58.10188 C 130.34237 57.176083 130.78115 56.347399 131.12223 56.201221 C 131.95057 55.908864 131.99952 54.593567 131.2199 54.593567 C 130.2941 54.593567 127.80904 58.540145 125.03164 64.387284 C 123.66731 67.213402 121.76678 70.965601 120.74353 72.671016 C 119.72028 74.376432 118.11244 77.299797 117.18665 79.102665 C 115.04269 83.293115 111.72913 86.752844 109.87753 86.752844 C 107.92848 86.752844 106.46685 85.047134 101.78914 77.299674 C 99.547732 73.499034 97.403892 69.990663 97.062809 69.454675 C 96.721726 68.918687 95.552147 67.213628 94.431445 65.65439 C 93.262017 64.143879 92.336116 62.682047 92.28739 62.487142 C 92.238664 61.658797 86.63536 54.836897 85.855741 54.690719 C 85.124849 54.54454 85.027368 55.031709 85.027368 59.075981 C 85.027368 64.435859 86.098997 71.6964 87.317151 74.376339 C 87.804413 75.448314 88.9252 77.202166 89.802271 78.322868 C 92.043674 81.148985 91.946457 83.195646 89.558875 84.803609 C 87.804733 86.021763 87.755648 86.021923 77.279521 85.924471 C 71.481107 85.875745 65.780255 85.583275 64.513375 85.290918 C 62.515602 84.803656 61.97982 84.852514 60.761666 85.583407 C 58.325358 86.996465 56.035357 85.826811 53.014335 81.636361 L 51.942049 80.174434 L 51.503833 81.343872 C 51.016571 82.659478 47.313211 84.267716 41.173714 85.778227 C 33.133897 87.824726 22.170663 86.460326 18.175118 82.952043 C 17.541678 82.416055 16.761626 82.318772 15.299841 82.562402 C 12.571176 83.000938 9.5992629 81.53886 6.9680501 78.469112 C 4.9215513 76.08153 1.7053223 70.575377 1.7053223 69.454675 C 1.7053223 69.113592 1.3154845 68.139266 0.87694906 67.213468 C 0.14605661 65.849136 0 64.241113 0 57.516903 L 0 132.29167 L 396.875 132.29167 L 396.875 48.600134 C 396.875 49.964467 394.78001 53.618949 393.95166 53.618949 C 392.87969 53.618949 390.73538 56.932332 387.03219 64.338708 C 382.59811 73.20687 380.30805 78.030642 380.30805 78.615356 C 380.30805 79.102618 374.607 90.65061 373.97356 91.381502 C 373.58375 91.868764 373.77883 92.307356 374.75335 93.038249 C 375.48425 93.622963 376.21504 94.061442 376.45868 94.061442 C 377.18957 94.061442 378.84613 97.86215 378.84613 99.567566 C 378.84613 101.56534 377.9207 102.44264 374.70478 103.51461 C 372.07356 104.34296 363.44875 105.75582 361.06117 105.75582 C 360.23282 105.70709 358.96617 105.17125 358.13783 104.53781 C 356.87095 103.51456 356.6759 102.97854 356.6759 101.02949 C 356.6759 99.470255 357.11451 97.764819 357.99159 96.010677 C 360.91516 89.968633 364.22841 81.879963 364.22841 80.807987 C 364.22841 80.272 363.59505 79.005419 362.86416 78.030896 C 362.08454 77.056373 361.30501 75.935586 361.15883 75.545776 C 360.96393 75.155967 360.52515 74.376442 360.23279 73.840454 C 359.64808 73.012109 359.06327 72.086264 356.57823 67.993266 C 356.23715 67.457278 355.75025 66.580019 355.45789 66.044031 C 355.21426 65.508043 353.6059 62.876631 351.90048 60.245418 C 348.97691 55.616433 347.27148 53.764987 346.88167 54.836963 C 345.95587 57.078366 343.42243 60.050805 341.08357 61.658769 C 338.20873 63.559089 338.45212 63.510523 333.28715 62.779631 C 332.36135 62.633452 332.3126 62.87669 332.45878 67.262044 C 332.65368 73.206636 333.09255 74.425019 335.86994 76.56897 C 337.13682 77.494767 338.45204 78.859082 338.84185 79.589974 C 339.47529 80.759402 339.42697 81.051506 338.20881 82.854374 C 337.47792 83.92635 336.35728 85.047287 335.67512 85.290918 C 334.99295 85.583275 329.34037 85.778227 323.0547 85.778227 L 311.70139 85.778227 L 310.19089 84.511121 C 307.94948 82.659526 308.09571 80.515799 310.67819 77.738407 C 311.84762 76.520253 312.87111 74.814761 313.11474 73.742786 C 313.35837 72.719536 313.55295 68.188113 313.55295 63.65658 L 313.55295 55.42194 L 311.11693 53.180216 C 307.21883 49.57448 307.31642 46.553559 311.40942 44.604513 C 313.06611 43.824894 314.33287 43.776121 325.68606 44.117204 C 332.55645 44.312108 338.50098 44.65337 338.93952 44.897001 C 339.42678 45.140632 340.49895 44.896973 342.05819 44.068628 C 344.83558 42.655569 344.64048 42.703948 346.97934 43.678471 C 348.53857 44.360637 350.5366 44.458569 358.62514 44.361117 C 363.98502 44.263664 368.71118 44.263448 369.10098 44.263448 C 370.22169 44.409627 371.53753 46.943276 371.53753 48.989775 C 371.53753 49.964298 371.19627 51.523715 370.75773 52.449512 C 369.97811 54.106201 369.97836 54.155098 371.68377 57.419751 C 372.6583 59.222619 373.72999 60.732943 374.1198 60.830396 C 374.94814 61.0253 375.77674 59.173817 376.21528 56.104069 C 376.45891 54.008844 376.41022 53.667478 375.53315 53.180216 C 375.04589 52.887859 374.21742 51.864807 373.73016 50.93901 C 373.04799 49.477225 372.99899 48.892463 373.48625 47.771761 C 374.41204 45.481631 376.21517 44.166146 378.26167 44.214872 C 379.23619 44.263598 383.18282 44.312024 387.03219 44.312024 L 394.00024 44.312024 L 395.41307 45.77395 C 396.33887 46.699747 396.875 47.723063 396.875 48.600134 L 396.875 0 L 0 0 z M 216.39299 28.330054 C 222.24013 28.281328 223.11749 28.378921 227.35667 29.79198 C 234.17833 32.033383 233.98322 31.789408 233.78831 40.121582 C 233.64214 43.922223 233.34997 47.625329 233.05761 48.356222 C 232.52162 49.818006 231.15691 50.841238 229.15914 51.377226 C 227.35627 51.767035 227.45422 52.254532 229.50072 53.81377 C 233.9348 57.224601 235.54248 62.389344 234.61669 70.136804 C 233.78834 76.763562 231.20603 80.418347 227.35667 80.418347 C 226.52832 80.418347 225.74843 80.662025 225.60225 80.905656 C 224.96881 81.928905 221.50926 83.780444 218.73187 84.608789 C 216.29556 85.290955 214.54128 85.388304 207.71962 85.144674 C 202.89573 84.949769 199.09523 84.608808 198.46179 84.267725 C 195.39204 82.611035 194.51502 79.297671 194.75865 70.526961 L 194.9049 64.24104 L 196.51307 62.828206 C 197.34141 62.048588 198.07215 61.268846 198.07215 61.025216 C 198.07215 60.830311 197.43842 59.904626 196.6588 58.978829 C 194.12504 55.860354 192.95566 52.400747 192.95566 47.771761 C 192.95566 44.068573 193.10213 43.386245 194.36901 41.29102 C 195.14863 39.975413 196.51295 38.465089 197.39002 37.880375 C 198.31582 37.295661 199.04677 36.564928 199.04677 36.321297 C 199.04677 35.005691 202.26257 32.081988 205.28359 30.668929 C 207.08646 29.840584 208.88941 28.963175 209.27922 28.76827 C 209.66902 28.524639 212.88471 28.330054 216.39299 28.330054 z M 32.061609 31.32832 C 30.755139 31.323752 29.686593 31.375487 29.089697 31.497302 C 27.189377 31.935838 22.121646 34.2743 19.441707 35.979716 C 17.638839 37.100418 16.859521 37.928895 16.664616 38.952144 C 16.274807 40.706286 14.618069 41.242368 13.497367 39.926762 C 12.279213 38.513703 11.207096 38.80622 9.3555013 41.047624 C 6.285753 44.848264 4.7753062 47.869308 4.141866 51.426318 C 3.5084259 55.080781 3.7031616 61.853486 4.5315063 65.069413 C 5.5060296 68.967506 8.4781866 74.52265 11.109399 77.348767 C 12.473732 78.761826 12.668722 78.859156 13.594519 78.225716 C 14.812673 77.348645 16.51825 77.299703 17.395321 78.128048 C 18.126213 78.810214 20.367355 80.320773 22.170223 81.295296 C 27.383922 84.218866 39.711997 84.072922 46.679838 81.0519 L 48.482829 80.272103 L 48.482829 75.448108 L 48.482829 70.673206 L 47.215723 70.673206 C 46.48483 70.673206 44.828064 71.550014 43.220101 72.768168 C 37.372961 77.202249 35.2291 77.9335 30.79502 77.007703 C 27.773997 76.422989 22.803691 73.596456 20.318656 71.111422 C 19.392859 70.185625 18.125912 68.285463 17.492472 66.872404 C 16.469223 64.631 16.323035 63.607485 16.323035 58.247607 C 16.323035 53.082634 16.517949 51.71844 17.492472 48.989775 C 18.954257 44.896777 20.757456 42.314325 23.583573 40.267826 C 27.286762 37.539161 31.087481 36.905683 35.619014 38.270015 C 39.370929 39.390717 44.09705 44.94554 44.09705 48.307646 C 44.09705 50.15924 45.705127 51.767467 47.410543 51.572563 L 48.726225 51.426318 L 48.57998 43.142586 C 48.385076 33.738437 48.531215 34.177185 43.90223 32.520496 C 42.038454 31.862692 35.98102 31.342025 32.061609 31.32832 z M 216.37749 31.791858 C 212.5108 31.833732 208.94399 32.465472 206.84267 33.592265 C 204.30891 34.956597 201.9701 38.075233 201.9701 40.073006 C 201.9701 41.339886 201.82373 41.437264 200.02087 41.437264 C 198.26672 41.437264 198.02309 41.583715 197.34093 43.191679 C 196.41513 45.481809 196.4155 48.648824 197.39002 51.962203 C 198.55945 56.055201 199.67985 57.127197 205.52699 59.660958 C 206.55024 60.099493 207.67088 60.440755 208.06069 60.440755 C 208.40177 60.440755 209.32797 60.781651 210.10759 61.17146 C 210.83848 61.512543 212.4949 62.292068 213.71305 62.876782 C 214.93121 63.41277 216.83167 64.631075 217.85492 65.508146 C 219.70651 67.067383 219.75506 67.262327 219.75506 70.185897 C 219.75506 73.06074 219.65764 73.255468 217.9035 74.765979 C 213.85922 78.17681 210.0585 78.030735 205.86805 74.230094 C 203.7241 72.329774 203.48071 71.842511 202.94472 68.870215 C 202.60364 67.018621 202.0187 65.0693 201.67761 64.43586 C 200.94672 63.315158 199.33884 62.974329 198.80285 63.8514 C 198.36432 64.533566 199.09539 79.687304 199.58265 80.466923 C 200.16736 81.441446 214.63878 82.172583 217.75725 81.392965 C 220.87573 80.613346 223.06871 79.102928 224.18942 77.007703 C 225.21267 75.107382 226.77163 74.571018 227.79488 75.789172 C 228.81813 77.056053 229.5006 76.61746 230.37767 74.132426 C 231.49837 70.916499 231.54695 62.487188 230.42625 60.294511 C 229.11064 57.809477 227.94141 56.542595 225.5051 54.934631 C 222.82516 53.229216 219.94999 51.669714 219.414 51.669714 C 219.21909 51.669714 217.95215 50.987407 216.58781 50.207788 C 215.22348 49.379443 213.71316 48.746379 213.17717 48.746379 C 212.68991 48.746379 212.15391 48.551276 212.00773 48.307646 C 211.86155 48.064015 210.74077 47.430433 209.52261 46.845719 C 207.57356 45.919922 207.32998 45.627565 207.32998 44.16578 C 207.32998 43.14253 207.86626 41.827195 208.74333 40.560315 C 210.40002 38.318911 212.44616 37.734028 216.73406 38.270015 C 221.21686 38.854729 226.0411 43.094237 226.67454 47.041056 C 226.86944 48.210484 227.21032 48.746379 227.74631 48.746379 C 229.50045 48.746379 229.74412 47.722892 229.74412 40.949955 L 229.74412 34.274394 L 228.42843 33.641357 C 227.64882 33.300274 225.40739 32.715334 223.40962 32.374251 C 221.12558 31.953988 218.6975 31.766733 216.37749 31.791858 z M 251.67094 34.713127 C 252.6211 34.761853 253.40057 35.32211 254.39946 36.418449 C 255.90997 38.075138 256.05621 38.464902 256.05621 41.29102 C 256.05621 45.140387 256.7386 45.530432 260.00325 43.727563 C 262.92682 42.070874 264.82707 42.070507 266.72739 43.678471 C 267.94554 44.70172 268.23789 45.286698 268.23789 46.943388 C 268.23789 48.015363 267.79941 49.866733 267.2147 51.036161 C 265.80164 53.911005 261.90352 57.371006 259.51594 57.760815 C 256.05638 58.345529 255.95869 58.49156 255.90996 65.849211 C 255.81251 72.32979 255.81245 72.378594 256.93315 72.524772 C 257.71277 72.622224 258.68734 72.08633 260.1004 70.81945 C 261.2211 69.7962 262.87789 68.626321 263.75496 68.285238 C 265.21675 67.651798 265.60661 66.921242 265.41171 64.826017 C 265.36298 64.436208 265.6553 62.535745 266.09384 60.684151 C 267.65307 53.423953 272.62337 47.479413 278.0807 46.261259 C 279.2014 45.968902 280.51656 45.48148 280.90637 45.140397 C 282.2707 43.922243 286.41246 42.89919 289.77456 42.89919 C 293.47775 42.89919 295.3295 43.581489 297.7658 45.871619 C 299.08141 47.138499 299.42256 47.235679 300.59199 46.797144 C 302.19995 46.21243 303.02857 46.602127 305.02634 48.84353 C 313.30979 58.198954 313.26085 71.647656 304.92867 80.077283 C 303.12581 81.880151 302.29734 82.367197 300.44574 82.659554 C 299.22759 82.805733 297.27849 83.48789 296.10906 84.170056 C 294.93963 84.803496 292.94173 85.534746 291.62613 85.729651 C 288.45893 86.216913 283.14786 85.485663 280.71155 84.170056 C 279.59085 83.585342 278.37284 83.098287 277.98303 83.098287 C 274.5722 82.903382 272.37939 81.587756 269.65072 78.079472 L 268.38413 76.422725 L 266.82454 78.859269 C 263.80352 83.585707 258.63869 86.167754 253.37627 85.534314 C 251.7683 85.388135 249.18583 85.242192 247.67532 85.290918 C 244.6543 85.339644 242.55903 84.560109 240.31763 82.416158 C 237.63769 79.97985 237.54047 79.346246 237.3943 67.895597 L 237.29663 57.273507 L 235.93237 55.519092 C 235.20148 54.544569 234.61669 53.180404 234.61669 52.449512 C 234.61669 50.646644 237.15058 47.186764 240.26906 44.847909 C 241.77957 43.727207 242.90033 42.460429 243.09524 41.632084 C 243.67995 39.439407 245.23878 37.587896 247.91872 36.077384 C 249.59977 35.127224 250.72078 34.6644 251.67094 34.713127 z M 251.29319 38.903569 C 250.74502 38.891387 250.03847 39.415034 249.03958 40.462646 C 247.62652 41.973158 247.28568 42.704211 247.28568 44.263448 C 247.28568 46.65103 246.40863 47.430866 244.26468 47.041056 C 242.80289 46.748699 242.36441 46.943144 240.56154 48.697286 C 238.07651 51.133594 237.83255 52.985604 239.83032 54.593567 C 241.04848 55.56809 241.14585 55.811788 241.19458 60.099691 C 241.19458 62.584725 241.2921 67.700572 241.34082 71.452486 L 241.43849 78.37196 L 243.4363 80.369771 C 245.67771 82.611175 246.11598 82.708637 248.21121 81.539209 C 249.62426 80.710864 249.72207 80.710564 251.2813 81.636361 C 252.402 82.318527 253.71752 82.562036 255.66656 82.51331 C 258.68759 82.464584 259.07708 82.318386 261.46466 80.174434 C 265.89874 76.227615 267.50702 72.573103 265.21689 71.647306 C 264.29109 71.306223 263.80376 71.549995 262.3907 73.109233 C 260.05185 75.691719 256.59224 76.812488 253.86357 75.935417 L 251.91434 75.301864 L 251.76809 65.751542 C 251.62192 54.593251 251.52495 54.885839 256.30012 54.788387 C 260.24694 54.739661 262.4883 53.423781 263.85263 50.354032 C 264.38862 49.135878 264.82673 47.722772 264.82673 47.186784 C 264.82673 46.017356 263.46253 45.481791 262.43928 46.212683 C 258.88227 48.746444 255.71525 49.37964 253.66875 47.966581 C 252.6455 47.235689 252.54802 46.894642 252.84038 44.604513 C 252.98656 43.191454 252.88883 41.38866 252.59647 40.560315 C 252.23102 39.463976 251.84136 38.91575 251.29319 38.903569 z M 30.715955 40.511739 C 29.382076 40.560465 28.017618 40.876913 26.945642 41.437264 C 21.975573 44.068477 18.857022 53.424197 20.270081 61.610193 C 20.611164 63.510513 21.147011 65.60526 21.488094 66.287427 C 23.242236 69.844437 30.30774 74.571159 33.816024 74.571159 C 35.716344 74.571159 38.249891 73.157826 41.758175 70.136804 C 44.438114 67.797948 44.584341 67.749353 47.605363 67.749353 L 50.724036 67.749353 L 51.552409 65.849211 C 52.03967 64.728509 53.208864 63.412638 54.475745 62.584294 C 55.596446 61.804675 56.668808 60.976358 56.863713 60.732727 C 57.009891 60.489096 58.325263 60.294361 59.787048 60.343087 C 62.077178 60.440539 66.949797 59.173621 67.826868 58.345276 C 68.314129 57.809288 66.949608 56.542285 65.877633 56.542285 C 65.341645 56.542285 63.879962 57.127075 62.661808 57.857967 C 60.810214 58.929943 59.786982 59.173649 56.960864 59.173649 C 53.20895 59.222375 51.406165 58.345304 51.406165 56.493709 C 51.406165 54.252306 46.484632 52.741625 44.09705 54.20341 C 42.732717 55.080481 41.563307 54.252398 41.076046 52.108447 C 39.955344 47.430736 39.321875 46.017825 37.567733 44.020052 C 36.544483 42.850624 35.082951 41.583677 34.303333 41.193868 C 33.353172 40.682243 32.049833 40.463013 30.715955 40.511739 z M 214.78534 41.437264 C 213.42101 41.437264 212.15391 41.632 212.00773 41.826904 C 211.37429 42.850154 212.49497 44.263223 215.02874 45.676282 C 216.53925 46.504627 218.73203 47.722781 219.85273 48.356222 C 221.50942 49.233292 221.99668 49.379518 222.53267 48.84353 C 223.40974 47.966459 221.26576 44.117213 219.02436 42.606702 C 217.75748 41.729631 216.68566 41.437264 214.78534 41.437264 z M 288.93844 45.899524 C 286.49023 45.9847 283.78743 46.985845 281.19886 48.84353 C 280.17561 49.574423 278.76272 50.207788 278.12928 50.207788 C 273.64647 50.207788 269.16363 58.247845 269.26108 66.044031 C 269.30981 70.137028 270.4791 73.304298 273.15904 76.910034 C 275.10808 79.443795 276.32633 80.077357 276.81359 78.713025 C 277.30086 77.494871 279.34745 77.835917 280.46815 79.395154 C 281.73503 81.10057 284.17146 82.221169 287.63102 82.610978 C 291.13931 83.000787 293.52679 82.221318 296.20673 79.882463 C 298.35068 77.982142 299.1303 77.738389 301.56661 78.079472 C 302.54113 78.22565 304.1001 76.325347 306.34151 72.378528 C 307.31603 70.673112 307.46237 69.74736 307.46237 64.826017 C 307.41364 59.319961 307.41367 59.173404 305.6108 55.567668 C 304.58755 53.569895 303.32046 51.474847 302.83319 50.987585 C 301.9074 50.013062 301.85908 50.013128 300.68966 51.13383 C 299.2766 52.449436 297.96096 52.352003 297.18134 50.792765 C 296.353 49.08735 294.93995 47.723091 292.9909 46.748568 C 291.78493 46.127309 290.40736 45.848419 288.93844 45.899524 z M 68.296606 46.999198 C 67.056373 47.041072 65.792803 47.150305 64.562467 47.333028 C 57.886983 48.307551 53.501616 52.400599 55.35321 55.860156 C 56.473912 57.955381 58.763818 57.76073 62.125924 55.275696 C 62.954268 54.690982 67.339803 53.131641 68.265601 53.131641 C 68.557958 53.131641 69.532218 53.862374 70.360563 54.690719 C 71.67617 56.006325 71.871366 56.591068 71.773914 58.199032 L 71.627669 60.148267 L 68.216508 60.97664 C 65.585295 61.658806 64.513281 62.194813 63.538757 63.315515 C 62.174425 64.972205 60.663903 65.264224 59.68938 64.094796 C 58.617404 62.779189 57.009881 63.218035 55.694275 65.167082 C 53.891407 67.847021 53.111449 71.209279 53.793616 73.158325 C 54.085973 74.035396 54.3295 75.107091 54.3295 75.594352 C 54.3295 76.081614 55.109542 77.78719 56.035339 79.395154 C 57.886934 82.513628 59.348391 83.244324 60.663997 81.636361 C 61.443616 80.710564 62.077386 80.710413 64.075159 81.684937 C 65.390765 82.367103 67.485684 82.513676 76.402572 82.562402 C 84.442391 82.611129 87.170972 82.464536 87.317151 82.026001 C 87.463329 81.684918 86.684171 80.369545 85.660921 79.102665 C 82.444992 75.155846 81.908996 72.768231 81.811544 62.194653 C 81.714091 53.47267 81.665139 52.936764 80.544438 51.280074 C 79.959724 50.305551 78.448949 48.989812 77.279521 48.307646 C 75.525379 47.357485 72.017306 46.873576 68.296606 46.999198 z M 349.01281 47.128906 C 344.2049 47.128906 343.44676 47.320743 342.93514 47.868913 C 341.91189 49.038341 337.57524 49.038707 335.23639 47.918005 C 333.53097 47.089661 333.38453 47.089661 331.97147 47.918005 C 330.1686 48.941255 328.21978 48.98968 327.87869 48.015157 C 327.44016 46.894455 312.18902 46.943548 311.75048 48.06425 C 311.26322 49.33113 312.67633 51.231142 314.91773 52.351843 L 317.06127 53.375037 L 317.06127 64.192464 C 317.06127 70.673044 316.81774 75.350703 316.52538 75.935417 C 316.23303 76.422678 315.45365 77.251296 314.77148 77.689832 C 313.26097 78.713081 312.38363 80.661903 313.01707 81.782605 C 313.40688 82.513497 314.62538 82.610978 324.12699 82.610978 L 334.74908 82.610978 L 334.89532 81.392965 C 334.99277 80.418441 334.50549 79.784653 332.55645 78.322868 C 328.95071 75.642929 328.51201 74.230271 328.75564 66.970072 C 328.95055 62.633444 328.80454 60.732699 328.366 59.904354 C 327.44021 58.198938 327.53741 57.663166 328.95046 57.322083 C 329.77881 57.078452 330.85113 57.321829 332.02056 57.906543 C 336.84445 60.440303 338.5984 59.953492 342.30159 55.080876 C 344.68917 51.913675 345.46898 51.231216 346.93076 50.987585 C 347.90528 50.792681 349.07471 50.792831 349.6107 50.93901 C 350.7314 51.280093 361.11009 66.96967 364.17984 72.962988 C 364.56965 73.742607 365.69013 75.594193 366.76211 77.15343 C 368.75988 80.223178 368.95465 81.149062 367.98012 82.31849 C 367.59031 82.757025 366.61599 84.852289 365.73892 86.99624 C 364.86185 89.140191 363.30243 92.648712 362.27918 94.792664 C 359.84287 99.860185 359.64821 100.59109 360.52528 101.32198 C 361.3049 101.95542 361.40216 101.95511 370.80631 100.24969 C 373.7786 99.713707 374.21753 99.47032 374.36371 98.495797 C 374.55862 97.18019 373.24262 95.523368 371.97574 95.523368 C 370.46523 95.523368 369.58829 94.938447 369.58829 93.915198 C 369.58829 93.37921 370.66014 90.699373 371.97574 88.019434 C 374.26587 83.341722 375.38699 80.905372 377.87203 75.301864 C 378.45674 73.937531 380.94132 68.821318 383.37763 63.899976 C 386.98337 56.542325 388.25031 54.447068 390.39426 52.351843 C 393.22038 49.525726 393.17175 49.574526 392.53831 48.307646 C 392.09978 47.576753 391.22292 47.479272 384.59616 47.479272 L 377.1408 47.527848 L 376.99456 48.84353 C 376.84838 49.964232 377.1411 50.403153 378.55415 51.231498 C 380.74683 52.498378 380.79561 53.8623 379.04146 58.734916 C 377.18987 63.899889 376.79972 65.264328 377.1408 66.238851 C 377.43316 67.2621 375.67932 68.626687 374.36371 68.33433 C 373.92518 68.236878 372.9504 67.018723 372.26823 65.65439 C 371.58607 64.241332 370.61159 62.438387 370.0756 61.658769 C 369.53961 60.830424 368.90603 59.758213 368.61368 59.222225 C 368.32132 58.686237 367.54179 57.273497 366.90835 56.104069 C 365.39784 53.375404 365.39784 52.449549 366.90835 51.767383 C 367.78542 51.328847 368.12637 50.841548 368.12637 49.769572 C 368.12637 48.989953 367.83426 48.16127 367.54191 47.868913 C 367.1521 47.576556 362.27949 47.284236 355.31165 47.186784 C 352.66825 47.150239 350.61544 47.128906 349.01281 47.128906 z M 93.645447 47.144409 C 89.729081 47.126137 86.659319 47.138058 86.488778 47.186784 C 86.196421 47.284236 86.001986 47.917968 86.001986 48.600134 C 86.001986 49.477205 86.781389 50.646794 88.584257 52.400936 C 89.94859 53.765268 91.702742 55.567696 92.433634 56.396041 C 94.723764 59.07598 103.1047 71.355222 103.98177 73.401721 C 104.2254 73.986435 105.29754 75.740437 106.27207 77.299674 C 107.29532 78.858912 108.51347 80.808016 108.95201 81.636361 C 110.26761 84.023943 111.04709 83.731745 112.84996 80.077283 C 114.21429 77.348618 116.84523 72.573337 119.13536 68.723971 C 119.37899 68.334161 120.06152 67.018789 120.69496 65.800635 C 122.59528 61.999994 126.10338 56.299058 126.78554 55.909249 C 127.12663 55.714344 127.4191 55.080829 127.4191 54.593567 C 127.4191 53.960127 128.15001 53.277556 129.75797 52.546663 C 132.24301 51.328509 132.63255 50.597907 131.85293 48.600134 L 131.31705 47.284452 L 123.76454 47.284452 C 117.57632 47.284452 116.11444 47.430593 115.91954 47.966581 C 115.52973 48.989831 117.08918 51.37732 118.69715 52.351843 C 120.50002 53.423819 120.49972 54.690888 118.7943 56.981018 C 117.13761 59.124969 116.30935 60.440333 115.91954 61.414856 C 115.77336 61.804665 115.43247 62.535765 115.18883 63.023027 C 114.89648 63.559014 114.89633 64.192577 115.23741 64.826017 C 115.62722 65.605636 115.52965 65.897899 114.60386 66.53134 C 112.89844 67.603315 112.02144 67.067543 110.55966 63.949068 C 109.82877 62.438557 108.07477 59.417091 106.66171 57.224414 C 105.19992 54.983011 104.03034 52.887897 104.03034 52.498088 C 104.03034 52.108278 104.66407 51.669649 105.44369 51.52347 C 106.22331 51.377292 106.95426 50.890236 107.10044 50.451701 C 107.49025 49.477178 106.66153 47.284452 105.88191 47.284452 C 102.3249 47.211363 97.561812 47.162681 93.645447 47.144409 z M 151.00267 47.278251 C 149.11453 47.284342 147.25072 47.576687 146.32492 48.161401 C 145.5453 48.599937 144.96066 49.135934 144.96066 49.330839 C 144.96066 49.477018 144.37572 50.354061 143.69355 51.182406 C 142.52413 52.546738 142.23181 52.6442 140.33149 52.351843 C 138.28499 52.059486 138.18744 52.108335 136.67693 54.154834 C 133.75336 58.247832 133.16892 60.196891 133.07146 66.044031 C 133.02274 71.939897 133.31517 72.719631 137.06709 77.397343 C 138.67505 79.395116 138.82117 79.492691 140.77022 79.200334 C 142.52436 78.907977 143.01161 79.102807 144.96066 80.564591 C 147.54315 82.513638 149.83327 83.19542 154.51098 83.536503 C 157.38583 83.731408 158.3604 83.585351 160.35817 82.659554 C 163.13556 81.343948 165.32817 79.05406 167.08231 75.545776 C 168.78772 72.183671 168.78772 69.844719 167.08231 69.211279 C 164.88963 68.382935 164.01235 68.626641 162.7942 70.526961 C 159.13974 76.325375 153.7797 78.420686 149.44307 75.692021 C 146.42205 73.7917 144.81405 71.160166 144.76532 68.090417 C 144.7166 64.241051 144.81448 64.192446 157.19092 64.533529 L 167.71586 64.874593 L 168.54372 63.65658 C 170.34659 60.830462 168.5928 55.324393 164.74343 51.767383 C 162.79439 50.013241 162.40472 49.81843 160.84548 50.062061 C 159.67605 50.256965 158.79883 50.110439 158.21412 49.671903 C 157.77558 49.282094 156.70374 48.600087 155.82666 48.112826 C 154.80341 47.552475 152.89081 47.27216 151.00267 47.278251 z M 288.65938 52.789026 C 290.45692 52.793594 292.02819 53.387529 292.94181 54.447323 C 295.28066 57.127262 295.57317 58.247938 295.57317 64.338708 C 295.6219 71.647633 294.50124 74.230302 290.7006 75.838265 C 288.60538 76.715336 287.53353 76.71527 285.63321 75.692021 C 283.53799 74.620045 283.09914 73.937595 281.88099 70.088228 C 280.61411 65.897778 280.56553 60.489481 281.83241 57.760815 C 282.85566 55.519412 285.14596 53.326479 286.80265 52.985396 C 287.43609 52.851399 288.0602 52.787503 288.65938 52.789026 z M 150.74687 53.16213 C 152.00157 53.08295 153.21946 53.350937 154.26707 53.960014 C 157.19064 55.714156 156.26498 58.93014 153.04906 58.2967 C 152.26944 58.150522 150.17432 58.004211 148.32273 58.004211 C 145.15553 58.004211 144.96066 57.955325 144.96066 56.88335 C 144.96066 56.103731 145.59399 55.37312 147.00705 54.447323 C 148.20084 53.667704 149.49217 53.24131 150.74687 53.16213 z M 288.6847 55.964026 C 287.87463 55.982298 287.02187 56.566658 286.31534 57.711723 C 284.22012 61.025102 285.24342 70.088163 287.97209 72.621924 C 289.14151 73.693899 289.23855 73.742757 290.11562 72.914412 C 291.57741 71.598806 292.25985 67.846832 291.87004 63.217847 C 291.67514 61.025169 291.18808 58.491642 290.79827 57.614571 C 290.26228 56.493869 289.49478 55.945754 288.6847 55.964026 z M 205.72233 62.876782 C 204.94271 62.876782 204.89377 64.192239 205.62466 65.605298 C 206.01447 66.384916 206.35536 67.408336 206.35536 67.895597 C 206.35536 70.137001 210.10733 74.08385 212.20255 74.08385 C 213.85924 74.08385 216.58781 71.939719 216.58781 70.624113 C 216.58781 69.211054 213.71298 66.677546 209.71743 64.679773 C 207.76839 63.70525 205.91723 62.876782 205.72233 62.876782 z M 69.520304 66.293628 C 70.385194 66.299719 71.16462 66.701975 71.676245 67.505957 C 72.894399 69.357551 72.212439 75.253495 70.604476 76.861458 C 68.411799 79.054136 65.731492 77.251173 65.195504 73.206901 C 64.854421 70.526962 65.293013 68.869923 66.85225 67.456864 C 67.704958 66.677246 68.655415 66.287537 69.520304 66.293628 z M 154.19421 67.615511 C 151.59954 67.578966 149.0533 67.627904 148.76095 67.798446 C 147.88387 68.334433 149.19972 70.916875 151.19749 72.671016 C 152.61055 73.937897 153.19523 74.13251 154.55956 73.937606 C 156.60606 73.596523 158.74994 71.890965 159.77319 69.79574 C 160.35791 68.577586 160.4067 68.139078 159.91944 67.944173 C 159.43218 67.773632 156.78887 67.652056 154.19421 67.615511 z " /><g
       id="g350"
       transform="matrix(0.48726212,0,0,0.48726212,34.060563,-99.231834)"
       style="stroke-width:0.543" /></g></svg>
