<?xml version="1.0" encoding="UTF-8" standalone="no"?>
<!-- Created with Inkscape (http://www.inkscape.org/) -->

<svg
   width="1500"
   height="500"
   viewBox="0 0 396.87498 132.29167"
   version="1.1"
   id="svg5"
   inkscape:version="1.2.2 (732a01da63, 2022-12-09)"
   xml:space="preserve"
   sodipodi:docname="cdimono1.svg"
   xmlns:inkscape="http://www.inkscape.org/namespaces/inkscape"
   xmlns:sodipodi="http://sodipodi.sourceforge.net/DTD/sodipodi-0.dtd"
   xmlns="http://www.w3.org/2000/svg"
   xmlns:svg="http://www.w3.org/2000/svg"><sodipodi:namedview
     id="namedview7"
     pagecolor="#000000"
     bordercolor="#111111"
     borderopacity="1"
     inkscape:showpageshadow="0"
     inkscape:pageopacity="0"
     inkscape:pagecheckerboard="1"
     inkscape:deskcolor="#d1d1d1"
     inkscape:document-units="mm"
     showgrid="false"
     inkscape:zoom="0.62760417"
     inkscape:cx="954.42323"
     inkscape:cy="541.74274"
     inkscape:window-width="1920"
     inkscape:window-height="1009"
     inkscape:window-x="-8"
     inkscape:window-y="-8"
     inkscape:window-maximized="1"
     inkscape:current-layer="layer1" /><defs
     id="defs2" /><g
     inkscape:label="Layer 1"
     inkscape:groupmode="layer"
     id="layer1"><path
       id="rect231"
       style="fill:#ffffff;stroke-width:0.8001;stroke-linecap:square;paint-order:fill markers stroke"
       d="M 0 0 L 0 132.29167 L 396.875 132.29167 L 396.875 91.382019 L 388.46259 91.382019 L 380.05019 91.382019 L 380.05019 74.557723 L 380.05019 57.733944 L 388.46259 57.733944 L 396.875 57.733944 L 396.875 51.150366 L 388.46259 51.150366 L 380.05019 51.150366 L 380.05019 45.298527 L 380.05019 39.446171 L 388.46259 39.446171 L 396.875 39.446171 L 396.875 0 L 0 0 z M 87.406034 35.839156 C 95.297558 35.792434 102.66969 35.98106 107.71694 36.447388 C 127.75975 38.349077 148.60688 43.616469 158.7748 49.321537 C 163.4566 51.954798 169.38088 56.636545 169.38088 57.807324 C 169.38088 58.172449 164.40682 58.465165 157.75058 58.465165 C 147.21687 58.465165 145.97354 58.319167 144.29145 57.002205 C 130.90488 46.4685 84.089509 42.079613 51.904325 48.29731 C 31.422304 52.247533 20.230522 59.342892 23.009965 66.657947 C 25.278102 72.728801 36.90825 77.996134 55.268978 81.287545 C 65.875444 83.189234 92.867821 83.920664 105.15637 82.677124 C 122.05396 80.921617 136.53706 77.118199 143.48633 72.436405 L 146.77864 70.16936 L 158.11645 70.16936 C 164.26072 70.16936 169.38088 70.461416 169.38088 70.827201 C 169.38088 72.290345 162.50503 77.630574 157.16508 80.263835 C 147.65598 85.018389 136.83032 88.163615 121.83442 90.577934 C 106.83919 92.991591 87.746391 94.015118 73.190365 93.064604 C 40.638734 91.089493 14.964009 83.848136 4.7960897 73.753638 C 0.11495723 69.145266 -1.0563042 65.048673 0.91880697 60.586483 C 5.4537574 50.418563 23.88841 42.225735 51.977189 37.836967 C 59.657947 36.648411 74.253494 35.917026 87.406034 35.839156 z M 175.23323 39.446171 L 210.19854 39.446171 C 261.47602 39.446171 277.49586 40.76331 294.32002 46.395618 C 306.17002 50.4186 312.82639 54.954196 315.24071 60.806108 C 320.36105 73.021899 305.58456 83.994034 277.64197 88.748588 C 264.98697 90.869881 253.50285 91.382019 214.22155 91.382019 L 175.23323 91.382019 L 175.23323 65.414612 L 175.23323 39.446171 z M 194.25171 48.955668 L 194.25171 65.487476 L 194.25171 82.019283 L 228.85166 81.653414 C 256.7215 81.43381 264.69474 81.14163 270.03468 80.190454 C 282.8352 77.849557 291.83288 73.826432 294.17378 69.364242 C 297.97715 61.976426 290.51578 55.319842 274.93516 51.881588 C 264.54829 49.614113 252.69785 48.955668 222.63396 48.955668 L 194.25171 48.955668 z M 84.644446 57.086955 C 90.522035 57.117618 97.128133 57.751825 99.962891 58.757654 C 106.47295 61.098551 108.37481 65.048975 104.49801 67.828418 C 99.74346 71.193251 85.918235 73.168224 77.579244 71.63232 C 72.31206 70.681145 68.143124 68.925588 66.241435 66.877055 C 64.778291 65.341151 64.631881 64.829198 65.363452 63.293294 C 66.387388 61.025158 70.33767 58.977483 75.823796 57.733944 C 77.85356 57.267616 81.117892 57.068557 84.644446 57.086955 z M 85.305387 60.37616 C 80.578118 60.40361 75.933367 60.769605 73.994967 61.464465 C 70.703556 62.634583 69.09439 64.537045 70.410689 65.853345 C 72.825008 68.267663 87.966013 69.511124 95.42725 67.901799 C 100.1818 66.877201 102.81553 64.975483 101.49923 63.366158 C 100.98726 62.780768 99.012041 61.830189 97.110352 61.318221 C 94.842546 60.65974 90.032656 60.348709 85.305387 60.37616 z M 326.871 60.659347 C 328.84612 60.586586 365.42059 66.877138 365.42059 67.242924 C 365.42059 67.60871 328.84612 73.899923 326.871 73.826501 C 326.13943 73.826501 325.92067 71.997478 325.92067 67.242924 C 325.92067 62.48837 326.13943 60.659347 326.871 60.659347 z " /><g
       id="g384"
       transform="matrix(0.66145784,0,0,0.66145784,2.96e-4,35.832215)"
       style="stroke-width:0.4" /></g></svg>
