<?xml version="1.0" encoding="UTF-8" standalone="no"?>
<!-- Created with Inkscape (http://www.inkscape.org/) -->

<svg
   width="1500"
   height="500"
   viewBox="0 0 396.87498 132.29167"
   version="1.1"
   id="svg5"
   inkscape:version="1.2.2 (732a01da63, 2022-12-09)"
   xml:space="preserve"
   sodipodi:docname="cdtv.svg"
   xmlns:inkscape="http://www.inkscape.org/namespaces/inkscape"
   xmlns:sodipodi="http://sodipodi.sourceforge.net/DTD/sodipodi-0.dtd"
   xmlns="http://www.w3.org/2000/svg"
   xmlns:svg="http://www.w3.org/2000/svg"><sodipodi:namedview
     id="namedview7"
     pagecolor="#000000"
     bordercolor="#111111"
     borderopacity="1"
     inkscape:showpageshadow="0"
     inkscape:pageopacity="0"
     inkscape:pagecheckerboard="1"
     inkscape:deskcolor="#d1d1d1"
     inkscape:document-units="mm"
     showgrid="false"
     inkscape:zoom="0.62760417"
     inkscape:cx="787.12033"
     inkscape:cy="95.601659"
     inkscape:window-width="1920"
     inkscape:window-height="1009"
     inkscape:window-x="-8"
     inkscape:window-y="-8"
     inkscape:window-maximized="1"
     inkscape:current-layer="layer1" /><defs
     id="defs2" /><g
     inkscape:label="Layer 1"
     inkscape:groupmode="layer"
     id="layer1"><path
       id="rect231"
       style="fill:#ffffff;stroke-width:0.8001;stroke-linecap:square;paint-order:fill markers stroke"
       d="M 0 0 L 0 132.29167 L 396.875 132.29167 L 396.875 0 L 0 0 z M 170.80508 0.023771159 C 187.1849 -0.48387621 206.02404 7.1580712 222.32803 21.397144 L 235.58355 21.397144 C 244.02615 21.397144 250.86634 28.237339 250.86634 36.679932 L 250.86634 61.427775 C 260.59466 85.853445 258.51028 110.29477 243.02083 123.38833 C 221.37393 141.67936 182.1614 130.88617 155.45046 99.26991 C 128.73952 67.653648 124.63565 27.194357 146.28254 8.9033325 C 153.0472 3.1873875 161.52724 0.3113122 170.80508 0.023771159 z M 172.70057 1.6433105 C 164.01495 1.7543688 156.12056 4.3192494 149.88026 9.5911458 C 129.9113 26.461214 134.45366 64.668149 160.02331 94.923922 C 185.59295 125.17969 222.50803 136.03334 242.46944 119.16327 C 255.59516 108.07447 257.93154 87.756881 250.86634 66.548393 L 250.86634 75.438806 C 250.86634 83.881399 244.02615 90.721594 235.58355 90.721594 L 209.07664 90.721594 L 209.07664 21.397144 L 219.70545 21.397144 C 204.57128 8.5764155 187.5122 1.4539223 172.70057 1.6433105 z M 88.75634 21.397144 C 91.855232 21.397144 94.863622 21.812497 97.72065 22.575883 L 97.72065 40.028048 C 95.067696 38.539068 92.006398 37.685038 88.75634 37.685038 C 78.628252 37.685038 70.382267 45.923464 70.382267 56.059111 C 70.382267 66.194757 78.620693 74.440934 88.75634 74.440934 C 92.013956 74.440934 95.067696 73.586905 97.72065 72.097925 L 97.72065 89.542338 C 94.856064 90.305724 91.855232 90.721594 88.75634 90.721594 C 69.61123 90.721594 54.094373 75.196661 54.094373 56.059111 C 54.094373 36.92156 69.61123 21.397144 88.75634 21.397144 z M 171.64792 21.397144 L 190.46796 21.397144 C 196.81691 21.397144 201.95667 26.544456 201.95667 32.885848 L 201.95667 47.314425 L 184.46678 47.314425 L 184.46678 38.894267 L 177.66461 38.894267 L 177.66461 73.223954 L 184.46678 73.223954 L 184.46678 64.804313 L 201.95667 64.804313 L 201.95667 79.240641 C 201.95667 85.589592 196.80935 90.729346 190.46796 90.729346 L 171.64792 90.729346 C 165.29897 90.729346 160.15973 85.582034 160.15973 79.240641 L 160.15973 32.885848 C 160.15973 26.544456 165.30653 21.397144 171.64792 21.397144 z M 252.70292 21.397144 L 264.84947 21.397144 L 282.33936 21.397144 L 294.49262 21.397144 L 294.49262 38.887032 L 282.33936 38.887032 L 282.33936 90.721594 L 264.84947 90.721594 L 264.84947 38.887032 L 252.70292 38.887032 L 252.70292 21.397144 z M 297.44799 21.397144 L 315.21022 21.397144 L 320.84863 69.550793 L 326.4948 21.397144 L 344.25651 21.397144 L 332.03503 90.721594 L 309.66999 90.721594 L 297.44799 21.397144 z M 226.57428 38.894267 L 226.57428 73.231706 L 233.37645 73.231706 L 233.37645 38.894267 L 226.57428 38.894267 z M 97.72065 40.934969 L 127.92346 40.934969 L 114.06177 54.797172 L 97.72065 54.797172 L 97.72065 40.934969 z M 97.72065 57.321566 L 114.06177 57.321566 L 127.92346 71.191003 L 97.72065 71.191003 L 97.72065 57.321566 z " /><g
       id="g423"
       transform="matrix(0.07558282,0,0,0.07558282,-273.8926,-142.17465)"
       style="stroke-width:3.50058" /></g></svg>
