<?xml version="1.0" encoding="UTF-8" standalone="no"?>
<!-- Created with Inkscape (http://www.inkscape.org/) -->

<svg
   width="1500"
   height="500"
   viewBox="0 0 396.87498 132.29167"
   version="1.1"
   id="svg5"
   inkscape:version="1.2.2 (732a01da63, 2022-12-09)"
   xml:space="preserve"
   sodipodi:docname="chailove.svg"
   xmlns:inkscape="http://www.inkscape.org/namespaces/inkscape"
   xmlns:sodipodi="http://sodipodi.sourceforge.net/DTD/sodipodi-0.dtd"
   xmlns="http://www.w3.org/2000/svg"
   xmlns:svg="http://www.w3.org/2000/svg"><sodipodi:namedview
     id="namedview7"
     pagecolor="#000000"
     bordercolor="#111111"
     borderopacity="1"
     inkscape:showpageshadow="0"
     inkscape:pageopacity="0"
     inkscape:pagecheckerboard="1"
     inkscape:deskcolor="#d1d1d1"
     inkscape:document-units="mm"
     showgrid="false"
     inkscape:zoom="0.62760417"
     inkscape:cx="787.12033"
     inkscape:cy="95.601659"
     inkscape:window-width="1920"
     inkscape:window-height="1009"
     inkscape:window-x="-8"
     inkscape:window-y="-8"
     inkscape:window-maximized="1"
     inkscape:current-layer="layer1" /><defs
     id="defs2" /><g
     inkscape:label="Layer 1"
     inkscape:groupmode="layer"
     id="layer1"><path
       id="rect231"
       style="fill:#ffffff;stroke-width:0.8001;stroke-linecap:square;paint-order:fill markers stroke"
       d="M 0 0 L 0 64.079293 C 0.0033861704 52.226003 2.3077549 39.717658 6.9535807 27.166817 C 8.7753404 22.239939 14.248839 19.724069 19.174023 21.547522 C 24.100901 23.369282 26.618465 28.843154 24.793319 33.770032 C 20.865361 44.378904 19.021809 54.706373 19.025195 64.079293 C 19.028581 78.191158 23.154582 89.961397 30.207975 98.006938 C 37.310468 106.01354 47.286474 110.96607 61.765739 111.04904 C 66.484367 111.04904 71.663197 110.48676 77.307943 109.23726 C 82.436298 108.10628 87.514111 111.34722 88.646785 116.47558 C 89.777766 121.60732 86.540583 126.68292 81.410535 127.8139 C 74.55354 129.32922 68.001229 130.07268 61.767289 130.07268 C 61.660625 130.07268 61.557034 130.07578 61.452063 130.07578 C 42.499667 130.0724 26.466404 122.73485 15.893087 110.53279 C 5.2114122 98.300247 -0.0016930852 81.832984 0 64.079293 L 0 132.29167 L 396.875 132.29167 L 396.875 59.956547 C 396.88685 65.558966 395.9605 70.833118 393.70362 75.54836 C 391.46874 80.273761 387.95401 84.125454 383.96003 87.056185 C 375.89248 92.905794 366.12689 96.111155 353.59806 100.48947 L 353.60116 100.48947 C 348.63026 102.19949 343.21748 99.559528 341.50577 94.593709 C 339.79575 89.626197 342.43698 84.207021 347.40618 82.500391 C 356.73678 79.298766 363.97145 76.692792 368.71548 74.176868 C 373.54585 71.591527 375.42346 69.620695 376.53412 67.351961 C 377.28247 65.77062 377.84266 63.567898 377.84774 59.956547 C 377.82573 57.582842 377.18229 55.714023 375.76518 53.641687 C 374.34807 51.599826 372.03393 49.50531 369.05241 47.712333 C 363.13677 44.073893 354.62528 41.925314 348.33378 41.977799 C 347.82416 41.977799 347.34336 41.991161 346.88115 42.016557 C 342.06432 42.123221 333.95126 45.839979 327.84769 52.287248 C 321.64253 58.704041 317.39451 67.23529 317.4199 76.33901 C 317.41482 85.588334 320.00176 94.185737 325.26387 100.15048 C 330.55307 106.07289 338.64429 110.47828 353.26578 110.5731 C 356.31164 110.5731 359.62883 110.36177 363.23003 109.90802 C 368.44303 109.24602 373.20356 112.93341 373.86555 118.14473 C 374.52585 123.35604 370.83847 128.11892 365.62885 128.77922 C 361.29963 129.32778 357.18527 129.59829 353.26578 129.59829 L 352.85133 129.59829 C 334.39162 129.60337 319.95281 123.09176 310.94898 112.68098 C 301.84865 102.2448 298.39654 88.964346 298.39316 76.33901 C 298.41686 61.273937 305.22784 48.30336 314.1741 39.059115 C 323.22534 29.835186 334.36431 23.721149 345.8993 23.015133 C 346.72045 22.969419 347.53295 22.952747 348.33378 22.951054 C 355.86123 22.969678 363.90552 24.569692 371.50239 27.705286 C 379.05863 30.873048 386.2965 35.574571 391.35544 42.731242 C 394.70606 47.470187 396.8987 53.468645 396.875 59.956547 L 396.875 0 L 0 0 z M 123.3904 1.3859619 A 10.85438 10.85438 0 0 1 134.24504 12.240597 A 10.85438 10.85438 0 0 1 123.3904 23.094714 A 10.85438 10.85438 0 0 1 112.53628 12.240597 A 10.85438 10.85438 0 0 1 123.3904 1.3859619 z M 150.0141 1.3859619 A 10.85438 10.85438 0 0 1 160.86873 12.240597 A 10.85438 10.85438 0 0 1 150.0141 23.094714 A 10.85438 10.85438 0 0 1 139.15998 12.240597 A 10.85438 10.85438 0 0 1 150.0141 1.3859619 z M 189.03962 21.360453 C 192.74708 21.327835 196.28947 23.477243 197.85769 27.092403 C 204.87384 43.286763 211.18914 58.370214 217.04722 71.186869 C 222.88497 83.993366 228.34306 94.570372 233.19714 101.41552 C 236.39537 106.00208 239.36849 108.7633 241.07004 109.65894 C 241.92166 110.12792 242.35697 110.2143 242.65496 110.23462 C 242.67697 110.22784 242.70208 110.21767 242.73764 110.20413 C 242.97636 110.11439 243.47964 109.8704 244.1484 109.39126 C 245.49949 108.45159 247.44983 106.5943 249.54756 104.01742 C 253.79212 98.858593 258.6527 90.958732 263.37979 82.05649 C 272.88985 64.192748 282.0428 42.374074 288.5798 27.798303 C 290.73171 23.006872 296.3611 20.866981 301.15423 23.0172 C 305.94735 25.169111 308.08931 30.796809 305.9374 35.591626 C 301.7504 44.906981 296.28997 57.716657 290.20503 70.739868 C 284.10315 83.778317 277.41903 97.021999 270.41812 107.63426 C 265.68933 114.71813 261.01281 120.68295 255.15135 124.91227 C 251.80074 127.27582 247.72589 129.23775 242.78208 129.26653 L 242.73764 129.26653 C 238.74873 129.26822 234.95314 128.06441 231.74813 126.24604 C 228.50079 124.41074 225.73078 122.01329 223.15899 119.25525 C 218.05095 113.72225 213.61696 106.65064 209.09473 98.234314 C 200.11969 81.432136 191.01939 59.147277 180.40036 34.656799 L 180.40036 34.660417 C 178.31109 29.840203 180.52351 24.237929 185.34373 22.146969 C 186.5492 21.624652 187.8038 21.371326 189.03962 21.360453 z M 135.67906 23.001697 C 165.47566 23.006776 189.62234 47.153592 189.6308 76.951892 L 189.62925 76.951892 C 189.62248 106.75696 165.47566 130.89893 135.67906 130.9057 C 105.87737 130.89893 81.732016 106.75527 81.725244 76.951892 C 81.732016 47.153592 105.87737 23.006776 135.67906 23.001697 z M 135.67906 42.026892 C 116.39312 42.06414 100.7843 57.669345 100.75044 76.951892 C 100.7843 96.241212 116.38974 111.84481 135.67906 111.88206 C 154.9616 111.8465 170.57005 96.241212 170.60561 76.951892 L 170.60199 76.951892 C 170.56982 57.669345 154.9616 42.06414 135.67906 42.026892 z " /><g
       id="g455"
       transform="matrix(1.6930869,0,0,1.6930869,-35.061221,-235.64462)"
       style="stroke-width:0.156273" /></g></svg>
