<?xml version="1.0" encoding="UTF-8" standalone="no"?>
<!-- Created with Inkscape (http://www.inkscape.org/) -->

<svg
   width="1500"
   height="500"
   viewBox="0 0 396.87498 132.29167"
   version="1.1"
   id="svg5"
   inkscape:version="1.2.2 (732a01da63, 2022-12-09)"
   xml:space="preserve"
   sodipodi:docname="channelf.svg"
   xmlns:inkscape="http://www.inkscape.org/namespaces/inkscape"
   xmlns:sodipodi="http://sodipodi.sourceforge.net/DTD/sodipodi-0.dtd"
   xmlns="http://www.w3.org/2000/svg"
   xmlns:svg="http://www.w3.org/2000/svg"><sodipodi:namedview
     id="namedview7"
     pagecolor="#000000"
     bordercolor="#111111"
     borderopacity="1"
     inkscape:showpageshadow="0"
     inkscape:pageopacity="0"
     inkscape:pagecheckerboard="1"
     inkscape:deskcolor="#d1d1d1"
     inkscape:document-units="mm"
     showgrid="false"
     inkscape:zoom="0.62760417"
     inkscape:cx="787.12033"
     inkscape:cy="95.601659"
     inkscape:window-width="1920"
     inkscape:window-height="1009"
     inkscape:window-x="-8"
     inkscape:window-y="-8"
     inkscape:window-maximized="1"
     inkscape:current-layer="layer1" /><defs
     id="defs2" /><g
     inkscape:label="Layer 1"
     inkscape:groupmode="layer"
     id="layer1"><path
       id="rect231"
       style="fill:#ffffff;stroke-width:0.8001;stroke-linecap:square;paint-order:fill markers stroke"
       d="M 0 0 L 0 132.29167 L 396.875 132.29167 L 396.875 72.121179 C 396.35902 75.995798 395.91685 79.88955 395.29784 83.745793 C 394.89044 86.287898 394.26224 88.803129 393.63385 91.309155 C 392.95736 94.825409 390.04854 97.472556 386.4932 97.801782 C 378.64139 98.888679 370.76967 100.25242 362.91635 100.90185 C 347.26834 102.11803 331.5287 101.35412 316.07011 98.628605 C 315.42369 98.51736 314.77604 98.313191 314.12811 98.257568 C 308.38545 97.821607 305.32306 94.714258 304.10237 89.063298 C 300.70788 73.780598 300.76783 57.92797 304.27807 42.672331 C 305.40706 37.764008 308.05176 35.044467 313.12094 34.154504 C 327.91957 31.547757 342.77212 30.128675 357.74664 31.129883 C 367.29269 31.770295 376.77282 33.281078 386.27978 34.452161 C 390.07114 34.706221 393.16167 37.597328 393.67881 41.372152 C 394.73414 46.829185 395.5293 52.329433 396.45384 57.813525 C 396.59214 58.656885 396.72147 59.501841 396.85226 60.346704 L 396.875 66.145833 L 396.875 0 L 0 0 z M 332.6908 37.810612 L 332.6908 94.556502 L 346.7964 94.556502 L 346.77677 72.622957 L 365.80299 72.622957 L 365.80299 59.630986 L 346.90751 59.630986 L 346.90751 51.995793 L 365.80299 51.995793 L 365.80299 37.810612 L 332.6908 37.810612 z M 27.084135 40.311751 C 30.848413 40.318364 34.586001 41.178881 38.008016 42.857332 C 38.761177 43.249698 39.297531 43.963396 39.468909 44.796232 C 39.589174 50.242742 39.533739 55.689528 39.524719 61.127018 C 39.494653 61.50886 39.438983 61.890702 39.357804 62.268034 C 35.658146 55.569263 30.109181 52.738758 23.921537 54.139848 C 13.891416 56.436913 10.101801 68.764041 17.099731 76.330225 C 18.532395 77.878639 20.307569 79.064518 22.284428 79.795129 C 28.65698 82.122261 33.966823 79.886787 39.553141 72.269491 L 39.553141 78.485649 L 39.553141 89.238997 C 39.715499 90.234192 39.131039 91.199554 38.174931 91.512244 C 28.000496 95.789175 18.391039 94.907904 9.8717489 87.846834 C 1.3539667 80.787268 -1.8180248 71.145203 1.0578166 60.319832 C 3.8885585 49.6478 11.130062 43.117266 21.96145 40.835234 C 23.656438 40.481955 25.373099 40.308745 27.084135 40.311751 z M 107.97015 41.199552 C 108.12158 41.191146 108.27556 41.196217 108.43059 41.215572 C 115.10832 41.298254 121.7951 41.215572 128.63969 41.215572 L 128.63969 92.950916 L 115.47822 92.950916 L 115.47822 73.141272 C 112.14838 73.141272 109.05884 73.077099 105.97854 73.206384 C 105.49748 73.206384 104.90715 74.060267 104.63806 74.645056 C 102.03883 80.210328 99.458717 85.778413 96.951188 91.456433 C 96.647519 92.544833 95.604595 93.255713 94.483122 93.136951 C 86.945501 93.042242 79.406243 93.088892 71.592013 93.088892 L 71.592013 73.252893 L 56.006917 73.252893 L 56.006917 92.950916 L 42.678532 92.950916 L 42.678532 41.427445 L 55.886511 41.427445 L 55.886511 61.145105 L 71.525867 61.145105 L 71.525867 41.41866 L 84.965356 41.41866 L 84.965356 87.06807 L 85.372567 87.17039 C 85.67774 86.558541 86.019462 85.964591 86.297575 85.313656 C 92.758822 71.230602 99.212359 57.132858 105.65557 43.024247 C 105.97389 41.974558 106.91017 41.258396 107.97015 41.199552 z M 139.68605 41.275517 C 141.79125 41.275517 143.89523 41.289141 145.99987 41.344763 C 146.51701 41.344763 147.12736 42.134191 147.48816 42.690417 C 152.42203 50.37837 157.35436 58.079891 162.28674 65.7934 C 162.65655 66.376686 163.07306 66.971998 163.79465 67.992749 L 163.79465 41.400574 L 177.12304 41.400574 L 177.12304 93.080107 C 172.8867 93.080107 168.67733 93.128025 164.46955 93.024296 C 163.95241 93.024296 163.32271 92.245485 162.97093 91.698279 C 158.0145 84.005816 153.10327 76.295275 148.1739 68.595296 C 147.79356 67.992467 147.38767 67.417074 146.70216 66.424886 L 146.70216 92.950916 L 133.36602 92.950916 L 133.36602 41.289469 C 135.47442 41.289469 137.58084 41.275517 139.68605 41.275517 z M 181.30418 41.289469 C 185.47437 41.289469 189.68323 41.289141 193.89101 41.344763 C 194.39913 41.344763 195.02004 42.134191 195.38084 42.690417 C 200.31322 50.372357 205.24601 58.070542 210.17839 65.782548 C 210.56774 66.3959 210.97336 66.98083 211.72351 68.102303 L 211.72351 41.382487 L 224.96766 41.382487 L 224.95888 93.088892 C 220.72254 93.088892 216.63465 93.146065 212.5276 93.024296 C 211.94431 93.024296 211.22432 92.263666 210.84398 91.669857 C 205.84095 83.941315 200.89227 76.175198 195.93584 68.419596 C 195.59309 67.88141 195.21416 67.380759 194.51061 66.367525 L 194.51061 92.950916 L 181.30418 92.950916 L 181.30418 41.289469 z M 262.96276 41.36285 L 276.18883 41.36285 L 276.18883 81.260673 L 291.57083 81.260673 L 291.57083 92.950916 L 262.96276 92.950916 L 262.96276 41.36285 z M 229.62939 41.427445 L 258.23592 41.427445 L 258.23592 53.054126 L 243.02238 53.054126 L 243.02238 61.256209 L 258.22713 61.256209 L 258.22713 73.1144 L 242.96708 73.1144 L 242.96708 81.232251 L 258.20905 81.232251 L 258.20905 92.950916 L 229.62939 92.950916 L 229.62939 41.427445 z M 114.9413 52.126534 L 110.84336 61.116683 L 115.30252 61.116683 L 115.30252 52.126534 L 114.9413 52.126534 z " /><g
       id="g495"
       transform="matrix(1.5033164,0,0,1.5033164,167.85295,46.972462)"
       style="stroke-width:0.176" /></g></svg>
