<?xml version="1.0" encoding="UTF-8" standalone="no"?>
<!-- Created with Inkscape (http://www.inkscape.org/) -->

<svg
   width="1500"
   height="500"
   viewBox="0 0 396.87498 132.29167"
   version="1.1"
   id="svg5"
   inkscape:version="1.2.2 (732a01da63, 2022-12-09)"
   xml:space="preserve"
   sodipodi:docname="coco.svg"
   xmlns:inkscape="http://www.inkscape.org/namespaces/inkscape"
   xmlns:sodipodi="http://sodipodi.sourceforge.net/DTD/sodipodi-0.dtd"
   xmlns="http://www.w3.org/2000/svg"
   xmlns:svg="http://www.w3.org/2000/svg"><sodipodi:namedview
     id="namedview7"
     pagecolor="#000000"
     bordercolor="#111111"
     borderopacity="1"
     inkscape:showpageshadow="0"
     inkscape:pageopacity="0"
     inkscape:pagecheckerboard="1"
     inkscape:deskcolor="#d1d1d1"
     inkscape:document-units="mm"
     showgrid="false"
     inkscape:zoom="0.62760417"
     inkscape:cx="787.12033"
     inkscape:cy="95.601659"
     inkscape:window-width="1920"
     inkscape:window-height="1009"
     inkscape:window-x="-8"
     inkscape:window-y="-8"
     inkscape:window-maximized="1"
     inkscape:current-layer="layer1" /><defs
     id="defs2" /><g
     inkscape:label="Layer 1"
     inkscape:groupmode="layer"
     id="layer1"><path
       id="rect231"
       style="fill:#ffffff;stroke-width:0.8001;stroke-linecap:square;paint-order:fill markers stroke"
       d="M 0 0 L 0 47.654972 L 41.473437 47.654972 L 37.027714 58.013513 L 26.660388 58.018164 L 26.660388 92.047611 L 13.33407 92.047611 L 13.33407 58.013513 L 0.0036173503 58.013513 L 0 47.654972 L 0 132.29167 L 396.875 132.29167 L 396.875 25.39845 L 347.92037 106.89322 L 315.33579 106.89322 L 315.33321 106.89322 L 364.30179 25.39845 L 396.875 25.39845 L 396.875 0 L 0 0 z M 278.74268 25.39845 L 311.31588 25.39845 L 262.36693 106.89322 L 229.78184 106.89322 L 229.77409 106.89322 L 278.74268 25.39845 z M 321.51784 25.39845 L 354.09725 25.39845 L 305.1483 106.89322 L 272.56321 106.89322 L 272.56011 106.89322 L 321.51784 25.39845 z M 127.35553 47.633268 L 153.99939 47.633268 C 162.28782 48.992123 167.0281 53.635107 168.83104 60.954419 C 168.83335 66.880182 168.84723 72.79088 168.83104 78.716642 C 167.0281 86.035954 162.28782 90.679455 153.99939 92.03831 L 127.35553 92.03831 L 127.35553 47.633268 z M 79.948092 47.654972 L 96.265959 47.654972 L 112.55489 80.224561 L 112.55489 47.654972 L 122.92273 47.654972 L 122.91446 92.047611 L 106.62812 92.047611 L 90.336605 59.505412 L 90.331954 92.047611 L 79.948092 92.047611 L 79.948092 47.654972 z M 162.90323 47.654972 L 176.22232 47.654972 L 185.88013 62.431331 L 195.49143 47.654972 L 210.2745 47.654972 L 192.46009 71.282987 L 192.49264 92.047611 L 180.67373 92.047611 L 180.66184 71.356885 L 162.90323 47.654972 z M 45.91296 47.660657 L 45.91451 47.66169 L 62.196204 47.66169 L 78.59727 92.03831 L 65.155713 92.03831 L 62.196204 83.186654 L 53.314575 83.186654 L 48.133496 75.786072 L 42.982389 92.03831 L 29.631266 92.03831 L 45.91296 47.660657 z M 137.7766 56.542285 L 137.74611 83.186654 L 149.55883 83.186654 C 153.26879 82.528621 156.77504 81.356921 158.47043 75.785038 L 158.49937 63.943901 C 156.81902 58.363923 153.29876 57.200318 149.5888 56.542285 L 137.7766 56.542285 z M 53.994637 59.472856 L 48.873503 72.825529 L 59.235661 72.825529 L 53.995671 59.472856 L 53.994637 59.472856 z " /><g
       id="g528"
       transform="matrix(1.1564732,0,0,1.1564732,-0.53544877,25.398659)"
       style="stroke-width:0.228785"><g
         id="text4074"
         style="font-size:40px;font-family:'Open Sans Light';white-space:pre;fill:#ffffff" /></g></g></svg>
