<?xml version="1.0" encoding="UTF-8" standalone="no"?>
<!-- Created with Inkscape (http://www.inkscape.org/) -->

<svg
   width="1500"
   height="500"
   viewBox="0 0 396.87498 132.29167"
   version="1.1"
   id="svg5"
   inkscape:version="1.2.2 (732a01da63, 2022-12-09)"
   xml:space="preserve"
   sodipodi:docname="colecovision.svg"
   xmlns:inkscape="http://www.inkscape.org/namespaces/inkscape"
   xmlns:sodipodi="http://sodipodi.sourceforge.net/DTD/sodipodi-0.dtd"
   xmlns="http://www.w3.org/2000/svg"
   xmlns:svg="http://www.w3.org/2000/svg"><sodipodi:namedview
     id="namedview7"
     pagecolor="#000000"
     bordercolor="#111111"
     borderopacity="1"
     inkscape:showpageshadow="0"
     inkscape:pageopacity="0"
     inkscape:pagecheckerboard="1"
     inkscape:deskcolor="#d1d1d1"
     inkscape:document-units="mm"
     showgrid="false"
     inkscape:zoom="0.62760417"
     inkscape:cx="787.12033"
     inkscape:cy="95.601659"
     inkscape:window-width="1920"
     inkscape:window-height="1009"
     inkscape:window-x="-8"
     inkscape:window-y="-8"
     inkscape:window-maximized="1"
     inkscape:current-layer="layer1" /><defs
     id="defs2" /><g
     inkscape:label="Layer 1"
     inkscape:groupmode="layer"
     id="layer1"><path
       id="rect231"
       style="fill:#ffffff;stroke-width:0.8001;stroke-linecap:square;paint-order:fill markers stroke"
       d="M 0 0 L 0 24.946281 C 0.027729972 18.839213 5.1296123 7.5173706 17.4625 7.5173706 L 60.325 7.5173706 L 60.325 23.362398 L 26.986983 23.362398 C 23.034767 23.362398 19.049483 25.474705 19.049483 30.757812 L 19.049483 41.849125 C 19.049483 46.989625 24.653346 48.715373 26.986983 48.715373 L 60.325 48.715373 L 60.325 64.559884 L 17.4625 64.559884 C 11.292386 64.639104 0 59.774775 0 46.073157 L 0 132.29167 L 396.875 132.29167 L 396.875 46.073157 C 396.875 61.054294 383.90723 64.559884 377.82707 64.559884 L 341.3125 64.559884 C 327.59848 64.559884 321.73333 53.544905 321.73333 46.073157 L 321.73333 24.946281 C 321.73402 12.781662 332.64075 7.5173706 341.3125 7.5173706 L 377.82707 7.5173706 C 389.41581 7.5173706 396.875 15.396148 396.875 24.946281 L 396.875 0 L 0 0 z M 275.16667 7.5168538 L 318.0302 7.5168538 L 318.0302 23.361365 L 285.22083 23.361365 C 281.26863 23.361365 277.28385 25.472494 277.28385 30.756262 L 277.28385 41.847575 C 277.28385 46.988734 282.88522 48.713822 285.22083 48.713822 L 318.0302 48.713822 L 318.0302 64.559367 L 275.16667 64.559367 C 268.99854 64.638587 257.7052 59.773741 257.7052 46.072123 L 257.7052 24.945764 C 257.73299 18.838696 262.83509 7.5168538 275.16667 7.5168538 z M 83.07865 7.5173706 L 119.59167 7.5173706 C 131.18041 7.5173706 138.64218 15.396148 138.64218 24.946281 L 138.64218 46.073157 C 138.64218 61.054294 125.67376 64.559884 119.59167 64.559884 L 83.07865 64.559884 C 69.364014 64.559884 64.02865 53.544905 64.02865 46.073157 L 64.02865 24.946281 C 64.02865 12.781662 74.406279 7.5173706 83.07865 7.5173706 z M 142.34532 7.5173706 L 161.39583 7.5173706 L 161.39583 41.320992 C 161.39583 46.176277 165.06232 48.764515 169.33333 48.714339 L 189.97135 48.714339 L 189.97135 64.03175 L 160.3375 64.03175 C 151.92376 64.03175 142.34635 60.257062 142.34635 46.602323 L 142.34532 7.5173706 z M 192.08802 7.5173706 L 254 7.5173706 L 254 21.778516 L 211.1375 21.778516 L 211.1375 27.060364 L 254 27.060364 L 254 41.322026 L 211.1375 41.322026 C 211.1375 46.564861 214.99727 48.716406 219.07448 48.716406 L 254 48.716406 L 254 64.033301 L 209.02083 64.033301 C 198.94289 64.033301 192.01408 55.683268 192.03789 46.603874 L 192.08802 7.5173706 z M 112.18282 23.299353 L 90.486983 23.42596 C 85.284598 23.45607 83.07865 26.717391 83.07865 30.757296 L 83.07865 41.321509 C 83.07865 45.710009 86.858857 48.715373 90.486983 48.715373 L 112.18282 48.715373 C 114.7552 48.715373 119.06198 46.976321 119.06198 41.321509 L 119.06198 30.757812 C 119.06198 27.205146 116.89304 23.271625 112.18282 23.299353 z M 370.4177 23.299353 L 348.72135 23.42596 C 343.51897 23.4555 341.3125 26.717016 341.3125 30.756262 L 341.3125 41.320992 C 341.3125 45.709499 345.09191 48.714339 348.72135 48.714339 L 370.4177 48.714339 C 372.99077 48.714339 377.2979 46.97581 377.2979 41.320992 L 377.2979 30.757812 C 377.2979 27.205146 375.1293 23.271625 370.4177 23.299353 z M 17.461983 67.730233 L 39.157817 67.730233 L 60.32345 104.70317 L 85.195317 67.730233 L 103.18698 67.730233 L 69.320317 124.77481 L 51.531738 124.77481 L 17.461983 67.730233 z M 106.36198 67.730233 L 125.94115 67.730233 L 125.94115 124.77326 L 106.36198 124.77326 L 106.36198 67.730233 z M 148.69583 67.730233 L 195.2625 67.730233 L 195.2625 84.104427 L 148.69583 84.104427 C 143.37244 84.104427 143.67073 89.385758 148.69583 89.385758 L 179.38698 89.385758 C 203.29934 89.385758 203.2927 124.77326 179.38698 124.77326 L 131.23333 124.77326 L 131.23333 108.92823 L 177.27032 108.92823 C 182.78088 108.92823 182.40718 103.64639 177.27032 103.64639 L 148.69583 103.64639 C 124.12405 103.64639 124.21069 67.730233 148.69583 67.730233 z M 200.55468 67.730233 L 220.13385 67.730233 L 220.13385 124.77326 L 200.55468 124.77326 L 200.55468 67.730233 z M 243.41718 67.730233 L 279.9302 67.730233 C 291.52161 67.730233 298.97968 75.609683 298.97968 85.159143 L 298.97968 106.28499 C 298.97968 121.26611 286.01167 124.77171 279.9302 124.77171 L 243.41718 124.77171 C 229.70186 124.77171 223.83802 113.75607 223.83802 106.28499 L 223.83802 85.159143 C 223.83802 72.994535 234.7448 67.730233 243.41718 67.730233 z M 302.15365 67.730233 L 302.15468 67.730233 L 356.65833 67.730233 C 366.44065 67.730233 375.15667 75.311954 375.17917 85.689343 L 375.17917 124.77378 L 355.6 124.77378 L 355.6 90.972225 C 355.6 85.329301 352.23824 84.186671 348.19012 84.105461 L 321.73333 84.105461 L 321.73333 124.77378 L 302.15365 124.77378 L 302.15365 67.730233 z M 272.52187 83.509115 L 250.82655 83.638306 C 245.62349 83.669506 243.41718 86.930395 243.41718 90.969641 L 243.41718 101.53385 C 243.41718 105.9217 247.19711 108.92772 250.82655 108.92772 L 272.52187 108.92772 C 275.09561 108.92772 279.40258 107.18933 279.40258 101.53385 L 279.40258 90.969641 C 279.40258 87.414995 277.23675 83.483365 272.52187 83.509115 z " /></g></svg>
