<?xml version="1.0" encoding="UTF-8" standalone="no"?>
<!-- Created with Inkscape (http://www.inkscape.org/) -->

<svg
   width="1500"
   height="500"
   viewBox="0 0 396.87498 132.29167"
   version="1.1"
   id="svg5"
   inkscape:version="1.2.2 (732a01da63, 2022-12-09)"
   xml:space="preserve"
   sodipodi:docname="consolearcade.svg"
   xmlns:inkscape="http://www.inkscape.org/namespaces/inkscape"
   xmlns:sodipodi="http://sodipodi.sourceforge.net/DTD/sodipodi-0.dtd"
   xmlns:xlink="http://www.w3.org/1999/xlink"
   xmlns="http://www.w3.org/2000/svg"
   xmlns:svg="http://www.w3.org/2000/svg"><sodipodi:namedview
     id="namedview7"
     pagecolor="#000000"
     bordercolor="#111111"
     borderopacity="1"
     inkscape:showpageshadow="0"
     inkscape:pageopacity="0"
     inkscape:pagecheckerboard="1"
     inkscape:deskcolor="#d1d1d1"
     inkscape:document-units="mm"
     showgrid="false"
     inkscape:zoom="0.62760417"
     inkscape:cx="742.50622"
     inkscape:cy="95.601659"
     inkscape:window-width="1920"
     inkscape:window-height="1009"
     inkscape:window-x="-8"
     inkscape:window-y="-8"
     inkscape:window-maximized="1"
     inkscape:current-layer="layer1" /><defs
     id="defs2"><linearGradient
       id="linearGradient34773"
       gradientUnits="userSpaceOnUse"
       x1="15.196"
       y1="312.37051"
       x2="3854.196"
       y2="312.37051"
       gradientTransform="translate(1160.9631,-2.2896484e-5)">
				<stop
   offset="0"
   style="stop-color:#f3dd42;stop-opacity:1"
   id="stop34769" />
				<stop
   offset="1"
   style="stop-color:#d7861b;stop-opacity:1"
   id="stop34771" />
			</linearGradient><linearGradient
       id="SVGID_1_"
       gradientUnits="userSpaceOnUse"
       x1="15.196"
       y1="312.37051"
       x2="3854.196"
       y2="312.37051"
       gradientTransform="translate(1160.9631,-2.2896484e-5)">
				<stop
   offset="0"
   style="stop-color:#FF2422"
   id="stop4" />
				<stop
   offset="1"
   style="stop-color:#C24FFF"
   id="stop6" />
			</linearGradient><linearGradient
       xlink:href="#linearGradient34773"
       id="linearGradient6574"
       gradientUnits="userSpaceOnUse"
       gradientTransform="translate(833.68668,630.53366)"
       x1="15.196"
       y1="312.37051"
       x2="3588.2239"
       y2="316.50259" /></defs><g
     inkscape:label="Layer 1"
     inkscape:groupmode="layer"
     id="layer1"><path
       id="rect231"
       style="fill:#ffffff;stroke-width:0.8001;stroke-linecap:square;paint-order:fill markers stroke"
       d="M 0 0 L 0 132.29167 L 396.875 132.29167 L 396.875 0 L 0 0 z M 33.845996 15.20269 C 36.517277 15.20269 38.954023 15.548978 41.156661 16.241386 C 43.406161 16.887635 45.398012 17.833632 47.132007 19.079972 C 48.865996 20.280148 50.318782 21.757635 51.490397 23.511743 C 52.662013 25.265851 53.505481 27.204537 54.020992 29.327926 L 39.329382 35.628833 C 38.813871 33.643926 37.876228 32.166439 36.517151 31.197062 C 35.158079 30.227685 33.541389 29.743404 31.666801 29.743404 C 29.839081 29.743404 28.175556 30.135857 26.675891 30.920593 C 25.176221 31.65916 23.887345 32.651332 22.80946 33.897673 C 21.778438 35.144013 20.958387 36.574813 20.349146 38.190434 C 19.786772 39.759901 19.505269 41.375898 19.505269 43.037683 C 19.505269 45.714998 20.231662 47.769112 21.684465 49.200098 C 23.184135 50.631078 25.035493 51.34622 27.238131 51.34622 C 29.159576 51.34622 30.893347 50.908109 32.43988 50.031055 C 33.986414 49.154001 35.439193 47.907374 36.798271 46.291748 L 48.186723 55.154773 C 45.702898 58.339856 42.632906 60.901861 38.977466 62.840609 C 35.322026 64.779362 30.870017 65.748442 25.621175 65.748442 C 22.153197 65.748442 18.990057 65.26416 16.131315 64.294784 C 13.272573 63.279248 10.811898 61.847931 8.7498535 60.001506 C 6.7346775 58.155075 5.1413991 55.939364 3.9697835 53.354366 C 2.8450306 50.72321 2.282548 47.768752 2.282548 44.491341 C 2.282548 41.167771 2.915277 37.775203 4.1806234 34.313151 C 5.4928323 30.8511 7.4612714 27.711957 10.085689 24.896155 C 12.710107 22.034194 15.990322 19.70305 19.926949 17.902783 C 23.910444 16.102517 28.550292 15.20269 33.845996 15.20269 z M 82.561886 15.271936 C 86.170463 15.271936 89.47409 15.849079 92.473425 17.003097 C 95.472761 18.110955 98.050512 19.657183 100.20629 21.64209 C 102.36206 23.580838 104.02558 25.888895 105.1972 28.566215 C 106.41568 31.243536 107.02499 34.128735 107.02499 37.221501 C 107.02499 40.960515 106.27519 44.560857 104.77552 48.022909 C 103.32271 51.438801 101.30745 54.462511 98.729891 57.093673 C 96.152336 59.724829 93.08286 61.825118 89.521151 63.39458 C 86.006304 64.917883 82.187024 65.679195 78.062935 65.679195 C 74.454358 65.679195 71.150214 65.125651 68.150879 64.017798 C 65.151543 62.863781 62.573787 61.317041 60.418018 59.378288 C 58.262243 57.393381 56.575306 55.062237 55.356828 52.384916 C 54.185212 49.707596 53.599312 46.822913 53.599312 43.730147 C 53.599312 39.991133 54.325705 36.413362 55.778507 32.997469 C 57.278172 29.535418 59.316858 26.489132 61.894413 23.857975 C 64.471969 21.226813 67.518027 19.149101 71.032874 17.625798 C 74.594583 16.056336 78.437797 15.271936 82.561886 15.271936 z M 189.06133 15.271936 C 193.4666 15.271936 197.54397 15.918337 201.29314 17.210836 C 205.08917 18.503335 208.32307 20.280418 210.99436 22.542293 L 201.57426 33.620687 C 199.69967 32.143542 197.5205 30.874345 195.03667 29.812651 C 192.55285 28.750951 189.99903 28.219983 187.37461 28.219983 C 186.29672 28.219983 185.42932 28.38158 184.77322 28.704708 C 184.11711 28.981671 183.7893 29.466469 183.7893 30.158883 C 183.7893 30.528163 183.88296 30.850847 184.07042 31.127816 C 184.25788 31.358615 184.63304 31.612558 185.19541 31.889526 C 185.75779 32.16649 186.55443 32.512778 187.58545 32.928223 C 188.61647 33.297509 189.97559 33.782307 191.66272 34.382397 C 193.77163 35.167128 195.6693 35.975132 197.35643 36.806022 C 199.04356 37.636917 200.47292 38.606002 201.64454 39.713855 C 202.86302 40.775555 203.77725 42.022181 204.38649 43.453162 C 205.0426 44.837978 205.37041 46.453463 205.37041 48.299894 C 205.37041 50.74641 204.85476 53.031379 203.82373 55.154773 C 202.83958 57.278161 201.3868 59.124508 199.46534 60.69397 C 197.59076 62.217273 195.2711 63.440817 192.50608 64.36403 C 189.74107 65.241084 186.60135 65.679195 183.0865 65.679195 C 178.16571 65.679195 173.64293 64.894796 169.51885 63.325334 C 165.39476 61.709707 161.83305 59.563248 158.83372 56.885933 L 168.25381 45.807023 C 171.06569 48.161216 173.8776 49.892646 176.68947 51.000505 C 179.50135 52.108363 182.21908 52.661902 184.8435 52.661902 C 185.92138 52.661902 186.78878 52.477217 187.44489 52.107931 C 188.10099 51.738644 188.42881 51.208193 188.42881 50.51578 C 188.42881 50.146499 188.33514 49.823299 188.14769 49.54633 C 188.0071 49.223208 187.65535 48.92309 187.09297 48.646126 C 186.53059 48.322999 185.71054 47.953628 184.63266 47.538184 C 183.55477 47.076575 182.1254 46.522519 180.34455 45.87627 C 178.04818 45.04538 176.05633 44.21481 174.3692 43.383915 C 172.68208 42.506861 171.27664 41.53726 170.15189 40.475566 C 169.074 39.413871 168.25344 38.237014 167.69106 36.944515 C 167.17555 35.605852 166.91798 34.036025 166.91798 32.235758 C 166.91798 29.881565 167.43363 27.688937 168.46465 25.657865 C 169.54254 23.580636 171.04215 21.780465 172.9636 20.257161 C 174.88505 18.733858 177.20472 17.533918 179.92287 16.656864 C 182.64102 15.733652 185.68707 15.271936 189.06133 15.271936 z M 238.90221 15.271936 C 242.51079 15.271936 245.81442 15.849079 248.81375 17.003097 C 251.81309 18.110955 254.39084 19.657183 256.54661 21.64209 C 258.70238 23.580838 260.36591 25.888895 261.53752 28.566215 C 262.75601 31.243536 263.36532 34.128735 263.36532 37.221501 C 263.36532 40.960515 262.61552 44.560857 261.11584 48.022909 C 259.66304 51.438801 257.64777 54.462511 255.07022 57.093673 C 252.49266 59.724829 249.42319 61.825118 245.86148 63.39458 C 242.34663 64.917883 238.52735 65.679195 234.40326 65.679195 C 230.79469 65.679195 227.49055 65.125651 224.49121 64.017798 C 221.49187 62.863781 218.91411 61.317041 216.75835 59.378288 C 214.60257 57.393381 212.91563 55.062237 211.69716 52.384916 C 210.52554 49.707596 209.93964 46.822913 209.93964 43.730147 C 209.93964 39.991133 210.66603 36.413362 212.11884 32.997469 C 213.61851 29.535418 215.65719 26.489132 218.23474 23.857975 C 220.8123 21.226813 223.85835 19.149101 227.3732 17.625798 C 230.93492 16.056336 234.77813 15.271936 238.90221 15.271936 z M 117.56957 16.241386 L 132.96449 16.241386 L 144.14159 39.367623 L 150.46833 16.241386 L 166.77742 16.241386 L 153.56169 64.709745 L 138.93984 64.709745 L 127.27027 40.614058 L 120.6624 64.709745 L 104.35384 64.709745 L 117.56957 16.241386 z M 273.9099 16.241386 L 290.35954 16.241386 L 280.93944 50.862012 L 303.36443 50.862012 L 299.56828 64.709745 L 260.69417 64.709745 L 273.9099 16.241386 z M 316.72072 16.241386 L 358.68818 16.241386 L 355.03259 29.535665 L 329.23365 29.535665 L 327.89781 34.451644 L 351.93924 34.451644 L 348.77613 46.153255 L 324.7347 46.153255 L 323.2583 51.415466 L 349.40865 51.415466 L 345.82385 64.709745 L 303.50499 64.709745 L 316.72072 16.241386 z M 81.43689 29.535665 C 79.7029 29.535665 78.133039 29.928123 76.7271 30.712854 C 75.368028 31.451426 74.196228 32.420505 73.212069 33.620687 C 72.227915 34.820863 71.454693 36.182922 70.892314 37.706226 C 70.376803 39.229529 70.119234 40.752669 70.119234 42.275972 C 70.119234 43.568471 70.306556 44.768417 70.681474 45.87627 C 71.10326 46.984128 71.68916 47.953729 72.438989 48.784619 C 73.188825 49.615514 74.125951 50.261915 75.250704 50.723519 C 76.375451 51.185128 77.687744 51.415466 79.187415 51.415466 C 80.921404 51.415466 82.467847 51.046613 83.826925 50.30804 C 85.232859 49.523309 86.428076 48.53062 87.412236 47.330444 C 88.396395 46.130263 89.1462 44.76872 89.661711 43.245422 C 90.224084 41.722119 90.505587 40.198462 90.505587 38.675159 C 90.505587 37.38266 90.294331 36.18272 89.87255 35.074862 C 89.497633 33.967003 88.93515 32.997402 88.185315 32.166512 C 87.43548 31.335622 86.474936 30.689738 85.30332 30.228129 C 84.178573 29.76652 82.889698 29.535665 81.43689 29.535665 z M 237.77722 29.535665 C 236.04322 29.535665 234.47337 29.928123 233.06743 30.712854 C 231.70836 31.451426 230.53656 32.420505 229.5524 33.620687 C 228.56824 34.820863 227.79502 36.182922 227.23264 37.706226 C 226.71713 39.229529 226.45956 40.752669 226.45956 42.275972 C 226.45956 43.568471 226.64689 44.768417 227.0218 45.87627 C 227.44359 46.984128 228.02949 47.953729 228.77932 48.784619 C 229.52915 49.615514 230.46628 50.261915 231.59103 50.723519 C 232.71578 51.185128 234.02807 51.415466 235.52774 51.415466 C 237.26173 51.415466 238.80818 51.046613 240.16725 50.30804 C 241.57319 49.523309 242.76841 48.53062 243.75256 47.330444 C 244.73672 46.130263 245.48653 44.76872 246.00204 43.245422 C 246.56441 41.722119 246.8454 40.198462 246.8454 38.675159 C 246.8454 37.38266 246.63466 36.18272 246.21288 35.074862 C 245.83796 33.967003 245.27548 32.997402 244.52564 32.166512 C 243.77581 31.335622 242.81526 30.689738 241.64365 30.228129 C 240.5189 29.76652 239.23002 29.535665 237.77722 29.535665 z M 217.22188 66.543225 C 219.8754 66.543225 222.33586 66.889103 224.56614 67.542647 C 231.25736 69.50289 235.87643 74.228258 237.4129 80.667944 L 237.40308 80.672078 C 237.40343 80.673569 237.40428 80.674722 237.40463 80.676213 L 222.71044 86.979187 C 221.65662 83.026524 218.77312 81.091691 215.04682 81.091691 C 211.35773 81.091691 208.3198 82.750431 206.20188 85.238725 C 204.08492 87.730683 202.88994 91.053004 202.88994 94.377702 C 202.88994 99.708807 206.26214 102.68986 210.62074 102.68986 C 214.41448 102.68986 217.50839 100.88793 220.18088 97.6328 L 231.57088 106.49324 C 231.29824 106.84594 230.94231 107.11574 230.65569 107.45494 C 225.77311 113.24518 218.89799 117.08898 209.00223 117.08898 C 202.11026 117.08898 196.27393 115.02949 192.16088 111.34256 C 191.13262 110.42082 190.21209 109.39761 189.40963 108.27918 C 187.80469 106.04231 186.67229 103.42545 186.09562 100.48276 C 185.80728 99.011405 185.65792 97.45841 185.65792 95.830843 C 185.65792 94.178364 185.81959 92.481429 186.14368 90.776888 C 186.79184 87.367807 188.0903 83.928738 190.04783 80.754761 C 193.9629 74.406807 200.51379 69.120186 209.77066 67.25946 C 212.08488 66.794279 214.56837 66.543225 217.22188 66.543225 z M 104.9693 67.232072 L 121.282 67.232072 L 128.72651 116.05131 L 111.22474 116.05131 L 110.38138 109.5406 L 93.157621 109.5406 L 88.866927 116.05131 L 70.943473 116.05131 L 70.943473 116.0508 L 104.9693 67.232072 z M 262.0052 67.232072 L 278.3179 67.232072 L 285.7624 116.05131 L 268.26063 116.05131 L 267.41727 109.5406 L 250.19403 109.5406 L 245.90282 116.05131 L 227.97937 116.05131 L 227.97937 116.0508 L 262.0052 67.232072 z M 143.14268 67.580888 L 162.33066 67.580888 C 164.59848 67.580888 166.65942 67.70236 168.52718 67.935388 C 170.39494 68.168417 172.06926 68.51328 173.56305 68.959615 C 175.05684 69.40595 176.3704 69.953703 177.5163 70.593624 C 178.66219 71.233544 179.64087 71.965753 180.46495 72.779537 C 181.15204 73.45423 181.73706 74.184643 182.22867 74.960799 C 182.72028 75.736956 183.11822 76.558572 183.43015 77.414913 C 184.05401 79.127595 184.33448 80.979632 184.33448 82.88538 C 184.33448 84.772445 184.0838 86.593792 183.55675 88.311405 C 183.02971 90.029018 182.22621 91.642866 181.11918 93.113696 C 180.01214 94.584528 178.60206 95.912474 176.86207 97.059192 C 175.12209 98.205909 173.05217 99.171108 170.62628 99.916382 L 177.44653 116.05131 L 159.73392 116.05131 L 154.25415 102.19996 L 150.17378 102.19996 L 146.38021 116.05131 L 129.92334 116.05131 L 143.14268 67.580888 z M 300.17858 67.580888 L 317.61317 67.580888 C 327.17341 67.580888 333.15046 70.146905 336.86833 73.808931 C 336.86994 73.810515 336.87085 73.812515 336.87246 73.814099 C 336.87363 73.815254 336.87542 73.816044 336.8766 73.8172 C 337.2553 74.19022 337.52518 74.626281 337.86206 75.023328 C 338.33668 75.582489 338.85746 76.114803 339.25009 76.721932 C 339.91936 77.756322 340.47026 78.86163 340.90891 80.036975 C 340.91 80.039907 340.91195 80.042311 340.91304 80.045243 C 341.71736 82.20383 342.09365 84.632784 342.15793 87.276326 C 342.16423 87.525926 342.21322 87.74633 342.21322 88.000313 C 342.21322 88.001554 342.2127 88.00269 342.2127 88.003931 C 342.2127 88.005566 342.21322 88.006946 342.21322 88.008582 C 342.21322 95.282811 339.39753 101.93426 334.12844 107.12421 C 328.22706 112.94526 319.72072 116.05958 308.33105 116.05958 L 286.95923 116.05958 L 286.96181 116.0508 L 286.95923 116.0508 L 300.17858 67.580888 z M 352.62499 67.580888 L 394.59245 67.580888 L 390.93324 80.875684 L 365.13585 80.875684 L 363.80415 85.791663 L 387.83938 85.791663 L 384.67781 97.491724 L 360.63432 97.491724 L 359.15896 102.75652 L 385.31033 102.75652 L 381.72709 116.05131 L 339.40616 116.05131 L 339.40616 116.0508 L 352.62499 67.580888 z M 155.87266 81.157837 L 153.26765 90.640979 L 159.24506 90.640979 C 164.72492 90.640979 167.60786 88.1498 167.60786 85.110567 C 167.60786 84.139009 167.25391 83.234057 166.55417 82.544832 C 166.09893 82.092269 165.46696 81.745368 164.65868 81.51182 C 163.8504 81.278273 162.86613 81.157837 161.70693 81.157837 L 155.87266 81.157837 z M 312.75714 81.706124 L 307.27892 101.91781 L 310.15213 101.91781 C 315.14301 101.91781 319.43413 100.46451 321.96329 97.973348 C 324.00349 95.963801 325.47884 92.71723 325.47884 89.736125 C 325.47884 87.112088 324.70324 85.376369 323.43866 84.130782 C 321.89587 82.602862 319.43409 81.706124 315.49702 81.706124 L 312.75714 81.706124 z M 108.13035 86.273287 L 100.46725 98.048279 L 109.46257 98.048279 L 108.13035 86.273287 z M 265.16624 86.273287 L 257.50315 98.048279 L 266.49846 98.048279 L 265.16624 86.273287 z " /><g
       id="g983"
       transform="matrix(0.08430555,0,0,0.08303923,-403.77001,-82.721626)"
       style="stroke-width:3.16222"><g
         id="g8603"
         style="fill:none;fill-opacity:1;stroke:#ffffff;stroke-width:83.4827;stroke-dasharray:none;stroke-opacity:1"
         transform="translate(-34,-20)"><g
           id="g141"
           transform="translate(833.68668,630.53371)"
           style="fill:none;fill-opacity:1;stroke:#ffffff;stroke-width:83.4827;stroke-dasharray:none;stroke-opacity:1">
		<g
   id="g34"
   style="fill:none;fill-opacity:1;stroke:#ffffff;stroke-width:83.4827;stroke-dasharray:none;stroke-opacity:1">
			
				<linearGradient
   id="SVGID_00000128444796063564815230000007252927678799283094_"
   gradientUnits="userSpaceOnUse"
   x1="357.92542"
   y1="604.23328"
   x2="357.92542"
   y2="16.339899">
				<stop
   offset="0"
   style="stop-color:#FF0000"
   id="stop15" />
				<stop
   offset="0.2634"
   style="stop-color:#E42372"
   id="stop17" />
				<stop
   offset="0.3192"
   style="stop-color:#FFA1FF"
   id="stop19" />
				<stop
   offset="0.4267"
   style="stop-color:#DA2F9A"
   id="stop21" />
				<stop
   offset="0.7554"
   style="stop-color:#CC41D4"
   id="stop23" />
				<stop
   offset="0.7881"
   style="stop-color:#FFA1FF"
   id="stop25" />
				<stop
   offset="0.8413"
   style="stop-color:#C846E3"
   id="stop27" />
				<stop
   offset="1"
   style="stop-color:#C24FFF"
   id="stop29" />
			</linearGradient>
			
		</g>
		<g
   id="g55"
   style="fill:none;fill-opacity:1;stroke:#ffffff;stroke-width:83.4827;stroke-dasharray:none;stroke-opacity:1">
			
				<linearGradient
   id="SVGID_00000135673619673579814740000002913345356260872074_"
   gradientUnits="userSpaceOnUse"
   x1="1037.5408"
   y1="604.23328"
   x2="1037.5408"
   y2="20.5096">
				<stop
   offset="0"
   style="stop-color:#FF0000"
   id="stop36" />
				<stop
   offset="0.2634"
   style="stop-color:#E42372"
   id="stop38" />
				<stop
   offset="0.3192"
   style="stop-color:#FFA1FF"
   id="stop40" />
				<stop
   offset="0.4267"
   style="stop-color:#DA2F9A"
   id="stop42" />
				<stop
   offset="0.7554"
   style="stop-color:#CC41D4"
   id="stop44" />
				<stop
   offset="0.7881"
   style="stop-color:#FFA1FF"
   id="stop46" />
				<stop
   offset="0.8413"
   style="stop-color:#C846E3"
   id="stop48" />
				<stop
   offset="1"
   style="stop-color:#C24FFF"
   id="stop50" />
			</linearGradient>
			
		</g>
		<g
   id="g76"
   style="fill:none;fill-opacity:1;stroke:#ffffff;stroke-width:83.4827;stroke-dasharray:none;stroke-opacity:1">
			
				<linearGradient
   id="SVGID_00000093171400342485411010000004786870807831186310_"
   gradientUnits="userSpaceOnUse"
   x1="1682.7727"
   y1="616.74109"
   x2="1682.7727"
   y2="8.0001001">
				<stop
   offset="0"
   style="stop-color:#FF0000"
   id="stop57" />
				<stop
   offset="0.2634"
   style="stop-color:#E42372"
   id="stop59" />
				<stop
   offset="0.3192"
   style="stop-color:#FFA1FF"
   id="stop61" />
				<stop
   offset="0.4267"
   style="stop-color:#DA2F9A"
   id="stop63" />
				<stop
   offset="0.7554"
   style="stop-color:#CC41D4"
   id="stop65" />
				<stop
   offset="0.7881"
   style="stop-color:#FFA1FF"
   id="stop67" />
				<stop
   offset="0.8413"
   style="stop-color:#C846E3"
   id="stop69" />
				<stop
   offset="1"
   style="stop-color:#C24FFF"
   id="stop71" />
			</linearGradient>
			
		</g>
		<g
   id="g97"
   style="fill:none;fill-opacity:1;stroke:#ffffff;stroke-width:83.4827;stroke-dasharray:none;stroke-opacity:1">
			
				<linearGradient
   id="SVGID_00000145054330599880703690000004533480753458681732_"
   gradientUnits="userSpaceOnUse"
   x1="2220.6216"
   y1="604.23328"
   x2="2220.6216"
   y2="16.339899">
				<stop
   offset="0"
   style="stop-color:#FF0000"
   id="stop78" />
				<stop
   offset="0.2634"
   style="stop-color:#E42372"
   id="stop80" />
				<stop
   offset="0.3192"
   style="stop-color:#FFA1FF"
   id="stop82" />
				<stop
   offset="0.4267"
   style="stop-color:#DA2F9A"
   id="stop84" />
				<stop
   offset="0.7554"
   style="stop-color:#CC41D4"
   id="stop86" />
				<stop
   offset="0.7881"
   style="stop-color:#FFA1FF"
   id="stop88" />
				<stop
   offset="0.8413"
   style="stop-color:#C846E3"
   id="stop90" />
				<stop
   offset="1"
   style="stop-color:#C24FFF"
   id="stop92" />
			</linearGradient>
			
		</g>
		<g
   id="g118"
   style="fill:none;fill-opacity:1;stroke:#ffffff;stroke-width:83.4827;stroke-dasharray:none;stroke-opacity:1">
			
				<linearGradient
   id="SVGID_00000106148091704042031110000017185161894946614463_"
   gradientUnits="userSpaceOnUse"
   x1="2905.2402"
   y1="604.23328"
   x2="2905.2402"
   y2="20.5096">
				<stop
   offset="0"
   style="stop-color:#FF0000"
   id="stop99" />
				<stop
   offset="0.2634"
   style="stop-color:#E42372"
   id="stop101" />
				<stop
   offset="0.3192"
   style="stop-color:#FFA1FF"
   id="stop103" />
				<stop
   offset="0.4267"
   style="stop-color:#DA2F9A"
   id="stop105" />
				<stop
   offset="0.7554"
   style="stop-color:#CC41D4"
   id="stop107" />
				<stop
   offset="0.7881"
   style="stop-color:#FFA1FF"
   id="stop109" />
				<stop
   offset="0.8413"
   style="stop-color:#C846E3"
   id="stop111" />
				<stop
   offset="1"
   style="stop-color:#C24FFF"
   id="stop113" />
			</linearGradient>
			
		</g>
		<g
   id="g139"
   style="fill:none;fill-opacity:1;stroke:#ffffff;stroke-width:83.4827;stroke-dasharray:none;stroke-opacity:1">
			
				<linearGradient
   id="SVGID_00000021080724737336074490000000910687952145319586_"
   gradientUnits="userSpaceOnUse"
   x1="3526.8933"
   y1="604.23328"
   x2="3526.8933"
   y2="20.5096">
				<stop
   offset="0"
   style="stop-color:#FF0000"
   id="stop120" />
				<stop
   offset="0.2634"
   style="stop-color:#E42372"
   id="stop122" />
				<stop
   offset="0.3192"
   style="stop-color:#FFA1FF"
   id="stop124" />
				<stop
   offset="0.4267"
   style="stop-color:#DA2F9A"
   id="stop126" />
				<stop
   offset="0.7554"
   style="stop-color:#CC41D4"
   id="stop128" />
				<stop
   offset="0.7881"
   style="stop-color:#FFA1FF"
   id="stop130" />
				<stop
   offset="0.8413"
   style="stop-color:#C846E3"
   id="stop132" />
				<stop
   offset="1"
   style="stop-color:#C24FFF"
   id="stop134" />
			</linearGradient>
			
		</g>
	</g></g><g
         aria-label="CONSOLE"
         id="text2091"
         style="font-size:833.836px;line-height:1.25;font-family:'Gotham Ultra';-inkscape-font-specification:'Gotham Ultra';text-align:center;letter-spacing:0px;word-spacing:0px;text-anchor:middle;fill:#fefefe;fill-opacity:1;stroke-width:13.7332"
         transform="translate(-4.05048,-2.271e-5)" /></g></g><style
     type="text/css"
     id="style2">
	.st0{fill:#FFFFFF;}
	.st1{fill:#FF0000;}
	.st2{fill:url(#SVGID_1_);}
	.st3{fill:url(#SVGID_00000060022068257817767130000001067164073883981741_);}
	.st4{fill:url(#SVGID_00000144308182761068376180000004131709304805192586_);}
	.st5{fill:url(#SVGID_00000000935997520668853970000011105419993307822477_);}
	.st6{fill:url(#SVGID_00000018200174457167754170000000853354448091225986_);}
	.st7{fill:url(#SVGID_00000072987630451721579260000010409738167651109522_);}
	.st8{fill:#3636FF;}
	.st9{display:none;}
	.st10{display:inline;}
	.st11{enable-background:new    ;}
	.st12{fill:url(#SVGID_00000099639162208554751810000013272208193612295339_);}
	.st13{fill:url(#SVGID_00000158736166008707814920000018426778185460247990_);}
	.st14{fill:url(#SVGID_00000133527000259551881150000004185836194023049859_);}
	.st15{fill:url(#SVGID_00000093164219829473752460000004603917870326250679_);}
	.st16{fill:url(#SVGID_00000156556395246081825560000005894267688922753411_);}
	.st17{fill:url(#SVGID_00000135690321830567168220000000437954853257014148_);}
	.st18{fill:url(#SVGID_00000040565659643257570880000002075315462357006765_);}
	.st19{fill:url(#SVGID_00000017508175736194757820000008863537906517323707_);}
	.st20{fill:url(#SVGID_00000126293465477839731700000000626789561221784705_);}
	.st21{fill:url(#SVGID_00000087403315896914670680000008996143154280075168_);}
	.st22{fill:url(#SVGID_00000151540686432933406660000011628697137491540393_);}
	.st23{fill:url(#SVGID_00000143589059756432772880000012524823099024141722_);}
	.st24{fill:url(#SVGID_00000052088033699595628130000015515451372212444082_);}
	.st25{fill:url(#SVGID_00000126294377186336552610000001799937443100725399_);}
	.st26{fill:url(#SVGID_00000070835762807858034660000013936331226864194476_);}
	.st27{fill:url(#SVGID_00000092457199491666826160000016742156659903073436_);}
	.st28{fill:url(#SVGID_00000138556585880754416440000017272986633013561527_);}
	.st29{fill:url(#SVGID_00000032624778419303139080000015394367773870234245_);}
	.st30{fill:url(#SVGID_00000040539262103052545880000003837399106474199717_);}
	.st31{fill:url(#SVGID_00000115483974547727894610000006699104590764616355_);}
	.st32{fill:url(#SVGID_00000041285316495664937430000010139118778734034608_);}
	.st33{fill:url(#SVGID_00000178199001922562380240000009661348160359078294_);}
	.st34{fill:url(#SVGID_00000145019290134935790460000010249637267404127883_);}
	.st35{fill:url(#SVGID_00000117636406951782473700000003654222835714608307_);}
	.st36{fill:url(#SVGID_00000158745280490234840560000003483236744759648947_);}
	.st37{fill:url(#SVGID_00000146474604070782972690000015670225624893543309_);}
	.st38{fill:url(#SVGID_00000173847499186819278890000011550608873747634579_);}
	.st39{fill:url(#SVGID_00000141427567100195222880000010417319602782459071_);}
</style></svg>
