<?xml version="1.0" encoding="UTF-8" standalone="no"?>
<!-- Created with Inkscape (http://www.inkscape.org/) -->

<svg
   width="1500"
   height="500"
   viewBox="0 0 396.87498 132.29167"
   version="1.1"
   id="svg5"
   inkscape:version="1.2.2 (732a01da63, 2022-12-09)"
   xml:space="preserve"
   sodipodi:docname="cps.svg"
   xmlns:inkscape="http://www.inkscape.org/namespaces/inkscape"
   xmlns:sodipodi="http://sodipodi.sourceforge.net/DTD/sodipodi-0.dtd"
   xmlns="http://www.w3.org/2000/svg"
   xmlns:svg="http://www.w3.org/2000/svg"><sodipodi:namedview
     id="namedview7"
     pagecolor="#000000"
     bordercolor="#111111"
     borderopacity="1"
     inkscape:showpageshadow="0"
     inkscape:pageopacity="0"
     inkscape:pagecheckerboard="1"
     inkscape:deskcolor="#d1d1d1"
     inkscape:document-units="mm"
     showgrid="false"
     inkscape:zoom="0.62760417"
     inkscape:cx="954.42323"
     inkscape:cy="278.83817"
     inkscape:window-width="1920"
     inkscape:window-height="1009"
     inkscape:window-x="-8"
     inkscape:window-y="-8"
     inkscape:window-maximized="1"
     inkscape:current-layer="layer1" /><defs
     id="defs2" /><g
     inkscape:label="Layer 1"
     inkscape:groupmode="layer"
     id="layer1"><path
       id="rect231"
       style="fill:#ffffff;stroke-width:0.8001;stroke-linecap:square;paint-order:fill markers stroke"
       d="M 0 0 L 0 46.808512 C 0 26.732604 14.410986 9.6547078 38.301538 9.6547078 C 61.137495 9.6547078 70.162126 27.259835 70.162126 27.259835 L 51.39893 47.159912 L 39.014673 38.631234 C 39.014673 38.631234 43.087511 34.723613 39.366073 31.880741 C 36.461139 29.668415 28.335802 34.372115 28.676803 43.613875 C 29.090246 54.27222 35.655012 60.309497 42.901774 60.309497 C 49.621352 60.309497 51.388595 54.861768 51.388595 54.861768 L 66.471395 54.861768 L 66.471395 67.421724 L 87.68457 11.257194 L 111.9265 11.257194 L 131.39198 61.725948 C 131.39198 61.725948 132.80852 64.392734 134.22488 65.106104 C 134.22488 65.106104 134.30756 31.994726 134.30756 31.064254 C 134.30756 30.134007 134.18363 29.110082 133.60476 28.448393 C 132.65376 27.342342 131.04058 26.8981 131.04058 26.8981 L 131.04058 11.257194 L 165.02094 11.257194 C 182.6365 11.257194 187.16407 16.064009 192.27095 25.295614 C 199.33153 15.753926 209.03871 9.479008 222.8913 9.479008 C 237.14696 9.479008 247.22637 14.751172 252.98456 23.517428 C 261.02729 13.87238 273.96967 9.3963257 285.81666 9.3963257 C 300.37225 9.3963257 312.52975 16.467334 318.8255 27.435535 L 318.8255 11.257194 L 351.56459 11.257194 L 355.01761 20.05459 L 357.58127 11.257194 L 391.38541 11.257194 L 391.38541 26.536365 C 388.99751 27.694095 388.03619 28.872558 388.46001 31.601689 L 393.18427 61.80863 C 393.38061 62.790783 393.72207 63.814 394.56971 64.568669 C 395.55187 65.447235 396.875 65.281803 396.875 65.281803 L 396.875 0 L 0 0 z M 0 46.808512 L 0 132.29167 L 396.875 132.29167 L 396.875 82.700895 L 362.89516 82.700895 L 362.89516 69.540975 L 343.41883 69.540975 L 343.41883 82.731901 L 311.47504 82.731901 L 311.47504 74.161882 C 311.47504 74.161882 299.80376 84.468746 284.75213 84.468746 C 265.50333 84.468746 252.63264 70.254626 252.63264 70.254626 L 252.63264 82.69056 L 229.97253 82.69056 C 209.81402 82.69056 192.50881 71.608508 187.67072 51.419084 C 185.37579 53.610648 175.27584 60.857686 163.16007 63.586816 C 162.21921 63.793538 161.74362 64.154953 161.74362 65.188786 C 161.74362 67.059886 165.73407 67.721448 165.73407 67.721448 L 165.73407 82.69056 L 41.495658 82.69056 C 18.483898 82.700715 5.0132687e-15 66.884195 0 46.808512 z M 284.48341 16.250171 C 265.7205 16.250171 251.63012 29.482562 251.63012 46.539795 C 251.63012 63.597028 265.36912 77.614901 284.48341 77.614901 C 303.59793 77.614901 317.3367 63.607409 317.3367 46.539795 C 317.3367 29.472181 303.24632 16.250171 284.48341 16.250171 z M 37.949622 16.436206 C 22.970437 16.436206 6.450769 27.022384 6.450769 46.095378 C 6.450769 58.531617 18.659815 75.764368 40.606824 75.764368 L 59.018103 75.764368 L 59.018103 61.395219 L 55.658101 61.395219 C 55.658101 61.395219 53.580496 66.90496 43.800944 66.90496 C 26.991958 66.90496 21.853963 51.615288 21.853963 43.262476 C 21.853963 34.909663 26.640234 24.778849 37.432857 24.778849 C 48.22548 24.778849 48.57688 31.787931 48.57688 33.483228 C 48.57688 35.168369 47.605363 36.057023 47.605363 36.40863 C 47.605363 36.542909 47.646608 36.646292 47.719051 36.708354 L 49.393368 38.083464 C 49.972233 38.558968 50.83045 38.507388 51.347253 37.95944 L 61.220036 27.559558 C 61.220036 27.559558 52.463909 16.436206 37.949622 16.436206 z M 225.38263 16.529224 C 210.40344 16.529224 193.88377 27.114885 193.88377 46.187878 C 193.88377 58.634499 206.0923 75.867721 228.03931 75.867721 L 246.45111 75.867721 L 246.45111 61.498572 L 243.09111 61.498572 C 243.09111 61.498572 241.0135 67.008313 231.23395 67.008313 C 214.42496 67.008313 209.28697 51.718641 209.28697 43.365828 C 209.28697 35.013016 214.07324 24.882202 224.86586 24.882202 C 235.65848 24.882202 236.00988 31.891283 236.00988 33.58658 C 236.00988 35.271722 235.03785 36.160376 235.03785 36.511983 C 235.03785 36.646262 235.07984 36.749645 235.15205 36.811707 L 236.82637 38.186816 C 237.40524 38.662321 238.26323 38.61074 238.78026 38.062793 L 248.65304 27.662911 C 248.65304 27.662911 239.88653 16.539379 225.38263 16.529224 z M 92.191789 18.007686 L 74.15258 67.225354 C 74.15258 67.225354 73.707928 68.652149 72.374394 69.985909 C 71.164983 71.205701 69.552344 71.763578 69.552344 71.763578 L 69.552344 75.940068 L 87.333171 75.940068 L 87.333171 71.763578 C 87.333171 71.763578 85.265732 71.546269 84.676485 70.068075 C 84.324878 69.189282 84.324878 67.762902 84.676485 66.873954 C 85.027867 65.984781 88.749105 56.029655 88.749105 56.029655 L 106.89167 56.029655 C 106.89167 56.029655 110.61332 65.902117 111.1405 67.142672 C 111.67807 68.383001 111.67817 69.365471 110.9648 70.606026 C 110.25166 71.856962 108.83522 71.670561 108.83522 71.670561 L 108.83522 75.940068 L 131.05143 75.940068 L 131.05143 71.763578 C 131.05143 71.763578 128.9214 71.05066 128.04283 69.985909 C 127.15366 68.920932 126.26473 67.680615 125.73754 66.346855 L 107.32627 18.007686 L 92.191789 18.007686 z M 138.12232 18.007686 L 138.12232 22.711275 C 138.12232 22.711275 139.79714 23.683074 140.51029 24.396444 C 141.21327 25.109813 141.1304 26.887764 141.1304 26.887764 L 141.1304 68.65214 C 141.1304 68.65214 140.95482 69.717079 140.06587 70.606026 C 139.1767 71.494974 137.93577 71.763578 137.93577 71.763578 L 137.93577 75.940068 L 158.46681 75.940068 L 158.46681 71.670561 C 158.46681 71.670561 157.48474 71.40206 156.60594 70.337309 C 155.717 69.262176 155.63391 68.641805 155.63391 68.641805 L 155.63391 59.410327 C 155.63391 59.410327 165.59951 56.681115 173.15636 53.186934 C 179.71051 50.168259 187.31932 45.90915 187.31932 33.824292 C 187.31932 21.739434 176.8784 18.007686 166.43739 18.007686 L 138.12232 18.007686 z M 362.69827 18.007686 L 354.56285 41.650171 L 346.95402 18.049028 L 325.86538 18.049028 L 325.86538 22.184176 C 325.86538 22.184176 328.367 22.824816 328.83212 23.569104 C 329.27671 24.272093 328.87347 25.833049 328.87347 25.833049 L 322.19532 67.545748 C 322.19532 67.545748 322.01984 69.14843 320.95509 70.388985 C 319.89034 71.62954 318.43224 71.856596 318.43224 71.856596 L 318.43224 75.940068 L 336.75102 75.940068 L 336.75102 72.12583 C 336.75102 72.12583 334.98291 72.125783 334.01114 70.699044 C 333.30837 69.665436 333.48404 67.773124 333.48404 67.773124 L 338.08427 36.139913 L 347.20206 62.976518 L 358.3466 62.976518 L 367.54707 34.361727 C 367.54707 34.361727 372.59162 66.69801 372.76743 68.124524 C 372.95339 69.540882 372.68479 70.078814 372.06463 70.967761 C 371.45462 71.856935 369.59398 72.12583 369.59398 72.12583 L 369.59398 75.971073 L 390.74462 75.971073 L 390.74462 72.394548 C 390.74462 72.394548 389.05966 71.588133 388.70806 70.616361 C 388.35668 69.634209 388.1705 68.837903 387.99492 67.411389 C 387.81912 65.995031 382.15404 27.435779 381.97823 26.009265 C 381.80243 24.592907 381.80238 23.869082 382.59835 22.89731 C 383.26004 22.090961 384.72845 21.470524 384.72845 21.470524 L 384.72845 18.007686 L 362.69827 18.007686 z M 284.49375 25.481649 C 291.75089 25.481649 301.66479 30.816031 301.66479 46.808512 C 301.66479 62.800994 292.80526 68.135376 284.49375 68.135376 C 276.17185 68.135376 267.4984 63.865745 267.4984 46.808512 C 267.4984 29.740898 277.22645 25.481649 284.49375 25.481649 z M 161.08319 26.064042 C 165.95626 25.926876 172.45356 27.160231 172.45356 34.713127 C 172.45356 44.492679 155.82046 51.419084 155.82046 51.419084 L 155.82046 26.7224 C 155.82046 26.7224 158.15935 26.146342 161.08319 26.064042 z M 97.422477 30.092737 L 103.43916 46.973877 L 91.757707 46.973877 L 97.422477 30.092737 z M 46.529976 88.438529 L 350.31402 88.438529 C 359.21478 88.438529 366.43035 95.654098 366.43035 104.55486 C 366.43035 113.45562 359.21473 120.66085 350.32435 120.66085 L 46.529976 120.66085 C 37.629216 120.66085 30.423983 113.44524 30.423983 104.55486 C 30.434138 95.654098 37.639597 88.438529 46.529976 88.438529 z M 192.79805 96.967208 C 189.28333 96.967208 187.12295 98.931331 187.12295 101.66046 L 187.12295 101.7018 C 187.12295 104.72048 189.53132 105.599 192.65336 106.31237 C 194.6382 106.7775 195.12452 107.10848 195.12452 107.71849 L 195.12452 107.75983 C 195.12452 108.39038 194.5352 108.76235 193.44969 108.76235 C 191.75439 108.76235 190.1417 108.16279 188.69443 107.00484 L 186.43048 109.71372 C 188.22914 111.32642 190.71019 112.14251 193.29466 112.14251 C 196.86106 112.14251 199.22815 110.36449 199.22815 107.36657 L 199.22815 107.32523 C 199.22815 104.57534 197.12981 103.49013 193.75975 102.756 C 191.73361 102.29088 191.22709 102.00158 191.22709 101.32973 L 191.22709 101.28839 C 191.22709 100.77136 191.71255 100.34736 192.6947 100.34736 C 193.98693 100.34736 195.45492 100.85419 196.79884 101.79482 L 198.83541 98.921094 C 197.24325 97.63924 195.28954 96.967208 192.79805 96.967208 z M 232.8261 96.967208 C 229.31116 96.967208 227.15048 98.931331 227.15048 101.66046 L 227.15048 101.7018 C 227.15048 104.72048 229.55908 105.599 232.68089 106.31237 C 234.66573 106.7775 235.15205 107.10848 235.15205 107.71849 L 235.15205 107.75983 C 235.15205 108.39038 234.56274 108.76235 233.47722 108.76235 C 231.78192 108.76235 230.16923 108.16279 228.72196 107.00484 L 226.45801 109.71372 C 228.26728 111.32642 230.73795 112.14251 233.32219 112.14251 C 236.88882 112.14251 239.2562 110.36449 239.2562 107.36657 L 239.2562 107.32523 C 239.2562 104.57534 237.15734 103.49013 233.78728 102.756 C 231.76091 102.29088 231.25462 102.00158 231.25462 101.32973 L 231.25462 101.28839 C 231.25462 100.77136 231.74059 100.34736 232.72275 100.34736 C 234.01476 100.34736 235.48246 100.85419 236.82637 101.79482 L 238.86294 98.921094 C 237.271 97.63924 235.31736 96.967208 232.8261 96.967208 z M 138.43238 97.111902 L 132.18831 111.88413 L 136.46816 111.88413 L 137.51202 109.26878 L 143.16697 109.26878 L 144.23151 111.88413 L 148.59455 111.88413 L 142.35048 97.111902 L 138.43238 97.111902 z M 93.773088 97.215255 L 93.773088 111.89446 L 97.835889 111.89446 L 97.835889 107.6973 L 99.851786 107.6973 C 103.50101 107.6973 106.15786 105.87797 106.15786 102.41494 L 106.15786 102.3736 C 106.15786 99.117055 103.76978 97.215255 100.05849 97.215255 L 93.773088 97.215255 z M 114.16978 97.215255 L 114.15944 111.89446 L 125.33447 111.89446 L 125.33447 108.32827 L 118.23258 108.32827 L 118.23258 97.215255 L 114.16978 97.215255 z M 152.6775 97.215255 L 158.24977 106.39506 L 158.26011 111.88413 L 162.34358 111.88413 L 162.34358 106.33304 L 167.91533 97.215255 L 163.36677 97.215255 L 160.32768 102.55963 L 157.30874 97.215255 L 152.6775 97.215255 z M 205.52389 97.215255 L 211.09616 106.39506 L 211.10649 111.88413 L 215.18997 111.88413 L 215.18997 106.33304 L 220.76172 97.215255 L 216.21316 97.215255 L 213.17407 102.55963 L 210.15513 97.215255 L 205.52389 97.215255 z M 246.28574 97.215255 L 246.28574 100.78145 L 250.68909 100.78145 L 250.68909 111.89446 L 254.75241 111.89446 L 254.75241 100.78145 L 259.15627 100.78145 L 259.15627 97.215255 L 246.28574 97.215255 z M 267.22968 97.215255 L 267.22968 111.89446 L 279.13903 111.89446 L 279.13903 108.43162 L 271.26148 108.43162 L 271.26148 106.10567 L 278.30136 106.10567 L 278.30136 102.9007 L 271.26148 102.9007 L 271.26148 100.67809 L 279.03568 100.67809 L 279.03568 97.215255 L 267.22968 97.215255 z M 287.51268 97.215255 L 287.51268 111.88413 L 291.49229 111.88413 L 291.49229 103.50014 L 295.22436 109.20677 L 295.30704 109.20677 L 299.05927 103.4588 L 299.05927 111.88413 L 303.1014 111.88413 L 303.1014 97.215255 L 298.80088 97.215255 L 295.2967 102.89036 L 291.79201 97.215255 L 287.51268 97.215255 z M 97.846224 100.62642 L 99.748433 100.62642 C 101.21625 100.62642 102.09506 101.29854 102.09506 102.55963 L 102.09506 102.60097 C 102.09506 103.75893 101.21638 104.51352 99.769104 104.51352 L 97.846224 104.50318 L 97.846224 100.62642 z M 140.36559 101.92918 L 141.99908 106.10567 L 138.71143 106.10567 L 140.36559 101.92918 z " /><g
       id="g887"
       transform="matrix(0.22567873,0,0,0.22567873,-0.00180915,9.3963852)"
       style="stroke-width:1.17239" /></g><style
     type="text/css"
     id="style307">
	.st0{fill-rule:evenodd;clip-rule:evenodd;fill:#FFFFFF;}
	.st1{fill:#FFFFFF;}
	.st2{fill-rule:evenodd;clip-rule:evenodd;}
</style></svg>
