<?xml version="1.0" encoding="UTF-8" standalone="no"?>
<!-- Created with Inkscape (http://www.inkscape.org/) -->

<svg
   width="1500"
   height="500"
   viewBox="0 0 396.87498 132.29167"
   version="1.1"
   id="svg5"
   inkscape:version="1.2.2 (732a01da63, 2022-12-09)"
   xml:space="preserve"
   sodipodi:docname="cps1.svg"
   xmlns:inkscape="http://www.inkscape.org/namespaces/inkscape"
   xmlns:sodipodi="http://sodipodi.sourceforge.net/DTD/sodipodi-0.dtd"
   xmlns="http://www.w3.org/2000/svg"
   xmlns:svg="http://www.w3.org/2000/svg"><sodipodi:namedview
     id="namedview7"
     pagecolor="#000000"
     bordercolor="#111111"
     borderopacity="1"
     inkscape:showpageshadow="0"
     inkscape:pageopacity="0"
     inkscape:pagecheckerboard="1"
     inkscape:deskcolor="#d1d1d1"
     inkscape:document-units="mm"
     showgrid="false"
     inkscape:zoom="0.62760417"
     inkscape:cx="954.42323"
     inkscape:cy="541.74274"
     inkscape:window-width="1920"
     inkscape:window-height="1009"
     inkscape:window-x="-8"
     inkscape:window-y="-8"
     inkscape:window-maximized="1"
     inkscape:current-layer="layer1" /><defs
     id="defs2" /><g
     inkscape:label="Layer 1"
     inkscape:groupmode="layer"
     id="layer1"><path
       id="rect231"
       style="fill:#ffffff;stroke-width:0.8001;stroke-linecap:square;paint-order:fill markers stroke"
       d="M 0 0 L 0 132.29167 L 161.73948 132.29167 L 161.73948 125.01976 C 163.41954 124.89248 165.88879 124.70587 169.15557 124.45132 C 172.42234 124.20525 174.67063 123.83211 175.91794 123.33149 C 178.21741 122.39813 179.78719 121.17635 180.62722 119.64903 C 181.46724 118.12171 181.88295 116.18676 181.88295 113.81941 L 181.88192 112.37712 L 74.944779 112.37712 C 67.706971 112.37712 61.84377 106.51392 61.84377 99.276111 C 61.84377 92.038302 67.706971 86.175102 74.944779 86.175102 L 181.86487 86.175102 L 181.84937 63.118628 C 178.82404 64.678285 175.36417 66.155578 171.61588 67.142672 C 171.81104 67.193582 172.00643 67.236372 172.19311 67.270312 L 173.70309 67.533346 L 173.71188 83.035242 L 71.058712 83.035242 C 51.161102 83.035242 35.565271 69.442134 35.565271 52.081576 C 35.565271 33.558555 49.404471 20.109884 68.479024 20.109884 C 87.901467 20.109884 95.631915 34.763439 95.95435 35.382853 L 96.539327 36.52852 L 79.35743 54.754797 L 66.17994 45.675248 L 67.791728 44.131156 C 68.27538 43.588109 68.547384 43.130126 68.683146 42.748295 C 68.980125 41.899783 68.165333 41.084991 67.316821 41.38197 C 67.053783 41.466821 66.748354 41.594157 66.42592 41.763859 C 64.516767 42.756618 62.33596 45.352982 62.488692 49.40887 C 62.802642 57.520647 67.749473 61.211768 72.212646 61.211768 C 76.149743 61.211768 77.269983 58.352484 77.38029 58.03005 L 77.804553 56.807902 L 79.102665 56.790849 L 93.162272 56.790849 L 93.162272 58.827417 L 107.29009 21.407996 L 129.47892 21.407996 L 144.52296 60.413883 C 144.53993 52.412414 144.57412 39.82092 144.57412 39.311812 C 144.57412 39.116655 144.56525 38.955398 144.54828 38.828121 C 144.51434 38.522657 144.34498 38.251099 144.09043 38.081396 C 143.78497 37.877754 143.41979 37.725097 143.23312 37.674186 L 141.92674 37.292297 L 141.90968 35.925972 L 141.90968 21.407996 L 171.31047 21.407996 C 175.72293 21.407996 178.98088 21.905848 181.83231 22.641512 L 181.83231 20.033403 C 181.83231 17.920607 181.42504 16.062154 180.61895 14.441496 C 179.80438 12.829323 178.21738 11.522866 175.85852 10.530107 C 174.36514 9.9106927 172.1592 9.2740168 169.24032 8.6206624 C 166.35537 7.9757932 163.85236 7.5262443 161.75653 7.2801758 L 161.75653 0 L 0 0 z M 235.15257 0 L 235.15257 7.2719076 C 233.04826 7.5179761 230.55373 7.967525 227.66879 8.6123942 C 224.74991 9.2657486 222.54397 9.9019077 221.05059 10.521322 C 218.69173 11.514081 217.10473 12.821054 216.29016 14.433228 C 215.48407 16.053886 215.07679 17.912339 215.07679 20.025134 L 215.07679 20.289201 C 216.1479 20.192285 217.16306 19.965706 218.27557 19.965706 C 229.04318 19.965706 237.48593 23.520564 242.85701 30.291691 C 249.26328 23.749662 258.97878 19.897493 269.33912 19.897493 C 279.36853 19.897493 288.32892 23.843357 294.30245 30.682365 L 294.30245 21.407996 L 323.94095 21.407996 L 325.24785 24.734408 L 326.2235 21.407996 L 356.84644 21.407996 L 356.84644 36.7745 L 355.81962 37.275244 C 354.36018 37.979509 354.26714 38.276341 354.45382 39.464258 L 358.28872 63.978007 C 358.39903 64.52954 358.56881 64.911112 358.83184 65.14021 C 358.95064 65.242031 359.20515 65.267551 359.29848 65.259066 L 361.2503 65.123157 L 361.30973 67.074976 L 361.30973 83.026973 L 330.08424 83.026973 L 330.08424 72.35269 L 317.9253 72.35269 L 317.9253 83.078133 L 288.35449 83.078133 L 288.35449 77.944596 C 284.46831 80.558014 277.17935 84.486316 268.49059 84.486316 C 257.22235 84.486316 248.61023 78.886119 244.24039 75.288428 L 244.24039 83.044027 L 224.0287 83.044027 C 220.87471 83.044027 217.89109 82.622106 215.00806 82.004814 L 215.00445 86.175102 L 321.93022 86.175102 C 329.16803 86.175102 335.0395 92.038302 335.0395 99.276111 C 335.0395 106.51392 329.1763 112.37712 321.93849 112.37712 L 214.97603 112.37712 L 214.97499 113.80236 C 214.97499 116.1697 215.3907 118.10465 216.23073 119.63197 C 217.07076 121.1593 218.64053 122.38107 220.94 123.31444 C 222.18732 123.81506 224.43613 124.1882 227.7029 124.43427 C 230.96967 124.68882 233.43884 124.87551 235.10193 125.01976 L 235.10193 132.29167 L 396.875 132.29167 L 396.875 0 L 235.15257 0 z M 162.6216 0.84852702 L 162.6216 6.5422363 C 164.59015 6.8052751 166.88141 7.2292536 169.44392 7.8062419 C 172.39674 8.4680813 174.67071 9.1216766 176.19803 9.7580607 C 178.73508 10.827186 180.4743 12.278031 181.38221 14.068392 L 181.38221 14.07666 C 182.23921 15.807625 182.68084 17.818569 182.68084 20.041671 L 182.68084 22.896794 C 187.73324 24.409219 190.94347 27.086245 193.65175 31.412036 C 199.18374 24.890108 206.13446 21.31097 214.22827 20.374984 L 214.22827 20.025134 C 214.22827 17.802032 214.6609 15.799057 215.52638 14.059607 C 216.4258 12.269246 218.17402 10.818401 220.71108 9.7492757 C 222.2384 9.1128916 224.51236 8.4598131 227.46519 7.7979736 C 230.03618 7.2209854 232.31844 6.7964901 234.28699 6.5334513 L 234.28699 0.84852702 L 162.6216 0.84852702 z M 269.36495 21.722188 C 259.7598 21.722188 249.24668 25.353804 242.72162 33.185571 C 238.0548 26.066554 229.87511 21.789884 218.3014 21.789884 C 207.05862 21.789884 199.1756 26.88943 193.44814 34.627861 C 189.29892 27.127013 185.62496 23.232174 171.32753 23.232174 L 143.75092 23.232174 L 143.75092 35.908919 C 143.75092 35.908919 145.05771 36.282504 145.82986 37.173442 C 146.29654 37.708004 146.3983 38.539583 146.3983 39.294759 C 146.3983 40.049935 146.33009 66.922013 146.33009 66.922013 C 145.17611 66.345025 144.031 64.181612 144.031 64.181612 L 128.23145 23.223905 L 108.55461 23.223905 L 91.346879 68.806136 L 91.346879 58.615027 L 79.102665 58.615027 C 79.102665 58.615027 77.66858 63.035946 72.212646 63.035946 C 66.323972 63.035946 60.995434 58.13169 60.664514 49.485352 C 60.384505 41.984504 66.977472 38.166157 69.336336 39.965002 C 72.348554 42.272955 69.047982 45.446322 69.047982 45.446322 L 79.102665 52.370447 L 94.324992 36.223112 C 94.324992 36.223112 87.002261 21.94233 68.470756 21.94233 C 49.082253 21.94233 37.381181 35.798927 37.381181 52.090361 C 37.381181 68.381794 52.382959 81.219849 71.058712 81.219849 L 171.89597 81.219849 L 171.89597 69.069169 C 171.89597 69.069169 168.66309 68.526116 168.66309 67.007279 C 168.66309 66.175738 169.0451 65.878353 169.80876 65.708651 C 179.6515 63.494034 187.84801 57.614126 189.70625 55.832251 C 193.62638 72.217021 207.67766 81.211064 224.03697 81.211064 L 242.42448 81.211064 L 242.42448 71.114006 C 242.42448 71.114006 252.86099 82.65387 268.49059 82.65387 C 280.70068 82.65387 290.17867 74.287455 290.17867 74.287455 L 290.17867 81.236385 L 316.10939 81.236385 L 316.10939 70.53678 L 331.90842 70.53678 L 331.90842 81.211064 L 359.48503 81.211064 L 359.49382 81.211064 L 359.49382 67.083244 C 359.49382 67.083244 358.42487 67.219285 357.62727 66.506535 C 356.94846 65.895606 356.66814 65.063963 356.50692 64.266361 L 352.6715 39.752612 C 352.32361 37.52951 353.10449 36.579466 355.04758 35.637618 L 355.04758 23.232174 L 327.61514 23.232174 L 325.52793 30.368172 L 322.72759 23.232174 L 296.15247 23.232174 L 296.15247 36.359021 C 291.05291 27.466614 281.17624 21.722188 269.36495 21.722188 z M 268.27872 27.279472 C 283.50951 27.279472 294.94737 38.013199 294.94737 51.860917 C 294.94737 65.708635 283.798 77.079016 268.27872 77.079016 C 252.76791 77.079016 241.61006 65.70015 241.61006 51.860917 C 241.61006 38.021684 253.04792 27.279472 268.27872 27.279472 z M 68.182402 27.424166 C 79.968235 27.432651 87.078406 36.460824 87.078406 36.460824 L 79.060291 44.903202 C 78.636034 45.344429 77.948474 45.386835 77.473307 45.005005 L 76.107499 43.885177 C 76.048103 43.834266 76.013965 43.749503 76.013965 43.639197 C 76.013965 43.350703 76.803064 42.629219 76.803064 41.263114 C 76.803064 39.888525 76.523269 34.195329 67.758138 34.195329 C 59.001493 34.195329 55.114982 42.417385 55.114982 49.196997 C 55.114982 55.976609 59.281189 68.381873 72.925264 68.381873 C 80.867338 68.381873 82.547416 63.909794 82.547416 63.909794 L 85.279549 63.909794 L 85.279549 75.593835 L 70.346094 75.593835 C 52.535824 75.58535 42.61652 61.593376 42.61652 51.496082 C 42.61652 36.010735 56.023222 27.424166 68.182402 27.424166 z M 220.29508 27.525968 C 232.08091 27.508998 239.1916 36.545573 239.1916 36.545573 L 231.17297 44.987952 C 230.74871 45.429178 230.06167 45.471585 229.5865 45.089754 L 228.22018 43.969926 C 228.16078 43.919015 228.12716 43.834253 228.12716 43.723946 C 228.12716 43.435452 228.91626 42.713968 228.91626 41.347864 C 228.91626 39.973274 228.63595 34.280078 219.87082 34.280078 C 211.11417 34.280078 207.22818 42.502134 207.22818 49.281746 C 207.22818 56.061359 211.39438 68.466622 225.03846 68.466622 C 232.98053 68.466622 234.66061 63.99506 234.66061 63.99506 L 237.39274 63.99506 L 237.39274 75.679102 L 222.4505 75.679102 C 204.64023 75.679102 194.72972 61.686694 194.72972 51.597884 C 194.72972 36.112537 208.1359 27.525968 220.29508 27.525968 z M 112.21176 28.705225 L 124.49783 28.705225 L 139.44058 67.940556 C 139.87333 69.018166 140.5859 70.027648 141.30714 70.901615 C 142.01989 71.767098 143.75092 72.344421 143.75092 72.344421 L 143.75092 75.729744 L 125.71997 75.729744 L 125.71997 72.26794 C 125.71997 72.26794 126.86536 72.412089 127.44235 71.40236 C 128.01934 70.392631 128.01927 69.595207 127.58653 68.585478 C 127.15379 67.575748 124.14178 59.565873 124.14178 59.565873 L 109.41141 59.565873 C 109.41141 59.565873 106.39106 67.643584 106.10257 68.364819 C 105.81407 69.086055 105.81407 70.239808 106.10257 70.961043 C 106.57773 72.157445 108.25747 72.335636 108.25747 72.335636 L 108.25747 75.721476 L 93.833032 75.721476 L 93.833032 72.335636 C 93.833032 72.335636 95.148059 71.886106 96.123848 70.893347 C 97.201459 69.807252 97.566138 68.653174 97.566138 68.653174 L 112.21176 28.705225 z M 149.487 28.705225 L 172.46441 28.705225 C 180.94104 28.705225 189.4179 31.7344 189.4179 41.543201 C 189.4179 51.352001 183.24088 54.805287 177.92919 57.257487 C 171.79445 60.091518 163.70784 62.306274 163.70784 62.306274 L 163.70784 69.79884 C 163.70784 69.79884 163.7757 70.307951 164.49694 71.173433 C 165.20969 72.038916 166.00744 72.250887 166.00744 72.250887 L 166.00744 75.712691 L 149.34231 75.712691 L 149.34231 72.327368 C 149.34231 72.327368 150.35245 72.106842 151.0652 71.394092 C 151.78643 70.672856 151.93026 69.807109 151.93026 69.807109 L 151.93026 35.917704 C 151.93026 35.917704 151.99824 34.475178 151.42125 33.898189 C 150.84426 33.321201 149.487 32.531864 149.487 32.531864 L 149.487 28.705225 z M 331.76425 28.705225 L 349.65101 28.705225 L 349.65101 31.522107 C 349.65101 31.522107 348.4632 32.022687 347.92863 32.676042 C 347.28376 33.465158 347.28364 34.050593 347.42789 35.204569 C 347.57214 36.358546 352.16241 67.65216 352.30666 68.806136 C 352.45091 69.968598 352.59539 70.613244 352.88389 71.40236 C 353.1639 72.191476 354.52978 72.844649 354.52978 72.844649 L 354.52978 75.755066 L 337.36442 75.755066 L 337.36442 72.632776 C 337.36442 72.632776 338.87505 72.41195 339.37567 71.690715 C 339.88477 70.969479 340.09662 70.536822 339.95238 69.382845 C 339.80813 68.228869 335.71853 41.975732 335.71853 41.975732 L 328.25128 65.199638 L 319.20636 65.199638 L 311.80732 43.418538 L 308.0737 69.094491 C 308.0737 69.094491 307.92976 70.630029 308.50675 71.470056 C 309.29587 72.632518 310.72987 72.632776 310.72987 72.632776 L 310.72987 75.729744 L 295.86359 75.729744 L 295.86359 72.412118 C 295.86359 72.412118 297.04295 72.225321 297.90843 71.224076 C 298.77391 70.214347 298.91819 68.916207 298.91819 68.916207 L 304.3406 35.060392 C 304.3406 35.060392 304.66287 33.796149 304.30649 33.219161 C 303.93314 32.608232 301.89682 32.099333 301.89682 32.099333 L 301.89682 28.739331 L 318.9857 28.739331 L 325.1631 47.8901 L 331.76425 28.705225 z M 268.27872 34.772038 C 262.39004 34.772038 254.49041 38.233857 254.49041 52.081576 C 254.49041 65.929294 261.52456 69.39163 268.27872 69.39163 C 275.02439 69.39163 282.2112 65.063811 282.2112 52.081576 C 282.2112 39.09934 274.16739 34.772038 268.27872 34.772038 z M 170.60509 35.340479 C 167.22907 34.943799 163.85201 35.773527 163.85201 35.773527 L 163.85201 55.823466 C 163.85201 55.823466 177.35197 50.198192 177.35197 42.264604 C 177.35621 37.360203 173.98111 35.737158 170.60509 35.340479 z M 116.45439 38.513928 L 111.85519 52.217485 L 121.33316 52.217485 L 116.45439 38.513928 z M 188.68822 58.988647 C 187.20951 60.064076 185.01069 61.355676 182.69789 62.605998 L 182.7134 86.175102 L 214.15592 86.175102 L 214.15954 81.820846 C 201.90511 78.92033 192.47916 70.699325 188.68822 58.988647 z M 193.8724 93.107495 C 191.01292 93.107495 189.25667 94.71125 189.25667 96.925867 L 189.25667 96.959456 C 189.25667 99.411656 191.2165 100.13314 193.75355 100.71013 C 195.37421 101.09196 195.76479 101.36314 195.76479 101.85528 L 195.76479 101.88939 C 195.76479 102.3985 195.28092 102.70381 194.39847 102.70381 C 193.0154 102.70381 191.70889 102.20315 190.52946 101.26979 L 188.68822 103.46759 C 190.15615 104.78278 192.16704 105.44473 194.27135 105.44473 C 197.16477 105.44473 199.09069 103.99389 199.09069 101.55866 L 199.09069 101.52455 C 199.09069 99.292965 197.38514 98.401942 194.64445 97.807983 C 192.98985 97.426153 192.58256 97.188828 192.58256 96.64578 L 192.58256 96.611674 C 192.58256 96.187418 192.98178 95.847896 193.77939 95.847896 C 194.84003 95.847896 196.02775 96.264008 197.12233 97.027669 L 198.77701 94.693962 C 197.48728 93.650292 195.90035 93.107495 193.8724 93.107495 z M 226.41305 93.107495 C 223.55357 93.107495 221.79731 94.71125 221.79731 96.925867 L 221.79731 96.959456 C 221.79731 99.411656 223.75715 100.13314 226.2942 100.71013 C 227.91486 101.09196 228.30493 101.36314 228.30493 101.85528 L 228.30493 101.88939 C 228.30493 102.3985 227.82157 102.70381 226.93912 102.70381 C 225.55604 102.70381 224.24902 102.20315 223.06959 101.26979 L 221.22836 103.46759 C 222.69628 104.78278 224.70747 105.44473 226.82026 105.44473 C 229.71369 105.44473 231.63961 103.99389 231.63961 101.55866 L 231.63961 101.52455 C 231.63961 99.292965 229.93406 98.401942 227.19337 97.807983 C 225.53877 97.426153 225.13148 97.188828 225.13148 96.64578 L 225.13148 96.611674 C 225.13148 96.187418 225.5307 95.847896 226.3283 95.847896 C 227.38894 95.847896 228.57667 96.264008 229.67125 97.027669 L 231.31715 94.693962 C 230.02741 93.650292 228.441 93.107495 226.41305 93.107495 z M 149.66477 93.226351 L 144.58239 105.24112 L 148.06125 105.24112 L 148.90977 103.11154 L 153.52551 103.11154 L 154.39109 105.24112 L 157.93816 105.24112 L 152.85527 93.226351 L 149.66477 93.226351 z M 113.34037 93.3111 L 113.34037 105.24112 L 116.64921 105.24112 L 116.64921 101.82996 L 118.28684 101.82996 C 121.25663 101.82996 123.42037 100.34526 123.42037 97.536682 L 123.42037 97.502576 C 123.42037 94.863703 121.47734 93.3111 118.46512 93.3111 L 113.34864 93.3111 L 113.34037 93.3111 z M 129.93729 93.3111 L 129.93729 105.23234 L 139.01632 105.23234 L 139.01632 102.33897 L 133.23786 102.33897 L 133.23786 93.3111 L 129.93729 93.3111 z M 161.23874 93.3111 L 165.76973 100.77783 L 165.76973 105.24112 L 169.09614 105.24112 L 169.09614 100.72719 L 173.62713 93.3111 L 169.92761 93.3111 L 167.45851 97.655538 L 165.00595 93.3111 L 161.23874 93.3111 z M 204.21596 93.3111 L 208.74695 100.77783 L 208.74695 105.24112 L 212.07336 105.24112 L 212.07336 100.72719 L 216.60435 93.3111 L 212.90483 93.3111 L 210.43522 97.655538 L 207.98317 93.3111 L 204.21596 93.3111 z M 237.35037 93.3111 L 237.35037 96.204464 L 240.92276 96.204464 L 240.92276 105.23234 L 244.2316 105.23234 L 244.2316 96.204464 L 247.81226 96.204464 L 247.81226 93.3111 L 237.35037 93.3111 z M 254.37155 93.3111 L 254.37155 105.23234 L 264.05313 105.23234 L 264.05313 102.42424 L 257.64681 102.42424 L 257.64681 100.53185 L 263.3741 100.53185 L 263.3741 97.926839 L 257.64681 97.926839 L 257.64681 96.119714 L 263.96838 96.119714 L 263.96838 93.3111 L 254.37155 93.3111 z M 270.84962 93.3111 L 270.84962 105.23234 L 274.09076 105.23234 L 274.09076 98.418799 L 277.12004 103.05211 L 277.18825 103.05211 L 280.24284 98.385209 L 280.24284 105.24112 L 283.53463 105.24112 L 283.53463 93.3111 L 280.03924 93.3111 L 277.19652 97.926839 L 274.3538 93.3111 L 270.85789 93.3111 L 270.84962 93.3111 z M 116.658 96.085608 L 118.21036 96.085608 C 119.40676 96.085608 120.1198 96.637323 120.1198 97.655538 L 120.1198 97.689128 C 120.1198 98.630976 119.40684 99.242004 118.22741 99.242004 L 116.658 99.242004 L 116.658 96.085608 z M 151.22643 97.13774 L 152.55865 100.53185 L 149.87716 100.53185 L 151.22643 97.13774 z M 182.73045 112.37712 L 182.73148 113.81114 C 182.73148 116.33971 182.29034 118.38437 181.37394 120.04745 C 180.44058 121.73599 178.71806 123.09381 176.24041 124.10354 C 174.89127 124.64658 172.60034 125.02824 169.22326 125.28279 C 166.43166 125.50341 164.25088 125.66453 162.59628 125.79181 L 162.59628 131.42609 L 234.26167 131.42609 L 234.26167 125.79181 C 232.60707 125.66453 230.42651 125.50341 227.62642 125.28279 C 224.25782 125.02824 221.95819 124.6381 220.61754 124.10354 C 218.13989 123.09381 216.40888 121.72772 215.484 120.03918 C 214.56761 118.3761 214.12646 116.33092 214.12646 113.80236 L 214.1275 112.37712 L 182.73045 112.37712 z " /><g
       id="g341"
       transform="matrix(0.0848513,0,0,0.0848513,35.56543,2.4183333e-6)"
       style="stroke-width:3.1182">
	<g
   id="g315"
   style="stroke-width:3.1182">
		
		
		
	</g>
	<g
   id="g323"
   style="stroke-width:3.1182">
		
		
		
	</g>
	<g
   id="g339"
   style="stroke-width:3.1182">
		
		
		
		
		
		
		
	</g>
</g></g><style
     type="text/css"
     id="style307">
	.st0{fill-rule:evenodd;clip-rule:evenodd;fill:#FFFFFF;}
	.st1{fill:#FFFFFF;}
	.st2{fill-rule:evenodd;clip-rule:evenodd;}
</style></svg>
