<?xml version="1.0" encoding="UTF-8" standalone="no"?>
<!-- Created with Inkscape (http://www.inkscape.org/) -->

<svg
   width="1500"
   height="500"
   viewBox="0 0 396.87498 132.29167"
   version="1.1"
   id="svg5"
   inkscape:version="1.2.2 (732a01da63, 2022-12-09)"
   xml:space="preserve"
   sodipodi:docname="cps2.svg"
   xmlns:inkscape="http://www.inkscape.org/namespaces/inkscape"
   xmlns:sodipodi="http://sodipodi.sourceforge.net/DTD/sodipodi-0.dtd"
   xmlns="http://www.w3.org/2000/svg"
   xmlns:svg="http://www.w3.org/2000/svg"><sodipodi:namedview
     id="namedview7"
     pagecolor="#000000"
     bordercolor="#111111"
     borderopacity="1"
     inkscape:showpageshadow="0"
     inkscape:pageopacity="0"
     inkscape:pagecheckerboard="1"
     inkscape:deskcolor="#d1d1d1"
     inkscape:document-units="mm"
     showgrid="false"
     inkscape:zoom="0.62760417"
     inkscape:cx="954.42323"
     inkscape:cy="278.83817"
     inkscape:window-width="1920"
     inkscape:window-height="1009"
     inkscape:window-x="-8"
     inkscape:window-y="-8"
     inkscape:window-maximized="1"
     inkscape:current-layer="layer1" /><defs
     id="defs2">
		
		
		
		
		
		
		
	
		
		
		
	
		
		
		
		
		
	</defs><g
     inkscape:label="Layer 1"
     inkscape:groupmode="layer"
     id="layer1"><path
       id="rect231"
       style="fill:#ffffff;stroke-width:0.8001;stroke-linecap:square;paint-order:fill markers stroke"
       d="M 0 0 L 0 132.29167 L 125.06162 132.29167 L 125.06162 125.01924 C 126.74177 124.89195 129.21124 124.70537 132.47822 124.4508 C 135.7452 124.20472 137.99424 123.83163 139.24163 123.33097 C 141.54125 122.39756 143.11082 121.17542 143.9509 119.64799 C 144.79099 118.12058 145.20664 116.18588 145.20664 113.81838 L 145.20509 112.39262 L 74.937028 112.39262 C 67.698755 112.39262 61.834985 106.52937 61.834985 99.291097 C 61.834985 92.052824 67.698755 86.189054 74.937028 86.189054 L 145.19165 86.189054 L 145.1901 83.032141 L 71.050444 83.032141 C 51.15156 83.032141 35.554936 69.438075 35.554936 52.076408 C 35.554936 33.552195 49.394981 20.111126 68.470756 20.102649 C 87.894445 20.102649 95.62517 34.757201 95.947632 35.376652 L 96.533126 36.522319 L 79.349679 54.74963 L 66.171155 45.670081 L 67.783459 44.125472 C 68.267152 43.582398 68.538593 43.124464 68.674361 42.742611 C 68.971361 41.894039 68.157125 41.079286 67.308553 41.376286 C 67.045503 41.46114 66.739586 41.588467 66.417135 41.758175 C 64.507857 42.751002 62.327164 45.347549 62.479907 49.403703 C 62.793871 57.516 67.740919 61.207117 72.204378 61.207117 C 76.141728 61.207117 77.262222 58.347334 77.372538 58.024882 L 77.796802 56.803251 L 79.094914 56.786198 L 93.155554 56.786198 L 93.155554 58.822766 L 107.28441 21.400761 L 129.48305 21.400761 L 144.52813 60.409749 C 144.5451 52.407769 144.57877 39.814746 144.57877 39.305611 C 144.57877 39.110441 144.57042 38.949201 144.55345 38.82192 C 144.5195 38.516433 144.34965 38.244903 144.09508 38.075195 C 143.78959 37.871537 143.42497 37.7189 143.23829 37.667985 L 141.93139 37.286096 L 141.91434 35.919771 L 141.91434 21.400761 L 145.14721 21.400761 L 145.14721 20.034436 C 145.14721 17.92151 144.73999 16.063285 143.93385 14.442529 C 143.11923 12.830251 141.53244 11.523451 139.17342 10.530623 C 137.67994 9.9111723 135.47377 9.2750969 132.5547 8.621696 C 129.66957 7.9767928 127.16636 7.5267776 125.0704 7.2806925 L 125.0704 0 L 0 0 z M 271.8387 0 L 271.8387 7.2806925 C 269.73426 7.5267776 267.23953 7.9767928 264.35441 8.621696 C 261.43534 9.2750969 259.22865 9.9111723 257.73517 10.530623 C 255.37616 11.523451 253.78936 12.830251 252.97474 14.442529 C 252.16861 16.063285 251.76138 17.92151 251.76138 20.034436 L 251.76138 24.102922 C 257.01073 21.480352 263.00703 19.890259 269.35203 19.890259 C 279.38209 19.890259 288.34301 23.836202 294.31692 30.675647 L 294.31692 21.400761 L 323.95749 21.400761 L 325.26438 24.727173 L 326.24003 21.400761 L 356.86504 21.400761 L 356.86504 36.768298 L 355.83823 37.269043 C 354.37869 37.973348 354.28522 38.270586 354.4719 39.458573 L 358.29906 63.982141 C 358.40938 64.533713 358.57913 64.915224 358.84218 65.144344 C 358.96098 65.246163 359.21548 65.271677 359.30882 65.2632 L 361.26064 65.127808 L 361.32006 67.070841 L 361.32006 83.032141 L 330.09251 83.032141 L 330.09251 72.35734 L 317.93253 72.35734 L 317.93253 83.074516 L 288.36018 83.074516 L 288.36018 77.940979 C 284.47374 80.554562 277.18456 84.483215 268.49524 84.483215 C 261.78447 84.483215 256.17623 82.456253 251.68438 80.089685 L 251.67973 86.189054 L 321.93797 86.189054 C 329.17625 86.189054 335.03981 92.052824 335.04828 99.291097 C 335.04828 106.52937 329.18451 112.39262 321.94624 112.39262 L 251.66061 112.39262 L 251.65957 113.81011 C 251.65957 116.17762 252.07524 118.11231 252.91531 119.63973 C 253.7554 121.16715 255.32549 122.38876 257.6251 123.32219 C 258.8725 123.82284 261.12101 124.19645 264.388 124.44253 C 267.65498 124.6971 270.12465 124.88346 271.79633 125.01924 L 271.79633 132.29167 L 396.875 132.29167 L 396.875 0 L 271.8387 0 z M 125.93598 0.84852702 L 125.93598 6.5510213 C 127.90466 6.8140813 130.19563 7.2385196 132.7583 7.8155436 C 135.71131 8.4774217 137.98552 9.1304197 139.51293 9.7668457 C 142.05015 10.83604 143.78965 12.28722 144.69763 14.077694 C 145.55468 15.808766 145.99626 17.819979 145.99626 20.043221 L 145.99626 21.400761 L 171.31719 21.400761 C 173.74664 21.400761 175.64571 21.62269 177.56281 21.842078 L 177.56281 20.043221 C 177.56281 17.819979 177.99538 15.817253 178.86092 14.077694 L 178.86092 14.069425 C 179.7604 12.278951 181.50841 10.827772 184.04561 9.7585775 C 185.57304 9.1221514 187.84723 8.4686471 190.80024 7.8067586 L 190.88551 7.7897054 C 193.36332 7.2381334 195.91712 6.9582316 198.46282 6.9582316 C 201.00852 6.9582316 203.55435 7.2381334 206.04065 7.7897054 L 206.1254 7.8067586 C 209.07841 8.4686471 211.3526 9.1221514 212.88003 9.7585775 C 215.41725 10.827772 217.15676 12.278951 218.06473 14.069425 C 218.92177 15.800508 219.36335 17.811194 219.36335 20.034436 L 219.36439 20.052006 C 229.5924 20.294158 237.6869 23.753385 242.86838 30.28549 C 245.13844 27.967327 247.93035 26.129052 250.91285 24.538037 L 250.91285 20.034436 C 250.91285 17.811194 251.34543 15.808985 252.21096 14.069425 L 252.21096 14.06064 C 253.11044 12.270166 254.85896 10.818987 257.39618 9.7497925 C 258.9236 9.1133665 261.19779 8.4603788 264.1508 7.7984904 C 266.72196 7.2214663 269.00444 6.797028 270.97312 6.5339681 L 270.97312 0.84852702 L 125.93598 0.84852702 z M 198.48866 7.7984904 C 196.00236 7.7984904 193.5245 8.0698265 191.08911 8.612911 C 191.06366 8.612911 191.02931 8.6214871 191.00385 8.6299642 C 188.08478 9.2833652 185.8786 9.9199573 184.38513 10.539408 C 182.02611 11.532226 180.43932 12.839046 179.62469 14.451314 C 178.81855 16.07208 178.41133 17.930295 178.41133 20.043221 L 178.41133 21.902022 C 186.27538 22.961402 190.25347 25.964223 193.66001 31.405318 C 200.10912 23.802166 208.38261 19.958472 218.28538 19.958472 C 218.38204 19.958472 218.46299 19.98167 218.55927 19.982243 C 218.55102 17.896082 218.15 16.055502 217.35211 14.451314 C 216.53748 12.839046 214.95069 11.532226 212.59167 10.539408 C 211.09819 9.9199573 208.89203 9.2833652 205.97296 8.6299642 C 205.94751 8.6299642 205.91314 8.6213881 205.88769 8.612911 C 203.4523 8.0698265 200.96647 7.7984904 198.48866 7.7984904 z M 269.36909 21.714954 C 259.76331 21.714954 249.24968 25.346581 242.7242 33.178853 C 238.05709 26.059373 229.87689 21.78265 218.30244 21.78265 C 207.05893 21.78265 199.17596 26.882728 193.44814 34.621659 C 189.29865 27.120326 185.62433 23.225456 171.32598 23.225456 L 143.7473 23.225456 L 143.7473 35.902718 C 143.7473 35.902718 145.05405 36.276242 145.82624 37.16724 C 146.29296 37.701837 146.39468 38.533328 146.39468 39.288558 C 146.39468 40.043778 146.32699 66.917879 146.32699 66.917879 C 145.17294 66.340855 144.02738 64.176961 144.02738 64.176961 L 128.2268 23.216671 L 108.54893 23.216671 L 91.339644 68.802002 L 91.339644 58.610376 L 79.094914 58.610376 C 79.094914 58.610376 77.660665 63.031812 72.204378 63.031812 C 66.315334 63.031812 60.986668 58.127078 60.655729 49.480184 C 60.375705 41.978861 66.969047 38.15984 69.328068 39.958801 C 72.34048 42.266908 69.039197 45.440637 69.039197 45.440637 L 79.094914 52.365279 L 94.318274 36.216911 C 94.318274 36.216911 86.995188 21.935612 68.462488 21.935612 C 49.072749 21.935612 37.370846 35.79272 37.370846 52.085193 C 37.370846 68.377676 52.373497 81.216231 71.050444 81.216231 L 171.89442 81.216231 L 171.89442 69.065035 C 171.89442 69.065035 168.66102 68.522082 168.66102 67.003145 C 168.66102 66.171549 169.04297 65.874225 169.80669 65.704517 C 179.65006 63.489762 187.84737 57.60908 189.70573 55.827083 C 193.62611 72.212908 207.67816 81.207963 224.03852 81.207963 L 242.42706 81.207963 L 242.42706 71.109871 C 242.42706 71.109871 252.86463 82.650252 268.49524 82.650252 C 280.70611 82.650252 290.18435 74.283838 290.18435 74.283838 L 290.18435 81.233285 L 316.11662 81.233285 L 316.11662 70.533162 L 331.91721 70.533162 L 331.91721 81.216231 L 359.49537 81.216231 L 359.50415 81.216231 L 359.50415 67.07911 C 359.50415 67.07911 358.43474 67.215193 357.63708 66.502401 C 356.95823 65.891427 356.67849 65.059874 356.51726 64.262227 L 352.68183 39.746928 C 352.33392 37.523686 353.11418 36.57333 355.0574 35.631417 L 355.0574 23.225456 L 327.62341 23.225456 L 325.53569 30.361971 L 322.73586 23.225456 L 296.15867 23.225456 L 296.15867 36.35282 C 291.05878 27.459841 281.18113 21.714954 269.36909 21.714954 z M 268.28285 27.281539 C 283.51462 27.281539 294.95357 38.015926 294.95357 51.864535 C 294.95357 65.713143 283.80313 77.083667 268.28285 77.083667 C 252.77105 77.083667 241.61264 65.704655 241.61264 51.864535 C 241.61264 38.024414 253.05108 27.281539 268.28285 27.281539 z M 68.174133 27.425716 C 79.96073 27.425716 87.071688 36.462891 87.071688 36.462891 L 79.052539 44.906303 C 78.628258 45.347558 77.940751 45.389959 77.465556 45.008105 L 76.099748 43.88776 C 76.040346 43.836846 76.006213 43.752097 76.006213 43.641781 C 76.006213 43.353269 76.795312 42.631892 76.795312 41.265698 C 76.795312 39.891028 76.515568 34.197396 67.74987 34.197396 C 58.992659 34.197396 55.106197 42.420044 55.106197 49.200098 C 55.106197 55.980141 59.272563 68.386007 72.917513 68.386007 C 80.860092 68.386007 82.540181 63.913928 82.540181 63.913928 L 85.272314 63.913928 L 85.272314 75.599003 L 70.337826 75.599003 C 52.526415 75.582038 42.606702 61.597651 42.606702 51.499699 C 42.606702 36.01336 56.01418 27.425716 68.174133 27.425716 z M 220.29663 27.527519 C 232.08322 27.510544 239.19419 36.54764 239.19419 36.54764 L 231.17504 44.991052 C 230.75076 45.432297 230.06377 45.474719 229.58857 45.092855 L 228.22225 43.973027 C 228.16284 43.922122 228.12871 43.836836 228.12871 43.72653 C 228.12871 43.438008 228.91781 42.716641 228.91781 41.350448 C 228.91781 39.975777 228.63806 34.282145 219.87237 34.282145 C 211.11516 34.282145 207.22869 42.504804 207.22869 49.284847 C 207.22869 56.06489 211.39506 68.470756 225.04001 68.470756 C 232.9826 68.470756 234.66268 63.999194 234.66268 63.999194 L 237.39533 63.999194 L 237.39533 75.683752 L 222.45205 75.683752 C 204.64063 75.683752 194.7292 61.690966 194.7292 51.601501 C 194.7292 36.115162 208.13667 27.527519 220.29663 27.527519 z M 112.20607 28.707292 L 124.49318 28.707292 L 139.43645 67.94469 C 139.86922 69.022371 140.58223 70.032243 141.30352 70.906266 C 142.01631 71.771802 143.7473 72.349072 143.7473 72.349072 L 143.7473 75.734395 L 125.71532 75.734395 L 125.71532 72.272591 C 125.71532 72.272591 126.86068 72.416803 127.4377 71.407011 C 128.01472 70.397208 128.01464 69.599404 127.58188 68.589612 C 127.14911 67.579809 124.13713 59.569491 124.13713 59.569491 L 109.40573 59.569491 C 109.40573 59.569491 106.38488 67.647673 106.09637 68.368953 C 105.80785 69.090234 105.80785 70.244414 106.09637 70.965694 C 106.57156 72.162169 108.25179 72.340287 108.25179 72.340287 L 108.25179 75.726127 L 93.826314 75.726127 L 93.826314 72.340287 C 93.826314 72.340287 95.141278 71.890826 96.117131 70.897998 C 97.194812 69.811829 97.559937 68.657825 97.559937 68.657825 L 112.20607 28.707292 z M 149.48338 28.707292 L 172.46286 28.707292 C 180.94003 28.707292 189.41738 31.736355 189.41738 41.545785 C 189.41738 51.355214 183.23967 54.808742 177.92764 57.261104 C 171.79251 60.09531 163.70577 62.310409 163.70577 62.310409 L 163.70577 69.802974 C 163.70577 69.802974 163.77359 70.312548 164.49487 71.178084 C 165.20766 72.04362 166.00537 72.255538 166.00537 72.255538 L 166.00537 75.717859 L 149.3392 75.717859 L 149.3392 72.332019 C 149.3392 72.332019 150.34929 72.111019 151.0621 71.398226 C 151.78338 70.676946 151.92768 69.811759 151.92768 69.811759 L 151.92768 35.919771 C 151.92768 35.919771 151.99517 34.47728 151.41815 33.900256 C 150.84112 33.323232 149.48338 32.533931 149.48338 32.533931 L 149.48338 28.707292 z M 331.77303 28.707292 L 349.66083 28.707292 L 349.66083 31.524174 C 349.66083 31.524174 348.47253 32.024708 347.93794 32.678109 C 347.29302 33.467278 347.29345 34.053105 347.43771 35.207153 C 347.58196 36.361201 352.17222 67.656222 352.31648 68.81027 C 352.46074 69.972806 352.60519 70.617841 352.89371 71.407011 C 353.17373 72.19617 354.54012 72.8493 354.54012 72.8493 L 354.54012 75.760234 L 337.37321 75.760234 L 337.37321 72.637427 C 337.37321 72.637427 338.88379 72.416645 339.38445 71.695365 C 339.89359 70.974075 340.10593 70.541544 339.96168 69.387496 C 339.81742 68.233448 335.72731 41.978833 335.72731 41.978833 L 328.26007 65.203772 L 319.21411 65.203772 L 311.81456 43.421122 L 308.08094 69.098625 C 308.08094 69.098625 307.93643 70.634623 308.51347 71.474707 C 309.30263 72.637243 310.73711 72.637427 310.73711 72.637427 L 310.73711 75.734395 L 295.8698 75.734395 L 295.8698 72.416768 C 295.8698 72.416768 297.04961 72.230042 297.91515 71.228727 C 298.78069 70.218935 298.92491 68.920858 298.92491 68.920858 L 304.34731 35.062976 C 304.34731 35.062976 304.66961 33.798252 304.31321 33.221228 C 303.93984 32.610254 301.90354 32.1014 301.90354 32.1014 L 301.90354 28.740881 L 318.99345 28.740881 L 325.17085 47.893201 L 331.77303 28.707292 z M 268.28285 34.765837 C 262.39379 34.765837 254.49403 38.227799 254.49403 52.076408 C 254.49403 65.925006 261.52826 69.387496 268.28285 69.387496 C 275.02895 69.387496 282.21637 65.05947 282.21637 52.076408 C 282.21637 39.093336 274.1719 34.765837 268.28285 34.765837 z M 170.60354 35.343062 C 167.22731 34.946356 163.84995 35.775594 163.84995 35.775594 L 163.84995 55.827083 C 163.84995 55.827083 177.35042 50.201279 177.35042 42.267187 C 177.35465 37.362473 173.97977 35.739769 170.60354 35.343062 z M 116.44871 38.516512 L 111.8495 52.221102 L 121.32799 52.221102 L 116.44871 38.516512 z M 188.68771 58.983997 C 186.31506 60.709558 182.61535 62.90133 178.32607 64.747986 L 178.3116 86.189054 L 218.56082 86.189054 L 218.55772 82.661621 C 204.15209 80.871152 192.92364 72.069338 188.68771 58.983997 z M 177.47754 65.128841 C 175.60739 65.894913 173.66 66.599822 171.61433 67.138538 C 171.8095 67.189452 172.00486 67.232239 172.19156 67.266178 L 173.70154 67.529211 L 173.71033 83.032141 L 146.03915 83.032141 L 146.0407 86.189054 L 177.46307 86.189054 L 177.47754 65.128841 z M 244.24297 75.28481 L 244.24297 83.040926 L 224.03025 83.040926 C 222.44611 83.040926 220.92581 82.879445 219.40573 82.720532 L 219.40573 86.189054 L 250.8312 86.189054 L 250.83585 79.627181 C 248.17891 78.147082 245.84181 76.601135 244.24297 75.28481 z M 193.86362 93.121965 C 191.00395 93.121965 189.24736 94.725571 189.24736 96.940336 L 189.24736 96.974443 C 189.24736 99.426805 191.20755 100.14809 193.74476 100.72512 C 195.36552 101.10697 195.75601 101.3781 195.75601 101.87027 L 195.75601 101.90437 C 195.75601 102.41351 195.27219 102.71931 194.38969 102.71931 C 193.00652 102.71931 191.69966 102.2182 190.52015 101.28477 L 188.67892 103.48257 C 190.14695 104.78936 192.15811 105.45971 194.26256 105.45971 C 197.15618 105.45971 199.08242 104.00903 199.08242 101.57365 L 199.08242 101.53954 C 199.08242 99.307809 197.37654 98.416958 194.63566 97.82297 C 192.98097 97.441116 192.57378 97.203324 192.57378 96.66025 L 192.57378 96.626143 C 192.57378 96.201863 192.97295 95.862882 193.7706 95.862882 C 194.83131 95.862882 196.0189 96.278421 197.11355 97.042139 L 198.76823 94.708431 C 197.47841 93.664689 195.8917 93.121965 193.86362 93.121965 z M 226.4146 93.121965 C 223.55494 93.121965 221.79835 94.725571 221.79835 96.940336 L 221.79835 96.974443 C 221.79835 99.426805 223.75853 100.14809 226.29575 100.72512 C 227.9165 101.10697 228.30699 101.3781 228.30699 101.87027 L 228.30699 101.90437 C 228.30699 102.41351 227.82318 102.71931 226.94067 102.71931 C 225.55751 102.71931 224.25117 102.2182 223.07166 101.28477 L 221.22991 103.48257 C 222.69793 104.78936 224.7091 105.45971 226.81355 105.45971 C 229.70715 105.45971 231.63341 104.00903 231.63341 101.57365 L 231.63341 101.53954 C 231.63341 99.307809 229.92804 98.416958 227.18717 97.82297 C 225.53246 97.441116 225.12476 97.203324 225.12476 96.66025 L 225.12476 96.626143 C 225.12476 96.201863 225.52393 95.862882 226.32159 95.862882 C 227.38229 95.862882 228.56989 96.278421 229.66453 97.042139 L 231.31973 94.708431 C 230.02991 93.664689 228.44268 93.121965 226.4146 93.121965 z M 149.66167 93.232035 L 144.57877 105.24784 L 148.05815 105.24784 L 148.90667 103.11774 L 153.52293 103.11774 L 154.38851 105.24784 L 157.93558 105.24784 L 152.85269 93.232035 L 149.66167 93.232035 z M 129.93264 93.316785 L 129.93264 105.23957 L 139.01219 105.23957 L 139.01219 102.34569 L 133.23373 102.34569 L 133.23373 93.316785 L 129.93264 93.316785 z M 161.22788 93.316785 L 165.75939 100.78455 L 165.75939 105.24784 L 169.0858 105.24784 L 169.0858 100.73339 L 173.61679 93.316785 L 169.91728 93.316785 L 167.44766 97.661739 L 164.99561 93.316785 L 161.22788 93.316785 z M 204.20769 93.316785 L 208.7392 100.78455 L 208.7392 105.24784 L 212.06561 105.24784 L 212.06561 100.73339 L 216.5966 93.316785 L 212.89708 93.316785 L 210.42798 97.661739 L 207.97542 93.316785 L 204.20769 93.316785 z M 254.37517 93.316785 L 254.37517 105.23957 L 264.05727 105.23957 L 264.05727 102.43044 L 257.65042 102.43044 L 257.65042 100.53805 L 263.37824 100.53805 L 263.37824 97.93304 L 257.65042 97.93304 L 257.65042 96.125916 L 263.97252 96.125916 L 263.97252 93.316785 L 254.37517 93.316785 z M 270.846 93.316785 L 270.846 105.24784 L 274.08715 105.24784 L 274.08715 98.433785 L 277.11642 103.06709 L 277.18463 103.06709 L 280.23923 98.399679 L 280.23923 105.24784 L 283.53205 105.24784 L 283.53205 93.316785 L 280.03562 93.316785 L 277.1929 97.93304 L 274.35018 93.316785 L 270.85427 93.316785 L 270.846 93.316785 z M 113.32642 93.32557 L 113.32642 105.25611 L 116.63577 105.25611 L 116.63577 101.84495 L 118.2734 101.84495 C 121.24339 101.84495 123.40694 100.35991 123.40694 97.551152 L 123.40694 97.517562 C 123.40694 94.878516 121.4641 93.32557 118.45168 93.32557 L 113.33468 93.32557 L 113.32642 93.32557 z M 237.34417 93.32557 L 237.34417 96.218933 L 240.91656 96.218933 L 240.91656 105.24784 L 244.22644 105.24784 L 244.22644 96.218933 L 247.8071 96.218933 L 247.8071 93.32557 L 237.34417 93.32557 z M 116.64404 96.091809 L 118.19692 96.091809 C 119.39341 96.091809 120.10636 96.64346 120.10636 97.661739 L 120.10636 97.695329 C 120.10636 98.637242 119.39348 99.248206 118.21397 99.248206 L 116.64404 99.248206 L 116.64404 96.091809 z M 151.22333 97.152726 L 152.55555 100.54683 L 149.87406 100.54683 L 151.22333 97.152726 z M 146.05362 112.39262 L 146.05568 113.81838 C 146.05568 116.3471 145.61408 118.39201 144.69763 120.0552 C 143.7642 121.74385 142.04191 123.1015 139.56409 124.11129 C 138.21487 124.65437 135.92372 125.03649 132.54643 125.29106 C 129.75464 125.51168 127.57363 125.67278 125.91893 125.80007 L 125.91893 131.43487 L 270.9478 131.43487 L 270.9478 125.80007 C 269.2931 125.67278 267.1123 125.51168 264.31203 125.29106 C 260.94322 125.03649 258.64337 124.64588 257.30264 124.11129 C 254.82483 123.1015 253.09353 121.73558 252.16859 120.04694 C 251.25214 118.38374 250.81105 116.33884 250.81105 113.81011 L 250.81208 112.39262 L 219.40573 112.39262 L 219.40573 113.81838 C 219.40573 116.3471 218.96412 118.39201 218.04767 120.0552 C 217.11426 121.74385 215.39195 123.1015 212.91414 124.11129 C 211.56492 124.65437 209.27377 125.03649 205.89648 125.29106 L 205.87115 125.29106 L 205.80294 125.29933 C 203.35908 125.4945 200.8728 125.5882 198.42045 125.5882 C 195.96808 125.5882 193.48182 125.48601 191.03795 125.29933 L 190.97852 125.29106 L 190.94442 125.29106 C 187.57561 125.03649 185.27627 124.64588 183.93554 124.11129 C 181.45773 123.1015 179.72643 121.73558 178.80149 120.04694 C 177.88504 118.38374 177.44395 116.33884 177.44395 113.81011 L 177.44498 112.39262 L 146.05362 112.39262 z M 178.29351 112.39262 L 178.29248 113.81011 C 178.29248 116.17762 178.70813 118.11231 179.54821 119.63973 C 180.3883 121.16715 181.95838 122.38876 184.258 123.32219 C 185.50539 123.82284 187.75391 124.19645 191.0209 124.44253 C 191.05484 124.44253 191.08875 124.4508 191.1227 124.4508 C 193.55809 124.64597 195.99362 124.73967 198.4375 124.73967 C 200.87289 124.73967 203.31691 124.63748 205.7523 124.4508 C 205.78624 124.4508 205.82016 124.44253 205.8541 124.44253 C 209.12109 124.19645 211.36961 123.82284 212.617 123.32219 C 214.91662 122.38876 216.48671 121.16715 217.32679 119.63973 C 218.16687 118.11231 218.58252 116.17762 218.58252 113.81011 L 218.58149 112.39262 L 178.29351 112.39262 z " /><g
       id="g442"
       transform="matrix(0.10337979,0,0,0.10337979,-232.5079,-101.14081)"
       style="stroke-width:2.55933">
	
	
	
</g></g><style
     type="text/css"
     id="style307">
	.st0{fill-rule:evenodd;clip-rule:evenodd;fill:#FFFFFF;}
	.st1{fill:#FFFFFF;}
	.st2{fill-rule:evenodd;clip-rule:evenodd;}
</style><style
     type="text/css"
     id="style404">
	.st0{fill-rule:evenodd;clip-rule:evenodd;fill:#FFFFFF;}
	.st1{fill:#FFFFFF;}
	.st2{fill-rule:evenodd;clip-rule:evenodd;}
</style></svg>
