<?xml version="1.0" encoding="UTF-8" standalone="no"?>
<!-- Created with Inkscape (http://www.inkscape.org/) -->

<svg
   width="1500"
   height="500"
   viewBox="0 0 396.87498 132.29167"
   version="1.1"
   id="svg5"
   inkscape:version="1.2.2 (732a01da63, 2022-12-09)"
   xml:space="preserve"
   sodipodi:docname="cps3.svg"
   xmlns:inkscape="http://www.inkscape.org/namespaces/inkscape"
   xmlns:sodipodi="http://sodipodi.sourceforge.net/DTD/sodipodi-0.dtd"
   xmlns="http://www.w3.org/2000/svg"
   xmlns:svg="http://www.w3.org/2000/svg"><sodipodi:namedview
     id="namedview7"
     pagecolor="#000000"
     bordercolor="#111111"
     borderopacity="1"
     inkscape:showpageshadow="0"
     inkscape:pageopacity="0"
     inkscape:pagecheckerboard="1"
     inkscape:deskcolor="#d1d1d1"
     inkscape:document-units="mm"
     showgrid="false"
     inkscape:zoom="0.62760417"
     inkscape:cx="954.42323"
     inkscape:cy="278.83817"
     inkscape:window-width="1920"
     inkscape:window-height="1009"
     inkscape:window-x="-8"
     inkscape:window-y="-8"
     inkscape:window-maximized="1"
     inkscape:current-layer="layer1" /><defs
     id="defs2">
		
	
		
		
		
	
		
		
		
		
		
		
		
		
		
		
	
			
			
			
			
			
			
			
		</defs><g
     inkscape:label="Layer 1"
     inkscape:groupmode="layer"
     id="layer1"><path
       id="rect231"
       style="fill:#ffffff;stroke-width:0.8001;stroke-linecap:square;paint-order:fill markers stroke"
       d="M 0 0 L 0 132.29167 L 89.644657 132.29167 L 89.644657 125.01873 C 91.324919 124.89143 93.794572 124.70487 97.061776 124.45028 C 100.32895 124.20419 102.5777 123.83114 103.82519 123.33046 C 106.12494 122.39697 107.69485 121.17448 108.53498 119.64696 C 109.37511 118.11944 109.79071 116.185 109.79071 113.81734 L 109.78968 112.39986 L 76.193799 112.39986 C 68.955071 112.39986 63.091239 106.53603 63.091239 99.297298 C 63.091239 92.05856 68.955071 86.194739 76.193799 86.194739 L 109.76849 86.194739 L 109.76591 83.037826 L 72.307214 83.037826 C 52.407049 83.037826 36.809639 69.442813 36.809639 52.080025 C 36.809639 33.554628 50.650532 20.112176 69.727527 20.103682 C 89.152475 20.103682 96.883479 34.759754 97.205953 35.379236 L 97.791447 36.524902 L 80.606966 54.753247 L 67.427926 45.672664 L 69.04023 44.128573 C 69.523941 43.585455 69.795348 43.127073 69.931132 42.745194 C 70.228153 41.896571 69.413431 41.081851 68.564807 41.37887 C 68.301732 41.463729 67.996379 41.591036 67.673905 41.760758 C 65.764515 42.753646 63.583417 45.350396 63.736161 49.406803 C 64.050168 57.519621 68.997938 61.211251 73.461666 61.211251 C 77.39927 61.211251 78.519004 58.350973 78.629309 58.028499 L 79.054089 56.806868 L 80.352201 56.789815 L 94.413875 56.789815 L 94.413875 58.826383 L 108.54325 21.402311 L 109.72302 21.402311 L 109.72302 20.035986 C 109.72302 17.92292 109.31584 16.06443 108.50966 14.443563 C 107.69498 12.831183 106.10786 11.524542 103.74871 10.531657 C 102.25513 9.9121621 100.04872 9.2756509 97.129472 8.6222127 C 94.244167 7.9772598 91.740764 7.5273112 89.644657 7.2812093 L 89.644657 0 L 0 0 z M 309.8028 0 L 309.8028 7.2812093 C 307.69822 7.5273086 305.20329 7.9772624 302.31798 8.6222127 C 299.3987 9.2756509 297.19232 9.9121648 295.69875 10.531657 C 293.33957 11.524545 291.75245 12.831183 290.9378 14.443563 C 290.13159 16.064428 289.72443 17.92292 289.72443 20.035986 L 289.7172 25.552962 C 291.88284 27.015969 293.87069 28.711401 295.58816 30.677714 L 295.58816 21.402311 L 325.23079 21.402311 L 326.53769 24.728723 L 327.51334 21.402311 L 358.14041 21.402311 L 358.14041 36.770882 L 357.11309 37.271627 C 355.65346 37.975984 355.56059 38.273087 355.74728 39.461157 L 359.57443 63.986275 C 359.68474 64.537878 359.85448 64.919349 360.11755 65.148478 C 360.23635 65.250324 360.49085 65.275827 360.58419 65.267334 L 362.53601 65.131942 L 362.59544 67.074976 L 362.59544 83.037826 L 331.36634 83.037826 L 331.36634 72.361991 L 319.20532 72.361991 L 319.20532 83.0802 L 289.63503 83.0802 L 289.63297 86.194739 L 323.21076 86.194739 C 330.44949 86.194739 336.31364 92.05856 336.32211 99.297298 C 336.32211 106.53603 330.45828 112.39986 323.21955 112.39986 L 289.61488 112.39986 L 289.61385 113.81734 C 289.61385 116.185 290.02994 118.11944 290.8701 119.64696 C 291.71023 121.17448 293.28013 122.39697 295.57989 123.33046 C 296.82737 123.83114 299.0761 124.20419 302.3433 124.45028 C 305.61048 124.70487 308.07996 124.89143 309.76869 125.01873 L 309.76869 132.29167 L 396.875 132.29167 L 396.875 0 L 309.8028 0 z M 90.510238 0.84852702 L 90.510238 6.5427531 C 92.479027 6.8058254 94.770246 7.2302144 97.333077 7.8072754 C 100.28627 8.4692014 102.5607 9.1226291 104.08822 9.7590942 C 106.6256 10.828356 108.36541 12.279353 109.27343 14.069942 C 110.13052 15.80113 110.57155 17.8126 110.57155 20.035986 L 110.57155 21.402311 L 130.74344 21.402311 L 142.10812 50.86873 L 142.13189 20.035986 C 142.13189 17.8126 142.56494 15.809616 143.43052 14.069942 C 144.33008 12.279353 146.07836 10.828356 148.61573 9.7590942 C 150.14325 9.1226291 152.41716 8.4692014 155.37036 7.8072754 L 155.43857 7.7902222 L 155.4639 7.7819539 C 157.94187 7.2303512 160.49637 6.9504801 163.04224 6.9504801 C 165.58812 6.9504801 168.1336 7.2303512 170.62008 7.7819539 L 170.70534 7.7990072 C 173.65854 8.4609305 175.93245 9.1143582 177.45997 9.750826 C 179.99735 10.820088 181.73716 12.271082 182.64518 14.061674 C 183.5023 15.79286 183.94381 17.804331 183.94381 20.027718 L 183.94381 22.678202 C 189.14025 24.172841 192.17428 27.01453 194.92454 31.407385 C 200.4748 24.863932 207.38414 21.122997 215.51243 20.201868 L 215.51243 20.035986 C 215.51243 17.8126 215.94545 15.809616 216.81106 14.069942 C 217.71059 12.279353 219.45837 10.828356 221.99575 9.7590942 C 223.52327 9.1226291 225.79767 8.4691987 228.7509 7.8072754 L 228.81032 7.7902222 L 228.83564 7.7819539 C 231.3136 7.2303485 233.86812 6.9499634 236.41399 6.9499634 C 238.95984 6.9499634 241.50587 7.2303485 243.99234 7.7819539 L 244.01766 7.7902222 L 244.08536 7.8072754 C 247.03858 8.4691987 249.31299 9.1226291 250.8405 9.7590942 C 253.37788 10.828356 255.11769 12.279353 256.02572 14.069942 L 256.02572 14.078727 C 256.88283 15.809915 257.32383 17.820865 257.32383 20.044255 L 257.32383 22.151619 C 261.47294 20.705085 265.97211 19.891809 270.62172 19.891809 C 277.39802 19.891809 283.65965 21.72887 288.86867 25.006226 L 288.87539 20.035986 C 288.87539 17.8126 289.30841 15.809616 290.17402 14.069942 L 290.17402 14.061674 C 291.07355 12.271082 292.82185 10.820088 295.35923 9.750826 C 296.88675 9.1143582 299.16115 8.4609305 302.11438 7.7990072 C 304.6857 7.2219436 306.9684 6.7975572 308.93722 6.5344849 L 308.93722 0.84852702 L 90.510238 0.84852702 z M 163.0593 7.7902222 C 160.57283 7.7902222 158.09477 8.0620419 155.65923 8.6051595 C 155.63378 8.6051595 155.59988 8.6137196 155.57448 8.6222127 C 152.65523 9.2756509 150.4483 9.9121648 148.95473 10.531657 C 146.59558 11.524545 145.00898 12.831183 144.1943 14.443563 C 143.38811 16.064428 142.98042 17.92292 142.98042 20.035986 L 142.95613 53.067562 L 145.78955 60.413367 C 145.80651 52.410872 145.84019 39.817369 145.84019 39.308195 C 145.84019 39.113012 145.83181 38.951797 145.81487 38.824504 C 145.78093 38.519003 145.61111 38.247501 145.3565 38.077779 C 145.05101 37.874108 144.6864 37.721485 144.49971 37.670569 L 143.19281 37.28868 L 143.17576 35.922355 L 143.17576 21.402311 L 172.58068 21.402311 C 176.90907 21.402311 180.28703 21.779165 183.1082 22.486483 L 183.13766 20.035986 C 183.13766 17.92292 182.72996 16.064428 181.92378 14.443563 C 181.1091 12.831183 179.5225 11.524545 177.16335 10.531657 C 175.66977 9.9121648 173.46339 9.2756509 170.54411 8.6222127 C 170.51866 8.6222127 170.48425 8.6136526 170.45885 8.6051595 C 168.02331 8.0620419 165.54574 7.7902222 163.0593 7.7902222 z M 236.39694 7.7902222 C 233.91047 7.7902222 231.43242 8.0620419 228.99687 8.6051595 C 228.9714 8.6051595 228.93753 8.6137196 228.91213 8.6222127 C 225.99287 9.2756509 223.78646 9.9121648 222.29289 10.531657 C 219.93371 11.524545 218.34662 12.831183 217.53194 14.443563 C 216.72576 16.06443 216.31858 17.92292 216.31858 20.035986 L 216.3222 20.119702 C 217.38096 20.025107 218.4528 19.959505 219.55197 19.959505 C 230.32098 19.959505 238.76474 23.515561 244.13652 30.287557 C 247.47333 26.880038 251.71955 24.223453 256.4753 22.439457 L 256.4753 20.035986 C 256.4753 17.92292 256.06815 16.06443 255.26194 14.443563 C 254.44726 12.831183 252.86017 11.524545 250.50099 10.531657 C 249.00742 9.9121648 246.80101 9.2756509 243.88175 8.6222127 C 243.8563 8.6222127 243.82241 8.6136526 243.79701 8.6051595 C 241.36147 8.0620419 238.88339 7.7902222 236.39694 7.7902222 z M 270.63878 21.715987 C 261.0324 21.715987 250.51771 25.348148 243.99183 33.18092 C 239.32442 26.06099 231.1437 21.7842 219.56851 21.7842 C 208.32429 21.7842 200.44086 26.884301 194.71266 34.623726 C 190.56289 27.121915 186.88823 23.227006 172.58895 23.227006 L 145.00872 23.227006 L 145.00872 35.905302 C 145.00872 35.905302 146.3154 36.278775 147.08766 37.169824 C 147.55439 37.704457 147.65662 38.535868 147.65662 39.291142 C 147.65662 40.046415 147.58841 66.92253 147.58841 66.92253 C 146.4343 66.345469 145.28881 64.181095 145.28881 64.181095 L 129.4877 23.218221 L 109.80777 23.218221 L 92.597965 68.806136 L 92.597965 58.61451 L 80.352201 58.61451 C 80.352201 58.61451 78.918295 63.035429 73.461666 63.035429 C 67.572232 63.035429 62.242433 58.130732 61.911466 49.483285 C 61.631432 41.981476 68.225658 38.162308 70.584839 39.961385 C 73.597435 42.269634 70.295968 45.443738 70.295968 45.443738 L 80.352201 52.36838 L 95.576595 36.218978 C 95.576595 36.218978 88.253144 21.936646 69.719259 21.936646 C 50.328283 21.936646 38.625549 35.794771 38.625549 52.088293 C 38.625549 68.381816 53.629052 81.221399 72.307214 81.221399 L 173.15739 81.221399 L 173.15739 69.069169 C 173.15739 69.069169 169.92451 68.526312 169.92451 67.007279 C 169.92451 66.175631 170.30643 65.878373 171.07018 65.708651 C 180.91418 63.493749 189.11177 57.612805 190.97026 55.830701 C 194.89087 72.217571 208.94421 81.213131 225.30563 81.213131 L 243.6952 81.213131 L 243.6952 71.114522 C 243.6952 71.114522 254.13284 82.655937 269.76441 82.655937 C 281.97609 82.655937 291.45559 74.288489 291.45559 74.288489 L 291.45559 81.238452 L 317.38941 81.238452 L 317.38941 70.537297 L 333.19052 70.537297 L 333.19052 81.221399 L 360.77074 81.221399 L 360.77953 81.221399 L 360.77953 67.083761 C 360.77953 67.083761 359.71015 67.219377 358.91246 66.506535 C 358.23357 65.895528 357.95338 65.064064 357.79211 64.266361 L 353.95669 39.749512 C 353.60876 37.526125 354.38944 36.575453 356.33277 35.633484 L 356.33277 23.227006 L 328.89672 23.227006 L 326.80899 30.363521 L 324.00865 23.227006 L 297.42991 23.227006 L 297.42991 36.354887 C 292.3297 27.46134 282.45159 21.715987 270.63878 21.715987 z M 269.55254 27.283089 C 284.7853 27.283089 296.22481 38.01814 296.22481 51.867635 C 296.22481 65.71713 285.0738 77.088835 269.55254 77.088835 C 254.03974 77.088835 242.88027 65.708645 242.88027 51.867635 C 242.88027 38.026626 254.3198 27.283089 269.55254 27.283089 z M 69.430387 27.427266 C 81.217748 27.427266 88.329492 36.465474 88.329492 36.465474 L 80.309827 44.908887 C 79.885515 45.350169 79.198088 45.392567 78.722843 45.010689 L 77.356519 43.890861 C 77.29712 43.839945 77.263501 43.755202 77.263501 43.644881 C 77.263501 43.356351 78.0526 42.63456 78.0526 41.268282 C 78.0526 39.893516 77.772396 34.199463 69.006124 34.199463 C 60.248371 34.199463 56.361934 42.422715 56.361934 49.203198 C 56.361934 55.983679 60.528465 68.390658 74.174284 68.390658 C 82.117385 68.390658 83.797469 63.918062 83.797469 63.918062 L 86.530119 63.918062 L 86.530119 75.603654 L 71.594596 75.603654 C 53.782018 75.586694 43.861405 61.60139 43.861405 51.502799 C 43.861405 36.015467 57.269647 27.427266 69.430387 27.427266 z M 221.5627 27.529069 C 233.35004 27.512109 240.46181 36.550224 240.46181 36.550224 L 232.44214 44.994153 C 232.01783 45.435438 231.3304 45.477833 230.85516 45.095955 L 229.48883 43.97561 C 229.42944 43.924694 229.39582 43.839951 229.39582 43.729631 C 229.39582 43.4411 230.18492 42.719826 230.18492 41.353548 C 230.18492 39.978783 229.90469 34.284212 221.13844 34.284212 C 212.38066 34.284212 208.49425 42.507464 208.49425 49.287948 C 208.49425 56.068431 212.66078 68.475407 226.3066 68.475407 C 234.2497 68.475407 235.9303 64.002812 235.9303 64.002812 L 238.66243 64.002812 L 238.66243 75.688403 L 223.71864 75.688403 C 205.90609 75.688403 195.99372 61.694707 195.99372 51.604602 C 195.99372 36.117269 209.40196 27.529069 221.5627 27.529069 z M 113.46543 28.708842 L 125.75356 28.708842 L 140.69787 67.949341 C 141.13068 69.027088 141.84361 70.036838 142.56494 70.910917 C 143.27778 71.776509 145.00872 72.353723 145.00872 72.353723 L 145.00872 75.739563 L 126.97571 75.739563 L 126.97571 72.277242 C 126.97571 72.277242 128.12103 72.42152 128.69809 71.411662 C 129.27517 70.401801 129.27559 69.604123 128.84278 68.594263 C 128.40998 67.584405 125.397 59.573108 125.397 59.573108 L 110.66508 59.573108 C 110.66508 59.573108 107.64373 67.652277 107.3552 68.373604 C 107.06668 69.094932 107.06668 70.249018 107.3552 70.970345 C 107.83042 72.166903 109.51115 72.344938 109.51115 72.344938 L 109.51115 75.730778 L 95.084119 75.730778 L 95.084119 72.344938 C 95.084119 72.344938 96.399537 71.89502 97.375452 70.902132 C 98.453204 69.8159 98.818258 68.661959 98.818258 68.661959 L 113.46543 28.708842 z M 150.74532 28.708842 L 173.72635 28.708842 C 182.20409 28.708842 190.68138 31.738308 190.68138 41.548368 C 190.68138 51.358428 184.50351 54.812723 179.19113 57.265238 C 173.05561 60.099632 164.96823 62.314543 164.96823 62.314543 L 164.96823 69.807625 C 164.96823 69.807625 165.03602 70.316624 165.75732 71.182218 C 166.47019 72.047813 167.26834 72.260189 167.26834 72.260189 L 167.26834 75.72251 L 150.60114 75.72251 L 150.60114 72.33667 C 150.60114 72.33667 151.6112 72.115716 152.32404 71.402877 C 153.04534 70.681547 153.18962 69.815894 153.18962 69.815894 L 153.18962 35.922355 C 153.18962 35.922355 153.25714 34.479387 152.68009 33.902323 C 152.103 33.325262 150.74532 32.535999 150.74532 32.535999 L 150.74532 28.708842 z M 333.04634 28.708842 L 350.93517 28.708842 L 350.93517 31.526241 C 350.93517 31.526241 349.74744 32.026735 349.21279 32.680176 C 348.56785 33.46939 348.5678 34.055098 348.71205 35.20922 C 348.85633 36.363348 353.44709 67.660799 353.59134 68.814921 C 353.73564 69.977533 353.88003 70.622442 354.16856 71.411662 C 354.44862 72.200879 355.81497 72.853951 355.81497 72.853951 L 355.81497 75.764884 L 338.64755 75.764884 L 338.64755 72.642078 C 338.64755 72.642078 340.1581 72.421344 340.65879 71.700016 C 341.16796 70.978689 341.37975 70.545755 341.2355 69.39163 C 341.09122 68.237505 337.00114 41.981417 337.00114 41.981417 L 329.53337 65.207906 L 320.4869 65.207906 L 313.08683 43.424223 L 309.35269 69.103276 C 309.35269 69.103276 309.20866 70.639225 309.78574 71.479358 C 310.57494 72.641968 312.00886 72.642078 312.00886 72.642078 L 312.00886 75.739563 L 297.14104 75.739563 L 297.14104 72.421419 C 297.14104 72.421419 298.32078 72.234754 299.18639 71.233378 C 300.05197 70.22352 300.19615 68.924992 300.19615 68.924992 L 305.61907 35.065043 C 305.61907 35.065043 305.94138 33.800356 305.58497 33.223295 C 305.21159 32.612285 303.17478 32.103467 303.17478 32.103467 L 303.17478 28.742948 L 320.26624 28.742948 L 326.44416 47.896301 L 333.04634 28.708842 z M 269.55254 34.767904 C 263.66311 34.767904 255.76217 38.230533 255.76217 52.080025 C 255.76217 65.929523 262.79752 69.39163 269.55254 69.39163 C 276.29909 69.39163 283.48709 65.063929 283.48709 52.080025 C 283.48709 39.096125 275.44195 34.767904 269.55254 34.767904 z M 169.38708 35.245394 C 167.01271 35.311327 165.1124 35.777661 165.1124 35.777661 L 165.1124 55.830701 C 165.1124 55.830701 178.61442 50.204377 178.61442 42.269771 C 178.61971 36.138485 173.34435 35.135505 169.38708 35.245394 z M 117.70858 38.519096 L 113.10886 52.224202 L 122.58838 52.224202 L 117.70858 38.519096 z M 189.95171 58.987614 C 188.43725 60.089042 186.32933 61.392105 183.94381 62.671627 L 183.95931 86.194739 L 215.41528 86.194739 L 215.41838 81.905595 C 203.14721 79.01139 193.74631 70.709652 189.95171 58.987614 z M 183.12112 63.12948 C 180.10326 64.682657 176.61146 66.159818 172.8773 67.143188 C 173.07249 67.194107 173.26784 67.236369 173.45453 67.270312 L 174.96503 67.533346 L 174.97382 83.037826 L 142.88689 83.037826 L 142.8843 86.194739 L 183.13611 86.194739 L 183.12112 63.12948 z M 245.51111 75.289978 L 245.51111 83.046094 L 225.29684 83.046094 C 222.15754 83.046094 219.13794 82.722861 216.2669 82.111267 L 216.2638 86.194739 L 256.51302 86.194739 L 256.50992 81.818778 C 251.72564 79.886575 247.94238 77.291633 245.51111 75.289978 z M 288.79012 78.453609 C 284.76014 81.041432 277.93612 84.4889 269.76493 84.4889 C 265.13351 84.4889 260.98252 83.520351 257.35845 82.156226 L 257.36155 86.194739 L 288.78444 86.194739 L 288.79012 78.453609 z M 110.61444 83.037826 L 110.61599 86.194739 L 142.03526 86.194739 L 142.03784 83.037826 L 110.61444 83.037826 z M 195.12814 93.127649 C 192.26829 93.127649 190.51189 94.731636 190.51189 96.946537 L 190.51189 96.980644 C 190.51189 99.433157 192.47242 100.15426 195.0098 100.73132 C 196.63066 101.1132 197.02105 101.38478 197.02105 101.87699 L 197.02105 101.91109 C 197.02105 102.42026 196.53729 102.72551 195.65472 102.72551 C 194.27146 102.72551 192.96427 102.22498 191.78468 101.29149 L 189.94344 103.48929 C 191.41154 104.79617 193.42251 105.46695 195.52708 105.46695 C 198.42088 105.46695 200.34746 104.01539 200.34746 101.57985 L 200.34746 101.54626 C 200.34746 99.314385 198.64176 98.423205 195.9007 97.829171 C 194.2459 97.44729 193.8383 97.209569 193.8383 96.666451 L 193.8383 96.632345 C 193.8383 96.208033 194.23741 95.868567 195.03512 95.868567 C 196.09589 95.868567 197.28388 96.284581 198.37859 97.04834 L 200.03327 94.714632 C 198.74337 93.670828 197.15636 93.127649 195.12814 93.127649 z M 227.68171 93.127649 C 224.82186 93.127649 223.06494 94.731636 223.06494 96.946537 L 223.06494 96.980644 C 223.06494 99.433157 225.0255 100.15426 227.56285 100.73132 C 229.18374 101.1132 229.5741 101.38478 229.5741 101.87699 L 229.5741 101.91109 C 229.5741 102.42026 229.09032 102.72551 228.20778 102.72551 C 226.82451 102.72551 225.51729 102.22498 224.33773 101.29149 L 222.4965 103.48929 C 223.96462 104.79617 225.97554 105.46695 228.08014 105.46695 C 230.97393 105.46695 232.90051 104.01539 232.90051 101.57985 L 232.90051 101.54626 C 232.90051 99.314385 231.19481 98.423205 228.45376 97.829171 C 226.79895 97.44729 226.39135 97.209569 226.39135 96.666451 L 226.39135 96.632345 C 226.39135 96.208033 226.79046 95.868567 227.58818 95.868567 C 228.64894 95.868567 229.83693 96.284581 230.93164 97.04834 L 232.58632 94.714632 C 231.29642 93.670828 229.7099 93.127649 227.68171 93.127649 z M 150.9236 93.238236 L 145.84019 105.25456 L 149.31957 105.25456 L 150.16861 103.12445 L 154.78487 103.12445 L 155.65045 105.25456 L 159.19752 105.25456 L 154.11462 93.238236 L 150.9236 93.238236 z M 131.19303 93.322986 L 131.19303 105.24629 L 140.27361 105.24629 L 140.27361 102.35241 L 134.49412 102.35241 L 134.49412 93.322986 L 131.19303 93.322986 z M 162.49034 93.322986 L 167.02185 100.79075 L 167.02185 105.25456 L 170.34878 105.25456 L 170.34878 100.7401 L 174.88028 93.322986 L 171.18025 93.322986 L 168.71063 97.66794 L 166.25807 93.322986 L 162.49034 93.322986 z M 205.47325 93.322986 L 210.00475 100.79075 L 210.00475 105.25456 L 213.33116 105.25456 L 213.33116 100.7401 L 217.86319 93.322986 L 214.16316 93.322986 L 211.69354 97.66794 L 209.24097 93.322986 L 205.47325 93.322986 z M 255.64383 93.322986 L 255.64383 105.24629 L 265.32644 105.24629 L 265.32644 102.43716 L 258.91908 102.43716 L 258.91908 100.54477 L 264.64741 100.54477 L 264.64741 97.939242 L 258.91908 97.939242 L 258.91908 96.132117 L 265.24169 96.132117 L 265.24169 93.322986 L 255.64383 93.322986 z M 272.11517 93.322986 L 272.11517 105.25456 L 275.35684 105.25456 L 275.35684 98.439986 L 278.38663 103.07381 L 278.45432 103.07381 L 281.50943 98.406396 L 281.50943 105.25456 L 284.80225 105.25456 L 284.80225 93.322986 L 281.30583 93.322986 L 278.46311 97.939242 L 275.62039 93.322986 L 272.12396 93.322986 L 272.11517 93.322986 z M 114.58577 93.331254 L 114.58577 105.26283 L 117.89513 105.26283 L 117.89513 101.85166 L 119.53327 101.85166 C 122.50346 101.85166 124.66733 100.36629 124.66733 97.557353 L 124.66733 97.523763 C 124.66733 94.884552 122.72415 93.331254 119.71156 93.331254 L 114.59404 93.331254 L 114.58577 93.331254 z M 238.61179 93.331254 L 238.61179 96.225134 L 242.1847 96.225134 L 242.1847 105.25456 L 245.49406 105.25456 L 245.49406 96.225134 L 249.07524 96.225134 L 249.07524 93.331254 L 238.61179 93.331254 z M 117.90391 96.09801 L 119.45679 96.09801 C 120.65334 96.09801 121.36624 96.649594 121.36624 97.66794 L 121.36624 97.702047 C 121.36624 98.644015 120.65344 99.254924 119.47384 99.254924 L 117.90391 99.254924 L 117.90391 96.09801 z M 152.48527 97.158927 L 153.81748 100.55304 L 151.13599 100.55304 L 152.48527 97.158927 z M 110.63046 112.39986 L 110.63097 113.82561 C 110.63097 116.3545 110.18995 118.39966 109.27343 120.06296 C 108.33993 121.75171 106.61733 123.1097 104.13938 124.11956 C 102.79006 124.66267 100.49871 125.04422 97.121204 125.29881 C 94.329217 125.51945 92.147993 125.68105 90.493184 125.80834 L 90.493184 131.44314 L 308.90311 131.44314 L 308.90311 125.80834 C 307.2483 125.68105 305.06727 125.51945 302.26682 125.29881 C 298.89778 125.04422 296.59826 124.65419 295.25743 124.11956 C 292.77945 123.1097 291.04787 121.74344 290.12286 120.05469 C 289.20634 118.39139 288.76532 116.34623 288.76532 113.81734 L 288.76635 112.39986 L 257.36775 112.39986 L 257.3662 113.82561 C 257.3662 116.3545 256.92521 118.39966 256.00866 120.06296 C 255.07519 121.75171 253.35256 123.1097 250.87461 124.11956 C 249.52529 124.66267 247.23394 125.04422 243.85643 125.29881 L 243.7629 125.3076 C 241.31887 125.50278 238.83241 125.59595 236.37989 125.59595 C 233.92739 125.59595 231.44091 125.49429 228.99687 125.3076 L 228.89507 125.29881 C 225.52603 125.04422 223.22651 124.65419 221.88568 124.11956 C 219.4077 123.1097 217.67612 121.74344 216.75111 120.05469 C 215.8346 118.39139 215.39357 116.34623 215.39357 113.81734 L 215.3946 112.39986 L 183.97637 112.39986 L 183.9774 113.82561 C 183.9774 116.3545 183.53638 118.39966 182.61986 120.06296 C 181.68639 121.75171 179.96327 123.1097 177.48529 124.11956 C 176.136 124.66267 173.84514 125.04422 170.46763 125.29881 L 170.3741 125.3076 C 167.93006 125.50278 165.44361 125.59595 162.99108 125.59595 C 160.53858 125.59595 158.05211 125.49429 155.60807 125.3076 L 155.53159 125.29881 L 155.51454 125.29881 C 152.14552 125.04422 149.84597 124.65419 148.50515 124.11956 C 146.02717 123.1097 144.2961 121.74344 143.37109 120.05469 C 142.45458 118.39139 142.01304 116.34623 142.01304 113.81734 L 142.01407 112.39986 L 110.63046 112.39986 z M 142.8626 112.39986 L 142.86156 113.81734 C 142.86156 116.185 143.27769 118.11944 144.11782 119.64696 C 144.95795 121.17448 146.52785 122.39697 148.82761 123.33046 C 150.07509 123.83114 152.32384 124.20419 155.59102 124.45028 C 155.62497 124.45028 155.65888 124.45907 155.69282 124.45907 C 158.12836 124.65425 160.5726 124.74742 163.00814 124.74742 C 165.44368 124.74742 167.8874 124.64576 170.32294 124.45907 C 170.35688 124.45907 170.39079 124.45028 170.42474 124.45028 C 173.69192 124.20419 175.94119 123.83114 177.18867 123.33046 C 179.48842 122.39697 181.05833 121.17448 181.89846 119.64696 C 182.73859 118.11944 183.1542 116.185 183.1542 113.81734 L 183.15316 112.39986 L 142.8626 112.39986 z M 216.24261 112.39986 L 216.2421 113.81734 C 216.2421 116.185 216.6577 118.11944 217.49784 119.64696 C 218.33797 121.17448 219.90839 122.39697 222.20814 123.33046 C 223.45562 123.83114 225.70438 124.20419 228.97155 124.45028 C 229.0055 124.45028 229.03941 124.45907 229.07336 124.45907 C 231.5089 124.65425 233.95262 124.74742 236.38816 124.74742 C 238.8237 124.74742 241.26793 124.64576 243.70347 124.45907 C 243.73742 124.45907 243.77133 124.45028 243.80527 124.45028 C 247.07245 124.20419 249.3212 123.83114 250.56868 123.33046 C 252.86844 122.39697 254.43834 121.17448 255.27847 119.64696 C 256.11861 118.11944 256.53473 116.185 256.53473 113.81734 L 256.53318 112.39986 L 216.24261 112.39986 z " /><g
       id="g562"
       transform="matrix(0.26458333,0,0,0.26458333,-277.26521,-32.961428)">
	
	
	
</g></g><style
     type="text/css"
     id="style307">
	.st0{fill-rule:evenodd;clip-rule:evenodd;fill:#FFFFFF;}
	.st1{fill:#FFFFFF;}
	.st2{fill-rule:evenodd;clip-rule:evenodd;}
</style><style
     type="text/css"
     id="style512">
	.st0{fill-rule:evenodd;clip-rule:evenodd;fill:#FFFFFF;}
	.st1{fill:#FFFFFF;}
	.st2{fill-rule:evenodd;clip-rule:evenodd;}
</style></svg>
