<?xml version="1.0" encoding="UTF-8" standalone="no"?>
<!-- Created with Inkscape (http://www.inkscape.org/) -->

<svg
   width="1500"
   height="500"
   viewBox="0 0 396.87498 132.29167"
   version="1.1"
   id="svg5"
   inkscape:version="1.2.2 (732a01da63, 2022-12-09)"
   xml:space="preserve"
   sodipodi:docname="crvision.svg"
   xmlns:inkscape="http://www.inkscape.org/namespaces/inkscape"
   xmlns:sodipodi="http://sodipodi.sourceforge.net/DTD/sodipodi-0.dtd"
   xmlns="http://www.w3.org/2000/svg"
   xmlns:svg="http://www.w3.org/2000/svg"><sodipodi:namedview
     id="namedview7"
     pagecolor="#000000"
     bordercolor="#111111"
     borderopacity="1"
     inkscape:showpageshadow="0"
     inkscape:pageopacity="0"
     inkscape:pagecheckerboard="1"
     inkscape:deskcolor="#d1d1d1"
     inkscape:document-units="mm"
     showgrid="false"
     inkscape:zoom="0.62760417"
     inkscape:cx="954.42323"
     inkscape:cy="278.83817"
     inkscape:window-width="1920"
     inkscape:window-height="1009"
     inkscape:window-x="-8"
     inkscape:window-y="-8"
     inkscape:window-maximized="1"
     inkscape:current-layer="layer1" /><defs
     id="defs2">
		
	
		
		
		
	
		
		
		
		
		
		
		
		
		
		
	
			
			
			
			
			
			
			
		</defs><g
     inkscape:label="Layer 1"
     inkscape:groupmode="layer"
     id="layer1"><path
       id="rect231"
       style="fill:#ffffff;stroke-width:0.8001;stroke-linecap:square;paint-order:fill markers stroke"
       d="M 0 0 L 0 132.29167 L 396.875 132.29167 L 396.875 48.109208 L 394.3289 48.109208 C 393.42538 48.109208 392.69128 48.84433 392.69128 49.746834 L 392.69128 81.672534 C 392.69128 85.582352 389.51003 88.764091 385.5992 88.764091 C 382.61256 88.764091 379.92901 86.874494 378.92209 84.062569 L 365.87121 47.613114 C 365.56003 46.744726 364.85947 46.727879 364.46974 46.79611 C 364.07999 46.864341 363.42536 47.115748 363.42536 48.037895 L 363.42536 81.573315 C 363.42536 85.538958 360.19918 88.764091 356.23459 88.764091 L 353.68694 88.764091 L 353.68694 83.210942 L 356.23459 83.210942 C 357.13811 83.210942 357.8717 82.475821 357.8717 81.573315 L 357.8717 48.037895 C 357.8717 44.66255 360.19368 41.901468 363.51941 41.324609 C 366.84617 40.746717 369.96214 42.562988 371.10035 45.740877 L 384.1502 82.189299 C 384.36832 82.799239 384.94997 83.209908 385.59817 83.209908 C 386.44587 83.209908 387.13658 82.520249 387.13658 81.671501 L 387.13658 49.746834 C 387.13658 45.781192 390.36325 42.555542 394.32787 42.555542 L 396.875 42.555542 L 396.875 0 L 0 0 z M 186.78343 26.171012 L 190.45659 26.171012 C 192.0166 26.171012 193.50207 26.663248 194.75297 27.595732 C 196.00283 28.527183 196.90051 29.808648 197.34713 31.303516 L 217.5061 98.795003 C 217.99717 100.43874 219.45056 100.56699 219.88477 100.56699 C 220.31895 100.56699 221.77237 100.43874 222.26344 98.795003 L 242.42448 31.303516 C 242.87004 29.80968 243.76774 28.527183 245.01864 27.595732 C 246.2685 26.663248 247.75397 26.171012 249.31398 26.171012 L 252.98611 26.171012 L 252.98611 31.724679 L 249.31295 31.724679 C 248.59548 31.724679 247.95031 32.204057 247.74457 32.892566 L 227.58456 100.38405 C 227.05111 102.17045 225.99022 103.65697 224.51601 104.68353 C 223.1669 105.62325 221.56469 106.12065 219.88477 106.12065 C 218.20379 106.12065 216.60264 105.62325 215.25353 104.68353 C 213.77932 103.65594 212.71843 102.16942 212.18498 100.38405 L 192.02497 32.892566 C 191.82026 32.205092 191.17509 31.724679 190.45659 31.724679 L 186.78343 31.724679 L 186.78343 26.171012 z M 330.08424 41.89305 C 336.44313 41.89305 342.42083 44.368738 346.91681 48.864718 C 351.41279 53.360696 353.88848 59.338401 353.88848 65.697282 C 353.88848 72.056163 351.41279 78.033349 346.91681 82.529329 C 342.42083 87.025307 336.44313 89.501514 330.08424 89.501514 C 323.72536 89.501514 317.74818 87.025307 313.2522 82.529329 C 308.75622 78.033349 306.28001 72.056163 306.28001 65.697282 C 306.28001 59.338401 308.75622 53.360696 313.2522 48.864718 C 317.74818 44.368738 323.72536 41.89305 330.08424 41.89305 z M 123.40332 42.093555 C 126.78385 42.093555 129.70445 44.14997 130.84369 47.331995 L 135.53126 60.424736 C 136.27974 62.515071 135.96206 64.846216 134.68429 66.662598 C 133.40651 68.478976 131.31711 69.562679 129.09651 69.562679 L 123.73043 69.562679 C 123.02953 69.562679 122.45868 70.133007 122.45868 70.833919 C 122.45868 71.534834 123.02953 72.105676 123.73043 72.105676 L 134.55819 72.105676 C 137.64202 72.105676 140.41183 74.056227 141.45183 76.959127 L 143.30081 82.12522 C 143.53344 82.774446 144.15277 83.210917 144.84232 83.211975 L 148.69532 83.211975 L 148.69532 88.765125 L 144.84232 88.765125 C 141.8133 88.765125 139.09256 86.849701 138.07219 83.99849 L 136.22269 78.832397 C 135.97147 78.131485 135.30252 77.660376 134.55819 77.660376 L 123.73043 77.660376 C 119.96639 77.660376 116.90398 74.597973 116.90398 70.833919 C 116.90398 67.070902 119.96639 64.009013 123.73043 64.009013 L 129.09651 64.009013 C 129.67545 64.009013 130.00133 63.668 130.14399 63.465377 C 130.28655 63.261717 130.49752 62.839715 130.30212 62.295939 L 125.61507 49.203715 C 125.09818 47.759502 123.79099 47.647221 123.40332 47.647221 C 123.01565 47.647221 121.70898 47.759502 121.19209 49.203715 L 108.67709 84.155587 C 107.68982 86.911688 105.05998 88.764091 102.13123 88.764091 L 84.354024 88.764091 C 78.279435 88.764091 73.336609 83.821779 73.336609 77.747192 L 73.336609 73.952075 C 73.336609 70.192159 76.395894 67.132853 80.155831 67.132853 L 93.334355 67.132853 C 94.031134 67.132853 94.598877 66.566659 94.598877 65.868848 L 94.598877 65.853345 C 94.598877 65.155531 94.032166 64.587789 93.334355 64.587789 L 80.155831 64.587789 C 76.395894 64.587789 73.336609 61.529002 73.336609 57.769084 L 73.336609 53.571924 C 73.336609 47.497336 78.279435 42.554508 84.354024 42.554508 L 100.15771 42.554508 L 100.15771 48.108175 L 84.355058 48.108175 C 81.342568 48.108175 78.891309 50.559441 78.891309 53.571924 L 78.891309 57.769084 C 78.891309 58.466898 79.45802 59.034123 80.155831 59.034123 L 93.333321 59.034123 C 97.093232 59.034123 100.15254 62.093426 100.15254 65.853345 L 100.15254 65.867814 C 100.15254 69.62773 97.093232 72.686519 93.333321 72.686519 L 80.154797 72.686519 C 79.458018 72.686519 78.890275 73.254264 78.890275 73.952075 L 78.890275 77.747192 C 78.890275 80.759674 81.341534 83.210942 84.354024 83.210942 L 102.13123 83.210942 C 102.72051 83.210942 103.24946 82.838498 103.44795 82.28335 L 115.96346 47.331995 C 117.10271 44.14997 120.02282 42.093555 123.40332 42.093555 z M 138.71918 42.555542 L 150.38255 42.555542 C 154.3482 42.555542 157.57384 45.782226 157.57384 49.746834 L 157.57384 81.938151 C 157.57384 82.639066 158.14418 83.209908 158.84508 83.209908 C 159.54599 83.209908 160.11684 82.639066 160.11684 81.938151 L 160.11684 49.746834 C 160.11684 45.782226 163.34249 42.555542 167.3102 42.555542 L 179.37561 42.555542 L 179.37561 48.109208 L 167.3102 48.109208 C 166.40665 48.109208 165.67257 48.84433 165.67257 49.746834 L 165.67257 81.938151 C 165.67257 85.702202 162.61016 88.764091 158.84612 88.764091 C 155.08205 88.764091 152.02018 85.702202 152.02018 81.938151 L 152.02018 49.746834 C 152.02018 48.843296 151.28507 48.109208 150.38255 48.109208 L 138.71918 48.109208 L 138.71918 42.555542 z M 183.52213 42.555542 L 189.07528 42.555542 L 189.07528 88.764091 L 183.52213 88.764091 L 183.52213 42.555542 z M 251.91486 42.555542 L 257.46852 42.555542 L 257.46852 88.764091 L 251.91486 88.764091 L 251.91486 42.555542 z M 297.0444 42.555542 L 302.59807 42.555542 L 302.59807 88.764091 L 297.0444 88.764091 L 297.0444 42.555542 z M 274.84782 42.556576 L 291.93722 42.556576 L 291.93722 48.110242 L 274.84782 48.110242 C 270.77467 48.110242 267.46119 51.423715 267.46119 55.496871 C 267.46119 59.570029 270.77467 62.882983 274.84782 62.882983 L 279.6651 62.882983 C 286.80035 62.882983 292.6054 68.688016 292.6054 75.823279 C 292.6054 82.958539 286.80035 88.763057 279.6651 88.763057 L 262.51628 88.763057 L 262.51628 83.209908 L 279.6651 83.209908 C 283.73825 83.209908 287.05173 79.896435 287.05173 75.823279 C 287.05173 71.75012 283.73825 68.43665 279.6651 68.43665 L 274.84782 68.43665 C 267.71257 68.43665 261.90753 62.632134 261.90753 55.496871 C 261.90753 48.361611 267.71257 42.556576 274.84782 42.556576 z M 23.103499 42.557609 L 31.835783 42.557609 L 31.835783 48.111275 L 23.103499 48.111275 C 18.360451 48.111275 13.916296 49.974368 10.589535 53.35695 C 7.2648366 56.738496 5.4761202 61.214673 5.5557332 65.962899 C 5.6322242 70.58707 7.5387102 74.924817 10.922331 78.176107 C 14.301824 81.423261 18.746987 83.211975 23.438363 83.211975 L 34.478516 83.211975 C 35.38204 83.211975 36.116142 82.476852 36.116142 81.574349 L 36.116142 53.573991 C 36.116142 47.499404 41.058451 42.557609 47.13304 42.557609 L 55.657585 42.557609 C 61.732174 42.557609 66.673966 47.499404 66.673966 53.573991 C 66.673966 59.648577 61.732174 64.589856 55.657585 64.589856 L 50.874414 64.589856 C 50.173507 64.589856 49.602657 65.161734 49.602657 65.862646 C 49.602657 66.563561 50.173507 67.133887 50.874414 67.133887 L 55.657585 67.133887 C 61.732174 67.133887 66.673966 72.075682 66.673966 78.150269 L 66.673966 81.573315 C 66.673966 82.475821 67.408066 83.210966 68.310559 83.209908 L 70.85769 83.209908 L 70.85769 88.763057 L 68.310559 88.763057 C 64.344935 88.763057 61.119267 85.53689 61.119267 81.572282 L 61.119267 78.149235 C 61.119267 75.137788 58.669041 72.686519 55.656551 72.686519 L 50.873381 72.686519 C 47.109316 72.686519 44.047441 69.625664 44.047441 65.861613 C 44.047441 62.097559 47.109316 59.035156 50.873381 59.035156 L 55.656551 59.035156 C 58.668009 59.035156 61.119267 56.584407 61.119267 53.572957 C 61.119267 50.56151 58.669041 48.110242 55.656551 48.110242 L 47.132007 48.110242 C 44.120549 48.110242 41.669291 50.560476 41.669291 53.572957 L 41.669291 81.573315 C 41.669291 85.538958 38.443108 88.764091 34.478516 88.764091 L 23.438363 88.764091 C 17.304851 88.764091 11.492935 86.425799 7.0745036 82.178963 C 2.6167552 77.894911 0.10544132 72.168753 0.0031005859 66.053849 C -0.10133035 59.805585 2.2529828 53.912074 6.6300863 49.462614 C 11.009227 45.010054 16.859365 42.557609 23.103499 42.557609 z M 330.08424 47.614148 C 320.11327 47.614148 312.00214 55.725285 312.00214 65.696248 C 312.00214 75.667215 320.11327 83.778349 330.08424 83.778349 C 340.05418 83.778349 348.16686 75.667215 348.16686 65.696248 C 348.16686 55.725285 340.05522 47.614148 330.08424 47.614148 z " /><g
       id="g547"
       style="fill:#ffffff;fill-opacity:1"
       transform="matrix(0.26458333,0,0,0.26458333,-272.206,65.056892)">
	<g
   id="g545"
   style="fill:#ffffff;fill-opacity:1">
		<linearGradient
   id="SVGID_1_"
   gradientUnits="userSpaceOnUse"
   x1="1919.5001"
   y1="773.35938"
   x2="1919.5001"
   y2="0">
			<stop
   offset="0"
   style="stop-color:#7F5923"
   id="stop526" />
			<stop
   offset="0.1445"
   style="stop-color:#AD8237"
   id="stop528" />
			<stop
   offset="0.2786"
   style="stop-color:#DAB056"
   id="stop530" />
			<stop
   offset="0.4222"
   style="stop-color:#E8D97F"
   id="stop532" />
			<stop
   offset="0.5487"
   style="stop-color:#D2B664"
   id="stop534" />
			<stop
   offset="0.6888"
   style="stop-color:#C39346"
   id="stop536" />
			<stop
   offset="0.8446"
   style="stop-color:#D3B461"
   id="stop538" />
			<stop
   offset="1"
   style="stop-color:#E9DC81"
   id="stop540" />
		</linearGradient>
		
	</g>
</g></g><style
     type="text/css"
     id="style307">
	.st0{fill-rule:evenodd;clip-rule:evenodd;fill:#FFFFFF;}
	.st1{fill:#FFFFFF;}
	.st2{fill-rule:evenodd;clip-rule:evenodd;}
</style><style
     type="text/css"
     id="style512">
	.st0{fill-rule:evenodd;clip-rule:evenodd;fill:#FFFFFF;}
	.st1{fill:#FFFFFF;}
	.st2{fill-rule:evenodd;clip-rule:evenodd;}
</style><style
     type="text/css"
     id="style524">
	.st0{fill:none;stroke:#000000;stroke-width:54.1005;stroke-miterlimit:10;}
	.st1{fill:none;stroke:#000000;stroke-width:55.7397;stroke-miterlimit:10;}
	.st2{fill:#FFEF00;}
	.st3{fill:url(#SVGID_1_);}
	.st4{fill:#FFFFFF;}
	.st5{fill:url(#SVGID_2_);}
	.st6{fill:url(#SVGID_3_);}
	.st7{fill:url(#SVGID_4_);}
	.st8{fill:url(#SVGID_5_);}
	.st9{fill:url(#SVGID_6_);}
	.st10{fill:url(#SVGID_7_);}
	.st11{fill:url(#SVGID_8_);}
	.st12{fill:url(#SVGID_9_);}
	.st13{fill:url(#SVGID_10_);}
	.st14{fill:url(#SVGID_11_);}
	.st15{fill:url(#SVGID_12_);}
	.st16{fill:url(#SVGID_13_);}
	.st17{fill:url(#SVGID_14_);}
	.st18{fill:url(#SVGID_15_);}
	.st19{fill:url(#SVGID_16_);}
	.st20{fill:url(#SVGID_17_);}
	.st21{fill:url(#SVGID_18_);}
	.st22{fill:url(#SVGID_19_);}
	.st23{fill:url(#SVGID_20_);}
	.st24{fill:url(#SVGID_21_);}
</style></svg>
