<?xml version="1.0" encoding="UTF-8" standalone="no"?>
<!-- Created with Inkscape (http://www.inkscape.org/) -->

<svg
   width="1500"
   height="500"
   viewBox="0 0 396.87498 132.29167"
   version="1.1"
   id="svg5"
   inkscape:version="1.2.2 (732a01da63, 2022-12-09)"
   xml:space="preserve"
   sodipodi:docname="custom-collections.svg"
   xmlns:inkscape="http://www.inkscape.org/namespaces/inkscape"
   xmlns:sodipodi="http://sodipodi.sourceforge.net/DTD/sodipodi-0.dtd"
   xmlns="http://www.w3.org/2000/svg"
   xmlns:svg="http://www.w3.org/2000/svg"><sodipodi:namedview
     id="namedview7"
     pagecolor="#000000"
     bordercolor="#111111"
     borderopacity="1"
     inkscape:showpageshadow="0"
     inkscape:pageopacity="0"
     inkscape:pagecheckerboard="1"
     inkscape:deskcolor="#d1d1d1"
     inkscape:document-units="mm"
     showgrid="false"
     inkscape:zoom="0.62760417"
     inkscape:cx="954.42323"
     inkscape:cy="278.83817"
     inkscape:window-width="1920"
     inkscape:window-height="1009"
     inkscape:window-x="-8"
     inkscape:window-y="-8"
     inkscape:window-maximized="1"
     inkscape:current-layer="layer1" /><defs
     id="defs2">
		
	
		
		
		
	
		
		
		
		
		
		
		
		
		
		
	
			
			
			
			
			
			
			
		</defs><g
     inkscape:label="Layer 1"
     inkscape:groupmode="layer"
     id="layer1"><path
       id="rect231"
       style="fill:#ffffff;stroke-width:0.8001;stroke-linecap:square;paint-order:fill markers stroke"
       d="M 0 0 L 0 53.545052 C 0 51.838491 0.27791641 49.318537 0.83354085 45.98479 C 2.0241647 39.158547 4.0740281 34.197599 6.9851034 31.101978 C 9.9080848 28.006356 14.525631 26.458333 20.835937 26.458333 C 22.304374 26.458333 23.985349 26.611027 25.876457 26.914636 C 27.755658 27.206339 29.130729 27.56948 30.003853 28.006042 L 26.670207 37.11453 C 24.328647 36.558906 22.139566 36.28099 20.101615 36.28099 C 18.051758 36.28099 16.589477 36.479427 15.716353 36.876302 C 14.843229 37.273177 14.307137 38.066928 14.1087 39.257552 L 11.370365 54.854533 C 12.799114 55.172033 14.267658 55.33099 15.775781 55.33099 C 18.990466 55.33099 21.927553 54.854635 24.586613 53.902136 L 23.6337 63.903593 C 21.093702 64.935467 17.879215 65.451302 13.989844 65.451302 C 8.9892238 65.451302 5.4033476 64.478853 3.2344279 62.534167 C 1.0774144 60.589482 0 57.593173 0 53.545052 L 0 132.29167 L 396.875 132.29167 L 396.875 68.328646 L 393.77958 77.853646 C 390.32677 77.258334 387.54864 76.960677 385.44521 76.960677 C 383.34177 76.960677 381.55583 77.059896 380.08739 77.258333 L 379.61094 80.175468 L 383.59932 80.59198 C 387.64745 81.028542 390.5248 81.995245 392.23136 83.489478 C 393.93792 84.971804 394.79141 86.96193 394.79141 89.46224 C 394.79141 92.002237 394.23557 94.621411 393.12432 97.320158 C 392.5687 98.709219 391.95991 99.874359 391.29911 100.81297 C 390.65022 101.73967 389.81647 102.52517 388.79849 103.17406 C 387.79241 103.83486 386.87396 104.33096 386.04052 104.66235 C 385.20708 105.00564 384.15515 105.25807 382.88516 105.41682 C 381.01985 105.69463 378.73781 105.83333 376.03906 105.83333 C 371.11782 105.83333 366.65296 105.3175 362.64453 104.28562 L 365.97818 94.462968 C 369.31192 95.37578 372.36797 95.831877 375.14609 95.831877 C 377.92422 95.831877 380.16677 95.712917 381.87333 95.474792 L 382.34927 92.49823 L 377.40849 92.02229 C 373.63818 91.665103 370.96501 90.811613 369.39141 89.46224 C 367.8297 88.112866 367.04995 86.207965 367.04995 83.747343 C 367.04995 82.675782 367.16891 81.485154 367.40703 80.175468 C 368.31984 75.095473 369.97283 71.603069 372.36797 69.698071 C 374.77501 67.793073 378.49959 66.840365 383.5399 66.840365 C 388.5802 66.840365 393.02532 67.336459 396.875 68.328646 L 396.875 0 L 0 0 z M 84.711108 26.458333 C 89.751416 26.458333 94.196528 26.954428 98.046212 27.946615 L 94.950277 37.471615 C 91.497468 36.876303 88.719337 36.578646 86.615902 36.578646 C 84.512466 36.578646 82.726525 36.677865 81.258089 36.876302 L 80.782149 39.793437 L 84.770536 40.209949 C 88.818657 40.646511 91.696007 41.613213 93.402568 43.107446 C 95.109128 44.589773 95.962618 46.579898 95.962618 49.080208 C 95.962618 51.620206 95.406785 54.239379 94.295536 56.938127 C 93.739912 58.327188 93.132589 59.492328 92.469808 60.430937 C 91.822902 61.357639 90.98967 62.143143 89.969702 62.792033 C 88.965609 63.452829 88.044651 63.948924 87.211214 64.280314 C 86.377778 64.623611 85.326367 64.87604 84.056368 65.03479 C 82.191057 65.312602 79.909022 65.451302 77.210274 65.451302 C 72.289029 65.451302 67.824176 64.935467 63.815743 63.903593 L 67.14939 54.080937 C 70.483136 54.993748 73.539183 55.449845 76.317306 55.449845 C 79.095428 55.449845 81.337466 55.330886 83.044027 55.092761 L 83.520483 52.116199 L 78.579183 51.640259 C 74.808874 51.283072 72.13821 50.429582 70.562618 49.080208 C 69.002901 47.730835 68.220642 45.825934 68.220642 43.365312 C 68.220642 42.29375 68.340118 41.103123 68.578243 39.793437 C 69.491055 34.713442 71.146027 31.221038 73.539181 29.31604 C 75.948209 27.411042 79.670801 26.458333 84.711108 26.458333 z M 150.55257 26.458333 C 155.59288 26.458333 159.1845 27.444776 161.32762 29.415259 C 163.47074 31.373835 164.54241 34.395631 164.54241 38.483439 C 164.54241 42.571248 163.89362 46.851656 162.59783 51.322449 C 161.31394 55.781335 159.26982 59.246267 156.4659 61.72078 C 153.67389 64.2072 149.58617 65.451302 144.20257 65.451302 C 138.83087 65.451302 135.07454 64.473107 132.93142 62.51453 C 130.7883 60.544048 129.71663 57.514005 129.71663 53.426196 C 129.71663 51.481511 129.99455 48.915295 130.55017 45.726408 C 131.1058 42.525614 131.83981 39.767741 132.75262 37.451978 C 133.66543 35.124308 134.89606 33.106195 136.44387 31.399634 C 139.42043 28.105575 144.1232 26.458333 150.55257 26.458333 z M 34.468697 27.351302 L 45.779635 27.351302 L 40.838334 55.271562 L 44.886666 55.271562 C 46.275727 55.271562 47.267916 55.087118 47.863228 54.71604 C 48.45854 54.333056 48.875156 53.465572 49.113281 52.116199 L 53.518697 27.351302 L 64.829635 27.351302 L 61.138387 48.246667 C 60.543075 51.620102 59.854806 54.339011 59.074947 56.402759 C 58.306995 58.466507 57.22958 60.21245 55.840519 61.641199 C 54.451458 63.069947 52.731002 64.062137 50.681144 64.617761 C 48.643193 65.173386 46.057237 65.451302 42.921928 65.451302 C 38.119745 65.451302 34.752564 64.723035 32.821769 63.26849 C 30.90288 61.82585 29.944425 59.33963 29.944425 55.807446 C 29.944425 53.862761 30.221825 51.342289 30.77745 48.246667 L 34.468697 27.351302 z M 102.987 27.351302 L 130.66903 27.351302 L 128.94252 36.876302 L 120.72751 36.876302 L 115.90559 64.558333 L 104.59465 64.558333 L 109.41658 36.876302 L 101.26049 36.876302 L 102.987 27.351302 z M 174.00798 27.351302 L 188.77142 27.351302 L 189.84319 46.282446 L 190.2597 46.282446 L 197.99877 27.351302 L 212.76272 27.351302 L 208.35731 64.558333 L 196.51049 64.558333 L 199.01111 46.520158 L 198.59408 46.520158 L 191.15267 64.558333 L 182.52064 64.558333 L 181.27059 46.520158 L 180.97293 46.520158 L 177.1034 64.558333 L 165.31652 64.558333 L 174.00798 27.351302 z M 148.58783 36.638074 C 147.07971 36.638074 145.94882 36.822518 145.19476 37.193595 C 144.44069 37.576579 143.9446 38.444063 143.70647 39.793437 L 140.96814 55.271562 L 145.67121 55.271562 C 147.21902 55.271562 148.36965 55.087118 149.12371 54.71604 C 149.87778 54.333056 150.37387 53.465572 150.612 52.116199 L 153.35033 36.638074 L 148.58783 36.638074 z M 82.137105 66.840365 C 83.605541 66.840365 85.286517 66.993058 87.177625 67.296667 C 89.056826 67.58837 90.431897 67.951512 91.305021 68.388074 L 87.971375 77.496562 C 85.629814 76.940937 83.440734 76.663021 81.402783 76.663021 C 79.352926 76.663021 77.890645 76.861459 77.017521 77.258333 C 76.144397 77.655208 75.608821 78.44896 75.410384 79.639583 L 72.671533 95.236564 C 74.100282 95.554064 75.568826 95.713021 77.076949 95.713021 C 80.291633 95.713021 83.228721 95.236667 85.887781 94.284167 L 84.935384 104.28562 C 82.395387 105.3175 79.180383 105.83333 75.291012 105.83333 C 70.290392 105.83333 66.704515 104.86088 64.535596 102.9162 C 62.378582 100.97151 61.301168 97.975204 61.301168 93.927083 C 61.301168 92.220523 61.579084 89.700568 62.134709 86.366821 C 63.325332 79.540578 65.375196 74.579631 68.286271 71.484009 C 71.209253 68.388387 75.826799 66.840365 82.137105 66.840365 z M 111.72445 66.840365 C 116.76475 66.840365 120.35638 67.826808 122.4995 69.79729 C 124.64262 71.755866 125.71429 74.777662 125.71429 78.86547 C 125.71429 82.953279 125.06499 87.233688 123.76919 91.70448 C 122.4853 96.163366 120.4417 99.628299 117.63778 102.10281 C 114.84577 104.58923 110.75805 105.83333 105.37445 105.83333 C 100.00275 105.83333 96.245906 104.85514 94.102783 102.89656 C 91.95966 100.92608 90.888509 97.896036 90.888509 93.808228 C 90.888509 91.863542 91.165909 89.297327 91.721533 86.108439 C 92.277158 82.907645 93.011688 80.149772 93.9245 77.834009 C 94.837311 75.506339 96.067419 73.488226 97.61523 71.781665 C 100.59179 68.487606 105.29508 66.840365 111.72445 66.840365 z M 231.67785 66.840365 C 233.14628 66.840365 234.82476 66.993058 236.71785 67.296667 C 238.59507 67.58837 239.97264 67.951512 240.84576 68.388074 L 237.5116 77.496562 C 235.17004 76.940937 232.97949 76.663021 230.94353 76.663021 C 228.89168 76.663021 227.43139 76.861459 226.55826 77.258333 C 225.68514 77.655208 225.14905 78.44896 224.95061 79.639583 L 222.21228 95.236564 C 223.64102 95.554064 225.10957 95.713021 226.61769 95.713021 C 229.83238 95.713021 232.76895 95.236667 235.42801 94.284167 L 234.47561 104.28562 C 231.93561 105.3175 228.72113 105.83333 224.83175 105.83333 C 219.83113 105.83333 216.24526 104.86088 214.07634 102.9162 C 211.91933 100.97151 210.84191 97.975204 210.84191 93.927083 C 210.84191 92.220523 211.11983 89.700568 211.67545 86.366821 C 212.86608 79.540578 214.91594 74.579631 217.82701 71.484009 C 220.75 68.388387 225.36754 66.840365 231.67785 66.840365 z M 308.88761 66.840365 C 313.92791 66.840365 317.52005 67.826808 319.66318 69.79729 C 321.8063 71.755866 322.87745 74.777662 322.87745 78.86547 C 322.87745 82.953279 322.23065 87.233688 320.93287 91.70448 C 319.65096 96.163366 317.60736 99.628299 314.80146 102.10281 C 312.01143 104.58923 307.92319 105.83333 302.53761 105.83333 C 297.16789 105.83333 293.40958 104.85514 291.26646 102.89656 C 289.12334 100.92608 288.05167 97.896036 288.05167 93.808228 C 288.05167 91.863542 288.32958 89.297327 288.88521 86.108439 C 289.44083 82.907645 290.17536 80.149772 291.08818 77.834009 C 292.00099 75.506339 293.2311 73.488226 294.77891 71.781665 C 297.75547 68.487606 302.45824 66.840365 308.88761 66.840365 z M 134.10603 67.733333 L 145.41696 67.733333 L 140.53561 95.415365 L 151.84655 95.415365 L 150.17946 104.94036 L 127.55759 104.94036 L 134.10603 67.733333 z M 159.46624 67.733333 L 170.77717 67.733333 L 165.89582 95.415365 L 177.20675 95.415365 L 175.53967 104.94036 L 152.9178 104.94036 L 159.46624 67.733333 z M 184.82644 67.733333 L 209.71071 67.733333 L 206.6153 77.258333 L 194.41139 77.258333 L 193.57785 82.259062 L 204.88879 82.259062 L 203.34108 90.891093 L 192.03014 90.891093 L 191.25603 95.415365 L 205.12701 95.415365 L 203.45993 104.94036 L 178.27801 104.94036 L 184.82644 67.733333 z M 243.46473 67.733333 L 271.14676 67.733333 L 269.42076 77.258333 L 261.20524 77.258333 L 256.38332 104.94036 L 245.07238 104.94036 L 249.89431 77.258333 L 241.73873 77.258333 L 243.46473 67.733333 z M 275.43125 67.733333 L 286.74219 67.733333 L 280.19375 104.94036 L 268.88281 104.94036 L 275.43125 67.733333 z M 331.27177 67.733333 L 341.92745 67.733333 L 347.99995 80.949064 C 348.11901 81.226876 348.17823 81.618006 348.17823 82.120052 C 348.17823 82.610192 348.13875 83.171771 348.05937 83.806771 L 348.53583 83.806771 L 351.39302 67.733333 L 362.70396 67.733333 L 356.15552 104.94036 L 345.49932 104.94036 L 339.42734 91.724634 C 339.26859 91.446822 339.18912 91.055692 339.18912 90.553646 C 339.18912 90.063506 339.22911 89.501926 339.30849 88.866927 L 338.83203 88.866927 L 336.03427 104.94036 L 324.72333 104.94036 L 331.27177 67.733333 z M 109.75971 77.020105 C 108.25159 77.020105 107.1207 77.204549 106.36663 77.575627 C 105.61257 77.958611 105.11648 78.826094 104.87835 80.175468 L 102.1395 95.653593 L 106.84257 95.653593 C 108.39039 95.653593 109.54153 95.469149 110.29559 95.098071 C 111.04966 94.715087 111.54575 93.847604 111.78387 92.49823 L 114.52221 77.020105 L 109.75971 77.020105 z M 306.92338 77.020105 C 305.41526 77.020105 304.28386 77.204549 303.52979 77.575627 C 302.77573 77.958611 302.27964 78.826094 302.04151 80.175468 L 299.30318 95.653593 L 304.00625 95.653593 C 305.55406 95.653593 306.70521 95.469149 307.45927 95.098071 C 308.21333 94.715087 308.70943 93.847604 308.94755 92.49823 L 311.68588 77.020105 L 306.92338 77.020105 z " /><g
       id="g695"
       transform="matrix(1.984375,0,0,1.984375,0,26.458336)"
       style="stroke-width:0.133333" /></g><style
     type="text/css"
     id="style307">
	.st0{fill-rule:evenodd;clip-rule:evenodd;fill:#FFFFFF;}
	.st1{fill:#FFFFFF;}
	.st2{fill-rule:evenodd;clip-rule:evenodd;}
</style><style
     type="text/css"
     id="style512">
	.st0{fill-rule:evenodd;clip-rule:evenodd;fill:#FFFFFF;}
	.st1{fill:#FFFFFF;}
	.st2{fill-rule:evenodd;clip-rule:evenodd;}
</style><style
     type="text/css"
     id="style524">
	.st0{fill:none;stroke:#000000;stroke-width:54.1005;stroke-miterlimit:10;}
	.st1{fill:none;stroke:#000000;stroke-width:55.7397;stroke-miterlimit:10;}
	.st2{fill:#FFEF00;}
	.st3{fill:url(#SVGID_1_);}
	.st4{fill:#FFFFFF;}
	.st5{fill:url(#SVGID_2_);}
	.st6{fill:url(#SVGID_3_);}
	.st7{fill:url(#SVGID_4_);}
	.st8{fill:url(#SVGID_5_);}
	.st9{fill:url(#SVGID_6_);}
	.st10{fill:url(#SVGID_7_);}
	.st11{fill:url(#SVGID_8_);}
	.st12{fill:url(#SVGID_9_);}
	.st13{fill:url(#SVGID_10_);}
	.st14{fill:url(#SVGID_11_);}
	.st15{fill:url(#SVGID_12_);}
	.st16{fill:url(#SVGID_13_);}
	.st17{fill:url(#SVGID_14_);}
	.st18{fill:url(#SVGID_15_);}
	.st19{fill:url(#SVGID_16_);}
	.st20{fill:url(#SVGID_17_);}
	.st21{fill:url(#SVGID_18_);}
	.st22{fill:url(#SVGID_19_);}
	.st23{fill:url(#SVGID_20_);}
	.st24{fill:url(#SVGID_21_);}
</style></svg>
