<?xml version="1.0" encoding="UTF-8" standalone="no"?>
<!-- Created with Inkscape (http://www.inkscape.org/) -->

<svg
   width="1500"
   height="500"
   viewBox="0 0 396.87498 132.29167"
   version="1.1"
   id="svg5"
   inkscape:version="1.2.2 (732a01da63, 2022-12-09)"
   xml:space="preserve"
   sodipodi:docname="daphne.svg"
   xmlns:inkscape="http://www.inkscape.org/namespaces/inkscape"
   xmlns:sodipodi="http://sodipodi.sourceforge.net/DTD/sodipodi-0.dtd"
   xmlns="http://www.w3.org/2000/svg"
   xmlns:svg="http://www.w3.org/2000/svg"><sodipodi:namedview
     id="namedview7"
     pagecolor="#000000"
     bordercolor="#111111"
     borderopacity="1"
     inkscape:showpageshadow="0"
     inkscape:pageopacity="0"
     inkscape:pagecheckerboard="1"
     inkscape:deskcolor="#d1d1d1"
     inkscape:document-units="mm"
     showgrid="false"
     inkscape:zoom="0.62760417"
     inkscape:cx="954.42323"
     inkscape:cy="278.83817"
     inkscape:window-width="1920"
     inkscape:window-height="1009"
     inkscape:window-x="-8"
     inkscape:window-y="-8"
     inkscape:window-maximized="1"
     inkscape:current-layer="layer1" /><defs
     id="defs2">
		
	
		
		
		
	
		
		
		
		
		
		
		
		
		
		
	
			
			
			
			
			
			
			
		</defs><g
     inkscape:label="Layer 1"
     inkscape:groupmode="layer"
     id="layer1"><path
       id="rect231"
       style="fill:#ffffff;stroke-width:0.8001;stroke-linecap:square;paint-order:fill markers stroke"
       d="M 0 0 L 0 33.446021 C 3.6493979 28.173519 23.188961 15.209596 44.227275 12.738757 C 64.914088 10.236904 86.303464 18.207518 91.0177 22.373828 C 91.038377 22.580593 91.059038 22.777362 91.069377 22.984127 C 89.249847 23.1392 87.637361 23.811189 86.469141 24.782983 C 89.777377 32.929515 91.886248 39.401081 92.351469 45.293876 C 93.69544 63.354777 82.344108 93.883471 55.960925 109.08068 C 48.682806 113.278 44.092399 115.8627 44.092399 115.8627 C 34.4675 117.1343 24.86324 118.51947 15.259017 120.02885 C 15.217664 119.76006 15.176346 119.50182 15.134993 119.24337 C 18.743038 118.67476 19.994255 117.51666 19.549711 114.5806 C 15.672872 89.1382 11.785403 63.685547 7.8982259 38.243144 C 7.4433435 35.327761 3.9491802 33.436028 0.093017578 34.045984 C 0.062002865 33.849557 0.031014713 33.642447 0 33.446021 L 0 132.29167 L 396.875 132.29167 L 396.875 42.212927 C 395.17953 46.885811 391.42654 52.013561 386.74332 56.748474 C 386.74332 56.758812 388.70774 45.893355 375.33006 43.970443 C 363.8236 42.357678 357.13474 48.69504 353.69211 58.371631 C 362.75874 59.508837 371.81503 60.7494 380.86099 62.083032 C 377.71817 64.646915 374.37913 66.952485 371.07089 68.823706 C 372.32182 67.955294 371.784 66.270441 370.05752 66.032662 C 364.10269 65.195265 358.13747 64.409201 352.1723 63.664848 C 351.7381 65.608436 351.38689 67.635066 351.12844 69.733728 C 348.45083 91.733498 355.34627 111.55167 378.8761 119.41907 C 357.01073 114.45671 334.25648 98.401642 338.29873 60.74978 C 339.41526 50.794057 344.3156 44.322069 347.31368 41.716833 C 348.70935 40.50726 348.28519 38.315688 346.49668 37.623027 C 345.97977 37.416262 345.41113 37.281983 344.82185 37.209615 C 344.84252 37.013189 344.87352 36.806078 344.89419 36.609652 C 346.55865 36.806078 348.2129 37.002853 349.87735 37.19928 C 351.57282 37.406045 353.25806 37.612632 354.95353 37.819397 C 367.97971 39.4425 380.97459 41.262019 393.95942 43.288314 C 395.35508 43.505417 396.875 42.212927 396.875 42.212927 L 396.875 0 L 0 0 z M 49.749935 19.521289 C 48.263944 19.508899 46.69336 19.595002 45.033427 19.78949 C 24.449996 22.353373 24.139813 36.258076 25.246004 44.115137 C 25.246004 44.115137 32.007334 92.581236 33.868217 105.9279 C 34.178364 108.09893 35.853032 109.92853 37.931018 108.68794 C 64.241833 92.932465 74.869778 69.237147 75.117896 52.840702 C 75.282661 42.043705 72.039791 19.707143 49.749935 19.521289 z M 194.17316 27.046928 C 210.56961 26.995237 218.92257 38.501538 218.88121 38.460185 C 218.09551 39.225214 202.48478 52.995723 202.53647 53.026737 C 194.46231 55.425209 186.41932 57.906331 178.4382 60.459875 C 183.54529 57.296375 188.67279 54.153652 193.85225 51.052181 C 196.65391 46.937562 199.47642 42.822847 202.32977 38.718567 C 202.34011 38.718567 197.23303 31.337091 189.61375 31.388782 C 184.61004 31.430135 180.77473 32.898466 178.14882 35.762158 C 175.5229 38.636188 173.99247 42.399191 174.01315 47.030721 C 174.37499 65.081284 174.74737 83.131891 175.10921 101.18245 C 175.1609 103.45687 177.45607 105.24527 180.23706 105.20391 C 180.23706 105.41068 180.2474 105.60745 180.2474 105.81421 C 178.56226 105.84523 176.88736 105.87622 175.20223 105.90723 C 171.30471 105.9796 167.40743 106.0829 163.50992 106.19662 C 161.82478 106.24831 160.14988 106.29995 158.46475 106.36198 C 158.45441 106.15522 158.45441 105.95897 158.44408 105.7522 C 161.22506 105.65916 163.42725 103.75659 163.36522 101.48218 C 162.75527 81.239908 162.14532 60.987586 161.53536 40.745317 C 161.49401 39.411684 159.73605 38.067485 155.90056 39.731942 C 155.78684 39.556192 155.68355 39.37026 155.56983 39.184172 C 155.56983 39.184172 164.67785 34.31468 175.38826 30.768665 C 181.64289 28.690679 188.44578 27.067604 194.17316 27.046928 z M 219.05691 28.318685 C 220.84543 28.339361 222.6443 28.380688 224.43281 28.411702 C 228.57845 28.494408 232.73448 28.597702 236.89045 28.721761 C 238.6893 28.78379 240.47783 28.835432 242.26635 28.897461 C 242.25601 29.104226 242.25602 29.300478 242.24568 29.507243 C 239.2786 29.40386 236.81812 31.171608 236.75609 33.446021 C 236.60102 38.72886 236.43574 44.001491 236.28067 49.28433 C 244.16874 49.52211 252.03611 49.832508 259.91385 50.215023 C 260.17231 44.932183 260.43106 39.65955 260.68951 34.387048 C 260.80323 32.112636 258.48739 30.158921 255.52032 30.024524 C 255.53066 29.817759 255.54099 29.62099 255.55133 29.414225 C 257.33984 29.486593 259.12838 29.579566 260.91689 29.662272 C 265.06252 29.858699 269.21856 30.086459 273.36419 30.355253 C 275.15271 30.468974 276.94124 30.572262 278.72976 30.685982 C 278.70908 30.892747 278.69824 31.088999 278.6879 31.295764 C 275.72082 31.109676 273.21902 32.815438 273.08462 35.079513 C 271.75099 57.740929 270.41747 80.392241 269.08383 103.05366 C 268.94944 105.31773 271.09997 107.29211 273.88096 107.46786 C 273.86028 107.67462 273.84995 107.87139 273.83962 108.07816 C 272.16482 107.96444 270.47958 107.87148 268.80478 107.7681 C 264.9176 107.54066 261.02032 107.32322 257.12281 107.13713 C 255.43767 107.05442 253.76277 106.97179 252.07764 106.89942 C 252.08797 106.69265 252.0983 106.4964 252.10864 106.28964 C 254.88963 106.4137 257.23646 104.68728 257.35018 102.41287 C 258.11521 86.833146 258.8801 71.242993 259.64513 55.663269 C 251.79841 55.280754 243.96203 54.970356 236.1153 54.732576 C 235.65008 70.322639 235.18474 85.923121 234.71952 101.51318 C 234.65749 103.77726 236.85968 105.69016 239.64067 105.78321 C 239.63033 105.98997 239.63034 106.18622 239.62 106.39299 C 237.93487 106.33096 236.25996 106.27932 234.57483 106.22762 C 230.67731 106.1139 226.78004 106.02094 222.88252 105.93824 C 221.19739 105.89688 219.52248 105.87623 217.83735 105.84522 C 217.83735 105.63845 217.84768 105.44169 217.84768 105.23492 C 220.62867 105.27627 222.92385 103.48787 222.97554 101.21346 L 224.33979 33.135962 C 224.38115 30.86155 222.01365 28.96982 219.04658 28.928467 C 219.04658 28.721702 219.05691 28.52545 219.05691 28.318685 z M 153.3679 28.980143 C 153.37824 29.186908 153.37823 29.38316 153.38857 29.589925 C 150.4215 29.703646 148.09533 31.647551 148.18837 33.911625 C 148.40547 39.184126 148.61257 44.466582 148.82968 49.739083 C 148.90204 51.548274 148.97435 53.368319 149.04672 55.177511 L 150.93859 101.94727 C 151.03163 104.22168 153.36814 105.96927 156.14913 105.86589 C 156.15946 106.07265 156.15946 106.26891 156.1698 106.47567 C 154.48466 106.5377 152.80976 106.59967 151.12463 106.67204 C 147.22711 106.82712 143.32931 107.00271 139.4318 107.19914 C 137.757 107.29219 136.07176 107.37481 134.39696 107.46786 C 134.38663 107.26109 134.3763 107.06484 134.36596 106.85808 C 137.14694 106.703 139.31814 104.75963 139.20442 102.48522 C 138.41872 86.895155 137.63317 71.31534 136.84746 55.735616 C 131.39921 56.00441 125.96131 56.314292 120.52339 56.665792 C 116.54317 56.924248 115.44722 59.633053 115.44722 59.633053 C 116.31563 56.686655 117.44256 53.884781 118.84856 51.320898 C 124.75169 50.938384 130.65494 50.597514 136.56841 50.297705 L 136.5374 49.708077 C 136.27895 44.632002 136.03053 39.566476 135.77207 34.490401 C 102.89648 37.31274 100.46699 93.718291 121.29854 115.5113 C 82.447442 96.933482 98.130523 45.811047 106.90769 37.147603 C 107.87948 36.144794 107.83817 34.573337 106.76299 33.684249 C 105.70849 32.826175 104.15795 32.329771 102.46248 32.464168 C 102.45214 32.257404 102.43148 32.050813 102.42114 31.854386 C 113.46238 31.006651 124.50346 30.303219 135.5447 29.744954 C 137.1678 29.662249 138.8014 29.589946 140.4245 29.517578 C 144.74589 29.310813 149.05685 29.135217 153.3679 28.980143 z M 291.3941 29.868978 C 310.93337 36.206318 321.53 47.826579 326.00646 60.356523 C 326.7198 53.409227 327.44338 46.451861 328.15671 39.504565 C 328.38416 37.240491 326.18197 35.162277 323.22523 34.872807 C 323.24591 34.67638 323.26657 34.469787 323.28724 34.27336 C 325.07576 34.44911 326.85396 34.624707 328.64247 34.810795 L 333.35691 35.306889 C 335.14543 35.492977 336.93397 35.689755 338.71214 35.886182 C 338.69147 36.082608 338.67082 36.289196 338.61912 36.506299 C 335.66239 36.175475 333.06708 37.757259 332.8293 40.010994 C 331.36127 53.667806 329.90379 67.314473 328.4461 80.971285 C 326.26473 101.22389 319.25552 109.89765 309.96144 115.44928 C 324.69343 99.145883 324.64144 81.715674 318.25241 68.172583 C 311.95642 54.63983 299.30249 45.00465 290.85615 44.436047 C 289.39846 64.347493 287.93065 84.269275 286.46262 104.18072 C 286.29721 106.4448 288.41623 108.45017 291.19721 108.66727 C 291.17654 108.8637 291.16621 109.07029 291.14554 109.26672 C 289.47074 109.13232 287.78601 109.00837 286.11122 108.88431 C 284.63285 108.77059 283.1542 108.6673 281.67583 108.56392 C 280.00104 108.4502 278.31579 108.33657 276.641 108.22285 C 276.65133 108.01609 276.672 107.81983 276.68234 107.61307 C 279.46332 107.79916 281.85149 106.11355 282.00656 103.84948 C 283.38154 84.2275 284.74657 64.595457 286.12155 44.973482 C 286.2146 43.57782 285.8213 42.574851 284.0638 41.913204 C 282.86456 41.427307 281.36577 41.189728 279.55658 41.210404 C 279.52556 41.189728 291.36309 29.848301 291.3941 29.868978 z " /><g
       id="g732"
       transform="matrix(0.10338248,0,0,0.10338248,-1.236e-6,12.263189)"
       style="stroke-width:2.55927" /></g><style
     type="text/css"
     id="style307">
	.st0{fill-rule:evenodd;clip-rule:evenodd;fill:#FFFFFF;}
	.st1{fill:#FFFFFF;}
	.st2{fill-rule:evenodd;clip-rule:evenodd;}
</style><style
     type="text/css"
     id="style512">
	.st0{fill-rule:evenodd;clip-rule:evenodd;fill:#FFFFFF;}
	.st1{fill:#FFFFFF;}
	.st2{fill-rule:evenodd;clip-rule:evenodd;}
</style><style
     type="text/css"
     id="style524">
	.st0{fill:none;stroke:#000000;stroke-width:54.1005;stroke-miterlimit:10;}
	.st1{fill:none;stroke:#000000;stroke-width:55.7397;stroke-miterlimit:10;}
	.st2{fill:#FFEF00;}
	.st3{fill:url(#SVGID_1_);}
	.st4{fill:#FFFFFF;}
	.st5{fill:url(#SVGID_2_);}
	.st6{fill:url(#SVGID_3_);}
	.st7{fill:url(#SVGID_4_);}
	.st8{fill:url(#SVGID_5_);}
	.st9{fill:url(#SVGID_6_);}
	.st10{fill:url(#SVGID_7_);}
	.st11{fill:url(#SVGID_8_);}
	.st12{fill:url(#SVGID_9_);}
	.st13{fill:url(#SVGID_10_);}
	.st14{fill:url(#SVGID_11_);}
	.st15{fill:url(#SVGID_12_);}
	.st16{fill:url(#SVGID_13_);}
	.st17{fill:url(#SVGID_14_);}
	.st18{fill:url(#SVGID_15_);}
	.st19{fill:url(#SVGID_16_);}
	.st20{fill:url(#SVGID_17_);}
	.st21{fill:url(#SVGID_18_);}
	.st22{fill:url(#SVGID_19_);}
	.st23{fill:url(#SVGID_20_);}
	.st24{fill:url(#SVGID_21_);}
</style></svg>
