<?xml version="1.0" encoding="UTF-8" standalone="no"?>
<!-- Created with Inkscape (http://www.inkscape.org/) -->

<svg
   width="1500"
   height="500"
   viewBox="0 0 396.87498 132.29167"
   version="1.1"
   id="svg5"
   inkscape:version="1.2.2 (732a01da63, 2022-12-09)"
   xml:space="preserve"
   sodipodi:docname="desktop.svg"
   xmlns:inkscape="http://www.inkscape.org/namespaces/inkscape"
   xmlns:sodipodi="http://sodipodi.sourceforge.net/DTD/sodipodi-0.dtd"
   xmlns="http://www.w3.org/2000/svg"
   xmlns:svg="http://www.w3.org/2000/svg"><sodipodi:namedview
     id="namedview7"
     pagecolor="#000000"
     bordercolor="#111111"
     borderopacity="1"
     inkscape:showpageshadow="0"
     inkscape:pageopacity="0"
     inkscape:pagecheckerboard="1"
     inkscape:deskcolor="#d1d1d1"
     inkscape:document-units="mm"
     showgrid="false"
     inkscape:zoom="0.62760417"
     inkscape:cx="954.42323"
     inkscape:cy="278.83817"
     inkscape:window-width="1920"
     inkscape:window-height="1009"
     inkscape:window-x="-8"
     inkscape:window-y="-8"
     inkscape:window-maximized="1"
     inkscape:current-layer="layer1" /><defs
     id="defs2">
		
	
		
		
		
	
		
		
		
		
		
		
		
		
		
		
	
			
			
			
			
			
			
			
		</defs><g
     inkscape:label="Layer 1"
     inkscape:groupmode="layer"
     id="layer1"><path
       id="rect231"
       style="fill:#ffffff;stroke-width:0.8001;stroke-linecap:square;paint-order:fill markers stroke"
       d="M 0 0 L 0 48.344336 C 0 46.076716 1.8401395 44.236576 4.1077596 44.236576 L 45.187939 44.236576 C 47.45556 44.236576 49.296216 46.076716 49.296216 48.344336 L 49.296216 75.731295 C 49.296216 77.998915 47.45556 79.839054 45.187939 79.839054 L 28.755868 79.839054 L 30.125293 83.947331 L 36.287191 83.947331 C 37.421001 83.947331 38.341329 84.867659 38.341329 86.001469 C 38.341329 87.135279 37.421001 88.05509 36.287191 88.05509 L 13.008508 88.05509 C 11.880176 88.05509 10.954887 87.129802 10.954887 86.001469 C 10.954887 84.873136 11.880176 83.947331 13.008508 83.947331 L 19.170923 83.947331 L 20.539832 79.839054 L 4.1077596 79.839054 C 1.8401395 79.839054 0 77.998915 0 75.731295 L 0 132.29167 L 396.875 132.29167 L 396.875 53.418962 C 396.875 57.537924 396.29992 61.257357 395.14694 64.582104 C 393.99396 67.904113 392.71511 70.538664 391.31565 72.488599 C 389.91619 74.438533 387.99352 76.084695 385.55063 77.429382 C 383.10499 78.776809 380.29229 79.447347 377.10721 79.447347 L 366.89182 79.447347 L 364.75035 91.886381 L 349.10169 91.886381 L 358.16108 40.405286 L 382.87224 40.405286 C 392.20837 40.405286 396.875 44.74285 396.875 53.418962 L 396.875 0 L 0 0 z M 188.72181 39.169702 C 195.69721 39.169702 201.84565 39.85745 207.17237 41.229525 L 202.88942 54.408049 C 198.11318 53.583708 194.26785 53.172982 191.35938 53.172982 C 188.44817 53.172982 185.97797 53.309425 183.94588 53.583293 L 183.28597 57.620256 L 188.80398 58.197998 C 194.40456 58.800506 198.3867 60.131555 200.74744 62.191036 C 203.11091 64.250517 204.29141 67.011175 204.29141 70.470117 C 204.29141 73.983833 203.522 77.610029 201.9856 81.342839 C 201.21604 83.265386 200.37805 84.870046 199.47155 86.162699 C 198.56505 87.452614 197.41179 88.551088 196.01233 89.457589 C 194.61286 90.36135 193.33402 91.048582 192.18103 91.516895 C 191.02805 91.982469 189.57364 92.324612 187.81541 92.543705 C 185.23558 92.929858 182.078 93.121965 178.34519 93.121965 C 171.53411 93.121965 165.35843 92.406824 159.80988 90.979976 L 164.42459 77.388041 C 169.03651 78.653307 173.26518 79.283016 177.10754 79.283016 C 180.95263 79.283016 184.05528 79.11918 186.41601 78.79054 L 187.07592 74.671411 L 180.23758 74.011503 C 175.02315 73.518542 171.32873 72.337891 169.1597 70.470117 C 166.99067 68.602343 165.90615 65.967792 165.90615 62.563623 C 165.90615 61.079263 166.0705 59.433256 166.39915 57.620256 C 167.66441 50.592824 169.95682 45.759102 173.27883 43.1245 C 176.60084 40.487159 181.74916 39.169702 188.72181 39.169702 z M 327.18933 39.169702 C 334.16199 39.169702 339.13267 40.528505 342.09591 43.248006 C 345.0619 45.964768 346.54629 50.152089 346.54629 55.807446 C 346.54629 61.465542 345.65351 67.380891 343.8679 73.559334 C 342.08229 79.737778 339.25614 84.541369 335.38366 87.972925 C 331.51392 91.40448 325.85564 93.121965 318.41467 93.121965 C 310.97644 93.121965 305.77282 91.763161 302.80684 89.04366 C 299.84086 86.326898 298.35957 82.139577 298.35957 76.48422 C 298.35957 73.792106 298.7429 70.237387 299.51247 65.817171 C 300.28203 61.396955 301.29782 57.579169 302.56034 54.366707 C 303.82287 51.154245 305.52366 48.368934 307.66804 46.005461 C 311.78427 41.448311 318.29139 39.169702 327.18933 39.169702 z M 73.580005 40.405286 L 95.491846 40.405286 C 102.57405 40.405286 107.61332 41.654004 110.60669 44.154411 C 113.60005 46.652079 115.0953 50.70244 115.0953 56.303023 C 115.0953 59.156719 114.76675 62.454365 114.10673 66.187174 C 112.45805 75.413759 109.64535 82.00254 105.66332 85.954443 C 101.68129 89.909085 95.273037 91.886381 86.429867 91.886381 L 64.52061 91.886381 L 73.580005 40.405286 z M 126.69666 40.405286 L 161.12712 40.405286 L 156.84366 53.583293 L 139.95735 53.583293 L 138.80445 60.504317 L 154.4531 60.504317 L 152.31163 72.447774 L 136.66246 72.447774 L 135.59172 78.708374 L 154.78435 78.708374 L 152.47855 91.886381 L 117.63416 91.886381 L 126.69666 40.405286 z M 217.71074 40.405286 L 233.3625 40.405286 L 229.6542 61.410722 L 230.31411 61.410722 C 230.75229 59.652495 231.24794 58.335038 231.79567 57.455924 L 242.1754 40.405286 L 259.05964 40.405286 L 242.91489 65.694181 L 250.41056 91.886381 L 233.52683 91.886381 L 228.99687 73.436344 C 228.82982 72.885871 228.74779 72.088555 228.74779 71.04786 L 228.82996 69.481547 L 228.17264 69.481547 L 224.3 91.886381 L 208.65135 91.886381 L 217.71074 40.405286 z M 261.37629 40.405286 L 299.6768 40.405286 L 297.28883 53.583293 L 285.92053 53.583293 L 279.2491 91.886381 L 263.59993 91.886381 L 270.27136 53.583293 L 258.98523 53.583293 L 261.37629 40.405286 z M 5.4771851 49.713761 L 5.4771851 68.884684 L 43.819031 68.884684 L 43.819031 49.713761 L 5.4771851 49.713761 z M 324.47012 53.255147 C 322.38325 53.255147 320.81926 53.514959 319.77583 54.038045 C 318.7324 54.558393 318.04516 55.752481 317.71652 57.620256 L 313.92606 79.036519 L 320.43315 79.036519 C 322.5748 79.036519 324.16876 78.776708 325.21219 78.253621 C 326.25562 77.733274 326.94012 76.539185 327.2715 74.671411 L 331.05938 53.255147 L 324.47012 53.255147 z M 86.843278 53.583293 L 82.47817 78.708374 L 88.985266 78.708374 C 91.126907 78.708374 92.717768 78.445307 93.761202 77.924959 C 94.804636 77.401873 95.491867 76.207784 95.820508 74.342749 L 98.704569 57.948918 C 98.759343 57.620277 98.786735 57.182158 98.786735 56.631685 C 98.786735 55.369158 98.345878 54.544966 97.469503 54.161552 C 96.590389 53.778138 95.21541 53.583293 93.350374 53.583293 L 86.843278 53.583293 z M 371.42436 53.583293 L 369.20072 66.268823 L 372.82375 66.268823 C 374.69153 66.268823 376.10512 66.063641 377.06639 65.65284 C 378.02766 65.239301 378.64342 64.291741 378.92002 62.81012 C 379.63208 58.745931 379.99128 56.522106 379.99128 56.138692 C 379.99128 55.095258 379.57745 54.408027 378.75311 54.079386 C 377.93151 53.748007 376.69385 53.583293 375.04791 53.583293 L 371.42436 53.583293 z " /><g
       id="g757"
       transform="matrix(2.7386744,0,0,2.7386744,-75.431309,11.372348)"
       style="stroke-width:0.09661" /></g><style
     type="text/css"
     id="style307">
	.st0{fill-rule:evenodd;clip-rule:evenodd;fill:#FFFFFF;}
	.st1{fill:#FFFFFF;}
	.st2{fill-rule:evenodd;clip-rule:evenodd;}
</style><style
     type="text/css"
     id="style512">
	.st0{fill-rule:evenodd;clip-rule:evenodd;fill:#FFFFFF;}
	.st1{fill:#FFFFFF;}
	.st2{fill-rule:evenodd;clip-rule:evenodd;}
</style><style
     type="text/css"
     id="style524">
	.st0{fill:none;stroke:#000000;stroke-width:54.1005;stroke-miterlimit:10;}
	.st1{fill:none;stroke:#000000;stroke-width:55.7397;stroke-miterlimit:10;}
	.st2{fill:#FFEF00;}
	.st3{fill:url(#SVGID_1_);}
	.st4{fill:#FFFFFF;}
	.st5{fill:url(#SVGID_2_);}
	.st6{fill:url(#SVGID_3_);}
	.st7{fill:url(#SVGID_4_);}
	.st8{fill:url(#SVGID_5_);}
	.st9{fill:url(#SVGID_6_);}
	.st10{fill:url(#SVGID_7_);}
	.st11{fill:url(#SVGID_8_);}
	.st12{fill:url(#SVGID_9_);}
	.st13{fill:url(#SVGID_10_);}
	.st14{fill:url(#SVGID_11_);}
	.st15{fill:url(#SVGID_12_);}
	.st16{fill:url(#SVGID_13_);}
	.st17{fill:url(#SVGID_14_);}
	.st18{fill:url(#SVGID_15_);}
	.st19{fill:url(#SVGID_16_);}
	.st20{fill:url(#SVGID_17_);}
	.st21{fill:url(#SVGID_18_);}
	.st22{fill:url(#SVGID_19_);}
	.st23{fill:url(#SVGID_20_);}
	.st24{fill:url(#SVGID_21_);}
</style></svg>
