<?xml version="1.0" encoding="UTF-8" standalone="no"?>
<!-- Created with Inkscape (http://www.inkscape.org/) -->

<svg
   width="1500"
   height="500"
   viewBox="0 0 396.87498 132.29167"
   version="1.1"
   id="svg5"
   inkscape:version="1.2.2 (732a01da63, 2022-12-09)"
   xml:space="preserve"
   sodipodi:docname="doom.svg"
   xmlns:inkscape="http://www.inkscape.org/namespaces/inkscape"
   xmlns:sodipodi="http://sodipodi.sourceforge.net/DTD/sodipodi-0.dtd"
   xmlns="http://www.w3.org/2000/svg"
   xmlns:svg="http://www.w3.org/2000/svg"><sodipodi:namedview
     id="namedview7"
     pagecolor="#000000"
     bordercolor="#111111"
     borderopacity="1"
     inkscape:showpageshadow="0"
     inkscape:pageopacity="0"
     inkscape:pagecheckerboard="1"
     inkscape:deskcolor="#d1d1d1"
     inkscape:document-units="mm"
     showgrid="false"
     inkscape:zoom="0.62760417"
     inkscape:cx="954.42323"
     inkscape:cy="278.83817"
     inkscape:window-width="1920"
     inkscape:window-height="1009"
     inkscape:window-x="-8"
     inkscape:window-y="-8"
     inkscape:window-maximized="1"
     inkscape:current-layer="layer1" /><defs
     id="defs2">
		
	
		
		
		
	
		
		
		
		
		
		
		
		
		
		
	
			
			
			
			
			
			
			
		</defs><g
     inkscape:label="Layer 1"
     inkscape:groupmode="layer"
     id="layer1"><path
       id="rect231"
       style="fill:#ffffff;stroke-width:0.8001;stroke-linecap:square;paint-order:fill markers stroke"
       d="M 0 0 L 0 132.29167 L 81.440507 132.29167 L 81.426038 8.1168172 L 70.590007 0 L 0 0 z M 70.590007 0 L 131.66793 0.082682292 L 138.6582 5.4229248 L 138.6644 86.622103 L 140.51649 87.963106 L 81.440507 132.29167 L 396.875 132.29167 L 396.875 0 L 70.590007 0 z M 258.35167 0.0025838216 L 280.41286 0.060461426 L 287.02537 23.224422 L 293.64823 0.028938802 L 326.28499 0.13539225 L 315.57557 8.1374878 L 315.55645 132.09323 L 294.19651 115.98827 L 294.15207 71.470573 L 287.03468 96.340889 L 279.92607 71.583744 L 279.88266 105.37755 L 256.67322 87.969824 L 258.43229 86.651042 L 258.35167 0.0025838216 z M 206.59979 0.029455566 L 249.53051 0.070279948 L 256.71715 5.4394613 L 256.66754 83.907023 L 219.93645 111.67639 L 199.51082 96.528992 L 199.45863 5.3924357 L 206.59979 0.029455566 z M 190.4938 0.043408203 L 197.64427 5.4348104 L 197.67062 96.444242 L 177.39382 111.69447 L 140.46688 84.064119 L 140.45551 5.4146566 L 147.61993 0.04547526 L 190.4938 0.043408203 z M 233.41263 23.1929 L 222.61587 23.228556 L 220.88006 24.565426 L 220.98754 81.993962 L 235.2244 71.455587 L 235.21923 24.574211 L 233.41263 23.1929 z M 174.42708 23.220805 L 163.61327 23.295736 L 161.92397 24.593331 L 161.94825 71.486593 L 176.15152 82.139689 L 176.18976 24.619169 L 174.42708 23.220805 z M 115.61103 23.267314 L 102.91051 23.328809 L 102.88261 82.255961 L 117.27191 71.464889 L 117.24866 24.604183 L 115.61103 23.267314 z " /></g><style
     type="text/css"
     id="style307">
	.st0{fill-rule:evenodd;clip-rule:evenodd;fill:#FFFFFF;}
	.st1{fill:#FFFFFF;}
	.st2{fill-rule:evenodd;clip-rule:evenodd;}
</style><style
     type="text/css"
     id="style512">
	.st0{fill-rule:evenodd;clip-rule:evenodd;fill:#FFFFFF;}
	.st1{fill:#FFFFFF;}
	.st2{fill-rule:evenodd;clip-rule:evenodd;}
</style><style
     type="text/css"
     id="style524">
	.st0{fill:none;stroke:#000000;stroke-width:54.1005;stroke-miterlimit:10;}
	.st1{fill:none;stroke:#000000;stroke-width:55.7397;stroke-miterlimit:10;}
	.st2{fill:#FFEF00;}
	.st3{fill:url(#SVGID_1_);}
	.st4{fill:#FFFFFF;}
	.st5{fill:url(#SVGID_2_);}
	.st6{fill:url(#SVGID_3_);}
	.st7{fill:url(#SVGID_4_);}
	.st8{fill:url(#SVGID_5_);}
	.st9{fill:url(#SVGID_6_);}
	.st10{fill:url(#SVGID_7_);}
	.st11{fill:url(#SVGID_8_);}
	.st12{fill:url(#SVGID_9_);}
	.st13{fill:url(#SVGID_10_);}
	.st14{fill:url(#SVGID_11_);}
	.st15{fill:url(#SVGID_12_);}
	.st16{fill:url(#SVGID_13_);}
	.st17{fill:url(#SVGID_14_);}
	.st18{fill:url(#SVGID_15_);}
	.st19{fill:url(#SVGID_16_);}
	.st20{fill:url(#SVGID_17_);}
	.st21{fill:url(#SVGID_18_);}
	.st22{fill:url(#SVGID_19_);}
	.st23{fill:url(#SVGID_20_);}
	.st24{fill:url(#SVGID_21_);}
</style></svg>
