<?xml version="1.0" encoding="UTF-8" standalone="no"?>
<!-- Created with Inkscape (http://www.inkscape.org/) -->

<svg
   width="1500"
   height="500"
   viewBox="0 0 396.87498 132.29167"
   version="1.1"
   id="svg5"
   inkscape:version="1.2.2 (732a01da63, 2022-12-09)"
   xml:space="preserve"
   sodipodi:docname="dos.svg"
   xmlns:inkscape="http://www.inkscape.org/namespaces/inkscape"
   xmlns:sodipodi="http://sodipodi.sourceforge.net/DTD/sodipodi-0.dtd"
   xmlns="http://www.w3.org/2000/svg"
   xmlns:svg="http://www.w3.org/2000/svg"><sodipodi:namedview
     id="namedview7"
     pagecolor="#000000"
     bordercolor="#111111"
     borderopacity="1"
     inkscape:showpageshadow="0"
     inkscape:pageopacity="0"
     inkscape:pagecheckerboard="1"
     inkscape:deskcolor="#d1d1d1"
     inkscape:document-units="mm"
     showgrid="false"
     inkscape:zoom="0.62760417"
     inkscape:cx="954.42323"
     inkscape:cy="278.83817"
     inkscape:window-width="1920"
     inkscape:window-height="1009"
     inkscape:window-x="-8"
     inkscape:window-y="-8"
     inkscape:window-maximized="1"
     inkscape:current-layer="layer1" /><defs
     id="defs2">
		
	
		
		
		
	
		
		
		
		
		
		
		
		
		
		
	
			
			
			
			
			
			
			
		</defs><g
     inkscape:label="Layer 1"
     inkscape:groupmode="layer"
     id="layer1"><path
       id="rect231"
       style="fill:#ffffff;stroke-width:0.8001;stroke-linecap:square;paint-order:fill markers stroke"
       d="M 0 0 L 0 132.29167 L 246.90534 132.29167 C 237.1591 132.19131 227.51336 130.05883 218.44455 126.58504 C 218.43314 126.46643 218.40903 126.23597 218.39649 126.11737 C 221.73115 122.87394 225.18446 119.74201 228.57158 116.54534 C 231.83439 113.79117 233.68184 109.85673 236.33338 106.58936 C 239.53004 106.09327 242.87063 106.5781 246.12089 106.6431 C 250.34054 116.21485 258.44088 123.4112 267.13563 128.9606 C 260.74686 131.11718 254.0194 132.14911 247.28051 132.29167 L 396.875 132.29167 L 396.875 0 L 101.31475 0 C 102.63606 -0.0046152366 103.95479 0.090237874 105.24577 0.26871745 C 110.66631 1.0065851 115.72073 3.89188 119.14777 8.1183675 C 123.82587 13.795501 125.84216 21.280538 125.76803 28.532625 C 125.66882 35.541798 123.83286 42.708063 119.59838 48.406864 C 116.76096 52.246741 112.71699 55.233857 108.10503 56.584143 C 105.85493 57.308325 103.48412 57.50434 101.13595 57.621806 C 101.07208 52.73272 101.20646 47.844924 101.13233 42.952417 C 105.23223 41.54853 108.79512 38.513498 110.44649 34.483167 C 112.15145 30.419763 112.37352 25.661676 110.64803 21.564058 C 109.82006 19.597932 108.56816 17.712863 106.71493 16.574699 C 104.67354 15.307665 101.89995 15.152493 99.841451 16.465145 C 97.842252 17.724196 96.721103 19.916099 95.86805 22.032764 C 94.322748 26.055112 93.533629 30.307215 92.471875 34.468697 C 91.114746 39.877826 89.560333 45.413181 86.248482 50.000049 C 83.939082 53.252597 80.501615 55.711436 76.609277 56.702482 C 70.171468 58.359548 62.880574 57.244084 57.598035 53.098568 C 51.944851 48.737508 48.853259 41.787875 47.955729 34.861955 C 47.947746 32.066725 48.075654 29.266999 47.898885 26.471769 C 48.535253 19.93246 51.308642 13.430808 56.290104 8.9979004 C 60.432199 5.2321525 65.91201 3.1632744 71.448869 2.5827881 C 71.519576 7.5562668 71.671487 12.533053 71.639555 17.505391 C 67.988992 18.134917 64.708693 20.499099 62.961532 23.744804 C 61.093483 27.191227 60.502697 31.433547 61.815348 35.167362 C 62.51216 37.18709 63.630208 39.135312 65.355701 40.450244 C 67.595534 42.206529 71.013274 41.963507 73.18468 40.219767 C 75.382317 38.421286 76.43258 35.663775 77.281071 33.047595 C 79.160524 26.80138 79.96005 20.264017 82.252344 14.132987 C 83.819315 9.8882528 86.231129 5.7372582 90.065304 3.1450277 C 93.366891 0.92201611 97.35081 0.01384571 101.31475 0 L 0 0 z M 243.59702 0.00051676432 C 244.44945 0.0027536617 245.30086 0.020813153 246.15035 0.05374349 C 252.43192 0.3662253 258.65534 1.5179341 264.70426 3.2080729 C 264.9255 3.3380836 265.35862 3.5922606 265.57759 3.716569 C 258.18523 8.890766 251.8318 15.733484 247.8505 23.846606 C 240.3441 23.000397 232.57117 24.881279 226.43786 29.311906 C 218.76495 34.666293 213.19599 43.209416 212.16844 52.550798 C 210.9801 61.986836 209.87479 71.433961 208.69786 80.869999 C 208.35344 83.481617 208.24093 86.205005 207.05144 88.609062 C 205.39438 92.083996 202.89072 95.09132 200.25858 97.880847 C 197.86935 100.36131 194.23825 100.76418 190.96974 100.79953 C 183.36183 84.113688 181.81088 64.947444 185.79331 47.121155 C 188.85426 33.265894 196.06324 19.917962 207.5863 11.249443 C 217.79363 3.4167268 230.81046 -0.033036696 243.59702 0.00051676432 z M 295.67911 1.1063924 C 298.16815 1.1352399 300.64908 1.2848723 303.09726 1.5363403 C 314.64996 2.6881893 326.4653 6.8596073 334.45297 15.568042 C 341.03105 22.54072 344.116 32.059228 344.79342 41.455351 C 336.47958 41.60817 328.1584 41.536215 319.84456 41.489457 C 318.94019 36.526242 316.39742 31.787579 312.33287 28.691272 C 306.44248 24.153443 298.5629 22.895672 291.30625 23.817151 C 285.85036 24.60976 280.12643 26.339784 276.26944 30.476176 C 273.96346 33.034193 272.48432 36.915988 273.98173 40.224418 C 275.43807 44.295805 276.85246 48.38429 278.27345 52.467082 C 280.45969 58.984722 279.44341 65.98026 278.74888 72.663265 C 269.60821 70.222714 260.15842 66.258963 254.35812 58.465165 C 248.77108 50.896035 248.05808 40.863328 249.59768 31.870923 C 251.17264 22.559193 256.82503 14.068317 264.83551 8.9979004 C 273.95244 3.1176257 284.89325 0.98138677 295.67911 1.1063924 z M 182.5718 3.6803955 C 190.12611 3.6564462 197.66769 4.7798222 204.85933 7.10861 C 204.89354 8.147555 204.69306 9.1578483 203.76017 9.7668457 C 197.50141 15.213609 192.81307 22.132629 188.56833 29.170312 C 179.77893 29.129256 170.98934 29.329975 162.19423 29.335677 C 162.37214 54.187104 162.23545 79.050223 162.40766 103.90735 C 167.73924 104.33274 173.08077 104.71682 178.41805 105.01219 C 183.58198 104.99395 188.74712 104.92338 193.91219 104.83443 C 198.88567 104.66906 202.87401 101.10057 205.82206 97.437463 C 209.7623 92.332834 212.79792 86.288411 213.30998 79.793579 C 213.97486 71.865209 214.72408 63.942612 215.4437 56.018803 C 215.74021 52.65107 216.4119 49.289032 217.7371 46.163074 C 220.63155 39.096879 226.55647 33.495948 233.51546 30.416748 C 243.4168 47.061536 244.87292 67.646709 240.30316 86.176652 C 236.98675 99.387562 229.1659 111.71217 217.60636 119.24595 C 206.32052 126.76718 192.39566 129.46698 178.97719 128.88877 C 164.92121 128.30373 150.85358 127.91925 136.81129 127.18138 L 136.81129 4.8332967 C 152.06017 4.4250176 167.31722 4.040776 182.5718 3.6803955 z M 294.55101 27.963151 C 296.80171 27.936275 299.06294 28.103515 301.27825 28.360543 C 307.36366 39.356709 310.9537 51.757948 311.03011 64.338192 C 311.32777 78.347413 307.50077 92.250709 300.93409 104.5869 C 294.31381 105.36696 287.38422 104.0668 281.72647 100.50291 C 279.3361 99.014629 277.28011 96.320644 278.04763 93.372595 C 279.59863 87.216475 281.70826 81.200938 283.40182 75.080172 C 284.29365 71.564181 283.91832 67.918047 283.87156 64.338192 C 283.75866 60.118547 282.92636 55.94811 281.71407 51.912077 C 280.23377 46.842801 278.03467 41.867778 277.81457 36.525936 C 277.94572 33.334972 280.9999 31.367736 283.64574 30.19764 C 287.07776 28.591751 290.79985 28.007945 294.55101 27.963151 z M 314.47228 57.607336 C 323.57759 60.071837 333.0194 63.079287 340.08674 69.584383 C 345.93493 74.890872 348.69214 82.789731 348.97611 90.512821 L 348.97611 94.931673 C 348.5724 102.22938 345.95186 109.46808 341.10269 115.0152 C 334.65462 122.50792 325.28825 126.90299 315.76212 129.10633 C 303.07924 131.96657 289.67774 131.3289 277.16706 127.90072 C 267.07641 125.06558 257.09194 119.45135 251.8208 110.11111 C 248.22498 103.67672 245.08152 96.155722 247.018 88.699495 C 255.14823 88.603698 263.28419 88.758638 271.42013 88.816801 C 272.32336 94.359362 274.62972 100.01913 279.27133 103.48722 C 285.04768 107.83574 292.62598 108.49848 299.63287 108.56805 C 306.0034 108.43348 312.81397 107.77788 318.21055 104.08512 C 322.89892 101.00022 324.74183 94.299898 322.09714 89.330981 C 320.18917 85.856047 316.64705 83.741835 313.26563 81.898877 C 313.48574 73.791457 314.09251 65.703352 314.47228 57.607336 z M 125.15257 63.455558 C 125.16967 68.322976 125.1946 73.185806 125.13758 78.052083 C 111.06906 78.349739 96.996154 78.577633 82.934473 79.007581 C 97.017823 81.838164 111.07574 84.810294 125.15567 87.665967 C 125.17277 92.836742 125.17734 98.006496 125.15567 103.17613 C 111.76913 106.66247 98.365598 110.07483 84.992745 113.61477 C 86.216442 113.73566 87.447982 113.72735 88.676241 113.71709 C 100.83794 113.7034 112.99644 113.7278 125.15929 113.70727 C 125.17753 117.44678 125.16164 121.18361 125.16962 124.92312 C 125.1662 126.21639 125.2437 127.52133 125.02131 128.80661 L 49.149455 128.80661 C 49.100416 121.67199 49.14279 114.54201 49.125684 107.4074 C 63.50897 103.58919 77.946211 99.965632 92.315812 96.110929 C 77.939368 93.198234 63.498635 90.567293 49.115348 87.687671 C 49.149562 79.615604 49.11198 71.541168 49.131368 63.467961 C 74.472046 63.458837 99.811889 63.484069 125.15257 63.455558 z " /><g
       id="g818"
       transform="matrix(1.1404457,0,0,1.1404457,47.898686,-3.6196758e-5)"
       style="stroke-width:0.232" /></g><style
     type="text/css"
     id="style307">
	.st0{fill-rule:evenodd;clip-rule:evenodd;fill:#FFFFFF;}
	.st1{fill:#FFFFFF;}
	.st2{fill-rule:evenodd;clip-rule:evenodd;}
</style><style
     type="text/css"
     id="style512">
	.st0{fill-rule:evenodd;clip-rule:evenodd;fill:#FFFFFF;}
	.st1{fill:#FFFFFF;}
	.st2{fill-rule:evenodd;clip-rule:evenodd;}
</style><style
     type="text/css"
     id="style524">
	.st0{fill:none;stroke:#000000;stroke-width:54.1005;stroke-miterlimit:10;}
	.st1{fill:none;stroke:#000000;stroke-width:55.7397;stroke-miterlimit:10;}
	.st2{fill:#FFEF00;}
	.st3{fill:url(#SVGID_1_);}
	.st4{fill:#FFFFFF;}
	.st5{fill:url(#SVGID_2_);}
	.st6{fill:url(#SVGID_3_);}
	.st7{fill:url(#SVGID_4_);}
	.st8{fill:url(#SVGID_5_);}
	.st9{fill:url(#SVGID_6_);}
	.st10{fill:url(#SVGID_7_);}
	.st11{fill:url(#SVGID_8_);}
	.st12{fill:url(#SVGID_9_);}
	.st13{fill:url(#SVGID_10_);}
	.st14{fill:url(#SVGID_11_);}
	.st15{fill:url(#SVGID_12_);}
	.st16{fill:url(#SVGID_13_);}
	.st17{fill:url(#SVGID_14_);}
	.st18{fill:url(#SVGID_15_);}
	.st19{fill:url(#SVGID_16_);}
	.st20{fill:url(#SVGID_17_);}
	.st21{fill:url(#SVGID_18_);}
	.st22{fill:url(#SVGID_19_);}
	.st23{fill:url(#SVGID_20_);}
	.st24{fill:url(#SVGID_21_);}
</style></svg>
