<?xml version="1.0" encoding="UTF-8" standalone="no"?>
<!-- Created with Inkscape (http://www.inkscape.org/) -->

<svg
   width="1500"
   height="500"
   viewBox="0 0 396.87498 132.29167"
   version="1.1"
   id="svg5"
   inkscape:version="1.2.2 (732a01da63, 2022-12-09)"
   xml:space="preserve"
   sodipodi:docname="dragon32.svg"
   xmlns:inkscape="http://www.inkscape.org/namespaces/inkscape"
   xmlns:sodipodi="http://sodipodi.sourceforge.net/DTD/sodipodi-0.dtd"
   xmlns="http://www.w3.org/2000/svg"
   xmlns:svg="http://www.w3.org/2000/svg"><sodipodi:namedview
     id="namedview7"
     pagecolor="#000000"
     bordercolor="#111111"
     borderopacity="1"
     inkscape:showpageshadow="0"
     inkscape:pageopacity="0"
     inkscape:pagecheckerboard="1"
     inkscape:deskcolor="#d1d1d1"
     inkscape:document-units="mm"
     showgrid="false"
     inkscape:zoom="0.62760417"
     inkscape:cx="673.9917"
     inkscape:cy="208.73029"
     inkscape:window-width="1920"
     inkscape:window-height="1009"
     inkscape:window-x="-8"
     inkscape:window-y="-8"
     inkscape:window-maximized="1"
     inkscape:current-layer="layer1" /><defs
     id="defs2">
		
	
		
		
		
	
		
		
		
		
		
		
		
		
		
		
	
			
			
			
			
			
			
			
		</defs><g
     inkscape:label="Layer 1"
     inkscape:groupmode="layer"
     id="layer1"><path
       id="rect231"
       style="fill:#ffffff;stroke-width:0.8001;stroke-linecap:square;paint-order:fill markers stroke"
       d="M 0 0 L 0 51.936882 L 4.2064616 49.291565 L 5.2399902 51.079053 L 26.819552 51.079053 C 29.837379 51.079053 32.534482 52.639752 34.0434 55.254508 C 35.552309 57.869265 35.552309 60.980328 34.0434 63.595085 L 32.276066 66.654329 C 31.180557 68.555971 31.180557 70.891331 32.276066 72.782638 C 33.371575 74.684279 35.397386 75.852218 37.588403 75.852218 L 92.095154 75.852218 C 95.112981 75.852218 97.810601 77.412917 99.319519 80.027673 C 100.82843 82.642431 100.82843 85.753492 99.319519 88.36825 L 96.715027 92.873918 L 94.265564 92.873918 L 97.56252 87.169356 C 98.658039 85.267717 98.658039 82.931837 97.56252 81.030196 C 96.467011 79.128555 94.441201 77.960616 92.250183 77.960616 L 54.351721 77.960616 L 37.743433 77.960616 C 34.725616 77.960616 32.027976 76.399917 30.519067 73.78516 C 29.010149 71.170403 29.010149 68.059857 30.519067 65.445101 L 32.286401 62.385856 C 33.38192 60.484215 33.38192 58.148337 32.286401 56.257031 C 31.190892 54.35539 29.165599 53.187451 26.974581 53.187451 L 6.4802246 53.187451 L 7.2553711 54.582715 L 0 51.936882 L 0 132.29167 L 396.875 132.29167 L 396.875 83.583012 L 367.19257 83.583012 C 366.9962 80.286145 367.9781 77.433454 369.65237 75.118412 C 372.50484 71.129099 377.42462 68.524945 381.80667 65.868848 C 383.57396 64.783673 386.43688 63.408981 386.43688 60.897575 C 386.43688 57.797073 384.61781 56.711784 382.30276 56.711784 C 378.36513 56.711784 377.03178 59.564436 377.13512 63.750114 L 367.8747 63.750114 L 367.8747 63.739779 C 367.33728 54.334923 373.18729 48.92983 382.39578 48.92983 C 390.71546 48.92983 396.37891 52.422837 396.37891 59.709017 C 396.37891 68.473103 387.8113 71.222116 381.37259 75.159753 L 381.37259 75.21143 L 396.875 75.21143 L 396.875 0 L 0 0 z M 72.065885 39.131978 L 80.323779 39.131978 L 99.309184 39.131978 L 96.570333 43.896545 L 72.065885 43.896545 C 68.603649 43.896545 65.379427 45.756978 63.653479 48.75413 L 52.057288 68.814404 L 46.559432 68.814404 L 55.395585 53.507845 L 55.519609 53.301139 L 59.5297 46.366679 C 62.113447 41.891621 66.898381 39.131978 72.065885 39.131978 z M 23.522595 39.390361 L 28.194145 44.06191 L 25.796358 44.06191 L 23.522595 41.788147 L 21.259167 44.06191 L 18.861381 44.06191 L 23.522595 39.390361 z M 5.6844076 44.950745 L 20.380668 44.950745 L 23.532931 48.103007 L 26.685193 44.950745 L 26.819552 44.950745 C 37.96069 44.950745 44.926302 57.011768 39.355737 66.654329 L 37.588403 69.713057 L 46.053003 69.713057 L 62.661292 69.713057 L 92.095154 69.713057 C 103.23629 69.713057 110.20242 81.774083 104.63186 91.426978 L 103.7947 92.873918 L 98.213643 92.873918 L 101.05585 87.944503 C 102.24438 85.154051 102.05834 82.011976 100.50808 79.324874 C 98.751128 76.286382 95.60906 74.467289 92.095154 74.467289 L 37.588403 74.467289 C 35.883125 74.467289 34.312093 73.557744 33.464624 72.090173 C 32.617155 70.622603 32.617155 68.804029 33.464624 67.336458 L 35.231958 64.277214 C 36.988906 61.238722 36.988906 57.600536 35.231958 54.562044 C 33.475 51.523552 30.333458 49.70446 26.819552 49.70446 L 8.4335937 49.70446 L 5.6844076 44.950745 z M 72.065885 45.260803 L 80.323779 45.260803 L 95.774516 45.260803 L 94.554952 47.379537 L 72.014209 47.379537 C 69.823191 47.379537 67.797897 48.546959 66.702389 50.4486 L 56.088049 68.82474 L 53.638586 68.82474 L 60.707922 56.577425 L 60.831946 56.370719 L 64.842037 49.435742 C 66.330275 46.862326 69.099738 45.260803 72.065885 45.260803 z M 238.36685 47.586243 C 247.3273 47.586243 252.9908 52.464206 254.56172 60.73221 L 244.17528 60.73221 C 243.78255 58.169129 241.6224 56.350049 239.05931 56.350049 C 231.62845 56.350049 231.87629 64.184261 231.87629 66.592318 C 231.87629 69.889184 233.20972 75.645512 239.80345 75.645512 C 242.31487 75.645512 244.87809 74.363867 245.41551 71.759444 L 240.64061 71.759444 L 240.63027 71.759444 L 240.63027 64.235872 L 255.00614 64.235872 L 255.00614 83.572677 L 248.16418 83.572677 L 247.82363 79.975997 C 245.40525 83.076499 241.6637 84.409835 237.82941 84.409835 C 227.44272 84.409835 221.04542 76.338223 221.04542 66.344271 C 221.04542 52.950102 230.43989 47.586243 238.36685 47.586243 z M 275.73821 47.596578 C 286.41427 47.596578 293.55573 55.275469 293.55573 66.003206 C 293.55573 76.730944 286.42461 84.409835 275.73821 84.409835 C 265.06215 84.409835 257.92069 76.730944 257.92069 66.003206 C 257.92069 55.275469 265.06215 47.596578 275.73821 47.596578 z M 114.09846 48.433736 L 131.87464 48.433736 C 143.58421 48.433736 147.71863 57.094429 147.71863 65.95153 C 147.71863 76.730942 142.01322 83.572677 129.7559 83.572677 L 114.09846 83.572677 L 114.09846 48.433736 z M 150.9634 48.433736 L 171.59211 48.433736 C 177.75177 48.433736 183.06428 51.833708 183.06428 58.479118 C 183.06428 62.117041 181.38987 65.951566 177.79328 67.284782 C 180.7491 68.411298 182.56819 71.666545 182.97126 76.038253 C 183.11595 77.7642 183.16765 81.950082 184.14948 83.572677 L 173.3181 83.572677 C 172.77034 81.795056 172.57396 79.975948 172.42927 78.156986 C 172.12956 74.808445 171.83023 71.315027 167.55153 71.315027 L 161.79478 71.315027 L 161.79478 83.572677 L 150.9634 83.572677 L 150.9634 48.433736 z M 198.71139 48.433736 L 209.2942 48.433736 L 222.08929 83.572677 L 210.86517 83.572677 L 209.38722 78.549727 L 198.21529 78.549727 L 196.64433 83.572677 L 185.76179 83.572677 L 198.71139 48.433736 z M 296.74933 48.433736 L 307.82824 48.433736 L 318.06017 67.233105 L 318.16353 67.233105 L 318.16353 48.433736 L 328.39494 48.433736 L 328.39494 83.572677 L 317.8638 83.572677 L 307.09495 64.380566 L 306.9916 64.380566 L 306.9916 83.572677 L 296.74933 83.572677 L 296.74933 48.433736 z M 72.014209 48.764465 L 93.759135 48.764465 L 87.651497 59.336947 L 68.655758 59.336947 L 63.178056 68.835075 L 57.679683 68.835075 L 67.890946 51.141064 C 68.738416 49.673494 70.308931 48.764465 72.014209 48.764465 z M 352.90972 48.919495 C 362.85199 48.919495 366.14923 54.820505 366.14923 57.724642 C 366.14923 64.907472 361.62237 64.90767 361.62237 65.062695 L 361.62237 65.166048 C 361.62237 65.558779 367.23392 65.558478 367.23392 73.185714 C 367.23392 77.371392 364.08187 83.965417 352.85805 83.965417 C 337.44855 83.965417 337.40732 73.133969 337.64502 70.581222 L 346.99846 70.581222 C 346.94676 72.400184 347.39071 73.785185 348.33119 74.66366 C 349.26134 75.800511 350.69802 76.193282 352.41363 76.193282 C 355.21442 76.193282 356.99216 75.159677 356.99216 72.358891 C 356.99216 69.351404 354.677 68.814404 352.41363 68.814404 C 350.9874 68.814404 350.29488 68.959101 349.56109 69.062451 L 349.56109 62.365186 C 350.29488 62.416855 351.09075 62.561556 352.41363 62.561556 C 354.48064 62.561556 357.08518 62.117067 357.08518 59.46097 C 357.08518 57.290618 354.62533 56.463737 352.61 56.463737 C 349.9539 56.463737 347.78342 57.890083 347.88678 60.742546 L 338.63721 60.742546 L 338.63721 60.73221 C 338.68891 56.691223 340.3116 53.745504 342.91602 51.771517 C 345.52045 49.849206 349.0651 48.919495 352.90972 48.919495 z M 11.244275 54.582715 L 26.974581 54.582715 C 28.679849 54.582715 30.250374 55.492259 31.097843 56.959831 C 31.945313 58.427401 31.945313 60.246491 31.097843 61.714062 L 29.331026 64.773307 C 27.574078 67.811799 27.574078 71.449468 29.331026 74.48796 C 31.087984 77.526452 34.229536 79.345544 37.743433 79.345544 L 92.250183 79.345544 C 93.955451 79.345544 95.526493 80.25509 96.373962 81.72266 C 97.221432 83.190232 97.221432 85.009322 96.373962 86.476892 L 92.684265 92.873918 L 87.18641 92.873918 L 92.250183 84.099776 L 37.743433 84.099776 C 26.602304 84.099776 19.636672 72.038752 25.207247 62.385856 L 26.974581 59.336947 L 13.983126 59.336947 L 11.244275 54.582715 z M 275.73821 56.370719 C 272.9891 56.370719 268.75155 58.189941 268.75155 66.013542 C 268.75155 73.837142 272.97876 75.655847 275.73821 75.655847 C 278.49766 75.655847 282.72486 73.837142 282.72486 66.013542 C 282.72486 58.189941 278.49766 56.370719 275.73821 56.370719 z M 161.79478 56.804801 L 161.79478 63.791455 L 167.45851 63.791455 C 169.47383 63.791455 172.2329 63.43997 172.2329 60.298128 C 172.2329 58.086437 171.00341 56.804801 166.8694 56.804801 L 161.79478 56.804801 z M 124.92984 57.435254 L 124.92984 74.570642 L 129.16679 74.570642 C 135.90522 74.570642 136.89755 69.103704 136.88725 65.806836 C 136.88725 63.58481 136.19509 57.435254 128.37149 57.435254 L 124.92984 57.435254 z M 203.98238 60.194775 L 200.58207 71.025639 L 207.22766 71.025639 L 204.0754 60.194775 L 203.98238 60.194775 z M 37.237004 84.988611 L 42.725041 84.988611 L 38.177515 92.873918 L 32.679142 92.873918 L 37.237004 84.988611 z M 44.316675 84.988611 L 46.766138 84.988611 L 42.208276 92.873918 L 39.758813 92.873918 L 44.316675 84.988611 z M 48.347437 84.988611 L 53.845292 84.988611 L 49.287948 92.873918 L 43.79991 92.873918 L 48.347437 84.988611 z " /></g><style
     type="text/css"
     id="style307">
	.st0{fill-rule:evenodd;clip-rule:evenodd;fill:#FFFFFF;}
	.st1{fill:#FFFFFF;}
	.st2{fill-rule:evenodd;clip-rule:evenodd;}
</style><style
     type="text/css"
     id="style512">
	.st0{fill-rule:evenodd;clip-rule:evenodd;fill:#FFFFFF;}
	.st1{fill:#FFFFFF;}
	.st2{fill-rule:evenodd;clip-rule:evenodd;}
</style><style
     type="text/css"
     id="style524">
	.st0{fill:none;stroke:#000000;stroke-width:54.1005;stroke-miterlimit:10;}
	.st1{fill:none;stroke:#000000;stroke-width:55.7397;stroke-miterlimit:10;}
	.st2{fill:#FFEF00;}
	.st3{fill:url(#SVGID_1_);}
	.st4{fill:#FFFFFF;}
	.st5{fill:url(#SVGID_2_);}
	.st6{fill:url(#SVGID_3_);}
	.st7{fill:url(#SVGID_4_);}
	.st8{fill:url(#SVGID_5_);}
	.st9{fill:url(#SVGID_6_);}
	.st10{fill:url(#SVGID_7_);}
	.st11{fill:url(#SVGID_8_);}
	.st12{fill:url(#SVGID_9_);}
	.st13{fill:url(#SVGID_10_);}
	.st14{fill:url(#SVGID_11_);}
	.st15{fill:url(#SVGID_12_);}
	.st16{fill:url(#SVGID_13_);}
	.st17{fill:url(#SVGID_14_);}
	.st18{fill:url(#SVGID_15_);}
	.st19{fill:url(#SVGID_16_);}
	.st20{fill:url(#SVGID_17_);}
	.st21{fill:url(#SVGID_18_);}
	.st22{fill:url(#SVGID_19_);}
	.st23{fill:url(#SVGID_20_);}
	.st24{fill:url(#SVGID_21_);}
</style></svg>
