<?xml version="1.0" encoding="UTF-8" standalone="no"?>
<!-- Created with Inkscape (http://www.inkscape.org/) -->

<svg
   width="1500"
   height="500"
   viewBox="0 0 396.87498 132.29167"
   version="1.1"
   id="svg5"
   inkscape:version="1.2.2 (732a01da63, 2022-12-09)"
   xml:space="preserve"
   sodipodi:docname="dreamcast.svg"
   xmlns:inkscape="http://www.inkscape.org/namespaces/inkscape"
   xmlns:sodipodi="http://sodipodi.sourceforge.net/DTD/sodipodi-0.dtd"
   xmlns="http://www.w3.org/2000/svg"
   xmlns:svg="http://www.w3.org/2000/svg"><sodipodi:namedview
     id="namedview7"
     pagecolor="#000000"
     bordercolor="#111111"
     borderopacity="1"
     inkscape:showpageshadow="0"
     inkscape:pageopacity="0"
     inkscape:pagecheckerboard="1"
     inkscape:deskcolor="#d1d1d1"
     inkscape:document-units="mm"
     showgrid="false"
     inkscape:zoom="0.62760417"
     inkscape:cx="673.9917"
     inkscape:cy="208.73029"
     inkscape:window-width="1920"
     inkscape:window-height="1009"
     inkscape:window-x="-8"
     inkscape:window-y="-8"
     inkscape:window-maximized="1"
     inkscape:current-layer="layer1" /><defs
     id="defs2">
		
	
		
		
		
	
		
		
		
		
		
		
		
		
		
		
	
			
			
			
			
			
			
			
		</defs><g
     inkscape:label="Layer 1"
     inkscape:groupmode="layer"
     id="layer1"><path
       id="rect231"
       style="fill:#ffffff;stroke-width:0.8001;stroke-linecap:square;paint-order:fill markers stroke"
       d="M 0 0 L 0 68.417529 C 0.18256232 66.823559 -0.061618657 65.322175 0.2578654 63.583716 C 0.53766199 62.119785 0.90702483 61.50707 0.99632161 60.182373 C 1.083634 59.614927 1.81591 57.912182 2.0143473 57.153617 C 2.6083363 55.903792 2.7550781 54.87533 3.5289836 53.478389 C 4.6422168 51.304495 5.8088875 48.802413 7.5974691 46.614726 C 8.1094373 45.936943 9.5599751 44.311319 10.0521 43.749784 C 11.221557 42.588622 11.906189 42.405436 13.23175 41.242961 C 13.366688 41.158238 14.243907 40.167371 15.161348 39.82651 C 16.679394 38.661407 17.991255 38.235529 19.43654 37.175509 C 22.333724 35.743102 23.386978 35.258501 26.262996 34.069755 C 27.926562 33.480636 30.240636 33.157397 31.074072 32.836239 C 32.662232 32.737724 34.273651 32.235429 35.942509 32.333944 C 37.816419 32.318181 39.705361 32.450269 41.589193 32.619714 C 42.859191 32.694586 44.516065 32.755655 46.763037 33.240348 C 49.617227 33.665933 52.53234 34.655013 54.053031 35.11672 C 57.114919 36.0467 62.086961 38.935277 63.843132 40.321053 C 64.674584 40.977162 66.421559 42.693384 67.09823 43.557031 C 67.757042 44.398348 69.01524 46.220811 69.816927 47.34388 C 71.097509 49.198587 72.601709 51.959286 73.877661 54.498999 C 75.303102 57.338854 75.402488 58.160878 75.833097 60.533773 L 76.775675 64.71698 C 76.864972 65.440079 76.938165 68.094139 75.368526 68.464555 C 73.802194 68.837598 72.351552 68.119976 71.666943 67.069808 C 70.722382 65.617699 70.853493 63.554097 69.78127 61.193681 C 68.947834 59.283806 68.584691 56.511684 67.251192 54.517086 L 66.207328 52.761637 C 64.357231 49.935574 62.430197 47.693291 61.282564 46.228703 C 60.26855 44.999237 58.37781 43.33036 56.587244 42.141614 C 54.930292 41.142673 52.252705 40.005511 50.319926 39.420333 C 49.70477 39.221333 47.068526 38.450575 45.433403 38.233842 C 43.208259 37.987555 41.747858 37.638507 39.635824 37.490735 C 37.028357 37.307497 35.779828 37.077038 32.396472 37.471098 C 31.113906 37.8159 29.08552 37.952158 27.257251 38.645703 C 25.782862 39.24336 23.73302 40.20861 21.722188 41.380937 C 19.557237 42.559175 16.274767 44.967529 14.095264 47.02452 C 11.900547 49.352098 10.803143 50.603128 9.290389 53.55332 C 8.6196709 55.013311 7.3234594 57.273851 6.799585 58.869792 C 6.4423978 60.488063 5.7614676 63.508804 5.8745768 64.975362 C 5.9281549 67.601769 5.6957766 68.14562 5.8942139 70.293901 C 5.9021514 72.226762 6.5419472 73.567269 6.8078532 75.149418 C 7.0340717 76.242933 8.0918272 80.022349 8.7446859 80.903072 C 11.711985 87.254654 15.699201 90.005741 20.140889 91.991801 C 21.393029 92.626237 25.310704 93.666775 26.441797 93.96429 C 28.377222 94.309749 30.919045 94.542288 33.366439 94.589575 C 35.942155 94.638833 39.493281 94.294083 41.645003 93.503337 C 43.976642 92.652168 46.673947 91.442155 46.644181 91.47762 C 47.72368 90.884561 49.376976 89.917516 49.888944 89.493245 C 50.883115 88.86078 51.482832 88.61637 52.070207 88.007548 C 52.921503 87.270657 53.433948 86.84489 54.07887 85.930672 C 54.436057 85.415768 55.007744 84.627763 55.559399 83.930278 C 56.154711 82.958921 56.497782 81.936213 57.079203 80.672595 C 57.77638 78.800813 57.667137 78.891583 57.80009 76.904867 C 57.927089 76.32954 57.786488 74.394803 57.683301 74.065763 C 57.369108 72.280017 57.478083 70.705362 57.067318 68.971501 C 56.513678 66.62619 56.049229 64.870687 55.340808 62.61995 C 54.672074 60.085491 52.712771 57.738934 51.24235 56.062211 C 50.331523 55.021237 47.503102 52.568159 43.581319 51.034611 C 42.476023 50.666165 40.670281 50.248691 39.522652 50.03984 C 37.069967 49.785671 36.671227 49.948942 34.325037 50.118388 C 33.517397 50.258279 31.643711 50.638689 30.953149 50.879065 C 28.939011 51.582461 28.19683 52.030363 26.136389 53.281502 C 25.177937 53.835156 24.453266 54.259062 23.472986 55.171309 C 22.690481 55.890468 22.128943 57.112357 21.497913 57.829545 C 20.628757 59.001872 19.662344 60.567087 19.012793 62.255632 C 18.310325 63.934325 18.084498 66.29753 18.191654 67.818599 C 18.191654 68.975821 18.508989 71.099537 18.634005 71.562557 C 18.761005 72.027547 19.076582 73.468655 19.144051 73.758289 C 19.214166 74.047922 19.968022 75.572633 20.073193 75.793306 C 20.499834 76.693732 21.313719 77.985138 22.68492 79.305237 C 23.699596 80.402692 25.655924 81.481174 27.122375 81.898877 C 28.436692 82.616065 30.653448 82.736132 31.881775 82.738102 C 32.483701 82.702637 34.025293 82.60831 34.830949 82.417192 C 36.462765 82.029043 36.76245 82.018955 38.445199 81.293229 C 39.953322 80.597714 40.978192 80.347441 42.027926 79.577055 C 42.027926 79.577055 43.470195 78.456152 44.127022 77.634538 C 44.472303 77.203043 45.066252 75.135714 44.96108 73.856991 C 44.911471 72.104739 45.169418 71.111487 44.807601 69.6712 C 44.446445 68.230255 43.833624 66.561446 43.166874 65.532951 C 42.492187 64.490664 41.043653 63.475218 39.393978 62.665426 C 38.467276 62.212257 36.277433 61.792457 35.348747 61.68409 C 33.584639 61.475239 32.11068 62.271299 31.213082 63.179606 C 30.435208 64.062299 28.899157 65.893718 29.510343 67.789144 C 30.063983 69.501989 30.734747 71.327987 33.323031 71.192037 C 35.101029 71.558512 37.155459 71.028525 37.840068 71.339832 C 38.854082 71.911218 39.244757 73.176869 38.875663 74.059562 C 38.617695 75.759929 36.976718 75.963087 35.227824 76.095097 C 33.660169 76.355176 29.682735 75.592394 28.809611 74.942196 C 28.222237 74.597394 27.322941 73.767919 26.691911 73.206384 C 26.235505 72.799846 25.723246 71.899789 25.370028 71.253532 C 24.941403 70.459502 24.721592 69.874258 24.612451 69.35804 C 24.479498 68.743308 24.207473 67.568274 24.310661 66.395947 C 24.382098 65.605858 24.594344 65.267003 24.804687 64.109782 C 25.227359 62.797564 25.753116 61.798695 26.600444 60.659863 C 27.701771 59.549929 29.101626 58.227754 30.466874 57.613021 C 31.671389 56.980555 33.783346 56.749759 35.690328 56.860095 C 37.240785 57.005897 39.070361 57.19506 40.282812 57.597001 C 42.357144 58.331922 42.948429 58.477818 44.651021 59.545719 C 46.088369 60.429069 47.535146 62.054551 48.342786 63.400264 C 50.061914 66.890318 51.046186 70.772576 50.331812 75.998462 C 50.27228 76.881155 49.996534 77.744723 49.44091 78.91508 C 48.92828 79.992832 48.033263 81.305392 46.681905 82.293168 C 46.140171 82.791653 45.284636 83.406319 44.587459 83.764913 C 43.599242 84.359943 42.934825 84.669183 41.904936 85.183431 C 40.998077 85.607045 39.941726 86.090424 38.564571 86.470691 C 37.072323 87.055869 35.926301 87.079647 34.049084 87.357458 C 32.203618 87.818508 27.148273 87.491067 24.135994 86.170968 C 22.081507 85.311261 19.77752 83.800016 18.022673 81.957788 C 17.05033 80.942428 16.095885 79.106405 15.816089 78.730078 C 14.422398 76.06755 14.150516 73.566992 13.926282 73.038953 C 13.622673 72.325048 13.471798 70.723277 13.267407 69.627791 C 13.03722 68.397669 13.180406 63.246826 14.428577 59.940011 C 15.135675 58.623852 15.548013 57.449507 16.022278 56.834774 C 16.879527 55.622384 17.294408 54.867736 18.022673 54.010657 C 19.120031 52.688587 19.920356 51.608077 20.989933 50.847542 C 23.715139 48.64672 25.991202 47.486132 29.071611 46.033366 C 32.898143 44.484712 34.04946 44.805756 37.671602 44.862895 C 39.300773 44.876687 41.672434 45.385361 42.839246 45.596183 C 45.004858 45.881876 46.245199 46.400047 47.707682 46.805929 C 49.274014 47.239394 50.176701 47.933618 51.464559 48.704004 C 52.520245 49.379816 53.765319 50.309959 54.586849 51.064583 C 56.690284 52.596161 57.705006 54.205752 58.994849 56.182617 C 59.229005 56.513627 60.758917 59.752579 61.002995 60.653662 C 61.116104 61.106831 61.461324 62.401405 61.683573 63.159969 C 61.969985 64.36185 62.108829 65.426502 62.430298 66.784037 C 62.714063 68.180978 63.200256 70.81798 63.4106 73.285449 C 63.765803 75.401549 63.196204 79.719075 62.86283 81.043115 C 62.120674 83.514525 60.814704 86.531763 58.242957 89.437952 C 57.15089 90.725213 55.989697 91.719974 54.646277 92.803638 C 53.62234 93.652836 52.740965 94.150391 51.153467 95.088253 C 48.999761 96.365005 47.360372 97.180703 44.341479 98.353687 C 43.111168 98.745776 41.561658 99.259874 39.892139 99.602706 C 36.659595 99.89628 33.334892 100.18012 29.708781 99.752568 C 26.080686 99.323043 22.446628 98.307706 20.299536 97.655538 C 19.114204 97.214191 16.82045 96.258178 15.860014 95.74196 C 15.232952 95.428682 13.132717 94.001714 12.777515 93.658883 C 11.338844 92.776189 8.1192749 89.770615 6.0409749 86.968852 C 5.5865535 86.099951 3.9497327 83.504864 3.5925456 82.366032 C 2.6499684 80.442365 1.9905551 78.11343 1.6055868 77.117773 C 1.1968059 74.794793 0.50611871 73.300927 0.23822835 70.971379 C 0.26799395 70.423636 0.12699987 69.133404 0 68.417529 L 0 132.29167 L 396.875 132.29167 L 396.875 57.069385 L 396.8688 61.293933 C 395.8151 60.872289 394.59014 60.77601 392.99668 60.720841 C 392.50878 60.70319 387.71006 60.720682 387.35878 60.720841 C 387.30322 61.398624 387.35878 82.647651 387.35878 84.814978 C 387.35878 87.231219 389.05301 88.775977 391.39523 88.775977 C 392.66721 88.775977 394.78566 88.612306 396.60732 87.920732 L 395.64665 92.405729 C 394.0823 92.750531 391.84176 93.117157 390.26352 93.040316 C 386.52496 93.040316 381.47956 91.097279 381.47956 83.829508 L 381.47956 60.681567 C 381.47956 60.681567 377.73692 60.679597 377.10721 60.681567 L 377.10721 57.112276 C 377.7012 57.112276 381.2928 57.092639 381.6103 57.092639 C 381.6103 56.70252 381.6165 53.467021 381.6165 53.467021 C 381.6165 51.719367 381.29892 49.068255 380.32459 48.161918 L 387.39651 46.222502 L 387.35878 57.057499 C 387.54135 57.057499 396.875 57.069385 396.875 57.069385 L 396.875 0 L 0 0 z M 87.182792 41.245028 C 92.196641 41.245028 103.0247 41.27655 107.66681 41.27655 C 118.34869 41.27655 134.46259 47.162584 134.46259 67.006763 C 134.46259 81.735393 123.08605 92.705452 107.66681 92.705452 C 104.28478 92.705452 91.37263 92.665662 86.790051 92.665662 C 87.729321 90.943622 88.278849 88.608411 88.278849 86.764213 L 88.278849 46.125867 C 88.278849 44.407767 87.949422 42.180919 87.182792 41.245028 z M 105.23389 45.716073 C 102.13842 45.69012 99.084884 45.913537 95.959001 46.451428 L 95.959001 87.662866 C 100.88951 88.299272 105.44037 88.494121 109.55662 87.910913 C 113.5419 87.345438 126.92676 84.481934 126.84342 66.837264 C 126.76603 50.112723 116.3636 46.289487 108.34739 45.822526 C 107.30196 45.760954 106.26571 45.724723 105.23389 45.716073 z M 364.13746 55.722697 C 366.06495 55.722697 370.46696 56.139233 373.26559 57.213045 L 373.2413 61.987431 C 370.75687 59.876586 366.96201 59.368469 364.46302 59.368469 C 360.4956 59.368469 357.51513 61.323441 357.51513 65.158297 C 357.51513 70.786123 376.20443 70.461422 376.20443 82.017216 C 376.20443 89.489241 369.68492 92.973136 362.50811 92.973136 C 359.01098 92.973136 355.36299 92.358697 352.32888 91.495707 L 350.91346 85.15966 C 353.95419 87.315822 358.72322 89.231246 362.22233 89.231246 C 367.07479 89.231246 370.55206 86.886188 370.55206 82.474036 C 370.55206 74.327513 351.84622 75.677271 351.84622 65.341748 C 351.84622 58.35179 358.14003 55.722697 364.13746 55.722697 z M 146.53679 55.854989 L 146.53679 62.565173 C 148.50397 57.735318 154.6303 53.852708 163.33112 57.216663 L 161.29351 62.521765 C 153.32692 58.767692 146.53679 62.060809 146.53679 70.843738 L 146.53679 88.967179 C 146.53679 89.83017 146.72523 91.570207 147.24579 92.687366 L 139.27315 92.687366 C 140.07881 91.702217 140.45189 89.83017 140.45189 88.967179 L 140.45189 62.825106 C 140.44991 60.927709 140.0614 57.993327 138.86284 57.045614 L 146.53679 55.854989 z M 211.53593 55.86274 C 219.74395 55.86274 225.19814 59.935979 225.19814 69.387496 L 225.19814 85.069226 C 225.19814 87.974101 225.24163 90.724952 226.28541 92.655843 L 219.6884 92.655843 L 219.45017 88.531547 C 216.95383 91.733937 213.96668 93.166406 208.89991 93.166406 C 198.9033 93.166406 196.71978 86.383751 196.71978 83.126192 C 196.71978 71.493556 207.87007 71.359903 212.7126 70.674239 C 215.3915 70.297912 218.83673 69.545321 219.35664 67.052238 C 220.21058 62.927749 217.24122 59.833557 211.17367 59.833557 C 206.71809 59.833557 203.07107 61.17967 200.02242 62.988403 L 200.02035 57.707589 C 203.19601 56.444628 208.32256 55.86274 211.53593 55.86274 z M 333.70056 55.86274 C 341.9033 55.86274 347.35864 59.935979 347.35864 69.387496 L 347.35864 85.069226 C 347.35864 87.974101 346.71972 90.665843 348.44281 92.655843 L 341.8458 92.655843 L 341.60551 88.531547 C 339.10652 91.733937 336.12614 93.166406 331.05938 93.166406 C 321.06608 93.166406 318.88131 86.383751 318.88131 83.126192 C 318.88131 71.493556 330.03049 71.359903 334.87103 70.674239 C 337.5506 70.297912 341.00009 69.545321 341.51404 67.052238 C 342.3693 62.927749 339.40104 59.833557 333.32952 59.833557 C 328.87791 59.833557 325.22994 61.17967 322.1793 62.988403 L 322.1793 57.707589 L 322.18188 57.707589 C 325.35887 56.444628 330.4872 55.86274 333.70056 55.86274 z M 247.61486 55.967643 C 252.86617 55.967643 256.13509 58.148834 258.14393 60.476412 C 260.50335 58.428616 263.61379 56.050326 268.99805 56.050326 C 278.25251 56.050326 282.21792 62.229973 282.21792 66.088472 L 282.21792 88.716549 C 282.21792 89.577569 282.58505 91.670694 283.39666 92.655843 L 275.48396 92.655843 C 276.29358 91.672665 276.6627 89.579539 276.6627 88.716549 L 276.6627 69.698588 C 276.6627 62.738184 272.58055 60.304846 268.67662 60.304846 C 264.76278 60.304846 259.96191 61.98356 259.96191 69.698588 L 259.96191 88.716549 C 259.96191 89.577569 260.33293 91.670694 261.13858 92.655843 L 252.92358 92.655843 C 253.72725 91.672665 254.10129 89.579539 254.10129 88.716549 L 254.10129 69.698588 C 254.10129 61.98159 250.57251 60.304846 246.6666 60.304846 C 242.34992 60.304846 238.01545 62.740154 238.01545 69.698588 L 238.01545 88.714998 C 238.01545 89.577989 238.38845 91.670694 239.19212 92.655843 L 230.72132 92.655843 C 231.52896 91.670694 231.90006 89.577989 231.90006 88.714998 L 231.90006 63.439539 C 231.90006 61.268271 231.18148 58.229684 230.24486 57.254386 L 238.01545 56.062211 C 238.01545 56.546904 237.99943 60.332788 237.99943 60.754431 C 239.4758 58.943071 242.49848 55.965673 247.61486 55.967643 z M 178.87539 55.977462 C 189.23712 55.977462 193.61351 63.42798 193.61351 72.112394 L 168.16803 72.112394 C 168.06881 72.926784 167.94971 73.766304 167.94375 74.645056 C 167.91002 83.181698 172.8819 88.783728 180.67321 88.783728 C 185.00973 88.783728 189.81283 87.345264 192.7841 84.91523 L 191.56143 91.076095 C 188.08614 92.283887 184.86677 93.225317 181.01841 93.225317 C 168.84097 93.225317 161.73173 84.615664 161.73173 74.983537 C 161.73173 64.330139 168.1181 55.977462 178.87539 55.977462 z M 305.26819 56.02087 C 310.15835 56.02087 313.72925 57.210757 315.16991 57.616638 L 315.15802 62.515564 C 312.68285 61.081187 308.77666 59.943628 306.05212 59.943628 C 296.48413 59.943628 292.09742 65.785122 292.09742 74.199605 C 292.09742 82.535277 296.38436 88.919637 305.74465 88.919637 C 308.94941 88.919637 313.31576 87.489158 316.70573 85.421659 L 315.32649 91.554618 C 311.87699 92.573262 308.97119 93.057886 305.12349 93.057886 C 291.97239 93.057886 285.80839 83.798369 285.80839 74.160331 C 285.80839 63.510874 294.07632 56.02087 305.26819 56.02087 z M 178.45112 59.731238 C 173.73758 59.731238 169.79968 64.034942 168.97418 68.259916 C 168.97418 68.273708 187.73333 68.259916 187.73531 68.259916 C 187.73531 65.310381 185.65175 59.731238 178.45112 59.731238 z M 219.68013 72.611072 C 218.57087 73.648105 216.24941 74.451668 213.85361 74.764945 C 207.55455 75.584589 202.09826 76.622828 202.09826 82.714331 C 202.09826 86.326543 206.06753 89.171818 209.20945 89.171818 C 217.53125 89.171818 219.68271 83.208913 219.68271 78.513037 L 219.68271 72.611072 L 219.68013 72.611072 z M 341.84167 72.611072 C 340.7324 73.648105 338.4102 74.451668 336.01308 74.764945 C 329.71534 75.584589 324.26134 76.622828 324.26134 82.714331 C 324.26134 86.326543 328.227 89.171818 331.36892 89.171818 C 339.68874 89.171818 341.84167 83.208913 341.84167 78.513037 L 341.84167 72.611072 z " /><g
       transform="matrix(0.66145833,0,0,0.65676646,128.22521,165.62887)"
       id="g1767"
       style="stroke-width:0.176" /></g><style
     type="text/css"
     id="style307">
	.st0{fill-rule:evenodd;clip-rule:evenodd;fill:#FFFFFF;}
	.st1{fill:#FFFFFF;}
	.st2{fill-rule:evenodd;clip-rule:evenodd;}
</style><style
     type="text/css"
     id="style512">
	.st0{fill-rule:evenodd;clip-rule:evenodd;fill:#FFFFFF;}
	.st1{fill:#FFFFFF;}
	.st2{fill-rule:evenodd;clip-rule:evenodd;}
</style><style
     type="text/css"
     id="style524">
	.st0{fill:none;stroke:#000000;stroke-width:54.1005;stroke-miterlimit:10;}
	.st1{fill:none;stroke:#000000;stroke-width:55.7397;stroke-miterlimit:10;}
	.st2{fill:#FFEF00;}
	.st3{fill:url(#SVGID_1_);}
	.st4{fill:#FFFFFF;}
	.st5{fill:url(#SVGID_2_);}
	.st6{fill:url(#SVGID_3_);}
	.st7{fill:url(#SVGID_4_);}
	.st8{fill:url(#SVGID_5_);}
	.st9{fill:url(#SVGID_6_);}
	.st10{fill:url(#SVGID_7_);}
	.st11{fill:url(#SVGID_8_);}
	.st12{fill:url(#SVGID_9_);}
	.st13{fill:url(#SVGID_10_);}
	.st14{fill:url(#SVGID_11_);}
	.st15{fill:url(#SVGID_12_);}
	.st16{fill:url(#SVGID_13_);}
	.st17{fill:url(#SVGID_14_);}
	.st18{fill:url(#SVGID_15_);}
	.st19{fill:url(#SVGID_16_);}
	.st20{fill:url(#SVGID_17_);}
	.st21{fill:url(#SVGID_18_);}
	.st22{fill:url(#SVGID_19_);}
	.st23{fill:url(#SVGID_20_);}
	.st24{fill:url(#SVGID_21_);}
</style></svg>
