<?xml version="1.0" encoding="UTF-8" standalone="no"?>
<!-- Created with Inkscape (http://www.inkscape.org/) -->

<svg
   width="1500"
   height="500"
   viewBox="0 0 396.87498 132.29167"
   version="1.1"
   id="svg5"
   inkscape:version="1.2.2 (732a01da63, 2022-12-09)"
   xml:space="preserve"
   sodipodi:docname="easyrpg.svg"
   xmlns:inkscape="http://www.inkscape.org/namespaces/inkscape"
   xmlns:sodipodi="http://sodipodi.sourceforge.net/DTD/sodipodi-0.dtd"
   xmlns="http://www.w3.org/2000/svg"
   xmlns:svg="http://www.w3.org/2000/svg"><sodipodi:namedview
     id="namedview7"
     pagecolor="#000000"
     bordercolor="#111111"
     borderopacity="1"
     inkscape:showpageshadow="0"
     inkscape:pageopacity="0"
     inkscape:pagecheckerboard="1"
     inkscape:deskcolor="#d1d1d1"
     inkscape:document-units="mm"
     showgrid="false"
     inkscape:zoom="0.62760417"
     inkscape:cx="673.9917"
     inkscape:cy="208.73029"
     inkscape:window-width="1920"
     inkscape:window-height="1009"
     inkscape:window-x="-8"
     inkscape:window-y="-8"
     inkscape:window-maximized="1"
     inkscape:current-layer="layer1" /><defs
     id="defs2">
		
	
		
		
		
	
		
		
		
		
		
		
		
		
		
		
	
			
			
			
			
			
			
			
		</defs><g
     inkscape:label="Layer 1"
     inkscape:groupmode="layer"
     id="layer1"><path
       id="rect231"
       style="fill:#ffffff;stroke-width:0.8001;stroke-linecap:square;paint-order:fill markers stroke"
       d="M 0 0 L 0 50.099268 C 0 43.949215 1.2611424 38.310318 3.7821981 33.184021 C 6.3032538 28.059228 9.9759052 24.001868 14.79703 21.016288 C 19.616652 18.030709 25.303794 16.536458 31.849219 16.536458 C 40.167049 16.536458 46.91234 18.986725 52.086743 23.890531 C 57.262649 28.795841 59.850094 35.568333 59.850094 44.215389 C 59.850094 46.444802 59.674158 48.585573 59.319377 50.633085 L 12.208557 50.633085 C 13.005313 59.101247 15.569691 65.118885 19.905245 68.686247 C 24.242303 72.252105 29.815194 74.035274 36.626705 74.035274 C 43.438216 74.035274 49.675761 72.742186 55.338741 70.157992 L 56.930375 79.649919 C 49.409301 83.036883 42.157251 84.732812 35.166846 84.732812 C 27.73597 84.732812 21.389199 83.194919 16.124597 80.119141 C 10.858491 77.043362 6.8580236 72.874616 4.1144775 67.616028 C 1.3694282 62.357439 -6.2665859e-16 56.51691 0 50.099268 L 0 132.29167 L 396.875 132.29167 L 396.875 84.230518 C 394.2878 85.768407 390.97904 87.038992 386.95468 88.043205 C 382.95135 89.045914 378.6607 89.546472 374.08311 89.546472 C 366.78302 89.546472 360.50385 88.043155 355.23775 85.032019 C 349.9536 82.02389 345.91555 77.769408 343.12841 72.262773 C 340.34127 66.736594 338.94934 60.295161 338.94934 52.940955 C 338.94934 45.720543 340.48413 39.346336 343.55991 33.820158 C 346.65523 28.313523 350.95946 24.058994 356.4661 21.049361 C 361.97273 18.041232 368.27741 16.536458 375.37605 16.536458 C 378.95995 16.536458 382.44314 16.90463 385.8271 17.63975 C 389.21105 18.37487 392.13031 19.377536 394.58522 20.647835 L 393.19202 32.883264 C 387.4193 30.208871 381.48101 28.871106 375.37605 28.871106 C 367.94518 28.871106 362.33771 31.067594 358.55538 35.457267 C 354.77304 39.825895 352.88337 45.586701 352.88337 52.740967 C 352.88337 60.161319 354.73997 66.102148 358.45616 70.557967 C 362.17235 74.994243 367.54675 77.210274 374.58075 77.210274 C 377.43404 77.210274 380.61797 76.842149 384.13573 76.108533 L 384.13573 63.572347 L 374.58075 63.572347 L 374.58075 52.940955 L 396.875 52.940955 L 396.875 0 L 0 0 z M 85.928088 16.536458 C 91.500869 16.536458 95.945897 17.516574 99.263708 19.478398 C 102.58152 21.441724 105.01412 24.693541 106.56404 29.239559 C 108.11245 33.78708 108.88483 40.027398 108.88483 47.96038 L 108.88483 61.330623 C 108.88483 64.897985 109.04122 67.593574 109.3494 69.421602 C 109.65908 71.249631 110.34483 72.653588 111.40767 73.633748 C 112.12777 74.297748 113.11898 74.732762 114.36873 74.947363 L 115.32216 67.349894 C 117.09006 68.953929 119.81134 70.467676 123.48394 71.89432 C 127.15653 73.32397 131.20308 74.035274 135.62583 74.035274 C 139.78249 74.035274 142.99099 73.32397 145.24747 71.89432 C 147.50394 70.467676 148.63124 68.462344 148.63124 65.878149 C 148.63124 62.845967 147.39415 60.552234 144.91519 58.993298 C 142.43773 57.431356 139.34202 56.117128 135.62583 55.046769 C 131.55486 53.97641 128.12734 52.841312 125.3417 51.637158 C 122.55456 50.433005 120.16612 48.585662 118.17573 46.08866 C 116.18535 43.590154 115.18832 40.293191 115.18832 36.193656 C 115.18832 30.577279 117.18031 25.895902 121.16108 22.152653 C 125.14185 18.407901 131.29066 16.536458 139.60698 16.536458 C 143.41337 16.536458 146.6409 16.91365 149.29425 17.672823 C 151.9491 18.431996 154.60222 19.478352 157.25707 20.8163 L 155.79773 31.779972 C 153.67354 29.998547 151.32818 28.594589 148.76353 27.567826 C 146.19888 26.541064 143.23302 26.031486 139.87312 26.031486 C 135.98104 26.031486 132.90488 26.764776 130.64991 28.236519 C 128.39343 29.706759 127.26613 31.91377 127.26613 34.855754 C 127.26613 36.817577 127.79695 38.399114 128.85828 39.603267 C 129.91962 40.805918 131.42285 41.808583 133.36964 42.611353 C 135.31793 43.412618 138.32292 44.439384 142.39389 45.687134 C 147.436 47.20097 151.79285 49.340237 155.46545 52.10483 C 159.13804 54.869422 160.97364 59.236794 160.97364 65.209456 C 160.97364 70.558244 159.09144 75.149328 155.33315 78.982776 C 151.57337 82.816224 145.18093 84.732813 136.15655 84.732812 C 131.02424 84.732812 126.53557 84.129888 122.68708 82.927238 C 120.24965 82.164588 118.17866 81.357653 116.46886 80.506197 L 115.65289 84.732812 L 114.72375 84.732812 C 111.00906 84.732812 108.08981 84.375164 105.96562 83.662594 C 103.84295 82.950023 102.22693 81.924761 101.12199 80.586812 C 100.01706 79.248864 98.974977 77.420595 98.003837 75.105493 C 92.519752 81.523136 85.884203 84.732812 78.097042 84.732812 C 72.082287 84.732812 67.238739 82.949643 63.566146 79.383785 C 59.893552 75.816423 58.059505 71.270486 58.059505 65.744307 C 58.059505 57.453537 61.950185 51.527742 69.737345 47.96038 C 77.524506 44.393019 86.591107 42.52106 96.94292 42.343669 C 96.94292 36.459702 95.813553 32.471589 93.55708 30.377474 C 91.302111 28.280353 87.695652 27.233997 82.742236 27.233997 C 79.99869 27.233997 77.258378 27.657838 74.514832 28.504203 C 71.771286 29.349065 68.808388 30.886912 65.622868 33.116325 L 63.898425 23.35568 C 66.551773 21.306665 69.827407 19.655928 73.717981 18.408179 C 77.610058 17.161932 81.681229 16.536458 85.928088 16.536458 z M 156.52636 17.874361 L 169.7979 17.874361 L 190.10157 66.547359 L 208.41519 17.874361 L 221.68621 17.874361 L 181.87417 115.75521 L 168.60263 115.75521 L 183.59965 80.45297 L 156.52636 17.874361 z M 228.13853 17.940507 L 253.61811 17.940507 C 261.05049 17.940507 266.91211 19.735703 271.20257 23.322607 C 275.47198 26.889969 277.60528 32.18127 277.60528 39.201742 C 277.60528 44.082999 276.57673 48.083702 274.52019 51.203076 C 272.46216 54.301404 269.54286 56.78479 265.76052 58.657918 L 281.48669 88.142424 L 267.25449 88.142424 L 253.8181 62.067529 L 253.32045 62.067529 L 240.87884 62.067529 L 240.87884 88.142424 L 228.13853 88.142424 L 228.13853 17.940507 z M 287.12718 17.940507 L 311.90913 17.940507 C 328.43204 17.940507 336.69263 25.494489 336.69263 40.60579 C 336.69263 48.427527 334.60344 54.245506 330.42273 58.056405 C 326.24201 61.867303 320.17138 63.772335 312.20833 63.772335 L 299.86593 63.772335 L 299.86593 88.142424 L 287.12718 88.142424 L 287.12718 17.940507 z M 31.584635 27.233997 C 26.452325 27.233997 22.427804 28.504535 19.50837 31.045133 C 16.587433 33.585732 14.508251 37.35267 13.271025 42.343669 L 47.509245 42.343669 C 47.509245 37.620259 46.181909 33.919515 43.527059 31.245121 C 40.873712 28.572231 36.892833 27.233997 31.584635 27.233997 z M 240.87884 28.671118 L 240.87884 51.336918 L 250.23434 51.336918 C 259.59096 51.336918 264.26759 47.525821 264.26759 39.904024 C 264.26759 36.226921 263.20648 33.441039 261.08381 31.545361 C 258.95962 29.630141 255.50951 28.671118 250.73198 28.671118 L 240.87884 28.671118 z M 299.86593 28.671118 L 299.86593 53.041207 L 310.7154 53.041207 C 315.09455 53.041207 318.36868 52.038494 320.53496 50.031571 C 322.68169 48.026152 323.75388 44.951915 323.75388 40.805778 C 323.75388 36.661144 322.65914 33.595927 320.46881 31.613057 C 318.27999 29.651234 314.92914 28.671118 310.41619 28.671118 L 299.86593 28.671118 z M 96.94292 50.633085 C 87.387863 50.990874 80.552326 52.262962 76.439262 54.445772 C 72.324694 56.628583 70.268062 60.171808 70.268062 65.075614 C 70.268062 68.462578 71.174328 70.983595 72.988826 72.631226 C 74.803325 74.278857 77.25843 75.105493 80.353752 75.105493 C 83.539272 75.105493 86.613415 74.30291 89.576444 72.697371 C 92.539474 71.093337 94.994626 68.954069 96.94292 66.279675 L 96.94292 50.633085 z " /><g
       id="g1808"
       transform="matrix(1.5033144,0,0,1.5033144,-1.6000001e-6,14.096581)"
       style="stroke-width:0.176" /></g><style
     type="text/css"
     id="style307">
	.st0{fill-rule:evenodd;clip-rule:evenodd;fill:#FFFFFF;}
	.st1{fill:#FFFFFF;}
	.st2{fill-rule:evenodd;clip-rule:evenodd;}
</style><style
     type="text/css"
     id="style512">
	.st0{fill-rule:evenodd;clip-rule:evenodd;fill:#FFFFFF;}
	.st1{fill:#FFFFFF;}
	.st2{fill-rule:evenodd;clip-rule:evenodd;}
</style><style
     type="text/css"
     id="style524">
	.st0{fill:none;stroke:#000000;stroke-width:54.1005;stroke-miterlimit:10;}
	.st1{fill:none;stroke:#000000;stroke-width:55.7397;stroke-miterlimit:10;}
	.st2{fill:#FFEF00;}
	.st3{fill:url(#SVGID_1_);}
	.st4{fill:#FFFFFF;}
	.st5{fill:url(#SVGID_2_);}
	.st6{fill:url(#SVGID_3_);}
	.st7{fill:url(#SVGID_4_);}
	.st8{fill:url(#SVGID_5_);}
	.st9{fill:url(#SVGID_6_);}
	.st10{fill:url(#SVGID_7_);}
	.st11{fill:url(#SVGID_8_);}
	.st12{fill:url(#SVGID_9_);}
	.st13{fill:url(#SVGID_10_);}
	.st14{fill:url(#SVGID_11_);}
	.st15{fill:url(#SVGID_12_);}
	.st16{fill:url(#SVGID_13_);}
	.st17{fill:url(#SVGID_14_);}
	.st18{fill:url(#SVGID_15_);}
	.st19{fill:url(#SVGID_16_);}
	.st20{fill:url(#SVGID_17_);}
	.st21{fill:url(#SVGID_18_);}
	.st22{fill:url(#SVGID_19_);}
	.st23{fill:url(#SVGID_20_);}
	.st24{fill:url(#SVGID_21_);}
</style></svg>
