<?xml version="1.0" encoding="UTF-8" standalone="no"?>
<!-- Created with Inkscape (http://www.inkscape.org/) -->

<svg
   width="1500"
   height="500"
   viewBox="0 0 396.87498 132.29167"
   version="1.1"
   id="svg5"
   inkscape:version="1.2.2 (732a01da63, 2022-12-09)"
   xml:space="preserve"
   sodipodi:docname="electron.svg"
   xmlns:inkscape="http://www.inkscape.org/namespaces/inkscape"
   xmlns:sodipodi="http://sodipodi.sourceforge.net/DTD/sodipodi-0.dtd"
   xmlns="http://www.w3.org/2000/svg"
   xmlns:svg="http://www.w3.org/2000/svg"><sodipodi:namedview
     id="namedview7"
     pagecolor="#000000"
     bordercolor="#111111"
     borderopacity="1"
     inkscape:showpageshadow="0"
     inkscape:pageopacity="0"
     inkscape:pagecheckerboard="1"
     inkscape:deskcolor="#d1d1d1"
     inkscape:document-units="mm"
     showgrid="false"
     inkscape:zoom="0.62760417"
     inkscape:cx="673.9917"
     inkscape:cy="208.73029"
     inkscape:window-width="1920"
     inkscape:window-height="1009"
     inkscape:window-x="-8"
     inkscape:window-y="-8"
     inkscape:window-maximized="1"
     inkscape:current-layer="layer1" /><defs
     id="defs2">
		
	
		
		
		
	
		
		
		
		
		
		
		
		
		
		
	
			
			
			
			
			
			
			
		</defs><g
     inkscape:label="Layer 1"
     inkscape:groupmode="layer"
     id="layer1"><path
       id="rect231"
       style="fill:#ffffff;stroke-width:0.8001;stroke-linecap:square;paint-order:fill markers stroke"
       d="M 0 0 L 0 74.322078 C 1.4687311e-17 71.656585 0.96115901 69.588383 2.8835449 68.118323 C 4.8059309 66.648263 7.5201563 65.913289 11.025684 65.913289 L 17.277498 65.913289 L 17.277498 64.144405 C 17.277498 62.18971 16.679759 60.679612 15.484326 59.613416 C 14.305047 58.531064 12.640931 57.989742 10.492383 57.989742 C 8.7153871 57.989742 7.3018573 58.393313 6.2518148 59.201038 C 5.201772 60.008763 4.5476159 61.204241 4.2891439 62.787382 L 1.9869588 62.787382 L 1.9869588 57.577881 C 3.5377912 56.915546 5.0402719 56.422508 6.4941772 56.099418 C 7.9642372 55.760174 9.394034 55.590922 10.783321 55.590922 C 14.353467 55.590922 17.067175 56.479397 18.924943 58.256392 C 20.798865 60.017233 21.736141 62.585574 21.736141 65.961865 L 21.736141 79.483521 L 25.710059 79.483521 L 25.710059 82.051839 L 17.277498 82.051839 L 17.277498 79.264929 C 16.292074 80.460362 15.153013 81.341221 13.860653 81.906628 C 12.568292 82.472036 11.057678 82.754639 9.3291463 82.754639 C 6.4697992 82.754639 4.200328 81.995265 2.5202596 80.476742 C 0.84019122 78.958218 -3.133293e-16 76.906799 0 74.322078 L 0 132.29167 L 396.875 132.29167 L 396.875 82.051839 L 384.56516 82.051839 L 384.56516 79.483521 L 388.41815 79.483521 L 388.41815 67.076526 C 388.41815 63.926398 388.03033 61.769761 387.25492 60.606637 C 386.4795 59.427358 385.11425 58.837752 383.15956 58.837752 C 381.09178 58.837752 379.51713 59.597126 378.43478 61.115649 C 377.35243 62.618019 376.81111 64.814806 376.81111 67.706462 L 376.81111 79.483521 L 380.68839 79.483521 L 380.68839 82.051839 L 368.32997 82.051839 L 368.32997 79.483521 L 372.35247 79.483521 L 372.35247 58.886328 L 368.08761 58.886328 L 368.08761 56.293205 L 376.81111 56.293205 L 376.81111 60.873287 C 377.63499 59.128601 378.70137 57.812155 380.00988 56.923657 C 381.33455 56.03516 382.86904 55.590922 384.61373 55.590922 C 387.45693 55.590922 389.54901 56.406713 390.88984 58.038318 C 392.23066 59.669923 392.90108 62.213863 392.90108 65.670927 L 392.90108 79.483521 L 396.875 79.483521 L 396.875 0 L 0 0 z M 165.94749 30.718538 C 166.78029 30.746376 167.61249 30.884252 168.47137 31.158305 C 171.05692 31.996471 172.55657 32.941551 174.84824 35.179248 C 177.9273 38.185911 180.43444 42.512311 182.37491 48.166052 C 183.5458 51.57757 184.4903 56.295225 184.95615 61.060356 C 185.15513 63.093038 185.2929 65.01516 185.26259 65.331413 L 185.20782 65.907088 L 165.3744 65.824406 L 145.5415 65.74224 L 145.48208 65.249247 C 145.39971 64.576644 145.75737 60.163367 146.0407 58.349927 C 146.16787 57.536983 146.31637 56.539286 146.37039 56.132491 C 146.6221 54.244031 147.60903 50.334526 148.48603 47.754708 C 149.3973 45.073999 150.29375 43.097878 151.71632 40.633179 C 153.03282 38.351504 154.00593 37.061231 155.74347 35.295003 C 157.6253 33.382613 159.49311 32.142631 161.64905 31.374312 C 163.16948 30.9313 164.55949 30.672143 165.94749 30.718538 z M 221.14619 44.347164 L 229.89398 44.347164 L 229.89398 79.483521 L 234.11026 79.483521 L 234.11026 82.051839 L 221.14619 82.051839 L 221.14619 79.483521 L 225.43534 79.483521 L 225.43534 46.915999 L 221.14619 46.915999 L 221.14619 44.347164 z M 298.10635 48.296794 L 302.58928 48.296794 L 302.58928 56.293205 L 310.97327 56.293205 L 310.97327 58.886328 L 302.58928 58.886328 L 302.58928 75.242952 C 302.58928 77.42381 302.7992 78.821073 303.21922 79.434945 C 303.63924 80.048816 304.41436 80.355819 305.54517 80.355819 C 306.7083 80.355819 307.55662 80.016282 308.08972 79.337793 C 308.62282 78.643149 308.90542 77.528489 308.93773 75.993811 L 312.306 75.993811 C 312.17676 78.336214 311.53888 80.048613 310.39191 81.130965 C 309.24494 82.213317 307.5 82.754639 305.1576 82.754639 C 302.58904 82.754639 300.77194 82.188917 299.70574 81.058101 C 298.63954 79.911132 298.10635 77.973064 298.10635 75.242952 L 298.10635 58.886328 L 294.18049 58.886328 L 294.18049 56.293205 L 298.10635 56.293205 L 298.10635 48.296794 z M 42.042395 55.590922 C 43.674 55.590922 45.297448 55.784574 46.912899 56.172282 C 48.528349 56.543836 50.151797 57.117174 51.783403 57.89259 L 51.783403 64.483919 L 49.190279 64.483919 C 48.851035 62.222289 48.107928 60.57444 46.960958 59.540552 C 45.830143 58.506664 44.206694 57.989742 42.090454 57.989742 C 39.683433 57.989742 37.866333 58.926501 36.63859 60.800423 C 35.410848 62.658191 34.796842 65.445101 34.796842 69.160636 C 34.796842 72.876173 35.402715 75.670698 36.614303 77.544621 C 37.842045 79.418543 39.667279 80.355819 42.090454 80.355819 C 44.01284 80.355819 45.547855 79.854647 46.694824 78.853068 C 47.841794 77.851489 48.625051 76.341391 49.045068 74.322078 L 52.631413 74.322078 C 52.001387 77.068344 50.789643 79.16043 48.996493 80.598181 C 47.203343 82.035932 44.885588 82.754639 42.042395 82.754639 C 38.29455 82.754639 35.281455 81.518494 33.00367 79.046855 C 30.725885 76.559061 29.586825 73.263881 29.586825 69.160636 C 29.586825 65.041238 30.725885 61.753674 33.00367 59.298189 C 35.281455 56.82655 38.29455 55.590922 42.042395 55.590922 z M 69.836047 55.590922 C 73.600048 55.590922 76.612625 56.82655 78.874255 59.298189 C 81.15204 61.769828 82.291101 65.057393 82.291101 69.160636 C 82.291101 73.263881 81.15204 76.559061 78.874255 79.046855 C 76.612625 81.518494 73.600048 82.754639 69.836047 82.754639 C 66.088202 82.754639 63.075108 81.518494 60.797323 79.046855 C 58.519538 76.559061 57.380994 73.263881 57.380994 69.160636 C 57.380994 65.057393 58.511921 61.769828 60.773551 59.298189 C 63.051336 56.82655 66.072048 55.590922 69.836047 55.590922 z M 103.68773 55.590922 C 104.41468 55.590922 105.17406 55.647339 105.96562 55.760421 C 106.77335 55.873502 107.62116 56.035137 108.50966 56.245146 L 108.50966 62.690747 L 105.94134 62.690747 C 105.86057 61.414541 105.50528 60.461516 104.87525 59.83149 C 104.24523 59.201464 103.32422 58.886328 102.11263 58.886328 C 99.915617 58.886328 98.227618 59.645702 97.04834 61.164225 C 95.885216 62.682748 95.303743 64.863269 95.303743 67.706462 L 95.303743 79.483521 L 100.46519 79.483521 L 100.46519 82.051839 L 86.822607 82.051839 L 86.822607 79.483521 L 90.845101 79.483521 L 90.845101 58.837752 L 86.580245 58.837752 L 86.580245 56.293205 L 95.303743 56.293205 L 95.303743 60.873287 C 96.176084 59.080137 97.298878 57.755558 98.672013 56.899369 C 100.04514 56.027026 101.71688 55.590922 103.68773 55.590922 z M 126.82895 55.590922 C 129.67214 55.590922 131.76423 56.406713 133.10505 58.038318 C 134.44588 59.669923 135.1163 62.213863 135.1163 65.670927 L 135.1163 79.483521 L 139.09022 79.483521 L 139.09022 82.051839 L 126.78089 82.051839 L 126.78089 79.483521 L 130.63337 79.483521 L 130.63337 67.076526 C 130.63337 63.926398 130.24606 61.769761 129.47065 60.606637 C 128.69523 59.427358 127.32999 58.837752 125.37529 58.837752 C 123.30751 58.837752 121.73235 59.597126 120.65 61.115649 C 119.56765 62.618019 119.02633 64.814806 119.02633 67.706462 L 119.02633 79.483521 L 122.90361 79.483521 L 122.90361 82.051839 L 110.54519 82.051839 L 110.54519 79.483521 L 114.56768 79.483521 L 114.56768 58.886328 L 110.30283 58.886328 L 110.30283 56.293205 L 119.02633 56.293205 L 119.02633 60.873287 C 119.85021 59.128601 120.91658 57.812155 122.2251 56.923657 C 123.54977 56.03516 125.08426 55.590922 126.82895 55.590922 z M 205.03193 55.590922 C 208.92516 55.590922 211.91386 56.794017 213.99779 59.201038 C 216.08172 61.591904 217.16385 65.073637 217.24462 69.645361 L 198.02926 69.645361 L 198.02926 69.839148 C 198.02926 73.312366 198.68341 75.937124 199.99193 77.714119 C 201.30044 79.47496 203.2309 80.355819 205.7833 80.355819 C 207.738 80.355819 209.33705 79.846514 210.58094 78.82878 C 211.841 77.794892 212.72134 76.268528 213.22213 74.249215 L 216.80847 74.249215 C 216.09767 77.076253 214.78123 79.200356 212.85884 80.621952 C 210.95261 82.043549 208.44068 82.754639 205.32287 82.754639 C 201.55887 82.754639 198.53002 81.518494 196.23608 79.046855 C 193.9583 76.559061 192.81924 73.263881 192.81924 69.160636 C 192.81924 65.089702 193.94203 61.810271 196.18751 59.322477 C 198.43298 56.834684 201.38101 55.590922 205.03193 55.590922 z M 250.27258 55.590922 C 254.16582 55.590922 257.15451 56.794017 259.23844 59.201038 C 261.32237 61.591904 262.40502 65.073637 262.48579 69.645361 L 243.26991 69.645361 L 243.26991 69.839148 C 243.26991 73.312366 243.92406 75.937124 245.23258 77.714119 C 246.54109 79.47496 248.47154 80.355819 251.02395 80.355819 C 252.97865 80.355819 254.5777 79.846514 255.82159 78.82878 C 257.08164 77.794892 257.9625 76.268528 258.46329 74.249215 L 262.04912 74.249215 C 261.33832 77.076253 260.02188 79.200356 258.09949 80.621952 C 256.19326 82.043549 253.68133 82.754639 250.56352 82.754639 C 246.79952 82.754639 243.77067 81.518494 241.47673 79.046855 C 239.19895 76.559061 238.05989 73.263881 238.05989 69.160636 C 238.05989 65.089702 239.18268 61.810271 241.42816 59.322477 C 243.67363 56.834684 246.62166 55.590922 250.27258 55.590922 z M 279.88421 55.590922 C 281.51581 55.590922 283.13926 55.784574 284.75471 56.172282 C 286.37016 56.543836 287.99361 57.117174 289.62522 57.89259 L 289.62522 64.483919 L 287.03209 64.483919 C 286.69285 62.222289 285.94974 60.57444 284.80277 59.540552 C 283.67196 58.506664 282.04851 57.989742 279.93227 57.989742 C 277.52525 57.989742 275.70815 58.926501 274.4804 60.800423 C 273.25266 62.658191 272.63866 65.445101 272.63866 69.160636 C 272.63866 72.876173 273.24453 75.670698 274.45612 77.544621 C 275.68386 79.418543 277.50909 80.355819 279.93227 80.355819 C 281.85466 80.355819 283.38967 79.854647 284.53664 78.853068 C 285.68361 77.851489 286.46687 76.341391 286.88688 74.322078 L 290.47323 74.322078 C 289.8432 77.068344 288.63145 79.16043 286.83831 80.598181 C 285.04516 82.035932 282.7274 82.754639 279.88421 82.754639 C 276.13637 82.754639 273.12327 81.518494 270.84548 79.046855 C 268.5677 76.559061 267.42864 73.263881 267.42864 69.160636 C 267.42864 65.041238 268.5677 61.753674 270.84548 59.298189 C 273.12327 56.82655 276.13637 55.590922 279.88421 55.590922 z M 331.59475 55.590922 C 332.3217 55.590922 333.08056 55.647339 333.87213 55.760421 C 334.67986 55.873502 335.52818 56.035137 336.41667 56.245146 L 336.41667 62.690747 L 333.84836 62.690747 C 333.76758 61.414541 333.41178 60.461516 332.78175 59.83149 C 332.15173 59.201464 331.23124 58.886328 330.01965 58.886328 C 327.82264 58.886328 326.13412 59.645702 324.95484 61.164225 C 323.79172 62.682748 323.21025 64.863269 323.21025 67.706462 L 323.21025 79.483521 L 328.37169 79.483521 L 328.37169 82.051839 L 314.72911 82.051839 L 314.72911 79.483521 L 318.7516 79.483521 L 318.7516 58.837752 L 314.48675 58.837752 L 314.48675 56.293205 L 323.21025 56.293205 L 323.21025 60.873287 C 324.08259 59.080137 325.20538 57.755558 326.57852 56.899369 C 327.95165 56.027026 329.6239 55.590922 331.59475 55.590922 z M 351.34341 55.590922 C 355.10741 55.590922 358.12051 56.82655 360.38214 59.298189 C 362.65992 61.769828 363.79847 65.057393 363.79847 69.160636 C 363.79847 73.263881 362.65992 76.559061 360.38214 79.046855 C 358.12051 81.518494 355.10741 82.754639 351.34341 82.754639 C 347.59557 82.754639 344.58299 81.518494 342.3052 79.046855 C 340.02742 76.559061 338.88836 73.263881 338.88836 69.160636 C 338.88836 65.057393 340.01929 61.769828 342.28092 59.298189 C 344.5587 56.82655 347.57941 55.590922 351.34341 55.590922 z M 69.836047 57.989742 C 67.445181 57.989742 65.635697 58.934634 64.407955 60.824711 C 63.196367 62.698634 62.590495 65.47741 62.590495 69.160636 C 62.590495 72.843863 63.204501 75.630256 64.432243 77.520333 C 65.659985 79.41041 67.461335 80.355819 69.836047 80.355819 C 72.226913 80.355819 74.028265 79.41041 75.239852 77.520333 C 76.467593 75.630256 77.081083 72.843863 77.081083 69.160636 C 77.081083 65.47741 76.467593 62.698634 75.239852 60.824711 C 74.028265 58.934634 72.226913 57.989742 69.836047 57.989742 z M 205.03193 57.989742 C 202.98031 57.989742 201.36499 58.757249 200.18571 60.291927 C 199.00644 61.826605 198.28773 64.087943 198.02926 67.076526 L 211.98654 67.076526 C 211.88962 64.071788 211.25173 61.81045 210.07245 60.291927 C 208.90932 58.757249 207.22894 57.989742 205.03193 57.989742 z M 250.27258 57.989742 C 248.22096 57.989742 246.60564 58.757249 245.42636 60.291927 C 244.24708 61.826605 243.52838 64.087943 243.26991 67.076526 L 257.22719 67.076526 C 257.13026 64.071788 256.49238 61.81045 255.3131 60.291927 C 254.14997 58.757249 252.46959 57.989742 250.27258 57.989742 z M 351.34341 57.989742 C 348.95255 57.989742 347.14307 58.934634 345.91532 60.824711 C 344.70373 62.698634 344.09838 65.47741 344.09838 69.160636 C 344.09838 72.843863 344.71187 75.630256 345.93961 77.520333 C 347.16735 79.41041 348.9687 80.355819 351.34341 80.355819 C 353.73428 80.355819 355.53563 79.41041 356.74722 77.520333 C 357.97496 75.630256 358.58896 72.843863 358.58896 69.160636 C 358.58896 65.47741 357.97496 62.698634 356.74722 60.824711 C 355.53563 58.934634 353.73428 57.989742 351.34341 57.989742 z M 11.53418 68.506413 C 9.3210126 68.506413 7.673164 68.982667 6.5908122 69.935783 C 5.5084604 70.888898 4.9676554 72.351229 4.9676554 74.322078 C 4.9676554 76.115228 5.5165939 77.536891 6.6151001 78.586934 C 7.7136066 79.636977 9.1998207 80.161515 11.073743 80.161515 C 12.931511 80.161515 14.425858 79.588177 15.556673 78.441207 C 16.703643 77.294237 17.277498 75.79989 17.277498 73.958276 L 17.277498 68.506413 L 11.53418 68.506413 z M 144.293 68.641805 L 186.45684 68.641805 L 186.42893 70.366764 C 186.38032 73.285471 185.29249 76.135323 183.01157 79.319189 C 182.14546 80.528581 179.05961 83.32071 177.60105 84.217082 C 175.01174 85.805459 171.31773 87.153079 168.95971 87.367794 C 167.06705 87.539825 167.13915 87.488434 167.13915 88.69071 C 167.13915 89.707375 167.15643 89.747768 167.62388 89.841545 C 169.04563 90.127401 175.75243 92.359603 178.42994 93.437708 C 181.71657 94.760924 182.53129 95.114007 185.92767 96.688155 C 189.84357 98.504183 190.98265 99.116528 190.89791 99.360343 C 190.82359 99.573768 185.71935 101.57881 185.25122 101.57881 C 185.12412 101.57881 184.34995 101.11738 183.53247 100.55407 C 182.71497 99.990766 181.59555 99.269645 181.04476 98.9521 C 179.37991 97.991699 177.67624 97.036538 176.93029 96.645264 C 176.0864 96.202898 170.69929 93.692989 170.59372 93.692989 C 170.55345 93.692989 170.13599 93.533672 169.66716 93.339006 C 169.19834 93.144339 168.71983 92.966704 168.60315 92.944714 C 168.48716 92.921431 168.05009 92.75657 167.63266 92.576778 C 167.21594 92.396987 166.27834 92.051134 165.55114 91.807316 A 402.53119 374.81588 0 0 1 163.3461 91.063175 C 162.03826 90.615636 158.33137 89.572835 154.96625 88.706213 C 153.90498 88.432645 150.10589 87.660813 148.70358 87.434456 C 145.47113 86.911249 144.45084 86.720806 144.31471 86.612801 C 144.22996 86.544894 144.21514 86.219425 144.28112 85.888298 L 144.40256 85.286784 L 145.31826 85.396855 C 146.73168 85.565005 150.16276 86.116907 151.43727 86.380774 C 152.06861 86.510767 153.57665 86.809665 154.79003 87.043783 C 158.27531 87.717032 158.72588 87.810979 159.28847 87.976542 C 159.57948 88.062557 160.25401 88.200331 160.78812 88.282467 C 161.32223 88.364602 162.1547 88.534498 162.6402 88.658671 L 163.52232 88.885014 L 163.57813 88.316056 C 163.60865 88.003037 163.59572 87.710848 163.54919 87.667517 C 163.50266 87.624184 162.84193 87.514147 162.0821 87.423604 C 152.932 85.894081 144.28978 78.405043 144.23977 69.695487 L 144.293 68.641805 z " /><g
       id="g1606"
       transform="matrix(0.67235263,0,0,0.67235263,-0.09148494,30.069062)"
       style="stroke-width:0.619714" /></g><style
     type="text/css"
     id="style307">
	.st0{fill-rule:evenodd;clip-rule:evenodd;fill:#FFFFFF;}
	.st1{fill:#FFFFFF;}
	.st2{fill-rule:evenodd;clip-rule:evenodd;}
</style><style
     type="text/css"
     id="style512">
	.st0{fill-rule:evenodd;clip-rule:evenodd;fill:#FFFFFF;}
	.st1{fill:#FFFFFF;}
	.st2{fill-rule:evenodd;clip-rule:evenodd;}
</style><style
     type="text/css"
     id="style524">
	.st0{fill:none;stroke:#000000;stroke-width:54.1005;stroke-miterlimit:10;}
	.st1{fill:none;stroke:#000000;stroke-width:55.7397;stroke-miterlimit:10;}
	.st2{fill:#FFEF00;}
	.st3{fill:url(#SVGID_1_);}
	.st4{fill:#FFFFFF;}
	.st5{fill:url(#SVGID_2_);}
	.st6{fill:url(#SVGID_3_);}
	.st7{fill:url(#SVGID_4_);}
	.st8{fill:url(#SVGID_5_);}
	.st9{fill:url(#SVGID_6_);}
	.st10{fill:url(#SVGID_7_);}
	.st11{fill:url(#SVGID_8_);}
	.st12{fill:url(#SVGID_9_);}
	.st13{fill:url(#SVGID_10_);}
	.st14{fill:url(#SVGID_11_);}
	.st15{fill:url(#SVGID_12_);}
	.st16{fill:url(#SVGID_13_);}
	.st17{fill:url(#SVGID_14_);}
	.st18{fill:url(#SVGID_15_);}
	.st19{fill:url(#SVGID_16_);}
	.st20{fill:url(#SVGID_17_);}
	.st21{fill:url(#SVGID_18_);}
	.st22{fill:url(#SVGID_19_);}
	.st23{fill:url(#SVGID_20_);}
	.st24{fill:url(#SVGID_21_);}
</style></svg>
