<?xml version="1.0" encoding="UTF-8" standalone="no"?>
<!-- Created with Inkscape (http://www.inkscape.org/) -->

<svg
   width="1500"
   height="500"
   viewBox="0 0 396.87498 132.29167"
   version="1.1"
   id="svg5"
   inkscape:version="1.2.2 (732a01da63, 2022-12-09)"
   xml:space="preserve"
   sodipodi:docname="emulators.svg"
   xmlns:inkscape="http://www.inkscape.org/namespaces/inkscape"
   xmlns:sodipodi="http://sodipodi.sourceforge.net/DTD/sodipodi-0.dtd"
   xmlns="http://www.w3.org/2000/svg"
   xmlns:svg="http://www.w3.org/2000/svg"><sodipodi:namedview
     id="namedview7"
     pagecolor="#000000"
     bordercolor="#111111"
     borderopacity="1"
     inkscape:showpageshadow="0"
     inkscape:pageopacity="0"
     inkscape:pagecheckerboard="1"
     inkscape:deskcolor="#d1d1d1"
     inkscape:document-units="mm"
     showgrid="false"
     inkscape:zoom="0.62760417"
     inkscape:cx="673.9917"
     inkscape:cy="208.73029"
     inkscape:window-width="1920"
     inkscape:window-height="1009"
     inkscape:window-x="-8"
     inkscape:window-y="-8"
     inkscape:window-maximized="1"
     inkscape:current-layer="layer1" /><defs
     id="defs2">
		
	
		
		
		
	
		
		
		
		
		
		
		
		
		
		
	
			
			
			
			
			
			
			
		</defs><g
     inkscape:label="Layer 1"
     inkscape:groupmode="layer"
     id="layer1"><path
       id="rect231"
       style="fill:#ffffff;stroke-width:0.8001;stroke-linecap:square;paint-order:fill markers stroke"
       d="M 0 0 L 0 132.29167 L 396.875 132.29167 L 396.875 0 L 0 0 z M 288.07647 40.111247 C 294.10734 40.111247 298.84162 41.507517 302.27922 44.300655 C 305.71683 47.049456 307.4355 50.862325 307.4355 55.739233 L 307.4355 72.764551 C 307.4355 77.641459 305.71683 81.476137 302.27922 84.269275 C 298.84162 87.018076 294.10734 88.392537 288.07647 88.392537 C 282.04558 88.392537 277.31133 87.018076 273.87372 84.269275 C 270.43614 81.476137 268.71745 77.641459 268.71745 72.764551 L 268.71745 55.739233 C 268.71745 50.862325 270.43614 47.049456 273.87372 44.300655 C 277.31133 41.507517 282.04558 40.111247 288.07647 40.111247 z M 378.08752 40.111247 C 383.45499 40.111247 387.70674 41.285798 390.84281 43.635579 C 393.97886 45.985361 395.60715 49.155395 395.72778 53.145593 L 386.41001 53.145593 C 386.34968 50.973153 385.59604 49.332834 384.14865 48.224447 C 382.70123 47.116059 380.71093 46.562016 378.17795 46.562016 C 375.64499 46.562016 373.65468 47.049594 372.20726 48.024976 C 370.75986 49.000356 370.03633 50.330679 370.03633 52.01543 C 370.03633 53.301159 370.51885 54.431572 371.48378 55.406954 C 372.44872 56.382336 373.62463 57.24689 375.01174 58.000594 C 376.45915 58.709962 378.47958 59.64098 381.07286 60.793705 C 384.45014 62.256777 387.16398 63.564772 389.21449 64.717497 C 391.26499 65.870218 393.01378 67.355283 394.46119 69.173039 C 395.9086 70.946461 396.63264 73.074873 396.63264 75.557662 C 396.63264 77.907445 395.9086 80.057669 394.46119 82.008431 C 393.01378 83.959193 390.87284 85.510719 388.03833 86.663444 C 385.26414 87.816165 381.97742 88.392537 378.17795 88.392537 C 372.50892 88.392537 368.01616 87.173332 364.69919 84.73488 C 361.3822 82.296426 359.69314 78.971136 359.63283 74.759261 L 368.95061 74.759261 C 369.0109 77.109044 369.82531 78.882808 371.39335 80.079867 C 373.02168 81.276927 375.28313 81.875106 378.17795 81.875106 C 381.13308 81.875106 383.3644 81.298737 384.87212 80.146012 C 386.44016 78.993289 387.22443 77.441761 387.22443 75.490999 C 387.22443 73.628906 386.28953 72.055053 384.41995 70.769324 C 382.55038 69.439258 379.71606 67.953678 375.91659 66.313265 C 372.5996 64.805856 369.94601 63.476051 367.95583 62.323328 C 365.96564 61.170604 364.24645 59.729681 362.79904 58.000594 C 361.41194 56.271508 360.71855 54.231888 360.71855 51.882104 C 360.71855 49.665329 361.41194 47.670359 362.79904 45.89694 C 364.24645 44.079182 366.26689 42.660586 368.86017 41.640869 C 371.51375 40.621154 374.5896 40.111247 378.08752 40.111247 z M 0.24236247 40.975793 L 31.271476 40.975793 L 31.271476 47.293754 L 9.3792725 47.293754 L 9.3792725 60.793705 L 29.552718 60.793705 L 29.552718 66.978341 L 9.3792725 66.978341 L 9.3792725 81.21003 L 32.176331 81.21003 L 32.176331 87.527991 L 0.24236247 87.527991 L 0.24236247 40.975793 z M 41.94576 40.975793 L 51.263538 40.975793 L 61.938338 59.862496 C 63.325439 62.389621 64.863364 65.470865 66.55201 69.106376 L 66.913745 69.106376 C 68.602394 65.470865 70.140316 62.389621 71.527417 59.862496 L 82.202218 40.975793 L 91.519995 40.975793 L 91.519995 87.527991 L 82.563953 87.527991 L 82.58669 69.429871 C 82.704488 62.912549 82.836145 58.023169 82.909151 54.383244 L 82.916903 53.811186 C 81.710737 56.293972 79.669461 60.771643 76.774642 66.44659 L 71.256116 77.020622 L 62.209639 77.020622 L 56.69163 66.44659 C 53.796808 60.771643 51.856312 56.438152 50.650138 53.955363 L 50.666158 54.423551 C 50.812364 60.99697 50.781184 65.825668 50.901803 69.37251 L 50.901803 87.527991 L 41.94576 87.527991 L 41.94576 40.975793 z M 103.09913 40.975793 L 112.41691 40.975793 L 112.41691 73.362964 C 112.41691 76.111767 113.23081 78.195525 114.85914 79.614262 C 116.48748 80.988663 118.74944 81.675635 121.64425 81.675635 C 124.59939 81.675635 126.89095 80.988663 128.51929 79.614262 C 130.14763 78.195525 130.96203 76.111767 130.96203 73.362964 L 130.96203 40.975793 L 140.18886 40.975793 L 140.18886 73.362964 C 140.18886 78.062531 138.53043 81.720142 135.21345 84.335937 C 131.89646 86.907396 127.37359 88.193066 121.64425 88.193066 C 115.97524 88.193066 111.45184 86.907396 108.07454 84.335937 C 104.75756 81.720142 103.09913 78.062531 103.09913 73.362964 L 103.09913 40.975793 z M 151.85843 40.975793 L 160.99534 40.975793 L 160.99534 81.143884 L 181.98269 81.143884 L 181.98269 87.527991 L 151.85843 87.527991 L 151.85843 40.975793 z M 202.40832 40.975793 L 212.2687 40.975793 L 228.19021 87.527991 L 218.69156 87.527991 L 215.70621 78.151302 L 198.97028 78.151302 L 196.07589 87.527991 L 186.48681 87.527991 L 202.40832 40.975793 z M 227.10448 40.975793 L 262.74727 40.975793 L 262.74727 47.3599 L 249.53929 47.3599 L 249.53929 87.527991 L 240.22151 87.527991 L 240.22151 47.3599 L 227.10448 47.3599 L 227.10448 40.975793 z M 318.29117 40.975793 L 334.66536 40.975793 C 340.69623 40.975793 345.37025 42.261461 348.68724 44.832922 C 352.00422 47.360047 353.66265 50.928868 353.66265 55.539762 C 353.66265 59.130939 352.66748 62.145718 350.6773 64.584172 C 348.68713 67.022626 345.88241 68.729924 342.26386 69.705306 L 356.01444 87.527991 L 345.88276 87.527991 L 333.12747 70.635999 L 327.42808 70.635999 L 327.42808 87.527991 L 318.29117 87.527991 L 318.29117 40.975793 z M 288.07647 46.694824 C 284.81979 46.694824 282.34748 47.471105 280.65884 49.022847 C 278.9702 50.574592 278.12566 52.813089 278.12566 55.739233 L 278.12566 72.764551 C 278.12566 75.690697 278.9702 77.929194 280.65884 79.480937 C 282.34748 81.032681 284.81979 81.80896 288.07647 81.80896 C 291.33314 81.80896 293.80597 81.032681 295.49462 79.480937 C 297.18326 77.929194 298.0278 75.690697 298.0278 72.764551 L 298.0278 55.739233 C 298.0278 52.813089 297.18326 50.574592 295.49462 49.022847 C 293.80597 47.471105 291.33314 46.694824 288.07647 46.694824 z M 327.42808 47.3599 L 327.42808 64.251892 L 334.48449 64.251892 C 337.68087 64.251892 340.09293 63.520266 341.72126 62.057194 C 343.4099 60.59412 344.25444 58.466226 344.25444 55.673088 C 344.25444 52.924285 343.44003 50.862337 341.81169 49.487935 C 340.18336 48.069199 337.7713 47.3599 334.57493 47.3599 L 327.42808 47.3599 z M 207.20286 49.42179 C 206.41885 53.633664 205.63456 56.958439 204.85055 59.396891 L 200.96086 71.900004 L 213.80659 71.900004 L 209.82595 59.396891 C 208.92133 56.293406 208.13756 52.968631 207.47416 49.42179 L 207.20286 49.42179 z " /><g
       id="g1917"
       transform="matrix(0.26458333,0,0,0.26458333,137.21116,160.2755)" /></g><style
     type="text/css"
     id="style307">
	.st0{fill-rule:evenodd;clip-rule:evenodd;fill:#FFFFFF;}
	.st1{fill:#FFFFFF;}
	.st2{fill-rule:evenodd;clip-rule:evenodd;}
</style><style
     type="text/css"
     id="style512">
	.st0{fill-rule:evenodd;clip-rule:evenodd;fill:#FFFFFF;}
	.st1{fill:#FFFFFF;}
	.st2{fill-rule:evenodd;clip-rule:evenodd;}
</style><style
     type="text/css"
     id="style524">
	.st0{fill:none;stroke:#000000;stroke-width:54.1005;stroke-miterlimit:10;}
	.st1{fill:none;stroke:#000000;stroke-width:55.7397;stroke-miterlimit:10;}
	.st2{fill:#FFEF00;}
	.st3{fill:url(#SVGID_1_);}
	.st4{fill:#FFFFFF;}
	.st5{fill:url(#SVGID_2_);}
	.st6{fill:url(#SVGID_3_);}
	.st7{fill:url(#SVGID_4_);}
	.st8{fill:url(#SVGID_5_);}
	.st9{fill:url(#SVGID_6_);}
	.st10{fill:url(#SVGID_7_);}
	.st11{fill:url(#SVGID_8_);}
	.st12{fill:url(#SVGID_9_);}
	.st13{fill:url(#SVGID_10_);}
	.st14{fill:url(#SVGID_11_);}
	.st15{fill:url(#SVGID_12_);}
	.st16{fill:url(#SVGID_13_);}
	.st17{fill:url(#SVGID_14_);}
	.st18{fill:url(#SVGID_15_);}
	.st19{fill:url(#SVGID_16_);}
	.st20{fill:url(#SVGID_17_);}
	.st21{fill:url(#SVGID_18_);}
	.st22{fill:url(#SVGID_19_);}
	.st23{fill:url(#SVGID_20_);}
	.st24{fill:url(#SVGID_21_);}
</style></svg>
