<?xml version="1.0" encoding="UTF-8" standalone="no"?>
<!-- Created with Inkscape (http://www.inkscape.org/) -->

<svg
   width="1500"
   height="500"
   viewBox="0 0 396.87498 132.29167"
   version="1.1"
   id="svg5"
   inkscape:version="1.2.2 (732a01da63, 2022-12-09)"
   xml:space="preserve"
   sodipodi:docname="epic.svg"
   xmlns:inkscape="http://www.inkscape.org/namespaces/inkscape"
   xmlns:sodipodi="http://sodipodi.sourceforge.net/DTD/sodipodi-0.dtd"
   xmlns="http://www.w3.org/2000/svg"
   xmlns:svg="http://www.w3.org/2000/svg"><sodipodi:namedview
     id="namedview7"
     pagecolor="#000000"
     bordercolor="#111111"
     borderopacity="1"
     inkscape:showpageshadow="0"
     inkscape:pageopacity="0"
     inkscape:pagecheckerboard="1"
     inkscape:deskcolor="#d1d1d1"
     inkscape:document-units="mm"
     showgrid="false"
     inkscape:zoom="0.62760417"
     inkscape:cx="673.9917"
     inkscape:cy="208.73029"
     inkscape:window-width="1920"
     inkscape:window-height="1009"
     inkscape:window-x="-8"
     inkscape:window-y="-8"
     inkscape:window-maximized="1"
     inkscape:current-layer="layer1" /><defs
     id="defs2">
		
	
		
		
		
	
		
		
		
		
		
		
		
		
		
		
	
			
			
			
			
			
			
			
		<clipPath
   id="clip1"><rect
     width="647.167"
     height="750.977"
     fill="white"
     id="rect1942" /></clipPath></defs><g
     inkscape:label="Layer 1"
     inkscape:groupmode="layer"
     id="layer1"><path
       id="rect231"
       style="fill:#ffffff;stroke-width:0.8001;stroke-linecap:square;paint-order:fill markers stroke"
       d="M 0 0 L 0 132.29167 L 198.42406 132.29167 L 198.42406 132.29115 C 196.69189 132.3255 195.69449 131.89973 193.30965 130.80649 L 147.36775 111.55857 C 146.41649 111.1756 145.8408 110.87096 144.99735 110.45734 C 144.99735 110.45734 143.4292 109.29014 143.27911 109.11169 C 141.74335 107.28967 141.71093 105.68959 141.53865 104.03809 C 141.46308 103.3014 141.42858 102.50626 141.42858 101.65013 L 141.42858 10.358024 C 141.42858 2.7923356 144.21927 0.001550293 151.78143 0.001550293 L 245.08013 0.001550293 C 252.64212 0.001550293 255.43299 2.7923356 255.43299 10.358024 L 255.43299 101.65013 C 255.43299 102.50626 255.39849 103.3014 255.32292 104.03809 C 255.15081 105.68959 255.11839 107.28967 253.58245 109.11169 C 253.43254 109.29014 251.86421 110.45734 251.86421 110.45734 C 251.02059 110.87096 250.44491 111.1756 249.4933 111.55857 L 203.55243 130.80649 C 201.16724 131.89973 200.16985 132.3255 198.4375 132.29115 L 198.4375 132.29167 L 396.875 132.29167 L 396.875 0 L 0 0 z M 225.41725 17.146757 C 219.14457 17.146757 216.04263 20.262113 216.04263 26.566854 L 216.04263 59.31886 C 216.04263 65.623776 219.14457 68.738957 225.41725 68.738957 L 229.23975 68.738957 C 235.51384 68.738957 238.61438 65.623776 238.61438 59.31886 L 238.61438 47.508211 L 231.04223 47.508211 L 231.04223 58.957125 C 231.04223 60.986304 230.1042 61.928003 228.15817 61.928003 L 226.71536 61.928003 C 224.69658 61.928003 223.75844 60.986304 223.75844 58.957125 L 223.75844 26.928589 C 223.75844 24.899763 224.69658 23.958228 226.71536 23.958228 L 228.01347 23.958228 C 229.96056 23.958228 230.89857 24.899763 230.89857 26.928589 L 230.89857 36.856665 L 238.46917 36.856665 L 238.46917 26.49399 C 238.46917 20.190483 235.44043 17.146757 229.16792 17.146757 L 225.41725 17.146757 z M 179.27898 17.581356 L 179.27898 68.304358 L 186.99479 68.304358 L 186.99479 49.898763 L 191.39349 49.898763 C 197.66722 49.898763 200.76759 46.783724 200.76759 40.480216 L 200.76759 27.001453 C 200.76759 20.696888 197.66722 17.581356 191.39349 17.581356 L 179.27898 17.581356 z M 204.24851 17.581356 L 204.24851 68.304358 L 211.96536 68.304358 L 211.96536 17.581356 L 204.24851 17.581356 z M 158.24771 17.581873 L 158.24771 68.304358 L 175.55414 68.304358 L 175.55414 61.275846 L 165.963 61.275846 L 165.963 45.985824 L 175.04875 45.985824 L 175.04875 38.957829 L 165.963 38.957829 L 165.963 24.609867 L 175.41048 24.609867 L 175.41048 17.581873 L 158.24771 17.581873 z M 186.99479 24.393343 L 190.16824 24.393343 C 192.11533 24.393343 193.05178 25.334537 193.05178 27.363188 L 193.05178 40.116931 C 193.05178 42.145934 192.11533 43.088326 190.16824 43.088326 L 186.99479 43.088326 L 186.99479 24.393343 z M 165.74544 80.371322 L 165.5346 80.392509 L 165.32531 80.413696 L 165.11602 80.434367 L 164.90673 80.455554 L 164.69589 80.497929 L 164.4866 80.519116 L 164.27731 80.560974 L 164.08869 80.624019 L 163.87837 80.666394 L 163.69027 80.729439 L 163.50216 80.771814 L 163.31251 80.85553 L 163.10322 80.919092 L 162.93579 80.982137 L 162.7265 81.087557 L 162.53685 81.17179 L 162.34875 81.256022 L 162.16064 81.360925 L 161.97099 81.466345 L 161.78237 81.571765 L 161.61546 81.677185 L 161.44699 81.782605 L 161.28008 81.908695 L 161.11161 82.014115 L 160.94418 82.140206 L 160.79794 82.266813 L 160.62947 82.414091 L 160.48323 82.540181 L 160.33595 82.687976 L 160.18971 82.835254 L 160.0631 82.982532 L 159.91737 83.12981 L 159.79076 83.277604 L 159.66571 83.446069 L 159.53962 83.614535 L 159.41456 83.783 L 159.30914 83.951465 L 159.20372 84.119413 L 159.09985 84.288395 L 158.99443 84.45686 L 158.88901 84.645996 L 158.80633 84.835649 L 158.63786 85.214954 L 158.55466 85.404089 L 158.47043 85.614929 L 158.40739 85.804582 L 158.34382 86.014905 L 158.28233 86.204557 L 158.23995 86.415397 L 158.17691 86.62572 L 158.13453 86.814856 L 158.11386 87.025696 L 158.07201 87.234985 L 158.0503 87.466496 L 158.03066 87.677336 L 158.03066 87.887659 L 158.00999 88.119169 L 158.00999 88.814217 L 158.03066 89.02454 L 158.0503 89.23538 L 158.07201 89.44622 L 158.09216 89.635356 L 158.13453 89.846195 L 158.15572 90.035848 L 158.1981 90.246171 L 158.26114 90.435824 L 158.303 90.646663 L 158.36501 90.835799 L 158.40739 91.025452 L 158.49162 91.215104 L 158.55466 91.383569 L 158.63786 91.572705 L 158.80633 91.95201 L 158.88901 92.141663 L 158.99443 92.309611 L 159.09985 92.499264 L 159.20372 92.668245 L 159.30914 92.836194 L 159.4342 93.005176 L 159.53962 93.173124 L 159.66571 93.320919 L 159.79076 93.489384 L 159.91737 93.636662 L 160.0631 93.78394 L 160.21089 93.931734 L 160.35714 94.057825 L 160.50441 94.205103 L 160.65066 94.331193 L 160.79794 94.4578 L 160.96537 94.584408 L 161.1328 94.710498 L 161.30075 94.837105 L 161.46818 94.942008 L 161.63665 95.047428 L 161.82475 95.152848 L 161.99166 95.256718 L 162.18183 95.362138 L 162.36993 95.44637 L 162.55804 95.530603 L 162.74769 95.614319 L 162.95698 95.699068 L 163.14508 95.762113 L 163.3337 95.846346 L 163.52284 95.909391 L 163.73212 95.951766 L 163.92074 96.014811 L 164.13107 96.056669 L 164.31917 96.099044 L 164.52898 96.141418 L 164.73826 96.183276 L 164.9491 96.204464 L 165.15839 96.225651 L 165.36768 96.246322 L 165.59764 96.267509 L 165.80693 96.288696 L 166.7092 96.288696 L 166.93916 96.267509 L 167.15 96.246322 L 167.38048 96.225651 L 167.58925 96.204464 L 167.81973 96.183276 L 168.02954 96.162089 L 168.23986 96.120231 L 168.44915 96.077856 L 168.63777 96.035999 L 168.84809 95.994141 L 169.03671 95.930579 L 169.246 95.867533 L 169.4341 95.803971 L 169.62324 95.740926 L 169.81186 95.677881 L 169.99996 95.593648 L 170.2108 95.509416 L 170.3989 95.425183 L 170.60819 95.340951 L 170.79681 95.235531 L 170.98595 95.152848 L 171.17456 95.047428 L 171.36267 94.942008 L 171.55232 94.837105 L 171.71923 94.731685 L 171.8877 94.626265 L 172.05513 94.499658 L 172.22256 94.394755 L 172.39051 94.268148 L 172.53727 94.162728 L 172.70574 94.036637 L 172.85146 93.910547 L 172.85146 87.06807 L 165.93354 87.06807 L 165.93354 90.140751 L 168.99434 90.140751 L 168.99434 92.05743 L 168.8269 92.162333 L 168.67963 92.246566 L 168.49152 92.330798 L 168.32306 92.415548 L 168.13444 92.499264 L 167.94634 92.541638 L 167.73705 92.604683 L 167.52621 92.646541 L 167.31692 92.688916 L 167.10815 92.710103 L 166.87767 92.730774 L 166.64564 92.751961 L 166.16402 92.751961 L 165.93354 92.730774 L 165.72425 92.710103 L 165.51496 92.668245 L 165.30412 92.625871 L 165.09483 92.562826 L 164.88554 92.499264 L 164.69589 92.415548 L 164.50779 92.330798 L 164.31917 92.246566 L 164.1507 92.141663 L 163.98379 92.036243 L 163.81687 91.910152 L 163.64789 91.783545 L 163.50216 91.656938 L 163.37556 91.50966 L 163.22931 91.362382 L 163.10322 91.215104 L 162.97817 91.046639 L 162.87275 90.878174 L 162.76733 90.709709 L 162.66346 90.520056 L 162.57922 90.330404 L 162.49499 90.119564 L 162.43298 89.951615 L 162.36993 89.761963 L 162.32756 89.572827 L 162.2857 89.382658 L 162.24333 89.193522 L 162.22214 88.982682 L 162.20147 88.793547 L 162.18183 88.582707 L 162.18183 88.097982 L 162.20147 87.887659 L 162.22214 87.677336 L 162.26451 87.445308 L 162.30689 87.256173 L 162.34875 87.046883 L 162.41179 86.836043 L 162.49499 86.646391 L 162.55804 86.457255 L 162.64227 86.267603 L 162.74769 86.099137 L 162.85156 85.909485 L 162.95698 85.74102 L 163.06136 85.593742 L 163.18746 85.425277 L 163.3337 85.277999 L 163.45979 85.130721 L 163.60603 85.004114 L 163.75331 84.878023 L 163.89956 84.751933 L 164.06802 84.645996 L 164.23545 84.540576 L 164.40392 84.435673 L 164.59202 84.35144 L 164.78064 84.267208 L 164.96874 84.204163 L 165.15839 84.141117 L 165.3465 84.098743 L 165.55579 84.056885 L 165.74544 84.035697 L 165.95473 84.01451 L 166.39449 84.01451 L 166.62601 84.035697 L 166.85648 84.056885 L 167.06577 84.077555 L 167.27506 84.119413 L 167.48435 84.161788 L 167.674 84.204163 L 167.86211 84.267208 L 168.05021 84.330253 L 168.21867 84.393815 L 168.3861 84.477531 L 168.55457 84.561764 L 168.74267 84.667183 L 168.9101 84.772087 L 169.07857 84.878023 L 169.246 84.982926 L 169.41292 85.109534 L 169.58138 85.214954 L 169.7483 85.362231 L 169.91676 85.488322 L 170.04233 85.320374 L 170.18961 85.172579 L 170.31467 85.004114 L 170.46195 84.835649 L 170.587 84.667183 L 170.71361 84.519906 L 170.85986 84.35144 L 170.98595 84.182975 L 171.13219 84.01451 L 171.2588 83.866715 L 171.38385 83.69825 L 171.53113 83.529785 L 171.65619 83.382507 L 171.7828 83.214042 L 171.92852 83.045577 L 172.05513 82.877112 L 172.20138 82.729834 L 172.32747 82.561369 L 172.16055 82.435278 L 171.99209 82.288 L 171.82465 82.161393 L 171.65619 82.035303 L 171.48876 81.929366 L 171.32184 81.803276 L 171.13219 81.697856 L 170.96528 81.592952 L 170.77717 81.487533 L 170.60819 81.382113 L 170.42009 81.29788 L 170.23147 81.192977 L 170.04233 81.108744 L 169.85423 81.023995 L 169.66561 80.940279 L 169.47596 80.876717 L 169.30905 80.813672 L 169.12094 80.771814 L 168.93129 80.708252 L 168.74267 80.666394 L 168.55457 80.624019 L 168.36492 80.582161 L 168.15563 80.540304 L 167.94634 80.497929 L 167.75669 80.476742 L 167.52621 80.434367 L 167.31692 80.413696 L 167.10815 80.413696 L 166.87767 80.392509 L 166.64564 80.371322 L 165.74544 80.371322 z M 231.82874 80.413696 L 231.61945 80.434367 L 231.41016 80.455554 L 231.19984 80.476742 L 230.99055 80.497929 L 230.80193 80.540304 L 230.59264 80.582161 L 230.40351 80.624019 L 230.21489 80.666394 L 230.04746 80.708252 L 229.8578 80.771814 L 229.64851 80.85553 L 229.43923 80.919092 L 229.25009 81.003324 L 229.06199 81.108744 L 228.87337 81.192977 L 228.68372 81.29788 L 228.5168 81.4033 L 228.34937 81.52939 L 228.1809 81.655998 L 228.03466 81.761418 L 227.86619 81.908695 L 227.71995 82.077677 L 227.57267 82.224438 L 227.42643 82.392904 L 227.30034 82.561369 L 227.17476 82.729834 L 227.06986 82.919486 L 226.96547 83.109139 L 226.88176 83.298792 L 226.79701 83.487927 L 226.71433 83.67758 L 226.67247 83.866715 L 226.60891 84.056885 L 226.56705 84.246537 L 226.52467 84.435673 L 226.50349 84.645996 L 226.48282 84.835649 L 226.46163 85.046488 L 226.46163 85.530697 L 226.48282 85.762207 L 226.50349 85.973047 L 226.52467 86.18337 L 226.56705 86.373022 L 226.60891 86.583346 L 226.67247 86.751811 L 226.73396 86.941463 L 226.79701 87.109928 L 226.88176 87.256173 L 226.98666 87.445308 L 227.09105 87.61429 L 227.19647 87.761568 L 227.32153 87.908846 L 227.44762 88.056124 L 227.59386 88.203918 L 227.74114 88.351196 L 227.88738 88.477804 L 228.05585 88.582707 L 228.22276 88.709314 L 228.41138 88.814217 L 228.57985 88.919637 L 228.78914 89.02454 L 228.97724 89.12996 L 229.18808 89.214193 L 229.39737 89.298425 L 229.60666 89.382658 L 229.83713 89.46689 L 230.02679 89.530452 L 230.21489 89.593498 L 230.40351 89.656543 L 230.61228 89.698918 L 230.80193 89.761963 L 231.01174 89.825008 L 231.22051 89.867383 L 231.43135 89.930428 L 231.64012 89.972286 L 231.8706 90.035848 L 232.08041 90.077706 L 232.31037 90.140751 L 232.52121 90.183126 L 232.7305 90.246171 L 232.91912 90.288029 L 233.10825 90.351591 L 233.27568 90.393966 L 233.42193 90.435824 L 233.67308 90.541243 L 233.88392 90.625476 L 234.07202 90.709709 L 234.23893 90.793941 L 234.40791 90.920032 L 234.55364 91.046639 L 234.65958 91.193917 L 234.74381 91.40424 L 234.76448 91.656938 L 234.76448 91.699312 L 234.74381 91.910152 L 234.68025 92.099288 L 234.59602 92.267753 L 234.47096 92.415548 L 234.30249 92.541638 L 234.15625 92.625871 L 233.98778 92.688916 L 233.79917 92.730774 L 233.61106 92.773149 L 233.40074 92.815523 L 233.17026 92.836194 L 232.70931 92.836194 L 232.47935 92.815523 L 232.26954 92.815523 L 232.05922 92.773149 L 231.82874 92.751961 L 231.61945 92.710103 L 231.41016 92.668245 L 231.19984 92.625871 L 231.01174 92.562826 L 230.80193 92.499264 L 230.59264 92.436218 L 230.40351 92.351986 L 230.21489 92.28894 L 230.02679 92.204708 L 229.83713 92.120475 L 229.64851 92.036243 L 229.4816 91.930823 L 229.29195 91.84659 L 229.12503 91.74117 L 228.93641 91.61508 L 228.76795 91.50966 L 228.57985 91.383569 L 228.41138 91.256962 L 228.22276 91.130872 L 228.05585 91.004264 L 227.92924 91.172729 L 227.783 91.320007 L 227.65691 91.488989 L 227.51066 91.656938 L 227.38457 91.804215 L 227.25951 91.973197 L 227.11224 92.141663 L 226.98666 92.28894 L 226.83938 92.457406 L 226.71433 92.604683 L 226.56705 92.773149 L 226.44199 92.941614 L 226.31538 93.088892 L 226.16914 93.257357 L 226.04253 93.425822 L 225.89681 93.573617 L 225.7702 93.742082 L 225.93763 93.88936 L 226.08491 94.01545 L 226.25234 94.142057 L 226.4208 94.268148 L 226.75515 94.520846 L 226.92362 94.626265 L 227.09105 94.731685 L 227.28018 94.837105 L 227.44762 94.942008 L 227.63572 95.047428 L 227.82537 95.131661 L 228.01347 95.235531 L 228.20209 95.319763 L 228.39123 95.403996 L 228.60103 95.488228 L 228.78914 95.551274 L 228.99843 95.614319 L 229.18808 95.699068 L 229.39737 95.762113 L 229.60666 95.825159 L 229.79476 95.867533 L 230.0056 95.930579 L 230.21489 95.972437 L 230.42418 96.014811 L 230.63347 96.056669 L 230.84431 96.099044 L 231.0536 96.120231 L 231.26289 96.162089 L 231.49336 96.183276 L 231.70369 96.204464 L 231.91298 96.225651 L 232.14345 96.225651 L 232.35274 96.246322 L 233.23331 96.246322 L 233.4426 96.225651 L 233.67308 96.204464 L 233.88392 96.183276 L 234.07202 96.162089 L 234.28131 96.141418 L 234.49215 96.099044 L 234.68025 96.056669 L 234.86887 96.014811 L 235.07816 95.972437 L 235.26729 95.909391 L 235.47658 95.846346 L 235.68587 95.783301 L 235.89516 95.699068 L 236.106 95.614319 L 236.2941 95.509416 L 236.48272 95.425183 L 236.67186 95.319763 L 236.83929 95.193673 L 237.00672 95.089803 L 237.17519 94.963196 L 237.32091 94.837105 L 237.48938 94.689311 L 237.61444 94.56322 L 237.76223 94.415426 L 237.88677 94.268148 L 237.99271 94.100199 L 238.11777 93.931734 L 238.22319 93.762752 L 238.32809 93.594287 L 238.41129 93.405151 L 238.49552 93.236169 L 238.57924 93.047034 L 238.6428 92.836194 L 238.68362 92.646541 L 238.74667 92.436218 L 238.78904 92.225378 L 238.80971 91.994385 L 238.8309 91.783545 L 238.85209 91.552035 L 238.85209 91.046639 L 238.8309 90.815129 L 238.80971 90.604289 L 238.76785 90.393966 L 238.726 90.183126 L 238.68362 89.993473 L 238.62161 89.803821 L 238.55857 89.614685 L 238.47433 89.44622 L 238.36891 89.256567 L 238.26504 89.088102 L 238.13844 88.89845 L 238.01338 88.729985 L 237.8661 88.582707 L 237.71986 88.414242 L 237.55139 88.266964 L 237.38448 88.119169 L 237.21705 88.014266 L 237.04858 87.887659 L 236.88167 87.782756 L 236.69305 87.677336 L 236.50339 87.571916 L 236.2941 87.466496 L 236.08481 87.38278 L 235.87552 87.27736 L 235.64401 87.194161 L 235.45591 87.131116 L 235.26729 87.06807 L 235.05697 87.004508 L 234.86887 86.941463 L 234.65958 86.878418 L 234.44977 86.814856 L 234.23893 86.772998 L 234.00846 86.709953 L 233.79917 86.646391 L 233.56921 86.604533 L 233.33873 86.541488 L 233.10825 86.478442 L 232.87674 86.415397 L 232.66745 86.373022 L 232.47935 86.30946 L 232.2897 86.267603 L 232.12227 86.204557 L 231.95535 86.162183 L 231.70369 86.078467 L 231.47218 85.993717 L 231.26289 85.909485 L 231.09545 85.804582 L 230.9058 85.699162 L 230.76007 85.551884 L 230.67533 85.425277 L 230.57197 85.193766 L 230.55027 84.919881 L 230.55027 84.878023 L 230.57197 84.667183 L 230.65465 84.477531 L 230.78075 84.288395 L 230.96936 84.119413 L 231.11664 84.035697 L 231.28407 83.951465 L 231.47218 83.90909 L 231.6825 83.866715 L 231.91298 83.824858 L 232.37393 83.824858 L 232.56203 83.846045 L 232.77287 83.866715 L 232.98216 83.887903 L 233.19145 83.930278 L 233.40074 83.972135 L 233.61106 84.01451 L 233.82035 84.077555 L 234.02964 84.141117 L 234.26064 84.204163 L 234.4291 84.288395 L 234.6172 84.35144 L 234.78412 84.435673 L 234.97377 84.519906 L 235.1412 84.604138 L 235.32931 84.688371 L 235.49777 84.793791 L 235.68587 84.878023 L 235.85434 85.004114 L 236.02177 85.109534 L 236.20987 85.214954 L 236.37834 85.341044 L 236.50339 85.172579 L 236.60881 85.004114 L 236.73387 84.835649 L 236.86048 84.667183 L 236.98553 84.477531 L 237.09095 84.309583 L 237.21705 84.141117 L 237.3421 83.972135 L 237.44752 83.804187 L 237.57258 83.635722 L 237.69867 83.46674 L 237.80461 83.298792 L 237.92915 83.109139 L 238.05575 82.940674 L 238.18081 82.772209 L 238.28623 82.603743 L 238.41129 82.435278 L 238.24386 82.308671 L 238.07694 82.182581 L 237.90848 82.055973 L 237.74104 81.95107 L 237.55139 81.824463 L 237.38448 81.719043 L 237.19586 81.61414 L 237.00672 81.50872 L 236.83929 81.424487 L 236.65067 81.319067 L 236.44035 81.234835 L 236.25225 81.150602 L 236.06414 81.06637 L 235.87552 81.003324 L 235.6652 80.919092 L 235.47658 80.876717 L 235.28848 80.813672 L 235.07816 80.750627 L 234.88954 80.708252 L 234.68025 80.666394 L 234.47096 80.624019 L 234.28131 80.582161 L 234.07202 80.540304 L 233.84154 80.519116 L 233.63225 80.476742 L 233.40074 80.455554 L 233.19145 80.455554 L 232.96097 80.434367 L 232.7305 80.413696 L 231.82874 80.413696 z M 180.90317 80.560974 L 180.81997 80.750627 L 180.73574 80.940279 L 180.65151 81.129932 L 180.58846 81.340255 L 180.50526 81.52939 L 180.42155 81.719043 L 180.3368 81.908695 L 180.25411 82.098348 L 180.16988 82.288 L 180.08513 82.498324 L 180.0009 82.687976 L 179.9394 82.877112 L 179.77042 83.256417 L 179.68774 83.446069 L 179.60351 83.656392 L 179.51927 83.846045 L 179.43608 84.035697 L 179.35184 84.22535 L 179.2888 84.414486 L 179.20457 84.604138 L 179.12137 84.814461 L 179.03765 85.004114 L 178.95342 85.193766 L 178.87022 85.383419 L 178.78599 85.572555 L 178.70175 85.762207 L 178.63871 85.973047 L 178.55551 86.162183 L 178.47128 86.351835 L 178.38704 86.541488 L 178.30385 86.73114 L 178.22013 86.920276 L 178.1359 87.131116 L 178.0527 87.319218 L 177.98965 87.50887 L 177.90542 87.698523 L 177.82119 87.887659 L 177.73799 88.077311 L 177.65376 88.266964 L 177.56952 88.477804 L 177.48684 88.666939 L 177.40209 88.856592 L 177.33905 89.045728 L 177.25481 89.23538 L 177.17213 89.425033 L 177.0879 89.635356 L 177.00367 89.825008 L 176.92047 90.014661 L 176.75252 90.393966 L 176.68896 90.583101 L 176.60627 90.793941 L 176.52204 90.983594 L 176.43729 91.172729 L 176.35461 91.362382 L 176.27038 91.552035 L 176.18615 91.74117 L 176.10295 91.95201 L 176.0399 92.141663 L 175.95567 92.330798 L 175.87144 92.520451 L 175.78824 92.710103 L 175.704 92.899756 L 175.61977 93.110079 L 175.53709 93.299731 L 175.45234 93.489384 L 175.38981 93.67852 L 175.30506 93.868172 L 175.22238 94.057825 L 175.13815 94.268148 L 175.05391 94.4578 L 174.97072 94.647453 L 174.88648 94.837105 L 174.80277 95.026241 L 174.7392 95.21486 L 174.65601 95.425183 L 174.57229 95.614319 L 174.48754 95.803971 L 174.40486 95.994141 L 178.63871 95.994141 L 178.72294 95.803971 L 178.78599 95.614319 L 178.87022 95.425183 L 178.95342 95.21486 L 179.01646 95.026241 L 179.1007 94.837105 L 179.18338 94.647453 L 179.24694 94.4578 L 179.33117 94.268148 L 179.41541 94.079012 L 179.47742 93.88936 L 179.56113 93.67852 L 179.64588 93.489384 L 179.70893 93.299731 L 179.79161 93.110079 L 185.80778 93.110079 L 185.89253 93.299731 L 185.95557 93.489384 L 186.03981 93.67852 L 186.12301 93.88936 L 186.18605 94.079012 L 186.35452 94.4578 L 186.41653 94.647453 L 186.50076 94.837105 L 186.58499 95.026241 L 186.64701 95.21486 L 186.73124 95.425183 L 186.81495 95.614319 L 186.87852 95.803971 L 186.9612 95.994141 L 191.28031 95.994141 L 191.19608 95.803971 L 191.11185 95.614319 L 191.02917 95.425183 L 190.96612 95.21486 L 190.88189 95.026241 L 190.79766 94.837105 L 190.71446 94.647453 L 190.54651 94.268148 L 190.46331 94.057825 L 190.37908 93.868172 L 190.31552 93.67852 L 190.23283 93.489384 L 190.06437 93.110079 L 189.98014 92.899756 L 189.89745 92.710103 L 189.8127 92.520451 L 189.72847 92.330798 L 189.66698 92.141663 L 189.58274 91.95201 L 189.49799 91.74117 L 189.41376 91.552035 L 189.33108 91.362382 L 189.24633 91.172729 L 189.16261 90.983594 L 189.07941 90.793941 L 189.01637 90.583101 L 188.93214 90.393966 L 188.84894 90.204313 L 188.76471 90.014661 L 188.68047 89.825008 L 188.59676 89.635356 L 188.51356 89.425033 L 188.42933 89.23538 L 188.36628 89.045728 L 188.28308 88.856592 L 188.19885 88.666939 L 188.11462 88.477804 L 188.03038 88.266964 L 187.94718 88.077311 L 187.77872 87.698523 L 187.71671 87.50887 L 187.63299 87.319218 L 187.54824 87.131116 L 187.46556 86.920276 L 187.38133 86.73114 L 187.29658 86.541488 L 187.21286 86.351835 L 187.12966 86.162183 L 187.06662 85.973047 L 186.98239 85.762207 L 186.89919 85.572555 L 186.64701 85.004114 L 186.56381 84.814461 L 186.47957 84.604138 L 186.41653 84.414486 L 186.33333 84.22535 L 186.2491 84.035697 L 186.16486 83.846045 L 186.08218 83.656392 L 185.99795 83.446069 L 185.82897 83.066764 L 185.76747 82.877112 L 185.68324 82.687976 L 185.59849 82.498324 L 185.51581 82.288 L 185.43158 82.098348 L 185.34734 81.908695 L 185.26311 81.719043 L 185.17991 81.52939 L 185.11687 81.340255 L 185.03263 81.129932 L 184.94943 80.940279 L 184.78149 80.560974 L 180.90317 80.560974 z M 192.98357 80.666394 L 192.98357 95.994141 L 196.96731 95.994141 L 196.96731 86.972469 L 197.09236 87.140934 L 197.19778 87.332137 L 197.32284 87.500085 L 197.42826 87.689738 L 197.55435 87.858203 L 197.65874 88.047339 L 197.78483 88.217354 L 197.8887 88.407007 L 198.0153 88.575472 L 198.12072 88.764608 L 198.24578 88.933073 L 198.3512 89.124276 L 198.47626 89.292741 L 198.58168 89.481877 L 198.70673 89.650342 L 198.81164 89.841545 L 198.93824 90.009493 L 199.0633 90.199146 L 199.16872 90.367611 L 199.29378 90.558297 L 199.3992 90.726762 L 199.52529 90.916414 L 199.62916 91.08488 L 199.75577 91.275566 L 199.85964 91.444031 L 199.98573 91.633167 L 200.09166 91.802148 L 200.2162 91.991801 L 200.32162 92.1613 L 200.44668 92.350435 L 200.5521 92.518901 L 200.67716 92.708553 L 200.78258 92.878569 L 200.90867 93.068221 L 200.99187 93.068221 L 201.09729 92.899756 L 201.22234 92.708553 L 201.32776 92.540088 L 201.45385 92.371623 L 201.55824 92.182487 L 201.68433 92.013505 L 201.7882 91.844006 L 201.89362 91.654871 L 202.02023 91.485889 L 202.1241 91.31794 L 202.2507 91.148442 L 202.35457 90.958789 L 202.48066 90.790324 L 202.58608 90.621342 L 202.68995 90.430656 L 202.81656 90.262708 L 202.92043 90.093726 L 203.04652 89.90459 L 203.15091 89.735608 L 203.277 89.566109 L 203.38242 89.376973 L 203.4868 89.208508 L 203.61289 89.040043 L 203.71676 88.849357 L 203.84337 88.680375 L 203.94879 88.512427 L 204.07333 88.343962 L 204.17927 88.152759 L 204.28262 87.98481 L 204.40923 87.815828 L 204.51465 87.626693 L 204.63971 87.458228 L 204.74513 87.289762 L 204.87018 87.09856 L 204.97509 86.930094 L 204.97509 95.994141 L 209.02083 95.994141 L 209.02083 80.666394 L 204.72394 80.666394 L 204.61852 80.834859 L 204.51465 81.023995 L 204.38856 81.191427 L 204.28262 81.381079 L 204.17927 81.549544 L 204.07333 81.739197 L 203.94879 81.906112 L 203.84337 82.095764 L 203.73795 82.264229 L 203.63408 82.432694 L 203.50747 82.620797 L 203.40361 82.789262 L 203.29819 82.978914 L 203.19328 83.14738 L 203.06823 83.335482 L 202.96229 83.503947 L 202.85842 83.672412 L 202.753 83.861031 L 202.6481 84.029496 L 202.52252 84.218632 L 202.41762 84.387614 L 202.3122 84.575716 L 202.20833 84.744181 L 202.08172 84.933317 L 201.97785 85.100749 L 201.87243 85.269214 L 201.76701 85.458866 L 201.64196 85.627332 L 201.53705 85.816984 L 201.43267 85.983899 L 201.32776 86.173551 L 201.20271 86.342017 L 201.09729 86.530119 L 200.99187 86.698584 L 200.888 86.530119 L 200.78258 86.342017 L 200.65597 86.173551 L 200.5521 85.983899 L 200.44668 85.816984 L 200.34281 85.627332 L 200.23739 85.458866 L 200.1113 85.269214 L 200.00691 85.100749 L 199.90149 84.933317 L 199.79762 84.744181 L 199.69272 84.575716 L 199.56611 84.387614 L 199.46224 84.218632 L 199.35682 84.029496 L 199.25295 83.861031 L 199.14753 83.672412 L 199.02093 83.503947 L 198.91706 83.335482 L 198.81164 83.14738 L 198.70673 82.978914 L 198.58168 82.789262 L 198.47626 82.620797 L 198.37239 82.432694 L 198.26645 82.264229 L 198.16155 82.095764 L 198.03597 81.906112 L 197.93107 81.739197 L 197.82668 81.549544 L 197.72178 81.381079 L 197.61636 81.191427 L 197.4913 81.023995 L 197.3864 80.834859 L 197.28201 80.666394 L 192.98357 80.666394 z M 212.11677 80.666394 L 212.11677 95.994141 L 224.33876 95.994141 L 224.33876 92.520451 L 216.11962 92.520451 L 216.11962 89.909241 L 223.41582 89.909241 L 223.41582 86.646391 L 216.11962 86.646391 L 216.11962 84.141117 L 224.23334 84.141117 L 224.23334 80.666394 L 212.11677 80.666394 z M 182.81055 85.393237 L 182.89478 85.58289 L 182.95782 85.773576 L 183.04102 85.983899 L 183.12526 86.175102 L 183.1883 86.364237 L 183.27253 86.55389 L 183.35573 86.765763 L 183.41826 86.954899 L 183.50301 87.144552 L 183.58724 87.335238 L 183.64874 87.52489 L 183.73349 87.73573 L 183.79653 87.926416 L 183.87922 88.115552 L 183.96396 88.305204 L 184.02701 88.49589 L 184.11124 88.70673 L 184.19392 88.896383 L 184.25749 89.086552 L 184.34172 89.276204 L 184.4244 89.487044 L 184.48796 89.67773 L 184.57168 89.867383 L 181.02926 89.867383 L 181.11246 89.67773 L 181.1755 89.487044 L 181.25974 89.276204 L 181.34397 89.086552 L 181.40598 88.896383 L 181.4897 88.70673 L 181.57445 88.49589 L 181.65765 88.305204 L 181.72017 88.115552 L 181.80492 87.926416 L 181.88864 87.73573 L 181.95065 87.52489 L 182.03488 87.335238 L 182.11912 87.144552 L 182.18268 86.954899 L 182.26536 86.765763 L 182.35011 86.55389 L 182.43383 86.364237 L 182.49584 86.175102 L 182.58007 85.983899 L 182.6643 85.773576 L 182.72735 85.58289 L 182.81055 85.393237 z M 176.45021 114.16771 L 198.07473 121.6024 L 220.62013 114.16771 L 176.45021 114.16771 z " /><g
       style="fill:none;stroke-width:1.50195"
       id="g1956"
       transform="matrix(0.17615945,0,0,0.17615945,141.4286,0.00156191)" /></g><style
     type="text/css"
     id="style307">
	.st0{fill-rule:evenodd;clip-rule:evenodd;fill:#FFFFFF;}
	.st1{fill:#FFFFFF;}
	.st2{fill-rule:evenodd;clip-rule:evenodd;}
</style><style
     type="text/css"
     id="style512">
	.st0{fill-rule:evenodd;clip-rule:evenodd;fill:#FFFFFF;}
	.st1{fill:#FFFFFF;}
	.st2{fill-rule:evenodd;clip-rule:evenodd;}
</style><style
     type="text/css"
     id="style524">
	.st0{fill:none;stroke:#000000;stroke-width:54.1005;stroke-miterlimit:10;}
	.st1{fill:none;stroke:#000000;stroke-width:55.7397;stroke-miterlimit:10;}
	.st2{fill:#FFEF00;}
	.st3{fill:url(#SVGID_1_);}
	.st4{fill:#FFFFFF;}
	.st5{fill:url(#SVGID_2_);}
	.st6{fill:url(#SVGID_3_);}
	.st7{fill:url(#SVGID_4_);}
	.st8{fill:url(#SVGID_5_);}
	.st9{fill:url(#SVGID_6_);}
	.st10{fill:url(#SVGID_7_);}
	.st11{fill:url(#SVGID_8_);}
	.st12{fill:url(#SVGID_9_);}
	.st13{fill:url(#SVGID_10_);}
	.st14{fill:url(#SVGID_11_);}
	.st15{fill:url(#SVGID_12_);}
	.st16{fill:url(#SVGID_13_);}
	.st17{fill:url(#SVGID_14_);}
	.st18{fill:url(#SVGID_15_);}
	.st19{fill:url(#SVGID_16_);}
	.st20{fill:url(#SVGID_17_);}
	.st21{fill:url(#SVGID_18_);}
	.st22{fill:url(#SVGID_19_);}
	.st23{fill:url(#SVGID_20_);}
	.st24{fill:url(#SVGID_21_);}
</style></svg>
