<?xml version="1.0" encoding="UTF-8" standalone="no"?>
<!-- Created with Inkscape (http://www.inkscape.org/) -->

<svg
   width="1500"
   height="500"
   viewBox="0 0 396.87498 132.29167"
   version="1.1"
   id="svg5"
   inkscape:version="1.2.2 (732a01da63, 2022-12-09)"
   xml:space="preserve"
   sodipodi:docname="famicom.svg"
   xmlns:inkscape="http://www.inkscape.org/namespaces/inkscape"
   xmlns:sodipodi="http://sodipodi.sourceforge.net/DTD/sodipodi-0.dtd"
   xmlns="http://www.w3.org/2000/svg"
   xmlns:svg="http://www.w3.org/2000/svg"><sodipodi:namedview
     id="namedview7"
     pagecolor="#000000"
     bordercolor="#111111"
     borderopacity="1"
     inkscape:showpageshadow="0"
     inkscape:pageopacity="0"
     inkscape:pagecheckerboard="1"
     inkscape:deskcolor="#d1d1d1"
     inkscape:document-units="mm"
     showgrid="false"
     inkscape:zoom="0.62760417"
     inkscape:cx="673.9917"
     inkscape:cy="208.73029"
     inkscape:window-width="1920"
     inkscape:window-height="1009"
     inkscape:window-x="-8"
     inkscape:window-y="-8"
     inkscape:window-maximized="1"
     inkscape:current-layer="layer1" /><defs
     id="defs2">
		
	
		
		
		
	
		
		
		
		
		
		
		
		
		
		
	
			
			
			
			
			
			
			
		<clipPath
   id="clip1"><rect
     width="647.167"
     height="750.977"
     fill="white"
     id="rect1942" /></clipPath></defs><g
     inkscape:label="Layer 1"
     inkscape:groupmode="layer"
     id="layer1"><path
       id="rect231"
       style="fill:#ffffff;stroke-width:0.8001;stroke-linecap:square;paint-order:fill markers stroke"
       d="M 0 0 L 0 47.017285 L 21.072099 47.017285 L 21.072099 54.340352 L 7.3819784 54.340352 L 7.3819784 63.224048 L 21.072099 63.224048 L 21.072099 70.778625 L 7.3819784 70.778625 L 7.3819784 86.566292 L 0 86.566292 L 0 132.29167 L 396.875 132.29167 L 396.875 87.080473 L 388.81864 87.080473 L 376.79095 66.591801 L 376.11244 66.591801 L 376.11244 87.080473 L 368.75424 87.080473 L 368.75424 47.357833 L 378.97997 47.34388 L 384.77651 47.348014 C 391.48766 47.886199 396.76803 53.487647 396.76803 60.319832 C 396.76803 65.901526 393.24359 70.661753 388.29258 72.509786 L 396.875 87.080473 L 396.875 0 L 0 0 z M 39.189339 47.017285 L 45.035494 47.017285 L 45.035494 86.566292 L 37.858154 86.566292 L 37.858154 80.410596 L 23.95151 80.410596 L 19.831864 86.566292 L 11.380184 86.566292 L 39.189339 47.017285 z M 47.847209 47.017285 L 56.173832 47.017285 L 67.913167 73.602226 L 79.736218 47.017285 L 88.146041 47.017285 L 88.146041 86.566292 L 80.736157 86.566292 L 80.736157 66.627458 L 71.57651 86.566292 L 64.083427 86.566292 L 55.258643 66.627458 L 55.258643 86.566292 L 47.847209 86.566292 L 47.847209 47.017285 z M 90.483366 47.017285 L 98.153182 47.017285 L 98.153182 86.566292 L 90.483366 86.566292 L 90.483366 47.017285 z M 100.26675 47.017285 L 107.93398 47.017285 L 107.93398 79.357947 L 117.92769 79.357947 L 117.92769 86.566292 L 100.26675 86.566292 L 100.26675 47.017285 z M 109.40676 47.017285 L 117.92769 47.017285 L 125.98611 63.224048 L 133.81044 47.017285 L 142.25385 47.017285 L 129.54816 72.173372 L 129.54816 86.566292 L 122.11244 86.566292 L 122.11244 72.173372 L 109.40676 47.017285 z M 226.31797 47.017285 L 234.64459 47.017285 L 246.38393 73.602226 L 258.20698 47.017285 L 266.6168 47.017285 L 266.6168 86.566292 L 259.20692 86.566292 L 259.20692 66.627458 L 250.04727 86.566292 L 242.55419 86.566292 L 233.72785 66.627458 L 233.72785 86.566292 L 226.31797 86.566292 L 226.31797 47.017285 z M 269.18047 47.017285 L 276.61567 47.017285 L 282.41429 47.021419 C 289.12543 47.5596 294.40374 53.163031 294.40374 59.993237 C 294.40374 66.823442 289.12543 72.426781 282.41429 72.962988 L 276.61567 72.93715 L 276.61567 86.566292 L 269.18047 86.566292 L 269.18047 47.017285 z M 203.87076 47.057076 C 215.0527 47.057076 224.11914 56.095023 224.11914 67.246541 C 224.11914 78.39608 215.0527 87.434456 203.87076 87.434456 C 192.68881 87.434456 183.62393 78.39608 183.62393 67.246541 C 183.62393 56.095023 192.68881 47.057076 203.87076 47.057076 z M 166.09425 47.161979 C 173.84323 47.161979 180.5722 51.526797 183.93968 57.925663 L 174.78985 57.899825 C 172.54949 55.883608 169.58065 54.655062 166.32628 54.655062 C 159.35319 54.655062 153.69966 60.290132 153.69966 67.244991 C 153.69966 74.19985 159.35319 79.836987 166.32628 79.836987 C 169.62827 79.836987 172.63466 78.572552 174.88493 76.504891 L 184.01099 76.429443 C 180.66733 82.903497 173.8988 87.33007 166.09425 87.33007 C 154.96986 87.33007 145.95285 78.336722 145.95285 67.246541 C 145.95285 56.154383 154.96986 47.161979 166.09425 47.161979 z M 296.48164 47.357833 L 304.12356 47.357833 L 304.09772 69.870671 L 304.10133 75.65223 C 304.5756 78.18091 306.80222 80.093819 309.47517 80.093819 C 312.1501 80.093819 314.3768 78.18091 314.85107 75.65223 L 314.85675 69.870671 L 314.87484 47.357833 L 322.49091 47.357833 L 322.49091 69.870671 L 322.48471 75.65223 C 321.94497 82.343932 316.32721 87.607056 309.47517 87.607056 C 302.62511 87.607056 297.00743 82.343932 296.46769 75.65223 L 296.4956 69.870671 L 296.48164 47.357833 z M 323.59007 47.357833 L 344.35056 47.357833 L 344.35056 54.844714 L 337.61143 54.844714 L 337.61143 87.080473 L 330.09665 87.080473 L 330.09665 54.844714 L 323.59007 54.844714 L 323.59007 47.357833 z M 346.17215 47.357833 L 366.81792 47.357833 L 366.81792 54.629224 L 353.57015 54.629224 L 353.57015 64.061206 L 366.81792 64.061206 L 366.81792 71.477291 L 353.57015 71.477291 L 353.57015 79.74397 L 366.81792 79.74397 L 366.81792 87.080473 L 346.17215 87.080473 L 346.17215 47.357833 z M 203.94827 54.472644 C 196.87399 54.472644 191.13717 60.190773 191.13717 67.246541 C 191.13717 74.300332 196.87399 80.018888 203.94827 80.018888 C 211.02257 80.018888 216.75938 74.300332 216.75938 67.246541 C 216.75938 60.190773 211.02257 54.472644 203.94827 54.472644 z M 276.61567 54.629224 L 276.61567 65.357251 L 282.41429 65.35105 C 284.9523 64.880137 286.87138 62.660421 286.87138 59.993237 C 286.87138 57.326053 284.9523 55.107798 282.41429 54.634908 L 276.61567 54.629224 z M 376.11244 54.959436 L 376.11244 65.683846 L 384.77806 65.677645 C 387.31409 65.204753 389.23516 62.987016 389.23516 60.319832 C 389.23516 57.652648 387.31409 55.432326 384.77806 54.959436 L 376.11244 54.959436 z M 37.858154 61.397803 L 29.364616 72.93715 L 37.858154 72.93715 L 37.858154 61.397803 z " /><g
       transform="matrix(0.11641667,0,0,0.11607932,121.0584,163.37252)"
       id="g2002" /></g><style
     type="text/css"
     id="style307">
	.st0{fill-rule:evenodd;clip-rule:evenodd;fill:#FFFFFF;}
	.st1{fill:#FFFFFF;}
	.st2{fill-rule:evenodd;clip-rule:evenodd;}
</style><style
     type="text/css"
     id="style512">
	.st0{fill-rule:evenodd;clip-rule:evenodd;fill:#FFFFFF;}
	.st1{fill:#FFFFFF;}
	.st2{fill-rule:evenodd;clip-rule:evenodd;}
</style><style
     type="text/css"
     id="style524">
	.st0{fill:none;stroke:#000000;stroke-width:54.1005;stroke-miterlimit:10;}
	.st1{fill:none;stroke:#000000;stroke-width:55.7397;stroke-miterlimit:10;}
	.st2{fill:#FFEF00;}
	.st3{fill:url(#SVGID_1_);}
	.st4{fill:#FFFFFF;}
	.st5{fill:url(#SVGID_2_);}
	.st6{fill:url(#SVGID_3_);}
	.st7{fill:url(#SVGID_4_);}
	.st8{fill:url(#SVGID_5_);}
	.st9{fill:url(#SVGID_6_);}
	.st10{fill:url(#SVGID_7_);}
	.st11{fill:url(#SVGID_8_);}
	.st12{fill:url(#SVGID_9_);}
	.st13{fill:url(#SVGID_10_);}
	.st14{fill:url(#SVGID_11_);}
	.st15{fill:url(#SVGID_12_);}
	.st16{fill:url(#SVGID_13_);}
	.st17{fill:url(#SVGID_14_);}
	.st18{fill:url(#SVGID_15_);}
	.st19{fill:url(#SVGID_16_);}
	.st20{fill:url(#SVGID_17_);}
	.st21{fill:url(#SVGID_18_);}
	.st22{fill:url(#SVGID_19_);}
	.st23{fill:url(#SVGID_20_);}
	.st24{fill:url(#SVGID_21_);}
</style></svg>
