<?xml version="1.0" encoding="UTF-8" standalone="no"?>
<!-- Created with Inkscape (http://www.inkscape.org/) -->

<svg
   width="1500"
   height="500"
   viewBox="0 0 396.87498 132.29167"
   version="1.1"
   id="svg5"
   inkscape:version="1.2.2 (732a01da63, 2022-12-09)"
   xml:space="preserve"
   sodipodi:docname="fba.svg"
   xmlns:inkscape="http://www.inkscape.org/namespaces/inkscape"
   xmlns:sodipodi="http://sodipodi.sourceforge.net/DTD/sodipodi-0.dtd"
   xmlns="http://www.w3.org/2000/svg"
   xmlns:svg="http://www.w3.org/2000/svg"><sodipodi:namedview
     id="namedview7"
     pagecolor="#000000"
     bordercolor="#111111"
     borderopacity="1"
     inkscape:showpageshadow="0"
     inkscape:pageopacity="0"
     inkscape:pagecheckerboard="1"
     inkscape:deskcolor="#d1d1d1"
     inkscape:document-units="mm"
     showgrid="false"
     inkscape:zoom="0.62760417"
     inkscape:cx="474.82157"
     inkscape:cy="208.73029"
     inkscape:window-width="1920"
     inkscape:window-height="1009"
     inkscape:window-x="-8"
     inkscape:window-y="-8"
     inkscape:window-maximized="1"
     inkscape:current-layer="layer1" /><defs
     id="defs2">
		
	
		
		
		
	
		
		
		
		
		
		
		
		
		
		
	
			
			
			
			
			
			
			
		<clipPath
   id="clip1"><rect
     width="647.167"
     height="750.977"
     fill="white"
     id="rect1942" /></clipPath></defs><g
     inkscape:label="Layer 1"
     inkscape:groupmode="layer"
     id="layer1"><path
       id="rect231"
       style="fill:#ffffff;stroke-width:0.8001;stroke-linecap:square;paint-order:fill markers stroke"
       d="M 0 0 L 0 42.248584 L 44.836023 42.248584 C 51.700436 42.248584 57.272473 47.810286 57.272473 54.674699 L 57.272473 61.115649 L 36.472192 61.115649 L 0 48.285942 L 0 132.29167 L 396.875 132.29167 L 396.875 77.325513 L 391.59212 77.325513 L 389.49354 72.166654 L 379.77579 72.166654 L 377.67721 77.325513 L 372.51886 77.325513 L 382.36064 54.178605 L 387.02289 54.178605 L 396.875 77.325513 L 396.875 0 L 0 0 z M 134.9313 54.178605 L 139.59355 54.178605 L 149.44566 77.325513 L 144.16329 77.325513 L 142.06471 72.166654 L 132.34696 72.166654 L 130.24838 77.325513 L 125.08952 77.325513 L 134.9313 54.178605 z M 292.51289 54.178605 L 297.17566 54.178605 L 307.02777 77.325513 L 301.74489 77.325513 L 299.64631 72.166654 L 289.92856 72.166654 L 287.82998 77.325513 L 282.67112 77.325513 L 292.51289 54.178605 z M 71.011686 54.34397 L 88.513977 54.34397 L 88.513977 58.944722 L 76.066675 58.944722 L 76.066675 63.834347 L 87.035514 63.834347 L 87.035514 68.434583 L 76.066675 68.434583 L 76.066675 77.335848 L 71.011686 77.335848 L 71.011686 54.34397 z M 91.956144 54.34397 L 97.01165 54.34397 L 97.01165 77.325513 L 91.956144 77.325513 L 91.956144 54.34397 z M 101.93228 54.34397 L 106.59504 54.34397 L 117.367 68.496594 L 117.367 54.34397 L 122.36049 54.34397 L 122.36049 77.325513 L 118.05946 77.325513 L 106.92577 62.718136 L 106.92577 77.325513 L 101.93228 77.325513 L 101.93228 54.34397 z M 152.16487 54.34397 L 157.21986 54.34397 L 157.21986 72.725277 L 168.67446 72.725277 L 168.67446 77.325513 L 152.16487 77.325513 L 152.16487 54.34397 z M 180.68716 54.34397 L 180.6975 54.34397 L 191.3661 54.34397 C 193.99194 54.34397 196.05952 55.067609 197.37245 56.380538 C 198.42692 57.435007 198.94393 58.706601 198.94393 60.28831 L 198.94393 60.350321 C 198.94393 62.945149 197.56925 64.39273 195.92551 65.312809 C 198.58237 66.325928 200.22602 67.876709 200.22602 70.957426 L 200.22602 71.019438 C 200.22602 75.216653 196.81465 77.325513 191.625 77.325513 L 180.68716 77.325513 L 180.68716 54.34397 z M 203.21344 54.34397 L 208.26894 54.34397 L 208.26894 67.349377 C 208.26894 71.091724 210.13987 73.025 213.23091 73.025 C 216.32197 73.025 218.1934 71.153713 218.1934 67.504407 L 218.1934 54.34397 L 223.24891 54.34397 L 223.24891 67.308036 C 223.24891 74.265489 219.34066 77.687248 213.1689 77.687248 C 206.9868 77.687248 203.21344 74.244764 203.21344 67.473401 L 203.21344 54.34397 z M 227.59076 54.34397 L 238.08366 54.34397 C 241.0093 54.34397 243.27313 55.160587 244.78247 56.669926 C 246.06437 57.951835 246.75703 59.761174 246.75703 61.921802 L 246.75703 61.983813 C 246.75703 65.69515 244.75171 68.021404 241.8364 69.106893 L 247.45001 77.315177 L 241.53668 77.315177 L 236.61553 69.964722 L 232.64575 69.964722 L 232.64575 77.315177 L 227.59076 77.315177 L 227.59076 54.34397 z M 250.4891 54.34397 L 255.15187 54.34397 L 265.92382 68.496594 L 265.92382 54.34397 L 270.91731 54.34397 L 270.91731 77.325513 L 266.61628 77.325513 L 255.4826 62.718136 L 255.4826 77.325513 L 250.4891 77.325513 L 250.4891 54.34397 z M 309.74647 54.34397 L 314.80197 54.34397 L 314.80197 72.725277 L 326.25605 72.725277 L 326.25605 77.325513 L 309.74647 77.325513 L 309.74647 54.34397 z M 329.23365 54.34397 L 329.24399 54.34397 L 338.63101 54.34397 C 344.11012 54.34397 347.42841 57.590097 347.42841 62.293872 L 347.42841 62.355884 C 347.42841 67.669598 343.29304 70.42981 338.1344 70.42981 L 334.28864 70.42981 L 334.28864 77.325513 L 329.23365 77.325513 L 329.23365 54.34397 z M 350.35433 54.34397 L 355.40931 54.34397 L 355.40931 63.441606 L 364.73433 63.441606 L 364.73433 54.34397 L 369.78931 54.34397 L 369.78931 77.325513 L 364.73433 77.325513 L 364.73433 68.103853 L 355.40931 68.103853 L 355.40931 77.325513 L 350.35433 77.325513 L 350.35433 54.34397 z M 19.094442 56.680261 L 34.808211 62.200854 L 34.808211 76.363814 L 39.873535 76.363814 L 39.873535 89.617269 L 12.105721 89.617269 L 12.105721 81.739714 L 19.094442 79.238057 L 19.094442 56.680261 z M 185.60831 58.779358 L 185.60831 63.637976 L 190.28089 63.637976 C 192.51389 63.637976 193.91995 62.914435 193.91995 61.208667 L 193.91995 61.146655 C 193.91995 59.637317 192.74124 58.779358 190.60129 58.779358 L 185.60831 58.779358 z M 334.29897 58.903381 L 334.29897 65.932926 L 338.3101 65.932926 C 340.8429 65.932926 342.31141 64.423449 342.31141 62.448901 L 342.31141 62.38689 C 342.31141 60.122882 340.73955 58.903381 338.20675 58.903381 L 334.29897 58.903381 z M 232.63541 58.913717 L 232.63541 65.50918 L 237.75293 65.50918 C 240.21337 65.50918 241.6297 64.196064 241.6297 62.262866 L 241.6297 62.200854 C 241.6297 60.029877 240.12035 58.913717 237.65991 58.913717 L 232.63541 58.913717 z M 137.19524 60.257304 L 134.14582 67.711112 L 140.24519 67.711112 L 137.19524 60.257304 z M 294.77736 60.257304 L 291.72741 67.711112 L 297.82678 67.711112 L 294.77736 60.257304 z M 384.63492 60.257304 L 381.58498 67.711112 L 387.68435 67.711112 L 384.63492 60.257304 z M 36.472192 62.790483 L 57.272473 62.790483 L 57.272473 74.689498 L 36.472192 74.689498 L 36.472192 62.790483 z M 185.61864 67.845471 L 185.61864 72.900977 L 191.625 72.900977 L 191.625 72.890641 C 193.85799 72.890641 195.20152 72.104562 195.20152 70.398804 L 195.20152 70.336792 C 195.20152 68.796434 194.05394 67.845471 191.45911 67.845471 L 185.61864 67.845471 z " /></g><style
     type="text/css"
     id="style307">
	.st0{fill-rule:evenodd;clip-rule:evenodd;fill:#FFFFFF;}
	.st1{fill:#FFFFFF;}
	.st2{fill-rule:evenodd;clip-rule:evenodd;}
</style><style
     type="text/css"
     id="style512">
	.st0{fill-rule:evenodd;clip-rule:evenodd;fill:#FFFFFF;}
	.st1{fill:#FFFFFF;}
	.st2{fill-rule:evenodd;clip-rule:evenodd;}
</style><style
     type="text/css"
     id="style524">
	.st0{fill:none;stroke:#000000;stroke-width:54.1005;stroke-miterlimit:10;}
	.st1{fill:none;stroke:#000000;stroke-width:55.7397;stroke-miterlimit:10;}
	.st2{fill:#FFEF00;}
	.st3{fill:url(#SVGID_1_);}
	.st4{fill:#FFFFFF;}
	.st5{fill:url(#SVGID_2_);}
	.st6{fill:url(#SVGID_3_);}
	.st7{fill:url(#SVGID_4_);}
	.st8{fill:url(#SVGID_5_);}
	.st9{fill:url(#SVGID_6_);}
	.st10{fill:url(#SVGID_7_);}
	.st11{fill:url(#SVGID_8_);}
	.st12{fill:url(#SVGID_9_);}
	.st13{fill:url(#SVGID_10_);}
	.st14{fill:url(#SVGID_11_);}
	.st15{fill:url(#SVGID_12_);}
	.st16{fill:url(#SVGID_13_);}
	.st17{fill:url(#SVGID_14_);}
	.st18{fill:url(#SVGID_15_);}
	.st19{fill:url(#SVGID_16_);}
	.st20{fill:url(#SVGID_17_);}
	.st21{fill:url(#SVGID_18_);}
	.st22{fill:url(#SVGID_19_);}
	.st23{fill:url(#SVGID_20_);}
	.st24{fill:url(#SVGID_21_);}
</style></svg>
