<?xml version="1.0" encoding="UTF-8" standalone="no"?>
<!-- Created with Inkscape (http://www.inkscape.org/) -->

<svg
   width="1500"
   height="500"
   viewBox="0 0 396.87498 132.29167"
   version="1.1"
   id="svg5"
   inkscape:version="1.2.2 (732a01da63, 2022-12-09)"
   xml:space="preserve"
   sodipodi:docname="fbneo.svg"
   xmlns:inkscape="http://www.inkscape.org/namespaces/inkscape"
   xmlns:sodipodi="http://sodipodi.sourceforge.net/DTD/sodipodi-0.dtd"
   xmlns="http://www.w3.org/2000/svg"
   xmlns:svg="http://www.w3.org/2000/svg"><sodipodi:namedview
     id="namedview7"
     pagecolor="#000000"
     bordercolor="#111111"
     borderopacity="1"
     inkscape:showpageshadow="0"
     inkscape:pageopacity="0"
     inkscape:pagecheckerboard="1"
     inkscape:deskcolor="#d1d1d1"
     inkscape:document-units="mm"
     showgrid="false"
     inkscape:zoom="0.62760417"
     inkscape:cx="474.82157"
     inkscape:cy="208.73029"
     inkscape:window-width="1920"
     inkscape:window-height="1009"
     inkscape:window-x="-8"
     inkscape:window-y="-8"
     inkscape:window-maximized="1"
     inkscape:current-layer="layer1" /><defs
     id="defs2">
		
	
		
		
		
	
		
		
		
		
		
		
		
		
		
		
	
			
			
			
			
			
			
			
		<clipPath
   id="clip1"><rect
     width="647.167"
     height="750.977"
     fill="white"
     id="rect1942" /></clipPath></defs><g
     inkscape:label="Layer 1"
     inkscape:groupmode="layer"
     id="layer1"><path
       id="rect231"
       style="fill:#ffffff;stroke-width:0.8001;stroke-linecap:square;paint-order:fill markers stroke"
       d="M 0 0 L 0 39.61877 L 50.221741 39.61877 C 57.91317 39.61877 64.146989 45.852572 64.146989 53.533683 L 64.146989 60.749264 L 40.855904 60.749264 L 0 46.379598 L 0 132.29167 L 396.875 132.29167 L 396.875 66.032145 C 396.875 73.351426 391.10636 79.347611 383.15646 79.347611 C 375.2169 79.347611 369.51026 73.423773 369.51026 66.104492 L 369.51026 66.032145 C 369.51026 58.712863 375.2789 52.716679 383.2288 52.716679 C 391.16836 52.716679 396.875 58.640516 396.875 65.959798 L 396.875 0 L 0 0 z M 151.13083 52.975061 L 156.3517 52.975061 L 167.38203 78.902677 L 161.45836 78.902677 L 159.1014 73.134554 L 148.21576 73.134554 L 145.86913 78.902677 L 140.10049 78.902677 L 151.13083 52.975061 z M 79.530029 53.161096 L 99.1309 53.161096 L 99.1309 58.309619 L 85.195317 58.309619 L 85.195317 63.788871 L 97.476737 63.788871 L 97.476737 68.936877 L 85.195317 68.936877 L 85.195317 78.902677 L 79.530029 78.902677 L 79.530029 53.161096 z M 102.99733 53.161096 L 108.66262 53.161096 L 108.66262 78.902677 L 102.99733 78.902677 L 102.99733 53.161096 z M 114.16254 53.161096 L 119.38289 53.161096 L 131.44727 69.009224 L 131.44727 53.161096 L 137.04021 53.161096 L 137.04021 78.902677 L 132.22294 78.902677 L 119.75496 62.537785 L 119.75496 78.902677 L 114.16254 78.902677 L 114.16254 53.161096 z M 170.43197 53.161096 L 176.09726 53.161096 L 176.09726 73.754671 L 188.92645 73.754671 L 188.92645 78.902677 L 170.43197 78.902677 L 170.43197 53.161096 z M 202.39695 53.161096 L 214.34764 53.161096 C 219.60967 53.161096 222.84531 55.776941 222.84531 59.819088 L 222.84531 59.891435 C 222.84531 62.796403 221.30533 64.419575 219.46516 65.443034 C 222.44251 66.580211 224.28243 68.306562 224.28243 71.769779 L 224.28243 71.842126 C 224.2618 76.55624 220.44695 78.902677 214.63703 78.902677 L 202.39695 78.902677 L 202.39695 53.161096 z M 227.61143 53.161096 L 233.27672 53.161096 L 233.27672 67.727649 C 233.27672 71.914525 235.37491 74.0854 238.8278 74.0854 C 242.28066 74.0854 244.3794 71.986847 244.3794 67.903349 L 244.3794 53.161096 L 250.04469 53.161096 L 250.04469 67.686308 C 250.04469 75.491474 245.67155 79.30627 238.75545 79.30627 C 231.83933 79.30627 227.61143 75.450076 227.61143 67.872343 L 227.61143 53.161096 z M 254.89297 53.161096 L 266.65763 53.161096 C 272.72602 53.161096 276.36504 56.355907 276.36504 61.659285 L 276.36504 61.731632 C 276.36504 65.887496 274.1216 68.492659 270.84445 69.712541 L 277.13037 78.902677 L 270.52406 78.902677 L 265.00398 70.663387 L 260.55826 70.663387 L 260.55826 78.902677 L 254.89297 78.902677 L 254.89297 53.161096 z M 280.5622 53.161096 L 285.78307 53.161096 L 297.84745 69.009224 L 297.84745 53.161096 L 303.44039 53.161096 L 303.44039 78.902677 L 298.6226 78.902677 L 286.15514 62.537785 L 286.15514 78.902677 L 280.5622 78.902677 L 280.5622 53.161096 z M 318.80276 53.161096 L 324.02312 53.161096 L 336.0875 69.01956 L 336.0875 53.161096 L 341.68044 53.161096 L 341.68044 78.902677 L 336.86316 78.902677 L 324.39519 62.537785 L 324.39519 78.902677 L 318.80276 78.902677 L 318.80276 53.161096 z M 346.94265 53.161096 L 366.35748 53.161096 L 366.35748 58.195931 L 352.56659 58.195931 L 352.56659 63.416801 L 364.70332 63.416801 L 364.70332 68.461454 L 352.56659 68.461454 L 352.56659 73.868359 L 366.54352 73.868359 L 366.54352 78.902677 L 346.94265 78.902677 L 346.94265 53.161096 z M 21.389392 55.776957 L 38.984701 61.969344 L 38.984701 77.827808 L 44.660323 77.827808 L 44.660323 92.672896 L 13.563513 92.672896 L 13.563513 83.844495 L 21.389392 81.043115 L 21.389392 55.776957 z M 383.15646 57.937549 C 378.5974 57.937549 375.43393 61.545488 375.43393 65.949463 L 375.43393 66.02181 C 375.43393 70.436123 378.66975 74.116406 383.2288 74.116406 C 387.78784 74.116406 390.95133 70.508467 390.95133 66.104492 L 390.95133 66.032145 C 390.95133 61.617833 387.71549 57.937549 383.15646 57.937549 z M 207.90721 58.133919 L 207.90721 63.57183 L 213.12756 63.57183 C 215.62935 63.57183 217.21103 62.765141 217.21103 60.852616 L 217.21103 60.780269 C 217.21103 59.084843 215.88822 58.133919 213.50015 58.133919 L 207.90721 58.133919 z M 260.56859 58.278613 L 260.56859 65.67041 L 266.30623 65.67041 C 269.06646 65.67041 270.64808 64.202329 270.64808 62.031356 L 270.64808 61.959009 L 270.63774 61.959009 C 270.63774 59.529585 268.94246 58.278613 266.19254 58.278613 L 260.56859 58.278613 z M 153.66349 59.788082 L 150.24199 68.130725 L 157.0855 68.130725 L 153.66349 59.788082 z M 40.855904 62.620467 L 64.146989 62.620467 L 64.146989 75.956604 L 40.855904 75.956604 L 40.855904 62.620467 z M 207.89687 68.285754 L 207.89687 73.940706 L 214.62669 73.940706 C 217.12848 73.940706 218.63782 73.062188 218.63782 71.149662 L 218.63782 71.076799 C 218.63782 69.35036 217.35597 68.285754 214.44066 68.285754 L 207.89687 68.285754 z " /><g
       id="g2519"
       transform="matrix(0.26458333,0,0,0.26458333,-393.19882,86.405012)" /></g><style
     type="text/css"
     id="style307">
	.st0{fill-rule:evenodd;clip-rule:evenodd;fill:#FFFFFF;}
	.st1{fill:#FFFFFF;}
	.st2{fill-rule:evenodd;clip-rule:evenodd;}
</style><style
     type="text/css"
     id="style512">
	.st0{fill-rule:evenodd;clip-rule:evenodd;fill:#FFFFFF;}
	.st1{fill:#FFFFFF;}
	.st2{fill-rule:evenodd;clip-rule:evenodd;}
</style><style
     type="text/css"
     id="style524">
	.st0{fill:none;stroke:#000000;stroke-width:54.1005;stroke-miterlimit:10;}
	.st1{fill:none;stroke:#000000;stroke-width:55.7397;stroke-miterlimit:10;}
	.st2{fill:#FFEF00;}
	.st3{fill:url(#SVGID_1_);}
	.st4{fill:#FFFFFF;}
	.st5{fill:url(#SVGID_2_);}
	.st6{fill:url(#SVGID_3_);}
	.st7{fill:url(#SVGID_4_);}
	.st8{fill:url(#SVGID_5_);}
	.st9{fill:url(#SVGID_6_);}
	.st10{fill:url(#SVGID_7_);}
	.st11{fill:url(#SVGID_8_);}
	.st12{fill:url(#SVGID_9_);}
	.st13{fill:url(#SVGID_10_);}
	.st14{fill:url(#SVGID_11_);}
	.st15{fill:url(#SVGID_12_);}
	.st16{fill:url(#SVGID_13_);}
	.st17{fill:url(#SVGID_14_);}
	.st18{fill:url(#SVGID_15_);}
	.st19{fill:url(#SVGID_16_);}
	.st20{fill:url(#SVGID_17_);}
	.st21{fill:url(#SVGID_18_);}
	.st22{fill:url(#SVGID_19_);}
	.st23{fill:url(#SVGID_20_);}
	.st24{fill:url(#SVGID_21_);}
</style></svg>
