<?xml version="1.0" encoding="UTF-8" standalone="no"?>
<!-- Created with Inkscape (http://www.inkscape.org/) -->

<svg
   width="1500"
   height="500"
   viewBox="0 0 396.87498 132.29167"
   version="1.1"
   id="svg5"
   inkscape:version="1.2.2 (732a01da63, 2022-12-09)"
   xml:space="preserve"
   sodipodi:docname="fds.svg"
   xmlns:inkscape="http://www.inkscape.org/namespaces/inkscape"
   xmlns:sodipodi="http://sodipodi.sourceforge.net/DTD/sodipodi-0.dtd"
   xmlns="http://www.w3.org/2000/svg"
   xmlns:svg="http://www.w3.org/2000/svg"><sodipodi:namedview
     id="namedview7"
     pagecolor="#000000"
     bordercolor="#111111"
     borderopacity="1"
     inkscape:showpageshadow="0"
     inkscape:pageopacity="0"
     inkscape:pagecheckerboard="1"
     inkscape:deskcolor="#d1d1d1"
     inkscape:document-units="mm"
     showgrid="false"
     inkscape:zoom="0.62760417"
     inkscape:cx="474.82157"
     inkscape:cy="208.73029"
     inkscape:window-width="1920"
     inkscape:window-height="1009"
     inkscape:window-x="-8"
     inkscape:window-y="-8"
     inkscape:window-maximized="1"
     inkscape:current-layer="layer1" /><defs
     id="defs2">
		
	
		
		
		
	
		
		
		
		
		
		
		
		
		
		
	
			
			
			
			
			
			
			
		<clipPath
   id="clip1"><rect
     width="647.167"
     height="750.977"
     fill="white"
     id="rect1942" /></clipPath></defs><g
     inkscape:label="Layer 1"
     inkscape:groupmode="layer"
     id="layer1"><path
       id="rect231"
       style="fill:#ffffff;stroke-width:0.8001;stroke-linecap:square;paint-order:fill markers stroke"
       d="M 0 0 L 0 70.628247 C 0.0019843724 65.790635 2.6629705 61.572028 6.6006307 59.369503 L 6.6006307 39.890588 C 6.6026151 34.962228 10.589951 30.967102 15.511198 30.967102 L 63.327401 30.967102 C 68.249311 30.967102 72.238485 34.962228 72.238485 39.890588 L 72.238485 59.369503 C 76.175482 61.572028 78.837131 65.790635 78.839115 70.628247 C 78.837131 75.465858 76.175482 79.682993 72.238485 81.887508 L 72.238485 86.201973 C 74.911436 87.507593 76.747336 90.254422 76.74932 93.432023 C 76.747336 97.874172 73.155492 101.47391 68.717769 101.47391 L 45.728475 101.47391 L 45.728475 99.710193 C 45.722521 96.244441 42.91984 93.437983 39.45909 93.432023 L 39.45909 91.667273 L 39.45909 89.90459 C 44.265907 89.906577 48.260558 93.374282 49.090027 97.949577 L 68.719836 97.949577 C 71.210888 97.943615 73.226621 95.924686 73.228605 93.432023 C 73.232574 91.381189 71.8617 89.650374 69.995728 89.097921 L 69.26709 88.883464 L 68.719836 87.800326 L 68.719836 87.378129 L 68.719836 80.851396 L 68.719836 80.458138 L 69.193709 79.442696 L 69.791089 79.176046 C 73.050093 77.70946 75.322452 74.436386 75.320467 70.62618 C 75.322452 66.833859 73.071838 63.575057 69.838631 62.098535 L 69.712024 62.040658 L 68.719836 61.382817 L 68.719836 60.436621 L 68.719836 39.888521 C 68.713883 36.907658 66.304624 34.496878 63.327401 34.490918 L 15.511198 34.490918 C 12.534637 34.49688 10.127817 36.907658 10.121863 39.888521 L 10.121863 60.436621 L 10.121863 61.382817 L 9.3312134 61.905782 L 9.1265747 62.040658 L 9.0020345 62.098535 C 5.7675042 63.575057 3.518731 66.835845 3.5207153 70.62618 C 3.518731 74.436386 5.791234 77.70946 9.0495768 79.176046 L 9.6448893 79.442696 L 10.121863 80.458138 L 10.121863 80.851396 L 10.121863 87.378129 L 10.121863 87.800326 L 9.5715088 88.883464 L 8.8428711 89.097921 C 6.9775591 89.650374 5.6065415 91.381189 5.6105103 93.432023 C 5.6144794 95.926674 7.6287456 97.943615 10.119796 97.949577 L 29.748572 97.949577 C 30.580686 93.374282 34.575275 89.906577 39.382092 89.90459 L 39.455473 89.90459 L 39.455473 91.667273 L 39.455473 93.432023 L 39.384159 93.432023 C 35.920764 93.437985 33.120646 96.244441 33.112708 99.710193 L 33.112708 101.47391 L 10.121863 101.47391 C 5.6861254 101.47193 2.0917793 97.874172 2.0897949 93.432023 C 2.0937641 90.254422 3.9296629 87.507593 6.6006307 86.201973 L 6.6006307 81.887508 C 2.6629705 79.682993 0.0019843724 75.465858 0 70.628247 L 0 132.29167 L 396.875 132.29167 L 396.875 0 L 0 0 z M 89.396611 30.817757 L 97.607479 30.817757 L 97.607479 33.683732 L 92.272921 33.683732 L 92.272921 37.160006 L 97.607479 37.160006 L 97.607479 40.116931 L 92.272921 40.116931 L 92.272921 46.295882 L 89.396611 46.295882 L 89.396611 30.817757 z M 104.66648 30.817757 L 106.94489 30.817757 L 106.94489 46.295882 L 104.14661 46.295882 L 104.14661 43.885177 L 98.728857 43.885177 L 97.123271 46.295882 L 93.830448 46.295882 L 104.66648 30.817757 z M 108.03992 30.817757 L 111.2852 30.817757 L 115.85908 41.22229 L 120.46552 30.817757 L 123.74232 30.817757 L 123.74232 46.295882 L 120.85464 46.295882 L 120.85464 38.491191 L 117.28638 46.295882 L 114.36666 46.295882 L 110.92811 38.491191 L 110.92811 46.295882 L 108.03992 46.295882 L 108.03992 30.817757 z M 124.65337 30.817757 L 127.64182 30.817757 L 127.64182 46.295882 L 124.65337 46.295882 L 124.65337 30.817757 z M 128.46348 30.817757 L 131.45244 30.817757 L 131.45244 43.473832 L 135.34574 43.473832 L 135.34574 46.295882 L 128.46348 46.295882 L 128.46348 30.817757 z M 132.02605 30.817757 L 135.34574 30.817757 L 138.4856 37.160006 L 141.53348 30.817757 L 144.82424 30.817757 L 139.87467 40.661601 L 139.87467 46.295882 L 136.97665 46.295882 L 136.97665 40.661601 L 132.02605 30.817757 z M 177.57986 30.817757 L 180.8241 30.817757 L 185.39902 41.22229 L 190.00494 30.817757 L 193.28329 30.817757 L 193.28329 46.295882 L 190.39561 46.295882 L 190.39561 38.491191 L 186.82581 46.295882 L 183.90609 46.295882 L 180.46702 38.491191 L 180.46702 46.295882 L 177.57986 46.295882 L 177.57986 30.817757 z M 194.27961 30.817757 L 197.17763 30.817757 L 199.43796 30.819824 C 202.05336 31.030471 204.10951 33.222496 204.10951 35.896 C 204.10951 38.568842 202.05336 40.760866 199.43796 40.972176 L 197.17763 40.962358 L 197.17763 46.295882 L 194.27961 46.295882 L 194.27961 30.817757 z M 168.83362 30.833777 C 173.19197 30.833777 176.72203 34.371556 176.72203 38.733553 C 176.72401 43.0982 173.19197 46.633846 168.83362 46.633846 C 164.47594 46.633846 160.9447 43.096212 160.9447 38.733553 C 160.9447 34.371556 164.47792 30.833777 168.83362 30.833777 z M 154.11411 30.873568 C 157.13499 30.873568 159.75403 32.582676 161.06769 35.087264 L 157.50201 35.077445 C 156.62823 34.286524 155.47299 33.804655 154.20299 33.804655 C 151.48638 33.804655 149.28339 36.011031 149.28339 38.733553 C 149.28339 41.45475 151.48638 43.660901 154.20299 43.660901 C 155.49085 43.660901 156.66198 43.165913 157.53974 42.357104 L 161.09559 42.327132 C 159.79186 44.860866 157.15483 46.591988 154.11411 46.591988 C 149.77759 46.591988 146.26497 43.074352 146.26497 38.733553 C 146.26497 34.393416 149.77957 30.873568 154.11411 30.873568 z M 237.06305 30.944881 L 239.32183 30.946948 C 241.93723 31.157597 243.99493 33.34962 243.99493 36.023124 C 243.99493 38.207103 242.62161 40.068987 240.6928 40.792342 L 244.0373 46.494836 L 240.89744 46.494836 L 236.21142 38.477238 L 235.94787 38.477238 L 235.94787 46.496387 L 233.07828 46.496387 L 233.07828 30.951082 L 237.06305 30.944881 z M 204.91927 30.951082 L 207.8979 30.951082 L 207.88602 39.761397 L 207.88809 42.023275 C 208.07464 43.01491 208.93972 43.762187 209.9815 43.762187 C 211.02397 43.762187 211.89096 43.012922 212.07749 42.023275 L 212.07956 39.761397 L 212.08576 30.951082 L 215.05406 30.951082 L 215.05406 39.761397 L 215.04992 42.023275 C 214.83958 44.642462 212.65114 46.701542 209.9815 46.701542 C 207.31253 46.701542 205.12342 44.642462 204.91307 42.023275 L 204.92548 39.761397 L 204.91927 30.951082 z M 215.4809 30.951082 L 223.56982 30.951082 L 223.56982 33.880103 L 220.94465 33.880103 L 220.94465 46.496387 L 218.0177 46.496387 L 218.0177 33.880103 L 215.4809 33.880103 L 215.4809 30.951082 z M 224.28088 30.951082 L 232.32432 30.951082 L 232.32432 33.796903 L 227.16391 33.796903 L 227.16391 37.487634 L 232.32432 37.487634 L 232.32432 40.391333 L 227.16391 40.391333 L 227.16391 43.625244 L 232.32432 43.625244 L 232.32432 46.496387 L 224.28088 46.496387 L 224.28088 30.951082 z M 168.86308 33.735409 C 166.10678 33.735409 163.87165 35.973272 163.87165 38.733553 C 163.87165 41.494494 166.10678 43.732214 168.86308 43.732214 C 171.62004 43.732214 173.85657 41.494494 173.85657 38.733553 C 173.85657 35.973272 171.62004 33.735409 168.86308 33.735409 z M 197.1797 33.796903 L 197.1797 37.99458 L 199.43796 37.992513 C 200.42617 37.807701 201.17428 36.939302 201.17428 35.896 C 201.17428 34.852698 200.42617 33.983784 199.43796 33.798971 L 197.1797 33.796903 z M 235.94787 33.926095 L 235.94787 38.123771 L 239.32389 38.119637 C 240.31211 37.934825 241.06022 37.066426 241.06022 36.023124 C 241.06022 34.979822 240.31211 34.110908 239.32389 33.926095 L 235.94787 33.926095 z M 104.14661 36.444287 L 100.83829 40.962358 L 104.14661 40.962358 L 104.14661 36.444287 z M 24.863082 44.406075 C 32.174177 44.408062 38.1 50.340449 38.1 57.662113 C 38.1 64.983778 32.174177 70.918669 24.863082 70.918669 C 17.551985 70.918669 11.625564 64.983778 11.62358 57.662113 C 11.625564 50.340449 17.551985 44.408062 24.863082 44.406075 z M 53.978101 44.406075 C 61.289196 44.408062 67.215535 50.340449 67.215535 57.662113 C 67.215535 64.983778 61.289196 70.918669 53.978101 70.918669 C 46.667003 70.918669 40.741182 64.983778 40.741182 57.662113 C 40.741182 50.340449 46.667003 44.408062 53.978101 44.406075 z M 24.863082 46.610075 C 18.766421 46.620012 13.836385 51.558628 13.824479 57.662113 C 13.836387 63.767584 18.766421 68.704813 24.863082 68.716736 C 30.296522 68.706105 34.794387 64.777583 35.7172 59.59998 A 3.0800538 3.0845028 0 0 1 33.406746 60.78492 A 3.0800538 3.0845028 0 0 1 30.326831 57.700354 A 3.0800538 3.0845028 0 0 1 33.406746 54.615788 A 3.0800538 3.0845028 0 0 1 35.706864 55.658101 C 34.757459 50.514476 30.273243 46.618894 24.863082 46.610075 z M 53.978101 46.610075 C 48.514282 46.620765 43.995575 50.59523 43.108997 55.814681 A 3.080057 3.0845028 0 0 1 45.433403 54.615788 A 3.080057 3.0845028 0 0 1 48.513318 57.700354 A 3.080057 3.0845028 0 0 1 45.433403 60.78492 A 3.080057 3.0845028 0 0 1 43.122949 59.59998 C 44.045336 64.776839 48.544189 68.706106 53.978101 68.716736 C 60.072775 68.706799 65.004713 63.767664 65.014636 57.664181 C 65.004713 51.560695 60.072775 46.621997 53.978101 46.610075 z M 89.258118 54.13623 L 108.09779 54.13623 C 110.24489 54.227652 111.89839 54.675582 113.05925 55.482402 C 114.22209 56.287235 115.09317 57.161316 115.67459 58.099296 C 116.29967 59.2201 116.68059 60.472033 116.81354 61.85979 L 116.81354 92.811906 C 116.81354 94.692501 116.46842 96.159352 115.77588 97.210604 C 115.08333 98.261854 114.31112 99.10031 113.46181 99.72828 C 112.47954 100.44369 111.36038 100.93677 110.10956 101.20571 L 89.258118 101.20571 L 89.258118 54.13623 z M 142.15876 54.274207 L 154.15958 54.274207 C 156.21539 54.363641 157.80333 54.745085 158.92053 55.416772 C 160.03773 56.086475 160.88728 56.847748 161.4687 57.698287 C 162.09378 58.683959 162.49675 59.780652 162.67534 60.989559 L 162.67534 78.108927 L 149.86889 69.648462 L 149.86889 67.701294 C 149.91255 66.806372 149.7118 66.269828 149.26531 66.088989 C 149.08672 66.001542 148.84098 66.001542 148.52944 66.088989 C 148.17026 66.088989 147.91415 66.168167 147.75739 66.325151 C 147.60063 66.482138 147.49926 66.671098 147.4556 66.895658 C 147.36433 67.118229 147.36433 67.386647 147.4556 67.701294 L 147.4556 70.252559 L 157.77952 76.968429 C 159.07531 77.683836 160.06982 78.445111 160.76435 79.249943 C 161.45689 80.056764 161.9372 80.817456 162.20509 81.533525 C 162.51862 82.340346 162.67534 83.189059 162.67534 84.085307 L 162.67534 94.355998 C 162.58604 95.835168 162.20505 97.033457 161.53433 97.949577 C 160.86559 98.867683 160.10523 99.573328 159.25591 100.06418 C 158.27166 100.64644 157.17579 101.07164 155.96929 101.34058 L 142.42645 101.34058 C 140.72782 101.29686 139.3985 100.871 138.43806 100.06418 C 137.47762 99.261332 136.77253 98.40872 136.32605 97.514461 C 135.78828 96.439362 135.45484 95.231329 135.31991 93.887292 L 135.31991 78.578149 L 147.5233 86.032992 L 147.5233 88.65092 C 147.5233 89.054329 147.57659 89.356096 147.68969 89.556807 C 147.80081 89.757519 147.9457 89.904563 148.12429 89.99399 C 148.30288 90.127128 148.52716 90.195011 148.79505 90.195011 C 149.46577 90.1493 149.84677 89.880662 149.93607 89.387826 C 149.97973 89.210964 149.95819 88.964905 149.86889 88.65092 L 149.86889 85.561702 L 140.95212 80.191488 C 139.38645 79.340949 138.21376 78.433066 137.43192 77.47124 C 136.64942 76.509415 136.07818 75.646983 135.72298 74.885868 C 135.32015 73.990948 135.1194 73.094503 135.1194 72.200244 L 135.1194 61.190063 C 135.2067 59.488322 135.60969 58.16903 136.32605 57.229065 C 137.04108 56.289099 137.84688 55.595621 138.73985 55.146505 C 139.76776 54.655656 140.90662 54.363633 142.15876 54.274207 z M 164.75377 54.274207 L 177.29202 54.274207 L 177.29202 69.044364 L 179.03455 66.961287 L 179.03455 54.274207 L 191.43793 54.274207 L 191.43793 71.932043 L 186.61135 77.502763 L 191.43793 83.411446 L 191.43793 101.07187 L 179.03455 101.07187 L 179.03455 88.046822 L 177.29202 86.434517 L 177.29202 101.20571 L 164.75377 101.20571 L 164.75377 54.274207 z M 220.13488 54.274207 L 232.1357 54.274207 C 234.19152 54.363641 235.77696 54.745085 236.89613 55.416772 C 238.014 56.086475 238.8634 56.847748 239.44482 57.698287 C 240.0699 58.683959 240.47287 59.780652 240.65146 60.989559 L 240.65146 78.108927 L 227.84501 69.648462 L 227.84501 67.701294 C 227.88867 66.806372 227.6879 66.269828 227.24143 66.088989 C 227.06282 66.001542 226.81701 66.001542 226.50349 66.088989 C 226.14432 66.088989 225.8882 66.168167 225.73144 66.325151 C 225.57466 66.482138 225.4753 66.671098 225.42965 66.895658 C 225.34035 67.118229 225.34035 67.386647 225.42965 67.701294 L 225.42965 70.252559 L 235.75512 76.968429 C 237.05092 77.683836 238.04593 78.445111 238.74047 79.249943 C 239.433 80.056764 239.91333 80.817456 240.18121 81.533525 C 240.49276 82.340346 240.65146 83.189059 240.65146 84.085307 L 240.65146 94.355998 C 240.56017 95.835168 240.18115 97.033457 239.51045 97.949577 C 238.83972 98.867683 238.07942 99.573328 237.22945 100.06418 C 236.24718 100.64644 235.15191 101.07164 233.94541 101.34058 L 220.40257 101.34058 C 218.70395 101.29686 217.37467 100.871 216.4116 100.06418 C 215.45114 99.261332 214.74857 98.40872 214.3001 97.514461 C 213.76432 96.439362 213.42891 95.231329 213.29396 93.887292 L 213.29396 78.578149 L 225.49735 86.032992 L 225.49735 88.65092 C 225.49735 89.054329 225.55269 89.356096 225.66581 89.556807 C 225.77496 89.757519 225.92182 89.904563 226.10041 89.99399 C 226.27902 90.127128 226.50327 90.195011 226.77117 90.195011 C 227.44188 90.1493 227.82081 89.880662 227.91012 89.387826 C 227.95576 89.210964 227.93225 88.964905 227.84294 88.65092 L 227.84294 85.561702 L 218.92617 80.191488 C 217.36249 79.340949 216.1873 78.433066 215.40546 77.47124 C 214.6256 76.509415 214.05422 75.646983 213.69703 74.885868 C 213.29619 73.990948 213.09345 73.094503 213.09345 72.200244 L 213.09345 61.190063 C 213.18276 59.488322 213.58581 58.16903 214.30216 57.229065 C 215.01655 56.289099 215.82198 55.595621 216.71494 55.146505 C 217.7435 54.655656 218.88276 54.363633 220.13488 54.274207 z M 280.2077 54.274207 L 292.20852 54.274207 C 294.26432 54.363641 295.85226 54.745085 296.96947 55.416772 C 298.08734 56.086475 298.93622 56.847748 299.51764 57.698287 C 300.14272 58.683959 300.54569 59.780652 300.72428 60.989559 L 300.72428 78.108927 L 287.91783 69.648462 L 287.91783 67.701294 C 287.96347 66.806372 287.76123 66.269828 287.31476 66.088989 C 287.13615 66.001542 286.88993 66.001542 286.57837 66.088989 C 286.21921 66.088989 285.96309 66.168167 285.80633 66.325151 C 285.64955 66.482138 285.54869 66.671098 285.50505 66.895658 C 285.41575 67.118229 285.41575 67.386647 285.50505 67.701294 L 285.50505 70.252559 L 295.82794 76.968429 C 297.12374 77.683836 298.11875 78.445111 298.81329 79.249943 C 299.50582 80.056764 299.98621 80.817456 300.25609 81.533525 C 300.56763 82.340346 300.72428 83.189059 300.72428 84.085307 L 300.72428 94.355998 C 300.63497 95.835168 300.25597 97.033457 299.58326 97.949577 C 298.91452 98.867683 298.15431 99.573328 297.30433 100.06418 C 296.32207 100.64644 295.22678 101.07164 294.0203 101.34058 L 280.4759 101.34058 C 278.77729 101.29686 277.44759 100.871 276.48648 100.06418 C 275.52605 99.261332 274.82145 98.40872 274.37498 97.514461 C 273.83919 96.439362 273.50377 95.231329 273.36884 93.887292 L 273.36884 78.578149 L 285.57223 86.032992 L 285.57223 88.65092 C 285.57223 89.054329 285.62603 89.356096 285.73915 89.556807 C 285.85028 89.757519 285.99516 89.904563 286.17375 89.99399 C 286.35434 90.127128 286.57618 90.195011 286.84606 90.195011 C 287.5148 90.1493 287.89425 89.880662 287.98552 89.387826 C 288.02918 89.210964 288.00713 88.964905 287.91783 88.65092 L 287.91783 85.561702 L 279.00157 80.191488 C 277.43591 79.340949 276.26218 78.433066 275.48034 77.47124 C 274.6985 76.509415 274.12712 75.646983 273.77192 74.885868 C 273.36909 73.990948 273.16886 73.094503 273.16886 72.200244 L 273.16886 61.190063 C 273.25618 59.488322 273.6606 58.16903 274.37498 57.229065 C 275.08935 56.289099 275.89532 55.595621 276.78827 55.146505 C 277.81686 54.655656 278.95556 54.363633 280.2077 54.274207 z M 302.73449 54.274207 L 327.54383 54.542407 L 327.54383 66.760783 L 321.77674 66.760783 L 321.77674 101.20571 L 308.2339 101.20571 L 308.2339 66.760783 L 302.73449 66.760783 L 302.73449 54.274207 z M 329.62122 54.274207 L 351.68034 54.274207 L 351.68034 66.627458 L 342.83075 66.627458 L 342.83075 72.065369 L 351.41266 72.065369 L 351.41266 84.286328 L 342.56307 84.286328 L 342.56307 89.455522 L 351.41266 89.455522 L 351.41266 101.40828 L 329.62122 101.27289 L 329.62122 54.274207 z M 370.96599 54.303662 C 371.65738 54.299283 372.27988 54.389115 372.83202 54.57393 C 373.57022 54.820348 374.20722 55.122632 374.74302 55.480334 C 375.32444 55.883746 375.86009 56.354547 376.35222 56.891101 C 376.6201 56.398267 376.95553 56.00715 377.35836 55.717013 C 377.75986 55.424887 378.1627 55.189966 378.56552 55.011112 C 379.014 54.832263 379.48211 54.675474 379.97422 54.54034 L 390.5002 54.54034 C 392.1975 54.764899 393.49535 55.247946 394.38833 55.985213 C 395.28129 56.724468 395.90804 57.495563 396.26522 58.302384 C 396.71369 59.24235 396.91444 60.271606 396.8688 61.391085 L 396.8688 101.47391 L 384.12952 101.47391 L 384.12952 67.76899 C 384.08388 67.277479 383.90716 66.963094 383.59364 66.827962 C 383.41304 66.784239 383.2348 66.760783 383.05621 66.760783 C 382.78831 66.760783 382.5758 66.828229 382.41903 66.963354 C 382.26225 67.096493 382.14142 67.231734 382.05213 67.36488 C 381.91718 67.54373 381.84956 67.725012 381.84956 67.903866 L 381.84956 101.34058 L 369.24568 101.34058 L 369.24568 67.969495 C 369.24568 67.477984 369.06696 67.09624 368.70979 66.827962 C 368.53118 66.694824 368.35242 66.605469 368.17184 66.559762 C 367.8603 66.559762 367.61448 66.627645 367.4339 66.760783 C 367.25529 66.895909 367.1222 67.052704 367.03289 67.231555 C 366.89993 67.410404 366.83239 67.632859 366.83239 67.901799 L 366.83239 101.13801 L 354.629 101.13801 L 354.629 54.339836 L 370.2513 54.339836 C 370.49703 54.317477 370.73552 54.305122 370.96599 54.303662 z M 119.7653 54.339836 L 132.77174 54.339836 L 132.77174 101.07187 L 119.7653 101.07187 L 119.7653 54.339836 z M 242.92936 54.407015 L 255.80351 54.407015 L 255.80351 75.825863 L 258.01629 75.825863 L 258.01629 54.407015 L 270.88786 54.407015 L 270.88786 94.290369 C 270.84221 95.856978 270.51856 97.099167 269.91531 98.017273 C 269.31206 98.935379 268.63152 99.639036 267.8715 100.13187 C 267.0202 100.67042 266.03799 101.04965 264.92078 101.27289 L 245.14266 101.27289 L 245.14266 89.859115 L 257.74654 89.859115 L 257.74654 87.642712 L 249.16515 87.642712 C 247.51216 87.555265 246.25964 87.151912 245.41034 86.434517 C 244.56103 85.71911 243.95798 84.911869 243.60012 84.017611 C 243.15166 82.988219 242.92936 81.847626 242.92936 80.593014 L 242.92936 54.407015 z M 109.8243 56.481307 C 109.53387 56.463142 109.22688 56.465669 108.90343 56.488025 L 91.403723 56.555204 L 91.403723 99.056486 L 109.17111 99.056486 C 110.10972 98.877637 110.95978 98.565608 111.7198 98.116492 C 112.34487 97.758789 112.94808 97.222615 113.5295 96.505221 C 114.10894 95.789813 114.44635 94.806008 114.53564 93.551396 L 114.53564 61.724915 C 114.40071 60.740568 114.11086 59.84611 113.66438 59.03929 C 113.30521 58.369588 112.74749 57.753809 111.98748 57.193408 C 111.41747 56.773106 110.6956 56.535801 109.8243 56.481307 z M 142.02389 56.555204 C 140.99598 56.646606 140.19004 56.926991 139.6106 57.39598 C 139.02918 57.864969 138.58313 58.34595 138.2696 58.838786 C 137.91241 59.466756 137.66608 60.138243 137.53114 60.85365 L 137.53114 71.731539 C 137.48748 72.625797 137.66626 73.408545 138.06909 74.080233 C 138.46994 74.752584 138.91841 75.333026 139.40854 75.825863 C 139.94631 76.408126 140.59311 76.922825 141.35313 77.369954 L 152.34987 84.486833 L 152.34987 88.851424 C 152.34987 89.701965 152.16911 90.363708 151.81192 90.832699 C 151.45474 91.303675 151.05228 91.649341 150.60579 91.871912 C 150.11301 92.142177 149.53347 92.320953 148.86275 92.41038 C 148.01344 92.320945 147.36465 92.132514 146.91816 91.840389 C 146.47168 91.550253 146.13626 91.225978 145.91202 90.866288 C 145.64413 90.464866 145.46544 89.994065 145.37614 89.455522 L 145.37614 87.308883 L 137.53114 82.608911 L 137.39833 93.619092 C 137.44199 94.917424 137.72154 95.912522 138.23549 96.608057 C 138.74944 97.301604 139.31935 97.826565 139.94443 98.186255 C 140.65881 98.587677 141.48629 98.834251 142.4249 98.923678 L 155.49904 98.923678 C 156.79483 98.879954 157.7678 98.587417 158.41669 98.050863 C 159.06359 97.514307 159.5439 96.932247 159.85743 96.306266 C 160.21461 95.545152 160.39538 94.694595 160.39538 93.753967 L 160.39538 83.74941 C 160.43904 83.210867 160.30582 82.674613 159.9923 82.136072 C 159.67877 81.599516 159.32138 81.130412 158.92053 80.726339 C 158.42841 80.233502 157.89077 79.764172 157.31133 79.315055 L 145.37614 71.59408 L 145.37614 66.625391 C 145.4198 65.864276 145.63231 65.305676 146.01331 64.947974 C 146.39233 64.590269 146.785 64.320156 147.18585 64.141305 C 147.67996 63.964443 148.21561 63.853182 148.79505 63.807475 C 149.50943 63.896909 150.0592 64.063948 150.43888 64.312354 C 150.81988 64.558772 151.12149 64.837077 151.34373 65.151062 C 151.56797 65.508765 151.72469 65.912128 151.81399 66.359257 L 151.81399 68.305391 L 160.53025 73.541764 L 160.39538 62.062878 C 160.43904 60.897693 160.18293 59.947527 159.62333 59.208272 C 159.06572 58.469018 158.45023 57.898688 157.77952 57.497266 C 156.97518 57.004429 156.05875 56.690336 155.03085 56.555204 L 142.02389 56.555204 z M 220.00001 56.555204 C 218.9721 56.646606 218.16607 56.926991 217.58465 57.39598 C 217.00456 57.864969 216.55624 58.34595 216.24468 58.838786 C 215.88551 59.466756 215.64178 60.138243 215.50881 60.85365 L 215.50881 71.731539 C 215.46316 72.625797 215.64137 73.408545 216.04418 74.080233 C 216.44502 74.752584 216.89188 75.333026 217.38466 75.825863 C 217.92242 76.408126 218.56924 76.922825 219.32925 77.369954 L 230.32548 84.486833 L 230.32548 88.851424 C 230.32548 89.701965 230.14469 90.363708 229.78752 90.832699 C 229.43032 91.303675 229.02933 91.649341 228.58088 91.871912 C 228.08875 92.142177 227.50959 92.320953 226.83887 92.41038 C 225.98957 92.320945 225.34026 92.132514 224.89377 91.840389 C 224.44728 91.550253 224.112 91.225978 223.88711 90.866288 C 223.61921 90.464866 223.43855 89.994065 223.35122 89.455522 L 223.35122 87.308883 L 215.50674 82.608911 L 215.37342 93.619092 C 215.41708 94.917424 215.69713 95.912522 216.21109 96.608057 C 216.72504 97.301604 217.2943 97.826565 217.92003 98.186255 C 218.63442 98.587677 219.4619 98.834251 220.4005 98.923678 L 233.47515 98.923678 C 234.77094 98.879954 235.74339 98.587417 236.39229 98.050863 C 237.0392 97.514307 237.52002 96.932247 237.83354 96.306266 C 238.19271 95.545152 238.37098 94.694595 238.37098 93.753967 L 238.37098 83.74941 C 238.41464 83.210867 238.27996 82.674613 237.96842 82.136072 C 237.6549 81.599516 237.29765 81.130412 236.89613 80.726339 C 236.40402 80.233502 235.86637 79.764172 235.28693 79.315055 L 223.35122 71.59408 L 223.35122 66.625391 C 223.39489 65.864276 223.60724 65.305676 223.98891 64.947974 C 224.36793 64.590269 224.75914 64.320156 225.16197 64.141305 C 225.65408 63.964443 226.18975 63.853182 226.77117 63.807475 C 227.48554 63.896909 228.03547 64.063948 228.41448 64.312354 C 228.79351 64.558772 229.09708 64.837077 229.31934 65.151062 C 229.54357 65.508765 229.6983 65.912128 229.78959 66.359257 L 229.78959 68.305391 L 238.50431 73.541764 L 238.37098 62.062878 C 238.41464 60.897693 238.15914 59.947527 237.60152 59.208272 C 237.04127 58.469018 236.42584 57.898688 235.75512 57.497266 C 234.95145 57.004429 234.03487 56.690336 233.00697 56.555204 L 220.00001 56.555204 z M 280.07283 56.555204 C 279.04494 56.646606 278.24149 56.926991 277.66005 57.39598 C 277.07996 57.864969 276.63111 58.34595 276.31957 58.838786 C 275.9604 59.466756 275.71459 60.138243 275.58163 60.85365 L 275.58163 71.731539 C 275.53598 72.625797 275.71477 73.408545 276.11958 74.080233 C 276.52042 74.752584 276.96692 75.333026 277.45903 75.825863 C 277.99548 76.408126 278.64412 76.922825 279.40413 77.369954 L 290.3983 84.486833 L 290.3983 88.851424 C 290.3983 89.701965 290.21957 90.363708 289.86241 90.832699 C 289.50324 91.303675 289.10269 91.649341 288.65422 91.871912 C 288.16407 92.142177 287.58239 92.320953 286.91169 92.41038 C 286.06237 92.320945 285.41566 92.132514 284.96917 91.840389 C 284.52072 91.550253 284.1874 91.225978 283.96251 90.866288 C 283.69263 90.464866 283.51385 89.994065 283.42456 89.455522 L 283.42456 87.308883 L 275.57956 82.608911 L 275.44675 93.619092 C 275.4924 94.917424 275.76997 95.912522 276.28391 96.608057 C 276.79786 97.301604 277.36771 97.826565 277.99543 98.186255 C 278.7098 98.587677 279.53532 98.834251 280.4759 98.923678 L 293.55004 98.923678 C 294.84583 98.879954 295.81822 98.587417 296.46511 98.050863 C 297.114 97.514307 297.59425 96.932247 297.90843 96.306266 C 298.26563 95.545152 298.44432 94.694595 298.44432 93.753967 L 298.44432 83.74941 C 298.48996 83.210867 298.35484 82.674613 298.04331 82.136072 C 297.72976 81.599516 297.3698 81.130412 296.96895 80.726339 C 296.47682 80.233502 295.94117 79.764172 295.35975 79.315055 L 283.42663 71.59408 L 283.42663 66.625391 C 283.47029 65.864276 283.68264 65.305676 284.06431 64.947974 C 284.44333 64.590269 284.83402 64.320156 285.23685 64.141305 C 285.727 63.964443 286.26464 63.853182 286.84606 63.807475 C 287.56042 63.896909 288.10837 64.063948 288.48937 64.312354 C 288.86838 64.558772 289.16999 64.837077 289.39422 65.151062 C 289.61647 65.508765 289.7731 65.912128 289.86241 66.359257 L 289.86241 68.305391 L 298.57919 73.541764 L 298.44432 62.062878 C 298.48996 60.897693 298.23194 59.947527 297.67434 59.208272 C 297.11407 58.469018 296.50073 57.898688 295.83 57.497266 C 295.02437 57.004429 294.10976 56.690336 293.08185 56.555204 L 280.07283 56.555204 z M 369.84874 56.624967 L 357.31204 56.758293 L 357.31204 98.788285 L 364.755 98.788285 L 364.755 67.635148 C 364.70935 67.00718 364.82041 66.4485 365.08831 65.955664 C 365.31255 65.506547 365.68179 65.105174 366.19574 64.747469 C 366.7097 64.387779 367.48138 64.209001 368.50929 64.209001 C 369.04506 64.209001 369.55918 64.34431 370.05131 64.612594 C 370.4085 64.835164 370.75559 65.226279 371.08898 65.786682 C 371.42498 66.347083 371.59386 67.163922 371.59386 68.237695 L 371.59386 98.788285 L 379.50603 98.788285 L 379.50603 67.633081 C 379.50603 67.096525 379.63917 66.581826 379.90704 66.088989 C 380.1293 65.68558 380.48823 65.315937 380.98036 64.98208 C 381.47051 64.646235 382.2089 64.477201 383.19315 64.477201 C 383.72892 64.433478 384.24282 64.498857 384.73362 64.677706 C 385.13645 64.858543 385.50561 65.170651 385.83898 65.619767 C 386.17433 66.066896 386.34283 66.782576 386.34283 67.766923 L 386.34283 98.786218 L 394.52321 98.786218 L 394.52321 61.055188 C 394.47756 60.29341 394.29886 59.621551 393.98732 59.03929 C 393.71744 58.546454 393.2591 58.08937 392.61221 57.662113 C 391.96332 57.238831 391.05856 57.026493 389.89506 57.026493 L 380.71061 57.026493 C 379.99625 57.070217 379.32548 57.24891 378.7004 57.562895 C 378.16264 57.831173 377.6142 58.234534 377.05657 58.77109 C 376.49698 59.309631 376.0607 60.025021 375.74916 60.919279 C 375.38999 60.070726 374.96695 59.331362 374.47482 58.703394 C 373.9827 58.166838 373.37949 57.674127 372.66511 57.226998 C 371.94876 56.779869 371.0096 56.579262 369.84874 56.624967 z M 167.03167 56.690597 L 167.03167 98.452389 L 174.80897 98.452389 L 174.80897 81.128381 L 180.91144 86.903223 L 180.91144 98.518018 L 189.15745 98.518018 L 189.15745 83.680164 L 183.86061 77.502763 L 189.29232 71.192554 L 189.29232 56.958797 L 181.51502 56.958797 L 181.44732 68.172066 L 175.14435 74.617668 L 174.87666 56.690597 L 167.03167 56.690597 z M 260.56446 56.891101 L 260.56446 75.223315 C 260.51881 75.803589 260.3621 76.318728 260.0942 76.765857 C 259.86997 77.169269 259.52478 77.526742 259.05447 77.840727 C 258.58419 78.154712 257.90327 78.333408 257.00964 78.377128 C 256.33891 78.422839 255.75767 78.355473 255.26556 78.176624 C 254.81907 77.997774 254.41808 77.68376 254.05891 77.236629 C 253.70173 76.787513 253.49959 76.072125 253.45791 75.08844 L 253.45791 56.893168 L 245.61292 56.893168 L 245.61292 80.728406 C 245.65658 81.623328 245.85878 82.429905 246.21598 83.145312 C 246.52752 83.771295 247.00784 84.341623 247.65672 84.856319 C 248.30363 85.371015 249.25401 85.629399 250.50616 85.629399 L 260.49728 85.629399 L 260.49728 89.119625 C 260.40599 89.701888 260.20517 90.216587 259.89163 90.663717 C 259.62373 91.023407 259.22128 91.357422 258.6855 91.671407 C 258.14774 91.98539 257.43236 92.142179 256.53938 92.142179 L 247.55543 92.142179 L 247.55543 98.788285 L 264.6531 98.788285 C 265.41311 98.698851 266.08396 98.476263 266.66538 98.118559 C 267.15551 97.804576 267.61376 97.335762 268.03842 96.707792 C 268.46308 96.081812 268.67507 95.231254 268.67507 94.155493 L 268.67507 56.891101 L 260.56446 56.891101 z M 305.15037 56.958797 L 305.15037 64.075675 L 310.78206 64.075675 L 310.78206 98.788285 L 318.96089 98.788285 L 318.96089 64.276697 L 324.92849 64.276697 L 324.92849 56.958797 L 305.15037 56.958797 z M 121.91039 57.026493 L 121.91039 98.520085 L 130.49178 98.520085 L 130.49178 57.026493 L 121.91039 57.026493 z M 332.10273 57.026493 L 332.10273 99.460079 L 349.06448 99.460079 L 349.06448 92.007304 L 340.08053 92.007304 L 340.08053 81.802242 L 349.19729 81.802242 L 349.19729 74.549972 L 340.21541 74.549972 L 340.21541 64.143372 L 349.06448 64.143372 L 349.06448 57.026493 L 332.10273 57.026493 z M 99.315902 63.739779 L 102.93532 63.739779 C 103.696 63.829213 104.27752 64.063612 104.67837 64.445162 C 105.08119 64.824726 105.39309 65.240332 105.61733 65.687463 C 105.84156 66.180298 105.97424 66.738898 106.01989 67.36488 L 106.01989 86.837594 C 106.06355 87.957074 105.96415 88.819799 105.71809 89.421932 C 105.47203 90.028042 105.17043 90.463135 104.81324 90.731413 C 104.41041 91.089115 103.96399 91.289803 103.4712 91.33551 L 99.449227 91.33551 L 99.315902 63.739779 z M 102.07697 65.988737 C 101.86734 65.999698 101.63987 66.033347 101.39381 66.088989 L 101.39381 89.187321 C 101.79465 89.320459 102.17557 89.366357 102.53276 89.320646 C 102.84629 89.276923 103.12584 89.143681 103.36992 88.91912 C 103.61863 88.696549 103.7855 88.269357 103.8748 87.642712 L 103.8748 67.36488 C 103.78549 67.007176 103.65054 66.716624 103.47327 66.492065 C 103.17115 66.123929 102.70586 65.955854 102.07697 65.988737 z " /><g
       transform="matrix(0.66145878,0,0,0.66241486,3.3777131e-6,30.81793)"
       id="g2566"
       style="stroke-width:0.176" /></g><style
     type="text/css"
     id="style307">
	.st0{fill-rule:evenodd;clip-rule:evenodd;fill:#FFFFFF;}
	.st1{fill:#FFFFFF;}
	.st2{fill-rule:evenodd;clip-rule:evenodd;}
</style><style
     type="text/css"
     id="style512">
	.st0{fill-rule:evenodd;clip-rule:evenodd;fill:#FFFFFF;}
	.st1{fill:#FFFFFF;}
	.st2{fill-rule:evenodd;clip-rule:evenodd;}
</style><style
     type="text/css"
     id="style524">
	.st0{fill:none;stroke:#000000;stroke-width:54.1005;stroke-miterlimit:10;}
	.st1{fill:none;stroke:#000000;stroke-width:55.7397;stroke-miterlimit:10;}
	.st2{fill:#FFEF00;}
	.st3{fill:url(#SVGID_1_);}
	.st4{fill:#FFFFFF;}
	.st5{fill:url(#SVGID_2_);}
	.st6{fill:url(#SVGID_3_);}
	.st7{fill:url(#SVGID_4_);}
	.st8{fill:url(#SVGID_5_);}
	.st9{fill:url(#SVGID_6_);}
	.st10{fill:url(#SVGID_7_);}
	.st11{fill:url(#SVGID_8_);}
	.st12{fill:url(#SVGID_9_);}
	.st13{fill:url(#SVGID_10_);}
	.st14{fill:url(#SVGID_11_);}
	.st15{fill:url(#SVGID_12_);}
	.st16{fill:url(#SVGID_13_);}
	.st17{fill:url(#SVGID_14_);}
	.st18{fill:url(#SVGID_15_);}
	.st19{fill:url(#SVGID_16_);}
	.st20{fill:url(#SVGID_17_);}
	.st21{fill:url(#SVGID_18_);}
	.st22{fill:url(#SVGID_19_);}
	.st23{fill:url(#SVGID_20_);}
	.st24{fill:url(#SVGID_21_);}
</style></svg>
