<?xml version="1.0" encoding="UTF-8" standalone="no"?>
<!-- Created with Inkscape (http://www.inkscape.org/) -->

<svg
   width="1500"
   height="500"
   viewBox="0 0 396.87498 132.29167"
   version="1.1"
   id="svg5"
   inkscape:version="1.2.2 (732a01da63, 2022-12-09)"
   xml:space="preserve"
   sodipodi:docname="flash.svg"
   xmlns:inkscape="http://www.inkscape.org/namespaces/inkscape"
   xmlns:sodipodi="http://sodipodi.sourceforge.net/DTD/sodipodi-0.dtd"
   xmlns:xlink="http://www.w3.org/1999/xlink"
   xmlns="http://www.w3.org/2000/svg"
   xmlns:svg="http://www.w3.org/2000/svg"><sodipodi:namedview
     id="namedview7"
     pagecolor="#000000"
     bordercolor="#111111"
     borderopacity="1"
     inkscape:showpageshadow="0"
     inkscape:pageopacity="0"
     inkscape:pagecheckerboard="1"
     inkscape:deskcolor="#d1d1d1"
     inkscape:document-units="mm"
     showgrid="false"
     inkscape:zoom="0.62760417"
     inkscape:cx="474.82157"
     inkscape:cy="366.47303"
     inkscape:window-width="1920"
     inkscape:window-height="1009"
     inkscape:window-x="-8"
     inkscape:window-y="-8"
     inkscape:window-maximized="1"
     inkscape:current-layer="layer1" /><defs
     id="defs2">
		
	
		
		
		
	
		
		
		
		
		
		
		
		
		
		
	
			
			
			
			
			
			
			
		<clipPath
   id="clip1"><rect
     width="647.167"
     height="750.977"
     fill="white"
     id="rect1942" /></clipPath><linearGradient
   id="a"><stop
     style="stop-color:#7c1315;stop-opacity:1"
     offset="0"
     id="stop2785" /><stop
     style="stop-color:#e81c24;stop-opacity:1"
     offset="1"
     id="stop2787" /></linearGradient><linearGradient
   xlink:href="#a"
   id="d"
   x1="1877.583"
   y1="914.461"
   x2="1734.319"
   y2="323.32"
   gradientUnits="userSpaceOnUse"
   gradientTransform="matrix(0.40587242,0,0,0.41663121,-1058.8639,-543.56372)" /><linearGradient
   id="b"><stop
     style="stop-color:#e5e5e5;stop-opacity:1"
     offset="0"
     id="stop2791" /><stop
     style="stop-color:#fff;stop-opacity:1"
     offset="1"
     id="stop2793" /></linearGradient></defs><g
     inkscape:label="Layer 1"
     inkscape:groupmode="layer"
     id="layer1"><path
       id="rect231"
       style="fill:#ffffff;stroke-width:0.8001;stroke-linecap:square;paint-order:fill markers stroke"
       d="M 0 0 L 0 14.333492 L 100.94629 14.333492 L 100.94629 117.95817 L 0 117.95817 L 0 132.29167 L 396.875 132.29167 L 396.875 105.05974 L 392.729 105.05974 C 392.34517 104.56347 392.10566 103.83669 391.77454 103.25675 C 390.53629 100.88385 389.47879 98.410933 388.09931 96.115063 C 387.36485 94.880357 386.19331 93.805377 384.74964 93.581368 C 382.88409 93.262622 380.97642 93.488904 379.09314 93.421171 L 379.09314 105.05974 L 375.19105 105.05974 L 375.19105 77.432483 L 375.19105 77.344116 L 378.28957 77.344116 C 380.88119 77.403438 383.48709 77.205112 386.06894 77.489327 C 388.46575 77.759821 391.00747 78.81469 392.1864 81.047249 C 393.22806 83.035438 393.37409 85.428054 392.88713 87.594653 C 392.40146 89.721851 390.70322 91.470262 388.61142 92.068799 C 390.20604 92.775799 391.24185 94.280655 392.12284 95.720772 C 393.79892 98.783406 395.27771 101.95372 396.875 105.05974 L 396.875 0 L 0 0 z M 192.48644 29.628166 A 15.840003 15.840003 0 0 1 193.29931 29.63075 C 196.56559 29.662182 199.86464 30.94059 202.05382 33.413981 C 204.73484 36.274299 205.71728 40.312465 205.66238 44.147176 C 205.67699 47.988972 204.60103 52.012785 201.85228 54.814225 C 199.5812 57.244233 196.21928 58.408079 192.93706 58.372664 C 189.59818 58.442612 186.15587 57.301576 183.83167 54.83748 C 181.06477 52.053309 179.98687 48.024557 179.99573 44.185417 C 179.9342 40.319273 180.9244 36.241441 183.64615 33.370056 C 185.86765 30.896665 189.20024 29.64322 192.48644 29.628166 z M 152.82736 30.110824 C 152.98098 30.120895 153.15343 30.149344 153.25835 30.121676 C 156.57421 30.173031 159.89846 30.000735 163.20813 30.247766 C 166.66831 30.559429 170.34682 31.529571 172.7693 34.181376 C 175.22941 36.87435 175.87355 40.68777 175.83371 44.217456 C 175.81157 47.71217 175.04407 51.472054 172.50472 54.040629 C 169.95075 56.606548 166.23406 57.486036 162.7358 57.749447 C 159.33096 57.933612 155.91853 57.795388 152.51059 57.83833 L 152.51059 30.210042 C 152.53936 30.109327 152.67375 30.100752 152.82736 30.110824 z M 133.81354 30.121676 L 138.16108 30.121676 L 148.72374 57.838847 L 144.65887 57.838847 L 142.15101 50.773128 L 129.86184 50.773128 C 129.02513 53.127878 128.18826 55.483139 127.35243 57.83833 L 123.23227 57.83833 L 133.79235 30.178003 L 133.81354 30.121676 z M 211.31527 30.121676 L 220.12507 30.121676 C 222.87072 30.064568 225.91786 30.367367 228.02381 32.321025 C 229.94338 34.081219 230.23697 36.996287 229.55963 39.390877 C 229.06513 41.228547 227.41681 42.586498 225.56763 42.910559 C 227.81923 43.428523 229.82336 45.064206 230.58127 47.274634 C 231.329 49.557663 231.19146 52.238584 229.87486 54.292293 C 228.30237 56.68777 225.33392 57.640713 222.59933 57.793888 C 218.84032 57.896152 215.07656 57.809554 211.31578 57.83833 L 211.31578 30.210042 L 211.31527 30.121676 z M 237.21394 30.121676 L 254.80357 30.121676 L 254.80357 33.434135 L 241.11707 33.434135 L 241.11707 41.410909 L 254.23203 41.410909 L 254.23203 44.722852 L 241.11707 44.722852 L 241.11707 54.525871 L 255.13585 54.525871 L 255.13585 57.83833 L 237.21394 57.83833 L 237.21394 30.210042 L 237.21394 30.121676 z M 76.464583 31.278194 L 76.464583 31.278711 C 74.067784 31.278711 70.253354 31.975595 67.450146 32.925639 C 61.760065 34.853616 56.678697 38.584966 53.472188 43.189095 C 49.798622 48.464807 47.454063 53.150893 44.625183 60.868119 C 40.349984 72.531618 37.767734 77.490996 33.912659 81.448775 C 30.606984 84.842103 28.141342 85.98529 22.98516 86.515649 L 21.912358 86.626237 L 21.912358 93.051685 L 21.912358 93.052201 L 21.912358 99.478682 L 23.063708 99.476615 C 23.697663 99.475729 25.039466 99.369058 26.044405 99.238904 C 35.049019 98.074151 41.498752 94.268028 46.329989 87.267542 C 48.84411 83.624085 51.410437 78.925041 53.610681 73.933988 L 54.46851 71.98682 L 62.271134 71.944446 L 70.073759 71.902071 L 70.073759 58.852222 L 64.986731 58.852222 C 59.19881 58.852222 59.590466 58.972902 60.299679 57.408382 C 62.344091 52.900765 65.97895 48.334526 68.938428 46.555298 C 71.163463 45.217886 73.468648 44.493641 76.312138 44.238643 L 77.384424 44.143042 L 77.384424 31.278194 L 76.464583 31.278194 z M 192.84766 32.825387 C 192.32704 32.830258 191.80471 32.863674 191.29117 32.950444 C 188.5402 33.322318 186.26744 35.405519 185.21867 37.901046 C 183.96094 40.88355 183.87293 44.252653 184.40063 47.410026 C 184.9062 50.280969 186.5203 53.151144 189.24116 54.423035 C 191.7513 55.531127 194.85071 55.450036 197.21122 54.002389 C 199.85018 52.313028 201.15465 49.171315 201.44507 46.138786 C 201.77577 42.629906 201.44633 38.776678 199.2514 35.889799 C 197.79446 33.870178 195.31796 32.765623 192.84766 32.825387 z M 156.41216 33.360754 L 156.41216 53.714551 C 156.29307 54.38879 156.44349 54.794632 157.19299 54.600285 C 160.71338 54.562211 164.49464 54.934111 167.66263 53.12699 C 169.95496 51.869707 171.18656 49.312598 171.5239 46.803345 C 171.9033 43.896984 171.8539 40.80079 170.63248 38.086564 C 168.99359 34.354117 164.54744 33.274429 160.82429 33.360754 L 160.82378 33.360754 L 156.41216 33.360754 z M 215.2189 33.360754 L 215.2189 41.484806 L 220.11318 41.484806 C 221.95395 41.501631 224.18464 41.392249 225.33922 39.760881 C 226.16353 38.439407 226.17016 36.641921 225.45032 35.274849 C 224.4715 33.650563 222.37716 33.361548 220.64441 33.360754 L 215.2189 33.360754 z M 135.97826 34.135901 L 131.05143 47.497876 L 140.9237 47.497876 L 135.97826 34.135901 z M 215.2189 44.685645 L 215.2189 54.600285 C 217.58782 54.564436 219.96214 54.674039 222.32751 54.54034 C 224.03016 54.421696 225.90356 53.639295 226.52778 51.922929 C 227.10993 50.307054 227.1024 48.315756 226.24666 46.776473 C 225.18726 45.045494 222.97417 44.679003 221.1064 44.685645 L 215.2189 44.685645 z M 204.16842 76.853707 L 204.16842 76.854224 C 207.13056 76.77188 210.07571 77.33391 212.87538 78.270675 L 212.87538 82.1092 C 210.19834 80.8165 207.2578 79.85593 204.24386 80.077283 C 202.32164 80.18486 200.09254 80.830705 199.239 82.733451 C 198.64223 84.207216 198.72717 86.260852 200.09425 87.307849 C 201.89428 88.476147 204.11155 88.603787 206.15641 89.097404 C 208.8817 89.603416 211.82217 90.612307 213.40041 93.054268 C 214.72499 95.186779 214.81353 97.922928 214.10166 100.28122 C 213.3526 102.74222 211.06667 104.41625 208.64773 105.02718 C 204.14985 106.2154 199.37211 105.42217 195.08318 103.81692 L 195.08318 99.76807 C 196.00091 100.28382 196.94413 100.75419 197.92074 101.14731 C 200.88907 102.34616 204.30147 102.87587 207.39509 101.86872 C 209.03399 101.35075 210.38785 99.874839 210.44762 98.109774 C 210.62957 96.529316 209.98147 94.801621 208.53559 94.014933 C 206.07769 92.599607 203.10181 92.707383 200.46063 91.761324 C 198.35911 91.097707 196.21441 89.818308 195.44543 87.634444 C 194.61448 85.207535 194.82002 82.301575 196.37923 80.204924 C 198.17395 77.807677 201.29172 76.911259 204.16842 76.853707 z M 268.46062 77.33068 C 269.78148 77.333503 271.09769 77.394831 272.39526 77.668644 C 274.80934 78.130384 277.09966 79.705514 277.96029 82.073543 C 278.75672 84.285299 278.76401 86.782898 278.05125 89.016789 C 277.31547 91.35914 275.17517 93.028645 272.82882 93.567415 C 270.10928 94.255379 267.27804 93.904984 264.50582 93.992196 L 264.50582 105.05974 L 260.60425 105.05974 L 260.60425 77.432483 L 260.60373 77.344116 L 264.49962 77.344116 C 265.81467 77.383517 267.13975 77.327858 268.46062 77.33068 z M 126.68581 77.344116 L 142.68845 77.344116 L 142.68845 80.655542 L 130.58738 80.655542 L 130.58738 88.596143 L 141.50816 88.596143 L 141.50816 91.908085 L 130.58738 91.908085 L 130.58738 105.05974 L 126.68581 105.05974 L 126.68581 77.432483 L 126.68581 77.344116 z M 148.45192 77.344116 L 152.35504 77.344116 L 152.35504 101.74831 L 165.76456 101.74831 L 165.76456 105.05974 L 148.45192 105.05974 L 148.45192 77.432483 L 148.45192 77.344116 z M 177.49459 77.344116 L 181.84161 77.344116 C 185.36245 86.582484 188.88307 95.82137 192.40479 105.05974 L 188.33993 105.05974 L 185.83103 97.995569 L 173.54135 97.995569 L 171.03297 105.05974 L 166.91281 105.05974 L 177.47289 77.400444 L 177.49459 77.344116 z M 220.17002 77.344116 L 224.07263 77.344116 L 224.07263 88.63335 L 237.43564 88.63335 L 237.43564 77.344116 L 241.33824 77.344116 L 241.33824 105.05974 L 237.43564 105.05974 L 237.43564 91.944775 L 224.07263 91.944775 L 224.07263 105.05974 L 220.17002 105.05974 L 220.17002 77.432483 L 220.17002 77.344116 z M 283.40337 77.344116 L 287.30546 77.344116 L 287.30546 101.74831 L 300.71601 101.74831 L 300.71601 105.05974 L 283.40337 105.05974 L 283.40337 77.432483 L 283.40337 77.344116 z M 312.44553 77.344116 L 316.79255 77.344116 L 327.35573 105.05974 L 323.29086 105.05974 L 320.783 97.995569 L 308.49331 97.995569 C 307.6566 100.35032 306.81975 102.70499 305.98391 105.05974 L 301.86375 105.05974 L 312.42382 77.400444 L 312.44553 77.344116 z M 324.33007 77.344116 L 328.54584 77.344116 C 331.07679 81.094713 333.60602 84.847243 336.13607 88.598726 L 343.66998 77.344116 L 347.88781 77.344116 C 344.61444 82.190407 341.34221 87.037578 338.06929 91.884314 L 338.06929 105.05974 L 334.1486 105.05974 L 334.1486 91.884314 L 324.42361 77.481576 L 324.37968 77.417497 L 324.33007 77.344116 z M 351.28502 77.344116 L 368.87413 77.344116 L 368.87413 80.655542 L 355.18711 80.655542 L 355.18711 88.63335 L 368.30258 88.63335 L 368.30258 91.944775 L 355.18711 91.944775 L 355.18711 101.74831 L 369.20589 101.74831 L 369.20589 105.05974 L 351.28502 105.05974 L 351.28502 77.432483 L 351.28502 77.344116 z M 264.50634 80.582161 L 264.50634 90.75415 L 269.01304 90.75415 C 270.87949 90.820111 272.98048 90.135674 273.86855 88.366182 C 274.66056 86.722418 274.65977 84.70912 273.91248 83.050745 C 273.06915 81.271513 270.97633 80.524609 269.10192 80.582161 L 264.50634 80.582161 z M 379.09366 80.582161 L 379.09366 90.182609 C 380.88441 90.163564 382.6777 90.221698 384.46801 90.152637 C 386.13125 90.077379 387.93113 89.328258 388.61246 87.680953 C 389.2216 86.141225 389.23068 84.245659 388.44709 82.732935 C 387.51253 81.053755 385.47555 80.554714 383.68924 80.582161 L 379.09366 80.582161 z M 179.6588 81.357825 L 174.73145 94.720317 L 184.60372 94.720317 L 179.6588 81.357825 z M 314.60974 81.357825 L 309.68342 94.720317 L 319.55569 94.720317 L 314.60974 81.357825 z " /><g
       id="g2826"
       transform="matrix(0.26458333,0,0,0.26458333,140.18678,139.09336)"><g
         aria-label="ADOBE FLASH PLAYER"
         style="font-style:normal;font-weight:400;font-size:40px;line-height:1.25;font-family:sans-serif;letter-spacing:0;word-spacing:0;fill:#333333;fill-opacity:1;stroke:none"
         id="g2809" /></g></g><style
     type="text/css"
     id="style307">
	.st0{fill-rule:evenodd;clip-rule:evenodd;fill:#FFFFFF;}
	.st1{fill:#FFFFFF;}
	.st2{fill-rule:evenodd;clip-rule:evenodd;}
</style><style
     type="text/css"
     id="style512">
	.st0{fill-rule:evenodd;clip-rule:evenodd;fill:#FFFFFF;}
	.st1{fill:#FFFFFF;}
	.st2{fill-rule:evenodd;clip-rule:evenodd;}
</style><style
     type="text/css"
     id="style524">
	.st0{fill:none;stroke:#000000;stroke-width:54.1005;stroke-miterlimit:10;}
	.st1{fill:none;stroke:#000000;stroke-width:55.7397;stroke-miterlimit:10;}
	.st2{fill:#FFEF00;}
	.st3{fill:url(#SVGID_1_);}
	.st4{fill:#FFFFFF;}
	.st5{fill:url(#SVGID_2_);}
	.st6{fill:url(#SVGID_3_);}
	.st7{fill:url(#SVGID_4_);}
	.st8{fill:url(#SVGID_5_);}
	.st9{fill:url(#SVGID_6_);}
	.st10{fill:url(#SVGID_7_);}
	.st11{fill:url(#SVGID_8_);}
	.st12{fill:url(#SVGID_9_);}
	.st13{fill:url(#SVGID_10_);}
	.st14{fill:url(#SVGID_11_);}
	.st15{fill:url(#SVGID_12_);}
	.st16{fill:url(#SVGID_13_);}
	.st17{fill:url(#SVGID_14_);}
	.st18{fill:url(#SVGID_15_);}
	.st19{fill:url(#SVGID_16_);}
	.st20{fill:url(#SVGID_17_);}
	.st21{fill:url(#SVGID_18_);}
	.st22{fill:url(#SVGID_19_);}
	.st23{fill:url(#SVGID_20_);}
	.st24{fill:url(#SVGID_21_);}
</style><style
     type="text/css"
     id="style2">
	.st0{fill:#4A0000;}
	.st1{fill:#FFFFFF;}
</style></svg>
