<?xml version="1.0" encoding="UTF-8" standalone="no"?>
<!-- Created with Inkscape (http://www.inkscape.org/) -->

<svg
   width="1500"
   height="500"
   viewBox="0 0 396.87498 132.29167"
   version="1.1"
   id="svg5"
   inkscape:version="1.2.2 (732a01da63, 2022-12-09)"
   xml:space="preserve"
   sodipodi:docname="fm7.svg"
   xmlns:inkscape="http://www.inkscape.org/namespaces/inkscape"
   xmlns:sodipodi="http://sodipodi.sourceforge.net/DTD/sodipodi-0.dtd"
   xmlns:xlink="http://www.w3.org/1999/xlink"
   xmlns="http://www.w3.org/2000/svg"
   xmlns:svg="http://www.w3.org/2000/svg"><sodipodi:namedview
     id="namedview7"
     pagecolor="#000000"
     bordercolor="#111111"
     borderopacity="1"
     inkscape:showpageshadow="0"
     inkscape:pageopacity="0"
     inkscape:pagecheckerboard="1"
     inkscape:deskcolor="#d1d1d1"
     inkscape:document-units="mm"
     showgrid="false"
     inkscape:zoom="0.62760417"
     inkscape:cx="618.22406"
     inkscape:cy="600.69709"
     inkscape:window-width="1920"
     inkscape:window-height="1009"
     inkscape:window-x="-8"
     inkscape:window-y="-8"
     inkscape:window-maximized="1"
     inkscape:current-layer="layer1" /><defs
     id="defs2">
		
	
		
		
		
	
		
		
		
		
		
		
		
		
		
		
	
			
			
			
			
			
			
			
		<clipPath
   id="clip1"><rect
     width="647.167"
     height="750.977"
     fill="white"
     id="rect1942" /></clipPath><linearGradient
   id="a"><stop
     style="stop-color:#7c1315;stop-opacity:1"
     offset="0"
     id="stop2785" /><stop
     style="stop-color:#e81c24;stop-opacity:1"
     offset="1"
     id="stop2787" /></linearGradient><linearGradient
   xlink:href="#a"
   id="d"
   x1="1877.583"
   y1="914.461"
   x2="1734.319"
   y2="323.32"
   gradientUnits="userSpaceOnUse"
   gradientTransform="matrix(0.40587242,0,0,0.41663121,-1058.8639,-543.56372)" /><linearGradient
   id="b"><stop
     style="stop-color:#e5e5e5;stop-opacity:1"
     offset="0"
     id="stop2791" /><stop
     style="stop-color:#fff;stop-opacity:1"
     offset="1"
     id="stop2793" /></linearGradient></defs><g
     inkscape:label="Layer 1"
     inkscape:groupmode="layer"
     id="layer1"><path
       id="rect231"
       style="fill:#ffffff;stroke-width:0.8001;stroke-linecap:square;paint-order:fill markers stroke"
       d="M 0 0 L 0 132.29167 L 256.22467 132.29167 L 256.22467 69.575081 L 256.22467 68.519849 L 265.12077 68.519849 L 337.49671 68.519849 L 337.49671 132.29167 L 396.875 132.29167 L 396.875 0 L 187.27126 0 C 192.7702 6.1505463e-17 197.22 4.432188 197.22 9.9079224 C 197.22 15.37592 192.7702 19.823596 187.27126 19.823596 C 184.52389 19.823596 182.03981 18.719679 180.24481 16.918347 L 176.8228 13.083956 C 175.85589 12.119805 174.5456 11.579521 173.18013 11.581722 C 170.33148 11.581722 168.02075 13.877719 168.02075 16.713708 C 168.02075 19.56095 170.33078 21.862231 173.18013 21.862231 C 173.18013 21.862231 176.9909 22.371176 179.39784 17.663521 L 179.40559 21.827091 C 177.86987 23.680078 175.58729 24.750809 173.18064 24.747843 C 168.73183 24.747843 165.12015 21.151269 165.12015 16.713708 C 165.12015 12.284588 168.73183 8.6950765 173.18064 8.6950765 C 175.39626 8.6950765 177.4081 9.5836771 178.8697 11.047388 L 182.29533 14.881262 C 183.61489 16.200799 185.40514 16.94034 187.27126 16.936951 C 191.16863 16.936951 194.32406 13.793338 194.32406 9.9079224 C 194.32406 6.0337595 191.16863 2.8840617 187.27126 2.8840617 C 187.27126 2.8840617 181.84134 2.3705067 179.39784 9.2965902 L 179.40559 4.0969076 C 181.2245 1.7244415 184.03927 0 187.27126 0 L 0 0 z M 231.57088 26.508459 C 231.57088 26.508459 237.31928 26.659935 238.23507 27.577128 L 238.23507 32.980933 L 238.16014 32.981966 C 236.23994 29.809062 231.85613 30.190922 231.85613 30.190922 C 224.68527 30.190922 225.02399 35.782829 225.02399 35.782829 C 225.02399 35.782829 224.53122 38.588565 228.13388 40.502437 L 235.30347 44.396257 C 242.22393 48.192344 241.40284 53.58691 241.40284 53.58691 C 241.40284 53.58691 241.7157 63.664848 227.24246 63.664848 C 227.24246 63.664848 223.03721 63.796286 220.6563 62.884017 L 218.61921 56.356767 L 218.69053 56.356767 C 220.89559 59.606336 227.30085 60.076436 227.30085 60.076436 C 235.43392 59.710685 235.49054 54.0613 235.49054 54.0613 C 235.49054 54.0613 235.85626 51.62815 232.6721 49.866207 L 225.53817 45.972388 C 218.08948 41.903394 218.94219 36.4231 218.94219 36.4231 C 218.94219 36.4231 218.76603 26.508459 231.57088 26.508459 z M 194.75555 27.228829 L 219.18145 27.228829 L 217.27718 33.629472 L 217.21413 33.629472 C 217.16912 32.068694 215.9223 30.816724 214.34816 30.816724 L 209.16449 30.829643 L 209.15623 59.383972 C 209.15623 60.917318 210.31406 62.58362 211.85374 62.675761 L 211.85374 62.741907 L 200.38157 62.741907 L 200.38157 62.675761 C 201.90929 62.58362 203.06306 60.928758 203.06306 59.383455 L 203.05841 30.83016 L 196.8562 30.83016 C 196.8562 30.83016 194.46422 30.861711 192.91329 33.629472 L 192.84559 33.629472 L 194.75555 27.228829 z M 134.96747 27.230379 L 134.97781 33.493046 L 134.90753 33.493046 C 134.82664 31.974469 133.39195 30.829643 131.85087 30.829643 L 121.02931 30.829643 L 121.03499 41.814502 L 132.25033 41.814502 L 132.25033 48.073035 L 132.17643 48.073035 C 132.09906 46.550237 130.66537 45.401363 129.13062 45.401363 L 121.03499 45.401363 L 121.02931 59.383455 C 121.02931 60.928758 122.18595 62.595591 123.71648 62.683512 L 123.71648 62.751208 L 112.2593 62.751208 L 112.2593 62.683512 C 113.78842 62.595591 114.93459 60.928758 114.93459 59.383455 L 114.93459 30.60485 C 114.93459 29.05392 113.78842 27.394036 112.2593 27.308927 L 112.2593 27.240198 L 134.96747 27.230379 z M 135.70334 27.230379 L 147.15278 27.230379 L 147.15278 27.308411 C 145.62646 27.401959 144.47335 29.063768 144.47335 30.60485 L 144.47904 53.201404 C 144.47904 56.894097 147.48246 60.087805 151.18922 60.087805 C 154.89176 60.087805 157.90664 56.852094 157.90664 53.157996 L 157.90664 30.60485 C 157.90664 29.05392 156.75592 27.393519 155.22257 27.308411 L 155.22257 27.241748 L 166.68802 27.230379 L 166.68802 27.308411 C 165.15748 27.393519 163.99826 29.05392 163.99826 30.60485 L 163.99826 52.519792 C 163.99826 59.573187 158.29421 63.682418 151.21971 63.682418 C 144.13255 63.682418 138.36675 59.573187 138.36675 52.519792 L 138.38173 30.60485 C 138.38173 29.05392 137.22544 27.393519 135.70334 27.308411 L 135.70334 27.230379 z M 241.15892 27.230379 L 252.61869 27.230379 L 252.61869 27.308411 C 251.08394 27.401959 249.93048 29.063768 249.93048 30.60485 L 249.93823 53.201404 C 249.93823 56.894097 252.94233 60.087805 256.65048 60.087805 C 260.34883 60.087805 263.36635 56.852094 263.36635 53.157996 L 263.36635 30.60485 C 263.36635 29.05392 262.21429 27.393519 260.68796 27.308411 L 260.68796 27.241748 L 272.14515 27.230379 L 272.14515 27.308411 C 270.62588 27.393519 269.46779 29.05392 269.46779 30.60485 L 269.46779 52.519792 C 269.46779 59.573187 263.76104 63.682418 256.67529 63.682418 C 249.60149 63.682418 243.83421 59.573187 243.83421 52.519792 L 243.843 30.60485 C 243.843 29.05392 242.68946 27.393519 241.15892 27.308411 L 241.15892 27.230379 z M 168.16493 27.240198 L 179.62314 27.240198 L 179.62314 27.308927 C 178.09402 27.394036 176.94476 29.054953 176.94476 30.605884 L 176.95302 64.52526 C 176.95302 74.658009 166.7209 76.593332 165.73407 76.758622 L 165.72167 76.689376 C 170.72403 73.025522 170.85262 66.65898 170.85262 66.65898 L 170.8428 30.605884 C 170.8428 29.054953 169.69828 27.394036 168.16493 27.308927 L 168.16493 27.240198 z M 181.44836 27.240715 L 192.88797 27.240715 L 192.88797 27.308411 C 191.36939 27.394924 190.21165 28.986725 190.21165 30.529919 L 190.21165 59.37002 C 190.21165 60.917434 191.36939 62.58362 192.88797 62.675761 L 192.88797 62.741907 L 181.44836 62.741907 L 181.44836 62.675761 C 182.97608 62.58362 184.1283 60.917434 184.1283 59.37002 L 184.1283 30.530436 C 184.1283 28.978098 182.97608 27.387891 181.44836 27.308411 L 181.44836 27.240715 z M 258.33462 70.629797 L 258.33462 130.18172 L 335.38676 130.18172 L 335.38676 70.629797 L 265.12077 70.629797 L 258.33462 70.629797 z M 185.30704 72.342871 L 211.02433 72.342871 L 211.02433 82.35673 L 204.74306 82.35673 L 204.73376 117.8512 L 210.12671 117.86929 L 210.12671 127.87333 L 181.41322 127.87333 L 181.41322 117.86051 L 186.79687 117.8512 L 186.76069 96.512972 L 171.23761 127.87333 L 163.77192 127.87333 L 147.36 95.739376 C 147.25168 102.80332 147.34177 110.78656 147.31504 117.8512 C 149.10934 117.86036 150.90439 117.86016 152.69869 117.86929 L 152.69869 127.87333 L 130.26698 127.87333 L 130.26698 117.86051 L 136.54722 117.86051 L 136.54722 82.35673 L 130.26595 82.35673 L 130.26595 72.343905 L 154.18749 72.343905 L 169.4155 104.11458 L 185.30704 72.342871 z M 60.275907 72.344421 L 124.88178 72.344421 L 124.88178 95.102722 L 111.42214 95.102722 L 111.42214 83.267786 L 83.60575 83.267786 L 83.60575 96.923283 L 103.34666 96.923283 L 103.34666 107.84716 L 83.605233 107.84716 L 83.605233 118.77104 L 90.784639 118.77053 L 90.784639 127.87333 L 59.378288 127.87333 L 59.378288 118.77104 L 66.556661 118.77104 L 66.556661 83.267786 L 60.275907 83.267786 L 60.275907 72.344421 z M 265.76001 73.253927 L 327.67457 73.253927 L 327.67457 85.698128 C 321.80636 87.418572 317.57974 91.460666 314.02631 96.740865 C 308.29245 105.98033 305.97788 117.06834 306.13894 127.86506 C 299.21215 127.86506 292.28493 127.90113 285.36656 127.84698 C 286.55105 119.98119 288.28237 112.11609 291.51296 104.83339 C 294.02538 100.10886 298.47661 94.34613 303.41145 90.532458 C 305.53846 88.866175 307.3732 87.364386 310.1051 86.062447 L 281.13116 86.043327 C 277.71277 86.553975 276.18669 90.112792 276.39347 93.289913 L 265.76001 93.281128 L 265.76001 73.253927 z M 217.3056 95.102205 L 245.12251 95.102205 L 245.12251 105.11503 L 217.3056 105.11503 L 217.3056 95.102205 z " /><g
       id="g3416"
       transform="matrix(0.26458333,0,0,0.26458333,-8.3724043,201.75451)" /></g><style
     type="text/css"
     id="style307">
	.st0{fill-rule:evenodd;clip-rule:evenodd;fill:#FFFFFF;}
	.st1{fill:#FFFFFF;}
	.st2{fill-rule:evenodd;clip-rule:evenodd;}
</style><style
     type="text/css"
     id="style512">
	.st0{fill-rule:evenodd;clip-rule:evenodd;fill:#FFFFFF;}
	.st1{fill:#FFFFFF;}
	.st2{fill-rule:evenodd;clip-rule:evenodd;}
</style><style
     type="text/css"
     id="style524">
	.st0{fill:none;stroke:#000000;stroke-width:54.1005;stroke-miterlimit:10;}
	.st1{fill:none;stroke:#000000;stroke-width:55.7397;stroke-miterlimit:10;}
	.st2{fill:#FFEF00;}
	.st3{fill:url(#SVGID_1_);}
	.st4{fill:#FFFFFF;}
	.st5{fill:url(#SVGID_2_);}
	.st6{fill:url(#SVGID_3_);}
	.st7{fill:url(#SVGID_4_);}
	.st8{fill:url(#SVGID_5_);}
	.st9{fill:url(#SVGID_6_);}
	.st10{fill:url(#SVGID_7_);}
	.st11{fill:url(#SVGID_8_);}
	.st12{fill:url(#SVGID_9_);}
	.st13{fill:url(#SVGID_10_);}
	.st14{fill:url(#SVGID_11_);}
	.st15{fill:url(#SVGID_12_);}
	.st16{fill:url(#SVGID_13_);}
	.st17{fill:url(#SVGID_14_);}
	.st18{fill:url(#SVGID_15_);}
	.st19{fill:url(#SVGID_16_);}
	.st20{fill:url(#SVGID_17_);}
	.st21{fill:url(#SVGID_18_);}
	.st22{fill:url(#SVGID_19_);}
	.st23{fill:url(#SVGID_20_);}
	.st24{fill:url(#SVGID_21_);}
</style><style
     type="text/css"
     id="style2">
	.st0{fill:#4A0000;}
	.st1{fill:#FFFFFF;}
</style></svg>
