<?xml version="1.0" encoding="UTF-8" standalone="no"?>
<!-- Created with Inkscape (http://www.inkscape.org/) -->

<svg
   width="1500"
   height="500"
   viewBox="0 0 396.87498 132.29167"
   version="1.1"
   id="svg5"
   inkscape:version="1.2.2 (732a01da63, 2022-12-09)"
   xml:space="preserve"
   sodipodi:docname="fmtowns.svg"
   xmlns:inkscape="http://www.inkscape.org/namespaces/inkscape"
   xmlns:sodipodi="http://sodipodi.sourceforge.net/DTD/sodipodi-0.dtd"
   xmlns:xlink="http://www.w3.org/1999/xlink"
   xmlns="http://www.w3.org/2000/svg"
   xmlns:svg="http://www.w3.org/2000/svg"><sodipodi:namedview
     id="namedview7"
     pagecolor="#000000"
     bordercolor="#111111"
     borderopacity="1"
     inkscape:showpageshadow="0"
     inkscape:pageopacity="0"
     inkscape:pagecheckerboard="1"
     inkscape:deskcolor="#d1d1d1"
     inkscape:document-units="mm"
     showgrid="false"
     inkscape:zoom="0.31380209"
     inkscape:cx="-506.68879"
     inkscape:cy="219.88382"
     inkscape:window-width="1920"
     inkscape:window-height="1009"
     inkscape:window-x="-8"
     inkscape:window-y="-8"
     inkscape:window-maximized="1"
     inkscape:current-layer="layer1" /><defs
     id="defs2">
		
	
		
		
		
	
		
		
		
		
		
		
		
		
		
		
	
			
			
			
			
			
			
			
		<clipPath
   id="clip1"><rect
     width="647.167"
     height="750.977"
     fill="white"
     id="rect1942" /></clipPath><linearGradient
   id="a"><stop
     style="stop-color:#7c1315;stop-opacity:1"
     offset="0"
     id="stop2785" /><stop
     style="stop-color:#e81c24;stop-opacity:1"
     offset="1"
     id="stop2787" /></linearGradient><linearGradient
   xlink:href="#a"
   id="d"
   x1="1877.583"
   y1="914.461"
   x2="1734.319"
   y2="323.32"
   gradientUnits="userSpaceOnUse"
   gradientTransform="matrix(0.40587242,0,0,0.41663121,-1058.8639,-543.56372)" /><linearGradient
   id="b"><stop
     style="stop-color:#e5e5e5;stop-opacity:1"
     offset="0"
     id="stop2791" /><stop
     style="stop-color:#fff;stop-opacity:1"
     offset="1"
     id="stop2793" /></linearGradient></defs><g
     inkscape:label="Layer 1"
     inkscape:groupmode="layer"
     id="layer1"><path
       id="rect231"
       style="fill:#ffffff;stroke-width:0.8001;stroke-linecap:square;paint-order:fill markers stroke"
       d="M 0 0 L 0 100.5334 L 33.062581 100.5334 L 33.062581 102.71414 L 33.062581 111.73685 L 25.900228 111.73685 L 25.900228 106.11445 L 0 106.11445 L 0 123.63276 L 3.2349447 123.63276 L 3.2349447 106.12479 L 12.112956 106.12479 L 12.112956 112.73937 L 22.200195 112.73937 L 22.200195 118.32043 L 12.112956 118.32043 L 12.112956 123.63276 L 15.358236 123.63276 L 15.358236 129.21382 L 0 129.21382 L 0 132.29167 L 396.875 132.29167 L 396.875 0 L 0 0 z M 194.44911 1.0314616 C 198.84416 1.0314616 202.36026 4.459811 202.36026 8.7229818 C 202.36026 12.986151 198.80024 16.413985 194.44911 16.413985 C 192.25165 16.413985 190.27396 15.535269 188.86754 14.172778 L 186.14264 11.18433 C 185.39551 10.481122 184.3847 9.9973226 183.24205 9.9973226 C 180.95662 9.9973226 179.15496 11.799607 179.15496 13.997078 C 179.15496 16.194653 181.00065 17.996318 183.24205 17.996318 C 183.24205 17.996318 186.27484 18.391718 188.20867 14.743803 L 188.20867 17.996318 C 187.02197 19.358704 185.26371 20.281966 183.24205 20.281966 C 179.68209 20.281966 176.82538 17.469089 176.82538 14.041003 C 176.82538 10.612815 179.68209 7.8000407 183.24205 7.8000407 C 185.00006 7.8000407 186.62624 8.503263 187.7689 9.6459229 L 190.53772 12.590446 C 191.5485 13.557408 192.95527 14.172778 194.49355 14.172778 C 197.61396 14.172778 200.11905 11.711613 200.11905 8.7229818 C 200.11905 5.7343498 197.61396 3.2731852 194.49355 3.2731852 C 194.49355 3.2731852 190.18641 2.8773847 188.20867 8.2392904 L 188.20867 4.1961263 C 189.65901 2.3501551 191.90004 1.0314616 194.44911 1.0314616 z M 229.74928 21.614185 C 229.74928 21.614185 234.32018 21.746067 235.06731 22.449276 L 235.06731 26.624215 L 235.02338 26.624215 C 233.48519 24.163091 230.01335 24.470858 230.01335 24.470858 C 224.29984 24.470858 224.56355 28.822013 224.56355 28.822013 C 224.56355 28.822013 224.16763 31.019516 227.02439 32.469853 L 232.73825 35.502226 C 238.23193 38.446829 237.57258 42.622205 237.57258 42.622205 C 237.57258 42.622205 237.83645 50.444983 226.32159 50.444983 C 226.32159 50.444983 222.9812 50.533137 221.09141 49.830033 L 219.46516 44.775562 L 219.50908 44.775562 C 221.2671 47.280715 226.36551 47.67616 226.36551 47.67616 C 232.82614 47.412408 232.87002 43.017529 232.87002 43.017529 C 232.87002 43.017529 233.17738 41.128025 230.6283 39.765531 L 224.95888 36.732642 C 219.02564 33.568209 219.72871 29.305188 219.72871 29.305188 C 219.72871 29.305188 219.55287 21.614185 229.74928 21.614185 z M 134.82226 22.129399 L 152.88576 22.129399 L 152.88576 27.007654 L 152.84183 27.007654 C 152.79791 25.820965 151.65493 24.942147 150.42441 24.942147 L 141.81047 24.942147 L 141.81047 33.468241 L 150.7324 33.468241 L 150.7324 38.346497 L 150.68848 38.346497 C 150.64456 37.159814 149.50156 36.28099 148.27105 36.28099 L 141.81047 36.28099 L 141.76654 47.048808 C 141.76654 48.235397 142.68939 49.510056 143.9199 49.598006 L 143.9199 49.641931 L 134.82226 49.641931 L 134.82226 49.598006 C 136.00885 49.554081 136.93169 48.235397 136.93169 47.048808 L 136.93169 24.722005 C 136.93169 23.53542 136.05287 22.261173 134.82226 22.173324 L 134.82226 22.129399 z M 179.32239 22.186243 L 188.42002 22.186243 L 188.42002 22.230168 C 187.23333 22.274093 186.31007 23.592781 186.31007 24.779366 L 186.26615 51.105408 C 186.26615 58.972465 178.13579 60.46649 177.34473 60.598368 L 177.34473 60.554443 C 181.3442 57.697691 181.43182 52.77559 181.43182 52.77559 L 181.43182 24.779366 C 181.43182 23.592781 180.55301 22.318118 179.32239 22.230168 L 179.32239 22.186243 z M 153.48882 22.204846 L 162.58646 22.204846 L 162.58646 22.248771 C 161.35585 22.336721 160.47703 23.611384 160.47703 24.79797 L 160.47703 42.33385 C 160.47703 45.190609 162.84993 47.695797 165.79453 47.695797 C 168.73924 47.695797 171.15648 45.190605 171.15648 42.33385 L 171.15648 24.841895 C 171.15648 23.655206 170.23373 22.337137 169.00312 22.293213 L 169.00312 22.248771 L 178.14468 22.248771 C 176.91407 22.336721 175.99132 23.611384 175.99132 24.79797 L 175.99132 41.80675 C 175.99132 47.300533 171.46402 50.465137 165.83846 50.465137 C 160.21279 50.465137 155.59825 47.256611 155.59825 41.80675 L 155.59825 24.79797 C 155.59825 23.611384 154.6754 22.2928 153.48882 22.248771 L 153.48882 22.204846 z M 237.45269 22.204846 L 246.55033 22.204846 L 246.55033 22.248771 C 245.31972 22.336721 244.39645 23.611384 244.39645 24.79797 L 244.39645 42.334367 C 244.39645 45.191122 246.76977 47.695797 249.7584 47.695797 C 252.70301 47.695797 255.12035 45.191122 255.12035 42.334367 L 255.12035 24.841895 C 255.12035 23.655206 254.1976 22.337137 253.01091 22.293213 L 253.01091 22.248771 L 262.10855 22.248771 C 260.87794 22.336721 259.99912 23.611384 259.99912 24.79797 L 259.99912 41.80675 C 259.99912 47.300533 255.47191 50.465137 249.80232 50.465137 C 244.17677 50.465137 239.60605 47.256611 239.60605 41.80675 L 239.60605 24.79797 C 239.60605 23.611384 238.6832 22.2928 237.45269 22.248771 L 237.45269 22.204846 z M 189.85353 22.206913 L 198.95116 22.206913 L 198.95116 22.250838 C 197.76458 22.338788 196.84122 23.569009 196.84122 24.755595 L 196.84122 47.126322 C 196.84122 48.313012 197.76458 49.631596 198.95116 49.675521 L 198.95116 49.719446 L 189.85353 49.719446 L 189.85353 49.675521 C 191.08414 49.587671 192.00688 48.313012 192.00688 47.126322 L 192.00688 24.755595 C 192.00688 23.569009 191.08414 22.338791 189.85353 22.250838 L 189.85353 22.206913 z M 200.39449 22.212598 L 219.82069 22.212598 L 218.32621 27.17922 L 218.28228 27.17922 C 218.23825 25.948606 217.27169 24.981421 215.99715 24.981421 L 211.86562 24.981421 L 211.86562 47.132524 C 211.86562 48.319108 212.78837 49.593772 214.01898 49.681722 L 214.01898 49.725647 L 204.87742 49.725647 L 204.87742 49.681722 C 206.10803 49.637796 207.03129 48.319108 207.03129 47.132524 L 207.03129 24.981421 L 202.10859 24.981421 C 202.10859 24.981421 200.21899 24.981748 198.98837 27.135295 L 198.94445 27.135295 L 200.39449 22.212598 z M 168.03005 68.194287 C 184.71108 68.194287 198.3636 81.154862 199.47981 97.556836 L 191.28445 97.556836 C 190.17858 85.671358 180.1946 76.369499 168.01972 76.369499 C 155.84484 76.369499 145.85053 85.671358 144.75499 97.556836 L 136.57978 97.556836 C 137.69598 81.154862 151.34902 68.194287 168.03005 68.194287 z M 84.108044 70.282015 L 139.30829 70.282015 L 139.30829 78.457227 L 115.63067 78.457227 L 115.63067 97.556836 L 107.45546 97.556836 L 107.45546 78.457227 L 84.108044 78.457227 L 84.108044 70.282015 z M 199.96557 70.282015 L 208.33715 70.282015 L 214.3833 97.556836 L 206.01171 97.556836 L 199.96557 70.282015 z M 232.51139 70.282015 L 235.25024 70.282015 L 240.88297 70.282015 L 243.62182 70.282015 L 249.66796 97.556836 L 241.29638 97.556836 L 238.06144 82.984082 L 234.82649 97.556836 L 226.46525 97.556836 L 232.51139 70.282015 z M 267.78572 70.282015 L 276.15679 70.282015 L 270.11116 97.556836 L 261.73958 97.556836 L 267.78572 70.282015 z M 326.82036 70.282015 L 334.99557 70.282015 L 334.99557 97.556836 L 326.82036 97.556836 L 326.82036 70.282015 z M 353.28851 70.282015 L 393.45144 70.282015 L 393.45144 78.457227 L 353.28851 78.457227 C 346.80834 78.457227 346.80834 88.172396 353.28851 88.172396 L 376.46023 88.172396 C 384.88342 88.203396 390.69193 92.141191 393.90619 97.556836 L 382.08262 97.556836 C 380.46 96.781697 378.55828 96.337272 376.34654 96.337272 L 353.28851 96.337272 C 335.92536 96.337272 335.92536 70.282015 353.28851 70.282015 z M 282.00656 70.29235 L 285.13815 70.29235 L 290.17144 70.29235 L 299.45252 70.29235 C 301.12682 70.29235 302.65647 71.274215 303.33859 72.81416 L 314.36634 97.556836 L 305.42632 97.556836 L 296.92038 78.457227 L 290.18177 78.457227 L 290.18177 97.567171 L 282.00656 97.567171 L 282.00656 70.29235 z M 35.584391 100.5334 L 48.482312 100.5334 L 55.877209 116.31176 L 63.55116 100.5334 L 69.783337 100.5334 L 76.366915 100.5334 L 76.366915 106.11445 L 73.13197 105.95684 L 73.13197 123.63276 L 76.366915 123.63276 L 76.366915 129.21382 L 61.008679 129.21382 L 61.008679 123.63276 L 64.253959 123.63276 L 64.253959 111.68466 L 55.561983 129.21382 L 52.120333 129.21382 L 44.516663 106.12479 L 44.409692 123.63276 L 47.645154 123.63276 L 47.645154 129.21382 L 35.584391 129.21382 L 35.584391 123.63276 L 38.819336 123.63276 L 38.819336 106.12479 L 35.584391 106.12479 L 35.584391 100.5334 z M 64.253959 111.68466 L 67.236723 105.669 L 64.253959 111.67484 L 64.253959 111.68466 z M 107.45546 101.32922 L 115.63067 101.32922 L 115.63067 129.21382 L 107.45546 129.21382 L 107.45546 101.32922 z M 136.51777 101.32922 L 144.70331 101.32922 C 145.53013 113.48342 155.64848 123.09533 168.00938 123.09533 C 180.38063 123.09533 190.49897 113.49375 191.31545 101.32922 L 199.50048 101.32922 C 198.67368 117.9999 184.88679 131.26021 168.00938 131.26021 C 151.13199 131.26021 137.35492 117.9999 136.51777 101.32922 z M 206.84887 101.32922 L 215.22045 101.32922 L 219.67496 121.43135 L 221.17358 121.43135 L 225.62809 101.32922 L 233.98934 101.32922 L 227.80883 129.21382 L 221.40096 129.21382 L 219.44759 129.21382 L 213.02937 129.21382 L 206.84887 101.32922 z M 242.13354 101.32922 L 250.50512 101.32922 L 254.95963 121.43135 L 256.44791 121.43135 L 260.90242 101.32922 L 269.274 101.32922 L 263.0935 129.21382 L 256.68562 129.21382 L 254.72192 129.21382 L 248.31404 129.21382 L 242.13354 101.32922 z M 282.00656 101.32922 L 290.18177 101.32922 L 290.18177 129.21382 L 282.00656 129.21382 L 282.00656 101.32922 z M 326.79969 101.32922 L 334.9749 101.32922 L 334.9749 129.21382 L 331.34722 129.21382 L 326.81003 129.21382 L 322.27284 129.21382 C 320.59853 129.21382 319.06889 128.23196 318.38677 126.69201 L 307.10063 101.33955 L 316.04066 101.33955 L 324.81532 121.04894 L 326.79969 121.04894 L 326.79969 101.32922 z M 386.49579 101.32922 L 395.65285 101.32922 C 399.8076 113.33873 393.36862 129.21382 376.34654 129.21382 L 340.4526 129.21382 L 340.4526 121.03861 L 376.34654 121.03861 C 388.06667 121.03861 391.44635 108.5432 386.49579 101.32922 z " /></g><style
     type="text/css"
     id="style307">
	.st0{fill-rule:evenodd;clip-rule:evenodd;fill:#FFFFFF;}
	.st1{fill:#FFFFFF;}
	.st2{fill-rule:evenodd;clip-rule:evenodd;}
</style><style
     type="text/css"
     id="style512">
	.st0{fill-rule:evenodd;clip-rule:evenodd;fill:#FFFFFF;}
	.st1{fill:#FFFFFF;}
	.st2{fill-rule:evenodd;clip-rule:evenodd;}
</style><style
     type="text/css"
     id="style524">
	.st0{fill:none;stroke:#000000;stroke-width:54.1005;stroke-miterlimit:10;}
	.st1{fill:none;stroke:#000000;stroke-width:55.7397;stroke-miterlimit:10;}
	.st2{fill:#FFEF00;}
	.st3{fill:url(#SVGID_1_);}
	.st4{fill:#FFFFFF;}
	.st5{fill:url(#SVGID_2_);}
	.st6{fill:url(#SVGID_3_);}
	.st7{fill:url(#SVGID_4_);}
	.st8{fill:url(#SVGID_5_);}
	.st9{fill:url(#SVGID_6_);}
	.st10{fill:url(#SVGID_7_);}
	.st11{fill:url(#SVGID_8_);}
	.st12{fill:url(#SVGID_9_);}
	.st13{fill:url(#SVGID_10_);}
	.st14{fill:url(#SVGID_11_);}
	.st15{fill:url(#SVGID_12_);}
	.st16{fill:url(#SVGID_13_);}
	.st17{fill:url(#SVGID_14_);}
	.st18{fill:url(#SVGID_15_);}
	.st19{fill:url(#SVGID_16_);}
	.st20{fill:url(#SVGID_17_);}
	.st21{fill:url(#SVGID_18_);}
	.st22{fill:url(#SVGID_19_);}
	.st23{fill:url(#SVGID_20_);}
	.st24{fill:url(#SVGID_21_);}
</style><style
     type="text/css"
     id="style2">
	.st0{fill:#4A0000;}
	.st1{fill:#FFFFFF;}
</style></svg>
