<?xml version="1.0" encoding="UTF-8" standalone="no"?>
<!-- Created with Inkscape (http://www.inkscape.org/) -->

<svg
   width="1500"
   height="500"
   viewBox="0 0 396.87498 132.29167"
   version="1.1"
   id="svg5"
   inkscape:version="1.2.2 (732a01da63, 2022-12-09)"
   xml:space="preserve"
   sodipodi:docname="fpinball.svg"
   xmlns:inkscape="http://www.inkscape.org/namespaces/inkscape"
   xmlns:sodipodi="http://sodipodi.sourceforge.net/DTD/sodipodi-0.dtd"
   xmlns:xlink="http://www.w3.org/1999/xlink"
   xmlns="http://www.w3.org/2000/svg"
   xmlns:svg="http://www.w3.org/2000/svg"><sodipodi:namedview
     id="namedview7"
     pagecolor="#000000"
     bordercolor="#111111"
     borderopacity="1"
     inkscape:showpageshadow="0"
     inkscape:pageopacity="0"
     inkscape:pagecheckerboard="1"
     inkscape:deskcolor="#d1d1d1"
     inkscape:document-units="mm"
     showgrid="false"
     inkscape:zoom="0.31380209"
     inkscape:cx="-506.68879"
     inkscape:cy="219.88382"
     inkscape:window-width="1920"
     inkscape:window-height="1009"
     inkscape:window-x="-8"
     inkscape:window-y="-8"
     inkscape:window-maximized="1"
     inkscape:current-layer="layer1" /><defs
     id="defs2">
		
	
		
		
		
	
		
		
		
		
		
		
		
		
		
		
	
			
			
			
			
			
			
			
		<clipPath
   id="clip1"><rect
     width="647.167"
     height="750.977"
     fill="white"
     id="rect1942" /></clipPath><linearGradient
   id="a"><stop
     style="stop-color:#7c1315;stop-opacity:1"
     offset="0"
     id="stop2785" /><stop
     style="stop-color:#e81c24;stop-opacity:1"
     offset="1"
     id="stop2787" /></linearGradient><linearGradient
   xlink:href="#a"
   id="d"
   x1="1877.583"
   y1="914.461"
   x2="1734.319"
   y2="323.32"
   gradientUnits="userSpaceOnUse"
   gradientTransform="matrix(0.40587242,0,0,0.41663121,-1058.8639,-543.56372)" /><linearGradient
   id="b"><stop
     style="stop-color:#e5e5e5;stop-opacity:1"
     offset="0"
     id="stop2791" /><stop
     style="stop-color:#fff;stop-opacity:1"
     offset="1"
     id="stop2793" /></linearGradient></defs><g
     inkscape:label="Layer 1"
     inkscape:groupmode="layer"
     id="layer1"><path
       id="rect231"
       style="fill:#ffffff;stroke-width:0.8001;stroke-linecap:square;paint-order:fill markers stroke"
       d="M 0 0 L 0 132.29167 L 396.875 132.29167 L 396.875 42.843896 C 396.84397 48.894588 385.20474 63.374155 371.5737 73.189848 C 366.24589 77.02607 364.21188 79.789121 364.21188 83.192338 C 364.21188 85.956356 364.97347 85.900524 367.87574 82.920003 C 373.68334 76.956899 375.27589 80.474487 369.55729 86.634505 C 361.85508 94.932746 355.72506 95.23911 355.72506 87.325419 C 355.72506 82.662362 355.39774 82.696262 350.20291 87.899544 C 342.5897 95.527658 337.38995 95.051474 337.10862 86.701685 C 337.03906 84.636661 336.97051 82.870683 336.95721 82.778927 C 336.94289 82.68614 335.36343 84.21058 333.44631 86.168384 C 327.92413 91.805703 323.12294 93.332578 320.36287 90.331437 L 319.0074 88.858142 L 317.6757 90.253406 C 314.6875 93.382386 308.87057 92.279139 307.56624 88.336727 C 306.62507 85.491262 306.19135 85.325453 304.50441 87.160571 C 299.08555 93.052539 286.83177 94.761731 282.57913 90.218266 L 280.62008 88.124337 L 277.73964 89.964535 C 275.28851 91.531602 274.26513 91.804732 270.86977 91.804732 C 263.0448 91.804732 262.41786 89.395373 267.51959 78.920764 C 271.01827 71.735966 271.30273 70.77424 270.13855 70.049471 C 269.46439 69.628837 261.76025 77.336503 261.76025 78.431388 C 261.76025 78.690161 260.53248 81.532215 259.03173 84.746765 C 257.53201 87.961315 256.30425 90.828771 256.30425 91.119503 C 256.30425 91.677255 246.70331 92.719185 246.20306 92.215043 C 245.68133 91.689251 247.64446 86.707762 250.52218 81.253955 C 252.06998 78.320858 253.13183 75.920947 252.88017 75.920947 C 252.62954 75.920947 252.75148 75.590766 253.15147 75.187659 C 254.04251 74.289688 254.12227 72.642397 253.24862 73.186747 C 252.83533 73.444489 252.7584 72.98239 253.02745 71.848328 C 254.63971 65.024367 262.787 61.396318 263.83661 67.034668 C 264.3164 69.611051 265.1358 70.227885 266.49639 69.032996 C 268.18538 67.550467 273.69547 66.006897 275.70772 66.452275 C 279.67084 67.329626 279.7013 72.794914 275.78523 80.642623 C 274.43896 83.342721 273.50949 85.723978 273.71921 85.936357 C 274.26345 86.48483 278.35135 85.644043 278.84034 84.883191 C 279.11349 84.457402 279.56051 84.508818 280.19375 85.037703 C 281.00192 85.714017 281.23407 85.574527 281.79365 84.081689 C 282.36756 82.548644 286.10154 75.861146 294.70604 60.953385 C 296.06357 58.600722 297.79427 55.429521 298.55232 53.905754 C 301.56405 47.851924 304.10437 46.134932 309.57439 46.455562 C 311.85467 46.589588 311.8229 46.726694 307.56004 55.180611 C 303.10076 64.023202 303.00359 64.923686 306.50739 64.923686 C 309.65927 64.923686 310.96894 66.466608 311.30141 70.568819 C 311.72187 75.75973 311.72569 75.760713 316.60031 71.172917 C 322.77006 65.365488 323.5874 65.050172 332.57143 65.001717 C 340.00766 64.961509 340.03131 64.965803 339.617 66.317399 C 339.01035 68.295822 336.96733 72.286582 335.48908 74.380473 C 334.78219 75.38154 333.93123 76.641621 333.59773 77.179785 C 333.26423 77.716918 332.3913 79.077559 331.65883 80.203373 C 329.52484 83.479781 330.80066 83.673853 333.68144 80.511882 C 335.62618 78.376752 336.64602 77.695069 337.54115 77.93116 C 338.54575 78.196119 339.11347 77.544536 340.80245 74.184619 C 350.02178 55.847867 360.1762 43.87613 368.89221 41.068811 C 375.43536 38.961518 378.15573 39.623314 378.15573 43.321387 C 378.15573 45.658585 378.91793 46.35043 380.02073 45.011206 C 382.63144 41.840987 392.74786 38.873854 395.63683 40.432674 C 396.48833 40.891937 396.88075 41.723398 396.875 42.843896 L 396.875 0 L 0 0 z M 223.57033 37.569283 C 229.47435 37.532263 236.03763 38.111795 239.09962 39.166602 C 242.02337 40.174886 243.24461 40.320414 244.85482 39.855448 C 248.84148 38.702829 252.17252 39.070765 251.95155 40.638863 C 251.81856 41.582197 251.28146 42.071127 250.24209 42.195874 C 247.081 42.577331 246.99691 42.849675 249.26696 45.381726 C 251.76207 48.165333 252.35153 51.862383 250.3935 52.452096 C 245.77258 53.84493 243.527 57.41398 244.80883 61.328556 C 245.90549 64.677132 242.50087 67.021444 233.69995 68.977185 C 227.12202 70.440125 226.89509 70.592525 224.52376 75.139083 C 217.0814 89.4128 197.84881 98.239287 184.77787 93.380347 C 173.48286 89.181224 174.83116 75.309615 186.53435 75.309615 C 193.20128 75.309615 194.88806 84.286996 188.42778 85.387036 C 182.86774 86.333462 183.19714 89.177906 189.03032 90.587236 C 196.28957 92.34297 205.48652 85.866407 210.89617 75.190759 C 212.25984 72.498908 211.71955 71.950771 208.57177 72.832247 C 204.8736 73.866305 202.34992 73.672328 202.34992 72.353723 C 202.34992 71.359872 204.59872 69.747132 206.29077 69.526506 C 213.05693 68.647092 214.13211 68.142208 215.33414 65.278186 C 217.75151 59.519213 227.73254 48.640231 233.7294 45.229797 C 236.52119 43.642111 236.87425 43.248266 236.15303 42.521436 C 234.09372 40.446102 215.99068 40.977368 210.53909 43.273328 C 208.19436 44.259962 208.19228 45.373458 210.53599 45.373458 C 217.11289 45.373458 217.51068 57.126235 211.17316 64.195565 C 205.07707 70.994782 194.00512 71.224702 190.83073 64.617244 C 186.49625 55.594235 198.82255 41.935768 214.55331 38.332544 C 216.72272 37.835361 220.02792 37.591495 223.57033 37.569283 z M 44.423128 39.403796 C 47.495502 39.291377 50.891506 39.753205 56.948979 40.875024 C 64.312574 42.238992 66.042251 42.379415 68.230461 41.791764 C 73.22989 40.448416 74.819636 41.814546 72.148568 45.157967 C 68.649888 49.53957 62.177357 50.00244 52.005611 46.599223 C 44.457875 44.074388 37.253817 43.530075 32.960262 45.159001 C 29.153658 46.604414 29.115029 47.424014 32.833655 47.853927 C 37.17836 48.357038 38.625967 51.181485 37.862805 57.670382 C 36.566657 68.700681 24.407248 74.940301 15.409912 69.189575 C 4.6417537 62.307881 18.946101 44.534844 38.73717 40.207882 C 40.852491 39.745107 42.579704 39.471248 44.423128 39.403796 z M 373.57616 43.785958 C 372.95063 43.707588 371.9584 44.214323 370.41047 45.344519 C 364.93329 49.342603 350.29905 69.003087 352.00849 70.068075 C 353.57471 71.043368 375.01111 46.558059 374.34718 44.550769 C 374.19488 44.090701 373.95148 43.83298 373.57616 43.785958 z M 391.86187 43.832983 C 389.58701 44.211187 383.77114 49.262758 378.69575 55.759387 C 373.49172 62.422517 369.30379 69.512438 370.23063 70.089779 C 371.75491 71.039298 392.19979 48.429156 392.79825 45.132129 C 392.98546 44.100132 392.62016 43.706916 391.86187 43.832983 z M 241.24367 45.285608 C 239.13829 45.289747 235.36764 50.165074 231.65304 58.004728 C 227.30527 67.178259 227.47186 68.280461 232.69226 64.904049 C 240.19089 60.054387 244.94506 50.850679 242.41414 46.084526 C 242.12681 45.543269 241.72953 45.284653 241.24367 45.285608 z M 102.17102 46.608525 C 107.28503 46.594091 107.30868 46.641227 104.49336 51.480579 C 102.23866 55.35804 102.27245 55.759387 104.84838 55.759387 C 108.75626 55.759387 107.16622 59.332315 103.16218 59.547786 L 99.758769 59.730721 L 93.217566 71.032874 C 86.35422 82.894131 85.361192 85.378837 87.47063 85.406673 C 88.136607 85.415952 89.041974 85.003354 89.480843 84.489933 C 90.156027 83.702276 90.234323 83.967355 89.986755 86.201457 C 89.655302 89.193318 88.560067 90.679055 85.655754 92.067765 C 80.199041 94.677139 77.916275 92.651219 78.127014 85.387036 C 78.290695 79.732191 77.81319 80.76612 90.810478 57.898275 C 92.911731 54.201233 95.338474 50.152995 96.202913 48.899341 C 97.772204 46.628124 97.787445 46.621927 102.17102 46.608525 z M 53.8856 49.289498 C 55.61253 49.118777 55.484081 51.084278 53.537301 55.238489 C 49.750133 63.319196 48.905865 68.589612 51.39893 68.589612 C 52.027055 68.589612 52.709513 68.865888 52.917183 69.204045 C 53.125877 69.544263 54.186932 68.863645 55.297917 67.675972 C 57.197638 65.646001 57.511659 65.535018 61.322355 65.535018 C 66.00056 65.535018 66.040226 65.633639 63.158419 70.174011 C 58.308349 77.814496 55.76549 84.913945 57.765466 85.228389 C 58.747552 85.383034 63.587145 78.926249 67.688375 71.98682 L 71.502096 65.535018 L 74.332931 65.52675 C 75.889945 65.521595 77.777137 65.352095 78.528023 65.148995 C 80.820579 64.530416 80.195 66.248416 75.060535 74.668311 C 70.531688 82.096417 69.245542 86.086938 73.028617 80.972319 C 76.989696 75.618515 79.367218 77.147694 76.098714 82.946875 C 72.137636 89.973936 62.081173 94.717293 59.890918 90.59137 C 59.247447 89.379985 59.241533 89.379985 56.999105 90.59137 C 53.965893 92.229574 49.392107 92.225429 47.762459 90.583101 C 45.87706 88.684063 46.292571 85.974796 49.537545 78.987944 C 52.688402 72.207284 52.762764 71.644206 50.511129 71.644206 C 49.352063 71.644206 48.743186 72.386651 47.227091 75.65378 C 40.506967 90.126473 17.894777 98.333848 5.0089966 90.977909 C -3.5576535 86.08804 -0.44965578 74.911636 9.1389771 76.130237 C 15.802836 76.976659 16.562822 83.096194 10.183358 84.540576 C 4.0514613 85.928256 4.9057796 88.617037 11.902116 89.954199 C 19.631947 91.431573 27.731805 86.909899 33.022791 78.163188 C 35.981323 73.273318 35.17121 72.90407 28.763102 76.226872 C 23.07519 79.176464 20.865723 79.673484 21.199223 77.92806 C 21.483618 76.442439 24.669886 74.44038 29.751156 72.554744 C 36.672812 69.985579 36.999553 69.739094 39.436353 65.246147 C 42.555497 59.49439 48.035627 52.280569 50.377287 50.841341 C 51.932575 49.885765 53.100631 49.367098 53.8856 49.289498 z M 210.00837 51.015491 C 209.0912 51.075003 207.38296 53.037371 206.53003 55.807446 C 205.8395 58.05392 200.3409 61.868575 197.79361 61.868575 C 196.42994 61.868575 196.83813 55.341756 198.34707 53.021053 C 200.12607 50.28384 198.20556 50.81481 196.05418 53.654089 C 191.91715 59.114082 192.00248 62.360493 196.34719 64.837903 C 200.71542 67.329746 208.63743 60.793431 210.44917 53.20037 C 210.82436 51.629179 210.55867 50.979783 210.00837 51.015491 z M 32.365466 53.150761 C 31.541759 53.10651 29.977419 54.857317 28.858187 57.977856 C 28.216762 59.76452 22.078627 64.31287 20.307804 64.31287 C 19.524182 64.31287 19.411761 60.359526 20.117635 57.618188 C 21.027087 54.084039 20.611861 53.34687 18.822624 55.320138 C 15.277909 59.228528 14.704964 63.472031 17.359664 66.148417 C 21.248109 70.067117 29.655218 64.786305 32.38562 56.711784 C 33.198846 54.305446 33.006128 53.185178 32.365466 53.150761 z M 250.68237 54.267489 C 253.15209 54.227329 255.69757 56.172435 255.69757 59.013969 C 255.69757 63.290414 250.8281 65.532602 247.71305 62.69023 C 246.28595 61.389152 246.22248 57.197325 247.60763 55.655001 C 248.45256 54.714245 249.55977 54.285743 250.68237 54.267489 z M 135.89816 64.764006 C 137.0042 64.848553 137.87909 65.474263 138.46028 66.655363 C 139.72267 69.221436 140.1522 69.300145 143.77262 67.62998 C 149.38176 65.042257 155.2167 68.220354 151.12979 71.638005 C 150.63364 72.053484 150.39342 72.664085 150.59598 72.993994 C 150.79853 73.323903 152.22778 72.358753 153.77149 70.848389 C 163.78058 61.059372 176.46686 64.929501 169.29354 75.582467 C 167.79586 77.806259 167.78868 77.866318 168.98969 78.182825 C 172.76355 79.177706 163.35205 90.356514 157.2488 92.128743 C 145.97937 95.399997 142.00894 88.687388 148.64416 77.581828 C 150.67687 74.181704 150.66757 71.889691 148.63486 75.01661 C 147.14638 77.306384 144.53151 76.934208 144.25734 74.393909 C 143.71515 69.381355 138.06927 74.58267 132.71076 85.032536 L 128.9234 92.416064 L 124.7159 92.416064 C 122.40186 92.416064 120.50944 92.275077 120.50944 92.102905 C 120.50944 91.930734 122.41441 87.957146 124.74277 83.27347 C 127.07011 78.589794 128.72596 74.60221 128.4211 74.412512 C 128.11625 74.222815 127.696 74.347732 127.48731 74.688981 C 127.27759 75.030231 126.57683 75.309615 125.92926 75.309615 C 123.58454 75.309615 124.65654 72.816551 128.73219 68.7896 C 131.56912 65.986018 134.05478 64.623093 135.89816 64.764006 z M 110.79789 64.807414 C 113.04335 64.881712 112.31871 66.469548 109.61656 71.000834 C 103.58595 81.112543 102.16666 88.709878 107.46993 82.493156 C 109.06275 80.626077 117.90694 67.009289 118.35195 65.73914 C 118.37139 65.683468 120.36532 65.44192 122.78269 65.201705 C 128.29362 64.655293 128.28834 64.585463 123.26948 73.003296 C 119.68077 79.023103 118.79404 81.899323 121.43135 78.961072 C 125.10598 74.86917 125.2058 80.674564 121.53935 85.207719 C 116.42637 91.528568 110.51176 94.068855 107.51333 91.230607 C 106.15683 89.946024 105.98891 89.9265 104.23343 90.840967 C 98.69897 93.724577 90.734841 88.994284 93.931734 84.722994 C 94.2059 84.35597 94.259262 83.882724 94.048523 83.670345 C 93.838807 83.458997 94.374719 82.349751 95.240181 81.205379 C 96.105644 80.062039 98.198492 76.289043 99.890544 72.819845 C 103.52017 65.381429 102.96911 66.063842 105.80181 65.510213 C 108.14322 65.052722 109.77723 64.773642 110.79789 64.807414 z M 361.6818 67.335425 C 361.03629 67.194702 359.00393 68.608128 355.16747 71.664876 C 348.8545 76.693926 346.90716 79.054776 346.27085 82.448714 C 345.63864 85.816878 346.5333 85.955312 349.69132 82.978914 C 352.66929 80.171595 354.28681 79.603559 355.58398 80.910824 C 356.1231 81.454142 356.39135 81.344753 356.71053 80.451937 C 358.1366 76.464162 359.54515 73.073236 360.8679 70.442212 C 361.84717 68.494589 362.18386 67.444876 361.6818 67.335425 z M 247.50996 68.053727 C 249.61901 68.022647 251.45442 68.254154 251.45442 68.690381 C 251.45442 69.081117 250.39674 71.349367 249.10366 73.729867 C 246.15536 79.158931 240.94602 90.591377 240.94602 91.633683 C 240.94602 92.65537 235.6068 92.696732 234.60118 91.683293 C 233.09532 90.165711 233.75314 85.161175 236.06104 80.57441 C 240.68503 71.386446 242.40273 68.670088 243.75515 68.40616 C 244.88071 68.185792 246.24453 68.072375 247.50996 68.053727 z M 302.00586 68.42218 C 300.75134 68.721915 298.27769 72.192489 295.15304 78.322868 C 291.50501 85.480861 291.63178 87.380208 295.49669 83.435734 C 299.39025 79.460331 302.495 74.369 302.82441 71.417346 C 303.07223 69.203992 302.75856 68.242339 302.00586 68.42218 z M 165.65294 69.272257 C 165.15957 69.21643 164.42271 69.81929 163.14715 71.185319 C 157.76921 76.944292 156.9521 81.067337 162.01905 76.883679 C 164.98577 74.433074 166.87324 71.455739 166.3423 70.061873 C 166.15739 69.576675 165.94896 69.305754 165.65294 69.272257 z M 328.15413 69.305847 C 327.51032 69.220654 326.38888 70.260589 323.94767 72.918547 C 319.14875 78.142449 316.27207 84.227103 318.07154 85.347762 C 319.19685 86.048819 329.38386 71.56608 328.81507 70.073242 C 328.64084 69.615751 328.44677 69.344571 328.15413 69.305847 z M 164.71398 79.939307 C 164.43045 79.847867 163.83465 80.033826 162.93734 80.534102 C 162.10768 80.997006 160.13152 81.820132 158.54381 82.364482 C 155.62211 83.36658 154.09189 85.074719 154.69547 86.660343 C 155.40646 88.528453 160.31789 86.22433 163.48511 82.537598 C 164.79264 81.014991 165.18652 80.091706 164.71398 79.939307 z " /><g
       class="currentLayer"
       id="g7"
       transform="matrix(0.66304552,0,0,0.66820449,-4.0132617,32.331584)"><title
         id="title3">Layer 1</title><g
         id="svgg"
         class="selected"
         fill="#ffffff"
         fill-opacity="1"
         transform="matrix(1.5428907,0,0,1.5428907,-3.2859952,-4.2538667)"
         style="stroke-width:0.648134" /></g></g><style
     type="text/css"
     id="style307">
	.st0{fill-rule:evenodd;clip-rule:evenodd;fill:#FFFFFF;}
	.st1{fill:#FFFFFF;}
	.st2{fill-rule:evenodd;clip-rule:evenodd;}
</style><style
     type="text/css"
     id="style512">
	.st0{fill-rule:evenodd;clip-rule:evenodd;fill:#FFFFFF;}
	.st1{fill:#FFFFFF;}
	.st2{fill-rule:evenodd;clip-rule:evenodd;}
</style><style
     type="text/css"
     id="style524">
	.st0{fill:none;stroke:#000000;stroke-width:54.1005;stroke-miterlimit:10;}
	.st1{fill:none;stroke:#000000;stroke-width:55.7397;stroke-miterlimit:10;}
	.st2{fill:#FFEF00;}
	.st3{fill:url(#SVGID_1_);}
	.st4{fill:#FFFFFF;}
	.st5{fill:url(#SVGID_2_);}
	.st6{fill:url(#SVGID_3_);}
	.st7{fill:url(#SVGID_4_);}
	.st8{fill:url(#SVGID_5_);}
	.st9{fill:url(#SVGID_6_);}
	.st10{fill:url(#SVGID_7_);}
	.st11{fill:url(#SVGID_8_);}
	.st12{fill:url(#SVGID_9_);}
	.st13{fill:url(#SVGID_10_);}
	.st14{fill:url(#SVGID_11_);}
	.st15{fill:url(#SVGID_12_);}
	.st16{fill:url(#SVGID_13_);}
	.st17{fill:url(#SVGID_14_);}
	.st18{fill:url(#SVGID_15_);}
	.st19{fill:url(#SVGID_16_);}
	.st20{fill:url(#SVGID_17_);}
	.st21{fill:url(#SVGID_18_);}
	.st22{fill:url(#SVGID_19_);}
	.st23{fill:url(#SVGID_20_);}
	.st24{fill:url(#SVGID_21_);}
</style><style
     type="text/css"
     id="style2">
	.st0{fill:#4A0000;}
	.st1{fill:#FFFFFF;}
</style></svg>
