<?xml version="1.0" encoding="UTF-8" standalone="no"?>
<!-- Created with Inkscape (http://www.inkscape.org/) -->

<svg
   width="1500"
   height="500"
   viewBox="0 0 396.87498 132.29167"
   version="1.1"
   id="svg5"
   inkscape:version="1.2.2 (732a01da63, 2022-12-09)"
   xml:space="preserve"
   sodipodi:docname="gamate.svg"
   xmlns:inkscape="http://www.inkscape.org/namespaces/inkscape"
   xmlns:sodipodi="http://sodipodi.sourceforge.net/DTD/sodipodi-0.dtd"
   xmlns="http://www.w3.org/2000/svg"
   xmlns:svg="http://www.w3.org/2000/svg"><sodipodi:namedview
     id="namedview7"
     pagecolor="#000000"
     bordercolor="#111111"
     borderopacity="1"
     inkscape:showpageshadow="0"
     inkscape:pageopacity="0"
     inkscape:pagecheckerboard="1"
     inkscape:deskcolor="#d1d1d1"
     inkscape:document-units="mm"
     showgrid="false"
     inkscape:zoom="0.62760417"
     inkscape:cx="954.42323"
     inkscape:cy="541.74274"
     inkscape:window-width="1920"
     inkscape:window-height="1009"
     inkscape:window-x="-8"
     inkscape:window-y="-8"
     inkscape:window-maximized="1"
     inkscape:current-layer="layer1" /><defs
     id="defs2" /><g
     inkscape:label="Layer 1"
     inkscape:groupmode="layer"
     id="layer1"><path
       id="rect231"
       style="fill:#ffffff;stroke-width:0.8001;stroke-linecap:square;paint-order:fill markers stroke"
       d="M 0 0 L 0 70.205534 C 0 49.136755 18.866904 35.687227 35.407658 35.687227 C 40.245824 35.687227 44.567209 36.628106 48.919495 39.202258 L 49.984029 36.524386 L 56.838391 36.524386 L 58.792277 54.595117 L 50.883716 57.335002 C 49.994637 51.783512 44.639569 45.136263 36.968803 45.136263 C 25.183506 45.136263 19.848918 61.190783 19.848918 72.376461 C 19.848918 77.989979 22.381565 83.190271 28.429272 83.190271 C 33.515564 83.190271 38.932899 79.189406 39.449788 73.503524 C 39.625524 71.580661 38.881349 70.122934 34.849552 69.802458 L 36.399845 61.769873 L 65.770146 61.769873 L 64.219336 69.802458 C 59.701659 70.360707 57.448321 71.249659 56.879732 74.226994 L 53.364701 92.566443 L 42.768449 92.566443 L 41.320992 87.418437 C 36.400117 91.11943 31.561788 93.125065 24.056413 93.125065 C 10.089814 93.125065 0 86.539526 0 70.205534 L 0 132.29167 L 396.875 132.29167 L 396.875 54.057682 C 396.875 54.057682 391.33373 56.849076 389.4522 57.490031 C 386.54723 50.088045 380.67539 45.921745 372.94261 45.921745 C 366.69848 45.921745 365.59237 45.621805 364.73433 50.449634 L 363.21452 58.36853 C 371.50558 58.285827 370.71993 58.3581 373.02529 50.718351 L 380.91318 50.718351 L 376.18892 75.488416 L 368.44573 75.488416 C 368.52844 74.526984 368.62143 73.668623 368.62143 72.696855 C 368.62143 67.951727 368.22836 67.662579 361.47768 67.497172 L 359.31709 78.807076 C 359.14132 79.530735 359.18273 80.419693 359.18273 81.215715 C 359.18273 83.386691 362.52166 83.396977 364.07235 83.396977 C 372.90099 83.396977 381.29575 79.365018 388.69772 70.029834 L 395.39654 73.451847 L 382.61902 92.070349 L 331.21027 92.070349 L 331.20821 92.080684 L 331.20821 92.070349 L 331.21027 92.070349 L 332.666 84.203129 C 337.62823 83.965356 339.46802 82.435513 340.0056 79.540881 C 341.21514 72.965934 345.0301 53.272201 345.0301 53.272201 C 345.0301 53.272201 345.8776 48.516512 345.8776 48.165019 C 345.8776 47.120884 345.44368 45.518756 340.90529 45.187939 L 342.36308 37.310384 L 392.75019 37.310384 L 396.875 54.057682 L 396.875 0 L 0 0 z M 286.53755 37.310384 L 334.56821 37.310384 L 337.85535 54.739811 L 329.85377 57.572713 C 327.97224 50.573909 324.42626 46.190606 318.18213 45.632357 L 312.41349 75.757133 C 311.98963 77.928106 311.44197 80.057934 311.44197 80.936662 C 311.44197 83.593522 313.62319 83.717248 317.81006 84.192794 L 316.30059 92.070349 L 282.89901 92.070349 L 284.40796 84.192794 C 289.37019 83.955021 292.31692 82.425177 292.83381 79.530546 L 299.33625 45.622021 C 294.05356 46.717845 288.44013 48.5577 283.05404 56.755709 L 276.42705 54.016341 L 286.53755 37.310384 z M 98.614136 37.320719 L 116.77788 37.320719 L 125.71997 79.778593 C 126.31957 82.270042 127.76728 83.479471 132.22294 84.203129 L 130.7238 92.080684 L 96.029281 92.080684 L 97.538749 84.203129 C 103.10058 84.203129 105.07524 83.396982 105.07524 81.391414 C 105.07524 79.944097 104.70284 77.555921 103.97918 73.834253 L 86.560091 73.834253 C 84.254726 77.690316 82.455949 80.915739 82.455949 81.877173 C 82.455949 83.644965 83.013823 84.213464 87.976025 84.213464 L 86.467074 92.09102 L 62.296456 92.09102 L 63.805924 84.213464 C 69.192015 83.655213 71.001103 83.252348 75.952987 75.043998 L 98.614136 37.320719 z M 144.5457 37.320719 L 145.02112 37.320719 L 174.73249 37.320719 L 176.1386 60.353422 L 188.04795 37.320719 L 218.09005 37.320719 L 216.58058 45.198275 C 211.45296 45.198275 210.06791 47.286452 209.62338 49.540129 L 204.17513 77.92806 C 203.90634 79.292671 203.61703 80.502309 203.61703 81.546444 C 203.61703 83.159169 205.11588 83.717243 208.12425 84.203129 L 206.61478 92.080684 L 176.88274 92.080684 L 178.39221 84.203129 C 183.35444 83.63454 184.64688 82.911208 185.53596 78.972441 L 191.13872 49.767505 L 169.89454 92.080684 L 160.95193 92.080684 L 157.44724 48.57843 L 151.99951 76.977214 C 151.73072 78.104052 151.37887 80.057868 151.37887 81.184709 C 151.37887 83.283317 153.2089 83.727579 156.56874 84.213464 L 155.05927 92.09102 L 133.32881 92.09102 L 134.83828 84.213464 C 139.18022 83.810282 141.04124 83.252007 142.10605 78.341471 L 147.22306 51.638708 C 147.57453 50.191394 147.75015 49.147059 147.75015 48.423401 C 147.75015 46.676285 146.52014 45.952934 143.0259 45.239616 L 144.5457 37.320719 z M 246.22993 37.331055 L 264.39368 37.331055 L 273.33629 79.788928 C 273.93589 82.28038 275.38307 83.489806 279.83873 84.213464 L 278.3396 92.09102 L 243.65593 92.09102 L 245.1654 84.203129 C 250.72722 84.203129 252.70137 83.396982 252.70137 81.391414 C 252.70137 79.944097 252.32947 77.555921 251.60583 73.834253 L 234.17589 73.834253 C 231.87052 77.690316 230.07174 80.915739 230.07174 81.877173 C 230.07174 83.644965 230.63011 84.213464 235.59234 84.213464 L 234.08287 92.09102 L 209.91277 92.09102 L 211.42224 84.213464 C 216.8083 83.655213 218.61742 83.252348 223.5693 75.043998 L 246.22993 37.331055 z M 99.689006 51.338985 L 91.160327 65.946362 L 102.48057 65.946362 L 99.689006 51.338985 z M 247.31565 51.338985 L 238.78646 65.946362 L 250.1067 65.946362 L 247.31565 51.338985 z " /><g
       id="g248"
       transform="matrix(0.26458333,0,0,0.26458333,-305.08928,109.04149)">
	
	
	
	
	
	
</g></g><style
     type="text/css"
     id="style234">
	.st0{fill:#FFF800;}
	.st1{fill:#96E620;}
	.st2{fill:#FFFFFF;}
</style></svg>
