<?xml version="1.0" encoding="UTF-8" standalone="no"?>
<!-- Created with Inkscape (http://www.inkscape.org/) -->

<svg
   width="1500"
   height="500"
   viewBox="0 0 396.87498 132.29167"
   version="1.1"
   id="svg5"
   inkscape:version="1.2.2 (732a01da63, 2022-12-09)"
   xml:space="preserve"
   sodipodi:docname="gameandwatch.svg"
   xmlns:inkscape="http://www.inkscape.org/namespaces/inkscape"
   xmlns:sodipodi="http://sodipodi.sourceforge.net/DTD/sodipodi-0.dtd"
   xmlns="http://www.w3.org/2000/svg"
   xmlns:svg="http://www.w3.org/2000/svg"><sodipodi:namedview
     id="namedview7"
     pagecolor="#000000"
     bordercolor="#111111"
     borderopacity="1"
     inkscape:showpageshadow="0"
     inkscape:pageopacity="0"
     inkscape:pagecheckerboard="1"
     inkscape:deskcolor="#d1d1d1"
     inkscape:document-units="mm"
     showgrid="false"
     inkscape:zoom="0.62760417"
     inkscape:cx="954.42323"
     inkscape:cy="541.74274"
     inkscape:window-width="1920"
     inkscape:window-height="1009"
     inkscape:window-x="-8"
     inkscape:window-y="-8"
     inkscape:window-maximized="1"
     inkscape:current-layer="layer1" /><defs
     id="defs2" /><g
     inkscape:label="Layer 1"
     inkscape:groupmode="layer"
     id="layer1"><path
       id="rect231"
       style="fill:#ffffff;stroke-width:0.8001;stroke-linecap:square;paint-order:fill markers stroke"
       d="M 0 0 L 0 66.142733 C 0 54.104203 9.6542031 44.347681 21.560441 44.347681 C 30.384887 44.347681 37.966067 49.712878 41.303422 57.390295 L 33.839795 57.390295 L 33.838245 57.390295 C 31.120254 53.492206 26.63412 50.951929 21.560441 50.951929 C 13.256142 50.951929 6.531901 57.752743 6.531901 66.142733 C 6.531901 74.53122 13.256142 81.334054 21.560441 81.334054 C 27.584214 81.334054 32.782545 77.744087 35.181832 72.56818 L 21.917008 72.56818 L 21.917008 65.660075 L 43.101762 65.660075 C 43.109276 65.822434 43.113647 65.981877 43.113647 66.142733 C 43.113647 68.376655 42.784186 70.537204 42.163318 72.56818 C 39.452844 81.467794 31.255304 87.943986 21.560441 87.943986 C 9.6541926 87.943986 0 78.179759 0 66.142733 L 0 132.29167 L 396.875 132.29167 L 396.875 87.288212 L 389.84701 87.288212 L 389.84701 69.615389 L 377.16044 69.615389 L 377.16044 87.288212 L 370.13555 87.288212 L 370.13555 45.801339 L 377.16044 45.801339 L 377.16044 62.506262 L 389.84701 62.506262 L 389.84701 45.801339 L 396.875 45.801339 L 396.875 0 L 0 0 z M 349.25465 44.375069 C 357.53039 44.375069 364.71607 49.262304 368.31499 56.18055 L 360.08293 56.18055 C 357.395 53.19046 353.53608 51.244934 349.25465 51.244934 C 341.11121 51.244934 334.51136 57.915149 334.51136 66.144283 C 334.51136 74.370411 341.11121 81.040531 349.25465 81.040531 C 353.60524 81.040531 357.50749 79.139165 360.20592 76.106982 L 368.39457 76.106982 C 364.81518 83.110917 357.58902 87.916597 349.25465 87.916597 C 337.36193 87.916597 327.72108 78.164773 327.72108 66.144283 C 327.72108 54.12229 337.36193 44.375069 349.25465 44.375069 z M 128.03146 44.778145 L 135.05481 44.778145 L 135.05481 86.269153 L 128.03146 86.269153 L 128.03146 57.620772 L 109.24449 86.219543 L 109.24449 86.269153 L 102.21805 86.269153 L 102.21805 57.620772 L 83.417647 86.252616 L 74.974752 86.252616 L 102.21805 44.780729 L 102.21805 44.779179 L 109.24449 44.779179 L 109.24449 73.369165 L 128.03146 44.780729 L 128.03146 44.779179 L 128.03146 44.778145 z M 65.98512 44.779179 L 73.011564 44.779179 L 73.011564 86.269153 L 65.98512 86.269153 L 65.98512 77.395276 L 52.996248 77.395276 L 47.176965 86.252616 L 38.743372 86.252616 L 65.98512 44.780729 L 65.98512 44.779179 z M 140.7387 44.779179 L 162.08158 44.779179 L 162.08158 51.883655 L 147.76359 51.883655 L 147.76359 62.375521 L 162.08158 62.375521 L 162.08158 69.477413 L 147.76359 69.477413 L 147.76359 79.14814 L 162.08158 79.14814 L 162.08158 86.252616 L 147.76359 86.252616 L 140.7387 86.279488 L 140.7387 44.779179 z M 191.58521 45.258736 C 194.26261 45.258736 196.8438 46.320124 198.67935 48.170703 C 200.28188 49.800294 201.17377 51.950085 201.17377 54.224597 C 201.17377 58.46394 199.00148 61.005863 196.52702 63.015792 L 201.92979 68.059412 L 205.55851 59.791182 L 212.45163 59.791182 C 212.45163 59.791182 209.06729 67.494546 206.81683 72.61934 L 216.53304 81.694755 L 212.25319 86.369922 L 204.08263 78.734729 C 201.55106 83.773835 198.24638 87.032931 191.58521 87.032931 C 188.06745 87.032931 184.87328 85.756523 182.58524 83.441418 C 180.31674 81.147364 179.06556 77.969258 179.06556 74.475557 C 179.06556 68.31949 182.47508 65.334228 186.39121 62.53055 C 184.27605 60.660429 182.14599 58.133211 182.14599 54.224597 C 182.14599 48.612732 186.94748 45.258736 191.58521 45.258736 z M 296.7483 45.801339 L 303.77784 45.801339 L 303.77784 87.295964 L 296.7483 87.295964 L 296.7483 78.420536 L 283.76097 78.420536 L 277.94169 87.274776 L 269.50965 87.274776 L 296.7483 45.801339 z M 306.52444 45.801339 L 329.45896 45.801339 L 329.45896 52.903231 L 321.50802 52.903231 L 321.50802 87.288212 L 314.48003 87.288212 L 314.48003 52.903231 L 306.52444 52.903231 L 306.52444 45.801339 z M 232.23957 45.802889 L 239.26912 45.802889 L 239.26912 74.447135 L 258.04678 45.857149 L 258.04678 45.802889 L 265.07323 45.802889 L 265.07323 74.447135 L 283.87983 45.820976 L 292.31652 45.820976 L 265.07323 87.294413 L 265.07323 87.295964 L 258.04678 87.295964 L 258.04678 58.696676 L 239.26912 87.294413 L 239.26912 87.295964 L 232.23957 87.295964 L 232.23957 45.802889 z M 191.58521 51.629924 C 190.65616 51.629924 189.70315 51.999645 189.10784 52.602474 C 188.66286 53.053469 188.44638 53.587193 188.44638 54.224597 C 188.44638 55.93687 189.68539 57.0793 191.71336 58.719413 C 194.02997 56.987595 194.87906 56.013541 194.87906 54.224597 C 194.87906 53.623274 194.66423 53.118249 194.22225 52.673271 C 193.58334 52.029852 192.57589 51.629924 191.58521 51.629924 z M 65.98512 57.620772 L 57.65953 70.290283 L 65.98512 70.290283 L 65.98512 57.620772 z M 296.7483 58.650167 L 288.42426 71.318644 L 296.7483 71.318644 L 296.7483 58.650167 z M 191.31907 66.820728 C 191.30404 66.834256 191.28019 66.852166 191.25913 66.865686 C 187.06789 69.801656 185.36595 71.127679 185.36595 74.475557 C 185.36595 76.288552 185.94176 77.832555 187.03768 78.943502 C 188.15163 80.060466 189.71959 80.658643 191.58521 80.658643 C 195.38408 80.658643 196.92827 79.389934 199.10206 74.493644 L 199.22815 74.20529 L 191.31907 66.820728 z " /><g
       id="g351"
       transform="matrix(0.26458333,0,0,0.26458333,185.13807,175.75524)" /></g><style
     type="text/css"
     id="style234">
	.st0{fill:#FFF800;}
	.st1{fill:#96E620;}
	.st2{fill:#FFFFFF;}
</style></svg>
