<?xml version="1.0" encoding="UTF-8" standalone="no"?>
<!-- Created with Inkscape (http://www.inkscape.org/) -->

<svg
   width="1500"
   height="500"
   viewBox="0 0 396.87498 132.29167"
   version="1.1"
   id="svg5"
   inkscape:version="1.2.2 (732a01da63, 2022-12-09)"
   xml:space="preserve"
   sodipodi:docname="gamegear.svg"
   xmlns:inkscape="http://www.inkscape.org/namespaces/inkscape"
   xmlns:sodipodi="http://sodipodi.sourceforge.net/DTD/sodipodi-0.dtd"
   xmlns="http://www.w3.org/2000/svg"
   xmlns:svg="http://www.w3.org/2000/svg"><sodipodi:namedview
     id="namedview7"
     pagecolor="#000000"
     bordercolor="#111111"
     borderopacity="1"
     inkscape:showpageshadow="0"
     inkscape:pageopacity="0"
     inkscape:pagecheckerboard="1"
     inkscape:deskcolor="#d1d1d1"
     inkscape:document-units="mm"
     showgrid="false"
     inkscape:zoom="0.44378316"
     inkscape:cx="374.05655"
     inkscape:cy="371.8032"
     inkscape:window-width="1920"
     inkscape:window-height="1009"
     inkscape:window-x="-8"
     inkscape:window-y="-8"
     inkscape:window-maximized="1"
     inkscape:current-layer="layer1" /><defs
     id="defs2" /><g
     inkscape:label="Layer 1"
     inkscape:groupmode="layer"
     id="layer1"><path
       id="rect231"
       style="fill:#ffffff;stroke-width:0.8001;stroke-linecap:square;paint-order:fill markers stroke"
       d="M 0 0 L 0 132.29167 L 396.875 132.29167 L 396.875 55.764555 C 396.875 58.848322 396.07045 61.545284 394.46378 63.855017 C 392.92126 66.098349 390.70566 68.2476 388.12928 69.537874 L 395.51384 88.222005 L 385.63641 88.222005 L 378.9748 71.347066 L 374.98848 71.347066 L 372.09873 88.222005 L 363.48634 88.222005 L 370.9355 43.943571 L 385.91391 43.943571 C 389.39054 43.943571 392.10114 44.86519 394.00282 46.721179 C 395.92303 48.577819 396.875 51.582557 396.875 55.764555 L 396.875 0 L 0 0 z M 139.45815 42.845447 C 144.25042 42.845447 148.17018 44.169576 151.23935 46.8328 C 154.30718 49.483005 155.8339 53.64884 155.8339 59.315759 L 146.56315 59.315759 C 146.56315 56.603059 145.95472 54.697408 144.73897 53.599829 C 143.52718 52.517223 141.78494 51.967371 139.50621 51.967371 C 135.78155 51.967371 132.90935 53.76094 130.85816 57.330351 C 128.82419 60.914734 127.78858 64.982735 127.78858 69.553377 C 127.78858 72.670997 128.46299 75.222026 129.77399 77.190637 C 131.10353 79.178127 133.08726 80.162549 135.73177 80.162549 C 138.48806 80.162549 140.61972 79.386493 142.1629 77.852096 C 143.68954 76.335926 144.82126 74.364096 145.54357 71.957365 L 136.91154 71.957365 L 138.30835 63.690686 L 155.14092 63.690686 L 153.71465 71.698466 C 153.71663 71.702373 152.6486 77.160784 149.3175 81.633777 C 145.9725 86.106119 142.65923 87.376827 141.20999 88.062325 C 139.76337 88.749777 137.5704 89.28809 135.65219 89.28809 C 130.2699 89.28809 126.06992 87.561611 123.05037 84.120447 C 120.03082 80.664961 118.52196 75.821937 118.52196 69.537874 C 118.52196 62.111313 120.42589 55.811402 124.24978 50.611898 C 128.07234 45.428669 133.14124 42.845447 139.45815 42.845447 z M 291.35999 42.845447 C 296.15027 42.845447 300.07194 44.171643 303.13912 46.834867 C 306.20894 49.485072 307.73367 53.650908 307.73367 59.317826 L 298.4655 59.317826 C 298.4655 56.605127 297.85864 54.699475 296.64288 53.601896 C 295.4291 52.51929 293.68876 51.970988 291.40805 51.970988 C 287.68337 51.970988 284.81127 53.763008 282.76207 57.332418 C 280.72611 60.916801 279.69249 64.984801 279.69249 69.555444 C 279.69249 72.673063 280.36533 75.224093 281.67635 77.192704 C 283.00786 79.180195 284.99161 80.164616 287.63412 80.164616 C 290.3924 80.164616 292.52362 79.390512 294.06681 77.854163 C 295.59345 76.337993 296.72517 74.367983 297.44748 71.959949 L 288.81545 71.959949 L 290.21019 63.692236 L 307.04482 63.692236 L 305.61649 71.702083 C 305.61649 71.702083 304.54889 77.160784 301.21779 81.633777 C 297.87081 86.106119 294.56108 87.376827 293.11182 88.062325 C 291.66323 88.749777 289.47018 89.28809 287.55196 89.28809 C 282.17166 89.28809 277.96978 87.561725 274.95221 84.122514 C 271.93068 80.665074 270.42225 75.821535 270.42225 69.539425 C 270.42225 62.110911 272.32566 55.813469 276.14955 50.613965 C 279.97146 45.430736 285.04109 42.845447 291.35999 42.845447 z M 96.350708 42.850614 C 97.159379 42.885525 97.902965 43.075257 98.566077 43.432491 C 103.86104 46.304685 101.99432 58.803335 94.380286 71.340865 C 86.778817 83.88881 76.318539 91.718504 71.023572 88.856075 C 65.714715 85.988438 67.594314 73.487929 75.196444 60.952352 C 81.846572 49.9729 90.690014 42.606238 96.350708 42.850614 z M 28.346073 42.851648 C 29.154933 42.886696 29.8986 43.07708 30.561959 43.434558 C 35.856925 46.306752 33.991155 58.803335 26.375134 71.340865 C 18.774988 83.88881 8.3128705 91.718618 3.0179036 88.858142 C -2.2889696 85.988552 -0.41083828 73.487929 7.1912923 60.952352 C 13.840841 49.974609 22.684059 42.60631 28.346073 42.851648 z M 62.347616 42.851648 C 63.156236 42.886696 63.899873 43.07708 64.562984 43.434558 C 69.857951 46.306752 67.992264 58.803335 60.378227 71.340865 C 52.776097 83.88881 42.313462 91.718618 37.020479 88.858142 C 31.713606 85.988552 33.591737 73.487929 41.193868 60.952352 C 47.845732 49.974609 56.687275 42.60631 62.347616 42.851648 z M 167.36756 43.909981 L 167.36756 43.912048 L 177.04759 43.912048 L 182.16614 88.208053 L 173.61834 88.208053 L 172.86438 79.567753 L 161.31263 79.567753 L 158.08131 88.208053 L 149.25342 88.208053 L 167.36756 43.909981 z M 217.77224 43.909981 L 229.35396 43.992664 L 221.82367 88.208053 L 213.71874 88.208053 L 220.10078 53.93986 L 206.02257 88.208053 L 199.37904 88.208053 L 196.31101 53.955363 L 191.46687 88.208053 L 183.26633 88.208053 L 190.76252 43.992664 L 202.26672 43.992664 L 204.84331 75.125647 L 217.77224 43.909981 z M 347.78342 43.928068 L 357.46345 43.928068 L 362.58304 88.224072 L 354.05074 88.224072 L 353.29626 79.583256 L 341.7285 79.583256 L 338.51525 88.224072 L 329.66928 88.224072 L 347.78342 43.928068 z M 232.2096 43.943571 L 255.49087 43.943571 L 254.06615 53.115104 L 239.41278 53.115104 L 237.93586 61.109448 L 251.17847 61.109448 L 249.79716 69.684635 L 236.55662 69.684635 L 234.85233 79.099565 L 249.79716 79.099565 L 248.32386 88.208053 L 224.76147 88.208053 L 232.2096 43.943571 z M 312.78711 43.943571 L 336.07044 43.943571 L 334.64314 53.115104 L 319.9877 53.115104 L 318.51337 61.124951 L 331.73737 61.124951 L 330.37622 69.684635 L 317.13413 69.684635 L 315.41382 79.099565 L 330.37622 79.099565 L 328.89982 88.222005 L 305.3364 88.222005 L 312.78711 43.943571 z M 378.23789 52.501705 L 376.26799 63.401298 L 380.69924 63.401298 C 382.8642 63.401298 384.65039 62.887256 386.06326 61.851522 C 387.45828 60.818392 388.16287 59.268716 388.16287 57.168604 C 388.16287 55.295037 387.73635 54.051958 386.86786 53.423096 C 385.99804 52.808556 384.69995 52.501705 382.96164 52.501705 L 378.23789 52.501705 z M 170.6826 54.391512 L 164.11866 72.010592 L 172.20758 72.010592 L 170.6826 54.391512 z M 351.09898 54.391512 L 344.55055 72.009041 L 352.64152 72.009041 L 351.09898 54.391512 z " /><g
       transform="matrix(0.11641667,0,0,0.11457543,2.3500481e-5,42.844419)"
       id="g1329" /></g><style
     type="text/css"
     id="style234">
	.st0{fill:#FFF800;}
	.st1{fill:#96E620;}
	.st2{fill:#FFFFFF;}
</style><style
     type="text/css"
     id="style1241">
	.st0{fill:#FFFFFF;}
</style></svg>
