<?xml version="1.0" encoding="UTF-8" standalone="no"?>
<!-- Created with Inkscape (http://www.inkscape.org/) -->

<svg
   width="1500"
   height="500"
   viewBox="0 0 396.87498 132.29167"
   version="1.1"
   id="svg5"
   inkscape:version="1.2.2 (732a01da63, 2022-12-09)"
   xml:space="preserve"
   sodipodi:docname="gamecom.svg"
   xmlns:inkscape="http://www.inkscape.org/namespaces/inkscape"
   xmlns:sodipodi="http://sodipodi.sourceforge.net/DTD/sodipodi-0.dtd"
   xmlns="http://www.w3.org/2000/svg"
   xmlns:svg="http://www.w3.org/2000/svg"><sodipodi:namedview
     id="namedview7"
     pagecolor="#000000"
     bordercolor="#111111"
     borderopacity="1"
     inkscape:showpageshadow="0"
     inkscape:pageopacity="0"
     inkscape:pagecheckerboard="1"
     inkscape:deskcolor="#d1d1d1"
     inkscape:document-units="mm"
     showgrid="false"
     inkscape:zoom="0.44378316"
     inkscape:cx="374.05655"
     inkscape:cy="371.8032"
     inkscape:window-width="1920"
     inkscape:window-height="1009"
     inkscape:window-x="-8"
     inkscape:window-y="-8"
     inkscape:window-maximized="1"
     inkscape:current-layer="layer1" /><defs
     id="defs2" /><g
     inkscape:label="Layer 1"
     inkscape:groupmode="layer"
     id="layer1"><path
       id="rect231"
       style="fill:#ffffff;stroke-width:0.8001;stroke-linecap:square;paint-order:fill markers stroke"
       d="M 0 0 L 0 78.961589 C 0 63.737728 8.9916957 53.102702 21.879801 53.102702 L 47.583659 53.102702 C 48.978911 53.102702 50.115804 54.229249 50.115804 55.624512 L 50.115804 103.38387 C 50.115804 113.60546 41.826907 121.88403 31.615641 121.88403 L 6.5422363 121.88403 C 5.146984 121.88403 4.0204264 120.75749 4.0204264 119.36222 L 4.0204264 108.64453 C 4.0204264 107.24927 5.146984 106.12272 6.5422363 106.12272 L 29.238525 106.12272 C 30.292704 106.12272 31.233226 105.60596 31.822347 104.82048 L 21.879801 104.82048 C 8.9916957 104.82048 0 94.185449 0 78.961589 L 0 132.29167 L 396.875 132.29167 L 396.875 102.309 C 396.875 103.70426 395.74844 104.83081 394.35319 104.83081 L 381.74414 104.83081 C 380.34889 104.83081 379.22233 103.70426 379.22233 102.309 L 379.22233 72.098958 C 379.22233 70.310956 377.77539 68.864014 375.98739 68.864014 L 372.56641 68.864014 L 372.56641 102.29867 C 372.56641 103.69393 371.43985 104.82048 370.0446 104.82048 L 357.43555 104.82048 C 356.04029 104.82048 354.91374 103.69393 354.91374 102.29867 L 354.91374 68.864014 L 348.25781 68.864014 L 348.25781 102.29867 C 348.25781 103.69393 347.13125 104.82048 345.736 104.82048 L 333.12695 104.82048 C 331.7317 104.82048 330.60514 103.69393 330.60514 102.29867 L 330.60514 55.624512 C 330.60514 54.229249 331.7317 53.102702 333.12695 53.102702 L 378.37484 53.102702 C 388.59642 53.102702 396.875 61.381275 396.875 71.6132 L 396.875 0 L 0 0 z M 134.59644 10.407633 L 155.65975 10.407633 L 155.65975 17.704346 L 149.4069 17.704346 L 149.4069 17.797363 L 149.4069 39.976888 L 149.4069 40.152588 L 140.84928 40.152588 L 140.84928 39.976888 L 140.84928 17.797363 L 140.84928 17.704346 L 134.59644 17.704346 L 134.59644 10.407633 z M 158.09888 10.407633 L 166.65649 10.407633 L 166.65649 40.152588 L 158.09888 40.152588 L 158.09888 10.407633 z M 181.69434 10.407633 L 197.07324 10.407633 L 197.07324 17.69401 L 184.15413 17.69401 C 174.04621 17.69401 174.04621 32.855876 184.15413 32.855876 L 188.51562 32.855876 L 188.51562 28.918132 L 181.98372 28.918132 L 181.98372 21.621419 L 197.07324 21.621419 L 197.07324 28.918132 L 197.07324 32.855876 L 197.07324 39.966553 L 197.07324 40.152588 L 181.69434 40.152588 C 173.17807 40.152588 168.63053 32.711172 168.63053 25.280111 C 168.63053 17.849047 173.16772 10.407633 181.69434 10.407633 z M 206.58171 10.407633 L 207.9873 10.407633 L 221.64022 10.407633 L 221.64022 17.704346 L 210.74683 17.704346 C 209.66161 17.704346 208.78312 18.582847 208.78312 19.66805 C 208.78312 20.753253 209.66161 21.631755 210.74683 21.631755 L 221.64022 21.631755 L 221.64022 28.928467 L 210.74683 28.928467 C 209.66161 28.928467 208.78312 29.806968 208.78312 30.892171 C 208.78312 31.977377 209.66161 32.855876 210.74683 32.855876 L 231.77913 32.855876 L 231.77913 40.152588 L 207.99764 40.152588 L 206.59204 40.152588 C 202.35456 40.152585 198.91291 36.721268 198.90259 32.494141 L 198.90259 31.3986 C 198.90259 28.018964 201.54842 25.290446 202.37524 25.290446 C 201.54842 25.290446 198.90259 22.551593 198.90259 19.182292 L 198.90259 18.086751 C 198.90259 13.849287 202.34425 10.407633 206.58171 10.407633 z M 223.22152 10.438639 L 227.50033 10.438639 L 241.15324 10.438639 C 245.74209 10.438639 249.0494 15.068852 249.0494 19.699056 C 249.0494 22.644609 247.69546 25.59017 245.5354 27.347168 C 246.51724 27.853596 247.18905 28.866455 247.18905 30.044678 L 247.18905 32.886882 L 286.02905 32.886882 C 288.08576 32.886882 288.53018 30.458087 287.35197 29.414225 C 286.55616 28.711426 286.02905 27.770914 286.02905 26.70638 L 286.02905 26.148275 C 286.02905 23.461103 288.89193 21.66276 291.25871 22.923665 C 294.43164 24.608313 296.34367 27.760583 296.34367 30.912842 C 296.34367 35.543045 292.19921 40.173258 286.02905 40.173258 L 247.18905 40.173258 L 238.63143 40.173258 L 238.63143 31.02653 C 238.63143 29.868979 237.69091 28.938802 236.5437 28.938802 L 234.13558 28.938802 L 234.13558 21.64209 L 238.3007 21.64209 C 239.41692 21.64209 240.32642 20.701579 240.2644 19.564697 C 240.20239 18.500166 239.25156 17.704346 238.18701 17.704346 L 231.77913 17.704346 L 231.77913 30.592448 L 223.22152 30.592448 L 223.22152 10.438639 z M 137.40763 18.272786 C 138.95793 18.272786 140.21883 19.533694 140.21883 21.083984 C 140.21883 22.634277 138.95793 23.895182 137.40763 23.895182 C 135.85734 23.895182 134.59644 22.634277 134.59644 21.083984 C 134.59644 19.533694 135.85734 18.272786 137.40763 18.272786 z M 152.84855 18.272786 C 154.39882 18.272786 155.65975 19.533694 155.65975 21.083984 C 155.65975 22.634277 154.39882 23.895182 152.84855 23.895182 C 151.29825 23.895182 150.03735 22.634277 150.03735 21.083984 C 150.03735 19.533694 151.29825 18.272786 152.84855 18.272786 z M 302.94792 52.761637 C 319.57739 52.76164 329.91268 63.086604 329.91268 79.7264 C 329.91268 96.355858 319.57739 106.69116 302.94792 106.69116 C 286.31845 106.69116 275.98315 96.355858 275.98315 79.7264 C 275.98315 63.096939 286.31845 52.761637 302.94792 52.761637 z M 55.717529 53.102702 L 80.780599 53.102702 C 91.00221 53.102702 99.280762 61.381277 99.280762 71.592529 L 99.280762 102.28833 C 99.280762 103.68359 98.154204 104.81014 96.758952 104.81014 L 67.809814 104.81014 C 58.60108 104.81014 51.097646 97.399731 50.942627 88.23234 C 50.787608 78.796234 58.818115 71.075765 68.254232 71.075765 L 81.462728 71.075765 C 81.038972 69.783856 79.819409 68.853678 78.393148 68.853678 L 55.717529 68.853678 C 54.322251 68.853678 53.195719 67.727129 53.195719 66.331868 L 53.195719 55.624512 C 53.195719 54.229249 54.322251 53.102702 55.717529 53.102702 z M 104.28304 53.102702 L 149.53092 53.102702 C 159.74216 53.102702 168.03109 61.381275 168.03109 71.6132 L 168.03109 102.309 C 168.03109 103.70426 166.90456 104.83081 165.50928 104.83081 L 152.90023 104.83081 C 151.50495 104.83081 150.37842 103.70426 150.37842 102.309 L 150.37842 72.098958 C 150.37842 70.310956 148.93147 68.864014 147.14347 68.864014 L 143.72249 68.864014 L 143.72249 102.29867 C 143.72249 103.69393 142.59596 104.82048 141.20068 104.82048 L 128.59163 104.82048 C 127.19636 104.82048 126.06982 103.69393 126.06982 102.29867 L 126.06982 68.864014 L 119.4139 68.864014 L 119.4139 102.29867 C 119.4139 103.69393 118.28737 104.82048 116.89209 104.82048 L 104.28304 104.82048 C 102.88776 104.82048 101.76123 103.69393 101.76123 102.29867 L 101.76123 55.624512 C 101.76123 54.229249 102.88776 53.102702 104.28304 53.102702 z M 190.66536 53.102702 L 209.75464 53.102702 C 211.14989 53.102702 212.27645 54.229249 212.27645 55.624512 L 212.27645 66.342204 C 212.27645 67.737467 211.14989 68.864014 209.75464 68.864014 L 193.99333 68.864014 C 193.19751 68.864014 191.19245 69.081055 189.63184 71.0861 L 209.76497 71.0861 C 211.16025 71.0861 212.28678 72.212647 212.28678 73.60791 L 212.28678 84.356608 C 212.28678 85.751868 211.16025 86.878418 209.76497 86.878418 L 189.63184 86.878418 C 191.18213 88.88346 193.19751 89.100505 193.99333 89.100505 L 209.76497 89.100505 C 211.16025 89.100505 212.28678 90.227054 212.28678 91.622314 L 212.28678 93.865072 C 212.40048 93.62736 212.5245 93.41032 212.65885 93.182943 C 212.70021 93.120932 212.74152 93.048585 212.78288 92.986572 C 212.91723 92.779867 213.05159 92.573159 213.19629 92.37679 C 213.24796 92.304443 213.30998 92.232097 213.36165 92.159749 C 213.50635 91.973716 213.65103 91.798016 213.80607 91.622314 C 213.87841 91.539632 213.95077 91.467285 214.02311 91.384603 C 214.16781 91.229573 214.32285 91.074545 214.47786 90.919515 C 214.57089 90.826498 214.65355 90.75415 214.74658 90.671468 C 214.89126 90.526776 215.04631 90.392415 215.21167 90.268392 C 215.31502 90.175372 215.41837 90.103027 215.53206 90.020345 C 215.68711 89.906656 215.84212 89.792967 216.00749 89.689616 C 216.1315 89.606934 216.26588 89.524252 216.38989 89.451904 C 216.54491 89.358887 216.69995 89.265869 216.86532 89.183187 C 217.01002 89.100505 217.16503 89.038493 217.30973 88.966146 C 217.46475 88.893798 217.61978 88.821453 217.77482 88.75944 C 217.94019 88.687093 218.10557 88.635415 218.28125 88.573405 C 218.42595 88.521727 218.57065 88.459717 218.72567 88.418376 C 218.92204 88.356363 219.11841 88.315022 219.31478 88.263346 C 219.44913 88.222005 219.5835 88.190997 219.71785 88.159993 C 219.95558 88.108315 220.19329 88.077312 220.43099 88.046305 C 220.53436 88.025633 220.63769 88.004974 220.75138 87.994629 C 221.10278 87.963614 221.45418 87.942952 221.81592 87.942952 C 221.88828 87.942952 221.96062 87.953288 222.03296 87.953288 C 222.62208 87.963622 223.20086 88.025634 223.76929 88.128988 C 226.83887 86.340986 230.3322 84.739015 233.19507 84.635661 C 232.90569 82.826989 232.75065 80.935627 232.75065 78.961589 C 232.75065 63.737728 241.74235 53.102702 254.63045 53.102702 L 273.71973 53.102702 C 275.11498 53.102702 276.24154 54.229249 276.24154 55.624512 L 276.24154 66.342204 C 276.24154 67.737467 275.11498 68.864014 273.71973 68.864014 L 257.94808 68.864014 C 256.43914 68.864014 251.5402 69.587493 251.5402 78.961589 C 251.5402 88.335685 256.44948 89.059163 257.94808 89.059163 L 273.71973 89.059163 C 275.11498 89.059163 276.2415 90.196046 276.22087 91.591309 L 276.22087 102.28833 C 276.22087 103.68359 275.09433 104.81014 273.69906 104.81014 L 254.60978 104.81014 C 247.33375 104.81014 241.29792 101.40983 237.4222 95.715088 C 235.85124 98.371256 233.56714 100.97575 231.50008 103.0118 C 231.32437 103.3942 231.12801 103.76628 230.91097 104.11768 C 230.9006 104.13835 230.89028 104.15902 230.87996 104.17969 C 230.00147 105.61629 228.78188 106.82552 227.3453 107.70402 C 227.31429 107.71435 227.29359 107.73502 227.27295 107.74536 C 226.18776 108.40682 224.96818 108.87191 223.67627 109.09928 C 222.8391 109.62638 222.02264 110.13281 221.23714 110.56689 C 220.1106 112.31356 218.15721 113.47111 215.93514 113.47111 C 215.4287 113.47111 214.94298 113.4091 214.47786 113.29541 C 213.63038 113.47111 212.83455 113.56413 212.09041 113.56413 C 209.5996 113.56413 207.98731 112.59261 207.06746 111.78646 C 205.80657 110.67025 205.15546 109.10962 205.21745 107.37329 C 205.24846 106.55681 205.46548 105.69897 205.83757 104.82048 L 190.66536 104.82048 C 177.78763 104.82048 168.78556 94.185449 168.78556 78.961589 C 168.78556 63.737728 177.78763 53.102702 190.66536 53.102702 z M 302.94792 56.957764 C 289.03664 56.957764 280.18962 65.101986 280.18962 79.716064 C 280.18962 94.340481 289.03664 102.47437 302.94792 102.47437 C 316.85919 102.47437 325.70622 94.340481 325.70622 79.716064 C 325.70622 65.091651 316.85919 56.957764 302.94792 56.957764 z M 105.98836 57.309163 L 105.98836 100.61401 L 115.22811 100.61401 L 115.22811 64.657552 L 126.16284 64.657552 L 130.28662 64.657552 L 130.28662 100.61401 L 139.52637 100.61401 L 139.52637 64.657552 L 145.76888 64.657552 L 147.15381 64.657552 C 151.23625 64.657552 154.58488 67.995854 154.58488 72.088623 L 154.58488 100.61401 L 163.82463 100.61401 L 163.83496 100.61401 L 163.83496 71.602865 C 163.83496 63.706714 157.4374 57.309163 149.54126 57.309163 L 145.76888 57.309163 L 139.52637 57.309163 L 130.28662 57.309163 L 126.16284 57.309163 L 115.22811 57.309163 L 105.98836 57.309163 z M 190.6757 57.309163 C 179.1312 57.309163 173.00236 67.654798 173.00236 78.961589 C 173.00236 90.268382 179.1312 100.61401 190.6757 100.61401 L 208.08032 100.61401 L 208.08032 93.27596 L 193.99333 93.27596 C 192.39136 93.27596 185.08432 92.552481 183.63737 82.640951 L 208.08032 82.640951 L 208.08032 75.292562 L 183.63737 75.292562 C 185.08432 65.381034 192.39136 64.657552 193.99333 64.657552 L 208.08032 64.657552 L 208.08032 57.309163 L 190.6757 57.309163 z M 254.63045 57.309163 C 243.08593 57.309163 236.95711 67.654798 236.95711 78.961589 C 236.95711 90.268382 243.08593 100.61401 254.63045 100.61401 L 272.03507 100.61401 L 272.03507 93.265625 L 257.94808 93.265625 C 256.16008 93.265625 247.33374 92.387113 247.33374 78.961589 C 247.33374 65.536064 256.17043 64.657552 257.94808 64.657552 L 272.03507 64.657552 L 272.03507 57.309163 L 254.63045 57.309163 z M 334.82194 57.309163 L 334.82194 100.61401 L 344.06169 100.61401 L 344.06169 64.657552 L 359.13053 64.657552 L 359.13053 100.61401 L 368.37028 100.61401 L 368.37028 64.657552 L 375.99772 64.657552 C 380.08013 64.657552 383.42879 67.995854 383.42879 72.088623 L 383.42879 100.61401 L 392.66854 100.61401 L 392.66854 71.602865 C 392.66854 63.706714 386.271 57.309163 378.37484 57.309163 L 334.82194 57.309163 z M 21.879801 57.329834 C 10.335275 57.329834 4.2064616 67.675466 4.2064616 78.982259 C 4.2064616 90.28905 10.335275 100.63468 21.879801 100.63468 L 36.659261 100.63468 L 36.659261 102.90845 C 36.659261 106.99088 33.320946 110.33952 29.22819 110.33952 L 8.226888 110.33952 L 8.226888 117.68791 L 31.615641 117.68791 C 39.511805 117.68791 45.909342 111.29036 45.909342 103.39421 L 45.909342 100.62435 L 45.909342 93.27596 L 45.909342 64.657552 L 45.899007 64.657552 L 45.899007 57.329834 L 36.659261 57.329834 L 21.879801 57.329834 z M 57.402181 57.329834 L 57.402181 64.678223 L 78.393148 64.678223 C 82.475585 64.678223 85.824219 68.016524 85.824219 72.109294 L 85.824219 75.302897 L 78.248454 75.302897 L 67.809814 75.302897 C 60.823181 75.302897 55.149089 80.966642 55.149089 87.963623 C 55.149089 94.95027 60.812836 100.62435 67.809814 100.62435 L 85.834554 100.62435 L 95.0743 100.62435 L 95.0743 93.27596 L 95.0743 82.640951 L 95.0743 75.292562 L 95.084635 75.292562 L 95.084635 71.623535 C 95.084635 63.727384 88.687098 57.329834 80.790934 57.329834 L 57.402181 57.329834 z M 302.94792 63.934082 C 311.65021 63.934082 315.85671 69.814871 315.86702 79.716064 C 315.86702 89.61726 311.65021 95.498047 302.94792 95.498047 C 294.24562 95.498047 290.02881 89.61726 290.02881 79.716064 C 290.02881 69.814871 294.24562 63.934082 302.94792 63.934082 z M 25.197428 64.657552 L 36.659261 64.657552 L 36.659261 93.265625 L 25.197428 93.265625 C 23.409429 93.265625 14.583089 92.387113 14.583089 78.961589 C 14.583089 65.536064 23.419774 64.657552 25.197428 64.657552 z M 302.94792 68.150879 C 300.56048 68.150879 294.23527 68.150891 294.23527 79.7264 C 294.23527 91.301909 300.56048 91.301921 302.94792 91.301921 C 305.32504 91.301921 311.65024 91.301909 311.66056 79.7264 C 311.66056 68.150891 305.33536 68.150879 302.94792 68.150879 z M 25.197428 68.864014 C 23.688485 68.864014 18.789551 69.587493 18.789551 78.961589 C 18.789551 88.335685 23.69883 89.059163 25.197428 89.059163 L 32.452799 89.059163 L 32.452799 68.864014 L 25.197428 68.864014 z M 69.649495 82.630615 L 85.824219 82.630615 L 85.824219 93.27596 L 69.63916 93.27596 C 66.734938 93.27596 64.388835 90.929849 64.388835 88.025635 L 64.388835 87.891276 C 64.388835 84.987064 66.745299 82.630615 69.649495 82.630615 z M 69.649495 86.837077 C 69.07072 86.837077 68.605632 87.302165 68.605632 87.880941 L 68.605632 88.015299 C 68.605632 88.594075 69.07072 89.059163 69.649495 89.059163 L 81.628092 89.059163 L 81.628092 86.837077 L 69.649495 86.837077 z M 233.78573 88.821452 C 231.87742 88.668844 228.38915 90.110781 224.3894 92.645508 C 223.60391 92.304444 222.73576 92.118408 221.82625 92.118408 C 218.26057 92.118408 215.3667 95.01229 215.3667 98.577962 C 215.3667 98.898354 215.39772 99.208416 215.43905 99.518473 C 211.00522 103.55957 208.34905 107.24927 209.87866 108.60319 C 210.9122 109.52303 212.61751 109.52303 214.74658 108.86157 C 215.08763 109.09928 215.50106 109.24398 215.94548 109.24398 C 216.97902 109.24398 217.84717 108.4895 218.01253 107.49731 C 219.33545 106.82552 220.7514 105.9987 222.19832 105.03752 C 222.34302 105.02718 222.47737 105.01684 222.62207 104.99618 C 222.65308 104.99618 222.69441 104.98584 222.72542 104.98584 C 222.78744 104.9755 222.8391 104.96518 222.90112 104.95483 C 222.93213 104.94452 222.97347 104.94451 223.00448 104.93416 C 223.06649 104.92382 223.11816 104.9135 223.18018 104.90316 C 223.19049 104.90316 223.21121 104.89282 223.23185 104.89282 C 223.34554 104.86182 223.46956 104.83081 223.58325 104.7998 C 223.61426 104.7998 223.63493 104.78948 223.66593 104.77913 C 223.71761 104.7688 223.77963 104.74812 223.8313 104.72746 C 223.86231 104.71712 223.89331 104.7068 223.92432 104.69645 C 223.97599 104.67578 224.03798 104.6551 224.08968 104.63444 C 224.11034 104.62412 224.13106 104.62411 224.15169 104.61377 C 224.27573 104.57243 224.3894 104.52075 224.50309 104.46908 C 224.52376 104.46908 224.53413 104.45875 224.55477 104.4484 C 224.60644 104.4174 224.66846 104.39673 224.72013 104.36572 C 224.7408 104.34505 224.77184 104.33473 224.79248 104.32438 C 224.84415 104.29338 224.90617 104.26237 224.95785 104.23136 C 224.96819 104.23136 224.98887 104.22104 224.99919 104.21069 C 225.18521 104.10734 225.36091 103.99365 225.53662 103.86963 C 225.55729 103.85929 225.56766 103.84897 225.5883 103.83862 C 225.65032 103.79728 225.70199 103.75594 225.75366 103.7146 C 225.76403 103.70428 225.77435 103.70427 225.78467 103.69393 C 225.95003 103.55957 226.12574 103.41488 226.28076 103.25985 C 226.28076 103.24953 226.29111 103.24952 226.30143 103.23918 L 226.45646 103.08415 L 226.4668 103.07381 C 226.68386 102.84644 226.88019 102.60872 227.06624 102.36068 C 227.4383 101.85425 227.72772 101.28581 227.93441 100.67603 C 232.58528 96.376551 235.90292 90.909177 235.12777 89.524251 C 234.88231 89.100505 234.42183 88.872321 233.78573 88.821452 z M 232.16722 89.914925 C 232.62811 89.925583 232.95219 90.072022 233.11239 90.371745 C 233.58782 91.239908 231.4174 94.764244 228.24447 98.092204 L 228.24447 98.071533 C 228.24447 97.988851 228.23411 97.906167 228.2238 97.833822 C 228.21348 97.81315 228.21346 97.802809 228.21346 97.782145 C 228.20309 97.699463 228.19277 97.616779 228.18245 97.544434 L 228.18245 97.513428 C 228.14113 97.255046 228.07909 97.006998 228.00675 96.758952 L 228.00675 96.748617 C 227.98606 96.686606 227.96538 96.614256 227.94474 96.552246 C 227.93437 96.531574 227.92406 96.500563 227.91374 96.479899 C 227.89307 96.417886 227.87236 96.36621 227.85173 96.304199 C 227.83103 96.273193 227.8207 96.242188 227.81038 96.211182 C 227.77937 96.159506 227.75867 96.097495 227.73804 96.045817 C 227.71737 96.014813 227.707 95.973471 227.68636 95.942464 C 227.6657 95.890788 227.63465 95.839111 227.61401 95.787435 C 227.59335 95.746094 227.57264 95.704753 227.552 95.663411 C 227.52099 95.591064 227.47967 95.518718 227.43831 95.44637 C 227.41765 95.394695 227.38664 95.343017 227.35563 95.291341 C 227.33497 95.260335 227.31426 95.218992 227.29362 95.187988 C 227.26264 95.13631 227.23161 95.084635 227.2006 95.043294 C 227.17994 95.012288 227.14889 94.970945 227.12826 94.939941 C 227.09727 94.888263 227.05591 94.836588 227.0249 94.795247 C 226.99389 94.764241 226.97319 94.733236 226.95256 94.70223 C 226.92155 94.650554 226.8802 94.609214 226.83887 94.557536 C 226.8182 94.526532 226.79749 94.495517 226.77686 94.474854 C 226.72518 94.412843 226.6735 94.350829 226.62183 94.288818 C 226.61145 94.278476 226.60114 94.268158 226.59082 94.257812 C 226.1464 93.772054 225.63996 93.358642 225.07153 93.027913 C 228.17212 91.074546 230.78456 89.88295 232.16722 89.914925 z M 215.5734 100.29362 C 215.71808 100.84139 215.93516 101.35815 216.21419 101.84391 C 216.22454 101.86458 216.24522 101.8956 216.25553 101.91626 C 216.28654 101.9576 216.30724 101.98861 216.32788 102.02995 C 216.35889 102.08162 216.38989 102.12296 216.4209 102.17464 C 216.44156 102.21598 216.47261 102.25733 216.49325 102.28833 C 216.5346 102.32967 216.56559 102.38135 216.5966 102.42269 C 216.61726 102.45369 216.63794 102.49504 216.66895 102.52604 C 216.69995 102.56738 216.73097 102.61906 216.7723 102.6604 C 216.80331 102.69141 216.82397 102.72241 216.85498 102.75342 C 216.89633 102.80509 216.93765 102.85677 216.979 102.89811 C 216.99967 102.91878 217.03071 102.94979 217.05135 102.98079 C 217.10302 103.03247 217.15471 103.08415 217.20638 103.13582 C 217.21673 103.15649 217.23742 103.17717 217.25806 103.19784 C 217.33039 103.27018 217.40273 103.34253 217.4751 103.40454 C 217.50611 103.42521 217.52681 103.44589 217.54744 103.46655 C 217.59912 103.50789 217.6508 103.55957 217.70247 103.60091 C 217.73348 103.62158 217.76448 103.65259 217.79549 103.67326 C 217.84716 103.7146 217.88851 103.75594 217.94019 103.78695 C 217.97119 103.80762 218.01253 103.83863 218.04354 103.85929 C 218.08489 103.8903 218.12622 103.9213 218.1779 103.95231 C 218.21925 103.97298 218.25026 104.00399 218.29159 104.02466 C 218.33294 104.05566 218.37427 104.08667 218.42594 104.11768 C 218.45695 104.13835 218.4983 104.16936 218.53963 104.19002 C 218.59131 104.22103 218.63265 104.2417 218.68433 104.27271 C 218.72565 104.29338 218.76702 104.31405 218.80835 104.33472 C 218.86002 104.35539 218.90137 104.3864 218.95304 104.40706 C 218.9944 104.42773 219.03571 104.44841 219.07707 104.46908 C 219.11839 104.48975 219.17009 104.51042 219.22176 104.53109 C 219.26312 104.54142 219.30443 104.5621 219.34578 104.58276 C 219.39746 104.60343 219.44914 104.62411 219.50081 104.64478 C 219.54214 104.65511 219.59383 104.67578 219.62484 104.71712 C 219.64555 104.71712 219.65586 104.72746 219.66618 104.72746 C 218.9427 105.15121 218.23992 105.53361 217.56812 105.87467 C 217.18571 105.39925 216.5966 105.09953 215.93514 105.09953 C 214.77759 105.09953 213.83708 106.04004 213.83708 107.19759 C 213.83708 107.26994 213.83709 107.33195 213.84741 107.4043 C 212.51418 107.7867 211.52199 107.82804 211.03621 107.45597 C 209.73399 106.46379 211.95605 103.5699 215.5734 100.29362 z " /><g
       id="g1279"
       transform="matrix(0.26458333,0,0,0.26458333,-408.0863,219.02307)">
	
	
	
	
	
	
	
	
	
	
	
	
	
	
	
	
	
	
</g></g><style
     type="text/css"
     id="style234">
	.st0{fill:#FFF800;}
	.st1{fill:#96E620;}
	.st2{fill:#FFFFFF;}
</style><style
     type="text/css"
     id="style1241">
	.st0{fill:#FFFFFF;}
</style></svg>
