<?xml version="1.0" encoding="UTF-8" standalone="no"?>
<!-- Created with Inkscape (http://www.inkscape.org/) -->

<svg
   width="1500"
   height="500"
   viewBox="0 0 396.87498 132.29167"
   version="1.1"
   id="svg5"
   inkscape:version="1.2.2 (732a01da63, 2022-12-09)"
   xml:space="preserve"
   sodipodi:docname="gb.svg"
   xmlns:inkscape="http://www.inkscape.org/namespaces/inkscape"
   xmlns:sodipodi="http://sodipodi.sourceforge.net/DTD/sodipodi-0.dtd"
   xmlns="http://www.w3.org/2000/svg"
   xmlns:svg="http://www.w3.org/2000/svg"><sodipodi:namedview
     id="namedview7"
     pagecolor="#000000"
     bordercolor="#111111"
     borderopacity="1"
     inkscape:showpageshadow="0"
     inkscape:pageopacity="0"
     inkscape:pagecheckerboard="1"
     inkscape:deskcolor="#d1d1d1"
     inkscape:document-units="mm"
     showgrid="false"
     inkscape:zoom="0.44378316"
     inkscape:cx="374.05655"
     inkscape:cy="371.8032"
     inkscape:window-width="1920"
     inkscape:window-height="1009"
     inkscape:window-x="-8"
     inkscape:window-y="-8"
     inkscape:window-maximized="1"
     inkscape:current-layer="layer1" /><defs
     id="defs2" /><g
     inkscape:label="Layer 1"
     inkscape:groupmode="layer"
     id="layer1"><path
       id="rect231"
       style="fill:#ffffff;stroke-width:0.8001;stroke-linecap:square;paint-order:fill markers stroke"
       d="M 0 0 L 0 132.29167 L 396.875 132.29167 L 396.875 32.212504 L 372.57726 70.092879 L 368.6359 99.647148 L 353.0601 99.647148 L 357.62468 65.925692 L 342.04889 32.212504 L 358.8706 32.212504 L 367.17965 51.363273 L 379.64039 32.212504 L 396.875 32.212504 L 396.875 0 L 0 0 z M 325.22666 31.58877 L 325.22718 31.58877 C 341.0055 32.214099 352.84949 44.907646 349.5244 69.050049 C 346.20208 93.19202 328.13543 101.30828 315.25776 99.64353 C 302.38219 97.978785 288.46873 87.78023 293.66011 62.59928 C 298.85142 37.415912 314.42669 31.172266 325.22666 31.58877 z M 46.016829 31.799093 C 52.188966 31.695759 57.739597 32.521339 61.68564 33.873901 L 59.399475 48.234265 C 35.725313 40.534198 15.78859 54.477981 15.171167 69.461393 C 14.548844 84.446913 28.461897 85.695028 30.330965 85.695028 C 32.200033 85.695028 36.975421 85.485601 39.052397 84.238269 L 39.88387 79.660254 L 28.045317 79.660254 L 29.915487 66.340137 L 56.916423 66.340137 L 54.00859 88.19255 L 76.229972 32.209403 L 96.16674 32.209403 L 103.02059 87.569332 L 121.29492 32.209403 L 137.28516 32.209403 L 142.68586 67.796379 L 156.60233 32.209403 L 174.46274 32.209403 L 178.61649 99.640946 L 163.66495 99.640946 L 161.17207 60.930648 L 146.22002 99.640946 L 132.72161 99.640946 L 126.90492 63.011141 L 115.0674 99.640946 L 89.524768 99.640946 L 87.030863 79.660771 L 72.909762 79.660771 L 72.899943 79.660771 L 65.215658 99.640946 L 49.432125 99.640946 L 50.469788 96.51814 C 47.355375 98.183587 38.632162 101.09842 30.947982 100.68171 C 17.657997 100.88866 -2.2784837 90.482076 0.2129069 68.629919 C 3.3887471 40.77594 27.500421 32.109094 46.016829 31.799093 z M 188.58229 32.212504 L 227.8326 32.212504 L 225.54334 47.196602 L 201.87553 47.196602 L 200.41981 58.021265 L 220.76947 58.021265 L 218.69053 73.006396 L 198.13778 73.006396 L 196.68153 84.655298 L 220.35658 84.655298 L 218.27712 99.647148 L 179.2366 99.647148 L 188.58229 32.212504 z M 247.76937 32.214571 L 276.42705 32.214571 C 283.2824 32.214571 293.24922 40.123924 292.00388 50.737472 C 290.75853 61.351722 287.43492 61.975816 285.15004 63.64056 C 288.68167 66.760292 292.21174 71.756152 290.75848 81.121663 C 289.30383 90.488576 281.61969 99.644047 268.1211 99.644047 L 238.42627 99.645081 L 238.42421 99.645081 L 247.76937 32.214571 z M 323.5694 45.949133 C 318.99766 45.742446 310.48796 50.322692 308.19928 66.343754 C 305.91439 82.370353 314.01336 85.074193 317.9594 85.490906 C 321.90615 85.907618 332.70486 83.826041 334.98834 66.343754 C 337.27308 48.864683 327.9302 45.949502 323.5694 45.949133 z M 261.05435 47.198669 L 259.60534 58.021265 L 268.32264 58.021265 C 274.76077 58.021265 276.00731 53.858607 276.21311 52.195264 C 276.42102 50.529118 274.55331 47.198669 271.23099 47.198669 L 261.05435 47.198669 z M 83.708586 52.398352 L 78.517171 66.340653 L 78.517688 66.340653 L 85.371016 66.340653 L 83.708586 52.398352 z M 257.52433 73.006396 L 255.865 84.659432 L 267.70046 84.659432 C 274.13718 84.659432 275.59062 79.665337 275.79712 77.99989 C 276.00643 76.335145 274.13731 73.006396 270.81499 73.006396 L 257.52433 73.006396 z " /><g
       id="g4"
       fill="#ffffff"
       transform="matrix(0.12320455,0,0,0.12347046,59.872358,187.08317)" /></g><style
     type="text/css"
     id="style234">
	.st0{fill:#FFF800;}
	.st1{fill:#96E620;}
	.st2{fill:#FFFFFF;}
</style><style
     type="text/css"
     id="style1241">
	.st0{fill:#FFFFFF;}
</style></svg>
