<?xml version="1.0" encoding="UTF-8" standalone="no"?>
<!-- Created with Inkscape (http://www.inkscape.org/) -->

<svg
   width="1500"
   height="500"
   viewBox="0 0 396.87498 132.29167"
   version="1.1"
   id="svg5"
   inkscape:version="1.2.2 (732a01da63, 2022-12-09)"
   xml:space="preserve"
   sodipodi:docname="gba.svg"
   xmlns:inkscape="http://www.inkscape.org/namespaces/inkscape"
   xmlns:sodipodi="http://sodipodi.sourceforge.net/DTD/sodipodi-0.dtd"
   xmlns="http://www.w3.org/2000/svg"
   xmlns:svg="http://www.w3.org/2000/svg"><sodipodi:namedview
     id="namedview7"
     pagecolor="#000000"
     bordercolor="#111111"
     borderopacity="1"
     inkscape:showpageshadow="0"
     inkscape:pageopacity="0"
     inkscape:pagecheckerboard="1"
     inkscape:deskcolor="#d1d1d1"
     inkscape:document-units="mm"
     showgrid="false"
     inkscape:zoom="0.44378316"
     inkscape:cx="374.05655"
     inkscape:cy="371.8032"
     inkscape:window-width="1920"
     inkscape:window-height="1009"
     inkscape:window-x="-8"
     inkscape:window-y="-8"
     inkscape:window-maximized="1"
     inkscape:current-layer="layer1" /><defs
     id="defs2" /><g
     inkscape:label="Layer 1"
     inkscape:groupmode="layer"
     id="layer1"><path
       id="rect231"
       style="fill:#ffffff;stroke-width:0.8001;stroke-linecap:square;paint-order:fill markers stroke"
       d="M 0 0 L 0 132.29167 L 396.875 132.29167 L 396.875 11.912451 L 372.57674 49.519975 L 368.6359 78.859269 L 353.0601 78.859269 L 357.6252 45.382243 L 342.04941 11.912451 L 358.87008 11.912451 L 367.18069 30.924727 L 379.63988 11.912451 L 396.875 11.912451 L 396.875 0 L 0 0 z M 325.22718 11.293884 C 341.0056 11.91381 352.85103 24.516315 349.52389 48.485413 C 346.20338 72.451881 328.13473 80.509537 315.25879 78.857719 C 302.3815 77.203272 288.47001 67.077958 293.66115 42.079602 C 298.85228 17.07861 314.4282 10.879286 325.22718 11.293884 z M 46.017863 11.503174 C 52.189911 11.40045 57.740227 12.219451 61.686157 13.561963 L 59.399992 27.818974 C 35.725074 20.174554 15.789775 34.017865 15.17065 48.892106 C 14.54888 63.770295 28.463523 65.008952 30.331482 65.008952 C 32.200761 65.008952 36.976224 64.801061 39.05188 63.562528 L 39.884387 59.016553 L 28.045317 59.016553 L 29.916003 45.795138 L 56.916939 45.795138 L 54.009106 67.487354 L 76.231523 11.909867 L 96.167773 11.909867 L 103.02059 66.870337 L 121.29647 11.909867 L 137.28671 11.909867 L 142.6869 47.240527 L 156.60284 11.909867 L 174.46325 11.909867 L 178.61597 78.854102 L 163.66546 78.854102 L 161.17311 40.423889 L 146.22157 78.854102 L 132.7211 78.854102 L 126.90595 42.488879 L 115.06688 78.854102 L 89.525285 78.854102 L 87.030347 59.019137 L 72.910795 59.019137 L 72.90046 59.019137 L 65.216691 78.854102 L 49.433158 78.854102 L 50.470304 75.754549 C 47.357481 77.408996 38.632516 80.301947 30.949015 79.888664 C 17.660316 80.092672 -2.277339 69.761843 0.21239014 48.0658 C 3.3893764 20.414995 27.50172 11.811346 46.017863 11.503174 z M 188.5828 11.912451 L 227.83364 11.912451 L 225.54541 26.788029 L 201.87708 26.788029 L 200.42032 37.53466 L 220.76947 37.53466 L 218.69104 52.410238 L 198.13674 52.410238 L 196.68153 63.976973 L 220.35554 63.976973 L 218.27815 78.859269 L 179.23764 78.859269 L 188.5828 11.912451 z M 247.77041 11.914001 L 276.42705 11.914001 C 283.28239 11.914001 293.24927 19.767775 292.0044 30.302543 C 290.7582 40.841261 287.43523 41.462346 285.15055 43.114164 C 288.68273 46.211153 292.21103 51.169277 290.75848 60.468144 C 289.30327 69.768329 281.61956 78.857719 268.12317 78.857719 L 238.42524 78.857719 L 238.42369 78.857719 L 247.77041 11.914001 z M 323.57146 25.550895 C 318.999 25.344263 310.48812 29.892728 308.19979 45.796688 C 305.91512 61.708085 314.01257 64.391497 317.96147 64.807414 C 321.90641 65.219381 332.7055 63.153258 334.98885 45.796688 C 337.27321 28.446489 327.93259 25.551703 323.57146 25.550895 z M 261.05642 26.790613 L 259.60638 37.53466 L 268.32419 37.53466 C 274.76019 37.53466 276.00806 33.401816 276.21311 31.75 C 276.42083 30.096866 274.55253 26.790613 271.23202 26.790613 L 261.05642 26.790613 z M 83.709619 31.953088 L 78.517171 45.795138 L 78.518722 45.795138 L 85.372567 45.795138 L 83.709619 31.953088 z M 257.52537 52.410238 L 255.865 63.981108 L 267.70149 63.981108 C 274.13747 63.981108 275.59098 59.023041 275.79867 57.368591 C 276.00636 55.716776 274.13734 52.410238 270.81551 52.410238 L 257.52537 52.410238 z M 271.10232 86.147196 L 291.62251 86.147196 C 295.37695 86.147196 297.74199 86.796109 299.08872 88.134672 C 300.43545 89.232371 301.21107 91.506726 301.21107 94.915653 L 301.21107 99.015145 L 291.13417 99.015145 L 291.13417 94.266597 L 271.63148 94.266597 L 271.63148 112.49029 L 291.13417 112.49029 L 291.13417 107.13351 L 301.21107 107.29423 L 301.21107 112.12442 C 301.21107 115.45306 300.43413 117.72751 299.08872 118.98447 C 297.74199 120.24406 295.17322 120.89288 291.62251 120.89288 L 271.10232 120.89288 C 267.50928 120.89288 265.06343 120.24406 263.71672 118.98447 C 262.32896 117.72619 261.59592 115.45306 261.59592 112.12442 L 261.59592 94.915653 C 261.59592 91.667303 262.32879 89.39558 263.75754 88.134672 C 265.10295 86.79874 267.55161 86.189315 271.10232 86.147196 z M 73.070992 86.189054 L 81.881824 86.189054 L 99.424939 115.08755 L 99.424939 86.229879 L 122.55738 86.229879 C 129.53312 86.229879 134.87921 87.93438 138.58999 91.42491 L 135.40827 86.229879 L 146.91248 86.229879 L 160.21141 108.95924 L 172.82046 86.232463 L 183.50973 86.232463 L 163.3151 120.93629 L 156.58269 120.93629 L 142.54944 97.921672 C 143.07993 99.666939 143.32562 101.53332 143.32562 103.5234 C 143.32562 115.09006 135.69543 120.93525 120.47792 120.93525 L 102.89501 120.93525 L 102.89501 121.0169 L 91.635234 121.0169 L 77.027856 95.281523 L 66.950952 113.26337 L 77.027856 113.26337 L 77.027856 120.97453 L 52.303784 120.97453 L 73.070992 86.189054 z M 189.54709 86.189054 L 198.40029 86.189054 L 215.94082 115.04776 L 215.94082 86.189054 L 222.7554 86.189054 L 249.39615 106.92836 L 249.39615 86.189054 L 258.53461 86.189054 L 258.53461 120.89185 L 251.68231 120.89185 L 225.28599 99.907597 L 225.28599 120.89185 L 219.49151 120.89185 L 219.49151 120.97349 L 208.11029 120.97349 L 193.5055 95.240698 L 183.59138 113.13935 L 193.58457 113.13935 L 193.58457 120.89185 L 179.30637 120.89185 L 179.30637 120.97349 L 168.86101 120.97349 L 189.54709 86.189054 z M 304.55505 86.189054 L 341.8427 86.189054 L 341.8427 94.061442 L 314.63196 94.061442 L 314.63196 99.055969 L 330.58344 99.055969 L 330.58344 106.68599 L 314.63196 106.68599 L 314.63196 112.85513 L 342.29125 112.85513 L 342.29125 120.89185 L 304.55505 120.89185 L 304.55505 86.189054 z M 109.42071 94.061442 L 109.42071 112.8143 L 118.76329 112.8143 C 124.06687 112.8143 127.85952 112.1248 129.85977 110.70332 C 131.94204 109.32527 133.04149 106.686 133.04149 103.07174 C 133.04149 97.065978 129.53297 94.061442 122.64058 94.061442 L 109.42071 94.061442 z " /><g
       transform="matrix(0.2328336,0,0,0.23164932,-78.447647,163.24071)"
       id="g1401" /></g><style
     type="text/css"
     id="style234">
	.st0{fill:#FFF800;}
	.st1{fill:#96E620;}
	.st2{fill:#FFFFFF;}
</style><style
     type="text/css"
     id="style1241">
	.st0{fill:#FFFFFF;}
</style></svg>
