<?xml version="1.0" encoding="UTF-8" standalone="no"?>
<!-- Created with Inkscape (http://www.inkscape.org/) -->

<svg
   width="1500"
   height="500"
   viewBox="0 0 396.87498 132.29167"
   version="1.1"
   id="svg5"
   inkscape:version="1.2.2 (732a01da63, 2022-12-09)"
   xml:space="preserve"
   sodipodi:docname="gbc.svg"
   xmlns:inkscape="http://www.inkscape.org/namespaces/inkscape"
   xmlns:sodipodi="http://sodipodi.sourceforge.net/DTD/sodipodi-0.dtd"
   xmlns="http://www.w3.org/2000/svg"
   xmlns:svg="http://www.w3.org/2000/svg"><sodipodi:namedview
     id="namedview7"
     pagecolor="#000000"
     bordercolor="#111111"
     borderopacity="1"
     inkscape:showpageshadow="0"
     inkscape:pageopacity="0"
     inkscape:pagecheckerboard="1"
     inkscape:deskcolor="#d1d1d1"
     inkscape:document-units="mm"
     showgrid="false"
     inkscape:zoom="0.44378316"
     inkscape:cx="374.05655"
     inkscape:cy="371.8032"
     inkscape:window-width="1920"
     inkscape:window-height="1009"
     inkscape:window-x="-8"
     inkscape:window-y="-8"
     inkscape:window-maximized="1"
     inkscape:current-layer="layer1" /><defs
     id="defs2" /><g
     inkscape:label="Layer 1"
     inkscape:groupmode="layer"
     id="layer1"><path
       id="rect231"
       style="fill:#ffffff;stroke-width:0.8001;stroke-linecap:square;paint-order:fill markers stroke"
       d="M 0 0 L 0 132.29167 L 396.875 132.29167 L 396.875 11.912451 L 372.57674 49.510156 L 368.6359 78.841699 L 353.0601 78.841699 L 357.6252 45.372941 L 342.04941 11.912451 L 358.87008 11.912451 L 367.18069 30.91956 L 379.63988 11.912451 L 396.875 11.912451 L 396.875 0 L 0 0 z M 325.22718 11.293884 C 341.0056 11.913646 352.85103 24.512738 349.52389 48.475594 C 346.20338 72.435821 328.13473 80.491537 315.25879 78.840149 C 302.3815 77.186133 288.47001 67.063697 293.66115 42.071851 C 298.85228 17.077371 314.4282 10.879391 325.22718 11.293884 z M 46.017863 11.502657 C 52.18991 11.39996 57.740227 12.218767 61.686157 13.560929 L 59.399992 27.814323 C 35.725074 20.171894 15.789775 34.01192 15.17065 48.882288 C 14.548879 63.756602 28.463523 64.994999 30.331482 64.994999 C 32.200761 64.994999 36.976224 64.787303 39.05188 63.549093 L 39.884387 59.00415 L 28.045317 59.00415 L 29.916003 45.786353 L 56.916939 45.786353 L 54.009106 67.472884 L 76.231523 11.909867 L 96.167773 11.909867 L 103.02059 66.855351 L 121.29647 11.909867 L 137.28671 11.909867 L 142.6869 47.231226 L 156.60284 11.909867 L 174.46325 11.909867 L 178.61597 78.836532 L 163.66546 78.836532 L 161.17311 40.416138 L 146.22157 78.836532 L 132.7211 78.836532 L 126.90595 42.480611 L 115.06688 78.836532 L 89.525285 78.836532 L 87.030347 59.006734 L 72.910795 59.006734 L 72.90046 59.006734 L 65.216691 78.836532 L 49.433158 78.836532 L 50.470304 75.737496 C 47.357481 77.391512 38.632516 80.283752 30.949015 79.870577 C 17.660319 80.074533 -2.2773392 69.746375 0.21239014 48.055981 C 3.3893748 20.412377 27.50172 11.810749 46.017863 11.502657 z M 188.5828 11.912451 L 227.83364 11.912451 L 225.54541 26.783895 L 201.87708 26.783895 L 200.42032 37.527942 L 220.76947 37.527942 L 218.69104 52.399902 L 198.13674 52.399902 L 196.68153 63.963538 L 220.35554 63.963538 L 218.27867 78.841699 L 179.23764 78.841699 L 188.5828 11.912451 z M 247.77041 11.913485 L 276.42705 11.913485 C 283.28239 11.913485 293.24927 19.765351 292.0044 30.297375 C 290.7582 40.833349 287.43523 41.454508 285.15055 43.105896 C 288.68273 46.202078 292.21103 51.158779 290.75848 60.455225 C 289.30327 69.752988 281.61956 78.840149 268.12317 78.840149 L 238.42524 78.840149 L 238.42369 78.840149 L 247.77041 11.913485 z M 323.57146 25.547278 C 318.999 25.3407 310.48812 29.887567 308.19979 45.787386 C 305.91512 61.69464 314.01257 64.377653 317.96147 64.793461 C 321.90641 65.205321 332.7055 63.139436 334.98885 45.787386 C 337.27321 28.441705 327.93259 25.548086 323.57146 25.547278 z M 261.05642 26.786479 L 259.60638 37.527942 L 268.32419 37.527942 C 274.76019 37.527942 276.00806 33.396218 276.21311 31.744832 C 276.42083 30.092132 274.55253 26.786479 271.23202 26.786479 L 261.05642 26.786479 z M 83.709619 31.947404 L 78.517171 45.786353 L 78.518722 45.786353 L 85.372567 45.786353 L 83.709619 31.947404 z M 257.52537 52.399902 L 255.865 63.967155 L 267.70149 63.967155 C 274.13747 63.967155 275.59098 59.010724 275.79867 57.356706 C 276.00636 55.70532 274.13734 52.399902 270.81551 52.399902 L 257.52537 52.399902 z M 158.5867 86.14978 C 159.18637 86.163237 159.81795 86.222369 160.47858 86.340466 C 162.24202 86.747062 166.44369 87.341898 166.9464 91.677608 C 167.16336 96.956778 162.7818 96.664901 162.7818 96.664901 C 162.7818 96.664901 159.74302 96.684419 159.20062 93.565865 C 158.32749 93.104003 157.40176 93.45011 157.40176 93.45011 C 157.40176 93.45011 153.68151 94.413512 150.31072 99.788741 C 147.58154 104.14156 147.73258 107.36141 147.73258 107.36141 C 147.73258 107.36141 147.58169 112.21652 152.11268 113.00602 C 155.03765 113.62184 160.65583 113.08405 160.65583 113.08405 C 160.65583 113.08405 162.63883 112.74098 164.37136 113.25459 C 162.16438 109.74587 163.55849 105.32019 163.55849 105.32019 C 163.55849 105.32019 164.60643 100.23194 168.24709 96.747583 C 170.53309 94.240899 173.57442 93.028947 173.57442 93.028947 C 173.57442 93.028947 176.9226 91.15918 181.18636 92.046061 C 186.16582 93.164528 188.69908 96.435974 188.69908 96.435974 C 188.69908 96.435974 190.38739 98.270353 191.02503 100.19543 L 191.02503 100.19233 C 191.10044 97.66986 190.4814 96.129016 190.4814 96.129016 L 189.20344 92.523551 C 189.20344 92.523551 188.05901 89.848723 190.51964 87.649947 C 191.5449 87.036763 193.32829 85.936758 195.88417 88.500024 C 198.05375 90.886968 198.22718 94.91462 198.22718 94.91462 C 198.22718 94.91462 198.57888 98.325447 198.49951 102.50589 C 198.36722 104.87441 198.82884 110.7905 199.04315 111.09709 C 199.60539 111.11683 203.24496 109.78761 203.24496 109.78761 C 203.24496 109.78761 205.85776 109.12303 207.48759 109.47962 C 207.48801 109.47971 207.48821 109.48005 207.48863 109.48014 L 207.48863 109.47962 C 206.40384 104.29651 209.13556 100.02025 209.13556 100.02025 C 209.13556 100.02025 211.79065 94.182855 219.42123 92.735425 C 223.48788 92.197245 225.38624 92.835677 225.38624 92.835677 C 225.38624 92.835677 231.35406 93.66463 234.74071 99.172758 L 234.75105 99.210999 C 234.74822 99.197789 234.74769 99.183364 234.74484 99.170174 C 234.27522 97.00824 234.06737 96.551729 234.06737 96.551729 C 234.06737 96.551729 233.01989 93.698703 234.7066 91.523612 C 238.36579 87.032631 243.98252 87.416886 243.98252 87.416886 C 243.98252 87.416886 247.93293 86.994415 252.17686 89.055029 C 253.85959 89.807693 255.8557 91.233191 255.8557 91.233191 C 255.8557 91.233191 259.0532 92.888087 257.92741 97.109318 C 257.11647 100.94369 253.31735 103.4495 253.31735 103.4495 C 253.31735 103.4495 251.99946 104.46792 249.27161 105.95219 C 253.33825 109.26549 259.34024 114.08244 259.34024 114.08244 C 259.34024 114.08244 260.96638 115.10371 260.54172 117.18406 C 260.19247 118.9394 258.82038 119.9379 258.82038 119.9379 C 258.82038 119.9379 257.73581 121.00023 256.55178 120.97918 C 255.08069 121.15287 254.67334 120.67222 254.67334 120.67222 C 254.67334 120.67222 254.19041 120.40138 252.27349 118.89869 C 250.43068 117.37757 247.29395 114.75785 247.29395 114.75785 L 242.97328 111.25212 C 242.97328 111.25212 243.04884 115.54824 242.85701 116.47196 C 242.7988 117.64701 242.39108 120.40396 239.06396 120.42107 C 234.21679 119.73026 234.66526 115.56711 234.66526 115.56711 C 234.66526 115.56711 234.56767 114.20102 235.22647 112.7957 C 235.70998 112.04411 235.59422 108.9747 235.59389 108.96596 C 235.59066 108.97393 234.08069 112.70101 230.59988 115.24051 C 226.24217 118.61302 221.47434 119.07645 221.47434 119.07645 C 221.47434 119.07645 217.69894 119.92369 214.44324 118.46047 C 214.28978 118.32362 213.28313 118.32365 210.82382 116.03013 L 210.82124 116.02548 C 210.82062 116.02635 210.82031 116.02926 210.81969 116.03013 C 210.13177 116.99596 209.11333 117.14996 209.11333 117.14996 C 209.11333 117.14996 208.16586 117.6089 205.53061 117.86154 C 204.40745 117.95628 203.28423 118.20777 203.28423 118.20777 C 203.28423 118.20777 201.92853 118.63159 200.90195 119.11056 C 199.87537 119.59347 197.45573 120.8093 194.99378 120.40402 C 192.59137 119.9619 192.49626 117.47603 192.49626 117.47603 C 192.49626 117.47603 191.56876 109.84566 191.56712 108.69827 C 190.20923 114.24089 185.27448 116.95514 185.27448 116.95514 C 185.27448 116.95514 183.10471 118.41958 180.12286 119.01961 C 176.71105 119.90386 173.78733 119.2475 173.78733 119.2475 C 173.78733 119.2475 170.16495 118.96174 166.77432 116.14847 L 166.77328 116.14692 C 166.96434 118.36209 165.01112 119.63301 165.01112 119.63301 C 165.01112 119.63301 164.17894 120.53927 162.43401 120.40505 C 159.23917 120.57743 155.07477 120.63708 155.07477 120.63708 C 155.07477 120.63708 150.77529 120.65553 147.8318 119.44232 C 142.9886 117.5554 141.45907 112.94711 141.45907 112.94711 C 141.45907 112.94711 140.4509 111.00108 140.52631 108.32465 C 140.39269 104.89293 140.73973 104.12439 140.73973 104.12439 C 140.73973 104.12439 141.08749 100.8846 143.97674 96.762052 C 148.21801 90.115719 151.76076 88.210636 151.76076 88.210636 C 151.76076 88.210636 154.38904 86.055584 158.5867 86.14978 z M 244.54321 95.370406 C 243.47314 95.358399 242.58726 95.377641 242.58726 95.377641 L 242.95468 100.40576 C 242.95468 100.40576 245.64969 99.981837 248.04946 98.826526 C 250.25609 97.825166 250.35268 96.804427 250.35268 96.804427 C 250.35268 96.804427 250.50995 95.992599 247.60349 95.55179 C 246.86728 95.426127 245.61328 95.382413 244.54321 95.370406 z M 180.25618 99.096277 C 180.25618 99.096277 176.94378 98.693993 173.76614 101.34937 C 170.62818 104.20212 171.32649 107.47716 171.32649 107.47716 C 171.32649 107.47716 171.92617 111.92741 177.02072 112.44585 C 181.35856 112.85245 183.33196 109.42174 183.33196 109.42174 C 183.33196 109.42174 185.09812 107.63095 183.62703 102.96891 C 182.48139 99.306911 180.25618 99.096277 180.25618 99.096277 z M 222.15181 99.7505 C 219.82745 99.575493 217.96861 100.71375 217.96861 100.71375 C 217.96861 100.71375 214.43956 102.54383 214.67372 106.06898 C 215.00445 109.11253 216.53355 110.11524 216.53355 110.11524 C 216.53355 110.11524 219.98498 113.69997 225.46582 110.4222 C 229.39489 107.90104 228.75451 103.92957 228.75451 103.92957 C 228.75451 103.92957 228.87088 102.7556 227.09156 101.15817 C 225.20904 99.769942 224.47485 99.922877 222.15181 99.7505 z " /><g
       transform="matrix(0.2328336,0,0,0.231589,-8.692297,193.64688)"
       id="g1992" /></g><style
     type="text/css"
     id="style234">
	.st0{fill:#FFF800;}
	.st1{fill:#96E620;}
	.st2{fill:#FFFFFF;}
</style><style
     type="text/css"
     id="style1241">
	.st0{fill:#FFFFFF;}
</style></svg>
