<?xml version="1.0" encoding="UTF-8" standalone="no"?>
<!-- Created with Inkscape (http://www.inkscape.org/) -->

<svg
   width="1500"
   height="500"
   viewBox="0 0 396.87498 132.29167"
   version="1.1"
   id="svg5"
   inkscape:version="1.2.2 (732a01da63, 2022-12-09)"
   xml:space="preserve"
   sodipodi:docname="gc.svg"
   xmlns:inkscape="http://www.inkscape.org/namespaces/inkscape"
   xmlns:sodipodi="http://sodipodi.sourceforge.net/DTD/sodipodi-0.dtd"
   xmlns="http://www.w3.org/2000/svg"
   xmlns:svg="http://www.w3.org/2000/svg"><sodipodi:namedview
     id="namedview7"
     pagecolor="#000000"
     bordercolor="#111111"
     borderopacity="1"
     inkscape:showpageshadow="0"
     inkscape:pageopacity="0"
     inkscape:pagecheckerboard="1"
     inkscape:deskcolor="#d1d1d1"
     inkscape:document-units="mm"
     showgrid="false"
     inkscape:zoom="0.44378316"
     inkscape:cx="374.05655"
     inkscape:cy="371.8032"
     inkscape:window-width="1920"
     inkscape:window-height="1009"
     inkscape:window-x="-8"
     inkscape:window-y="-8"
     inkscape:window-maximized="1"
     inkscape:current-layer="layer1" /><defs
     id="defs2" /><g
     inkscape:label="Layer 1"
     inkscape:groupmode="layer"
     id="layer1"><path
       id="rect231"
       style="fill:#ffffff;stroke-width:0.8001;stroke-linecap:square;paint-order:fill markers stroke"
       d="M 0 0 L 0 74.815588 C 0 69.983942 3.1449395 66.832613 7.2429687 66.832613 L 47.806901 66.832613 L 47.806901 75.628975 L 11.479403 75.628975 L 11.479403 98.092721 L 37.949622 98.092721 L 37.949622 91.867778 L 22.688021 91.867778 L 22.688021 82.462667 L 48.481795 82.462667 L 48.481795 99.615625 C 48.370551 102.48996 42.63681 108.23887 39.433252 108.23887 L 9.8769165 108.23887 C 5.7127389 108.23887 0 102.51693 0 99.629061 L 0 132.29167 L 396.875 132.29167 L 396.875 107.74536 L 354.69049 107.74536 L 354.69049 66.241951 L 396.06471 66.241951 L 396.06471 75.222799 L 365.22422 75.222799 L 365.22422 81.718526 L 383.05052 81.718526 L 383.05052 90.699373 L 365.22422 90.699373 L 365.22422 97.904618 L 396.875 97.904618 L 396.875 0 L 0 0 z M 370.92361 24.052795 L 382.26607 24.052795 C 387.02246 24.051208 389.59896 26.625063 389.59896 31.381547 L 389.59896 47.57229 C 389.59896 52.238572 386.09771 55.73975 380.73387 55.73975 L 380.66927 55.73975 L 372.58449 55.73975 L 372.51835 55.73975 C 367.33342 55.73975 363.89807 52.483848 363.66204 48.059599 C 363.65463 47.89724 363.65481 47.734649 363.65481 47.57229 L 363.65481 31.383097 L 363.65481 30.49943 C 363.65481 27.398096 366.99244 24.052795 370.92361 24.052795 z M 8.7493368 24.075533 L 16.801042 24.075533 L 26.524479 42.645976 L 26.524479 24.075533 L 33.006771 24.075533 L 33.006771 54.87572 L 26.574089 54.87572 L 14.419792 32.244543 L 14.419792 54.87572 L 8.7493368 54.87572 L 8.7493368 24.075533 z M 66.266239 24.075533 L 72.735095 24.075533 L 72.735095 54.87572 L 66.266239 54.87572 L 66.266239 24.075533 z M 105.97338 24.075533 L 114.02767 24.075533 L 123.75007 42.645976 L 123.75007 24.075533 L 130.23236 24.075533 L 130.23236 54.87572 L 123.79968 54.87572 L 111.64538 32.244543 L 111.64538 54.87572 L 105.97338 54.87572 L 105.97338 24.075533 z M 212.9069 24.075533 L 230.76628 24.075533 L 230.76628 28.946554 L 216.18112 28.946554 C 214.6282 28.946554 212.94152 30.637455 212.94152 31.432707 L 212.94152 35.424194 L 212.94152 36.252568 L 230.76628 36.252568 L 230.76628 41.124622 L 212.94152 41.124622 L 212.94152 47.620349 C 212.94152 48.317885 214.65201 50.030538 215.34655 50.030538 L 230.76628 50.030538 L 230.76628 54.94445 L 212.94152 54.94445 C 209.60718 54.94445 207.25143 52.073257 207.25143 49.244023 L 207.25143 29.742887 C 207.25143 26.19958 209.36961 24.075533 212.9069 24.075533 z M 312.60676 24.075533 L 328.76288 24.075533 C 333.78546 24.075533 336.96341 27.257913 336.96341 29.759424 L 336.96341 49.292082 C 336.96341 50.769839 332.79932 54.9429 330.385 54.9429 L 312.60676 54.9429 L 312.60676 24.075533 z M 155.02465 24.484294 L 180.95226 24.484294 L 180.95226 29.355314 L 171.29652 29.355314 L 171.29652 55.284481 L 164.74653 55.284481 L 164.74653 29.355314 L 155.02465 29.355314 L 155.02465 24.484294 z M 257.9057 24.484294 L 265.95741 24.484294 L 275.68085 43.054736 L 275.68085 24.484294 L 282.16159 24.484294 L 282.16159 55.284481 L 275.73046 55.284481 L 263.57616 32.654854 L 263.57616 55.284481 L 257.9057 55.284481 L 257.9057 24.484294 z M 373.40201 28.922266 C 371.73334 28.922266 370.11126 30.547351 370.11126 32.064193 L 370.11126 46.8328 C 370.11126 49.144896 370.99544 50.031571 372.56641 50.031571 L 379.88431 50.031571 C 381.45678 50.031571 383.07584 48.406771 383.07584 46.8328 L 383.07584 32.194934 C 383.07584 31.001305 381.00127 28.922266 379.8347 28.922266 L 373.40201 28.922266 z M 318.27721 28.946554 L 318.27721 50.867696 L 328.00065 50.867696 C 328.99736 50.867696 331.22526 48.633533 331.22526 47.635335 L 331.22526 31.431156 C 331.22526 30.862903 329.31435 28.946554 327.97791 28.946554 L 318.27721 28.946554 z M 255.88412 66.291561 L 255.88516 66.291561 L 267.22917 66.291561 L 267.22917 97.955778 L 290.70319 97.955778 L 290.70319 66.291561 L 302.0596 66.291561 L 302.0596 100.41713 C 302.0596 100.41713 302.78258 107.72314 292.3496 107.72314 L 264.80141 107.72314 C 264.80141 107.72314 255.88671 108.53652 255.88671 100.41713 C 255.88406 94.760158 255.88412 66.291561 255.88412 66.291561 z M 212.09972 66.294661 L 245.31836 66.294661 C 252.94769 66.294661 251.80065 73.632198 251.80065 73.632198 L 251.80065 82.563436 L 241.26848 82.563436 L 240.46129 82.561886 L 240.46129 76.034635 L 217.80479 76.034635 L 217.80479 97.921155 L 241.30465 97.921155 L 241.30465 89.871 L 251.86215 89.871 L 251.86215 102.01496 C 251.86215 108.37397 246.20099 107.59808 246.20099 107.59808 L 213.68722 107.59808 C 211.18871 107.59808 207.27262 103.67598 207.27262 99.579451 L 207.27262 70.352295 C 207.27262 67.850784 208.8255 66.294661 212.09972 66.294661 z M 306.10793 66.294661 L 345.01667 66.294661 C 348.59907 66.294661 350.67524 68.372058 350.67524 71.977002 L 350.67524 83.327214 C 350.67524 84.227696 349.44998 85.77926 346.63879 85.77926 C 346.65678 85.971684 346.63879 85.779074 346.63879 86.566809 C 348.52545 86.566809 350.67214 88.718009 350.67214 90.616691 L 350.67214 101.22845 C 350.67214 104.98522 347.91782 107.74691 339.32037 107.74691 L 306.10793 107.74691 L 306.10793 66.294661 z M 70.329557 66.344271 L 79.952226 66.344271 L 98.590365 97.853975 L 98.590365 66.344271 L 109.1737 66.344271 L 125.8347 94.606628 L 142.4466 66.344271 L 152.92917 66.344271 L 152.92917 107.59808 L 142.4466 107.59808 L 142.39544 86.640706 L 130.24115 107.59808 L 121.32799 107.59808 L 109.22331 86.587996 L 109.1737 107.59808 L 91.297786 107.59808 L 74.78665 79.333142 L 63.847266 97.853975 L 75.951953 97.855526 L 75.951953 107.59808 L 46.020964 107.59808 L 70.329557 66.344271 z M 156.82867 66.344271 L 199.06434 66.344271 L 199.06434 75.222799 L 168.27345 75.222799 L 168.27345 81.718526 L 186.1013 81.718526 L 186.1013 90.748983 L 168.27345 90.748983 L 168.27345 97.853975 L 199.06434 97.853975 L 199.06434 107.59808 L 156.82867 107.59808 L 156.82867 66.344271 z M 317.46693 74.414062 L 317.46693 81.718526 L 338.53437 81.718526 C 339.70095 81.718526 340.13996 81.279793 340.13996 80.915991 L 340.13996 76.067708 C 340.13996 74.729759 339.82422 74.414062 339.32812 74.414062 L 317.46693 74.414062 z M 317.46693 90.649764 L 317.46693 97.957328 L 338.53437 97.957328 C 339.70095 97.957328 340.13996 97.518595 340.13996 97.154793 L 340.13996 92.30651 C 340.13996 90.967059 339.82422 90.649764 339.32812 90.649764 L 317.46693 90.649764 z " /><g
       id="g2071"
       transform="matrix(0.26458333,0,0,0.26458333,-33.7326,226.30163)" /></g><style
     type="text/css"
     id="style234">
	.st0{fill:#FFF800;}
	.st1{fill:#96E620;}
	.st2{fill:#FFFFFF;}
</style><style
     type="text/css"
     id="style1241">
	.st0{fill:#FFFFFF;}
</style></svg>
