<?xml version="1.0" encoding="UTF-8" standalone="no"?>
<!-- Created with Inkscape (http://www.inkscape.org/) -->

<svg
   width="1500"
   height="500"
   viewBox="0 0 396.87498 132.29167"
   version="1.1"
   id="svg5"
   inkscape:version="1.2.2 (732a01da63, 2022-12-09)"
   xml:space="preserve"
   sodipodi:docname="genesis.svg"
   xmlns:inkscape="http://www.inkscape.org/namespaces/inkscape"
   xmlns:sodipodi="http://sodipodi.sourceforge.net/DTD/sodipodi-0.dtd"
   xmlns="http://www.w3.org/2000/svg"
   xmlns:svg="http://www.w3.org/2000/svg"><sodipodi:namedview
     id="namedview7"
     pagecolor="#000000"
     bordercolor="#111111"
     borderopacity="1"
     inkscape:showpageshadow="0"
     inkscape:pageopacity="0"
     inkscape:pagecheckerboard="1"
     inkscape:deskcolor="#d1d1d1"
     inkscape:document-units="mm"
     showgrid="false"
     inkscape:zoom="0.44378316"
     inkscape:cx="374.05655"
     inkscape:cy="371.8032"
     inkscape:window-width="1920"
     inkscape:window-height="1009"
     inkscape:window-x="-8"
     inkscape:window-y="-8"
     inkscape:window-maximized="1"
     inkscape:current-layer="layer1" /><defs
     id="defs2" /><g
     inkscape:label="Layer 1"
     inkscape:groupmode="layer"
     id="layer1"><path
       id="rect231"
       style="fill:#ffffff;stroke-width:0.8001;stroke-linecap:square;paint-order:fill markers stroke"
       d="M 0 0 L 0 62.627185 L 26.841772 47.156812 L 135.26048 47.156812 L 155.18691 18.790584 L 239.92902 18.790584 L 259.73815 47.156812 L 369.91902 47.156812 L 396.875 62.744491 L 396.875 0 L 0 0 z M 157.53095 23.478153 L 137.72183 51.843864 L 28.130066 51.843864 L 5.8601074 64.738167 L 5.8601074 95.092904 L 29.535665 108.80783 L 367.33778 108.80783 L 391.01489 95.092904 L 391.01489 64.856506 L 368.63073 51.843864 L 257.39618 51.843864 L 237.35399 23.478153 L 157.53095 23.478153 z M 229.09454 26.349296 C 231.50587 26.349296 233.55323 27.928013 234.24927 30.110824 L 241.39457 52.033516 L 227.85431 52.033516 L 227.85431 48.739661 L 236.65015 48.739661 L 230.68669 30.454989 C 230.33792 29.449271 229.71541 29.330509 229.09454 29.330509 C 228.44512 29.330509 227.84531 29.596409 227.50704 30.514933 L 220.50592 52.033516 L 205.35594 52.033516 L 205.35594 52.031966 C 201.66531 52.031966 198.67056 49.038816 198.67056 45.349687 L 198.67056 33.652209 C 198.67056 29.961577 201.66531 26.970447 205.35594 26.970447 L 217.08752 26.970447 L 217.08752 30.310811 L 205.63861 30.310811 C 203.69783 30.310811 201.9794 32.10098 201.9794 34.038749 L 201.9794 44.967798 C 201.9794 46.905567 203.69633 48.741211 205.63861 48.741211 L 213.74871 48.741211 L 213.74871 38.915454 L 207.44212 38.915454 L 207.44212 35.635551 L 217.10096 35.635551 L 217.10096 51.262504 L 223.98168 29.97078 C 224.72129 27.861633 226.72983 26.349296 229.09454 26.349296 z M 164.36051 26.935824 L 175.15107 26.935824 L 175.15882 30.30306 L 164.40547 30.30306 C 161.70251 30.30306 159.51378 32.493297 159.51378 35.194751 C 159.51378 37.894699 161.70401 40.084892 164.40547 40.084892 L 167.27506 40.097294 C 169.35715 40.097294 171.04692 41.756582 171.04692 43.838668 C 171.04692 45.917751 169.35715 47.607947 167.27506 47.607947 L 156.19873 47.607947 L 156.19873 44.384371 L 167.64816 44.384371 L 167.64816 43.273844 L 164.36051 43.273844 C 159.81449 43.312931 156.1269 39.715401 156.1269 35.167879 C 156.1269 30.621861 159.81449 26.935824 164.36051 26.935824 z M 185.02023 26.962695 L 196.28466 26.962695 L 196.28466 30.30306 L 185.2998 30.30306 C 183.36203 30.30306 181.64421 32.093745 181.64421 34.031514 L 181.64421 44.962113 C 181.64421 46.89838 183.36203 48.73501 185.2998 48.73501 L 196.28466 48.73501 L 196.28466 52.028866 L 185.02023 52.028866 C 181.3296 52.028866 178.33692 49.037218 178.33692 45.346586 L 178.33692 33.649626 C 178.33692 29.960496 181.3296 26.967346 185.02023 26.967346 L 185.02023 26.962695 z M 229.09454 30.456539 C 229.45536 30.456539 229.5018 30.53147 229.6356 30.845662 L 235.12312 47.621383 L 227.85431 47.621383 L 227.85431 44.297555 L 230.40868 44.297555 L 229.13537 40.352576 L 225.26584 52.033516 L 221.66657 52.028866 L 228.50698 30.958317 C 228.64528 30.644125 228.73225 30.456539 229.09454 30.456539 z M 185.40832 31.409452 L 196.28156 31.409452 L 196.28156 34.704858 L 186.06978 34.704858 L 186.06978 35.63245 L 194.11683 35.63245 L 194.11683 38.972815 L 182.74595 38.972815 L 182.76249 34.0434 C 182.76249 32.673881 183.94109 31.403438 185.40832 31.409452 z M 205.74351 31.409452 L 217.08752 31.409452 L 217.08752 34.704858 L 206.34658 34.704858 L 206.34658 44.383337 L 209.36345 44.383337 L 209.36345 43.277979 L 207.43953 43.277979 L 207.43953 40.013062 L 212.64542 40.013062 L 212.66351 47.606396 L 205.74351 47.606396 C 204.29131 47.62143 203.08424 46.444284 203.08424 44.959013 L 203.09768 34.0434 C 203.09768 32.673881 204.27628 31.403446 205.74351 31.409452 z M 164.40547 31.421338 L 175.15882 31.421338 L 175.15107 34.615975 L 163.9347 34.615975 L 163.9347 35.720817 L 167.29935 35.727018 C 171.84837 35.727018 175.53295 39.324689 175.53295 43.870707 C 175.53295 48.418229 171.84837 52.024215 167.29935 52.024215 L 156.19873 52.001994 L 156.19873 48.726225 L 167.27506 48.726225 C 169.97651 48.726225 172.16727 46.537538 172.16727 43.836084 C 172.16727 41.136133 169.97651 38.974365 167.27506 38.974365 L 164.40547 38.963513 C 162.32338 38.963513 160.63361 37.273739 160.63361 35.19165 C 160.63361 33.109564 162.32338 31.421338 164.40547 31.421338 z M 182.76249 40.071456 L 194.11683 40.071456 L 194.11683 43.366862 L 186.06978 43.366862 L 186.06978 44.294454 L 196.28156 44.294454 L 196.28156 47.606396 L 185.40832 47.606396 C 183.95612 47.62143 182.74595 46.444284 182.74595 44.959013 L 182.76249 40.071456 z M 41.316858 62.861796 L 83.279154 62.861796 L 70.795679 71.29849 L 43.953906 71.29849 L 43.953906 90.053935 L 63.175472 90.053935 L 63.175472 84.89766 L 47.469971 84.89766 L 60.012358 76.459416 L 78.648946 76.459416 L 78.648946 90.525741 L 66.808842 98.494763 L 28.483533 98.494763 L 28.483533 71.537236 L 41.316858 62.861796 z M 96.111446 62.861796 L 132.97586 62.861796 L 120.43348 71.29849 L 98.106156 71.29849 L 98.106156 76.459416 L 125.53291 76.459416 L 112.93368 84.89766 L 98.106156 84.89766 L 98.106156 90.053935 L 132.8012 90.053935 L 120.14202 98.494763 L 82.635783 98.494763 L 82.635783 71.126925 L 96.111446 62.861796 z M 136.43198 62.861796 L 152.13852 62.861796 L 171.12806 73.293201 L 171.12806 62.861796 L 186.6005 62.861796 L 186.6005 98.494763 L 171.12806 98.494763 L 171.12806 86.656209 L 151.90546 74.6988 L 151.90546 98.494763 L 136.43198 98.494763 L 136.43198 62.861796 z M 204.41595 62.861796 L 241.27881 62.861796 L 228.73539 71.29849 L 206.40962 71.29849 L 206.40962 76.459416 L 233.83431 76.459416 L 221.23352 84.89766 L 206.40962 84.89766 L 206.40962 90.053935 L 241.10311 90.053935 L 228.44497 98.494763 L 190.9377 98.494763 L 190.9377 71.126925 L 204.41595 62.861796 z M 252.65021 62.861796 L 290.62515 62.861796 L 278.08173 71.29849 L 255.4025 71.29849 L 255.4025 76.459416 L 289.86293 76.459416 L 289.86293 90.172791 L 277.5567 98.494763 L 239.52026 98.494763 L 252.12104 90.053935 L 274.38945 90.053935 L 274.38945 84.89766 L 239.92902 84.89766 L 239.92902 71.47419 L 252.65021 62.861796 z M 294.6709 62.861796 L 310.14128 62.861796 L 310.14128 98.494763 L 294.6709 98.494763 L 294.6709 62.861796 z M 328.83523 62.861796 L 366.81327 62.861796 L 354.26933 71.29849 L 331.59061 71.29849 L 331.59061 76.459416 L 366.05104 76.459416 L 366.05104 90.172791 L 353.74017 98.494763 L 315.70786 98.494763 L 328.30864 90.053935 L 350.57912 90.053935 L 350.57912 84.89766 L 316.11869 84.89766 L 316.11869 71.47419 L 328.83523 62.861796 z M 0 97.20647 L 0 132.29167 L 396.875 132.29167 L 396.875 97.20647 L 368.74493 113.50108 L 28.248922 113.50108 L 0 97.20647 z " /><g
       transform="matrix(0.26458333,0,0,0.26458333,-41.203317,110.33102)"
       id="g3" /></g><style
     type="text/css"
     id="style234">
	.st0{fill:#FFF800;}
	.st1{fill:#96E620;}
	.st2{fill:#FFFFFF;}
</style><style
     type="text/css"
     id="style1241">
	.st0{fill:#FFFFFF;}
</style></svg>
