<?xml version="1.0" encoding="UTF-8" standalone="no"?>
<!-- Created with Inkscape (http://www.inkscape.org/) -->

<svg
   width="1500"
   height="500"
   viewBox="0 0 396.87498 132.29167"
   version="1.1"
   id="svg5"
   inkscape:version="1.2.2 (732a01da63, 2022-12-09)"
   xml:space="preserve"
   sodipodi:docname="gmaster.svg"
   xmlns:inkscape="http://www.inkscape.org/namespaces/inkscape"
   xmlns:sodipodi="http://sodipodi.sourceforge.net/DTD/sodipodi-0.dtd"
   xmlns="http://www.w3.org/2000/svg"
   xmlns:svg="http://www.w3.org/2000/svg"><sodipodi:namedview
     id="namedview7"
     pagecolor="#000000"
     bordercolor="#111111"
     borderopacity="1"
     inkscape:showpageshadow="0"
     inkscape:pageopacity="0"
     inkscape:pagecheckerboard="1"
     inkscape:deskcolor="#d1d1d1"
     inkscape:document-units="mm"
     showgrid="false"
     inkscape:zoom="0.31380209"
     inkscape:cx="1220.5145"
     inkscape:cy="615.03734"
     inkscape:window-width="1920"
     inkscape:window-height="1009"
     inkscape:window-x="-8"
     inkscape:window-y="-8"
     inkscape:window-maximized="1"
     inkscape:current-layer="layer1" /><defs
     id="defs2">
			
			
		
				
				
				
			
				
					
				
			
					
						
					
				
			
				
			
		
				
					
				
			
			
			
			
			
			
		
			
			
			
			
			
		
			
			
			
			
				
		
			
			
				
		
			
			
			
			
				
		
		
			
		
		
		
		
		
		
		
		
		
	
		
		
		
		
		
		
		
	</defs><g
     inkscape:label="Layer 1"
     inkscape:groupmode="layer"
     id="layer1"><path
       id="rect231"
       style="fill:#ffffff;stroke-width:0.8001;stroke-linecap:square;paint-order:fill markers stroke"
       d="M 0 0 L 0 77.990588 C 0 65.236526 10.335489 54.91086 23.079211 54.91086 C 30.024702 54.91086 36.246772 57.980836 40.474015 62.828206 L 32.619198 70.683024 C 30.417734 67.820077 26.9757 65.959798 23.079211 65.959798 C 16.43344 65.959798 11.048938 71.334498 11.048938 77.980253 C 11.048938 84.626007 16.43344 90.010527 23.079211 90.010527 C 27.599057 90.010527 32.411976 87.551729 34.238737 83.675513 L 39.285457 72.967122 L 45.610653 72.977458 C 45.972417 74.589803 46.158423 76.264554 46.158423 77.990588 C 46.158423 90.734315 35.822934 101.0698 23.079211 101.0698 C 10.335489 101.0698 0 90.74465 0 77.990588 L 0 132.29167 L 396.875 132.29167 L 396.875 71.871582 C 396.875 78.626449 393.1936 84.468667 387.76703 87.668034 L 395.38672 95.281523 L 387.57273 103.09552 L 374.36423 89.886503 L 371.13962 88.739286 L 371.14996 102.41339 L 360.10102 102.41339 L 360.09068 71.881917 C 359.95582 58.608801 368.32818 53.484591 378.48801 53.484591 C 388.64787 53.484591 396.88532 61.722078 396.875 71.871582 L 396.875 0 L 0 0 z M 254.73019 29.196151 C 257.59314 29.196151 259.90812 30.146957 261.72718 31.728296 L 258.59559 35.500675 C 257.50003 34.570478 256.28051 34.0434 254.89555 34.0434 C 252.72507 34.0434 251.14384 35.718177 251.14384 37.981661 L 251.14384 38.033337 C 251.14384 40.400176 252.7871 42.022758 255.13326 42.022758 C 256.08415 42.022758 256.61119 41.87807 257.04529 41.640352 L 257.04529 39.966036 L 254.18242 39.966036 L 254.18242 36.379692 L 262.27495 36.379692 L 262.27495 44.110486 C 260.45591 45.588471 257.93421 46.62196 254.89555 46.62196 C 249.68644 46.632306 245.5106 43.139098 245.5106 37.96099 L 245.5106 37.909314 C 245.5106 32.917248 249.44871 29.196151 254.73019 29.196151 z M 158.9195 29.433862 L 164.45921 29.433862 L 171.50839 46.270561 L 165.44106 46.270561 L 164.55223 44.027804 L 158.70246 44.027804 L 157.84463 46.270561 L 151.87083 46.270561 L 158.9195 29.433862 z M 134.13497 29.557886 L 139.72635 29.557886 L 139.72635 35.459334 L 144.83199 35.459334 L 144.83199 29.557886 L 150.42389 29.557886 L 150.42389 46.270561 L 144.83199 46.270561 L 144.83199 40.276095 L 139.72635 40.276095 L 139.72635 46.270561 L 134.13497 46.270561 L 134.13497 29.557886 z M 172.945 29.557886 L 172.95533 29.557886 L 181.12021 29.557886 C 184.07619 29.557886 185.96742 30.301999 187.13535 31.469914 C 188.13788 32.472461 188.66549 33.712629 188.66549 35.428328 L 188.66549 35.480005 C 188.66549 37.919194 187.40411 39.614612 185.36801 40.586153 L 189.26493 46.270561 L 182.88754 46.270561 L 179.73528 41.495658 L 179.68361 41.495658 L 178.53639 41.495658 L 178.53639 46.270561 L 172.945 46.270561 L 172.945 29.557886 z M 190.14343 29.557886 L 205.57402 29.557886 L 205.57402 34.281112 L 200.65442 34.281112 L 200.65442 46.270561 L 195.06303 46.270561 L 195.06303 34.281112 L 190.14343 34.281112 L 190.14343 29.557886 z M 207.45504 29.557886 L 213.13996 29.557886 L 213.13996 38.705131 C 213.13996 40.782576 214.2148 41.661023 215.71345 41.661023 C 217.2121 41.661023 218.28693 40.844586 218.28693 38.818819 L 218.28693 29.557886 L 223.97134 29.557886 L 223.97134 38.653455 C 223.97134 44.358675 220.65382 46.60129 215.66177 46.60129 C 210.68004 46.60129 207.45504 44.306994 207.45504 38.767143 L 207.45504 29.557886 z M 226.49315 29.557886 L 226.50349 29.557886 L 231.73366 29.557886 L 237.67645 36.937797 L 237.67645 29.557886 L 243.21616 29.557886 L 243.21616 46.270561 L 238.24489 46.270561 L 232.03338 38.560437 L 232.03338 46.270561 L 226.49315 46.270561 L 226.49315 29.557886 z M 178.53639 34.229435 L 178.53639 37.495903 L 180.95485 37.495903 L 180.95485 37.506238 C 182.28813 37.506238 183.10459 36.9063 183.10459 35.883081 L 183.10459 35.831405 C 183.10459 34.756507 182.26745 34.229435 180.97552 34.229435 L 178.53639 34.229435 z M 161.63768 35.996769 L 160.10806 40.059054 L 163.1673 40.059054 L 161.63768 35.996769 z M 139.00288 55.706677 L 150.05182 55.706677 L 162.17408 55.715462 L 162.17408 66.763883 L 150.05182 66.763883 L 150.05182 73.774825 L 162.1715 73.542281 L 162.1715 84.590702 L 150.05182 84.358158 L 150.05182 91.364449 L 162.17511 91.364449 L 162.17511 102.41339 L 147.9119 102.41339 C 142.99219 102.41339 139.00288 98.423574 139.00288 93.503853 L 139.00288 55.706677 z M 150.05182 84.358158 L 150.05182 73.774825 L 150.05079 73.774825 L 150.05079 84.358158 L 150.05182 84.358158 z M 331.43042 55.706677 L 342.47884 55.706677 L 354.59851 55.708228 L 354.59851 66.757166 L 342.47884 66.757166 L 342.47884 73.576388 L 354.59593 73.535046 L 354.59593 84.583984 L 342.47884 84.501302 L 342.47884 91.364449 L 354.60264 91.364449 L 354.60264 102.41339 L 340.33943 102.41339 C 335.4197 102.41339 331.43042 98.423574 331.43042 93.503853 L 331.43042 55.706677 z M 342.47884 84.501302 L 342.47884 73.576388 L 342.47832 73.576388 L 342.47832 84.501302 L 342.47884 84.501302 z M 65.786682 55.711845 C 73.113291 55.711845 80.441085 60.59554 80.441085 70.36263 L 80.441085 102.41339 L 69.392147 102.41339 L 69.392147 89.541821 L 62.178117 89.541821 L 62.178117 102.41339 L 51.129696 102.41339 L 51.129696 70.36263 L 51.140031 70.36263 C 51.134872 60.59554 58.460073 55.711845 65.786682 55.711845 z M 97.830721 55.711845 C 103.67333 55.711845 109.48428 60.455292 109.68478 69.887207 L 109.75868 69.887207 C 110.1597 51.023425 133.06576 51.023425 133.46679 69.887207 L 133.504 69.887207 L 133.504 102.41339 L 122.45506 102.41339 L 122.45506 70.36263 C 122.45506 65.556601 115.25136 65.556601 115.25136 70.36263 L 115.24103 70.36263 L 115.24103 102.41339 L 104.19209 102.41339 L 104.19209 70.36263 C 104.19209 65.556601 96.988395 65.556601 96.988395 70.36263 L 96.988395 102.41339 L 85.939457 102.41339 L 85.939457 69.887207 L 85.976664 69.887207 C 86.177178 60.455316 91.988116 55.711845 97.830721 55.711845 z M 190.392 55.711845 C 196.23588 55.711845 202.04907 60.455316 202.24967 69.887207 L 202.32408 69.887207 C 202.72511 51.023425 225.63065 51.023425 226.03168 69.887207 L 226.05855 69.887207 L 226.05855 70.229822 C 226.05883 70.276819 226.06889 70.315404 226.06889 70.36263 L 226.05855 70.36263 L 226.05855 102.41339 L 215.01013 102.41339 L 215.01013 70.30992 C 214.95043 65.563972 207.81626 65.576684 207.81626 70.36263 L 207.80592 70.36263 L 207.80592 102.41339 L 196.7575 102.41339 L 196.7575 70.36263 C 196.7575 65.556601 189.5538 65.556601 189.5538 70.36263 L 189.54295 70.36263 L 189.54295 102.41339 L 178.49453 102.41339 L 178.49453 69.887207 L 178.54156 69.887207 C 178.73717 60.455304 184.54811 55.711845 190.392 55.711845 z M 246.21805 55.711845 C 253.54337 55.711845 260.86883 60.59554 260.86883 70.36263 L 260.86883 102.41339 L 249.81989 102.41339 L 249.81989 89.545955 L 242.6162 89.545955 L 242.6162 102.41339 L 231.56778 102.41339 L 231.56778 70.36263 C 231.56778 60.59554 238.89273 55.711845 246.21805 55.711845 z M 301.94746 55.714945 L 327.22809 55.714945 L 327.22809 66.763883 L 320.11224 66.763883 L 320.11224 102.41339 L 309.06331 102.41339 L 309.06331 66.763883 L 301.94746 66.763883 L 301.94746 55.714945 z M 291.24579 55.717013 L 297.74668 55.717013 L 297.74668 66.765951 L 293.58156 66.765951 C 291.17338 66.765951 289.12706 68.512556 288.73431 70.879395 L 285.33349 91.374784 C 284.27928 97.751816 278.76041 102.42372 272.30069 102.42372 L 265.06547 102.42372 L 265.06547 91.374784 L 269.96492 91.374784 C 272.3731 91.374784 274.41942 89.628179 274.81217 87.26134 L 278.21248 66.765951 C 279.26671 60.388919 284.78607 55.717013 291.24579 55.717013 z M 378.48801 64.533529 C 374.42616 64.533529 371.13962 67.830386 371.13962 71.881917 C 371.13962 75.943789 374.43647 79.230823 378.48801 79.230823 C 382.54989 79.230823 385.8364 75.943789 385.8364 71.881917 C 385.8364 67.820049 382.54989 64.533529 378.48801 64.533529 z M 65.790299 66.758199 C 63.989329 66.758199 62.188452 67.959615 62.188452 70.36263 L 62.178117 70.36263 L 62.178117 78.4934 L 69.392147 78.4934 L 69.392147 70.36263 C 69.392147 67.959615 67.59127 66.758199 65.790299 66.758199 z M 246.21805 66.758199 C 244.41708 66.758199 242.6162 67.959615 242.6162 70.36263 L 242.6162 78.497017 L 249.81989 78.497017 L 249.81989 70.36263 C 249.81989 67.959615 248.01902 66.758199 246.21805 66.758199 z M 39.284941 72.967122 L 34.23822 83.675513 L 18.672245 84.017611 L 18.672245 72.968673 L 39.284941 72.967122 z " /><g
       id="g2254"
       transform="matrix(0.26458333,0,0,0.26458333,-448.96302,108.71551)">
	
	
</g></g><style
     type="text/css"
     id="style234">
	.st0{fill:#FFF800;}
	.st1{fill:#96E620;}
	.st2{fill:#FFFFFF;}
</style><style
     type="text/css"
     id="style1241">
	.st0{fill:#FFFFFF;}
</style><style
     type="text/css"
     id="style2148">
	.st0{fill:#E7362E;}
	.st1{fill:#FFFFFF;}
</style></svg>
