<?xml version="1.0" encoding="UTF-8" standalone="no"?>
<!-- Created with Inkscape (http://www.inkscape.org/) -->

<svg
   width="1500"
   height="500"
   viewBox="0 0 396.87498 132.29167"
   version="1.1"
   id="svg5"
   inkscape:version="1.2.2 (732a01da63, 2022-12-09)"
   xml:space="preserve"
   sodipodi:docname="gx4000.svg"
   xmlns:inkscape="http://www.inkscape.org/namespaces/inkscape"
   xmlns:sodipodi="http://sodipodi.sourceforge.net/DTD/sodipodi-0.dtd"
   xmlns="http://www.w3.org/2000/svg"
   xmlns:svg="http://www.w3.org/2000/svg"><sodipodi:namedview
     id="namedview7"
     pagecolor="#000000"
     bordercolor="#111111"
     borderopacity="1"
     inkscape:showpageshadow="0"
     inkscape:pageopacity="0"
     inkscape:pagecheckerboard="1"
     inkscape:deskcolor="#d1d1d1"
     inkscape:document-units="mm"
     showgrid="false"
     inkscape:zoom="0.88756633"
     inkscape:cx="371.8032"
     inkscape:cy="330.11617"
     inkscape:window-width="1920"
     inkscape:window-height="1009"
     inkscape:window-x="-8"
     inkscape:window-y="-8"
     inkscape:window-maximized="1"
     inkscape:current-layer="layer1" /><defs
     id="defs2">
			
			
		
				
				
				
			
				
					
				
			
					
						
					
				
			
				
			
		
				
					
				
			
			
			
			
			
			
		
			
			
			
			
			
		
			
			
			
			
				
		
			
			
				
		
			
			
			
			
				
		
		
			
		
		
		
		
		
		
		
		
		
	
		
		
		
		
		
		
		
	</defs><g
     inkscape:label="Layer 1"
     inkscape:groupmode="layer"
     id="layer1"><path
       id="rect231"
       style="fill:#ffffff;stroke-width:0.8001;stroke-linecap:square;paint-order:fill markers stroke"
       d="M 0,0 V 17.908984 H 205.48823 396.875 V 0 Z M 1.0340454,18.942513 V 113.34915 H 86.316695 l 5.460132,-11.02568 5.971212,-12.059212 4.111891,-8.303369 V 49.253324 h -5.344374 v -8.125602 h 21.151164 v 8.125602 h -5.18935 v 11.265463 l 3.18534,-6.432166 2.65565,-5.363497 v -7.595402 h 3.76101 l 5.52628,-11.159525 5.45961,-11.025684 z M 118.31836,51.061483 v 0 l 4.91908,-9.933761 z m 4.91908,-9.933761 h 6.37997 l 3.76308,0.07235 c 7.38131,0.15507 9.18032,2.10901 9.18032,9.707418 v 5.262211 c 0,6.998804 -1.05481,9.417778 -4.74545,10.389547 1.79879,0.599601 2.86371,1.42695 3.61838,2.791561 0.97176,1.726441 1.12707,3.090794 1.12707,8.96276 v 0.977718 l 2.46341,-5.126819 4.16306,-33.026408 h 11.70626 L 171.55852,18.942516 H 134.22333 L 128.7632,29.9682 Z m 21.37854,36.274272 10.87582,-22.634278 0.0842,-1.15135 0.0625,0.84646 6.4022,-13.324769 z m 17.42478,-36.263937 6.40632,50.191252 h -10.00714 l -0.82734,-9.934794 h -4.0628 l -0.75448,9.934794 h -9.93479 l 2.16369,-17.164841 -2.46341,5.126819 v 12.038022 h -4.63693 l -10.58023,22.019841 h 77.11054 V 18.942513 h -31.74845 z m -19.47995,38.153227 -5.78415,12.038025 z m -5.78415,12.038025 h -4.76043 V 76.276998 c 0,-4.962226 -3.6e-4,-4.889605 -2.63653,-4.961971 h -0.45475 V 91.339644 H 118.31836 V 51.061483 l -1.4981,3.025138 -4.34289,8.760706 v 28.481982 h -10.61744 v -7.063651 l -8.925551,18.057812 -5.459615,11.02568 h 38.721146 z m -34.91673,-7.063651 10.61744,-21.418331 0,0 z m 53.77863,-29.802832 -0.14676,0.30489 -1.34204,18.346167 h 2.8634 z M 315.40142,29.6323 c -5.59286,0 -10.13116,16.333822 -10.13116,36.503198 0,20.169376 4.52798,36.503202 10.13116,36.503202 5.59284,0 10.13116,-16.333826 10.13116,-36.503202 0,-20.169376 -4.53832,-36.503198 -10.13116,-36.503198 z m 27.89184,0 c -5.59284,0 -10.13117,16.333822 -10.13117,36.503198 0,20.169376 4.52799,36.503202 10.13117,36.503202 5.60318,0 10.13116,-16.333826 10.13116,-36.503202 0,-20.169376 -4.5383,-36.503198 -10.13116,-36.503198 z m 27.89184,0 c -5.59284,0 -10.13117,16.333822 -10.13117,36.503198 0,20.169376 4.52798,36.503202 10.13117,36.503202 5.60318,0 10.13116,-16.333826 10.13116,-36.503202 0,-20.169376 -4.54867,-36.503198 -10.13116,-36.503198 z m -138.31198,0.01033 c -6.53358,0 -11.82666,16.333822 -11.82666,36.503198 0,20.169376 5.29308,36.503202 11.82666,36.503202 2.8843,0 4.0526,-3.183973 5.53093,-8.46667 h 0.031 l 2.50165,8.1566 h 0.71366 V 61.400903 h -9.232 v 0.713135 l 3.52537,2.47065 v 25.379847 c -0.45487,5.892637 -1.19943,10.244855 -3.07062,10.244855 -2.21231,0 -4.01112,-6.140824 -4.01112,-13.697875 V 45.769816 c 0,-7.567393 1.78847,-13.697872 4.01112,-13.697872 2.22269,0 5.27265,9.852036 6.92671,20.096965 h 0.0413 0.0827 0.59944 V 29.921688 h -0.71313 l -2.28462,3.266467 c -1.2302,-2.336379 -2.79159,-3.54552 -4.65243,-3.54552 z m 15.14533,0.992188 v 0.713134 l 3.27732,2.295467 7.08122,31.944304 -8.10493,33.650142 -3.41168,2.377625 v 0.71314 h 8.9116 v -0.71314 l -2.7497,-1.922872 6.72982,-27.902173 6.12004,27.592114 -3.1843,2.232931 v 0.71314 h 12.30261 v -0.71314 l -3.27732,-2.284607 -7.87755,-35.531681 7.26777,-30.155783 3.28714,-2.295467 v -0.713134 h -8.92142 v 0.713134 l 2.85305,1.984892 -5.85132,24.263635 -5.32371,-24.015071 3.17345,-2.233456 v -0.713134 z m 39.59449,0 -10.62726,50.20107 h 11.00966 v 18.48466 l -3.2768,2.294942 v 0.71314 h 12.29175 v -0.71314 l -3.28765,-2.294942 v -18.48466 h 4.94182 v -2.791044 h -4.94182 v -16.92351 l -5.7273,4.031795 v 12.89172 h -7.31945 l 14.04979,-47.410026 z m 27.78848,1.437121 c 1.89185,0 3.43235,6.140816 3.43235,13.697872 V 86.50118 c 0,7.567391 -1.5405,13.69787 -3.43235,13.69787 -1.89185,0 -3.43235,-6.140811 -3.43235,-13.69787 V 45.769816 c 0,-7.567393 1.5405,-13.697872 3.43235,-13.697872 z m 27.90217,0 c 1.89185,0 3.43235,6.140816 3.43235,13.697872 V 86.50118 c 0,7.567391 -1.5405,13.69787 -3.43235,13.69787 -1.89185,0 -3.43235,-6.140811 -3.43235,-13.69787 V 45.769816 c 0,-7.567393 1.5405,-13.697872 3.43235,-13.697872 z m 27.88151,0 c 1.89184,0 3.43234,6.140816 3.43234,13.697872 V 86.50118 c 0,7.567391 -1.5405,13.70821 -3.43234,13.70821 -1.89185,0 -3.43235,-6.140824 -3.43235,-13.697875 V 45.769816 c 0,-7.567393 1.5405,-13.697872 3.43235,-13.697872 z m -286.609901,8.75606 c 6.388861,0 8.125688,0.455242 9.707418,2.553849 1.281905,1.664413 1.581299,3.235801 1.581299,7.898226 v 7.081222 H 85.246993 V 52.40662 c 0,-1.581709 -0.07231,-2.108815 -0.217041,-2.491321 -0.299799,-0.527234 -0.754858,-0.910021 -1.282092,-0.910021 -0.527235,0 -1.126487,0.372447 -1.353923,0.910021 -0.155072,0.454872 -0.217558,0.826909 -0.217558,2.491321 v 3.680396 c 0,1.664412 0.455289,2.25385 2.409156,3.308325 l 4.517553,2.491321 c 5.95468,3.308151 6.771163,4.662559 6.771163,11.433927 v 8.063591 c 0,4.37296 -0.29941,5.799238 -1.508952,7.380945 -1.654067,2.253676 -3.463395,2.708878 -11.289233,2.708878 -6.254479,0 -7.970632,-0.372095 -9.635071,-2.253609 -0.97176,-1.054475 -1.426727,-2.253637 -1.654162,-4.135148 -0.155072,-0.971769 -0.15503,-2.109069 -0.15503,-5.499923 v -9.025289 h 10.544576 v 8.425326 1.282092 c 0,2.036581 0.454983,2.863908 1.581816,2.863908 0.971761,0 1.499133,-0.827486 1.499133,-2.254126 v -1.281576 -5.572269 l -0.07235,-1.054716 c -0.07236,-1.881511 -0.299775,-2.253356 -2.108915,-3.235462 -0.671962,-0.372165 -1.209729,-0.599944 -1.282092,-0.67231 L 77.338432,66.56958 C 72.448593,63.778329 71.621468,62.196786 71.621468,55.962992 v -5.871993 c 0,-4.135187 0.454838,-5.954819 2.036568,-7.381461 1.654068,-1.499004 3.61856,-1.881539 10.917163,-1.881539 z m -47.999654,0.299723 h 14.008448 l 2.49132,22.196061 2.636015,-22.196061 h 13.925248 v 50.201587 h -0.03101 -9.552388 V 62.878849 L 56.2901,91.329309 H 50.118388 L 46.127934,62.72382 v 28.605489 h -9.552389 z m 132.543335,0 h 10.30686 c 9.10774,0 10.39012,0.217546 12.11657,2.254126 1.58171,1.798808 1.95389,3.762832 1.95389,10.68927 v 24.769548 c 0,6.171767 -0.21725,7.836263 -1.42679,9.63507 -1.42663,2.108942 -3.53592,2.791561 -8.72556,2.791561 l -5.34438,0.07235 h -8.88059 z m -152.495605,0.01034 h 13.015743 l 6.244063,50.191252 H 25.87594 L 25.049117,81.39452 h -4.062801 l -0.754993,9.934794 h -9.934794 z m 164.094895,8.188131 c -0.21709,0 -0.59936,0.07235 -0.97152,0.07235 v 33.712154 c 0.36182,0.02066 0.73374,0.02067 0.97152,0.02067 1.65407,0 2.03657,-0.527588 2.03657,-2.636532 V 79.440629 76.948792 53.399325 52.117232 c 0,-2.253676 -0.37216,-2.791044 -2.03657,-2.791044 z m -51.78289,0.01033 v 12.798186 c 0.37216,-0.01035 0.60976,-0.01034 0.74414,-0.01034 2.03658,0 2.33681,-0.454948 2.33681,-3.680395 v -5.417241 l -0.0729,-1.353922 c 0,-1.798808 -0.45439,-2.336292 -1.88102,-2.336292 h -0.67232 z M 23.012549,53.616366 21.585763,73.113883 h 2.863391 z M 0,114.38268 v 17.90899 H 396.875 V 114.38268 H 205.48823 Z"
       sodipodi:nodetypes="cccccccccccccccccccccccccccccccccssccscccccccccccccccccccccccccccccccccccsccccccccccccccccccccccccssssssssssssssscsscccccccccsssscccccccsccccccccccccccccccccccccccccccscccccccccccccccccssssssssssssssssscsssscsccscscssccsscsccscccsssccccccsscsccccscccccccccccscsccccccccccsccccsccsccccssccssccsccccccccccccccccc" /><g
       id="g2474"
       transform="matrix(0.26458333,0,0,0.26458333,-298.76563,148.88401)" /></g><style
     type="text/css"
     id="style234">
	.st0{fill:#FFF800;}
	.st1{fill:#96E620;}
	.st2{fill:#FFFFFF;}
</style><style
     type="text/css"
     id="style1241">
	.st0{fill:#FFFFFF;}
</style><style
     type="text/css"
     id="style2148">
	.st0{fill:#E7362E;}
	.st1{fill:#FFFFFF;}
</style></svg>
