<?xml version="1.0" encoding="UTF-8" standalone="no"?>
<!-- Created with Inkscape (http://www.inkscape.org/) -->

<svg
   width="1500"
   height="500"
   viewBox="0 0 396.87498 132.29167"
   version="1.1"
   id="svg5"
   inkscape:version="1.2.2 (732a01da63, 2022-12-09)"
   xml:space="preserve"
   sodipodi:docname="intellivision.svg"
   xmlns:inkscape="http://www.inkscape.org/namespaces/inkscape"
   xmlns:sodipodi="http://sodipodi.sourceforge.net/DTD/sodipodi-0.dtd"
   xmlns="http://www.w3.org/2000/svg"
   xmlns:svg="http://www.w3.org/2000/svg"><sodipodi:namedview
     id="namedview7"
     pagecolor="#000000"
     bordercolor="#111111"
     borderopacity="1"
     inkscape:showpageshadow="0"
     inkscape:pageopacity="0"
     inkscape:pagecheckerboard="1"
     inkscape:deskcolor="#d1d1d1"
     inkscape:document-units="mm"
     showgrid="false"
     inkscape:zoom="0.62760417"
     inkscape:cx="479.60166"
     inkscape:cy="262.90456"
     inkscape:window-width="1920"
     inkscape:window-height="1009"
     inkscape:window-x="-8"
     inkscape:window-y="-8"
     inkscape:window-maximized="1"
     inkscape:current-layer="layer1" /><defs
     id="defs2">
			
			
		
				
				
				
			
				
					
				
			
					
						
					
				
			
				
			
		
				
					
				
			
			
			
			
			
			
		
			
			
			
			
			
		
			
			
			
			
				
		
			
			
				
		
			
			
			
			
				
		
		
			
		
		
		
		
		
		
		
		
		
	
		
		
		
		
		
		
		
	</defs><g
     inkscape:label="Layer 1"
     inkscape:groupmode="layer"
     id="layer1"><path
       id="rect231"
       style="fill:#ffffff;stroke-width:0.8001;stroke-linecap:square;paint-order:fill markers stroke"
       d="M 0 0 L 0 39.744861 L 14.928288 39.744861 L 14.928288 94.411808 L 0 94.411808 L 0 132.29167 L 396.875 132.29167 L 396.875 89.408496 C 396.875 95.011675 389.70058 97.348208 386.41311 92.799504 L 368.59042 68.22581 L 368.59042 94.411808 L 361.17795 94.411808 L 361.17795 56.782064 C 361.17795 49.173319 370.92659 46.009545 375.39259 52.170976 L 389.47287 71.596147 L 389.47287 49.979378 L 396.875 49.979378 L 396.875 0 L 0 0 z M 233.62812 36.870618 L 241.2783 36.870618 L 228.24188 87.619975 C 225.62637 97.813212 211.24628 98.092235 208.2276 88.012716 L 196.84535 49.979378 L 212.33174 49.979378 L 221.64642 83.526168 L 233.62812 36.870618 z M 79.860758 39.744861 L 79.860758 49.979378 L 90.447192 49.979378 L 90.447192 57.391846 L 81.949003 57.391846 C 80.80148 57.391846 79.871094 58.32224 79.871094 59.469755 L 79.871094 84.921948 C 79.871094 86.059124 80.791145 86.989522 81.938668 86.989522 L 90.426522 86.999858 L 90.426522 94.411808 L 79.860758 94.411808 L 74.464705 94.411808 C 69.213023 94.411808 64.943323 90.152968 64.943323 84.890942 L 64.943323 59.469755 C 64.943323 58.32224 64.012937 57.391846 62.865413 57.391846 L 55.77334 57.391846 L 55.77334 89.408496 C 55.77334 95.011675 48.598917 97.348208 45.311446 92.799504 L 27.488761 68.22581 L 27.488761 94.411808 L 20.076294 94.411808 L 20.076294 56.782064 C 20.076294 49.173319 29.824927 46.009545 34.29093 52.170976 L 48.371208 71.596147 L 48.371208 49.979378 L 55.77334 49.979378 L 55.77334 55.787809 L 79.860758 39.744861 z M 273.00556 49.969043 L 287.27187 49.969043 L 287.32355 57.38151 L 278.5153 57.38151 L 276.87199 57.38151 L 275.22816 57.38151 C 271.46513 57.38151 270.76186 62.746823 274.39049 63.718591 L 276.31337 64.235356 C 276.36504 64.256025 276.40638 64.266361 276.40638 64.266361 C 284.78015 66.489026 290.15606 67.812688 291.6344 74.66676 C 291.68609 74.92521 291.74807 75.173119 291.78942 75.441907 C 291.96516 76.517056 292.03747 77.706015 292.03747 79.070626 C 292.03747 87.258297 285.46275 94.008629 277.19238 94.411808 C 276.92359 94.422148 257.66386 94.329126 257.66386 94.329126 L 257.66386 86.999858 L 274.75222 86.999858 C 277.20231 86.999858 279.45633 84.869915 279.45633 82.254411 C 279.45633 78.997949 276.25169 77.612925 272.93321 77.261434 C 267.65052 76.692845 257.66386 73.819031 257.66386 64.762972 C 257.66386 55.975697 264.36303 49.969043 273.00556 49.969043 z M 101.75658 49.979378 L 107.15315 49.979378 L 123.53871 49.979378 L 123.53871 57.391846 L 109.23106 57.402181 C 108.08354 57.402181 107.15315 58.332575 107.15315 59.48009 L 107.15315 68.494527 L 120.74767 68.494527 L 120.74767 75.906995 L 107.15315 75.906995 L 107.15315 84.932284 C 107.15315 86.079799 108.08354 87.010193 109.23106 87.010193 L 123.53871 87.010193 L 123.53871 94.422144 L 107.15315 94.422144 L 101.75658 94.422144 C 96.494552 94.422144 92.224862 90.152968 92.224862 84.890942 L 92.224862 59.511096 C 92.224862 54.249071 96.494552 49.979378 101.75658 49.979378 z M 125.81299 49.979378 L 140.73094 49.979378 L 140.73094 84.921948 C 140.73094 86.059124 141.651 86.989522 142.79852 86.989522 L 151.29619 86.989522 L 151.29619 94.401473 L 140.73094 94.401473 L 135.33437 94.401473 C 130.08269 94.401473 125.81299 90.142632 125.81299 84.880607 L 125.81299 49.979378 z M 151.80314 49.979378 L 166.72057 49.979378 L 166.72057 84.921948 C 166.72057 86.059124 167.64062 86.989522 168.78815 86.989522 L 177.28582 86.989522 L 177.28582 94.401473 L 166.72057 94.401473 L 161.324 94.401473 C 156.07232 94.401473 151.80314 90.142632 151.80314 84.880607 L 151.80314 49.979378 z M 178.65059 49.979378 L 193.57888 49.979378 L 193.57888 57.391846 L 178.65059 57.391846 L 178.65059 49.979378 z M 239.79983 49.979378 L 254.7276 49.979378 L 254.7276 57.391846 L 239.79983 57.391846 L 239.79983 49.979378 z M 294.643 49.979378 L 309.57077 49.979378 L 309.57077 57.391846 L 294.643 57.391846 L 294.643 49.979378 z M 335.40537 50.144743 C 343.67573 50.144743 358.54194 52.016253 358.54194 72.74388 C 358.54194 93.471505 343.67573 95.342501 335.40537 95.342501 C 327.135 95.342501 312.26879 93.471505 312.26879 72.74388 C 312.26879 52.016253 327.135 50.144743 335.40537 50.144743 z M 335.40537 56.233777 C 331.42524 56.233777 328.64454 61.133866 328.64454 64.617761 L 328.64454 80.848812 C 328.64454 84.343047 331.42524 89.232796 335.40537 89.232796 C 339.38549 89.232796 342.16619 84.332709 342.16619 80.848812 L 342.16619 64.617761 C 342.16619 61.123529 339.38549 56.233777 335.40537 56.233777 z M 178.65059 61.123918 L 193.57888 61.123918 L 193.57888 94.401473 L 178.65059 94.401473 L 178.65059 61.123918 z M 239.79983 61.123918 L 254.7276 61.123918 L 254.7276 94.401473 L 239.79983 94.401473 L 239.79983 61.123918 z M 294.643 61.123918 L 309.57077 61.123918 L 309.57077 94.401473 L 294.643 94.401473 L 294.643 61.123918 z " /><g
       id="g2562"
       transform="matrix(0.26458333,0,0,0.26458333,-414.86057,92.309578)" /></g><style
     type="text/css"
     id="style234">
	.st0{fill:#FFF800;}
	.st1{fill:#96E620;}
	.st2{fill:#FFFFFF;}
</style><style
     type="text/css"
     id="style1241">
	.st0{fill:#FFFFFF;}
</style><style
     type="text/css"
     id="style2148">
	.st0{fill:#E7362E;}
	.st1{fill:#FFFFFF;}
</style></svg>
