<?xml version="1.0" encoding="UTF-8" standalone="no"?>
<!-- Created with Inkscape (http://www.inkscape.org/) -->

<svg
   width="1500"
   height="500"
   viewBox="0 0 396.87498 132.29167"
   version="1.1"
   id="svg5"
   inkscape:version="1.2.2 (732a01da63, 2022-12-09)"
   xml:space="preserve"
   sodipodi:docname="j2me.svg"
   xmlns:inkscape="http://www.inkscape.org/namespaces/inkscape"
   xmlns:sodipodi="http://sodipodi.sourceforge.net/DTD/sodipodi-0.dtd"
   xmlns="http://www.w3.org/2000/svg"
   xmlns:svg="http://www.w3.org/2000/svg"><sodipodi:namedview
     id="namedview7"
     pagecolor="#000000"
     bordercolor="#111111"
     borderopacity="1"
     inkscape:showpageshadow="0"
     inkscape:pageopacity="0"
     inkscape:pagecheckerboard="1"
     inkscape:deskcolor="#d1d1d1"
     inkscape:document-units="mm"
     showgrid="false"
     inkscape:zoom="0.62760417"
     inkscape:cx="479.60166"
     inkscape:cy="262.90456"
     inkscape:window-width="1920"
     inkscape:window-height="1009"
     inkscape:window-x="-8"
     inkscape:window-y="-8"
     inkscape:window-maximized="1"
     inkscape:current-layer="layer1" /><defs
     id="defs2">
			
			
		
				
				
				
			
				
					
				
			
					
						
					
				
			
				
			
		
				
					
				
			
			
			
			
			
			
		
			
			
			
			
			
		
			
			
			
			
				
		
			
			
				
		
			
			
			
			
				
		
		
			
		
		
		
		
		
		
		
		
		
	
		
		
		
		
		
		
		
	</defs><g
     inkscape:label="Layer 1"
     inkscape:groupmode="layer"
     id="layer1"><path
       id="rect231"
       style="fill:#ffffff;stroke-width:0.8001;stroke-linecap:square;paint-order:fill markers stroke"
       d="M 0 0 L 0 132.29167 L 396.875 132.29167 L 396.875 0 L 126.34526 0 C 126.46929 0.15089701 126.65532 0.28215449 126.70286 0.4547526 C 127.90693 5.2162344 128.23662 9.9652682 126.52406 14.698844 C 125.29312 18.089863 123.27879 20.949618 120.73423 23.451799 C 116.50605 27.61383 112.22831 31.721049 108.027 35.910986 C 106.61726 37.317624 105.35947 38.867905 104.07375 40.384098 C 100.04401 45.118706 99.259564 50.362799 101.90747 55.993481 C 103.22109 58.770582 104.81582 61.410713 106.2669 64.118567 C 106.43846 64.435863 106.56972 64.781058 106.71338 65.117989 L 106.41159 65.359835 C 105.99818 64.89061 105.59304 64.401756 105.15999 63.947001 C 101.48785 60.156007 98.276698 55.952156 95.574011 51.410815 C 93.48421 47.895774 93.435632 44.380764 95.745577 41.058993 C 97.396126 38.702539 99.218226 36.380215 101.3225 34.436141 C 105.46903 30.604838 109.89044 27.062958 114.14755 23.354647 C 116.14847 21.618315 118.16281 19.867528 119.96425 17.931722 C 123.88444 13.700443 125.76855 8.5452335 126.19436 2.8256673 C 126.23571 2.2809966 126.06414 1.722895 126.0228 1.170988 C 125.99489 0.79891802 126.0228 0.41961291 126.0228 0.041341146 L 126.34526 0 L 0 0 z M 137.75335 26.283667 C 133.93755 29.150684 130.20343 31.728287 126.72353 34.629411 C 124.55828 36.449462 122.6256 38.619859 120.88616 40.866756 C 118.46563 43.988024 118.45839 47.37901 120.58334 50.742122 C 121.88249 52.809186 123.224 54.856594 124.42703 56.978434 C 125.69931 59.218098 126.64085 61.603985 126.24914 64.270496 C 126.16646 65.001205 125.96699 65.703999 125.65796 66.372693 C 124.02188 69.591113 121.47735 71.954776 118.55452 73.932955 L 118.31371 73.773792 C 118.49251 73.484401 118.65787 73.181581 118.85011 72.898393 C 121.11975 69.563186 121.16832 66.179434 119.00204 62.788416 C 118.25893 61.610187 117.3515 60.53481 116.53294 59.40516 C 114.69015 56.875073 113.10163 54.208588 112.48977 51.080086 C 111.54823 46.331005 112.92281 42.231024 116.11333 38.689111 C 119.53845 34.898115 123.68494 32.100373 128.27796 29.971297 C 131.04266 28.688683 133.91688 27.600386 136.74979 26.435596 C 137.00404 26.332244 137.31306 26.34568 137.75335 26.283667 z M 180.48304 31.190861 C 181.80389 31.232202 183.1237 31.314884 184.43732 31.473014 C 185.92251 31.659051 186.49301 32.23782 186.73382 33.733341 C 186.84441 34.499188 186.89195 35.263996 186.87128 36.03501 C 186.88575 46.000327 186.88575 55.973295 186.87128 65.944812 L 187.02321 65.944812 C 187.02321 73.711804 187.11209 81.471488 186.98807 89.231246 C 186.91986 93.490433 186.79584 97.777481 186.16331 101.97362 C 185.00162 109.72718 180.93782 115.57795 173.95114 119.36171 C 171.09756 120.912 167.43836 118.88629 166.47614 116.77065 C 166.11854 115.99137 166.05653 115.37125 166.9774 114.84725 C 172.82926 111.48414 175.67713 106.1708 176.3851 99.62441 C 176.68069 96.88865 176.7148 94.110544 176.72203 91.346879 C 176.77681 78.618933 176.80471 65.889558 176.79748 53.154378 C 176.79748 47.061705 176.70136 40.983565 176.66725 34.898128 C 176.65381 31.728286 177.3132 31.080273 180.48304 31.190861 z M 315.99725 49.016646 C 316.87298 49.026279 317.75476 49.071423 318.64257 49.156689 C 320.89153 49.349959 323.11257 49.811943 325.25818 50.521981 C 330.51162 52.333761 332.97347 56.441499 334.29329 61.679439 C 334.92583 64.167152 334.81625 66.572155 334.82969 69.012325 C 334.88446 79.466499 334.85036 89.927811 334.85036 100.38922 L 334.8638 101.89817 C 332.73988 101.89817 330.73176 101.93951 328.7236 101.8775 C 327.53401 101.8434 326.91491 101.23672 326.67412 100.02335 C 326.54388 99.376362 326.5718 98.700438 326.44777 98.052413 C 326.23487 96.943432 325.62922 96.639577 324.6391 97.157377 C 324.06136 97.488109 323.51876 97.860174 323.00922 98.279789 C 317.26795 102.76015 310.87252 104.13784 303.81763 102.40874 C 298.17868 101.03 294.51381 96.412223 294.10143 90.465279 C 293.44824 81.051871 299.60908 75.096715 306.71254 73.119568 C 309.49791 72.340286 312.46102 72.161488 315.35594 71.823523 C 317.91394 71.5207 320.49257 71.382207 323.05057 71.141394 C 324.47374 71.003933 324.93469 70.507844 324.81066 69.108443 C 324.60499 66.75199 324.53575 64.34595 323.99314 62.064945 C 323.11257 58.323561 320.44505 56.427565 316.7109 56.048258 C 311.11329 55.46948 305.6811 56.296815 300.40699 58.254325 C 299.98737 58.412456 299.54089 58.695642 299.12851 58.654301 C 298.75644 58.619162 298.23451 58.308588 298.08258 57.977856 C 297.69811 57.096255 297.47797 56.130944 297.18858 55.200765 C 296.78963 53.939857 297.05835 53.229826 298.26138 52.782308 C 304.01932 50.640829 309.86711 48.949216 315.99725 49.016646 z M 217.56398 49.022331 C 220.35426 49.008507 223.14451 49.359775 225.92936 50.169548 C 232.14502 51.968927 235.76959 56.696776 235.85847 63.209062 C 235.89258 66.151527 235.85847 69.087761 235.85847 72.030229 L 235.85847 80.851396 L 235.94115 80.845194 L 235.94115 99.327787 C 235.94115 101.47754 235.52155 101.89817 233.38317 101.91884 C 232.75685 101.91884 232.13157 101.93951 231.50525 101.91884 C 229.27799 101.82273 228.32922 100.88532 228.06773 98.645658 C 227.99849 98.025539 227.74424 97.432299 227.57267 96.819413 C 226.93292 97.108804 226.19705 97.281398 225.66064 97.701013 C 222.10633 100.48535 218.15207 102.36016 213.65518 102.97304 C 209.15724 103.58696 204.90844 102.80769 201.04406 100.35511 C 198.27213 98.590875 196.96576 95.812768 196.29913 92.732841 C 194.7385 85.503286 196.90371 77.612329 206.64785 73.932955 C 210.60835 72.458105 214.78274 71.665392 218.99749 71.588912 C 220.59326 71.547571 222.18178 71.5269 223.77032 71.485559 C 225.14492 71.451454 225.90146 70.976032 226.19084 69.762667 C 226.97426 66.414022 226.78203 63.161529 225.02812 60.121912 C 223.43959 57.371682 220.84751 56.406894 217.88334 56.027588 C 212.99474 55.394033 208.33252 56.4689 203.69093 57.806291 C 202.85893 58.03987 202.04038 58.329254 201.21562 58.612443 C 200.34229 58.908033 199.90201 58.522529 199.6891 57.702938 C 199.50307 56.999102 199.33151 56.290106 199.07725 55.606942 C 198.45094 53.925384 198.75375 53.085135 200.47252 52.554932 C 203.36124 51.651624 206.26234 50.755561 209.1986 50.066195 C 211.98345 49.41507 214.7737 49.036154 217.56398 49.022331 z M 245.03827 50.142676 C 247.02575 50.142676 249.01322 50.128203 250.99347 50.142676 C 252.96648 50.156117 254.38964 51.148292 255.05007 53.02312 C 256.13011 56.08341 257.21634 59.14315 258.13825 62.26545 C 260.82647 71.368798 263.43301 80.499966 266.07988 89.610551 C 266.33413 90.472518 266.72584 91.2921 267.05657 92.133394 L 267.46171 92.201607 C 268.83011 88.101586 270.37109 84.049147 271.54001 79.893315 C 273.43758 73.105076 275.16356 66.261612 276.81411 59.411361 C 277.37739 57.047673 277.53551 54.580654 277.80423 52.140487 C 277.99647 50.424824 278.15459 50.176782 279.89403 50.163346 C 282.19777 50.135441 284.49425 50.135441 286.78456 50.204687 C 288.0155 50.238795 288.32452 50.708011 288.0496 51.91311 C 284.94901 65.462716 281.76473 78.991002 276.74486 92.002136 C 275.76818 94.538424 274.69641 97.039547 273.60914 99.541728 C 272.76371 101.48477 271.7736 101.97362 269.66209 101.91884 C 267.12477 101.8496 264.58127 101.86407 262.04395 101.91884 C 260.26214 101.95295 259.68441 101.61603 259.14904 99.893127 C 254.20462 84.028412 249.26749 68.163333 244.33031 52.292415 C 244.22695 51.961684 244.14427 51.617524 244.08949 51.272323 C 243.9727 50.54265 244.25486 50.135439 245.03827 50.142676 z M 150.32312 70.569853 C 153.69244 70.493372 156.49845 71.858654 158.76085 74.290556 C 161.07803 76.778266 161.53175 80.783174 159.80575 83.876534 C 159.09778 85.193255 158.21102 86.406608 157.17232 87.481482 C 154.07069 90.582078 150.3097 92.925072 146.17041 94.337911 C 145.65467 94.517745 145.11104 94.621096 144.57464 94.758557 L 144.47128 94.517745 C 145.48208 93.732259 146.51353 92.952984 147.50366 92.167501 C 149.91075 90.24513 152.29716 88.274208 153.8857 85.593225 C 154.75903 84.124577 155.55588 82.478178 155.90004 80.817289 C 156.88293 76.075445 154.0025 72.278277 149.13353 71.603381 C 148.27467 71.485557 147.40134 71.444218 146.54144 71.361536 L 146.5001 71.065946 C 147.77961 70.893346 149.04465 70.596724 150.32312 70.569853 z M 88.159993 72.686519 C 88.338795 72.719205 88.529479 72.788319 88.732052 72.884957 C 88.106765 73.181581 87.45978 73.470966 86.827258 73.76759 C 85.658333 74.318463 84.482186 74.842458 83.341166 75.449141 C 82.537078 75.868754 81.924198 76.496103 82.089563 77.536869 C 82.254928 78.577636 83.113787 78.742996 83.939579 78.942468 C 88.615278 80.086586 93.394284 80.031807 98.152665 80.162032 C 109.50601 80.486562 120.75487 79.246329 131.99763 77.970951 L 137.11359 77.392175 C 135.16125 79.721755 132.59605 79.851972 130.12074 80.189937 C 120.39107 81.512858 110.64703 82.843005 100.80677 82.801664 C 92.342141 82.767557 83.87036 82.568093 75.584534 80.575444 C 74.965448 80.45142 74.374273 80.244715 73.810999 79.975997 C 73.453397 79.789963 72.951103 79.355879 72.971773 79.066492 C 72.999679 78.632409 73.329373 78.032964 73.700411 77.833492 C 75.350962 76.937421 77.007697 76.000016 78.775037 75.386096 C 81.697865 74.367033 84.688878 73.567089 87.659249 72.706156 C 87.814279 72.65758 87.981192 72.653834 88.159993 72.686519 z M 224.80798 77.144128 C 222.9993 77.157569 221.18444 77.116221 219.38299 77.275387 C 217.20947 77.461423 215.00291 77.64022 212.8914 78.149752 C 208.40794 79.239096 206.30369 81.602758 205.76729 85.950826 C 205.38281 89.080362 205.87063 92.002128 208.55264 94.062992 C 210.9184 95.874773 213.64793 96.432875 216.55009 95.827226 C 219.75404 95.158529 222.4567 93.401539 225.0767 91.547384 C 226.25906 90.706086 226.48643 89.369743 226.48643 87.991012 C 226.47918 86.489291 226.4792 84.986548 226.4792 83.483793 L 226.40995 83.483793 C 226.40995 81.912826 226.42443 80.334637 226.40995 78.769869 C 226.39651 77.454182 226.0937 77.129661 224.80798 77.144128 z M 319.91484 77.144128 C 316.7791 77.213375 313.66407 77.364267 310.62548 78.28101 C 306.63709 79.494375 304.38194 82.064744 303.96853 86.303259 C 303.45279 91.616648 306.63708 95.592612 311.88329 95.99259 C 314.59941 96.205498 317.08916 95.337339 319.5159 94.241793 C 322.37671 92.960213 324.21328 90.788786 324.49441 87.646847 C 324.76932 84.559689 324.72902 81.437416 324.77656 78.329586 C 324.78378 77.550304 324.25359 77.144128 323.46294 77.144128 C 322.28058 77.136905 321.09823 77.144128 319.91484 77.144128 z M 88.443697 87.73573 C 88.092296 90.885935 88.643158 91.416122 91.743754 92.263619 C 93.565871 92.766949 95.519228 92.870302 97.424028 92.973653 C 107.66323 93.51109 117.79795 92.484799 127.89245 90.871456 C 128.56632 90.803241 129.24017 90.947935 129.81792 91.292102 C 130.90519 91.953562 131.88807 92.79485 132.92677 93.5731 L 132.92677 94.027852 C 128.95181 94.869147 124.99755 95.847894 121.00915 96.550696 C 113.12227 97.914958 105.18689 97.460203 97.258663 96.881425 C 93.422193 96.60547 89.639501 96.10215 86.029374 94.675875 C 84.971037 94.255227 83.93958 93.83562 83.781449 92.490995 C 83.616084 91.140169 84.248601 90.106647 85.362748 89.417281 C 86.332201 88.817834 87.363656 88.328978 88.443697 87.73573 z M 91.785095 102.45008 C 91.875014 105.10936 93.538988 105.75737 95.512 105.96407 C 104.3487 106.92939 113.27419 106.70822 122.05508 105.30985 C 124.40017 104.93054 126.27704 105.0618 128.1684 106.41263 C 129.11719 107.08752 130.20342 107.58361 131.22145 108.16239 L 131.22765 108.52826 C 127.65886 109.4171 124.12422 110.4992 120.51409 111.16789 C 111.54096 112.84945 102.5669 112.66238 93.697123 110.39585 C 92.053808 109.96176 90.485953 109.27964 89.04211 108.37633 C 87.006052 107.10095 87.075299 105.33053 89.068982 103.95179 C 89.853434 103.41436 90.740196 103.02162 91.785095 102.45008 z M 75.027462 113.18017 C 74.684329 113.3383 74.332932 113.483 73.996 113.64836 C 73.019312 114.11655 72.029198 114.55063 71.094885 115.08186 C 70.32387 115.50871 69.822611 116.18464 69.898059 117.13549 C 69.973507 118.08633 70.620493 118.6031 71.417346 118.81704 C 73.969137 119.49193 76.512634 120.28465 79.105766 120.69186 C 90.795014 122.47677 102.54719 122.78682 114.33256 122.07679 C 121.97966 121.60756 129.62565 121.14661 137.25829 120.48515 C 142.11279 120.0645 146.9476 119.34724 151.49928 117.4042 C 152.79843 116.83886 153.89913 116.10816 154.19472 114.37183 C 154.9647 115.21313 154.78591 115.88801 154.18129 116.32933 C 152.75812 117.3763 151.35459 118.52765 149.77329 119.27179 C 145.86757 121.09081 141.67974 122.06335 137.45776 122.81369 C 128.55285 124.39913 119.54467 124.92313 110.5302 125.19804 C 101.04755 125.48123 91.579453 125.28796 82.123669 124.68851 C 76.760672 124.34435 71.445268 123.65499 66.260038 122.18737 C 65.126254 121.84941 64.032787 121.38742 63.014758 120.79521 C 61.87994 120.14719 61.701141 119.1612 62.512463 118.13491 C 63.097443 117.35562 63.818841 116.68797 64.644633 116.17017 C 67.827911 114.34392 71.313981 113.42822 75.027462 113.18017 z M 159.32413 121.80083 L 159.53807 122.04888 C 158.75362 122.74548 158.03842 123.52372 157.18575 124.12317 C 153.15601 126.92818 148.59095 128.38234 143.846 129.33319 C 132.55466 131.58009 121.15388 132.42137 109.66411 132.27565 C 102.61542 132.18676 95.601937 131.79403 88.70518 130.18792 C 88.608028 130.16726 88.511909 130.12591 88.415792 130.098 L 88.423027 129.85719 C 90.561404 129.85719 92.713197 129.72594 94.845374 129.87786 C 105.2148 130.5941 115.57689 130.75326 125.94735 129.94711 C 134.81712 129.2505 143.63926 128.26557 152.04912 125.12983 C 154.29085 124.28854 156.423 123.14443 158.60272 122.1388 C 158.84354 122.02821 159.08434 121.91142 159.32413 121.80083 z " /><g
       id="g2624"
       transform="matrix(0.26458333,0,0,0.26458333,85.224341,168.55734)" /></g><style
     type="text/css"
     id="style234">
	.st0{fill:#FFF800;}
	.st1{fill:#96E620;}
	.st2{fill:#FFFFFF;}
</style><style
     type="text/css"
     id="style1241">
	.st0{fill:#FFFFFF;}
</style><style
     type="text/css"
     id="style2148">
	.st0{fill:#E7362E;}
	.st1{fill:#FFFFFF;}
</style></svg>
