<?xml version="1.0" encoding="UTF-8" standalone="no"?>
<!-- Created with Inkscape (http://www.inkscape.org/) -->

<svg
   width="1500"
   height="500"
   viewBox="0 0 396.87498 132.29167"
   version="1.1"
   id="svg5"
   inkscape:version="1.2.2 (732a01da63, 2022-12-09)"
   xml:space="preserve"
   sodipodi:docname="kodi.svg"
   xmlns:inkscape="http://www.inkscape.org/namespaces/inkscape"
   xmlns:sodipodi="http://sodipodi.sourceforge.net/DTD/sodipodi-0.dtd"
   xmlns="http://www.w3.org/2000/svg"
   xmlns:svg="http://www.w3.org/2000/svg"><sodipodi:namedview
     id="namedview7"
     pagecolor="#000000"
     bordercolor="#111111"
     borderopacity="1"
     inkscape:showpageshadow="0"
     inkscape:pageopacity="0"
     inkscape:pagecheckerboard="1"
     inkscape:deskcolor="#d1d1d1"
     inkscape:document-units="mm"
     showgrid="false"
     inkscape:zoom="0.62760417"
     inkscape:cx="479.60166"
     inkscape:cy="262.90456"
     inkscape:window-width="1920"
     inkscape:window-height="1009"
     inkscape:window-x="-8"
     inkscape:window-y="-8"
     inkscape:window-maximized="1"
     inkscape:current-layer="layer1" /><defs
     id="defs2">
			
			
		
				
				
				
			
				
					
				
			
					
						
					
				
			
				
			
		
				
					
				
			
			
			
			
			
			
		
			
			
			
			
			
		
			
			
			
			
				
		
			
			
				
		
			
			
			
			
				
		
		
			
		
		
		
		
		
		
		
		
		
	
		
		
		
		
		
		
		
	</defs><g
     inkscape:label="Layer 1"
     inkscape:groupmode="layer"
     id="layer1"><path
       id="rect231"
       style="fill:#ffffff;stroke-width:0.8001;stroke-linecap:square;paint-order:fill markers stroke"
       d="M 0 0 L 0 67.386068 C -0.0024804662 66.465236 0.37862339 65.54374 1.1435994 64.769173 C 7.9824129 57.854292 14.820929 50.939956 21.661727 44.025736 C 22.114826 43.570654 22.541591 42.949583 23.310205 43.241288 C 24.045085 43.517116 24.335631 44.180725 24.438818 44.915605 C 24.504303 45.370688 24.555607 45.833957 24.555607 46.294332 C 24.563545 53.324307 24.559741 60.351587 24.559741 67.3809 L 24.567493 67.3809 C 24.567493 74.379125 24.577787 81.382655 24.55199 88.382202 C 24.548021 89.047629 24.444916 89.752827 24.206791 90.368644 C 23.739802 91.584403 22.861984 91.735237 21.94388 90.819779 C 18.724565 87.605754 15.514565 84.381805 12.300541 81.162488 C 8.5864548 77.441788 4.8696541 73.721512 1.1575521 69.998828 C 0.38860728 69.227236 0.0024804662 68.3069 0 67.386068 L 0 132.29167 L 64.979496 132.29167 C 63.614909 131.85841 62.627742 130.91494 61.644816 129.9254 C 55.034206 123.28172 48.403347 116.65725 41.778845 110.02481 C 39.409501 107.65348 39.407703 105.121 41.771094 102.75497 C 48.628429 95.894324 55.483191 89.031419 62.339864 82.172762 C 64.619909 79.890733 67.231927 79.883002 69.498083 82.153125 C 76.354756 89.011782 83.209582 95.87417 90.06427 102.73481 C 92.418398 105.0949 92.42648 107.67963 90.08029 110.02119 C 83.400888 116.71316 76.708409 123.39309 70.042236 130.09697 C 69.087091 131.05211 68.105674 131.91596 66.776803 132.29167 L 396.875 132.29167 L 396.875 102.97149 C 396.59917 103.64089 396.38682 103.77609 395.63011 103.77609 C 393.16087 103.77609 390.69173 103.77795 388.2192 103.77609 C 387.34872 103.77609 387.02909 103.45268 387.02909 102.57823 L 387.02909 31.85542 C 387.02909 30.9479 387.3488 30.630172 388.27087 30.630172 C 390.73943 30.630172 393.21039 30.622296 395.67766 30.644124 C 395.98325 30.646241 396.31541 30.767611 396.57734 30.928345 C 396.73411 31.025579 396.77975 31.303454 396.875 31.504537 L 396.875 0 L 0 0 z M 65.600647 1.9161621 C 66.828892 1.9164102 68.057117 2.507113 69.238151 3.688147 C 76.076964 10.528945 82.913765 17.369611 89.750594 24.210409 C 92.100092 26.561891 92.095908 29.146706 89.748527 31.498853 C 81.664189 39.595097 73.575783 47.68896 65.487476 55.780575 C 58.347037 62.93358 51.205883 70.082342 44.06346 77.229395 C 42.738561 78.554294 41.566747 78.245641 41.085864 76.408773 C 40.939021 75.840578 40.927218 75.22716 40.927218 74.633171 C 40.915311 66.706259 40.918949 58.778732 40.918949 50.85116 C 40.918949 43.221904 40.986666 35.590505 40.875541 27.965218 C 40.843791 25.757934 41.370228 24.034255 43.056287 22.5764 C 44.410952 21.404297 45.612638 20.051488 46.88396 18.778182 C 51.909056 13.747132 56.935028 8.7172096 61.962109 3.688147 C 63.144134 2.5061208 64.372402 1.9159141 65.600647 1.9161621 z M 261.68945 29.754256 L 263.77718 29.754256 C 264.44658 29.795928 265.11756 29.837807 265.78894 29.883447 C 270.93112 30.239314 275.85004 31.446827 280.44386 33.832043 C 283.72536 35.538604 286.63522 37.747507 289.23144 40.379447 C 292.04991 43.239593 294.38189 46.443574 296.13541 50.058443 C 297.42459 52.714196 298.31916 55.496809 298.94093 58.376799 C 299.69763 61.908321 299.94758 65.484482 299.79875 69.079504 C 299.556 74.851387 298.27942 80.36597 295.55819 85.500208 C 293.66113 89.083324 291.18584 92.225753 288.24235 95.004537 C 283.52088 99.462103 277.98912 102.36994 271.63252 103.71667 C 269.28103 104.21342 266.91089 104.52699 264.50582 104.6024 C 264.39866 104.60637 264.28963 104.63828 264.18181 104.65614 L 261.35356 104.65614 C 260.73774 104.6105 260.12196 104.56846 259.51077 104.52282 C 252.15139 103.99035 245.43337 101.71817 239.61121 97.083997 C 235.01739 93.42944 231.41752 88.970213 228.96484 83.615051 C 227.71733 80.895796 226.88149 78.043546 226.3252 75.10601 C 225.69748 71.782847 225.49706 68.427799 225.66375 65.057011 C 226.01895 57.962213 227.88842 51.335654 232.00599 45.463892 C 236.82472 38.595313 243.12307 33.709361 251.25701 31.347957 C 253.73616 30.628291 256.2626 30.147741 258.83898 29.950627 C 259.6572 29.887124 260.47376 29.855542 261.28999 29.805933 C 261.42493 29.797995 261.5565 29.772116 261.68945 29.754256 z M 165.82399 30.631722 L 172.92898 30.631722 C 173.08574 30.631722 173.24307 30.625769 173.40182 30.631722 C 174.08709 30.664133 174.4247 31.001602 174.45447 31.684888 C 174.4591 31.786091 174.45447 31.887459 174.45447 31.986678 L 174.45447 66.205261 L 174.45447 66.679651 C 175.0425 66.12998 175.57281 65.639032 176.09933 65.142277 C 179.22736 62.20871 182.34999 59.272992 185.48067 56.340747 C 189.58237 52.497678 193.68631 48.653915 197.78999 44.810185 C 201.22825 41.586899 204.6642 38.35927 208.10048 35.135323 C 209.54841 33.774705 211.00052 32.420056 212.44646 31.055469 C 212.74677 30.771703 213.09182 30.631722 213.50325 30.631722 L 224.38269 30.631722 C 225.00049 30.631722 225.34961 30.85666 225.47926 31.319019 C 225.58642 31.70068 225.43872 31.996683 225.17282 32.253328 C 224.12242 33.250145 223.07566 34.247378 222.02262 35.240226 C 220.15996 36.996399 218.29464 38.747818 216.4333 40.503988 C 213.84899 42.935506 211.27105 45.366763 208.69269 47.80225 C 206.04884 50.29661 203.4067 52.795581 200.76087 55.288615 C 199.00139 56.954829 197.23569 58.613706 195.44182 60.301746 C 196.68734 61.956713 197.92072 63.595396 199.15632 65.235811 C 201.77239 68.711771 204.38585 72.188321 207.0039 75.66825 C 210.36874 80.141029 213.73354 84.612659 217.09838 89.083451 C 220.39773 93.467595 223.69109 97.84873 226.99441 102.2289 C 227.24048 102.55037 227.34577 102.8786 227.17115 103.25365 C 226.99255 103.63134 226.64644 103.75418 226.25751 103.77403 C 226.07825 103.78593 225.89962 103.77609 225.71904 103.77609 C 222.67766 103.77609 219.63531 103.77441 216.59195 103.78023 C 216.07204 103.78023 215.6905 103.60533 215.36308 103.17406 C 209.62626 95.505119 203.87617 87.844369 198.12744 80.182703 C 194.86381 75.832954 191.59676 71.480762 188.33114 67.132336 C 188.30534 67.096618 188.27343 67.064909 188.22779 67.009347 C 187.83025 67.37844 187.43753 67.746253 187.04595 68.110055 C 184.39615 70.586555 181.75006 73.062044 179.10225 75.538542 C 177.64439 76.901147 176.18476 78.265798 174.71698 79.620463 C 174.52648 79.793765 174.44827 79.968142 174.44827 80.226111 C 174.4562 87.633116 174.45447 95.044188 174.45447 102.45318 C 174.45447 102.54049 174.45658 102.63165 174.45447 102.72293 C 174.43462 103.40026 174.08897 103.77006 173.41164 103.77403 C 170.8174 103.78196 168.22533 103.77998 165.63175 103.77403 C 164.97426 103.77006 164.62813 103.40041 164.61424 102.73895 C 164.61239 102.66354 164.61424 102.58224 164.61424 102.50485 L 164.61424 31.921049 L 164.61424 31.851803 C 164.61424 30.960158 164.93565 30.631722 165.82399 30.631722 z M 312.06106 30.632239 C 312.1067 30.630387 312.15013 30.632239 312.1918 30.632239 C 322.26447 30.632239 332.33543 30.608488 342.40546 30.646191 C 347.03566 30.662728 351.46742 31.70279 355.69612 33.595882 C 359.37448 35.240266 362.60421 37.533298 365.41077 40.419238 C 369.98541 45.116913 373.02443 50.656529 374.51667 57.048197 C 375.37657 60.729209 375.73146 64.454902 375.65407 68.223226 C 375.54692 73.28801 374.6672 78.204138 372.74831 82.911735 C 371.14758 86.838809 368.85087 90.328794 365.95699 93.423755 C 361.52192 98.176992 356.12709 101.30106 349.81017 102.833 C 347.08298 103.49247 344.32215 103.78626 341.51559 103.7823 C 331.76306 103.77039 322.00618 103.77808 312.24967 103.77609 C 312.08299 103.77609 311.91386 103.76425 311.75048 103.74044 C 311.38734 103.68289 311.16441 103.46672 311.10091 103.10688 C 311.06717 102.92035 311.0513 102.72903 311.0513 102.54051 C 311.04865 90.763916 311.04871 78.989177 311.04871 67.211918 L 311.04871 31.984611 C 311.04871 31.883408 311.04865 31.782473 311.0513 31.68127 C 311.0632 31.017828 311.40158 30.670603 312.06106 30.632239 z M 264.67635 39.449272 C 262.01265 39.318303 259.3632 39.439516 256.73523 39.916427 C 252.14538 40.750525 248.06128 42.645418 244.54166 45.728475 C 241.1292 48.719586 238.6602 52.352465 237.13488 56.625484 C 235.97667 59.856705 235.51542 63.203794 235.4678 66.620223 C 235.42811 69.273991 235.61462 71.91181 236.19075 74.506047 C 237.23784 79.187847 239.34314 83.319011 242.6286 86.838627 C 245.52843 89.947481 248.97904 92.182323 252.99541 93.550879 C 256.15189 94.625748 259.41063 94.990956 262.65839 95.024691 C 265.27446 95.004847 267.80501 94.790513 270.28944 94.176681 C 275.69818 92.841859 280.19768 90.034833 283.77286 85.756523 C 287.42409 81.390238 289.32041 76.315959 289.83502 70.690259 C 290.01362 68.766076 290.0334 66.836911 289.92029 64.906116 C 289.79329 62.810615 289.51953 60.737107 288.96324 58.709078 C 287.22691 52.378264 283.67169 47.32734 278.20937 43.672786 C 274.12355 40.941625 269.55063 39.692027 264.67635 39.449272 z M 320.90134 40.053369 L 320.90134 94.363232 L 321.33594 94.363232 C 327.89297 94.363232 334.44814 94.368855 341.00451 94.354964 C 342.18058 94.353112 343.3605 94.303701 344.53194 94.214404 C 346.96743 94.02192 349.28981 93.375943 351.51033 92.356637 C 354.41214 91.029752 356.85183 89.093288 358.95328 86.700134 C 360.90988 84.473668 362.45657 81.992305 363.59693 79.257178 C 364.81004 76.345441 365.46197 73.308184 365.70274 70.16626 C 365.92499 67.301484 365.83532 64.449027 365.40405 61.61071 C 364.89142 58.255796 363.80156 55.091559 362.11485 52.144104 C 360.24226 48.866579 357.82277 46.059781 354.71788 43.890861 C 350.99983 41.294637 346.82271 40.087083 342.31554 40.065255 C 335.30012 40.03152 328.28071 40.055354 321.26463 40.053369 L 320.90134 40.053369 z M 104.99928 41.350964 C 106.21594 41.350452 107.43299 41.909447 108.55151 43.028898 C 115.21504 49.69441 121.87118 56.37091 128.54926 63.027161 C 129.54012 64.014717 130.4622 65.019288 130.8809 66.391813 L 130.8809 68.189636 C 130.45823 69.558192 129.53185 70.561131 128.54099 71.550671 C 121.9026 78.164589 115.28704 84.802724 108.66055 91.433179 C 106.27269 93.820379 103.72243 93.814798 101.32663 91.417676 C 94.487818 84.572909 87.6511 77.731913 80.816256 70.887146 C 78.487925 68.556828 78.489723 66.010356 80.824007 63.676733 C 87.696555 56.790295 94.571555 49.909469 101.44807 43.030965 C 102.56627 41.911448 103.78261 41.351477 104.99928 41.350964 z " /><g
       id="g2647"
       transform="matrix(0.26458333,0,0,0.26458333,19.695509,152.67351)" /></g><style
     type="text/css"
     id="style234">
	.st0{fill:#FFF800;}
	.st1{fill:#96E620;}
	.st2{fill:#FFFFFF;}
</style><style
     type="text/css"
     id="style1241">
	.st0{fill:#FFFFFF;}
</style><style
     type="text/css"
     id="style2148">
	.st0{fill:#E7362E;}
	.st1{fill:#FFFFFF;}
</style></svg>
