<?xml version="1.0" encoding="UTF-8" standalone="no"?>
<!-- Created with Inkscape (http://www.inkscape.org/) -->

<svg
   width="1500"
   height="500"
   viewBox="0 0 396.87498 132.29167"
   version="1.1"
   id="svg5"
   inkscape:version="1.2.2 (732a01da63, 2022-12-09)"
   xml:space="preserve"
   sodipodi:docname="laserdisc.svg"
   xmlns:inkscape="http://www.inkscape.org/namespaces/inkscape"
   xmlns:sodipodi="http://sodipodi.sourceforge.net/DTD/sodipodi-0.dtd"
   xmlns:xlink="http://www.w3.org/1999/xlink"
   xmlns="http://www.w3.org/2000/svg"
   xmlns:svg="http://www.w3.org/2000/svg"><sodipodi:namedview
     id="namedview7"
     pagecolor="#000000"
     bordercolor="#111111"
     borderopacity="1"
     inkscape:showpageshadow="0"
     inkscape:pageopacity="0"
     inkscape:pagecheckerboard="1"
     inkscape:deskcolor="#d1d1d1"
     inkscape:document-units="mm"
     showgrid="false"
     inkscape:zoom="0.62760417"
     inkscape:cx="474.82157"
     inkscape:cy="243.78423"
     inkscape:window-width="1920"
     inkscape:window-height="1009"
     inkscape:window-x="-8"
     inkscape:window-y="-8"
     inkscape:window-maximized="1"
     inkscape:current-layer="layer1" /><defs
     id="defs2">
			
			
		
				
				
				
			
				
					
				
			
					
						
					
				
			
				
			
		
				
					
				
			
			
			
			
			
			
		
			
			
			
			
			
		
			
			
			
			
				
		
			
			
				
		
			
			
			
			
				
		
		
			
		
		
		
		
		
		
		
		
		
	
		
		
		
		
		
		
		
	<linearGradient
   id="linearGradient34773"
   gradientUnits="userSpaceOnUse"
   x1="15.196"
   y1="312.37051"
   x2="3854.196"
   y2="312.37051"
   gradientTransform="translate(1160.9631,-2.2896484e-5)">
				<stop
   offset="0"
   style="stop-color:#f3dd42;stop-opacity:1"
   id="stop34769" />
				<stop
   offset="1"
   style="stop-color:#d7861b;stop-opacity:1"
   id="stop34771" />
			</linearGradient><linearGradient
   id="SVGID_1_"
   gradientUnits="userSpaceOnUse"
   x1="15.196"
   y1="312.37051"
   x2="3854.196"
   y2="312.37051"
   gradientTransform="translate(1160.9631,-2.2896484e-5)">
				<stop
   offset="0"
   style="stop-color:#FF2422"
   id="stop4" />
				<stop
   offset="1"
   style="stop-color:#C24FFF"
   id="stop6" />
			</linearGradient><linearGradient
   xlink:href="#linearGradient34773"
   id="linearGradient6574"
   gradientUnits="userSpaceOnUse"
   gradientTransform="translate(833.68668,630.53366)"
   x1="15.196"
   y1="312.37051"
   x2="3588.2239"
   y2="316.50259" /></defs><g
     inkscape:label="Layer 1"
     inkscape:groupmode="layer"
     id="layer1"><path
       id="rect231"
       style="fill:#ffffff;stroke-width:0.8001;stroke-linecap:square;paint-order:fill markers stroke"
       d="M 0 0 L 0 104.83701 L 4.0974243 79.917086 L 26.629899 79.917086 L 25.947253 85.377734 L 44.725435 85.377734 L 41.992786 104.83701 L 0 104.83701 L 0 132.29167 L 396.875 132.29167 L 396.875 48.126261 L 394.18886 64.276697 C 385.94337 60.933501 381.45789 67.495973 379.87449 73.451331 L 357.10068 73.424976 C 359.81535 58.509591 367.08195 46.325541 387.86005 45.852498 C 391.93762 45.759935 395.17915 47.14051 396.875 48.126261 L 396.875 0 L 0 0 z M 12.973885 24.6078 L 35.847941 24.6078 L 27.654126 72.745947 L 5.4627157 72.745947 L 12.973885 24.6078 z M 238.64435 24.6078 L 259.47098 24.6078 C 276.2002 24.6078 292.92711 31.435415 289.85518 62.162614 C 289.4494 66.221439 289.08332 70.059596 288.24752 73.517476 L 265.15591 73.491121 C 265.95642 70.86683 266.55396 67.625173 266.97957 64.552132 C 268.68645 52.262108 266.64035 45.434436 257.76411 45.434436 L 253.41709 73.442546 L 231.69542 73.407406 L 232.67004 67.283232 C 226.86575 64.552007 217.47575 69.843844 216.6245 73.429626 L 195.79787 73.429626 L 199.55319 48.164502 L 219.18249 48.164502 L 218.32931 53.627218 C 218.15949 54.651565 218.67113 54.993286 219.52458 54.139848 C 223.96379 48.164641 232.32845 47.14016 235.7422 46.457629 L 238.64435 24.6078 z M 297.70793 28.705225 L 318.5325 28.705225 L 316.48611 42.360205 L 295.65947 42.360205 L 297.70793 28.705225 z M 385.58628 35.361666 L 389.88421 35.361666 L 389.88421 35.995736 L 388.09362 35.995736 L 388.09362 40.654366 L 387.37687 40.654366 L 387.37687 35.995736 L 385.58628 35.995736 L 385.58628 35.361666 z M 390.52603 35.361666 L 391.55129 35.361666 L 393.06231 39.835295 L 393.07523 39.835295 L 394.57953 35.361666 L 395.59601 35.361666 L 395.59601 40.654366 L 394.90354 40.654366 L 394.90354 37.529492 C 394.90354 37.374106 394.92008 36.703671 394.92008 36.209676 L 394.90354 36.209676 L 393.41475 40.654366 L 392.70678 40.654366 L 391.2185 36.217428 L 391.20506 36.217428 C 391.20506 36.70372 391.2185 37.374006 391.2185 37.529492 L 391.2185 40.654366 L 390.52603 40.654366 L 390.52603 35.361666 z M 126.40314 45.852498 C 132.36068 45.852498 136.5024 47.251683 141.2658 50.173682 L 138.99772 65.909672 C 135.53985 63.016345 129.27792 61.478935 125.56753 61.478935 C 123.99407 61.478935 122.03922 61.850714 121.55847 63.718591 C 120.8583 66.429966 123.89571 67.920753 127.59066 69.226265 C 130.64604 70.306869 133.24283 71.643446 135.31577 73.403271 L 102.93584 73.429626 C 101.6766 70.915609 101.15055 67.907608 101.65116 64.32734 C 103.36355 52.07262 112.57606 45.852498 126.40314 45.852498 z M 171.19679 45.852498 C 182.65322 45.775323 187.71647 50.26636 191.56247 55.862223 C 193.76773 59.069798 194.0314 66.136517 193.47346 73.433761 L 143.01763 73.420325 C 146.2627 57.692319 154.48632 45.966114 171.19679 45.852498 z M 340.12446 45.852498 C 346.08312 45.852498 350.22476 47.251683 354.98815 50.173682 L 352.71852 65.909155 C 349.26066 63.015828 342.99812 61.478935 339.28885 61.478935 C 337.71649 61.478935 335.76004 61.850714 335.27928 63.718591 C 334.58021 66.429966 337.61699 67.920753 341.31302 69.226265 C 344.36733 70.306869 346.96529 71.642929 349.03606 73.402755 L 316.65819 73.42911 C 315.39898 70.915092 314.87189 67.907091 315.37248 64.326823 C 317.08597 52.072103 326.29738 45.852498 340.12446 45.852498 z M 69.826746 47.047774 C 73.573511 46.970582 80.572303 47.482241 83.31016 52.835535 L 83.90754 52.95129 L 84.793274 48.113859 L 101.7018 48.113859 L 97.807467 73.429626 L 78.135282 73.429626 C 78.15032 72.000607 78.133292 71.153513 78.063452 70.152307 C 77.862686 67.563303 77.052382 65.31746 74.467806 65.31746 C 71.769664 65.31746 70.155454 68.01571 69.025244 71.277303 C 68.864177 71.784514 68.723394 72.274107 68.089384 73.420841 L 47.00695 73.407406 C 49.805441 61.389859 56.103308 47.331162 69.826746 47.047774 z M 294.80578 48.164502 L 315.63035 48.164502 L 311.87709 73.429626 L 291.05045 73.429626 L 294.80578 48.164502 z M 171.52235 59.026888 C 167.81307 59.026888 165.83579 63.52325 165.52375 66.557694 L 175.75413 66.557694 C 176.09707 63.298307 175.45765 59.026888 171.52235 59.026888 z M 96.677303 79.811666 L 92.723022 104.90781 L 75.468778 104.90781 L 76.482153 99.910697 C 72.207241 105.3489 68.783711 106.65861 61.589006 106.65861 C 47.849026 106.65861 45.653726 91.415631 46.524809 79.921737 L 67.426375 79.917086 L 67.426375 79.917603 C 67.25114 81.527439 67.129787 83.578042 67.31062 85.421659 C 67.558704 87.671035 68.432061 89.470508 70.566752 89.470508 C 73.378493 89.470508 75.072005 86.996315 76.04342 84.076522 C 76.592552 82.554905 76.985245 81.297807 77.269702 79.864376 L 96.677303 79.811666 z M 286.03577 79.869027 C 279.85657 96.805554 267.24889 104.83701 248.88558 104.83701 L 226.69366 104.83701 L 230.65879 79.921737 L 252.59027 79.908818 L 251.61772 86.400928 C 257.24999 86.91255 259.73341 83.948805 262.21655 79.926388 L 286.03577 79.869027 z M 142.16755 79.900033 L 162.83451 79.926388 C 162.00531 84.9456 161.81543 92.827182 166.39139 93.382931 C 169.33872 93.74458 172.41066 91.353843 173.34239 85.298153 L 191.85392 85.298153 C 188.62758 104.32528 177.47643 107.77884 164.21168 107.6818 C 149.75942 107.57587 141.10683 95.808888 142.16755 79.900033 z M 356.25577 79.904167 L 379.39803 79.926904 C 379.95388 83.644825 382.0953 87.110962 386.26531 87.110962 L 390.7994 86.766797 L 388.1577 104.84166 C 384.93803 105.69291 381.86582 106.20435 377.69788 106.14701 C 361.83534 105.9221 355.33397 94.260512 356.25577 79.904167 z M 194.77364 79.917603 L 215.59873 79.917603 L 211.8434 104.83701 L 191.0178 104.83701 L 194.77364 79.917603 z M 290.02726 79.917603 L 310.85131 79.917603 L 307.09598 104.83701 L 286.26935 104.83701 L 290.02726 79.917603 z M 140.03951 79.970312 C 140.98007 82.550478 141.2614 85.655525 140.80381 88.932556 C 138.93262 102.30977 127.45272 107.34229 115.2002 107.34229 C 107.10574 107.34229 103.70093 105.83375 97.264864 102.00979 L 100.14272 84.403117 C 102.33477 87.212669 109.76341 91.693649 114.73408 91.43783 C 116.64274 91.340755 120.49749 90.026484 120.79521 87.891793 C 121.094 85.757068 120.17539 84.182498 115.38004 82.656453 C 113.13618 81.946338 111.00358 81.192068 109.11479 80.027673 L 140.03951 79.970312 z M 353.7598 79.970312 C 354.70146 82.550494 354.9811 85.655525 354.52461 88.932556 C 352.65455 102.30977 341.17404 107.34229 328.92153 107.34229 C 320.82596 107.34229 317.42119 105.83375 310.98619 102.00979 L 313.86405 84.4026 C 316.05608 87.212136 323.48318 91.693632 328.45385 91.43783 C 330.36362 91.340755 334.21881 90.0265 334.51653 87.891793 C 334.81644 85.757068 333.89666 84.182498 329.10239 82.656453 C 326.85743 81.946338 324.72487 81.192068 322.83714 80.027673 L 353.7598 79.970312 z " /><g
       id="g1579"
       transform="matrix(1.6708226,0,0,1.6708226,-1043.7137,-1235.1206)"
       style="fill:#ffffff;fill-opacity:1;stroke:none;stroke-opacity:1" /></g><style
     type="text/css"
     id="style234">
	.st0{fill:#FFF800;}
	.st1{fill:#96E620;}
	.st2{fill:#FFFFFF;}
</style><style
     type="text/css"
     id="style1241">
	.st0{fill:#FFFFFF;}
</style><style
     type="text/css"
     id="style2148">
	.st0{fill:#E7362E;}
	.st1{fill:#FFFFFF;}
</style><style
     type="text/css"
     id="style2">
	.st0{fill:#FFFFFF;}
	.st1{fill:#FF0000;}
	.st2{fill:url(#SVGID_1_);}
	.st3{fill:url(#SVGID_00000060022068257817767130000001067164073883981741_);}
	.st4{fill:url(#SVGID_00000144308182761068376180000004131709304805192586_);}
	.st5{fill:url(#SVGID_00000000935997520668853970000011105419993307822477_);}
	.st6{fill:url(#SVGID_00000018200174457167754170000000853354448091225986_);}
	.st7{fill:url(#SVGID_00000072987630451721579260000010409738167651109522_);}
	.st8{fill:#3636FF;}
	.st9{display:none;}
	.st10{display:inline;}
	.st11{enable-background:new    ;}
	.st12{fill:url(#SVGID_00000099639162208554751810000013272208193612295339_);}
	.st13{fill:url(#SVGID_00000158736166008707814920000018426778185460247990_);}
	.st14{fill:url(#SVGID_00000133527000259551881150000004185836194023049859_);}
	.st15{fill:url(#SVGID_00000093164219829473752460000004603917870326250679_);}
	.st16{fill:url(#SVGID_00000156556395246081825560000005894267688922753411_);}
	.st17{fill:url(#SVGID_00000135690321830567168220000000437954853257014148_);}
	.st18{fill:url(#SVGID_00000040565659643257570880000002075315462357006765_);}
	.st19{fill:url(#SVGID_00000017508175736194757820000008863537906517323707_);}
	.st20{fill:url(#SVGID_00000126293465477839731700000000626789561221784705_);}
	.st21{fill:url(#SVGID_00000087403315896914670680000008996143154280075168_);}
	.st22{fill:url(#SVGID_00000151540686432933406660000011628697137491540393_);}
	.st23{fill:url(#SVGID_00000143589059756432772880000012524823099024141722_);}
	.st24{fill:url(#SVGID_00000052088033699595628130000015515451372212444082_);}
	.st25{fill:url(#SVGID_00000126294377186336552610000001799937443100725399_);}
	.st26{fill:url(#SVGID_00000070835762807858034660000013936331226864194476_);}
	.st27{fill:url(#SVGID_00000092457199491666826160000016742156659903073436_);}
	.st28{fill:url(#SVGID_00000138556585880754416440000017272986633013561527_);}
	.st29{fill:url(#SVGID_00000032624778419303139080000015394367773870234245_);}
	.st30{fill:url(#SVGID_00000040539262103052545880000003837399106474199717_);}
	.st31{fill:url(#SVGID_00000115483974547727894610000006699104590764616355_);}
	.st32{fill:url(#SVGID_00000041285316495664937430000010139118778734034608_);}
	.st33{fill:url(#SVGID_00000178199001922562380240000009661348160359078294_);}
	.st34{fill:url(#SVGID_00000145019290134935790460000010249637267404127883_);}
	.st35{fill:url(#SVGID_00000117636406951782473700000003654222835714608307_);}
	.st36{fill:url(#SVGID_00000158745280490234840560000003483236744759648947_);}
	.st37{fill:url(#SVGID_00000146474604070782972690000015670225624893543309_);}
	.st38{fill:url(#SVGID_00000173847499186819278890000011550608873747634579_);}
	.st39{fill:url(#SVGID_00000141427567100195222880000010417319602782459071_);}
</style></svg>
