<?xml version="1.0" encoding="UTF-8" standalone="no"?>
<!-- Created with Inkscape (http://www.inkscape.org/) -->

<svg
   width="1500"
   height="500"
   viewBox="0 0 396.87498 132.29167"
   version="1.1"
   id="svg5"
   inkscape:version="1.2.2 (732a01da63, 2022-12-09)"
   xml:space="preserve"
   sodipodi:docname="lcdgames.svg"
   xmlns:inkscape="http://www.inkscape.org/namespaces/inkscape"
   xmlns:sodipodi="http://sodipodi.sourceforge.net/DTD/sodipodi-0.dtd"
   xmlns:xlink="http://www.w3.org/1999/xlink"
   xmlns="http://www.w3.org/2000/svg"
   xmlns:svg="http://www.w3.org/2000/svg"><sodipodi:namedview
     id="namedview7"
     pagecolor="#000000"
     bordercolor="#111111"
     borderopacity="1"
     inkscape:showpageshadow="0"
     inkscape:pageopacity="0"
     inkscape:pagecheckerboard="1"
     inkscape:deskcolor="#d1d1d1"
     inkscape:document-units="mm"
     showgrid="false"
     inkscape:zoom="0.62760417"
     inkscape:cx="474.82157"
     inkscape:cy="243.78423"
     inkscape:window-width="1920"
     inkscape:window-height="1009"
     inkscape:window-x="-8"
     inkscape:window-y="-8"
     inkscape:window-maximized="1"
     inkscape:current-layer="layer1" /><defs
     id="defs2">
			
			
		
				
				
				
			
				
					
				
			
					
						
					
				
			
				
			
		
				
					
				
			
			
			
			
			
			
		
			
			
			
			
			
		
			
			
			
			
				
		
			
			
				
		
			
			
			
			
				
		
		
			
		
		
		
		
		
		
		
		
		
	
		
		
		
		
		
		
		
	<linearGradient
   id="linearGradient34773"
   gradientUnits="userSpaceOnUse"
   x1="15.196"
   y1="312.37051"
   x2="3854.196"
   y2="312.37051"
   gradientTransform="translate(1160.9631,-2.2896484e-5)">
				<stop
   offset="0"
   style="stop-color:#f3dd42;stop-opacity:1"
   id="stop34769" />
				<stop
   offset="1"
   style="stop-color:#d7861b;stop-opacity:1"
   id="stop34771" />
			</linearGradient><linearGradient
   id="SVGID_1_"
   gradientUnits="userSpaceOnUse"
   x1="15.196"
   y1="312.37051"
   x2="3854.196"
   y2="312.37051"
   gradientTransform="translate(1160.9631,-2.2896484e-5)">
				<stop
   offset="0"
   style="stop-color:#FF2422"
   id="stop4" />
				<stop
   offset="1"
   style="stop-color:#C24FFF"
   id="stop6" />
			</linearGradient><linearGradient
   xlink:href="#linearGradient34773"
   id="linearGradient6574"
   gradientUnits="userSpaceOnUse"
   gradientTransform="translate(833.68668,630.53366)"
   x1="15.196"
   y1="312.37051"
   x2="3588.2239"
   y2="316.50259" /></defs><g
     inkscape:label="Layer 1"
     inkscape:groupmode="layer"
     id="layer1"><path
       id="rect231"
       style="fill:#ffffff;stroke-width:0.8001;stroke-linecap:square;paint-order:fill markers stroke"
       d="M 0 0 L 0 41.329777 L 6.4879761 41.329777 L 6.4879761 47.817753 L 0 47.817753 L 0 48.513318 L 6.4879761 48.513318 L 6.4879761 55.001294 L 0 55.001294 L 0 55.696342 L 6.4879761 55.696342 L 6.4879761 62.184318 L 0 62.184318 L 0 62.879883 L 6.4879761 62.879883 L 6.4879761 69.367859 L 0 69.367859 L 0 70.062907 L 6.4879761 70.062907 L 6.4879761 76.550883 L 0 76.550883 L 0 77.246448 L 6.4879761 77.246448 L 6.4879761 83.734424 L 0 83.734424 L 0 84.429472 L 6.4879761 84.429472 L 6.4879761 90.917448 L 0 90.917448 L 0 132.29167 L 396.875 132.29167 L 396.875 83.734424 L 390.38702 83.734424 L 390.38702 77.246448 L 396.875 77.246448 L 396.875 76.550883 L 390.38702 76.550883 L 390.38702 70.062907 L 396.875 70.062907 L 396.875 62.184318 L 390.38702 62.184318 L 390.38702 55.696342 L 396.875 55.696342 L 396.875 0 L 0 0 z M 7.3210002 41.329777 L 13.808976 41.329777 L 13.808976 47.817753 L 7.3210002 47.817753 L 7.3210002 41.329777 z M 56.966549 41.329777 L 63.454008 41.329777 L 63.454008 47.817753 L 56.966549 47.817753 L 56.966549 41.329777 z M 64.371265 41.329777 L 70.858724 41.329777 L 70.858724 47.817753 L 64.371265 47.817753 L 64.371265 41.329777 z M 71.775981 41.329777 L 78.263957 41.329777 L 78.263957 47.817753 L 71.775981 47.817753 L 71.775981 41.329777 z M 79.180697 41.329777 L 85.668673 41.329777 L 85.668673 47.817753 L 79.180697 47.817753 L 79.180697 41.329777 z M 92.377307 41.329777 L 98.865283 41.329777 L 98.865283 47.817753 L 92.377307 47.817753 L 92.377307 41.329777 z M 99.76652 41.329777 L 106.25398 41.329777 L 106.25398 47.817753 L 99.76652 47.817753 L 99.76652 41.329777 z M 107.15522 41.329777 L 113.64319 41.329777 L 113.64319 47.817753 L 107.15522 47.817753 L 107.15522 41.329777 z M 114.54443 41.329777 L 121.03241 41.329777 L 121.03241 47.817753 L 114.54443 47.817753 L 114.54443 41.329777 z M 121.93364 41.329777 L 128.42162 41.329777 L 128.42162 47.817753 L 121.93364 47.817753 L 121.93364 41.329777 z M 178.01601 41.329777 L 184.50398 41.329777 L 184.50398 47.817753 L 178.01601 47.817753 L 178.01601 41.329777 z M 185.42072 41.329777 L 191.9087 41.329777 L 191.9087 47.817753 L 185.42072 47.817753 L 185.42072 41.329777 z M 192.82544 41.329777 L 199.31342 41.329777 L 199.31342 47.817753 L 192.82544 47.817753 L 192.82544 41.329777 z M 200.23016 41.329777 L 206.71813 41.329777 L 206.71813 47.817753 L 200.23016 47.817753 L 200.23016 41.329777 z M 7.3210002 48.513318 L 13.808976 48.513318 L 13.808976 55.000777 L 7.3210002 55.000777 L 7.3210002 48.513318 z M 49.655884 48.513318 L 56.14386 48.513318 L 56.14386 55.000777 L 49.655884 55.000777 L 49.655884 48.513318 z M 56.977401 48.513318 L 63.46486 48.513318 L 63.46486 55.000777 L 56.977401 55.000777 L 56.977401 48.513318 z M 92.377307 48.513318 L 98.865283 48.513318 L 98.865283 55.001294 L 92.377307 55.001294 L 92.377307 48.513318 z M 99.76652 48.513318 L 106.25398 48.513318 L 106.25398 55.001294 L 99.76652 55.001294 L 99.76652 48.513318 z M 121.95638 48.513318 L 128.44436 48.513318 L 128.44436 55.001294 L 121.95638 55.001294 L 121.95638 48.513318 z M 129.34559 48.513318 L 135.83357 48.513318 L 135.83357 55.001294 L 129.34559 55.001294 L 129.34559 48.513318 z M 170.70586 48.513318 L 177.19384 48.513318 L 177.19384 55.001294 L 170.70586 55.001294 L 170.70586 48.513318 z M 178.02686 48.513318 L 184.51484 48.513318 L 184.51484 55.001294 L 178.02686 55.001294 L 178.02686 48.513318 z M 7.3210002 55.696342 L 13.808976 55.696342 L 13.808976 62.184318 L 7.3210002 62.184318 L 7.3210002 55.696342 z M 42.334884 55.696342 L 48.82286 55.696342 L 48.82286 62.184318 L 42.334884 62.184318 L 42.334884 55.696342 z M 49.655884 55.696342 L 56.14386 55.696342 L 56.14386 62.184318 L 49.655884 62.184318 L 49.655884 55.696342 z M 92.377307 55.696342 L 98.865283 55.696342 L 98.865283 62.184318 L 92.377307 62.184318 L 92.377307 55.696342 z M 99.76652 55.696342 L 106.25398 55.696342 L 106.25398 62.184318 L 99.76652 62.184318 L 99.76652 55.696342 z M 129.3549 55.696342 L 135.84235 55.696342 L 135.84235 62.184318 L 129.3549 62.184318 L 129.3549 55.696342 z M 136.74359 55.696342 L 143.23157 55.696342 L 143.23157 62.184318 L 136.74359 62.184318 L 136.74359 55.696342 z M 163.38486 55.696342 L 169.87232 55.696342 L 169.87232 62.184318 L 163.38486 62.184318 L 163.38486 55.696342 z M 170.70586 55.696342 L 177.19384 55.696342 L 177.19384 62.184318 L 170.70586 62.184318 L 170.70586 55.696342 z M 227.44658 55.696342 L 233.93404 55.696342 L 233.93404 62.184318 L 227.44658 62.184318 L 227.44658 55.696342 z M 234.72521 55.696342 L 241.21318 55.696342 L 241.21318 62.184318 L 234.72521 62.184318 L 234.72521 55.696342 z M 242.04621 55.696342 L 248.53418 55.696342 L 248.53418 62.184318 L 242.04621 62.184318 L 242.04621 55.696342 z M 262.3876 55.696342 L 268.87558 55.696342 L 268.87558 62.184318 L 262.3876 62.184318 L 262.3876 55.696342 z M 269.66623 55.696342 L 276.1542 55.696342 L 276.1542 62.184318 L 269.66623 62.184318 L 269.66623 55.696342 z M 276.98723 55.696342 L 283.4752 55.696342 L 283.4752 62.184318 L 276.98723 62.184318 L 276.98723 55.696342 z M 291.62974 55.696342 L 298.11772 55.696342 L 298.11772 62.184318 L 291.62974 62.184318 L 291.62974 55.696342 z M 298.90837 55.696342 L 305.39635 55.696342 L 305.39635 62.184318 L 298.90837 62.184318 L 298.90837 55.696342 z M 306.22989 55.696342 L 312.71735 55.696342 L 312.71735 62.184318 L 306.22989 62.184318 L 306.22989 55.696342 z M 332.98588 55.696342 L 339.47385 55.696342 L 339.47385 62.184318 L 332.98588 62.184318 L 332.98588 55.696342 z M 340.2645 55.696342 L 346.75248 55.696342 L 346.75248 62.184318 L 340.2645 62.184318 L 340.2645 55.696342 z M 347.5855 55.696342 L 354.07348 55.696342 L 354.07348 62.184318 L 347.5855 62.184318 L 347.5855 55.696342 z M 375.74451 55.696342 L 382.23248 55.696342 L 382.23248 62.184318 L 375.74451 62.184318 L 375.74451 55.696342 z M 383.06602 55.696342 L 389.554 55.696342 L 389.554 62.184318 L 383.06602 62.184318 L 383.06602 55.696342 z M 7.3210002 62.879883 L 13.808976 62.879883 L 13.808976 69.367859 L 7.3210002 69.367859 L 7.3210002 62.879883 z M 42.334884 62.879883 L 48.82286 62.879883 L 48.82286 69.367859 L 42.334884 69.367859 L 42.334884 62.879883 z M 49.655884 62.879883 L 56.14386 62.879883 L 56.14386 69.367859 L 49.655884 69.367859 L 49.655884 62.879883 z M 92.377307 62.879883 L 98.865283 62.879883 L 98.865283 69.367859 L 92.377307 69.367859 L 92.377307 62.879883 z M 99.76652 62.879883 L 106.25398 62.879883 L 106.25398 69.367859 L 99.76652 69.367859 L 99.76652 62.879883 z M 129.3549 62.879883 L 135.84235 62.879883 L 135.84235 69.367859 L 129.3549 69.367859 L 129.3549 62.879883 z M 136.74359 62.879883 L 143.23157 62.879883 L 143.23157 69.367859 L 136.74359 69.367859 L 136.74359 62.879883 z M 163.38486 62.879883 L 169.87232 62.879883 L 169.87232 69.367859 L 163.38486 69.367859 L 163.38486 62.879883 z M 170.70586 62.879883 L 177.19384 62.879883 L 177.19384 69.367859 L 170.70586 69.367859 L 170.70586 62.879883 z M 192.62907 62.879883 L 199.11705 62.879883 L 199.11705 69.367859 L 192.62907 69.367859 L 192.62907 62.879883 z M 199.90769 62.879883 L 206.39567 62.879883 L 206.39567 69.367859 L 199.90769 69.367859 L 199.90769 62.879883 z M 207.22869 62.879883 L 213.71667 62.879883 L 213.71667 69.367859 L 207.22869 69.367859 L 207.22869 62.879883 z M 242.04621 62.879883 L 248.53418 62.879883 L 248.53418 69.367859 L 242.04621 69.367859 L 242.04621 62.879883 z M 249.36721 62.879883 L 255.85518 62.879883 L 255.85518 69.367859 L 249.36721 69.367859 L 249.36721 62.879883 z M 262.3876 62.879883 L 268.87558 62.879883 L 268.87558 69.367859 L 262.3876 69.367859 L 262.3876 62.879883 z M 269.70912 62.879883 L 276.19658 62.879883 L 276.19658 69.367859 L 269.70912 69.367859 L 269.70912 62.879883 z M 284.30874 62.879883 L 290.79672 62.879883 L 290.79672 69.367859 L 284.30874 69.367859 L 284.30874 62.879883 z M 291.62974 62.879883 L 298.11772 62.879883 L 298.11772 69.367859 L 291.62974 69.367859 L 291.62974 62.879883 z M 306.22989 62.879883 L 312.71735 62.879883 L 312.71735 69.367859 L 306.22989 69.367859 L 306.22989 62.879883 z M 313.55089 62.879883 L 320.03886 62.879883 L 320.03886 69.367859 L 313.55089 69.367859 L 313.55089 62.879883 z M 325.66488 62.879883 L 332.15234 62.879883 L 332.15234 69.367859 L 325.66488 69.367859 L 325.66488 62.879883 z M 332.98588 62.879883 L 339.47385 62.879883 L 339.47385 69.367859 L 332.98588 69.367859 L 332.98588 62.879883 z M 347.5855 62.879883 L 354.07348 62.879883 L 354.07348 69.367859 L 347.5855 69.367859 L 347.5855 62.879883 z M 354.90702 62.879883 L 361.395 62.879883 L 361.395 69.367859 L 354.90702 69.367859 L 354.90702 62.879883 z M 368.4664 62.879883 L 374.95386 62.879883 L 374.95386 69.367859 L 368.4664 69.367859 L 368.4664 62.879883 z M 375.74451 62.879883 L 382.23248 62.879883 L 382.23248 69.367859 L 375.74451 69.367859 L 375.74451 62.879883 z M 7.3210002 70.062907 L 13.808976 70.062907 L 13.808976 76.550883 L 7.3210002 76.550883 L 7.3210002 70.062907 z M 42.334884 70.062907 L 48.82286 70.062907 L 48.82286 76.550883 L 42.334884 76.550883 L 42.334884 70.062907 z M 49.655884 70.062907 L 56.14386 70.062907 L 56.14386 76.550883 L 49.655884 76.550883 L 49.655884 70.062907 z M 92.377307 70.062907 L 98.865283 70.062907 L 98.865283 76.550883 L 92.377307 76.550883 L 92.377307 70.062907 z M 99.76652 70.062907 L 106.25398 70.062907 L 106.25398 76.550883 L 99.76652 76.550883 L 99.76652 70.062907 z M 129.3549 70.062907 L 135.84235 70.062907 L 135.84235 76.550883 L 129.3549 76.550883 L 129.3549 70.062907 z M 136.74359 70.062907 L 143.23157 70.062907 L 143.23157 76.550883 L 136.74359 76.550883 L 136.74359 70.062907 z M 163.38486 70.062907 L 169.87232 70.062907 L 169.87232 76.550883 L 163.38486 76.550883 L 163.38486 70.062907 z M 170.70586 70.062907 L 177.19384 70.062907 L 177.19384 76.550883 L 170.70586 76.550883 L 170.70586 70.062907 z M 199.90769 70.062907 L 206.39567 70.062907 L 206.39567 76.550883 L 199.90769 76.550883 L 199.90769 70.062907 z M 207.22869 70.062907 L 213.71667 70.062907 L 213.71667 76.550883 L 207.22869 76.550883 L 207.22869 70.062907 z M 227.44658 70.062907 L 233.93404 70.062907 L 233.93404 76.550883 L 227.44658 76.550883 L 227.44658 70.062907 z M 234.76758 70.062907 L 241.25556 70.062907 L 241.25556 76.550883 L 234.76758 76.550883 L 234.76758 70.062907 z M 242.04621 70.062907 L 248.53418 70.062907 L 248.53418 76.550883 L 242.04621 76.550883 L 242.04621 70.062907 z M 249.36721 70.062907 L 255.85518 70.062907 L 255.85518 76.550883 L 249.36721 76.550883 L 249.36721 70.062907 z M 262.3876 70.062907 L 268.87558 70.062907 L 268.87558 76.550883 L 262.3876 76.550883 L 262.3876 70.062907 z M 269.70912 70.062907 L 276.19658 70.062907 L 276.19658 76.550883 L 269.70912 76.550883 L 269.70912 70.062907 z M 284.30874 70.062907 L 290.79672 70.062907 L 290.79672 76.550883 L 284.30874 76.550883 L 284.30874 70.062907 z M 291.62974 70.062907 L 298.11772 70.062907 L 298.11772 76.550883 L 291.62974 76.550883 L 291.62974 70.062907 z M 306.22989 70.062907 L 312.71735 70.062907 L 312.71735 76.550883 L 306.22989 76.550883 L 306.22989 70.062907 z M 313.40258 70.062907 L 319.89055 70.062907 L 319.89055 76.550883 L 313.40258 76.550883 L 313.40258 70.062907 z M 325.66488 70.062907 L 332.15234 70.062907 L 332.15234 76.550883 L 325.66488 76.550883 L 325.66488 70.062907 z M 332.98588 70.062907 L 339.47385 70.062907 L 339.47385 76.550883 L 332.98588 76.550883 L 332.98588 70.062907 z M 340.2645 70.062907 L 346.75248 70.062907 L 346.75248 76.550883 L 340.2645 76.550883 L 340.2645 70.062907 z M 347.5855 70.062907 L 354.07348 70.062907 L 354.07348 76.550883 L 347.5855 76.550883 L 347.5855 70.062907 z M 354.90702 70.062907 L 361.395 70.062907 L 361.395 76.550883 L 354.90702 76.550883 L 354.90702 70.062907 z M 368.4664 70.062907 L 374.95386 70.062907 L 374.95386 76.550883 L 368.4664 76.550883 L 368.4664 70.062907 z M 375.74451 70.062907 L 382.23248 70.062907 L 382.23248 76.550883 L 375.74451 76.550883 L 375.74451 70.062907 z M 383.06602 70.062907 L 389.554 70.062907 L 389.554 76.550883 L 383.06602 76.550883 L 383.06602 70.062907 z M 7.3210002 77.246448 L 13.808976 77.246448 L 13.808976 83.733907 L 7.3210002 83.733907 L 7.3210002 77.246448 z M 49.655884 77.246448 L 56.14386 77.246448 L 56.14386 83.733907 L 49.655884 83.733907 L 49.655884 77.246448 z M 56.977401 77.246448 L 63.46486 77.246448 L 63.46486 83.733907 L 56.977401 83.733907 L 56.977401 77.246448 z M 92.377307 77.246448 L 98.865283 77.246448 L 98.865283 83.734424 L 92.377307 83.734424 L 92.377307 77.246448 z M 99.76652 77.246448 L 106.25398 77.246448 L 106.25398 83.734424 L 99.76652 83.734424 L 99.76652 77.246448 z M 121.95638 77.246448 L 128.44436 77.246448 L 128.44436 83.734424 L 121.95638 83.734424 L 121.95638 77.246448 z M 129.34559 77.246448 L 135.83357 77.246448 L 135.83357 83.734424 L 129.34559 83.734424 L 129.34559 77.246448 z M 170.70586 77.246448 L 177.19384 77.246448 L 177.19384 83.734424 L 170.70586 83.734424 L 170.70586 77.246448 z M 178.02686 77.246448 L 184.51484 77.246448 L 184.51484 83.734424 L 178.02686 83.734424 L 178.02686 77.246448 z M 199.90769 77.246448 L 206.39567 77.246448 L 206.39567 83.734424 L 199.90769 83.734424 L 199.90769 77.246448 z M 207.22869 77.246448 L 213.71667 77.246448 L 213.71667 83.734424 L 207.22869 83.734424 L 207.22869 77.246448 z M 220.12507 77.246448 L 226.61304 77.246448 L 226.61304 83.734424 L 220.12507 83.734424 L 220.12507 77.246448 z M 227.44658 77.246448 L 233.93404 77.246448 L 233.93404 83.734424 L 227.44658 83.734424 L 227.44658 77.246448 z M 242.04621 77.246448 L 248.53418 77.246448 L 248.53418 83.734424 L 242.04621 83.734424 L 242.04621 77.246448 z M 249.36721 77.246448 L 255.85518 77.246448 L 255.85518 83.734424 L 249.36721 83.734424 L 249.36721 77.246448 z M 262.3876 77.246448 L 268.87558 77.246448 L 268.87558 83.734424 L 262.3876 83.734424 L 262.3876 77.246448 z M 269.70912 77.246448 L 276.19658 77.246448 L 276.19658 83.734424 L 269.70912 83.734424 L 269.70912 77.246448 z M 284.30874 77.246448 L 290.79672 77.246448 L 290.79672 83.734424 L 284.30874 83.734424 L 284.30874 77.246448 z M 291.62974 77.246448 L 298.11772 77.246448 L 298.11772 83.734424 L 291.62974 83.734424 L 291.62974 77.246448 z M 306.22989 77.246448 L 312.71735 77.246448 L 312.71735 83.734424 L 306.22989 83.734424 L 306.22989 77.246448 z M 313.55089 77.246448 L 320.03886 77.246448 L 320.03886 83.734424 L 313.55089 83.734424 L 313.55089 77.246448 z M 325.66488 77.246448 L 332.15234 77.246448 L 332.15234 83.734424 L 325.66488 83.734424 L 325.66488 77.246448 z M 332.98588 77.246448 L 339.47385 77.246448 L 339.47385 83.734424 L 332.98588 83.734424 L 332.98588 77.246448 z M 383.06602 77.246448 L 389.554 77.246448 L 389.554 83.734424 L 383.06602 83.734424 L 383.06602 77.246448 z M 7.2967122 84.429472 L 13.784688 84.429472 L 13.784688 90.917448 L 7.2967122 90.917448 L 7.2967122 84.429472 z M 56.986186 84.429472 L 63.473645 84.429472 L 63.473645 90.917448 L 56.986186 90.917448 L 56.986186 84.429472 z M 178.03564 84.429472 L 184.52362 84.429472 L 184.52362 90.917448 L 178.03564 90.917448 L 178.03564 84.429472 z M 14.593424 84.444458 L 21.080884 84.444458 L 21.080884 90.932434 L 14.593424 90.932434 L 14.593424 84.444458 z M 64.282381 84.444458 L 70.770357 84.444458 L 70.770357 90.932434 L 64.282381 90.932434 L 64.282381 84.444458 z M 185.33236 84.444458 L 191.82033 84.444458 L 191.82033 90.932434 L 185.33236 90.932434 L 185.33236 84.444458 z M 21.88962 84.458927 L 28.377596 84.458927 L 28.377596 90.946903 L 21.88962 90.946903 L 21.88962 84.458927 z M 71.579093 84.458927 L 78.067069 84.458927 L 78.067069 90.946903 L 71.579093 90.946903 L 71.579093 84.458927 z M 192.62907 84.458927 L 199.11705 84.458927 L 199.11705 90.946903 L 192.62907 90.946903 L 192.62907 84.458927 z M 29.186332 84.473914 L 35.674308 84.473914 L 35.674308 90.96189 L 29.186332 90.96189 L 29.186332 84.473914 z M 78.875806 84.473914 L 85.363782 84.473914 L 85.363782 90.96189 L 78.875806 90.96189 L 78.875806 84.473914 z M 92.377307 84.473914 L 98.865283 84.473914 L 98.865283 90.96189 L 92.377307 90.96189 L 92.377307 84.473914 z M 99.76652 84.473914 L 106.25398 84.473914 L 106.25398 90.96189 L 99.76652 90.96189 L 99.76652 84.473914 z M 107.15522 84.473914 L 113.64319 84.473914 L 113.64319 90.96189 L 107.15522 90.96189 L 107.15522 84.473914 z M 114.54443 84.473914 L 121.03241 84.473914 L 121.03241 90.96189 L 114.54443 90.96189 L 114.54443 84.473914 z M 121.93364 84.473914 L 128.42162 84.473914 L 128.42162 90.96189 L 121.93364 90.96189 L 121.93364 84.473914 z M 199.92578 84.473914 L 206.41376 84.473914 L 206.41376 90.96189 L 199.92578 90.96189 L 199.92578 84.473914 z M 207.22869 84.473914 L 213.71667 84.473914 L 213.71667 90.96189 L 207.22869 90.96189 L 207.22869 84.473914 z M 227.44658 84.473914 L 233.93404 84.473914 L 233.93404 90.96189 L 227.44658 90.96189 L 227.44658 84.473914 z M 234.76758 84.473914 L 241.25556 84.473914 L 241.25556 90.96189 L 234.76758 90.96189 L 234.76758 84.473914 z M 242.04621 84.473914 L 248.53418 84.473914 L 248.53418 90.96189 L 242.04621 90.96189 L 242.04621 84.473914 z M 249.36721 84.473914 L 255.85518 84.473914 L 255.85518 90.96189 L 249.36721 90.96189 L 249.36721 84.473914 z M 262.3876 84.473914 L 268.87558 84.473914 L 268.87558 90.96189 L 262.3876 90.96189 L 262.3876 84.473914 z M 269.70912 84.473914 L 276.19658 84.473914 L 276.19658 90.96189 L 269.70912 90.96189 L 269.70912 84.473914 z M 284.30874 84.473914 L 290.79672 84.473914 L 290.79672 90.96189 L 284.30874 90.96189 L 284.30874 84.473914 z M 291.62974 84.473914 L 298.11772 84.473914 L 298.11772 90.96189 L 291.62974 90.96189 L 291.62974 84.473914 z M 306.22989 84.473914 L 312.71735 84.473914 L 312.71735 90.96189 L 306.22989 90.96189 L 306.22989 84.473914 z M 313.55089 84.473914 L 320.03886 84.473914 L 320.03886 90.96189 L 313.55089 90.96189 L 313.55089 84.473914 z M 332.98588 84.473914 L 339.47385 84.473914 L 339.47385 90.96189 L 332.98588 90.96189 L 332.98588 84.473914 z M 340.2645 84.473914 L 346.75248 84.473914 L 346.75248 90.96189 L 340.2645 90.96189 L 340.2645 84.473914 z M 347.5855 84.473914 L 354.07348 84.473914 L 354.07348 90.96189 L 347.5855 90.96189 L 347.5855 84.473914 z M 354.90702 84.473914 L 361.395 84.473914 L 361.395 90.96189 L 354.90702 90.96189 L 354.90702 84.473914 z M 368.42351 84.473914 L 374.91148 84.473914 L 374.91148 90.96189 L 368.42351 90.96189 L 368.42351 84.473914 z M 375.74451 84.473914 L 382.23248 84.473914 L 382.23248 90.96189 L 375.74451 90.96189 L 375.74451 84.473914 z M 383.06602 84.473914 L 389.554 84.473914 L 389.554 90.96189 L 383.06602 90.96189 L 383.06602 84.473914 z " /><g
       id="g36793"
       transform="matrix(0.2370506,0,0,0.2370506,-143.42533,103.80254)"
       style="fill:#fffffd;fill-opacity:1" /></g><style
     type="text/css"
     id="style234">
	.st0{fill:#FFF800;}
	.st1{fill:#96E620;}
	.st2{fill:#FFFFFF;}
</style><style
     type="text/css"
     id="style1241">
	.st0{fill:#FFFFFF;}
</style><style
     type="text/css"
     id="style2148">
	.st0{fill:#E7362E;}
	.st1{fill:#FFFFFF;}
</style><style
     type="text/css"
     id="style2">
	.st0{fill:#FFFFFF;}
	.st1{fill:#FF0000;}
	.st2{fill:url(#SVGID_1_);}
	.st3{fill:url(#SVGID_00000060022068257817767130000001067164073883981741_);}
	.st4{fill:url(#SVGID_00000144308182761068376180000004131709304805192586_);}
	.st5{fill:url(#SVGID_00000000935997520668853970000011105419993307822477_);}
	.st6{fill:url(#SVGID_00000018200174457167754170000000853354448091225986_);}
	.st7{fill:url(#SVGID_00000072987630451721579260000010409738167651109522_);}
	.st8{fill:#3636FF;}
	.st9{display:none;}
	.st10{display:inline;}
	.st11{enable-background:new    ;}
	.st12{fill:url(#SVGID_00000099639162208554751810000013272208193612295339_);}
	.st13{fill:url(#SVGID_00000158736166008707814920000018426778185460247990_);}
	.st14{fill:url(#SVGID_00000133527000259551881150000004185836194023049859_);}
	.st15{fill:url(#SVGID_00000093164219829473752460000004603917870326250679_);}
	.st16{fill:url(#SVGID_00000156556395246081825560000005894267688922753411_);}
	.st17{fill:url(#SVGID_00000135690321830567168220000000437954853257014148_);}
	.st18{fill:url(#SVGID_00000040565659643257570880000002075315462357006765_);}
	.st19{fill:url(#SVGID_00000017508175736194757820000008863537906517323707_);}
	.st20{fill:url(#SVGID_00000126293465477839731700000000626789561221784705_);}
	.st21{fill:url(#SVGID_00000087403315896914670680000008996143154280075168_);}
	.st22{fill:url(#SVGID_00000151540686432933406660000011628697137491540393_);}
	.st23{fill:url(#SVGID_00000143589059756432772880000012524823099024141722_);}
	.st24{fill:url(#SVGID_00000052088033699595628130000015515451372212444082_);}
	.st25{fill:url(#SVGID_00000126294377186336552610000001799937443100725399_);}
	.st26{fill:url(#SVGID_00000070835762807858034660000013936331226864194476_);}
	.st27{fill:url(#SVGID_00000092457199491666826160000016742156659903073436_);}
	.st28{fill:url(#SVGID_00000138556585880754416440000017272986633013561527_);}
	.st29{fill:url(#SVGID_00000032624778419303139080000015394367773870234245_);}
	.st30{fill:url(#SVGID_00000040539262103052545880000003837399106474199717_);}
	.st31{fill:url(#SVGID_00000115483974547727894610000006699104590764616355_);}
	.st32{fill:url(#SVGID_00000041285316495664937430000010139118778734034608_);}
	.st33{fill:url(#SVGID_00000178199001922562380240000009661348160359078294_);}
	.st34{fill:url(#SVGID_00000145019290134935790460000010249637267404127883_);}
	.st35{fill:url(#SVGID_00000117636406951782473700000003654222835714608307_);}
	.st36{fill:url(#SVGID_00000158745280490234840560000003483236744759648947_);}
	.st37{fill:url(#SVGID_00000146474604070782972690000015670225624893543309_);}
	.st38{fill:url(#SVGID_00000173847499186819278890000011550608873747634579_);}
	.st39{fill:url(#SVGID_00000141427567100195222880000010417319602782459071_);}
</style></svg>
