<?xml version="1.0" encoding="UTF-8" standalone="no"?>
<!-- Created with Inkscape (http://www.inkscape.org/) -->

<svg
   width="1500"
   height="500"
   viewBox="0 0 396.87498 132.29167"
   version="1.1"
   id="svg5"
   inkscape:version="1.2.2 (732a01da63, 2022-12-09)"
   xml:space="preserve"
   sodipodi:docname="lowresnx.svg"
   xmlns:inkscape="http://www.inkscape.org/namespaces/inkscape"
   xmlns:sodipodi="http://sodipodi.sourceforge.net/DTD/sodipodi-0.dtd"
   xmlns:xlink="http://www.w3.org/1999/xlink"
   xmlns="http://www.w3.org/2000/svg"
   xmlns:svg="http://www.w3.org/2000/svg"><sodipodi:namedview
     id="namedview7"
     pagecolor="#000000"
     bordercolor="#111111"
     borderopacity="1"
     inkscape:showpageshadow="0"
     inkscape:pageopacity="0"
     inkscape:pagecheckerboard="1"
     inkscape:deskcolor="#d1d1d1"
     inkscape:document-units="mm"
     showgrid="false"
     inkscape:zoom="0.62760417"
     inkscape:cx="474.82157"
     inkscape:cy="243.78423"
     inkscape:window-width="1920"
     inkscape:window-height="1009"
     inkscape:window-x="-8"
     inkscape:window-y="-8"
     inkscape:window-maximized="1"
     inkscape:current-layer="layer1" /><defs
     id="defs2">
			
			
		
				
				
				
			
				
					
				
			
					
						
					
				
			
				
			
		
				
					
				
			
			
			
			
			
			
		
			
			
			
			
			
		
			
			
			
			
				
		
			
			
				
		
			
			
			
			
				
		
		
			
		
		
		
		
		
		
		
		
		
	
		
		
		
		
		
		
		
	<linearGradient
   id="linearGradient34773"
   gradientUnits="userSpaceOnUse"
   x1="15.196"
   y1="312.37051"
   x2="3854.196"
   y2="312.37051"
   gradientTransform="translate(1160.9631,-2.2896484e-5)">
				<stop
   offset="0"
   style="stop-color:#f3dd42;stop-opacity:1"
   id="stop34769" />
				<stop
   offset="1"
   style="stop-color:#d7861b;stop-opacity:1"
   id="stop34771" />
			</linearGradient><linearGradient
   id="SVGID_1_"
   gradientUnits="userSpaceOnUse"
   x1="15.196"
   y1="312.37051"
   x2="3854.196"
   y2="312.37051"
   gradientTransform="translate(1160.9631,-2.2896484e-5)">
				<stop
   offset="0"
   style="stop-color:#FF2422"
   id="stop4" />
				<stop
   offset="1"
   style="stop-color:#C24FFF"
   id="stop6" />
			</linearGradient><linearGradient
   xlink:href="#linearGradient34773"
   id="linearGradient6574"
   gradientUnits="userSpaceOnUse"
   gradientTransform="translate(833.68668,630.53366)"
   x1="15.196"
   y1="312.37051"
   x2="3588.2239"
   y2="316.50259" /></defs><g
     inkscape:label="Layer 1"
     inkscape:groupmode="layer"
     id="layer1"><path
       id="rect231"
       style="fill:#ffffff;stroke-width:0.8001;stroke-linecap:square;paint-order:fill markers stroke"
       d="M 0 0 L 0 42.942598 L 23.203235 42.942598 L 34.805111 54.543958 L 34.805111 71.946513 L 46.406986 71.946513 L 46.406986 51.643876 L 55.108264 42.942598 L 84.160238 42.942598 L 92.813456 51.643876 L 92.862032 42.942598 L 176.92615 42.942598 L 185.62743 51.643876 L 185.62743 42.942598 L 232.0339 42.942598 L 232.0339 51.643876 L 240.73518 42.942598 L 278.44089 42.942598 L 278.44089 80.647791 L 269.73961 89.349068 L 124.71849 89.349068 L 116.01721 80.647791 L 107.31593 89.349068 L 0 89.349068 L 0 132.29167 L 396.875 132.29167 L 396.875 91.766492 L 299.22721 91.766492 L 299.22721 40.525175 L 396.875 40.525175 L 396.875 0 L 0 0 z M 301.64412 42.942598 L 301.64412 89.349068 L 394.45809 89.349068 L 394.45809 69.046431 L 388.6569 63.245235 L 394.45809 57.444556 L 394.45809 42.942598 L 301.64412 42.942598 z M 5.8006795 48.743278 L 5.8006795 83.548389 L 40.60579 83.548389 L 40.60579 77.747709 L 17.402555 77.747709 L 17.402555 48.743278 L 5.8006795 48.743278 z M 58.008346 48.743278 L 52.207666 54.543958 L 52.207666 77.747709 L 58.008346 83.548389 L 81.212097 83.548389 L 87.012777 77.747709 L 87.012777 54.543958 L 81.212097 48.743278 L 58.008346 48.743278 z M 98.614653 48.743278 L 98.614653 83.548389 L 104.41533 83.548389 L 116.01721 71.946513 L 127.61857 83.548389 L 133.41976 83.548389 L 133.41976 48.743278 L 121.81789 48.743278 L 121.81789 66.097774 L 116.06527 60.296578 L 110.21601 66.145833 L 110.21601 48.743278 L 98.614653 48.743278 z M 145.02112 48.743278 L 145.02112 83.548389 L 156.623 83.548389 L 156.623 69.046431 L 171.12496 83.548389 L 179.82623 83.548389 L 179.82623 77.747709 L 168.22487 66.145833 L 174.02555 66.145833 L 179.82623 60.345154 L 179.82623 54.543958 L 174.02555 48.743278 L 145.02112 48.743278 z M 191.42811 48.743278 L 191.42811 83.548389 L 226.23322 83.548389 L 226.23322 77.747709 L 203.02998 77.747709 L 203.02998 66.145833 L 214.63134 66.145833 L 214.63134 60.345154 L 203.02998 60.345154 L 203.02998 54.543958 L 226.23322 54.543958 L 226.23322 48.743278 L 191.42811 48.743278 z M 243.63577 48.743278 L 237.8351 54.543958 L 237.8351 60.345154 L 243.63577 66.145833 L 261.03833 66.145833 L 261.03833 77.747709 L 237.8351 77.747709 L 237.8351 83.548389 L 266.83901 83.548389 L 272.64021 77.747709 L 272.64021 66.145833 L 266.83901 60.345154 L 249.43645 60.345154 L 249.43645 54.543958 L 272.64021 54.543958 L 272.64021 48.743278 L 243.63577 48.743278 z M 307.44532 48.743278 L 319.04668 48.743278 L 330.64855 60.345154 L 330.64855 48.743278 L 342.25043 48.743278 L 342.25043 83.548389 L 330.64855 83.548389 L 330.64855 77.747709 L 319.04668 66.145833 L 319.04668 83.548389 L 307.44532 83.548389 L 307.44532 48.743278 z M 353.85179 48.743278 L 365.45366 48.743278 L 371.30292 54.543958 L 377.05554 48.743278 L 388.6569 48.743278 L 388.6569 54.543958 L 379.95562 63.245235 L 388.6569 71.946513 L 388.6569 83.548389 L 377.05554 83.548389 L 377.05554 74.798535 L 371.25434 69.046431 L 365.45366 74.798535 L 365.45366 83.548389 L 353.85179 83.548389 L 353.85179 71.946513 L 362.55306 63.245235 L 353.85179 54.543958 L 353.85179 48.743278 z M 63.809542 54.543958 L 75.410901 54.543958 L 75.410901 77.747709 L 63.809542 77.747709 L 63.809542 54.543958 z M 156.623 54.543958 L 168.22487 54.543958 L 168.22487 60.345154 L 156.623 60.345154 L 156.623 54.543958 z " /></g><style
     type="text/css"
     id="style234">
	.st0{fill:#FFF800;}
	.st1{fill:#96E620;}
	.st2{fill:#FFFFFF;}
</style><style
     type="text/css"
     id="style1241">
	.st0{fill:#FFFFFF;}
</style><style
     type="text/css"
     id="style2148">
	.st0{fill:#E7362E;}
	.st1{fill:#FFFFFF;}
</style><style
     type="text/css"
     id="style2">
	.st0{fill:#FFFFFF;}
	.st1{fill:#FF0000;}
	.st2{fill:url(#SVGID_1_);}
	.st3{fill:url(#SVGID_00000060022068257817767130000001067164073883981741_);}
	.st4{fill:url(#SVGID_00000144308182761068376180000004131709304805192586_);}
	.st5{fill:url(#SVGID_00000000935997520668853970000011105419993307822477_);}
	.st6{fill:url(#SVGID_00000018200174457167754170000000853354448091225986_);}
	.st7{fill:url(#SVGID_00000072987630451721579260000010409738167651109522_);}
	.st8{fill:#3636FF;}
	.st9{display:none;}
	.st10{display:inline;}
	.st11{enable-background:new    ;}
	.st12{fill:url(#SVGID_00000099639162208554751810000013272208193612295339_);}
	.st13{fill:url(#SVGID_00000158736166008707814920000018426778185460247990_);}
	.st14{fill:url(#SVGID_00000133527000259551881150000004185836194023049859_);}
	.st15{fill:url(#SVGID_00000093164219829473752460000004603917870326250679_);}
	.st16{fill:url(#SVGID_00000156556395246081825560000005894267688922753411_);}
	.st17{fill:url(#SVGID_00000135690321830567168220000000437954853257014148_);}
	.st18{fill:url(#SVGID_00000040565659643257570880000002075315462357006765_);}
	.st19{fill:url(#SVGID_00000017508175736194757820000008863537906517323707_);}
	.st20{fill:url(#SVGID_00000126293465477839731700000000626789561221784705_);}
	.st21{fill:url(#SVGID_00000087403315896914670680000008996143154280075168_);}
	.st22{fill:url(#SVGID_00000151540686432933406660000011628697137491540393_);}
	.st23{fill:url(#SVGID_00000143589059756432772880000012524823099024141722_);}
	.st24{fill:url(#SVGID_00000052088033699595628130000015515451372212444082_);}
	.st25{fill:url(#SVGID_00000126294377186336552610000001799937443100725399_);}
	.st26{fill:url(#SVGID_00000070835762807858034660000013936331226864194476_);}
	.st27{fill:url(#SVGID_00000092457199491666826160000016742156659903073436_);}
	.st28{fill:url(#SVGID_00000138556585880754416440000017272986633013561527_);}
	.st29{fill:url(#SVGID_00000032624778419303139080000015394367773870234245_);}
	.st30{fill:url(#SVGID_00000040539262103052545880000003837399106474199717_);}
	.st31{fill:url(#SVGID_00000115483974547727894610000006699104590764616355_);}
	.st32{fill:url(#SVGID_00000041285316495664937430000010139118778734034608_);}
	.st33{fill:url(#SVGID_00000178199001922562380240000009661348160359078294_);}
	.st34{fill:url(#SVGID_00000145019290134935790460000010249637267404127883_);}
	.st35{fill:url(#SVGID_00000117636406951782473700000003654222835714608307_);}
	.st36{fill:url(#SVGID_00000158745280490234840560000003483236744759648947_);}
	.st37{fill:url(#SVGID_00000146474604070782972690000015670225624893543309_);}
	.st38{fill:url(#SVGID_00000173847499186819278890000011550608873747634579_);}
	.st39{fill:url(#SVGID_00000141427567100195222880000010417319602782459071_);}
</style></svg>
