<?xml version="1.0" encoding="UTF-8" standalone="no"?>
<!-- Created with Inkscape (http://www.inkscape.org/) -->

<svg
   width="1500"
   height="500"
   viewBox="0 0 396.87498 132.29167"
   version="1.1"
   id="svg5"
   inkscape:version="1.2.2 (732a01da63, 2022-12-09)"
   xml:space="preserve"
   sodipodi:docname="lutris.svg"
   xmlns:inkscape="http://www.inkscape.org/namespaces/inkscape"
   xmlns:sodipodi="http://sodipodi.sourceforge.net/DTD/sodipodi-0.dtd"
   xmlns:xlink="http://www.w3.org/1999/xlink"
   xmlns="http://www.w3.org/2000/svg"
   xmlns:svg="http://www.w3.org/2000/svg"><sodipodi:namedview
     id="namedview7"
     pagecolor="#000000"
     bordercolor="#111111"
     borderopacity="1"
     inkscape:showpageshadow="0"
     inkscape:pageopacity="0"
     inkscape:pagecheckerboard="1"
     inkscape:deskcolor="#d1d1d1"
     inkscape:document-units="mm"
     showgrid="false"
     inkscape:zoom="0.62760417"
     inkscape:cx="474.82157"
     inkscape:cy="243.78423"
     inkscape:window-width="1920"
     inkscape:window-height="1009"
     inkscape:window-x="-8"
     inkscape:window-y="-8"
     inkscape:window-maximized="1"
     inkscape:current-layer="layer1" /><defs
     id="defs2">
			
			
		
				
				
				
			
				
					
				
			
					
						
					
				
			
				
			
		
				
					
				
			
			
			
			
			
			
		
			
			
			
			
			
		
			
			
			
			
				
		
			
			
				
		
			
			
			
			
				
		
		
			
		
		
		
		
		
		
		
		
		
	
		
		
		
		
		
		
		
	<linearGradient
   id="linearGradient34773"
   gradientUnits="userSpaceOnUse"
   x1="15.196"
   y1="312.37051"
   x2="3854.196"
   y2="312.37051"
   gradientTransform="translate(1160.9631,-2.2896484e-5)">
				<stop
   offset="0"
   style="stop-color:#f3dd42;stop-opacity:1"
   id="stop34769" />
				<stop
   offset="1"
   style="stop-color:#d7861b;stop-opacity:1"
   id="stop34771" />
			</linearGradient><linearGradient
   id="SVGID_1_"
   gradientUnits="userSpaceOnUse"
   x1="15.196"
   y1="312.37051"
   x2="3854.196"
   y2="312.37051"
   gradientTransform="translate(1160.9631,-2.2896484e-5)">
				<stop
   offset="0"
   style="stop-color:#FF2422"
   id="stop4" />
				<stop
   offset="1"
   style="stop-color:#C24FFF"
   id="stop6" />
			</linearGradient><linearGradient
   xlink:href="#linearGradient34773"
   id="linearGradient6574"
   gradientUnits="userSpaceOnUse"
   gradientTransform="translate(833.68668,630.53366)"
   x1="15.196"
   y1="312.37051"
   x2="3588.2239"
   y2="316.50259" /></defs><g
     inkscape:label="Layer 1"
     inkscape:groupmode="layer"
     id="layer1"><path
       id="rect231"
       style="fill:#ffffff;stroke-width:0.8001;stroke-linecap:square;paint-order:fill markers stroke"
       d="M 0 0 L 0 16.777787 L 11.017932 16.777787 L 11.017932 111.49294 L 69.396798 111.49294 L 69.396798 121.02259 L 0 121.02259 L 0 132.29167 L 396.875 132.29167 L 396.875 99.430107 C 396.875 106.27937 393.99762 111.74287 388.23883 115.81309 C 382.57861 119.78474 374.68763 121.76828 364.55966 121.76828 C 358.20649 121.76828 352.09964 120.87482 346.24243 119.08782 C 340.48365 117.20214 335.96646 114.86984 332.69132 112.08722 L 337.45485 103.75026 C 340.73344 106.33232 344.85266 108.46388 349.81637 110.15245 C 354.78008 111.74246 359.94462 112.53422 365.30587 112.53422 C 372.45411 112.53422 377.71674 111.44363 381.09043 109.25896 C 384.566 106.97588 386.30407 103.79953 386.30407 99.729313 C 386.30407 96.848268 385.36081 94.613969 383.47168 93.027397 C 381.58613 91.338828 379.20498 90.097115 376.3238 89.302043 C 373.44619 88.408546 369.62216 87.56807 364.85887 86.772998 C 358.5057 85.58039 353.39078 84.387576 349.51768 83.198539 C 345.64802 81.907506 342.32008 79.772331 339.54103 76.792729 C 336.86041 73.816696 335.52009 69.697132 335.52009 64.43431 C 335.52009 57.880587 338.24958 52.519176 343.70925 48.350537 C 349.1725 44.178327 356.76794 42.096139 366.49494 42.096139 C 371.56065 42.096139 376.62244 42.789108 381.68471 44.178699 C 386.75042 45.469732 390.9194 47.207287 394.19454 49.391817 L 389.5788 57.880705 C 383.12695 53.412955 375.43031 51.179305 366.49494 51.179305 C 359.74411 51.179305 354.63242 52.371603 351.15686 54.753247 C 347.78316 57.134759 346.09464 60.262521 346.09464 64.13562 C 346.09464 67.115222 347.03734 69.49651 348.92289 71.283504 C 350.91044 73.070631 353.34148 74.41095 356.21908 75.304447 C 359.10026 76.09952 363.07198 76.944129 368.13412 77.837626 C 374.38886 79.026662 379.40194 80.21896 383.17661 81.411568 C 386.94771 82.600604 390.17343 84.637466 392.85406 87.515072 C 395.53455 90.396117 396.875 94.367839 396.875 99.430107 L 396.875 0 L 0 0 z M 308.86125 10.523389 C 311.04591 10.523389 312.88264 11.268697 314.37409 12.756844 C 315.86224 14.146302 316.60806 15.835091 316.60806 17.819067 C 316.60806 20.00373 315.86224 21.840322 314.37409 23.331909 C 312.88264 24.819924 311.04591 25.565365 308.86125 25.565365 C 306.68016 25.565365 304.84056 24.819924 303.35254 23.331909 C 301.8644 21.840322 301.11857 20.053013 301.11857 17.970479 C 301.11857 15.982799 301.8644 14.244859 303.35254 12.756844 C 304.84056 11.268697 306.68016 10.523389 308.86125 10.523389 z M 186.29922 25.565365 L 196.87377 25.565365 L 196.87377 42.690417 L 220.70022 42.690417 L 220.70022 51.625789 L 196.87377 51.625789 L 196.87377 98.388826 C 196.87377 103.05343 198.01683 106.62766 200.29992 109.11117 C 202.68156 111.49281 206.05874 112.68563 210.42437 112.68563 C 212.60903 112.68563 214.6953 112.33725 216.67928 111.64073 C 218.76539 110.94766 220.5527 109.95572 222.04071 108.66469 L 225.76606 116.25957 C 223.77852 118.04656 221.29806 119.43625 218.31846 120.42831 C 215.44085 121.32181 212.41201 121.76828 209.23529 121.76828 C 201.8865 121.76828 196.23021 119.78474 192.25855 115.81309 C 188.28676 111.84143 186.29922 106.23042 186.29922 98.983622 L 186.29922 51.625789 L 172.30163 51.625789 L 172.30163 42.690417 L 186.29922 42.690417 L 186.29922 25.565365 z M 284.44052 42.096139 L 284.44052 52.37148 L 281.90734 52.220585 C 273.66849 52.220585 267.21356 54.753335 262.54883 59.81547 C 257.88066 64.88131 255.54823 71.980527 255.54823 81.112878 L 255.54823 121.02259 L 244.97729 121.02259 L 244.97729 42.690417 L 255.10122 42.690417 L 255.10122 58.028499 C 257.58487 52.769249 261.25762 48.797705 266.12277 46.117082 C 271.08648 43.436458 277.19372 42.096139 284.44052 42.096139 z M 83.542187 42.690417 L 94.116736 42.690417 L 94.116736 87.068587 C 94.116736 95.310879 96.153643 101.56562 100.22386 105.83282 C 104.29394 110.10345 110.10234 112.23863 117.64812 112.23863 C 125.88697 112.23863 132.39113 109.75525 137.15442 104.79154 C 141.92102 99.729269 144.30282 92.728702 144.30282 83.793335 L 144.30282 42.690417 L 154.87737 42.690417 L 154.87737 121.02259 L 144.74982 121.02259 L 144.74982 106.7263 C 141.97077 111.49303 138.15004 115.21502 133.28489 117.89565 C 128.4196 120.47771 122.85796 121.76828 116.60322 121.76828 C 106.37682 121.76828 98.28553 118.94013 92.329765 113.27991 C 86.472425 107.52112 83.542187 99.131001 83.542187 88.112968 L 83.542187 42.690417 z M 303.50034 42.690417 L 314.07489 42.690417 L 314.07489 121.02259 L 303.50034 121.02259 L 303.50034 42.690417 z " /><g
       id="g3624"
       transform="matrix(0.26458333,0,0,0.26458333,-304.97126,59.071628)" /></g><style
     type="text/css"
     id="style234">
	.st0{fill:#FFF800;}
	.st1{fill:#96E620;}
	.st2{fill:#FFFFFF;}
</style><style
     type="text/css"
     id="style1241">
	.st0{fill:#FFFFFF;}
</style><style
     type="text/css"
     id="style2148">
	.st0{fill:#E7362E;}
	.st1{fill:#FFFFFF;}
</style><style
     type="text/css"
     id="style2">
	.st0{fill:#FFFFFF;}
	.st1{fill:#FF0000;}
	.st2{fill:url(#SVGID_1_);}
	.st3{fill:url(#SVGID_00000060022068257817767130000001067164073883981741_);}
	.st4{fill:url(#SVGID_00000144308182761068376180000004131709304805192586_);}
	.st5{fill:url(#SVGID_00000000935997520668853970000011105419993307822477_);}
	.st6{fill:url(#SVGID_00000018200174457167754170000000853354448091225986_);}
	.st7{fill:url(#SVGID_00000072987630451721579260000010409738167651109522_);}
	.st8{fill:#3636FF;}
	.st9{display:none;}
	.st10{display:inline;}
	.st11{enable-background:new    ;}
	.st12{fill:url(#SVGID_00000099639162208554751810000013272208193612295339_);}
	.st13{fill:url(#SVGID_00000158736166008707814920000018426778185460247990_);}
	.st14{fill:url(#SVGID_00000133527000259551881150000004185836194023049859_);}
	.st15{fill:url(#SVGID_00000093164219829473752460000004603917870326250679_);}
	.st16{fill:url(#SVGID_00000156556395246081825560000005894267688922753411_);}
	.st17{fill:url(#SVGID_00000135690321830567168220000000437954853257014148_);}
	.st18{fill:url(#SVGID_00000040565659643257570880000002075315462357006765_);}
	.st19{fill:url(#SVGID_00000017508175736194757820000008863537906517323707_);}
	.st20{fill:url(#SVGID_00000126293465477839731700000000626789561221784705_);}
	.st21{fill:url(#SVGID_00000087403315896914670680000008996143154280075168_);}
	.st22{fill:url(#SVGID_00000151540686432933406660000011628697137491540393_);}
	.st23{fill:url(#SVGID_00000143589059756432772880000012524823099024141722_);}
	.st24{fill:url(#SVGID_00000052088033699595628130000015515451372212444082_);}
	.st25{fill:url(#SVGID_00000126294377186336552610000001799937443100725399_);}
	.st26{fill:url(#SVGID_00000070835762807858034660000013936331226864194476_);}
	.st27{fill:url(#SVGID_00000092457199491666826160000016742156659903073436_);}
	.st28{fill:url(#SVGID_00000138556585880754416440000017272986633013561527_);}
	.st29{fill:url(#SVGID_00000032624778419303139080000015394367773870234245_);}
	.st30{fill:url(#SVGID_00000040539262103052545880000003837399106474199717_);}
	.st31{fill:url(#SVGID_00000115483974547727894610000006699104590764616355_);}
	.st32{fill:url(#SVGID_00000041285316495664937430000010139118778734034608_);}
	.st33{fill:url(#SVGID_00000178199001922562380240000009661348160359078294_);}
	.st34{fill:url(#SVGID_00000145019290134935790460000010249637267404127883_);}
	.st35{fill:url(#SVGID_00000117636406951782473700000003654222835714608307_);}
	.st36{fill:url(#SVGID_00000158745280490234840560000003483236744759648947_);}
	.st37{fill:url(#SVGID_00000146474604070782972690000015670225624893543309_);}
	.st38{fill:url(#SVGID_00000173847499186819278890000011550608873747634579_);}
	.st39{fill:url(#SVGID_00000141427567100195222880000010417319602782459071_);}
</style></svg>
