<?xml version="1.0" encoding="UTF-8" standalone="no"?>
<!-- Created with Inkscape (http://www.inkscape.org/) -->

<svg
   width="1500"
   height="500"
   viewBox="0 0 396.87498 132.29167"
   version="1.1"
   id="svg5"
   inkscape:version="1.2.2 (732a01da63, 2022-12-09)"
   xml:space="preserve"
   sodipodi:docname="lutro.svg"
   xmlns:inkscape="http://www.inkscape.org/namespaces/inkscape"
   xmlns:sodipodi="http://sodipodi.sourceforge.net/DTD/sodipodi-0.dtd"
   xmlns:xlink="http://www.w3.org/1999/xlink"
   xmlns="http://www.w3.org/2000/svg"
   xmlns:svg="http://www.w3.org/2000/svg"><sodipodi:namedview
     id="namedview7"
     pagecolor="#000000"
     bordercolor="#111111"
     borderopacity="1"
     inkscape:showpageshadow="0"
     inkscape:pageopacity="0"
     inkscape:pagecheckerboard="1"
     inkscape:deskcolor="#d1d1d1"
     inkscape:document-units="mm"
     showgrid="false"
     inkscape:zoom="0.62760417"
     inkscape:cx="474.82157"
     inkscape:cy="243.78423"
     inkscape:window-width="1920"
     inkscape:window-height="1009"
     inkscape:window-x="-8"
     inkscape:window-y="-8"
     inkscape:window-maximized="1"
     inkscape:current-layer="layer1" /><defs
     id="defs2">
			
			
		
				
				
				
			
				
					
				
			
					
						
					
				
			
				
			
		
				
					
				
			
			
			
			
			
			
		
			
			
			
			
			
		
			
			
			
			
				
		
			
			
				
		
			
			
			
			
				
		
		
			
		
		
		
		
		
		
		
		
		
	
		
		
		
		
		
		
		
	<linearGradient
   id="linearGradient34773"
   gradientUnits="userSpaceOnUse"
   x1="15.196"
   y1="312.37051"
   x2="3854.196"
   y2="312.37051"
   gradientTransform="translate(1160.9631,-2.2896484e-5)">
				<stop
   offset="0"
   style="stop-color:#f3dd42;stop-opacity:1"
   id="stop34769" />
				<stop
   offset="1"
   style="stop-color:#d7861b;stop-opacity:1"
   id="stop34771" />
			</linearGradient><linearGradient
   id="SVGID_1_"
   gradientUnits="userSpaceOnUse"
   x1="15.196"
   y1="312.37051"
   x2="3854.196"
   y2="312.37051"
   gradientTransform="translate(1160.9631,-2.2896484e-5)">
				<stop
   offset="0"
   style="stop-color:#FF2422"
   id="stop4" />
				<stop
   offset="1"
   style="stop-color:#C24FFF"
   id="stop6" />
			</linearGradient><linearGradient
   xlink:href="#linearGradient34773"
   id="linearGradient6574"
   gradientUnits="userSpaceOnUse"
   gradientTransform="translate(833.68668,630.53366)"
   x1="15.196"
   y1="312.37051"
   x2="3588.2239"
   y2="316.50259" /></defs><g
     inkscape:label="Layer 1"
     inkscape:groupmode="layer"
     id="layer1"><path
       id="rect231"
       style="fill:#ffffff;stroke-width:0.8001;stroke-linecap:square;paint-order:fill markers stroke"
       d="M 0 0 L 0 132.29167 L 396.875 132.29167 L 396.875 0 L 0 0 z M 228.12664 0.0077514648 C 230.58378 -0.10473793 233.2368 0.98978953 234.71487 2.9326375 L 235.83625 4.3625244 L 235.95252 15.147913 L 236.06828 25.894027 L 241.36356 25.894027 C 246.11797 25.894027 246.89041 25.970728 248.39827 26.744104 C 250.44681 27.788442 252.26464 30.262389 252.53497 32.426961 C 252.6899 33.431784 252.49597 34.475498 251.91641 35.789547 C 250.09995 39.887248 248.59242 40.544681 241.32532 40.583569 L 235.99076 40.583569 L 236.10652 56.779997 C 236.22256 72.512833 236.26084 73.015206 237.03359 74.097803 C 238.23286 75.68219 241.24739 76.649429 243.64404 76.107499 C 247.78001 75.218087 249.01758 75.217954 250.91182 76.146257 C 253.54054 77.422044 254.70041 79.20019 254.89297 82.138139 C 255.1633 86.312363 252.99868 89.173266 248.9016 90.139201 C 243.87623 91.260689 236.76354 90.448831 232.43439 88.244743 C 228.37495 86.196206 224.43179 81.403743 222.80914 76.571554 C 221.99687 74.136019 221.95896 73.285463 221.80403 57.282292 L 221.68776 40.583569 L 218.67296 40.583569 C 214.61414 40.583569 212.68078 39.616068 211.21243 36.755896 C 209.78234 34.011132 209.78219 32.078975 211.28943 29.527397 C 212.83618 26.822151 214.72929 25.894027 218.75047 25.894027 L 221.726 25.894027 L 221.726 15.843477 C 221.726 7.6098164 221.84269 5.5222948 222.30684 4.3242839 C 223.07959 2.5460819 224.27784 1.1932227 225.7857 0.5358846 C 226.51047 0.21693765 227.3076 0.045247929 228.12664 0.0077514648 z M 130.61632 1.1539347 C 133.32219 1.1539347 136.64627 3.589266 137.38076 6.1019531 C 137.53506 6.6821415 137.65155 24.733937 137.65155 46.226636 L 137.65155 85.268697 L 136.56892 86.930611 C 133.63097 91.37517 126.63391 90.950943 124.23789 86.157015 C 123.58056 84.920743 123.54181 82.214458 123.54181 45.878337 C 123.54181 11.706785 123.61973 6.7585262 124.12214 5.5216268 C 124.93377 3.589128 125.74502 2.73941 127.601 1.8882568 C 128.45152 1.5018835 129.80405 1.1539347 130.61632 1.1539347 z M 289.79885 25.661483 C 298.34173 26.009597 304.87453 29.604598 309.6302 36.639624 C 312.72246 41.201475 312.87664 44.293359 310.13249 47.424495 C 308.62463 49.124921 306.96231 49.860006 304.64342 49.860006 C 301.78198 49.860006 299.57939 48.274532 297.95546 44.988468 C 296.75745 42.592444 294.82486 41.123322 292.19612 40.582019 C 289.41247 40.001833 284.69619 40.273041 282.49335 41.161829 C 280.32877 42.051243 278.39564 44.370406 277.42906 47.269466 C 276.65632 49.511818 276.61774 50.516866 276.61774 66.249703 C 276.61774 76.106639 276.42442 83.606033 276.19296 84.610856 C 275.69054 86.853208 274.56933 88.360304 272.75286 89.288607 C 269.23475 91.066806 264.82814 89.597399 263.12709 86.118774 C 262.31547 84.456613 262.31577 83.991973 262.31577 67.216052 C 262.31577 48.428601 262.54743 46.110059 264.75025 40.66005 C 267.76598 33.27691 274.29865 28.174339 283.38219 26.048022 C 284.8901 25.699911 287.13188 25.583706 289.79885 25.661483 z M 157.08447 25.894543 C 159.69008 25.724397 162.63287 26.956969 164.05355 29.1021 L 165.0969 30.648258 L 165.28965 49.434192 C 165.48347 67.448269 165.5219 68.298429 166.29528 69.960588 C 168.22778 74.09718 170.70232 75.759112 175.53451 76.067708 C 181.95045 76.454711 185.69957 74.173526 187.28521 68.954964 C 188.05796 66.558942 188.09653 65.437906 188.09653 49.240922 C 188.09653 34.590685 188.17444 31.846513 188.67686 30.608984 C 190.88032 25.390422 197.37447 24.307882 200.96913 28.598771 C 202.78559 30.725085 202.86337 31.49861 202.70907 50.246545 C 202.55352 66.945946 202.51509 67.988988 201.70345 70.926937 C 199.19076 80.088274 193.43098 86.311536 184.81094 89.172335 C 182.06618 90.100011 181.13934 90.216199 176.50034 90.216199 C 171.90023 90.17731 170.8946 90.061122 168.15046 89.172335 C 164.32373 87.896547 161.1152 85.848267 158.29266 82.871427 C 154.27274 78.581165 152.34057 74.947062 151.21971 69.49705 C 150.71667 67.022627 150.60063 63.543718 150.60063 49.008895 C 150.60063 32.850796 150.67813 31.382778 151.33547 29.952694 C 152.10821 28.29053 152.88161 27.477991 154.65981 26.550317 C 155.38458 26.163786 156.21593 25.951259 157.08447 25.894543 z M 350.99563 26.082129 C 353.43564 26.154496 355.89997 26.434983 357.60039 26.899133 C 370.66688 30.378387 378.32026 43.520813 377.35371 60.838664 C 377.04447 67.100937 375.96192 71.623291 373.79734 76.146257 C 370.5508 82.794904 364.71365 87.549116 357.40764 89.559391 C 353.96727 90.487064 346.19788 90.487085 342.71862 89.521151 C 336.61127 87.858363 331.85608 84.495695 328.57064 79.586357 C 324.62788 73.633309 323.19783 67.874308 323.23608 57.977856 C 323.23608 50.788534 323.66138 48.120783 325.43957 43.172559 C 328.45468 34.861748 335.79887 28.445092 344.53556 26.512594 C 346.13971 26.14535 348.55562 26.009762 350.99563 26.082129 z M 102.89346 36.836511 C 109.6732 36.86411 115.03127 42.275143 114.9811 49.046102 C 114.93154 55.729875 109.40175 61.163064 102.69037 61.119784 C 95.925688 61.077133 90.66328 55.699611 90.683354 48.850248 C 90.704044 42.029736 96.010854 36.808913 102.89346 36.836511 z M 350.78272 40.302966 C 349.01903 40.225738 347.29899 40.428627 346.04296 40.931352 C 342.02241 42.554 339.74148 44.989824 338.23362 49.280713 C 337.22942 52.141512 336.99768 61.998317 337.8476 65.786165 C 339.35543 72.589742 343.56849 76.146257 350.06287 76.146257 C 354.54692 76.146257 358.48944 74.136175 360.57747 70.734701 C 363.82401 65.438988 364.21033 52.488793 361.27304 46.728931 C 360.0355 44.332282 357.98693 42.283805 355.78345 41.356132 C 354.35337 40.737681 352.54642 40.380194 350.78272 40.302966 z M 60.880005 48.991842 C 83.693653 48.776701 102.6042 67.421274 102.72965 90.251855 C 102.85697 113.47571 84.391443 132.15629 61.171977 132.29115 C 38.356447 132.42349 19.569994 113.79537 19.440157 90.910213 C 19.310948 67.869505 37.75776 49.208863 60.880005 48.991842 z M 78.208663 61.1203 C 71.483491 61.167973 66.100083 66.582659 66.060567 73.339193 C 66.020425 80.13838 71.542457 85.628317 78.399349 85.605111 C 85.265647 85.582542 90.768958 80.05924 90.693689 73.266329 C 90.617796 66.433275 85.106949 61.072006 78.208663 61.1203 z M 32.978866 84.571065 L 32.978866 111.74408 L 41.517362 111.74408 L 49.948889 111.74408 L 49.948889 108.63471 L 36.281506 108.63471 L 36.281506 84.571065 L 32.978866 84.571065 z M 118.1101 91.584074 C 124.40249 91.893927 127.82813 94.665195 128.387 99.898812 L 121.63495 99.872974 C 121.24795 97.37722 120.59294 95.728404 119.6728 94.928056 C 118.7514 94.110148 117.81326 94.248202 116.85798 95.341467 C 115.91086 96.4341 115.41143 98.676125 115.35937 102.06819 C 115.26528 106.55289 115.72974 109.09171 116.75463 109.68633 C 117.7789 110.27091 118.81195 110.19806 119.85315 109.4667 C 120.89498 108.73535 121.45445 107.2069 121.5316 104.883 L 118.00623 104.86957 L 117.96799 102.02995 L 128.34875 102.02995 C 127.84948 107.87386 125.88306 111.23142 122.44834 112.10013 C 119.01425 112.96948 115.87621 112.72886 113.03548 111.37718 C 110.19537 110.02613 108.61176 106.97926 108.28435 102.23614 C 108.65441 95.591879 111.92937 92.040072 118.1101 91.584074 z M 80.745459 91.605261 C 77.308164 91.79346 74.746447 93.247032 73.939673 95.665479 C 73.742723 96.255078 73.729293 96.906336 73.515409 98.273071 C 75.005083 97.862235 76.668811 97.854092 76.914685 97.26073 C 78.252568 94.023591 80.864953 94.610248 83.305509 94.874312 C 84.903065 95.046799 85.904693 96.051171 85.835071 97.866378 C 85.766703 99.622625 84.533621 99.88072 83.205774 100.12722 C 80.905092 100.55311 78.538891 100.79353 76.332292 101.51422 C 73.685376 102.37854 72.562857 104.43998 72.713391 107.17847 C 72.857031 109.78336 74.398191 111.57096 77.073332 112.33681 C 80.334305 113.27076 83.075784 112.0604 84.832031 110.80719 C 87.011659 111.54105 88.531036 112.12555 90.09786 112.5182 C 90.410221 112.59598 91.167303 111.99562 91.253861 111.60611 C 91.373662 111.0623 91.149814 109.94318 90.910213 109.89613 C 88.839094 109.49094 89.340572 107.92364 89.324264 106.62967 C 89.287256 103.71555 89.318132 100.79973 89.311861 97.884981 C 89.303712 94.081454 88.002038 92.474303 84.441874 91.850208 C 83.134098 91.620641 81.891224 91.542528 80.745459 91.605261 z M 197.36005 91.945292 L 203.20878 91.945292 L 214.35177 91.945292 L 214.35177 96.038066 L 203.20878 96.025663 L 203.20878 100.68688 L 212.05269 100.68688 L 212.05269 103.84999 L 203.20878 103.84999 L 203.20878 112.59106 L 197.36005 112.59106 L 197.36005 91.945292 z M 358.79102 91.997485 L 365.06609 91.997485 L 365.05317 100.71323 L 370.43734 93.947237 L 373.69089 93.947237 L 369.53352 99.472998 L 377.43536 112.66858 L 370.60477 112.66858 L 365.58285 104.62514 L 365.1312 105.16774 L 365.05369 112.63033 L 361.96757 112.63033 L 360.72837 112.63033 L 359.48865 112.63033 L 358.7657 112.63033 L 358.7657 98.389343 L 358.79102 91.997485 z M 53.30579 92.338033 C 53.30579 97.634372 53.221499 102.79305 53.345064 107.94638 C 53.396497 110.09214 54.805715 111.5026 56.822888 112.1637 C 60.376154 113.32784 63.492259 112.455 66.444006 109.52458 C 66.294099 112.41172 67.839679 111.75724 69.225232 111.61799 L 69.225232 92.393844 L 65.901921 92.393844 C 65.901921 95.949618 65.98654 99.339458 65.861096 102.72086 C 65.80841 104.13589 65.538651 105.63721 64.963477 106.91802 C 64.009461 109.04559 61.684402 109.96841 59.479057 109.46412 C 57.03223 108.90589 56.725116 107.09316 56.743306 105.00134 C 56.780311 100.81771 56.754159 96.633939 56.754159 92.338033 L 53.30579 92.338033 z M 169.0424 97.476221 C 172.17361 97.414177 173.87433 98.953637 174.14544 102.09403 L 174.14544 112.56522 L 169.07185 112.53938 L 169.11009 103.9151 C 169.16215 101.94372 168.34777 101.00029 166.66993 101.08685 C 165.21475 100.87171 164.16538 101.56499 163.5187 103.16631 L 163.5187 112.6293 L 161.44079 112.6293 L 160.39486 112.6293 L 159.34893 112.6293 L 158.30403 112.6293 L 158.30403 102.72706 C 158.30403 101.41866 157.53716 100.69568 156.00546 100.55769 C 154.92976 100.46298 154.12026 100.97981 153.57771 102.10695 L 153.57771 104.58638 L 153.57771 105.81215 L 153.57771 108.9117 L 153.57771 110.1509 L 153.57771 112.6293 L 150.97011 112.6293 L 149.92367 112.6293 L 148.87825 112.6293 L 148.27157 112.6293 L 148.27157 98.389343 L 149.92367 98.389343 L 150.97011 98.389343 L 152.01604 98.389343 L 153.06198 98.389343 L 153.60354 98.389343 L 153.59114 100.11844 C 154.75277 98.776162 156.126 98.000904 157.70975 97.794548 C 160.79134 97.30405 162.72714 98.259374 163.5187 100.66104 C 163.93205 99.576558 165.29792 98.55666 167.61302 97.600761 C 168.11873 97.526512 168.59508 97.485084 169.0424 97.476221 z M 271.0155 97.476221 C 274.14671 97.414177 275.84742 98.953637 276.11855 102.09403 L 276.11855 112.56522 L 271.04599 112.53938 L 271.08423 103.9151 C 271.13566 101.94372 270.32192 101.00029 268.64407 101.08685 C 267.18888 100.87171 266.13888 101.56499 265.49284 103.16631 L 265.49284 112.6293 L 263.41441 112.6293 L 262.36848 112.6293 L 261.32255 112.6293 L 260.27765 112.6293 L 260.27765 102.72706 C 260.27765 101.41866 259.51026 100.69568 257.97857 100.55769 C 256.90287 100.46298 256.09388 100.97981 255.55133 102.10695 L 255.55133 104.58638 L 255.55133 105.81215 L 255.55133 108.9117 L 255.55133 110.1509 L 255.55133 112.6293 L 252.94373 112.6293 L 251.8978 112.6293 L 250.85187 112.6293 L 250.24467 112.6293 L 250.24467 98.389343 L 251.8978 98.389343 L 252.94373 98.389343 L 253.98966 98.389343 L 255.0356 98.389343 L 255.57716 98.389343 L 255.56425 100.11844 C 256.7265 98.776162 258.0996 98.000904 259.68337 97.794548 C 262.76434 97.30405 264.70126 98.259374 265.49284 100.66104 C 265.90618 99.576558 267.27101 98.55666 269.58613 97.600761 C 270.09183 97.526512 270.56818 97.485084 271.0155 97.476221 z M 294.38978 97.640035 L 300.27676 97.640035 L 302.83423 107.05238 L 306.0485 97.640035 L 311.53551 97.640035 L 314.88 107.05238 L 317.43644 97.640035 L 323.27226 97.640035 L 317.43644 112.59158 L 312.02695 112.59158 L 308.81216 103.59264 L 305.71261 112.59158 L 300.27676 112.59158 L 294.38978 97.640035 z M 136.39219 97.872062 C 138.79386 97.708357 140.38213 97.953621 141.15676 98.608451 L 141.15676 98.129928 L 147.2122 98.143363 L 147.2122 99.215133 L 147.2122 101.02226 L 147.2122 102.23614 L 147.2122 104.65098 L 147.2122 106.47154 L 147.2122 108.88586 L 147.2122 110.09974 L 147.2122 112.65617 L 141.14384 112.65617 L 141.13092 112.16473 C 140.65736 112.53479 139.21553 112.67762 136.80509 112.59106 C 134.34383 112.53963 132.53604 111.75609 131.38319 110.24133 C 130.22972 108.71779 129.7254 107.06483 129.87218 105.2835 C 129.89789 103.6483 130.35843 102.16311 131.25349 100.82899 C 132.14917 99.494867 133.86194 98.508705 136.39219 97.872062 z M 238.36685 97.872062 C 240.76789 97.708357 242.35678 97.953621 243.13141 98.608451 L 243.13141 98.129928 L 249.18634 98.143363 L 249.18634 99.215133 L 249.18634 101.02226 L 249.18634 102.23614 L 249.18634 104.65098 L 249.18634 106.47154 L 249.18634 108.88586 L 249.18634 110.09974 L 249.18634 112.65617 L 243.11849 112.65617 L 243.10557 112.16473 C 242.63202 112.53479 241.19019 112.67762 238.77974 112.59106 C 236.31786 112.53963 234.51081 111.75609 233.35733 110.24133 C 232.20448 108.71779 231.70006 107.06483 231.84683 105.2835 C 231.87255 103.6483 232.33308 102.16311 233.22814 100.82899 C 234.12383 99.494867 235.8366 98.508705 238.36685 97.872062 z M 332.60709 97.910303 L 333.56259 97.910303 C 335.92097 98.031357 337.7634 98.65711 339.08938 99.789258 C 340.4147 100.92141 341.16764 102.55826 341.34764 104.70214 C 341.40849 107.3616 340.66808 109.29015 339.12762 110.48628 C 337.59592 111.66548 335.72718 112.36714 333.52434 112.59106 L 332.52957 112.59106 C 329.69827 112.37529 327.65411 111.63514 326.39713 110.37001 C 325.14896 109.12245 324.48575 107.24554 324.40862 104.74038 C 324.6319 102.16685 325.5144 100.36807 327.05549 99.343807 C 328.59597 98.31891 330.44626 97.841307 332.60709 97.910303 z M 183.39036 97.923739 C 188.47783 98.07929 191.14115 100.51038 191.38263 105.21838 L 189.56207 105.21838 L 188.43811 105.21838 L 185.63725 105.21838 L 184.5138 105.21838 L 182.83535 105.21838 L 181.15587 105.21838 C 181.07872 108.34325 181.45853 110.11243 182.29275 110.52452 C 183.1276 110.92908 183.95376 110.87858 184.77167 110.37052 C 185.60651 109.86247 185.93789 108.70503 185.76541 106.89735 L 187.88311 106.89735 L 189.00707 106.89735 L 190.13 106.89735 L 191.25344 106.89735 C 190.48759 109.98709 188.87738 111.79477 186.42428 112.31976 C 183.97118 112.84475 181.66809 112.69055 179.51669 111.8557 C 177.37344 111.01208 175.97891 109.08426 175.33348 106.07104 L 175.32056 105.06387 C 175.95721 100.51895 178.64723 98.138876 183.39036 97.923739 z M 285.36398 97.923739 L 285.36449 97.923739 C 290.45134 98.07929 293.1158 100.51038 293.35729 105.21838 L 291.53621 105.21838 L 290.41276 105.21838 L 287.6119 105.21838 L 286.48846 105.21838 L 284.80949 105.21838 L 283.13104 105.21838 C 283.05325 108.34325 283.43266 110.11243 284.26689 110.52452 C 285.10236 110.92908 285.92842 110.87858 286.74632 110.37052 C 287.58116 109.86247 287.91254 108.70503 287.74006 106.89735 L 289.85776 106.89735 L 290.98121 106.89735 L 292.10413 106.89735 L 293.2281 106.89735 C 292.46163 109.98709 290.85204 111.79477 288.39893 112.31976 C 285.94583 112.84475 283.64399 112.69055 281.49135 111.8557 C 279.34809 111.01208 277.95368 109.08426 277.30762 106.07104 L 277.2947 105.06387 C 277.93134 100.51895 280.62148 98.138876 285.36398 97.923739 z M 224.87413 98.311312 C 228.87649 97.975744 230.87365 99.447273 230.86549 102.72706 L 226.21668 102.72706 C 226.25181 101.2468 225.33425 100.53612 223.46698 100.59696 C 222.45149 100.82026 221.93828 101.32342 221.93012 102.10746 L 221.93012 104.58638 L 221.93012 105.81318 L 221.93012 108.9117 L 221.93012 110.1509 L 221.93012 112.63033 L 218.84504 112.63033 L 217.60584 112.63033 L 216.3656 112.63033 L 215.64317 112.63033 L 215.64317 98.389343 L 217.60584 98.389343 L 218.84504 98.389343 L 220.08372 98.389343 L 221.95596 98.389343 L 221.94356 100.11844 C 222.59713 99.189509 223.57451 98.586666 224.87413 98.311312 z M 351.76819 98.311312 C 355.77057 97.975744 357.76783 99.447273 357.75904 102.72706 L 353.11126 102.72706 C 353.14576 101.2468 352.22843 100.53612 350.36053 100.59696 C 349.34503 100.82026 348.83297 101.32342 348.82419 102.10746 L 348.82419 104.58638 L 348.82419 105.81318 L 348.82419 108.9117 L 348.82419 110.1509 L 348.82419 112.63033 L 345.73859 112.63033 L 344.49939 112.63033 L 343.25967 112.63033 L 342.53671 112.63033 L 342.53671 98.389343 L 344.49939 98.389343 L 345.73859 98.389343 L 346.97727 98.389343 L 348.84951 98.389343 L 348.83711 100.11844 C 349.49129 99.189509 350.46795 98.586666 351.76819 98.311312 z M 138.89747 99.499353 C 137.27921 99.568348 136.44 100.82007 136.37979 103.25623 L 136.37979 107.15522 C 136.50837 109.5481 137.36538 110.80085 138.94914 110.91313 C 140.4984 110.74942 141.26051 110.05614 141.23479 108.83367 L 141.23479 102.02995 C 141.35459 100.48884 140.57593 99.645495 138.89747 99.499353 z M 183.46735 99.499353 C 181.97015 99.5765 181.19915 100.73394 181.15587 102.97253 L 183.39036 102.97253 L 184.5138 102.97253 L 185.63725 102.97253 C 185.62029 100.83743 184.89619 99.679994 183.46735 99.499353 z M 240.8716 99.499353 C 239.25335 99.568348 238.41466 100.82007 238.35444 103.25623 L 238.35444 107.15522 C 238.4824 109.5481 239.34004 110.80085 240.9238 110.91313 C 242.47306 110.74942 243.23516 110.05614 243.20944 108.83367 L 243.20944 102.02995 C 243.32924 100.48884 242.5507 99.645495 240.8716 99.499353 z M 285.44201 99.499353 C 283.94479 99.5765 283.1743 100.73394 283.13104 102.97253 L 285.36449 102.97253 L 286.48846 102.97253 L 287.6119 102.97253 C 287.59417 100.83743 286.87084 99.679994 285.44201 99.499353 z M 332.89131 99.705025 C 331.17834 99.757085 330.29992 100.87592 330.25788 103.06244 L 330.25788 107.37484 C 330.37768 109.50994 331.27331 110.6325 332.94299 110.74414 C 334.59576 110.58922 335.40473 109.44069 335.37023 107.29681 L 335.37023 103.11412 C 335.32758 100.8586 334.50077 99.722588 332.89131 99.705025 z M 85.604594 102.28626 C 86.295801 107.58574 83.477358 110.59938 78.877873 109.39384 C 77.852976 109.12476 76.417582 107.85536 76.388102 107.00484 C 76.351722 105.96112 77.373057 104.28528 78.329586 103.92337 C 80.629641 103.05466 83.159018 102.79432 85.604594 102.28626 z " /><g
       id="g3692"
       transform="matrix(0.26458333,0,0,0.26458333,3.3286028,164.33675)" /></g><style
     type="text/css"
     id="style234">
	.st0{fill:#FFF800;}
	.st1{fill:#96E620;}
	.st2{fill:#FFFFFF;}
</style><style
     type="text/css"
     id="style1241">
	.st0{fill:#FFFFFF;}
</style><style
     type="text/css"
     id="style2148">
	.st0{fill:#E7362E;}
	.st1{fill:#FFFFFF;}
</style><style
     type="text/css"
     id="style2">
	.st0{fill:#FFFFFF;}
	.st1{fill:#FF0000;}
	.st2{fill:url(#SVGID_1_);}
	.st3{fill:url(#SVGID_00000060022068257817767130000001067164073883981741_);}
	.st4{fill:url(#SVGID_00000144308182761068376180000004131709304805192586_);}
	.st5{fill:url(#SVGID_00000000935997520668853970000011105419993307822477_);}
	.st6{fill:url(#SVGID_00000018200174457167754170000000853354448091225986_);}
	.st7{fill:url(#SVGID_00000072987630451721579260000010409738167651109522_);}
	.st8{fill:#3636FF;}
	.st9{display:none;}
	.st10{display:inline;}
	.st11{enable-background:new    ;}
	.st12{fill:url(#SVGID_00000099639162208554751810000013272208193612295339_);}
	.st13{fill:url(#SVGID_00000158736166008707814920000018426778185460247990_);}
	.st14{fill:url(#SVGID_00000133527000259551881150000004185836194023049859_);}
	.st15{fill:url(#SVGID_00000093164219829473752460000004603917870326250679_);}
	.st16{fill:url(#SVGID_00000156556395246081825560000005894267688922753411_);}
	.st17{fill:url(#SVGID_00000135690321830567168220000000437954853257014148_);}
	.st18{fill:url(#SVGID_00000040565659643257570880000002075315462357006765_);}
	.st19{fill:url(#SVGID_00000017508175736194757820000008863537906517323707_);}
	.st20{fill:url(#SVGID_00000126293465477839731700000000626789561221784705_);}
	.st21{fill:url(#SVGID_00000087403315896914670680000008996143154280075168_);}
	.st22{fill:url(#SVGID_00000151540686432933406660000011628697137491540393_);}
	.st23{fill:url(#SVGID_00000143589059756432772880000012524823099024141722_);}
	.st24{fill:url(#SVGID_00000052088033699595628130000015515451372212444082_);}
	.st25{fill:url(#SVGID_00000126294377186336552610000001799937443100725399_);}
	.st26{fill:url(#SVGID_00000070835762807858034660000013936331226864194476_);}
	.st27{fill:url(#SVGID_00000092457199491666826160000016742156659903073436_);}
	.st28{fill:url(#SVGID_00000138556585880754416440000017272986633013561527_);}
	.st29{fill:url(#SVGID_00000032624778419303139080000015394367773870234245_);}
	.st30{fill:url(#SVGID_00000040539262103052545880000003837399106474199717_);}
	.st31{fill:url(#SVGID_00000115483974547727894610000006699104590764616355_);}
	.st32{fill:url(#SVGID_00000041285316495664937430000010139118778734034608_);}
	.st33{fill:url(#SVGID_00000178199001922562380240000009661348160359078294_);}
	.st34{fill:url(#SVGID_00000145019290134935790460000010249637267404127883_);}
	.st35{fill:url(#SVGID_00000117636406951782473700000003654222835714608307_);}
	.st36{fill:url(#SVGID_00000158745280490234840560000003483236744759648947_);}
	.st37{fill:url(#SVGID_00000146474604070782972690000015670225624893543309_);}
	.st38{fill:url(#SVGID_00000173847499186819278890000011550608873747634579_);}
	.st39{fill:url(#SVGID_00000141427567100195222880000010417319602782459071_);}
</style></svg>
