<?xml version="1.0" encoding="UTF-8" standalone="no"?>
<!-- Created with Inkscape (http://www.inkscape.org/) -->

<svg
   width="1500"
   height="500"
   viewBox="0 0 396.87498 132.29167"
   version="1.1"
   id="svg5"
   inkscape:version="1.2.2 (732a01da63, 2022-12-09)"
   xml:space="preserve"
   sodipodi:docname="macintosh.svg"
   xmlns:inkscape="http://www.inkscape.org/namespaces/inkscape"
   xmlns:sodipodi="http://sodipodi.sourceforge.net/DTD/sodipodi-0.dtd"
   xmlns="http://www.w3.org/2000/svg"
   xmlns:svg="http://www.w3.org/2000/svg"><sodipodi:namedview
     id="namedview7"
     pagecolor="#000000"
     bordercolor="#111111"
     borderopacity="1"
     inkscape:showpageshadow="0"
     inkscape:pageopacity="0"
     inkscape:pagecheckerboard="1"
     inkscape:deskcolor="#d1d1d1"
     inkscape:document-units="mm"
     showgrid="false"
     inkscape:zoom="0.62760417"
     inkscape:cx="954.42323"
     inkscape:cy="541.74274"
     inkscape:window-width="1920"
     inkscape:window-height="1009"
     inkscape:window-x="-8"
     inkscape:window-y="-8"
     inkscape:window-maximized="1"
     inkscape:current-layer="layer1" /><defs
     id="defs2"><path
       id="SVGID_37_"
       d="M263.9,1002.2c13.5-0.7,27.7-3.4,41.2-7.4c6.7-2,18.2-6.7,35.8-14.2c14.8-6.1,27-10.8,37.8-13.5 c15.5-4,31.7-6.1,48.6-6.1c16.9,0,33.1,2,48.6,6.1c9.4,2.7,22.3,7.4,37.8,14.2c15.5,6.7,27.7,10.8,35.8,13.5 c14.2,4,28.3,6.1,43.2,5.4c21.6,0,41.8-6.1,60.7-18.2c16.2-10.8,32.4-25.6,49.3-45.9c10.8-12.8,25-32.4,43.2-58.7 c19.6-29.7,37.1-61.4,52-96.5c5.4-12.8,11.5-28.3,16.9-45.9c-10.8-4-22.3-10.1-35.1-18.9c-26.3-17.5-47.9-39.1-64.1-64.1 c-22.9-34.4-34.4-74.2-35.1-119.5c0-37.1,8.8-72.9,27-105.3c12.8-22.9,30.4-43.9,51.3-62.8c9.4-8.8,19.6-16.2,30.4-22.9 c-25.6-37.8-60.1-64.8-102.6-81.7c-24.3-9.4-51.3-15.5-81-17.5c-15.5-1.3-31.7-0.7-47.9,2c-13.5,2-28.3,6.1-43.9,10.8 c-10.1,4-22.9,8.8-39.1,14.8c-16.2,6.7-27.7,10.8-33.7,12.8c-10.8,3.4-20.2,5.4-27,5.4c-8.8,0-20.2-2-33.7-6.7 c-4-1.3-16.9-6.7-39.8-15.5c-17.5-6.7-32.4-12.1-44.5-15.5c-16.9-4-32.4-6.1-47.2-6.1c-42.5,0.7-81.7,12.1-118.8,35.1 c-37.1,22.3-66.1,52.6-87.7,91.1C14.2,418.4,0,475.8,0,541.3C0,600,10.1,660,31,722.8c18.9,57.4,43.9,108,74.2,151.8 c17.5,26.3,32.4,46.6,44.5,60.7c17.5,21.6,35.1,37.1,52,47.9C222,996.1,242.3,1002.2,263.9,1002.2z" /><path
       id="SVGID_39_"
       d="M263.9,1002.2c13.5-0.7,27.7-3.4,41.2-7.4c6.7-2,18.2-6.7,35.8-14.2c14.8-6.1,27-10.8,37.8-13.5 c15.5-4,31.7-6.1,48.6-6.1c16.9,0,33.1,2,48.6,6.1c9.4,2.7,22.3,7.4,37.8,14.2c15.5,6.7,27.7,10.8,35.8,13.5 c14.2,4,28.3,6.1,43.2,5.4c21.6,0,41.8-6.1,60.7-18.2c16.2-10.8,32.4-25.6,49.3-45.9c10.8-12.8,25-32.4,43.2-58.7 c19.6-29.7,37.1-61.4,52-96.5c5.4-12.8,11.5-28.3,16.9-45.9c-10.8-4-22.3-10.1-35.1-18.9c-26.3-17.5-47.9-39.1-64.1-64.1 c-22.9-34.4-34.4-74.2-35.1-119.5c0-37.1,8.8-72.9,27-105.3c12.8-22.9,30.4-43.9,51.3-62.8c9.4-8.8,19.6-16.2,30.4-22.9 c-25.6-37.8-60.1-64.8-102.6-81.7c-24.3-9.4-51.3-15.5-81-17.5c-15.5-1.3-31.7-0.7-47.9,2c-13.5,2-28.3,6.1-43.9,10.8 c-10.1,4-22.9,8.8-39.1,14.8c-16.2,6.7-27.7,10.8-33.7,12.8c-10.8,3.4-20.2,5.4-27,5.4c-8.8,0-20.2-2-33.7-6.7 c-4-1.3-16.9-6.7-39.8-15.5c-17.5-6.7-32.4-12.1-44.5-15.5c-16.9-4-32.4-6.1-47.2-6.1c-42.5,0.7-81.7,12.1-118.8,35.1 c-37.1,22.3-66.1,52.6-87.7,91.1C14.2,418.4,0,475.8,0,541.3C0,600,10.1,660,31,722.8c18.9,57.4,43.9,108,74.2,151.8 c17.5,26.3,32.4,46.6,44.5,60.7c17.5,21.6,35.1,37.1,52,47.9C222,996.1,242.3,1002.2,263.9,1002.2z" /><path
       id="SVGID_41_"
       d="M263.9,1002.2c13.5-0.7,27.7-3.4,41.2-7.4c6.7-2,18.2-6.7,35.8-14.2c14.8-6.1,27-10.8,37.8-13.5 c15.5-4,31.7-6.1,48.6-6.1c16.9,0,33.1,2,48.6,6.1c9.4,2.7,22.3,7.4,37.8,14.2c15.5,6.7,27.7,10.8,35.8,13.5 c14.2,4,28.3,6.1,43.2,5.4c21.6,0,41.8-6.1,60.7-18.2c16.2-10.8,32.4-25.6,49.3-45.9c10.8-12.8,25-32.4,43.2-58.7 c19.6-29.7,37.1-61.4,52-96.5c5.4-12.8,11.5-28.3,16.9-45.9c-10.8-4-22.3-10.1-35.1-18.9c-26.3-17.5-47.9-39.1-64.1-64.1 c-22.9-34.4-34.4-74.2-35.1-119.5c0-37.1,8.8-72.9,27-105.3c12.8-22.9,30.4-43.9,51.3-62.8c9.4-8.8,19.6-16.2,30.4-22.9 c-25.6-37.8-60.1-64.8-102.6-81.7c-24.3-9.4-51.3-15.5-81-17.5c-15.5-1.3-31.7-0.7-47.9,2c-13.5,2-28.3,6.1-43.9,10.8 c-10.1,4-22.9,8.8-39.1,14.8c-16.2,6.7-27.7,10.8-33.7,12.8c-10.8,3.4-20.2,5.4-27,5.4c-8.8,0-20.2-2-33.7-6.7 c-4-1.3-16.9-6.7-39.8-15.5c-17.5-6.7-32.4-12.1-44.5-15.5c-16.9-4-32.4-6.1-47.2-6.1c-42.5,0.7-81.7,12.1-118.8,35.1 c-37.1,22.3-66.1,52.6-87.7,91.1C14.2,418.4,0,475.8,0,541.3C0,600,10.1,660,31,722.8c18.9,57.4,43.9,108,74.2,151.8 c17.5,26.3,32.4,46.6,44.5,60.7c17.5,21.6,35.1,37.1,52,47.9C222,996.1,242.3,1002.2,263.9,1002.2z" /><path
       id="SVGID_43_"
       d="M263.9,1002.2c13.5-0.7,27.7-3.4,41.2-7.4c6.7-2,18.2-6.7,35.8-14.2c14.8-6.1,27-10.8,37.8-13.5 c15.5-4,31.7-6.1,48.6-6.1c16.9,0,33.1,2,48.6,6.1c9.4,2.7,22.3,7.4,37.8,14.2c15.5,6.7,27.7,10.8,35.8,13.5 c14.2,4,28.3,6.1,43.2,5.4c21.6,0,41.8-6.1,60.7-18.2c16.2-10.8,32.4-25.6,49.3-45.9c10.8-12.8,25-32.4,43.2-58.7 c19.6-29.7,37.1-61.4,52-96.5c5.4-12.8,11.5-28.3,16.9-45.9c-10.8-4-22.3-10.1-35.1-18.9c-26.3-17.5-47.9-39.1-64.1-64.1 c-22.9-34.4-34.4-74.2-35.1-119.5c0-37.1,8.8-72.9,27-105.3c12.8-22.9,30.4-43.9,51.3-62.8c9.4-8.8,19.6-16.2,30.4-22.9 c-25.6-37.8-60.1-64.8-102.6-81.7c-24.3-9.4-51.3-15.5-81-17.5c-15.5-1.3-31.7-0.7-47.9,2c-13.5,2-28.3,6.1-43.9,10.8 c-10.1,4-22.9,8.8-39.1,14.8c-16.2,6.7-27.7,10.8-33.7,12.8c-10.8,3.4-20.2,5.4-27,5.4c-8.8,0-20.2-2-33.7-6.7 c-4-1.3-16.9-6.7-39.8-15.5c-17.5-6.7-32.4-12.1-44.5-15.5c-16.9-4-32.4-6.1-47.2-6.1c-42.5,0.7-81.7,12.1-118.8,35.1 c-37.1,22.3-66.1,52.6-87.7,91.1C14.2,418.4,0,475.8,0,541.3C0,600,10.1,660,31,722.8c18.9,57.4,43.9,108,74.2,151.8 c17.5,26.3,32.4,46.6,44.5,60.7c17.5,21.6,35.1,37.1,52,47.9C222,996.1,242.3,1002.2,263.9,1002.2z" /><path
       id="SVGID_45_"
       d="M263.9,1002.2c13.5-0.7,27.7-3.4,41.2-7.4c6.7-2,18.2-6.7,35.8-14.2c14.8-6.1,27-10.8,37.8-13.5 c15.5-4,31.7-6.1,48.6-6.1c16.9,0,33.1,2,48.6,6.1c9.4,2.7,22.3,7.4,37.8,14.2c15.5,6.7,27.7,10.8,35.8,13.5 c14.2,4,28.3,6.1,43.2,5.4c21.6,0,41.8-6.1,60.7-18.2c16.2-10.8,32.4-25.6,49.3-45.9c10.8-12.8,25-32.4,43.2-58.7 c19.6-29.7,37.1-61.4,52-96.5c5.4-12.8,11.5-28.3,16.9-45.9c-10.8-4-22.3-10.1-35.1-18.9c-26.3-17.5-47.9-39.1-64.1-64.1 c-22.9-34.4-34.4-74.2-35.1-119.5c0-37.1,8.8-72.9,27-105.3c12.8-22.9,30.4-43.9,51.3-62.8c9.4-8.8,19.6-16.2,30.4-22.9 c-25.6-37.8-60.1-64.8-102.6-81.7c-24.3-9.4-51.3-15.5-81-17.5c-15.5-1.3-31.7-0.7-47.9,2c-13.5,2-28.3,6.1-43.9,10.8 c-10.1,4-22.9,8.8-39.1,14.8c-16.2,6.7-27.7,10.8-33.7,12.8c-10.8,3.4-20.2,5.4-27,5.4c-8.8,0-20.2-2-33.7-6.7 c-4-1.3-16.9-6.7-39.8-15.5c-17.5-6.7-32.4-12.1-44.5-15.5c-16.9-4-32.4-6.1-47.2-6.1c-42.5,0.7-81.7,12.1-118.8,35.1 c-37.1,22.3-66.1,52.6-87.7,91.1C14.2,418.4,0,475.8,0,541.3C0,600,10.1,660,31,722.8c18.9,57.4,43.9,108,74.2,151.8 c17.5,26.3,32.4,46.6,44.5,60.7c17.5,21.6,35.1,37.1,52,47.9C222,996.1,242.3,1002.2,263.9,1002.2z" /><path
       id="SVGID_47_"
       d="M263.9,1002.2c13.5-0.7,27.7-3.4,41.2-7.4c6.7-2,18.2-6.7,35.8-14.2c14.8-6.1,27-10.8,37.8-13.5 c15.5-4,31.7-6.1,48.6-6.1c16.9,0,33.1,2,48.6,6.1c9.4,2.7,22.3,7.4,37.8,14.2c15.5,6.7,27.7,10.8,35.8,13.5 c14.2,4,28.3,6.1,43.2,5.4c21.6,0,41.8-6.1,60.7-18.2c16.2-10.8,32.4-25.6,49.3-45.9c10.8-12.8,25-32.4,43.2-58.7 c19.6-29.7,37.1-61.4,52-96.5c5.4-12.8,11.5-28.3,16.9-45.9c-10.8-4-22.3-10.1-35.1-18.9c-26.3-17.5-47.9-39.1-64.1-64.1 c-22.9-34.4-34.4-74.2-35.1-119.5c0-37.1,8.8-72.9,27-105.3c12.8-22.9,30.4-43.9,51.3-62.8c9.4-8.8,19.6-16.2,30.4-22.9 c-25.6-37.8-60.1-64.8-102.6-81.7c-24.3-9.4-51.3-15.5-81-17.5c-15.5-1.3-31.7-0.7-47.9,2c-13.5,2-28.3,6.1-43.9,10.8 c-10.1,4-22.9,8.8-39.1,14.8c-16.2,6.7-27.7,10.8-33.7,12.8c-10.8,3.4-20.2,5.4-27,5.4c-8.8,0-20.2-2-33.7-6.7 c-4-1.3-16.9-6.7-39.8-15.5c-17.5-6.7-32.4-12.1-44.5-15.5c-16.9-4-32.4-6.1-47.2-6.1c-42.5,0.7-81.7,12.1-118.8,35.1 c-37.1,22.3-66.1,52.6-87.7,91.1C14.2,418.4,0,475.8,0,541.3C0,600,10.1,660,31,722.8c18.9,57.4,43.9,108,74.2,151.8 c17.5,26.3,32.4,46.6,44.5,60.7c17.5,21.6,35.1,37.1,52,47.9C222,996.1,242.3,1002.2,263.9,1002.2z" /></defs><g
     inkscape:label="Layer 1"
     inkscape:groupmode="layer"
     id="layer1"><path
       id="rect231"
       style="fill:#ffffff;stroke-width:0.8001;stroke-linecap:square;paint-order:fill markers stroke"
       d="M 0 0 L 0 70.300618 C 0 68.608173 0.091947855 66.96811 0.27491862 65.382572 C 0.45788939 63.797035 0.73211816 62.266262 1.0970907 60.792155 C 1.4620632 59.318048 1.9174103 57.900441 2.4634155 56.542285 C 3.0094207 55.18413 3.6457573 53.885114 4.3718262 52.647432 C 4.9299509 51.652636 5.5359807 50.710945 6.1908366 49.821765 C 6.8456925 48.932585 7.5495207 48.09605 8.3033691 47.311841 C 9.0572176 46.527631 9.8610395 45.795994 10.716142 45.116109 C 11.571244 44.436224 12.477772 43.808193 13.436389 43.231986 C 14.395013 42.637693 15.366865 42.118274 16.354557 41.672392 C 18.329941 40.780628 20.367437 40.182891 22.482349 39.867334 C 23.539804 39.709555 24.616557 39.622388 25.714709 39.604301 C 26.47954 39.604301 27.262654 39.658559 28.072705 39.764498 C 28.882756 39.870437 29.720132 40.028042 30.593481 40.234753 C 31.844086 40.586162 33.383941 41.144243 35.192684 41.836723 C 37.559512 42.746251 38.892717 43.304329 39.306128 43.438692 C 40.701433 43.924461 41.879589 44.131156 42.789119 44.131156 C 43.140539 44.131156 43.559087 44.079483 44.029354 43.983879 C 44.49962 43.888274 45.021522 43.748754 45.579647 43.573051 C 46.199777 43.36634 47.388277 42.942614 49.062638 42.250134 C 50.736999 41.629999 52.060366 41.133935 53.104252 40.720512 C 54.716595 40.234741 56.246138 39.811012 57.641443 39.604301 C 59.315804 39.325241 60.990048 39.263233 62.592045 39.397595 C 64.126878 39.500951 65.591824 39.71023 66.987126 40.015129 C 68.382428 40.320027 69.70838 40.7205 70.964144 41.20627 C 72.062296 41.642947 73.108594 42.144862 74.101937 42.713155 C 76.088622 43.849742 77.862713 45.251782 79.412724 46.928402 C 80.187729 47.766711 80.90667 48.67349 81.568148 49.650199 C 81.010023 49.996441 80.467457 50.360999 79.942924 50.752458 C 79.418391 51.143917 78.911995 51.562216 78.426221 52.01698 C 77.346166 52.993688 76.351174 54.024582 75.461027 55.107231 C 74.57088 56.189879 73.78569 57.324636 73.124219 58.508057 C 72.653949 59.345236 72.244115 60.204346 71.89432 61.08206 C 71.544524 61.959774 71.254831 62.855701 71.023572 63.767167 C 70.561054 65.590099 70.333691 67.47387 70.333691 69.391113 C 70.351782 70.561614 70.43917 71.696468 70.597758 72.796073 C 70.756346 73.895679 70.986099 74.960127 71.287122 75.98916 C 71.588144 77.018193 71.960521 78.012107 72.405916 78.97089 C 72.851312 79.929674 73.36967 80.85344 73.961377 81.742297 C 74.379967 82.388269 74.833243 83.012069 75.320467 83.612984 C 75.807691 84.213899 76.328532 84.791581 76.882129 85.345178 C 77.435726 85.898776 78.021935 86.428142 78.639644 86.932161 C 79.257354 87.436181 79.906734 87.915036 80.586296 88.367216 C 81.24778 88.82198 81.875607 89.20695 82.477653 89.529936 C 83.079699 89.852922 83.65587 90.113874 84.213981 90.320585 C 83.65587 92.139641 83.025429 93.741532 82.467318 95.064482 C 81.697315 96.878371 80.86046 98.604793 79.962561 100.26106 C 79.064662 101.91733 78.105846 103.50372 77.092969 105.03855 C 75.211889 107.7568 73.744374 109.78241 72.628125 111.10536 C 71.754776 112.15442 70.899311 113.06155 70.053088 113.84576 C 69.206866 114.62997 68.369493 115.29166 67.532312 115.84978 C 67.043958 116.16243 66.547274 116.43594 66.041964 116.67091 C 65.536653 116.90589 65.023047 117.10202 64.500456 117.25899 C 63.977864 117.41596 63.446434 117.53381 62.906238 117.61246 C 62.366042 117.69111 61.816918 117.7308 61.258793 117.7308 C 60.488803 117.76697 59.739266 117.73054 58.998983 117.63365 C 58.258699 117.53675 57.527771 117.3794 56.793949 117.17269 C 55.956782 116.89363 54.695914 116.4694 53.093917 115.77691 C 51.491893 115.0741 50.158701 114.58836 49.187179 114.3093 C 48.386167 114.09742 47.566628 113.94008 46.729447 113.83543 C 45.892267 113.73078 45.037062 113.67885 44.163713 113.67885 C 42.417015 113.67885 40.742787 113.89588 39.140763 114.3093 C 38.02454 114.58836 36.763686 115.0741 35.234025 115.70457 C 33.414964 116.47973 32.226459 116.96598 31.533993 117.17269 C 30.83634 117.3794 30.120144 117.55225 29.404407 117.68274 C 28.68867 117.81323 27.97299 117.90133 27.275338 117.9375 C 26.71722 117.9375 26.167699 117.89807 25.624276 117.81813 C 25.080853 117.73819 24.543864 117.6175 24.010937 117.45536 C 23.478011 117.29322 22.949033 117.0896 22.422404 116.843 C 21.895775 116.5964 21.371319 116.30712 20.84679 115.9738 C 19.973441 115.41568 19.082062 114.73565 18.182869 113.91656 C 17.283677 113.09747 16.376799 112.13892 15.472441 111.02268 C 14.847138 110.29403 14.149545 109.40523 13.382129 108.35876 C 12.614712 107.31229 11.777596 106.10829 10.873238 104.74916 C 10.090317 103.61742 9.3415665 102.44184 8.6284139 101.22225 C 7.2021086 98.783057 5.9180095 96.167843 4.7862712 93.377246 C 4.220402 91.981947 3.692293 90.542831 3.2039388 89.05968 C 2.6639049 87.437 2.193772 85.832365 1.7921387 84.243437 C 1.3905053 82.654508 1.0576939 81.081266 0.79219971 79.521244 C 0.52670548 77.961223 0.32850364 76.414593 0.19688721 74.878634 C 0.065270775 73.342675 0 71.81736 0 70.300618 L 0 132.29167 L 396.875 132.29167 L 396.875 105.48297 C 396.875 106.30981 396.43061 106.73354 395.54175 106.73354 C 394.89061 106.73354 394.01213 106.64052 392.92692 106.46482 C 391.83134 106.28912 390.56017 106.1961 389.09253 106.1961 C 387.57321 106.1961 386.19815 106.28912 384.9889 106.46482 C 383.77965 106.64052 382.75651 106.73354 381.92966 106.73354 C 380.86508 106.73354 380.32769 106.25814 380.32769 105.30727 C 380.32769 104.89385 380.4207 104.59414 380.59641 104.41843 C 380.77212 104.24273 381.0098 104.11871 381.30954 104.06703 C 381.60926 104.00502 381.95031 103.95335 382.33274 103.89133 C 382.71514 103.82932 383.11822 103.71564 383.53163 103.53993 C 384.4205 103.12651 384.95789 102.65111 385.1336 102.11366 C 385.30931 101.57622 385.40232 100.78044 385.40232 99.705542 L 385.40232 81.721627 C 385.40232 74.538424 383.04597 70.951742 378.33298 70.951742 C 376.18319 70.951742 374.4056 71.726851 372.99997 73.266846 C 371.59435 74.806843 370.89157 77.184356 370.89157 80.388375 L 370.89157 99.705542 C 370.89157 100.5944 370.98458 101.3385 371.16029 101.92763 C 371.336 102.51675 371.69772 102.99215 372.22483 103.3539 C 372.63826 103.65363 373.05164 103.81898 373.47539 103.83966 C 373.88883 103.87066 374.26088 103.93267 374.59161 104.01536 C 374.92233 104.10838 375.18072 104.24273 375.39776 104.41843 C 375.60448 104.59414 375.70782 104.95585 375.70782 105.48297 C 375.70782 106.30981 375.2014 106.73354 374.19886 106.73354 C 373.60972 106.73354 372.72095 106.64052 371.53236 106.46482 C 370.35409 106.28912 368.90724 106.1961 367.21221 106.1961 C 365.50687 106.1961 364.06979 106.28912 362.89154 106.46482 C 361.71328 106.64052 360.7625 106.73354 360.04934 106.73354 C 358.98479 106.73354 358.44737 106.25814 358.44737 105.30727 C 358.44737 104.89385 358.54038 104.61481 358.71609 104.45977 C 358.8918 104.31508 359.11917 104.21173 359.38788 104.14972 C 359.65662 104.0877 359.97699 104.03603 360.36973 103.97402 C 360.75214 103.912 361.18622 103.79832 361.66165 103.62262 C 362.61253 103.27121 363.16026 102.80614 363.30496 102.23769 C 363.44966 101.67957 363.53233 100.83212 363.53233 99.705542 L 363.53233 55.272595 C 363.53233 53.970315 363.32563 53.050521 362.91222 52.513074 C 362.4988 51.975626 362.05439 51.613908 361.57896 51.396863 C 361.10353 51.190152 360.65915 51.045465 360.24571 50.952445 C 359.8323 50.859426 359.62559 50.580387 359.62559 50.104952 C 359.62559 49.453813 360.02865 49.019752 360.82449 48.813041 C 361.62033 48.60633 362.59177 48.296287 363.71837 47.882865 C 365.77513 47.107701 367.28454 46.384265 368.24574 45.70212 C 369.21729 45.019975 369.8477 44.678927 370.1371 44.678927 C 370.60221 44.678927 370.90191 44.823614 371.0156 45.123344 C 371.12929 45.423077 371.1913 45.836466 371.1913 46.373914 C 371.1913 47.200757 371.14994 48.12055 371.05694 49.133435 C 370.96391 50.146317 370.92258 51.241805 370.92258 52.430391 L 370.92258 71.024089 L 370.89157 71.024089 C 370.89157 71.799253 370.95358 72.181641 371.06727 72.181641 C 371.24298 72.181641 371.48069 72.005949 371.78041 71.644206 L 372.66924 70.486654 C 373.79581 69.008669 375.12901 67.830506 376.67933 66.972656 C 378.21934 66.114807 379.82123 65.680745 381.48524 65.680745 C 385.04068 65.680745 387.82124 66.90025 389.80566 69.329102 C 391.79009 71.757956 392.78223 75.230953 392.78223 79.747587 L 392.78223 99.684871 C 392.78223 100.63574 392.84424 101.37985 392.95793 101.90696 C 393.07162 102.44441 393.37133 102.85779 393.84676 103.15753 C 394.32219 103.50894 394.73559 103.7363 395.09733 103.82932 C 395.44875 103.92234 395.76911 104.00502 396.02751 104.09804 C 396.29624 104.19106 396.50292 104.32541 396.64762 104.50111 C 396.79232 104.67682 396.875 105.00753 396.875 105.48297 L 396.875 0 L 0 0 z M 62.633386 14.354163 C 62.984805 17.279123 62.633408 20.21471 61.589522 23.274032 C 60.617973 26.064629 59.150452 28.575976 57.269373 30.880802 C 55.388319 33.185629 53.083652 35.004549 50.417078 36.317163 C 47.492112 37.78481 44.701231 38.405413 41.91062 38.198702 C 41.497209 35.408105 41.910592 32.555197 43.099178 29.413192 C 44.143091 26.756957 45.527929 24.31795 47.419328 22.157821 C 49.310726 19.997692 51.605562 18.17877 54.46851 16.72146 C 57.331457 15.264147 60.049494 14.488526 62.633386 14.354163 z M 232.02305 49.991264 C 233.0876 49.980919 234.00742 50.487333 234.78257 51.500216 C 235.55774 52.5131 235.94012 53.639589 235.94012 54.879854 C 235.94012 56.130456 235.55774 57.257462 234.78257 58.26001 C 234.00742 59.272895 233.0876 59.768962 232.02305 59.768962 C 230.95847 59.768962 230.0387 59.26256 229.26353 58.26001 C 228.48838 57.247128 228.10546 56.120122 228.10546 54.879854 C 228.10546 53.629255 228.48838 52.502763 229.26353 51.500216 C 230.0387 50.487333 230.95847 49.991264 232.02305 49.991264 z M 109.1644 50.704399 L 120.84327 50.704399 L 120.84327 50.725069 C 121.14302 50.725069 121.39103 50.766406 121.59775 50.859428 C 121.80444 50.952447 121.96984 51.169478 122.0835 51.531222 L 133.91792 87.488717 C 134.15563 88.201871 134.36233 88.553251 134.53804 88.553251 C 134.77574 88.553251 135.01345 88.232875 135.25118 87.571399 L 146.90938 52.234021 C 147.02307 51.758586 147.18842 51.386534 147.39514 51.11781 C 147.60186 50.849086 147.9429 50.714734 148.41833 50.714734 L 159.90135 50.714734 C 160.72817 50.714734 161.15192 51.09712 161.15192 51.861951 C 161.15192 52.337385 161.01755 52.647429 160.74884 52.792126 C 160.48011 52.936824 160.13906 53.040172 159.72565 53.102185 C 159.31221 53.164198 158.84716 53.205537 158.34072 53.236544 C 157.83428 53.267553 157.31754 53.401903 156.78009 53.63962 C 156.12896 53.93935 155.7259 54.301067 155.5812 54.745496 C 155.4365 55.189924 155.35382 55.99655 155.35382 57.174805 L 155.35382 59.293538 L 156.33568 98.02089 C 156.3977 99.612564 156.50104 100.75972 156.64574 101.47288 C 156.79041 102.17569 157.33816 102.74411 158.28905 103.15753 C 158.82649 103.39524 159.35357 103.5296 159.89102 103.55027 C 160.42846 103.58128 160.88321 103.61228 161.26561 103.63295 C 161.64804 103.66396 161.95806 103.76731 162.19578 103.94301 C 162.43349 104.11871 162.54718 104.48043 162.54718 105.00754 C 162.54718 105.35895 162.38184 105.67933 162.06143 105.93772 C 161.7307 106.20644 161.27595 106.3408 160.68683 106.3408 C 159.73595 106.3408 158.59915 106.23745 157.25552 106.03074 C 155.92223 105.82403 154.36168 105.72068 152.58397 105.72068 C 150.63055 105.72068 148.91446 105.82403 147.46748 106.03074 C 146.01019 106.23745 144.87334 106.3408 144.03617 106.3408 C 142.84758 106.3408 142.2585 105.8654 142.2585 104.91453 C 142.2585 104.02567 142.70291 103.58127 143.59175 103.58127 C 144.71835 103.58127 145.59679 103.4986 146.21691 103.31256 C 146.83704 103.13685 147.31246 102.82681 147.64318 102.38238 C 147.97394 101.93795 148.15994 101.36954 148.22196 100.65639 C 148.28398 99.953571 148.31549 99.06478 148.31549 98.00022 L 148.31549 95.964168 L 147.69486 63.251953 C 147.69486 62.600814 147.55019 62.280436 147.25044 62.280436 C 147.07473 62.280436 146.89906 62.580142 146.71301 63.169271 L 133.62854 103.21954 C 133.32882 104.1084 132.85341 104.55279 132.20227 104.55279 C 131.42712 104.55279 130.95168 104.20141 130.776 103.48826 L 117.51531 63.262288 C 117.21556 62.497458 117.00888 62.115072 116.89519 62.115072 C 116.59544 62.115072 116.41975 62.67315 116.35776 63.799723 L 114.8488 90.847685 C 114.78679 91.850232 114.74545 92.759692 114.71444 93.586536 C 114.68344 94.413379 114.6731 95.147148 114.6731 95.798287 C 114.6731 98.568212 114.91081 100.58401 115.38624 101.85528 C 115.86167 103.12656 116.95713 103.75697 118.68319 103.75697 C 118.85888 103.75697 119.03458 103.74663 119.22063 103.71563 C 119.39631 103.68463 119.60302 103.67429 119.84075 103.67429 C 120.96732 103.67429 121.53573 104.11869 121.53573 105.00754 C 121.53573 105.95841 120.79163 106.43381 119.31365 106.43381 C 118.66251 106.43381 117.81504 106.3718 116.7815 106.25811 C 115.74793 106.14442 114.53878 106.08241 113.17449 106.08241 C 111.9859 106.08241 110.93174 106.14442 110.01189 106.25811 C 109.09201 106.38214 108.30607 106.43381 107.65493 106.43381 C 106.22861 106.43381 105.51552 105.95841 105.51552 105.00754 C 105.51552 104.11869 105.92893 103.67429 106.76609 103.67429 C 107.11751 103.67429 107.43788 103.68463 107.69627 103.71563 C 107.96501 103.74664 108.18201 103.75697 108.36806 103.75697 C 109.14321 103.75697 109.76381 103.50894 110.23927 103.0025 C 110.7147 102.50639 111.06607 101.68994 111.3038 100.57371 C 111.54153 99.457467 111.7172 98.000264 111.84124 96.20188 C 111.95493 94.403496 112.07894 92.181002 112.19264 89.524768 L 113.70159 59.303874 C 113.70159 59.190182 113.71189 58.983487 113.74293 58.683757 C 113.77394 58.384026 113.78427 58.00164 113.78427 57.53654 C 113.78427 56.182584 113.66025 55.241605 113.43287 54.704154 C 113.19514 54.177041 112.65775 53.76365 111.8309 53.46392 C 111.29345 53.288216 110.79738 53.184868 110.32195 53.153861 C 109.84649 53.122855 109.43312 53.091853 109.07138 53.060844 C 108.71996 53.029837 108.43006 52.947162 108.22337 52.792126 C 108.01665 52.647429 107.91331 52.337385 107.91331 51.861951 C 107.91331 51.086783 108.3272 50.704399 109.1644 50.704399 z M 288.35191 58.590739 C 288.755 58.590739 289.00303 58.7871 289.08571 59.169515 C 289.1684 59.55193 289.22007 60.079002 289.22007 60.730143 L 289.22007 66.125163 L 289.23041 66.125163 C 289.23041 66.90033 289.61278 67.282715 290.38796 67.282715 L 297.06455 67.282715 C 297.602 67.282715 297.92237 67.344723 298.04641 67.458415 C 298.1601 67.582441 298.22211 67.809806 298.22211 68.171549 L 298.22211 69.959554 C 298.22211 70.434989 298.1601 70.755367 298.04641 70.941406 C 297.92237 71.117111 297.602 71.210124 297.06455 71.210124 L 290.30528 71.210124 C 289.59212 71.210124 289.24074 71.592508 289.24074 72.367676 L 289.24074 94.888782 C 289.24074 97.679379 289.48878 99.715846 289.99522 100.98712 C 290.50166 102.26872 291.43179 102.89915 292.79608 102.89915 C 293.44722 102.89915 294.02597 102.78546 294.53241 102.54775 C 295.03885 102.31003 295.49359 102.03099 295.907 101.70025 C 296.32044 101.37985 296.69246 101.09048 297.02321 100.85276 C 297.3436 100.61504 297.66399 100.50136 297.95339 100.50136 C 298.54251 100.50136 298.84222 100.91475 298.84222 101.75193 C 298.84222 102.16535 298.57352 102.73376 298.03607 103.44692 C 297.49862 104.16007 296.7752 104.87317 295.85533 105.58632 C 294.93545 106.29947 293.87098 106.90922 292.65139 107.41567 C 291.43179 107.92211 290.15026 108.17014 288.78599 108.17014 C 284.14531 108.17014 281.82983 104.40829 281.82983 96.863338 L 281.82983 93.121448 L 282.18123 73.990316 C 282.18123 73.163473 282.11922 72.491711 282.00553 71.98527 C 281.89183 71.478826 281.53014 71.230794 280.94099 71.230794 L 279.33902 71.230794 C 278.27447 71.230794 277.73705 70.848407 277.73705 70.073242 C 277.73705 69.721834 277.88172 69.39112 278.18147 69.09139 C 278.48119 68.79166 278.89459 68.471281 279.43204 68.109538 C 279.96949 67.758129 280.5689 67.313736 281.25105 66.776286 C 281.93317 66.238838 282.67729 65.525738 283.48347 64.636882 C 284.87875 62.972858 285.90189 61.556997 286.57372 60.368408 C 287.23518 59.179822 287.83512 58.590739 288.35191 58.590739 z M 234.4415 65.205322 C 235.03062 65.205322 235.32 65.825407 235.32 67.076009 L 235.32 99.560848 C 235.32 100.62541 235.42334 101.43152 235.63006 101.96897 C 235.83675 102.50642 236.20883 102.91981 236.74627 103.21954 C 237.2217 103.45726 237.67642 103.60194 238.12087 103.66396 C 238.56529 103.72597 238.94766 103.79831 239.27842 103.89133 C 239.5988 103.98435 239.86753 104.1187 240.08457 104.29441 C 240.29129 104.47011 240.39463 104.76982 240.39463 105.18324 C 240.39463 106.13411 239.85721 106.60951 238.79266 106.60951 C 237.90379 106.60951 236.83932 106.50617 235.59906 106.29945 C 234.35877 106.09274 233.03593 105.9894 231.63031 105.9894 C 230.11096 105.9894 228.80878 106.09274 227.75457 106.29945 C 226.69 106.50617 225.83171 106.60951 225.18057 106.60951 C 224.29173 106.60951 223.84732 106.10311 223.84732 105.10056 C 223.84732 104.68714 223.91968 104.38743 224.07469 104.21173 C 224.2194 104.03602 224.42607 103.912 224.69481 103.86033 C 224.96352 103.79831 225.24256 103.75697 225.54231 103.72597 C 225.84203 103.69496 226.16242 103.59161 226.52416 103.41591 C 227.1753 103.0645 227.57887 102.63044 227.72357 102.124 C 227.86827 101.61756 227.95094 100.77011 227.95094 99.591854 L 227.95094 78.559029 C 227.95094 76.957021 227.75408 75.892024 227.37165 75.354574 C 226.98925 74.817126 226.56553 74.476078 226.12108 74.33138 C 225.67666 74.186685 225.26326 74.093669 224.87051 74.062663 C 224.48811 74.031656 224.29174 73.721613 224.29174 73.132487 C 224.29174 72.481349 224.69482 71.943939 225.49063 71.530518 C 226.29681 71.117096 227.43415 70.497011 228.90179 69.659831 C 229.78031 69.122383 230.52442 68.595309 231.14455 68.057861 C 231.75433 67.520414 232.27107 67.045013 232.68451 66.631592 C 233.09792 66.21817 233.42863 65.877122 233.69736 65.608398 C 233.96607 65.339672 234.21412 65.205322 234.4415 65.205322 z M 252.59078 65.49471 C 252.76649 65.49471 252.9422 65.639397 253.11788 65.939128 C 253.29359 66.238858 253.3866 66.714258 253.3866 67.365397 L 253.3866 71.024089 L 253.39694 71.024089 C 253.39694 71.799253 253.47963 72.181641 253.66565 72.181641 C 253.84136 72.181641 254.07904 72.005949 254.37879 71.644206 L 255.35031 70.486654 C 256.59056 68.946656 258.0271 67.758158 259.64978 66.931315 C 261.27245 66.104469 262.97768 65.680745 264.75542 65.680745 C 268.42452 65.680745 271.27745 66.941587 273.31355 69.46346 C 275.35997 71.985334 276.37279 75.706366 276.37279 80.636422 L 276.37279 99.767554 C 276.37279 101.60728 276.81718 102.82678 277.70605 103.41591 C 278.11946 103.65363 278.55354 103.79831 278.99796 103.86033 C 279.44238 103.92234 279.84543 103.98435 280.19685 104.03603 C 280.54824 104.09804 280.83763 104.21172 281.04434 104.38743 C 281.25106 104.56313 281.3544 104.89384 281.3544 105.36928 C 281.3544 106.32015 280.81701 106.79555 279.75243 106.79555 C 278.91527 106.79555 277.91277 106.6922 276.73453 106.48549 C 275.55629 106.27878 274.20242 106.17543 272.67276 106.17543 C 271.15345 106.17543 269.84091 106.27878 268.74535 106.48549 C 267.64979 106.6922 266.81216 106.79555 266.21269 106.79555 C 265.26183 106.79555 264.78642 106.28914 264.78642 105.2866 C 264.78642 104.87318 264.85875 104.57347 265.0138 104.39776 C 265.1585 104.22206 265.36518 104.09804 265.63392 104.04636 C 265.90263 103.98435 266.19202 103.94301 266.52275 103.912 C 266.84316 103.881 267.19455 103.77765 267.54594 103.60194 C 268.2591 103.25054 268.67302 102.78547 268.79703 102.21702 C 268.91072 101.6589 268.97273 100.84245 268.97273 99.767554 L 268.97273 81.783639 C 268.97273 78.228211 268.31077 75.540655 266.99817 73.731934 C 265.68555 71.923215 263.80462 71.013753 261.35511 71.013753 C 259.0916 71.013753 257.24172 71.788863 255.80506 73.328857 C 254.36842 74.868855 253.65532 77.246368 253.65532 80.450387 L 253.65532 99.767554 C 253.65532 100.78044 253.72768 101.56588 253.88269 102.124 C 254.02739 102.69246 254.39944 103.11618 254.99891 103.41591 C 255.53635 103.71564 256.01174 103.881 256.42517 103.90167 C 256.83859 103.93267 257.21066 103.97401 257.54139 104.03603 C 257.8618 104.09804 258.12015 104.21172 258.29586 104.38743 C 258.47154 104.56313 258.56458 104.92485 258.56458 105.45196 C 258.56458 106.34082 258.02716 106.78521 256.96261 106.78521 C 256.13576 106.78521 255.12297 106.68187 253.94471 106.47515 C 252.76646 106.26844 251.4436 106.1651 249.97596 106.1651 C 248.45664 106.1651 247.15394 106.26844 246.09971 106.47515 C 245.03516 106.68187 244.17736 106.78521 243.52622 106.78521 C 242.57534 106.78521 242.09995 106.27881 242.09995 105.27626 C 242.09995 104.86284 242.17231 104.56313 242.32733 104.38743 C 242.47203 104.21172 242.66838 104.0877 242.9061 104.03603 C 243.1438 103.97401 243.42287 103.93267 243.7536 103.90167 C 244.07401 103.87066 244.42537 103.76731 244.77679 103.59161 C 245.42793 103.29188 245.84131 102.87849 246.02736 102.34104 C 246.20304 101.80359 246.29608 100.9458 246.29608 99.757218 L 246.29608 78.765735 C 246.29608 77.163727 246.0997 76.09873 245.7173 75.561279 C 245.33487 75.023832 244.90082 74.703453 244.42539 74.579427 C 243.94996 74.465736 243.51588 74.383057 243.13348 74.352051 C 242.75105 74.321044 242.5547 74.011001 242.5547 73.421875 C 242.5547 72.832746 242.93711 72.305678 243.71226 71.861247 C 244.48743 71.416819 245.61391 70.745057 247.09189 69.856201 C 248.80758 68.843319 250.01727 67.871852 250.73043 66.92098 C 251.44356 65.970111 252.06368 65.49471 252.59078 65.49471 z M 180.11769 65.618734 C 182.01943 65.618734 183.55931 65.846099 184.71689 66.290527 C 185.87447 66.734955 186.75292 67.386047 187.35239 68.243896 C 187.95183 69.101746 188.33475 70.176564 188.51046 71.447835 C 188.68617 72.729443 188.77917 74.196981 188.77917 75.850667 L 188.77917 96.480933 L 188.81018 96.480933 C 188.81018 98.382674 188.92385 99.808871 189.16158 100.74941 C 189.39928 101.70028 190.01939 102.17568 191.03227 102.17568 C 191.68341 102.17568 192.28283 101.87597 192.80994 101.28684 C 193.34738 100.69771 193.87446 100.39801 194.41191 100.39801 C 195.12506 100.39801 195.47644 100.8424 195.47644 101.73126 C 195.47644 102.20669 195.20774 102.78544 194.67029 103.46759 C 194.13284 104.14973 193.50243 104.82149 192.75826 105.47263 C 192.01409 106.12377 191.21831 106.69218 190.35014 107.16762 C 189.49228 107.64305 188.70634 107.88075 187.98284 107.88075 C 186.43252 107.88075 185.15099 107.37435 184.13811 106.3718 C 183.12524 105.35892 182.28811 103.85004 181.63698 101.83461 L 181.09954 101.83461 L 179.21852 103.43658 C 177.66817 104.73886 176.21099 105.85501 174.84669 106.77488 C 173.47208 107.69474 171.96319 108.14947 170.28883 108.14947 C 168.38709 108.14947 166.84669 107.50871 165.68911 106.23744 C 164.53153 104.96617 163.95278 103.19893 163.95278 100.94578 C 163.95278 98.99236 164.2835 97.265934 164.93464 95.787952 C 165.58577 94.309969 166.53656 92.956112 167.79751 91.736519 C 169.04811 90.516924 170.54717 89.380102 172.30421 88.305204 C 174.06125 87.230309 176.01454 86.165826 178.15398 85.101265 L 180.38641 83.943713 C 180.86183 83.705996 181.14087 83.457961 181.2339 83.189237 C 181.3269 82.920514 181.36826 82.465783 181.36826 81.814644 L 181.36826 75.499268 C 181.36826 73.008401 181.17191 71.199816 180.78948 70.073242 C 180.40708 68.946666 179.43559 68.378255 177.88527 68.378255 C 176.33494 68.378255 175.11544 68.894992 174.22657 69.938883 C 173.33771 70.972438 172.46959 72.45031 171.63242 74.341715 C 170.97093 75.830035 170.2475 77.09139 169.44134 78.124947 C 168.63515 79.168836 167.3428 79.685575 165.55475 79.685575 C 165.07932 79.685575 164.67625 79.540888 164.34552 79.241158 C 164.01477 78.941425 163.85977 78.559041 163.85977 78.083606 C 163.85977 76.781328 164.26284 75.385615 165.06899 73.897298 C 165.87518 72.419314 167.00216 71.065459 168.45948 69.845866 C 169.91678 68.62627 171.64269 67.623798 173.63746 66.817627 C 175.63221 66.02179 177.79219 65.618734 180.11769 65.618734 z M 211.96174 65.629069 C 213.38805 65.639414 214.72125 65.794425 215.97183 66.114827 C 217.22244 66.43523 218.29723 66.848621 219.21711 67.365397 C 220.13696 67.882175 220.88109 68.460922 221.4392 69.112061 C 221.99733 69.763199 222.28669 70.476297 222.28669 71.251465 C 222.28669 73.504611 222.05934 75.272377 221.6149 76.543648 C 221.17048 77.825254 220.5917 78.455676 219.87857 78.455676 C 219.04137 78.455676 218.2456 77.597375 217.47045 75.871338 C 216.933 74.744764 216.45759 73.690619 216.04418 72.70874 C 215.63077 71.726865 215.18635 70.910416 214.71093 70.259277 C 214.2355 69.608138 213.71875 69.091399 213.1503 68.698649 C 212.58184 68.316234 211.88942 68.119873 211.06257 68.119873 C 209.99799 68.119873 208.89166 68.52293 207.7651 69.318766 C 206.63853 70.114603 205.62572 71.261764 204.73686 72.770752 C 203.84799 74.279743 203.11422 76.088841 202.55611 78.217965 C 201.98765 80.347086 201.70862 82.765424 201.70862 85.483671 C 201.70862 88.263934 202.01866 90.744278 202.63879 92.925077 C 203.25892 95.105879 204.11671 96.956319 205.22262 98.465308 C 206.31817 99.974296 207.61056 101.12146 209.09886 101.91729 C 210.57685 102.71313 212.20974 103.11619 213.99779 103.11619 C 215.12436 103.11619 216.14749 102.91983 217.06737 102.53741 C 217.98722 102.155 218.76234 101.72093 219.38247 101.2455 C 220.0026 100.77006 220.509 100.34634 220.89143 99.953589 C 221.27383 99.571174 221.56321 99.374813 221.73892 99.374813 C 222.50375 99.374813 222.89647 99.7572 222.89647 100.53236 C 222.89647 101.06982 222.58643 101.76224 221.9663 102.62009 C 221.34617 103.47795 220.47803 104.31506 219.38247 105.1109 C 218.28692 105.91707 216.96404 106.6095 215.42406 107.19862 C 213.88405 107.78775 212.22016 108.08746 210.44245 108.08746 C 208.06528 108.08746 205.87379 107.60172 203.85836 106.61985 C 201.84292 105.63797 200.08602 104.24278 198.60803 102.43406 C 197.11973 100.62534 195.97254 98.43385 195.13538 95.849963 C 194.30853 93.266077 193.88481 90.372342 193.88481 87.168323 C 193.88481 83.850615 194.33954 80.863865 195.26973 78.2283 C 196.18961 75.592735 197.45043 73.328902 199.05245 71.458171 C 200.65445 69.587436 202.55605 68.150903 204.74719 67.138021 C 206.93831 66.125136 209.34684 65.629069 211.96174 65.629069 z M 315.68926 65.691081 C 318.41785 65.691081 320.90853 66.207818 323.16167 67.251709 C 325.41483 68.285263 327.32726 69.742465 328.89827 71.6132 C 330.46926 73.483934 331.68877 75.727094 332.54663 78.331653 C 333.40448 80.946546 333.83854 83.850616 333.83854 87.054635 C 333.83854 90.196641 333.39415 93.080043 332.50529 95.684599 C 331.61645 98.299492 330.35558 100.52198 328.72257 102.36171 C 327.08956 104.20144 325.08408 105.62764 322.71725 106.63018 C 320.34008 107.64307 317.6737 108.13914 314.70741 108.13914 C 312.04083 108.13914 309.60184 107.6224 307.41069 106.57851 C 305.20923 105.54495 303.32776 104.08775 301.75677 102.21702 C 300.18576 100.34628 298.96628 98.113457 298.10842 95.498564 C 297.25059 92.883671 296.81651 90.010605 296.81651 86.868599 C 296.82683 83.664581 297.27123 80.750176 298.1601 78.145618 C 299.04894 75.530725 300.33045 73.308233 301.98415 71.468506 C 303.64817 69.628778 305.63297 68.20258 307.94813 67.200033 C 310.26328 66.187148 312.84697 65.691081 315.68926 65.691081 z M 347.69867 65.691081 C 351.45049 65.680736 354.00319 66.063132 355.36746 66.827962 C 356.73175 67.592793 357.41384 68.750287 357.41384 70.310954 C 357.41384 72.388397 357.32081 73.917945 357.14513 74.889486 C 356.96942 75.871364 356.57669 76.357613 355.98757 76.357613 C 355.33641 76.357613 354.95406 75.943705 354.83002 75.106527 C 354.70601 74.279683 354.29258 73.23587 353.57945 71.995605 C 352.09112 69.442725 350.13785 68.171549 347.70901 68.171549 C 345.98297 68.171549 344.60792 68.657282 343.57438 69.63916 C 342.54081 70.610701 342.01375 71.871545 342.01375 73.401204 C 342.01375 74.403752 342.22043 75.251204 342.63387 75.923014 C 343.04728 76.60516 343.64671 77.236098 344.41154 77.825224 C 345.18671 78.41435 346.11736 78.993097 347.21292 79.551217 C 348.3085 80.109336 349.53832 80.750092 350.90261 81.452909 C 353.80689 82.992904 355.94619 84.718813 357.31049 86.641223 C 358.67479 88.563636 359.35688 90.971637 359.35688 93.865588 C 359.35688 96.108403 359.01583 98.124199 358.33368 99.891577 C 357.65154 101.65896 356.69041 103.1575 355.4398 104.36676 C 354.1892 105.57601 352.72168 106.50614 351.03697 107.15728 C 349.34195 107.80842 347.49148 108.1288 345.47607 108.1288 C 343.46064 108.1288 341.65207 107.90143 340.05004 107.45701 C 338.44805 107.01258 337.22854 106.52684 336.40169 105.9894 C 335.86424 105.68967 335.54387 105.30728 335.41984 104.83184 C 335.29583 104.35641 335.24414 103.70532 335.24414 102.87847 L 335.24414 100.65639 C 335.24414 98.227534 335.30617 96.459775 335.41984 95.364205 C 335.53353 94.268638 335.92625 93.720894 336.57739 93.720894 C 336.9908 93.720894 337.29051 93.865579 337.46622 94.165312 C 337.64193 94.465042 337.80728 94.888766 337.95198 95.457222 C 338.09668 96.025677 338.27238 96.708289 338.48942 97.504126 C 338.69614 98.299963 339.03718 99.209421 339.51261 100.22231 C 341.17663 103.83975 343.54381 105.64833 346.63414 105.64833 C 348.53588 105.64833 350.08609 104.99724 351.30569 103.69496 C 352.52528 102.39268 353.13503 100.63577 353.13503 98.444637 C 353.13503 97.318064 352.93866 96.325408 352.55626 95.467558 C 352.17383 94.609708 351.60544 93.834599 350.86127 93.152454 C 350.11713 92.470308 349.21799 91.819217 348.14309 91.199084 C 347.07854 90.578952 345.88951 89.907193 344.58724 89.194039 C 343.0989 88.418874 341.79673 87.664434 340.67016 86.920276 C 339.54359 86.176117 338.59277 85.380341 337.81762 84.512154 C 337.04245 83.654304 336.46372 82.6725 336.08129 81.576933 C 335.69889 80.481366 335.50252 79.18952 335.50252 77.7012 C 335.50252 74.021747 336.63934 71.096488 338.93383 68.936361 C 341.21801 66.765896 344.14326 65.691081 347.69867 65.691081 z M 315.34819 68.171549 C 311.95814 68.171549 309.34343 69.690764 307.51405 72.70874 C 305.67429 75.737055 304.75401 80.036835 304.75401 85.61803 C 304.75401 91.912376 305.74668 96.821909 307.74142 100.34633 C 309.72585 103.88109 312.31987 105.638 315.52389 105.638 C 318.78991 105.638 321.35295 104.10845 323.22368 101.04913 C 325.09442 97.989808 326.02454 93.710698 326.02454 88.191516 C 326.02454 81.907504 325.03241 76.987637 323.04798 73.463216 C 321.06356 69.938796 318.4902 68.171549 315.34819 68.171549 z M 180.97552 86.424182 C 180.79981 86.424182 180.50012 86.548199 180.08668 86.775582 L 177.15146 88.201851 C 173.64769 89.979564 171.90114 92.946159 171.90114 97.10105 C 171.90114 98.827084 172.21118 100.12927 172.83131 101.01812 C 173.45144 101.90698 174.2679 102.35138 175.28077 102.35138 C 175.99393 102.35138 176.70702 102.15501 177.42018 101.7726 C 178.13334 101.39018 178.78443 100.85278 179.37355 100.17063 C 179.96269 99.488484 180.45876 98.672036 180.84116 97.721167 C 181.22359 96.770295 181.41993 95.705298 181.41993 94.516711 L 181.41993 87.488717 C 181.41993 86.775565 181.26492 86.424182 180.97552 86.424182 z " /><g
       id="g5178"
       transform="matrix(0.26458333,0,0,0.26458333,-298.46311,46.165841)" /></g></svg>
