<?xml version="1.0" encoding="UTF-8" standalone="no"?>
<!-- Created with Inkscape (http://www.inkscape.org/) -->

<svg
   width="1500"
   height="500"
   viewBox="0 0 396.87498 132.29167"
   version="1.1"
   id="svg5"
   inkscape:version="1.2.2 (732a01da63, 2022-12-09)"
   xml:space="preserve"
   sodipodi:docname="mame.svg"
   xmlns:inkscape="http://www.inkscape.org/namespaces/inkscape"
   xmlns:sodipodi="http://sodipodi.sourceforge.net/DTD/sodipodi-0.dtd"
   xmlns="http://www.w3.org/2000/svg"
   xmlns:svg="http://www.w3.org/2000/svg"><sodipodi:namedview
     id="namedview7"
     pagecolor="#000000"
     bordercolor="#111111"
     borderopacity="1"
     inkscape:showpageshadow="0"
     inkscape:pageopacity="0"
     inkscape:pagecheckerboard="1"
     inkscape:deskcolor="#d1d1d1"
     inkscape:document-units="mm"
     showgrid="false"
     inkscape:zoom="0.62760417"
     inkscape:cx="954.42323"
     inkscape:cy="541.74274"
     inkscape:window-width="1920"
     inkscape:window-height="1009"
     inkscape:window-x="-8"
     inkscape:window-y="-8"
     inkscape:window-maximized="1"
     inkscape:current-layer="layer1" /><defs
     id="defs2"><path
       id="SVGID_37_"
       d="M263.9,1002.2c13.5-0.7,27.7-3.4,41.2-7.4c6.7-2,18.2-6.7,35.8-14.2c14.8-6.1,27-10.8,37.8-13.5 c15.5-4,31.7-6.1,48.6-6.1c16.9,0,33.1,2,48.6,6.1c9.4,2.7,22.3,7.4,37.8,14.2c15.5,6.7,27.7,10.8,35.8,13.5 c14.2,4,28.3,6.1,43.2,5.4c21.6,0,41.8-6.1,60.7-18.2c16.2-10.8,32.4-25.6,49.3-45.9c10.8-12.8,25-32.4,43.2-58.7 c19.6-29.7,37.1-61.4,52-96.5c5.4-12.8,11.5-28.3,16.9-45.9c-10.8-4-22.3-10.1-35.1-18.9c-26.3-17.5-47.9-39.1-64.1-64.1 c-22.9-34.4-34.4-74.2-35.1-119.5c0-37.1,8.8-72.9,27-105.3c12.8-22.9,30.4-43.9,51.3-62.8c9.4-8.8,19.6-16.2,30.4-22.9 c-25.6-37.8-60.1-64.8-102.6-81.7c-24.3-9.4-51.3-15.5-81-17.5c-15.5-1.3-31.7-0.7-47.9,2c-13.5,2-28.3,6.1-43.9,10.8 c-10.1,4-22.9,8.8-39.1,14.8c-16.2,6.7-27.7,10.8-33.7,12.8c-10.8,3.4-20.2,5.4-27,5.4c-8.8,0-20.2-2-33.7-6.7 c-4-1.3-16.9-6.7-39.8-15.5c-17.5-6.7-32.4-12.1-44.5-15.5c-16.9-4-32.4-6.1-47.2-6.1c-42.5,0.7-81.7,12.1-118.8,35.1 c-37.1,22.3-66.1,52.6-87.7,91.1C14.2,418.4,0,475.8,0,541.3C0,600,10.1,660,31,722.8c18.9,57.4,43.9,108,74.2,151.8 c17.5,26.3,32.4,46.6,44.5,60.7c17.5,21.6,35.1,37.1,52,47.9C222,996.1,242.3,1002.2,263.9,1002.2z" /><path
       id="SVGID_39_"
       d="M263.9,1002.2c13.5-0.7,27.7-3.4,41.2-7.4c6.7-2,18.2-6.7,35.8-14.2c14.8-6.1,27-10.8,37.8-13.5 c15.5-4,31.7-6.1,48.6-6.1c16.9,0,33.1,2,48.6,6.1c9.4,2.7,22.3,7.4,37.8,14.2c15.5,6.7,27.7,10.8,35.8,13.5 c14.2,4,28.3,6.1,43.2,5.4c21.6,0,41.8-6.1,60.7-18.2c16.2-10.8,32.4-25.6,49.3-45.9c10.8-12.8,25-32.4,43.2-58.7 c19.6-29.7,37.1-61.4,52-96.5c5.4-12.8,11.5-28.3,16.9-45.9c-10.8-4-22.3-10.1-35.1-18.9c-26.3-17.5-47.9-39.1-64.1-64.1 c-22.9-34.4-34.4-74.2-35.1-119.5c0-37.1,8.8-72.9,27-105.3c12.8-22.9,30.4-43.9,51.3-62.8c9.4-8.8,19.6-16.2,30.4-22.9 c-25.6-37.8-60.1-64.8-102.6-81.7c-24.3-9.4-51.3-15.5-81-17.5c-15.5-1.3-31.7-0.7-47.9,2c-13.5,2-28.3,6.1-43.9,10.8 c-10.1,4-22.9,8.8-39.1,14.8c-16.2,6.7-27.7,10.8-33.7,12.8c-10.8,3.4-20.2,5.4-27,5.4c-8.8,0-20.2-2-33.7-6.7 c-4-1.3-16.9-6.7-39.8-15.5c-17.5-6.7-32.4-12.1-44.5-15.5c-16.9-4-32.4-6.1-47.2-6.1c-42.5,0.7-81.7,12.1-118.8,35.1 c-37.1,22.3-66.1,52.6-87.7,91.1C14.2,418.4,0,475.8,0,541.3C0,600,10.1,660,31,722.8c18.9,57.4,43.9,108,74.2,151.8 c17.5,26.3,32.4,46.6,44.5,60.7c17.5,21.6,35.1,37.1,52,47.9C222,996.1,242.3,1002.2,263.9,1002.2z" /><path
       id="SVGID_41_"
       d="M263.9,1002.2c13.5-0.7,27.7-3.4,41.2-7.4c6.7-2,18.2-6.7,35.8-14.2c14.8-6.1,27-10.8,37.8-13.5 c15.5-4,31.7-6.1,48.6-6.1c16.9,0,33.1,2,48.6,6.1c9.4,2.7,22.3,7.4,37.8,14.2c15.5,6.7,27.7,10.8,35.8,13.5 c14.2,4,28.3,6.1,43.2,5.4c21.6,0,41.8-6.1,60.7-18.2c16.2-10.8,32.4-25.6,49.3-45.9c10.8-12.8,25-32.4,43.2-58.7 c19.6-29.7,37.1-61.4,52-96.5c5.4-12.8,11.5-28.3,16.9-45.9c-10.8-4-22.3-10.1-35.1-18.9c-26.3-17.5-47.9-39.1-64.1-64.1 c-22.9-34.4-34.4-74.2-35.1-119.5c0-37.1,8.8-72.9,27-105.3c12.8-22.9,30.4-43.9,51.3-62.8c9.4-8.8,19.6-16.2,30.4-22.9 c-25.6-37.8-60.1-64.8-102.6-81.7c-24.3-9.4-51.3-15.5-81-17.5c-15.5-1.3-31.7-0.7-47.9,2c-13.5,2-28.3,6.1-43.9,10.8 c-10.1,4-22.9,8.8-39.1,14.8c-16.2,6.7-27.7,10.8-33.7,12.8c-10.8,3.4-20.2,5.4-27,5.4c-8.8,0-20.2-2-33.7-6.7 c-4-1.3-16.9-6.7-39.8-15.5c-17.5-6.7-32.4-12.1-44.5-15.5c-16.9-4-32.4-6.1-47.2-6.1c-42.5,0.7-81.7,12.1-118.8,35.1 c-37.1,22.3-66.1,52.6-87.7,91.1C14.2,418.4,0,475.8,0,541.3C0,600,10.1,660,31,722.8c18.9,57.4,43.9,108,74.2,151.8 c17.5,26.3,32.4,46.6,44.5,60.7c17.5,21.6,35.1,37.1,52,47.9C222,996.1,242.3,1002.2,263.9,1002.2z" /><path
       id="SVGID_43_"
       d="M263.9,1002.2c13.5-0.7,27.7-3.4,41.2-7.4c6.7-2,18.2-6.7,35.8-14.2c14.8-6.1,27-10.8,37.8-13.5 c15.5-4,31.7-6.1,48.6-6.1c16.9,0,33.1,2,48.6,6.1c9.4,2.7,22.3,7.4,37.8,14.2c15.5,6.7,27.7,10.8,35.8,13.5 c14.2,4,28.3,6.1,43.2,5.4c21.6,0,41.8-6.1,60.7-18.2c16.2-10.8,32.4-25.6,49.3-45.9c10.8-12.8,25-32.4,43.2-58.7 c19.6-29.7,37.1-61.4,52-96.5c5.4-12.8,11.5-28.3,16.9-45.9c-10.8-4-22.3-10.1-35.1-18.9c-26.3-17.5-47.9-39.1-64.1-64.1 c-22.9-34.4-34.4-74.2-35.1-119.5c0-37.1,8.8-72.9,27-105.3c12.8-22.9,30.4-43.9,51.3-62.8c9.4-8.8,19.6-16.2,30.4-22.9 c-25.6-37.8-60.1-64.8-102.6-81.7c-24.3-9.4-51.3-15.5-81-17.5c-15.5-1.3-31.7-0.7-47.9,2c-13.5,2-28.3,6.1-43.9,10.8 c-10.1,4-22.9,8.8-39.1,14.8c-16.2,6.7-27.7,10.8-33.7,12.8c-10.8,3.4-20.2,5.4-27,5.4c-8.8,0-20.2-2-33.7-6.7 c-4-1.3-16.9-6.7-39.8-15.5c-17.5-6.7-32.4-12.1-44.5-15.5c-16.9-4-32.4-6.1-47.2-6.1c-42.5,0.7-81.7,12.1-118.8,35.1 c-37.1,22.3-66.1,52.6-87.7,91.1C14.2,418.4,0,475.8,0,541.3C0,600,10.1,660,31,722.8c18.9,57.4,43.9,108,74.2,151.8 c17.5,26.3,32.4,46.6,44.5,60.7c17.5,21.6,35.1,37.1,52,47.9C222,996.1,242.3,1002.2,263.9,1002.2z" /><path
       id="SVGID_45_"
       d="M263.9,1002.2c13.5-0.7,27.7-3.4,41.2-7.4c6.7-2,18.2-6.7,35.8-14.2c14.8-6.1,27-10.8,37.8-13.5 c15.5-4,31.7-6.1,48.6-6.1c16.9,0,33.1,2,48.6,6.1c9.4,2.7,22.3,7.4,37.8,14.2c15.5,6.7,27.7,10.8,35.8,13.5 c14.2,4,28.3,6.1,43.2,5.4c21.6,0,41.8-6.1,60.7-18.2c16.2-10.8,32.4-25.6,49.3-45.9c10.8-12.8,25-32.4,43.2-58.7 c19.6-29.7,37.1-61.4,52-96.5c5.4-12.8,11.5-28.3,16.9-45.9c-10.8-4-22.3-10.1-35.1-18.9c-26.3-17.5-47.9-39.1-64.1-64.1 c-22.9-34.4-34.4-74.2-35.1-119.5c0-37.1,8.8-72.9,27-105.3c12.8-22.9,30.4-43.9,51.3-62.8c9.4-8.8,19.6-16.2,30.4-22.9 c-25.6-37.8-60.1-64.8-102.6-81.7c-24.3-9.4-51.3-15.5-81-17.5c-15.5-1.3-31.7-0.7-47.9,2c-13.5,2-28.3,6.1-43.9,10.8 c-10.1,4-22.9,8.8-39.1,14.8c-16.2,6.7-27.7,10.8-33.7,12.8c-10.8,3.4-20.2,5.4-27,5.4c-8.8,0-20.2-2-33.7-6.7 c-4-1.3-16.9-6.7-39.8-15.5c-17.5-6.7-32.4-12.1-44.5-15.5c-16.9-4-32.4-6.1-47.2-6.1c-42.5,0.7-81.7,12.1-118.8,35.1 c-37.1,22.3-66.1,52.6-87.7,91.1C14.2,418.4,0,475.8,0,541.3C0,600,10.1,660,31,722.8c18.9,57.4,43.9,108,74.2,151.8 c17.5,26.3,32.4,46.6,44.5,60.7c17.5,21.6,35.1,37.1,52,47.9C222,996.1,242.3,1002.2,263.9,1002.2z" /><path
       id="SVGID_47_"
       d="M263.9,1002.2c13.5-0.7,27.7-3.4,41.2-7.4c6.7-2,18.2-6.7,35.8-14.2c14.8-6.1,27-10.8,37.8-13.5 c15.5-4,31.7-6.1,48.6-6.1c16.9,0,33.1,2,48.6,6.1c9.4,2.7,22.3,7.4,37.8,14.2c15.5,6.7,27.7,10.8,35.8,13.5 c14.2,4,28.3,6.1,43.2,5.4c21.6,0,41.8-6.1,60.7-18.2c16.2-10.8,32.4-25.6,49.3-45.9c10.8-12.8,25-32.4,43.2-58.7 c19.6-29.7,37.1-61.4,52-96.5c5.4-12.8,11.5-28.3,16.9-45.9c-10.8-4-22.3-10.1-35.1-18.9c-26.3-17.5-47.9-39.1-64.1-64.1 c-22.9-34.4-34.4-74.2-35.1-119.5c0-37.1,8.8-72.9,27-105.3c12.8-22.9,30.4-43.9,51.3-62.8c9.4-8.8,19.6-16.2,30.4-22.9 c-25.6-37.8-60.1-64.8-102.6-81.7c-24.3-9.4-51.3-15.5-81-17.5c-15.5-1.3-31.7-0.7-47.9,2c-13.5,2-28.3,6.1-43.9,10.8 c-10.1,4-22.9,8.8-39.1,14.8c-16.2,6.7-27.7,10.8-33.7,12.8c-10.8,3.4-20.2,5.4-27,5.4c-8.8,0-20.2-2-33.7-6.7 c-4-1.3-16.9-6.7-39.8-15.5c-17.5-6.7-32.4-12.1-44.5-15.5c-16.9-4-32.4-6.1-47.2-6.1c-42.5,0.7-81.7,12.1-118.8,35.1 c-37.1,22.3-66.1,52.6-87.7,91.1C14.2,418.4,0,475.8,0,541.3C0,600,10.1,660,31,722.8c18.9,57.4,43.9,108,74.2,151.8 c17.5,26.3,32.4,46.6,44.5,60.7c17.5,21.6,35.1,37.1,52,47.9C222,996.1,242.3,1002.2,263.9,1002.2z" /></defs><g
     inkscape:label="Layer 1"
     inkscape:groupmode="layer"
     id="layer1"><path
       id="rect231"
       style="fill:#ffffff;stroke-width:0.8001;stroke-linecap:square;paint-order:fill markers stroke"
       d="M 0 0 L 0 96.152787 L 86.99314 9.1601644 L 86.99314 45.152283 L 122.98526 9.1601644 L 122.98526 66.889974 L 180.71558 9.1601644 L 180.70525 69.825712 L 241.3708 9.1601644 L 241.3708 45.152283 L 277.36292 9.1601644 L 277.36292 66.889974 L 331.20614 13.046232 L 331.90946 13.046232 L 396.875 13.046232 L 396.875 0 L 0 0 z M 396.875 13.046232 L 373.02839 36.892839 L 343.3625 36.892839 L 337.57371 42.681632 L 352.42758 42.681632 L 328.58098 66.517904 L 313.73744 66.517904 L 307.94916 72.306181 L 360.84154 72.306181 L 337.00527 96.152787 L 248.11044 96.152787 L 251.91382 92.33855 L 251.91382 70.611194 L 222.86805 99.656966 L 222.86805 63.664848 L 190.38011 96.152787 L 165.29327 96.152787 L 155.25616 96.152787 L 155.25616 70.621529 L 103.30429 122.56306 L 67.31217 122.56306 L 97.536682 92.33855 L 97.536682 70.611194 L 68.490393 99.656966 L 68.490393 63.664848 L 35.992118 96.152787 L 0 96.152787 L 0 132.29167 L 396.875 132.29167 L 396.875 13.046232 z " /></g></svg>
