<?xml version="1.0" encoding="UTF-8" standalone="no"?>
<!-- Created with Inkscape (http://www.inkscape.org/) -->

<svg
   width="1500"
   height="500"
   viewBox="0 0 396.87498 132.29167"
   version="1.1"
   id="svg5"
   inkscape:version="1.2.2 (732a01da63, 2022-12-09)"
   xml:space="preserve"
   sodipodi:docname="mastersystem.svg"
   xmlns:inkscape="http://www.inkscape.org/namespaces/inkscape"
   xmlns:sodipodi="http://sodipodi.sourceforge.net/DTD/sodipodi-0.dtd"
   xmlns="http://www.w3.org/2000/svg"
   xmlns:svg="http://www.w3.org/2000/svg"><sodipodi:namedview
     id="namedview7"
     pagecolor="#000000"
     bordercolor="#111111"
     borderopacity="1"
     inkscape:showpageshadow="0"
     inkscape:pageopacity="0"
     inkscape:pagecheckerboard="1"
     inkscape:deskcolor="#d1d1d1"
     inkscape:document-units="mm"
     showgrid="false"
     inkscape:zoom="0.44378316"
     inkscape:cx="694.03264"
     inkscape:cy="369.54985"
     inkscape:window-width="1920"
     inkscape:window-height="1009"
     inkscape:window-x="-8"
     inkscape:window-y="-8"
     inkscape:window-maximized="1"
     inkscape:current-layer="layer1" /><defs
     id="defs2"><path
   id="SVGID_37_"
   d="M263.9,1002.2c13.5-0.7,27.7-3.4,41.2-7.4c6.7-2,18.2-6.7,35.8-14.2c14.8-6.1,27-10.8,37.8-13.5 c15.5-4,31.7-6.1,48.6-6.1c16.9,0,33.1,2,48.6,6.1c9.4,2.7,22.3,7.4,37.8,14.2c15.5,6.7,27.7,10.8,35.8,13.5 c14.2,4,28.3,6.1,43.2,5.4c21.6,0,41.8-6.1,60.7-18.2c16.2-10.8,32.4-25.6,49.3-45.9c10.8-12.8,25-32.4,43.2-58.7 c19.6-29.7,37.1-61.4,52-96.5c5.4-12.8,11.5-28.3,16.9-45.9c-10.8-4-22.3-10.1-35.1-18.9c-26.3-17.5-47.9-39.1-64.1-64.1 c-22.9-34.4-34.4-74.2-35.1-119.5c0-37.1,8.8-72.9,27-105.3c12.8-22.9,30.4-43.9,51.3-62.8c9.4-8.8,19.6-16.2,30.4-22.9 c-25.6-37.8-60.1-64.8-102.6-81.7c-24.3-9.4-51.3-15.5-81-17.5c-15.5-1.3-31.7-0.7-47.9,2c-13.5,2-28.3,6.1-43.9,10.8 c-10.1,4-22.9,8.8-39.1,14.8c-16.2,6.7-27.7,10.8-33.7,12.8c-10.8,3.4-20.2,5.4-27,5.4c-8.8,0-20.2-2-33.7-6.7 c-4-1.3-16.9-6.7-39.8-15.5c-17.5-6.7-32.4-12.1-44.5-15.5c-16.9-4-32.4-6.1-47.2-6.1c-42.5,0.7-81.7,12.1-118.8,35.1 c-37.1,22.3-66.1,52.6-87.7,91.1C14.2,418.4,0,475.8,0,541.3C0,600,10.1,660,31,722.8c18.9,57.4,43.9,108,74.2,151.8 c17.5,26.3,32.4,46.6,44.5,60.7c17.5,21.6,35.1,37.1,52,47.9C222,996.1,242.3,1002.2,263.9,1002.2z" /><path
   id="SVGID_39_"
   d="M263.9,1002.2c13.5-0.7,27.7-3.4,41.2-7.4c6.7-2,18.2-6.7,35.8-14.2c14.8-6.1,27-10.8,37.8-13.5 c15.5-4,31.7-6.1,48.6-6.1c16.9,0,33.1,2,48.6,6.1c9.4,2.7,22.3,7.4,37.8,14.2c15.5,6.7,27.7,10.8,35.8,13.5 c14.2,4,28.3,6.1,43.2,5.4c21.6,0,41.8-6.1,60.7-18.2c16.2-10.8,32.4-25.6,49.3-45.9c10.8-12.8,25-32.4,43.2-58.7 c19.6-29.7,37.1-61.4,52-96.5c5.4-12.8,11.5-28.3,16.9-45.9c-10.8-4-22.3-10.1-35.1-18.9c-26.3-17.5-47.9-39.1-64.1-64.1 c-22.9-34.4-34.4-74.2-35.1-119.5c0-37.1,8.8-72.9,27-105.3c12.8-22.9,30.4-43.9,51.3-62.8c9.4-8.8,19.6-16.2,30.4-22.9 c-25.6-37.8-60.1-64.8-102.6-81.7c-24.3-9.4-51.3-15.5-81-17.5c-15.5-1.3-31.7-0.7-47.9,2c-13.5,2-28.3,6.1-43.9,10.8 c-10.1,4-22.9,8.8-39.1,14.8c-16.2,6.7-27.7,10.8-33.7,12.8c-10.8,3.4-20.2,5.4-27,5.4c-8.8,0-20.2-2-33.7-6.7 c-4-1.3-16.9-6.7-39.8-15.5c-17.5-6.7-32.4-12.1-44.5-15.5c-16.9-4-32.4-6.1-47.2-6.1c-42.5,0.7-81.7,12.1-118.8,35.1 c-37.1,22.3-66.1,52.6-87.7,91.1C14.2,418.4,0,475.8,0,541.3C0,600,10.1,660,31,722.8c18.9,57.4,43.9,108,74.2,151.8 c17.5,26.3,32.4,46.6,44.5,60.7c17.5,21.6,35.1,37.1,52,47.9C222,996.1,242.3,1002.2,263.9,1002.2z" /><path
   id="SVGID_41_"
   d="M263.9,1002.2c13.5-0.7,27.7-3.4,41.2-7.4c6.7-2,18.2-6.7,35.8-14.2c14.8-6.1,27-10.8,37.8-13.5 c15.5-4,31.7-6.1,48.6-6.1c16.9,0,33.1,2,48.6,6.1c9.4,2.7,22.3,7.4,37.8,14.2c15.5,6.7,27.7,10.8,35.8,13.5 c14.2,4,28.3,6.1,43.2,5.4c21.6,0,41.8-6.1,60.7-18.2c16.2-10.8,32.4-25.6,49.3-45.9c10.8-12.8,25-32.4,43.2-58.7 c19.6-29.7,37.1-61.4,52-96.5c5.4-12.8,11.5-28.3,16.9-45.9c-10.8-4-22.3-10.1-35.1-18.9c-26.3-17.5-47.9-39.1-64.1-64.1 c-22.9-34.4-34.4-74.2-35.1-119.5c0-37.1,8.8-72.9,27-105.3c12.8-22.9,30.4-43.9,51.3-62.8c9.4-8.8,19.6-16.2,30.4-22.9 c-25.6-37.8-60.1-64.8-102.6-81.7c-24.3-9.4-51.3-15.5-81-17.5c-15.5-1.3-31.7-0.7-47.9,2c-13.5,2-28.3,6.1-43.9,10.8 c-10.1,4-22.9,8.8-39.1,14.8c-16.2,6.7-27.7,10.8-33.7,12.8c-10.8,3.4-20.2,5.4-27,5.4c-8.8,0-20.2-2-33.7-6.7 c-4-1.3-16.9-6.7-39.8-15.5c-17.5-6.7-32.4-12.1-44.5-15.5c-16.9-4-32.4-6.1-47.2-6.1c-42.5,0.7-81.7,12.1-118.8,35.1 c-37.1,22.3-66.1,52.6-87.7,91.1C14.2,418.4,0,475.8,0,541.3C0,600,10.1,660,31,722.8c18.9,57.4,43.9,108,74.2,151.8 c17.5,26.3,32.4,46.6,44.5,60.7c17.5,21.6,35.1,37.1,52,47.9C222,996.1,242.3,1002.2,263.9,1002.2z" /><path
   id="SVGID_43_"
   d="M263.9,1002.2c13.5-0.7,27.7-3.4,41.2-7.4c6.7-2,18.2-6.7,35.8-14.2c14.8-6.1,27-10.8,37.8-13.5 c15.5-4,31.7-6.1,48.6-6.1c16.9,0,33.1,2,48.6,6.1c9.4,2.7,22.3,7.4,37.8,14.2c15.5,6.7,27.7,10.8,35.8,13.5 c14.2,4,28.3,6.1,43.2,5.4c21.6,0,41.8-6.1,60.7-18.2c16.2-10.8,32.4-25.6,49.3-45.9c10.8-12.8,25-32.4,43.2-58.7 c19.6-29.7,37.1-61.4,52-96.5c5.4-12.8,11.5-28.3,16.9-45.9c-10.8-4-22.3-10.1-35.1-18.9c-26.3-17.5-47.9-39.1-64.1-64.1 c-22.9-34.4-34.4-74.2-35.1-119.5c0-37.1,8.8-72.9,27-105.3c12.8-22.9,30.4-43.9,51.3-62.8c9.4-8.8,19.6-16.2,30.4-22.9 c-25.6-37.8-60.1-64.8-102.6-81.7c-24.3-9.4-51.3-15.5-81-17.5c-15.5-1.3-31.7-0.7-47.9,2c-13.5,2-28.3,6.1-43.9,10.8 c-10.1,4-22.9,8.8-39.1,14.8c-16.2,6.7-27.7,10.8-33.7,12.8c-10.8,3.4-20.2,5.4-27,5.4c-8.8,0-20.2-2-33.7-6.7 c-4-1.3-16.9-6.7-39.8-15.5c-17.5-6.7-32.4-12.1-44.5-15.5c-16.9-4-32.4-6.1-47.2-6.1c-42.5,0.7-81.7,12.1-118.8,35.1 c-37.1,22.3-66.1,52.6-87.7,91.1C14.2,418.4,0,475.8,0,541.3C0,600,10.1,660,31,722.8c18.9,57.4,43.9,108,74.2,151.8 c17.5,26.3,32.4,46.6,44.5,60.7c17.5,21.6,35.1,37.1,52,47.9C222,996.1,242.3,1002.2,263.9,1002.2z" /><path
   id="SVGID_45_"
   d="M263.9,1002.2c13.5-0.7,27.7-3.4,41.2-7.4c6.7-2,18.2-6.7,35.8-14.2c14.8-6.1,27-10.8,37.8-13.5 c15.5-4,31.7-6.1,48.6-6.1c16.9,0,33.1,2,48.6,6.1c9.4,2.7,22.3,7.4,37.8,14.2c15.5,6.7,27.7,10.8,35.8,13.5 c14.2,4,28.3,6.1,43.2,5.4c21.6,0,41.8-6.1,60.7-18.2c16.2-10.8,32.4-25.6,49.3-45.9c10.8-12.8,25-32.4,43.2-58.7 c19.6-29.7,37.1-61.4,52-96.5c5.4-12.8,11.5-28.3,16.9-45.9c-10.8-4-22.3-10.1-35.1-18.9c-26.3-17.5-47.9-39.1-64.1-64.1 c-22.9-34.4-34.4-74.2-35.1-119.5c0-37.1,8.8-72.9,27-105.3c12.8-22.9,30.4-43.9,51.3-62.8c9.4-8.8,19.6-16.2,30.4-22.9 c-25.6-37.8-60.1-64.8-102.6-81.7c-24.3-9.4-51.3-15.5-81-17.5c-15.5-1.3-31.7-0.7-47.9,2c-13.5,2-28.3,6.1-43.9,10.8 c-10.1,4-22.9,8.8-39.1,14.8c-16.2,6.7-27.7,10.8-33.7,12.8c-10.8,3.4-20.2,5.4-27,5.4c-8.8,0-20.2-2-33.7-6.7 c-4-1.3-16.9-6.7-39.8-15.5c-17.5-6.7-32.4-12.1-44.5-15.5c-16.9-4-32.4-6.1-47.2-6.1c-42.5,0.7-81.7,12.1-118.8,35.1 c-37.1,22.3-66.1,52.6-87.7,91.1C14.2,418.4,0,475.8,0,541.3C0,600,10.1,660,31,722.8c18.9,57.4,43.9,108,74.2,151.8 c17.5,26.3,32.4,46.6,44.5,60.7c17.5,21.6,35.1,37.1,52,47.9C222,996.1,242.3,1002.2,263.9,1002.2z" /><path
   id="SVGID_47_"
   d="M263.9,1002.2c13.5-0.7,27.7-3.4,41.2-7.4c6.7-2,18.2-6.7,35.8-14.2c14.8-6.1,27-10.8,37.8-13.5 c15.5-4,31.7-6.1,48.6-6.1c16.9,0,33.1,2,48.6,6.1c9.4,2.7,22.3,7.4,37.8,14.2c15.5,6.7,27.7,10.8,35.8,13.5 c14.2,4,28.3,6.1,43.2,5.4c21.6,0,41.8-6.1,60.7-18.2c16.2-10.8,32.4-25.6,49.3-45.9c10.8-12.8,25-32.4,43.2-58.7 c19.6-29.7,37.1-61.4,52-96.5c5.4-12.8,11.5-28.3,16.9-45.9c-10.8-4-22.3-10.1-35.1-18.9c-26.3-17.5-47.9-39.1-64.1-64.1 c-22.9-34.4-34.4-74.2-35.1-119.5c0-37.1,8.8-72.9,27-105.3c12.8-22.9,30.4-43.9,51.3-62.8c9.4-8.8,19.6-16.2,30.4-22.9 c-25.6-37.8-60.1-64.8-102.6-81.7c-24.3-9.4-51.3-15.5-81-17.5c-15.5-1.3-31.7-0.7-47.9,2c-13.5,2-28.3,6.1-43.9,10.8 c-10.1,4-22.9,8.8-39.1,14.8c-16.2,6.7-27.7,10.8-33.7,12.8c-10.8,3.4-20.2,5.4-27,5.4c-8.8,0-20.2-2-33.7-6.7 c-4-1.3-16.9-6.7-39.8-15.5c-17.5-6.7-32.4-12.1-44.5-15.5c-16.9-4-32.4-6.1-47.2-6.1c-42.5,0.7-81.7,12.1-118.8,35.1 c-37.1,22.3-66.1,52.6-87.7,91.1C14.2,418.4,0,475.8,0,541.3C0,600,10.1,660,31,722.8c18.9,57.4,43.9,108,74.2,151.8 c17.5,26.3,32.4,46.6,44.5,60.7c17.5,21.6,35.1,37.1,52,47.9C222,996.1,242.3,1002.2,263.9,1002.2z" />
	
		<linearGradient
   id="SVGID_15_"
   gradientUnits="userSpaceOnUse"
   x1="-82"
   y1="224.5"
   x2="-82"
   y2="151.5"
   gradientTransform="matrix(1,0,0,-1,654,325)">
		<stop
   offset="0"
   style="stop-color:#7ED3F7"
   id="stop160" />
		<stop
   offset="1"
   style="stop-color:#003D7E"
   id="stop162" />
	</linearGradient>
	
	

	
		<linearGradient
   id="SVGID_14_"
   gradientUnits="userSpaceOnUse"
   x1="-24"
   y1="311.5"
   x2="-24"
   y2="238"
   gradientTransform="matrix(1,0,0,-1,654,325)">
		<stop
   offset="0"
   style="stop-color:#7ED3F7"
   id="stop149" />
		<stop
   offset="1"
   style="stop-color:#003D7E"
   id="stop151" />
	</linearGradient>
	
	

	
		<linearGradient
   id="SVGID_13_"
   gradientUnits="userSpaceOnUse"
   x1="-208.3335"
   y1="311.5"
   x2="-208.3335"
   y2="238"
   gradientTransform="matrix(1,0,0,-1,654,325)">
		<stop
   offset="0"
   style="stop-color:#7ED3F7"
   id="stop138" />
		<stop
   offset="1"
   style="stop-color:#003D7E"
   id="stop140" />
	</linearGradient>
	
	

	
		<linearGradient
   id="SVGID_12_"
   gradientUnits="userSpaceOnUse"
   x1="-369.74951"
   y1="311.5"
   x2="-369.74951"
   y2="238"
   gradientTransform="matrix(1,0,0,-1,654,325)">
		<stop
   offset="0"
   style="stop-color:#7ED3F7"
   id="stop127" />
		<stop
   offset="1"
   style="stop-color:#003D7E"
   id="stop129" />
	</linearGradient>
	
	

	
		<linearGradient
   id="SVGID_11_"
   gradientUnits="userSpaceOnUse"
   x1="-403"
   y1="311.5"
   x2="-403"
   y2="238"
   gradientTransform="matrix(1,0,0,-1,654,325)">
		<stop
   offset="0"
   style="stop-color:#7ED3F7"
   id="stop116" />
		<stop
   offset="1"
   style="stop-color:#003D7E"
   id="stop118" />
	</linearGradient>
	
	

	
	

		
			<linearGradient
   id="SVGID_10_"
   gradientUnits="userSpaceOnUse"
   x1="-498.50049"
   y1="311.84671"
   x2="-498.50049"
   y2="236.83659"
   gradientTransform="matrix(1,0,0,-1,654,325)">
			<stop
   offset="0"
   style="stop-color:#7ED3F7"
   id="stop101" />
			<stop
   offset="1"
   style="stop-color:#003D7E"
   id="stop103" />
		</linearGradient>
		
	
		
	
	
		<linearGradient
   id="SVGID_9_"
   gradientUnits="userSpaceOnUse"
   x1="-303.91699"
   y1="311.5"
   x2="-303.91699"
   y2="238"
   gradientTransform="matrix(1,0,0,-1,654,325)">
		<stop
   offset="0"
   style="stop-color:#7ED3F7"
   id="stop90" />
		<stop
   offset="1"
   style="stop-color:#003D7E"
   id="stop92" />
	</linearGradient>
	
	

	
		<linearGradient
   id="SVGID_8_"
   gradientUnits="userSpaceOnUse"
   x1="-274.91699"
   y1="224.5"
   x2="-274.91699"
   y2="151.5"
   gradientTransform="matrix(1,0,0,-1,654,325)">
		<stop
   offset="0"
   style="stop-color:#7ED3F7"
   id="stop79" />
		<stop
   offset="1"
   style="stop-color:#003D7E"
   id="stop81" />
	</linearGradient>
	
	

	
		<linearGradient
   id="SVGID_7_"
   gradientUnits="userSpaceOnUse"
   x1="-593.4165"
   y1="311.5"
   x2="-593.4165"
   y2="238"
   gradientTransform="matrix(1,0,0,-1,654,325)">
		<stop
   offset="0"
   style="stop-color:#7ED3F7"
   id="stop68" />
		<stop
   offset="1"
   style="stop-color:#003D7E"
   id="stop70" />
	</linearGradient>
	
	

	
		<linearGradient
   id="SVGID_6_"
   gradientUnits="userSpaceOnUse"
   x1="-308.75"
   y1="224.5"
   x2="-308.75"
   y2="151.5"
   gradientTransform="matrix(1,0,0,-1,654,325)">
		<stop
   offset="0"
   style="stop-color:#7ED3F7"
   id="stop57" />
		<stop
   offset="1"
   style="stop-color:#003D7E"
   id="stop59" />
	</linearGradient>
	
	
</defs><g
     inkscape:label="Layer 1"
     inkscape:groupmode="layer"
     id="layer1"><path
       id="rect231"
       style="fill:#ffffff;stroke-width:0.8001;stroke-linecap:square;paint-order:fill markers stroke"
       d="M 0 0 L 0 132.29167 L 231.05153 132.29167 C 229.31065 132.29167 227.9443 131.88 226.95049 131.0566 C 225.95395 130.23456 225.45911 129.283 225.45911 128.21285 C 225.45911 127.0977 225.76327 126.18862 226.37946 125.48381 C 226.99156 124.78037 227.75385 124.42961 228.67131 124.42961 C 229.3843 124.42961 229.99639 124.56089 230.51306 124.83217 C 231.02428 125.10074 231.48239 125.44789 231.88455 125.86777 C 232.21855 126.2004 232.578 126.65988 232.95426 127.23926 C 233.3346 127.82137 233.6362 128.30135 233.85704 128.67897 C 234.97491 128.07641 236.30664 126.50305 237.85938 123.96194 C 239.40668 121.41811 240.53282 119.19218 241.2199 117.26726 C 239.09868 111.98329 237.18324 107.2543 235.46418 103.08001 C 233.74648 98.908454 231.95106 94.59216 230.07795 90.128866 C 229.65398 89.105064 228.93828 88.303691 227.93492 87.735213 C 226.93293 87.165373 225.92846 86.805044 224.92374 86.646908 L 224.92374 84.490967 C 224.52644 83.138024 224.12591 81.790274 223.6556 80.522217 C 223.0435 78.874042 222.24744 77.377154 221.26453 76.039803 C 220.30616 74.748802 219.1339 73.712556 217.75157 72.942318 C 216.36786 72.174807 214.67195 71.787866 212.66661 71.787866 C 210.54947 71.787866 208.73884 72.470768 207.24471 73.828569 C 205.75059 75.193185 205.00247 76.853437 205.00247 78.813794 C 205.00247 80.868218 205.4809 82.568441 206.44063 83.919425 C 207.40036 85.269048 208.79623 86.377115 210.62435 87.246871 C 212.25208 88.028015 213.8512 88.701338 215.42303 89.268453 C 216.99622 89.839656 218.51891 90.449363 219.99122 91.094181 C 221.3313 91.674931 222.61672 92.333097 223.85455 93.069255 C 225.0883 93.813593 226.16428 94.671202 227.08175 95.65411 C 228.08374 96.771976 228.82397 97.990678 229.30383 99.318486 C 229.78642 100.6463 230.02627 102.19235 230.02627 103.95231 C 230.02627 108.14977 228.47355 111.60854 225.37487 114.32687 C 222.27347 117.05202 218.42622 118.40828 213.82933 118.40828 C 211.70946 118.40828 209.59247 118.08262 207.47261 117.42281 C 205.35411 116.76708 203.52317 115.96693 201.98405 115.03174 L 200.5459 117.47448 L 197.87113 117.47448 L 197.4019 101.21243 L 200.11233 101.21243 C 200.67127 103.21777 201.32296 105.03333 202.07139 106.64879 C 202.81981 108.2697 203.80552 109.77619 205.03245 111.18443 C 206.19257 112.50133 207.54762 113.54831 209.09628 114.32946 C 210.64766 115.11197 212.4482 115.50044 214.49854 115.50044 C 216.03901 115.50044 217.38045 115.30006 218.5324 114.8979 C 219.68026 114.49437 220.61441 113.92342 221.32603 113.18999 C 222.03901 112.45383 222.5666 111.59087 222.91559 110.59842 C 223.26322 109.60733 223.43494 108.46201 223.43494 107.16555 C 223.43494 105.27608 222.90157 103.50251 221.83142 101.86252 C 220.76126 100.22116 219.16637 98.978905 217.04515 98.130961 C 215.59464 97.550215 213.93285 96.908278 212.05837 96.207564 C 210.18662 95.505488 208.56855 94.841501 207.20802 94.214404 C 204.53059 93.010652 202.45009 91.431988 200.96551 89.47981 C 199.48229 87.528994 198.74239 84.978604 198.74239 81.832214 C 198.74239 80.027266 199.11037 78.343461 199.84517 76.77981 C 200.58132 75.218883 201.62934 73.823013 202.99123 72.596086 C 204.28359 71.43868 205.8136 70.526539 207.57493 69.868087 C 209.33761 69.210997 211.1793 68.882617 213.09604 68.882617 C 215.2827 68.882617 217.23909 69.215121 218.96906 69.887207 C 220.69631 70.5552 222.2777 71.337756 223.70366 72.226599 L 225.07618 69.951286 L 227.75354 69.951286 L 228.00055 84.438774 L 239.98225 84.438774 L 239.98225 86.78075 C 239.31153 86.802551 238.51083 86.944215 237.57155 87.197778 C 236.63499 87.456797 236.1675 87.75022 236.1675 88.085579 C 236.1675 88.219181 236.21803 88.442415 236.31891 88.753239 C 236.41979 89.068151 236.53417 89.391605 236.67186 89.724239 C 237.5198 91.932711 238.81104 95.118373 240.55328 99.277661 C 242.29552 103.4424 243.64357 106.76754 244.60057 109.26775 C 245.60665 106.87933 246.64988 104.41157 247.72958 101.85683 C 248.81337 99.302095 250.02645 96.28694 251.36243 92.805188 C 251.51785 92.383943 251.7455 91.799014 252.02906 91.049223 C 252.31807 90.302159 252.46676 89.659706 252.46676 89.125309 C 252.46676 88.547288 251.96084 88.005194 250.94386 87.502153 C 249.92823 87.001837 248.96453 86.693397 248.04843 86.580245 L 248.04843 84.439807 L 260.29574 84.439807 L 260.29574 85.006181 C 262.02742 84.009996 264.10921 83.498263 266.56667 83.498263 C 267.85905 83.498263 269.18301 83.665854 270.53129 83.99849 C 271.87955 84.335212 272.98082 84.734439 273.82876 85.202035 L 274.60029 83.462606 L 277.0079 83.462606 L 277.06061 84.577783 L 281.17147 84.577783 L 281.17147 74.303992 L 287.2636 74.303992 L 287.2636 84.577783 L 296.73434 84.577783 L 296.73434 87.791024 L 287.32923 87.791024 L 287.32923 106.22762 C 287.32923 107.61269 287.38131 108.76758 287.48219 109.6946 C 287.58173 110.62025 287.82294 111.43251 288.20463 112.11822 C 288.55772 112.76577 289.09721 113.25648 289.80608 113.59048 C 290.51908 113.92448 291.47916 114.09226 292.68291 114.09226 C 293.24049 114.09226 294.05944 114.04187 295.14323 113.93826 C 296.22429 113.83875 296.98928 113.71329 297.43507 113.55379 L 297.43663 115.99654 C 295.9875 116.60046 294.61585 117.1091 293.31801 117.51944 C 292.02701 117.93387 290.44582 118.13853 288.56998 118.13853 C 285.80393 118.13853 283.85693 117.4447 282.72951 116.04873 C 281.60347 114.65412 281.03918 112.68392 281.03918 110.14418 L 281.03918 87.791024 L 277.21254 87.791024 L 277.50968 94.068677 L 275.20026 94.068677 C 274.73265 91.704794 273.72105 89.781332 272.17512 88.295386 C 270.62237 86.813527 268.73457 86.070715 266.50156 86.070715 C 264.67208 86.070715 263.23097 86.531411 262.184 87.444792 C 261.13429 88.362263 260.612 89.466437 260.612 90.758801 C 260.612 91.762156 260.78407 92.59918 261.13031 93.267175 C 261.47658 93.937896 261.9946 94.503396 262.68577 94.975081 C 263.35651 95.422229 264.2014 95.840739 265.2143 96.229268 C 266.22584 96.619158 267.48291 97.063953 268.97841 97.550635 C 270.45345 98.018232 271.84115 98.567322 273.14715 99.190328 C 274.44768 99.825605 275.52348 100.51835 276.37279 101.27496 C 277.2848 102.07791 277.9894 103.00469 278.48016 104.04895 C 278.97231 105.10138 279.21655 106.3846 279.21655 107.89781 C 279.21655 110.95695 278.07147 113.45408 275.78937 115.39399 C 273.49912 117.3339 270.53922 118.30596 266.90205 118.30596 C 264.9853 118.30596 263.21464 117.95843 261.60057 117.26726 C 259.98102 116.57609 258.82632 115.94199 258.13515 115.35988 L 257.46594 117.53598 L 254.95601 117.53598 L 254.62218 106.05606 L 256.93005 106.05606 C 257.1059 106.92581 257.48636 107.94409 258.06849 109.09877 C 258.64922 110.26026 259.35095 111.30588 260.17843 112.24379 C 261.04548 113.22806 262.08852 114.05284 263.30589 114.7222 C 264.52055 115.38882 265.88652 115.72679 267.40383 115.72679 C 269.54413 115.72679 271.19775 115.24151 272.3565 114.26951 C 273.51392 113.30024 274.09748 111.91085 274.09748 110.10181 C 274.09748 109.16389 273.91211 108.36117 273.54403 107.67818 C 273.17595 106.99928 272.63334 106.4046 271.92035 105.88656 C 271.18556 105.37398 270.28183 104.91347 269.21302 104.49905 C 268.14151 104.08734 266.94585 103.67854 265.6303 103.27638 C 264.57923 102.96556 263.41344 102.53748 262.13335 101.98809 C 260.84642 101.44006 259.75199 100.79794 258.83588 100.06314 C 257.85707 99.284726 257.05007 98.321904 256.42569 97.186316 C 255.79996 96.047998 255.48931 94.709654 255.48931 93.17054 C 255.48931 91.355638 255.98441 89.744464 256.89285 88.30262 C 256.19726 88.892948 255.60052 89.578722 255.20664 90.462695 C 252.55103 96.621874 250.18891 102.23213 248.12904 107.29526 C 246.06507 112.36111 244.49974 116.08511 243.42959 118.4708 C 242.02271 121.59811 240.76868 124.03175 239.66444 125.78354 C 238.5602 127.53668 237.48197 128.91068 236.43363 129.91403 C 235.4071 130.85331 234.47605 131.48437 233.6431 131.80746 C 232.80743 132.12782 231.93764 132.29167 231.05153 132.29167 L 396.875 132.29167 L 396.875 0 L 276.32939 0 C 282.43814 0 287.60206 3.8321545 289.15754 8.9947998 L 307.03811 62.022571 L 272.66604 62.022571 L 272.66604 53.527999 L 295.26622 53.527999 L 280.65884 10.439673 C 279.93767 8.7178827 278.2706 7.5525106 276.32525 7.5525106 C 274.32671 7.5525106 272.66198 8.7178827 271.93947 10.439673 L 254.4501 62.022571 L 247.45828 62.022571 L 247.45828 62.024121 L 219.47187 62.024121 C 210.08588 62.024121 202.42589 54.417036 202.42589 45.032393 L 202.42589 17.990633 C 202.42589 8.6073561 210.03142 1.0004557 219.41606 1.0004557 L 247.45828 1.0004557 L 247.45828 9.4950277 L 219.47187 9.4950277 C 214.80818 9.4950277 210.97472 13.326941 210.97472 17.990633 L 210.97472 45.032393 C 210.97472 49.694723 214.80791 53.527999 219.52614 53.527999 L 238.96216 53.527999 L 238.96216 30.484961 L 223.41427 30.484961 L 223.41427 21.989355 L 247.45828 21.989355 L 247.45828 56.135075 L 263.50381 8.9947998 C 265.05927 3.7762613 270.22339 0 276.32939 0 L 0 0 z M 122.35377 1.0004557 L 149.34076 1.0004557 L 149.39657 9.5523885 L 122.35636 9.5523885 C 116.02677 9.5523885 110.91726 14.659311 110.91726 20.9889 C 110.91726 27.319854 116.02677 32.539616 122.35636 32.539616 L 129.40554 32.539616 C 134.68269 32.539616 138.90367 36.814557 138.90367 42.033093 C 138.90367 47.252994 134.68133 51.529671 129.40554 51.529671 L 102.36688 51.529671 L 102.36429 43.032515 L 129.34973 43.032515 C 129.90457 43.032515 130.35018 42.589302 130.35018 42.033093 C 130.35018 41.479615 129.90457 41.034188 129.34973 41.034188 L 122.35377 41.034188 C 111.3046 41.034188 102.36429 32.09525 102.36429 21.04471 C 102.36429 9.9396431 111.3046 1.0004557 122.35377 1.0004557 z M 170.38495 1.0004557 L 199.26019 1.0004557 L 199.26019 9.4950277 L 170.38495 9.4950277 C 165.72262 9.4950277 161.89193 13.327106 161.89193 17.879012 L 161.89193 45.032393 C 161.89193 49.807874 165.72262 53.527999 170.38495 53.527999 L 199.1496 53.529549 L 199.1496 62.024121 L 170.38495 62.024121 C 161.00167 62.024121 153.39477 54.417036 153.39477 45.032393 L 153.39477 17.990633 C 153.39477 8.6073561 161.00303 1.0004557 170.38495 1.0004557 z M 276.33042 9.496578 C 277.55189 9.496578 278.55414 10.27463 278.94266 11.384318 L 292.49067 51.585482 L 272.67018 51.585482 L 272.67018 44.008683 L 266.55996 62.024121 L 256.56625 62.024121 L 273.72128 11.384318 C 274.10845 10.273265 275.10895 9.496578 276.33042 9.496578 z M 170.38495 11.492322 L 199.26019 11.492322 L 199.26019 19.989478 L 174.3847 19.989478 C 172.38345 19.989478 172.38379 21.987805 172.38379 21.987805 L 193.15152 21.987805 L 193.15152 30.483927 L 163.944 30.483927 L 163.944 17.9896 C 163.944 14.436958 166.83094 11.492322 170.38495 11.492322 z M 219.47032 11.492322 L 247.45673 11.492322 L 247.45673 19.989478 L 223.47008 19.989478 C 221.47019 19.989478 221.4702 21.989355 221.4702 21.989355 L 221.4702 41.034188 C 221.4702 42.092073 222.35766 43.032515 223.47008 43.032515 L 228.46667 43.032515 L 228.46667 41.034188 L 223.41324 41.034188 L 223.41324 32.483805 L 236.96125 32.483805 L 236.96125 51.529671 L 219.47032 51.529671 C 215.91769 51.529671 212.97201 48.585035 212.97201 45.032393 L 212.97305 17.9896 C 212.97305 14.435596 215.91769 11.492322 219.47032 11.492322 z M 122.35636 11.549683 L 149.3976 11.549683 L 149.34179 19.991028 L 122.35636 19.991028 C 121.79879 19.991028 121.35435 20.433973 121.35435 21.04471 C 121.35435 21.600919 121.80151 22.043616 122.35636 22.043616 L 129.40554 22.043616 C 140.4588 22.043616 149.45083 30.985284 149.45083 42.033093 C 149.45083 53.08363 140.4588 62.078381 129.40554 62.078381 L 102.36688 62.078381 L 102.36688 53.473739 L 129.40554 53.473739 C 135.73649 53.473739 140.90199 48.365595 140.90199 42.034644 C 140.90199 35.706415 135.73649 30.540771 129.40554 30.540771 L 122.35636 30.540771 C 117.13509 30.540771 112.91559 26.265728 112.91559 20.989933 C 112.91559 15.770035 117.13509 11.549683 122.35636 11.549683 z M 163.944 32.537032 L 193.14997 32.537032 L 193.14997 41.032638 L 172.38379 41.032638 C 172.38379 43.032531 174.38212 43.032515 174.38212 43.032515 L 199.14702 43.032515 L 199.14702 51.47231 L 170.38495 51.475411 C 166.83094 51.475411 163.944 48.586397 163.944 45.032393 L 163.944 32.537032 z M 276.33455 33.204692 L 273.30218 42.145231 L 279.33385 42.145231 L 276.33455 33.204692 z M 16.650663 69.95542 L 32.847607 69.95542 L 46.431274 105.55841 L 58.043486 75.77677 C 58.467459 74.687529 58.831359 73.543423 59.131274 72.346488 C 59.432555 71.15364 59.596254 70.354853 59.618066 69.95542 L 75.110144 69.95542 L 75.110144 72.330469 C 74.485773 72.353646 73.686801 72.454519 72.717525 72.631742 C 71.748254 72.813056 71.037856 72.978958 70.592074 73.133004 C 69.835467 73.398841 69.320159 73.849122 69.051599 74.47349 C 68.784402 75.096499 68.65059 75.776488 68.65059 76.512642 L 68.65059 110.74414 C 68.65059 111.52529 68.784402 112.18243 69.051599 112.71818 C 69.320159 113.25258 69.832741 113.72261 70.592074 114.12068 C 70.995597 114.34698 71.708566 114.55286 72.735095 114.74235 C 73.760262 114.92912 74.57561 115.03985 75.176807 115.05758 L 75.176807 117.43624 L 75.175256 117.43624 L 75.175256 117.43779 L 54.193591 117.43779 L 54.193591 115.06171 C 54.952924 115.04263 55.928729 114.96188 57.121578 114.82555 C 58.317152 114.69332 59.135259 114.50367 59.58241 114.25556 C 60.27494 113.83431 60.782224 113.35078 61.105314 112.80138 C 61.42977 112.25336 61.590556 111.56873 61.590556 110.74259 L 61.590556 76.211369 L 61.088778 76.211369 L 44.891833 116.6673 L 43.220618 116.6673 L 27.792619 75.374211 L 27.359054 75.374211 L 27.359054 103.71667 C 27.359054 106.45953 27.531103 108.54632 27.877368 109.97365 C 28.223636 111.40234 28.752261 112.42746 29.467969 113.05046 C 29.958741 113.5167 30.971563 113.9682 32.510677 114.39353 C 34.049791 114.81614 35.05497 115.04089 35.52393 115.05861 L 35.52393 117.43469 L 16.348356 117.43469 L 16.348356 115.05861 C 17.353073 114.97136 18.405354 114.80395 19.510954 114.55993 C 20.613826 114.31455 21.467083 113.94774 22.071004 113.45561 C 22.850786 112.83396 23.386733 111.87284 23.677108 110.57775 C 23.968842 109.28675 24.110673 107.12076 24.110673 104.08615 L 24.110673 79.791512 C 24.110673 78.385997 23.944442 77.237813 23.610445 76.346244 C 23.276446 75.454676 22.796144 74.729786 22.171773 74.172217 C 21.480603 73.568295 20.631614 73.123467 19.628259 72.83173 C 18.623539 72.544083 17.632206 72.376821 16.650663 72.330469 L 16.650663 69.95542 z M 127.62787 74.303992 L 133.71897 74.303992 L 133.71897 84.577783 L 143.18816 84.577783 L 143.18816 87.791024 L 133.78563 87.791024 L 133.78563 106.22762 C 133.78563 107.61269 133.8348 108.76758 133.93704 109.6946 C 134.03656 110.61888 134.27636 111.43251 134.65535 112.11822 C 135.01116 112.76577 135.54847 113.25648 136.26145 113.59048 C 136.97443 113.92448 137.93419 114.09226 139.13931 114.09226 C 139.69552 114.09226 140.5148 114.04187 141.59859 113.93826 C 142.68101 113.83875 143.44433 113.71329 143.89148 113.55379 L 143.89148 115.99654 C 142.44097 116.60046 141.06969 117.1091 139.77596 117.51944 C 138.48224 117.93387 136.89828 118.13853 135.0238 118.13853 C 132.25776 118.13853 130.31093 117.4447 129.18488 116.04873 C 128.05747 114.65412 127.49454 112.68392 127.49454 110.14418 L 127.49454 87.791024 L 123.6679 87.791024 L 123.96504 94.068677 L 121.65717 94.068677 C 121.18958 91.704794 120.17792 89.781332 118.6279 88.295386 C 117.07652 86.813527 115.18567 86.070715 112.95538 86.070715 C 111.12726 86.070715 109.68615 86.531411 108.63781 87.444792 C 107.58811 88.362263 107.06582 89.466437 107.06582 90.758801 C 107.06582 91.762156 107.23787 92.59918 107.58413 93.267175 C 107.9304 93.937896 108.44673 94.503396 109.14062 94.975081 C 109.80726 95.422229 110.65146 95.840739 111.66709 96.229268 C 112.68271 96.619158 113.93538 97.063953 115.43223 97.550635 C 116.90455 98.018232 118.29375 98.567322 119.59838 99.190328 C 120.90302 99.825605 121.9773 100.51835 122.82661 101.27496 C 123.74135 102.07791 124.44339 103.00469 124.93553 104.04895 C 125.4263 105.10138 125.67192 106.3846 125.67192 107.89781 C 125.67192 110.95695 124.52663 113.45408 122.24318 115.39399 C 119.95564 117.3339 116.99322 118.30596 113.35742 118.30596 C 111.43796 118.30596 109.66965 117.95843 108.05284 117.26726 C 106.60103 116.64716 105.57932 116.07934 104.8737 115.54747 L 104.8737 116.8337 L 104.87267 116.8337 C 104.56161 116.94751 104.34124 117.00748 104.05256 117.10758 L 103.92079 117.53598 L 102.7684 117.53598 C 102.56544 117.59971 102.30074 117.69934 102.11211 117.75509 C 101.32006 117.98957 100.42261 118.10545 99.419255 118.10545 C 97.677017 118.10545 96.290868 117.70196 95.252067 116.88537 C 94.214632 116.07287 93.551863 114.8856 93.261491 113.32332 L 93.059953 113.32332 C 91.610813 114.9265 90.053827 116.15746 88.392021 117.00268 C 86.728849 117.85198 84.726189 118.2734 82.384119 118.2734 C 79.908449 118.2734 77.873039 117.52084 76.278031 115.99809 C 74.683027 114.48351 73.886963 112.49708 73.886963 110.04186 C 73.886963 108.76995 74.065674 107.63063 74.422847 106.62863 C 74.778654 105.62392 75.315783 104.72116 76.027401 103.9182 C 76.586338 103.25294 77.322668 102.65571 78.236051 102.12813 C 79.152157 101.606 80.009682 101.18886 80.812638 100.87395 C 81.818721 100.49632 83.853802 99.791563 86.919759 98.765031 C 89.987081 97.742592 92.055096 96.938173 93.126615 96.357426 L 93.126615 93.044967 C 93.126615 92.754597 93.066517 92.196969 92.941097 91.372201 C 92.818405 90.547434 92.558293 89.764832 92.156132 89.028674 C 91.708987 88.206631 91.080329 87.485494 90.263741 86.870667 C 89.451241 86.259927 88.296578 85.950309 86.802454 85.950309 C 85.774559 85.950309 84.823154 86.125272 83.94113 86.470174 C 83.059105 86.81917 82.440204 87.17898 82.084395 87.557963 C 82.084395 88.006474 82.190572 88.660694 82.403239 89.530452 C 82.614546 90.400208 82.721049 91.204299 82.721049 91.939091 C 82.721049 92.721598 82.367705 93.434711 81.664266 94.079529 C 80.963552 94.732528 79.986055 95.050012 78.737313 95.050012 C 77.623537 95.050012 76.803214 94.658814 76.276998 93.864038 C 75.754872 93.074713 75.493066 92.187489 75.493066 91.203219 C 75.493066 90.179414 75.854054 89.196613 76.579305 88.258695 C 77.305922 87.322138 78.24658 86.486479 79.408073 85.750321 C 80.41279 85.128678 81.628916 84.594271 83.054879 84.160754 C 84.483569 83.724515 85.876714 83.507564 87.238603 83.507564 C 89.113078 83.507564 90.745174 83.635746 92.141146 83.892037 C 93.535753 84.151056 94.801045 84.700323 95.939364 85.548267 C 97.076314 86.375763 97.940318 87.496642 98.53197 88.910335 C 99.122258 90.329482 99.419255 92.150706 99.419255 94.382353 C 99.419255 97.572367 99.38392 100.39957 99.318486 102.86297 C 99.250321 105.3291 99.2203 108.02423 99.2203 110.94568 C 99.2203 111.81544 99.370487 112.50964 99.670402 113.02359 C 99.971683 113.53754 100.43509 113.97224 101.05946 114.32532 C 101.12696 114.3662 101.23723 114.387 101.32043 114.42041 L 101.07703 106.05606 L 103.38542 106.05606 C 103.56401 106.92581 103.94292 107.94409 104.5223 109.09877 C 105.10305 110.26026 105.80645 111.30588 106.63122 112.24379 C 107.50097 113.22806 108.54368 114.05284 109.75971 114.7222 C 110.97573 115.38882 112.34326 115.72679 113.8592 115.72679 C 116.00087 115.72679 117.65329 115.24151 118.81342 114.26951 C 119.97218 113.30024 120.55388 111.91085 120.55388 110.10181 C 120.55388 109.16389 120.37005 108.36117 120.00198 107.67818 C 119.6339 106.99928 119.09129 106.4046 118.3783 105.88656 C 117.64215 105.37398 116.73836 104.91347 115.66684 104.49905 C 114.59669 104.08734 113.4036 103.67854 112.0867 103.27638 C 111.03699 102.96556 109.87309 102.53748 108.59027 101.98809 C 107.30745 101.44006 106.20858 100.79794 105.29383 100.06314 C 104.31229 99.284726 103.50938 98.321904 102.88364 97.186316 C 102.25927 96.047998 101.94675 94.709654 101.94675 93.17054 C 101.94675 90.471298 102.95038 88.18633 104.95845 86.310494 C 106.96789 84.436018 109.65499 83.498263 113.02359 83.498263 C 114.31596 83.498263 115.63826 83.665854 116.98924 83.99849 C 118.3375 84.335212 119.43619 84.734439 120.28413 85.202035 L 121.05411 83.462606 L 123.46326 83.462606 L 123.51597 84.577783 L 127.62787 84.577783 L 127.62787 74.303992 z M 155.18484 83.507564 C 157.59371 83.507564 159.65779 83.890754 161.37413 84.645996 C 163.09319 85.405328 164.48634 86.441188 165.55785 87.755367 C 166.58438 89.00956 167.3477 90.482093 167.85074 92.175252 C 168.35105 93.869777 168.60315 95.711278 168.60315 97.694812 L 168.60315 99.903463 L 146.75332 99.903463 C 146.75332 102.06967 146.95915 104.03292 147.37085 105.79561 C 147.78528 107.5583 148.43678 109.10693 149.32835 110.44701 C 150.19675 111.7421 151.33522 112.76177 152.7421 113.50883 C 154.14625 114.25862 155.82016 114.6266 157.76143 114.6266 C 159.74633 114.6266 161.45692 114.16436 162.89652 113.23598 C 164.33748 112.31579 165.72532 110.64431 167.06267 108.2368 L 169.40775 109.67393 C 168.02404 112.30773 166.17279 114.40305 163.85253 115.96398 C 161.53228 117.52763 158.86548 118.30492 155.85405 118.30492 C 153.20116 118.30492 150.87556 117.83691 148.87567 116.90036 C 146.88123 115.9638 145.23702 114.69204 143.94057 113.08612 C 142.6482 111.48157 141.68196 109.6085 141.04669 107.46683 C 140.41005 105.32379 140.09377 103.06478 140.09377 100.67499 C 140.09377 98.533319 140.43309 96.429784 141.11335 94.365816 C 141.79498 92.305939 142.79298 90.446517 144.10852 88.795614 C 145.38043 87.21424 146.9574 85.935291 148.84414 84.963289 C 150.72816 83.991291 152.84413 83.507564 155.18484 83.507564 z M 308.72689 83.507564 C 311.13849 83.507564 313.19951 83.890754 314.91721 84.645996 C 316.63491 85.405328 318.02839 86.441188 319.0999 87.755367 C 320.12781 89.00956 320.88976 90.482093 321.39279 92.175252 C 321.89176 93.869777 322.14416 95.711278 322.14416 97.694812 L 322.14416 99.903463 L 300.29537 99.903463 C 300.29537 102.06967 300.50359 104.03292 300.91393 105.79561 C 301.32427 107.5583 301.97597 109.10693 302.87299 110.44701 C 303.73865 111.7421 304.88273 112.76177 306.28415 113.50883 C 307.68832 114.25862 309.36101 114.6266 311.30503 114.6266 C 313.29128 114.6266 314.99932 114.16436 316.44167 113.23598 C 317.87989 112.31579 319.26897 110.64431 320.6104 108.2368 L 322.95238 109.67393 C 321.57004 112.30773 319.7188 114.40305 317.39716 115.96398 C 315.07693 117.52763 312.41063 118.30492 309.3992 118.30492 C 306.75041 118.30492 304.42196 117.83691 302.4234 116.90036 C 300.42625 115.9638 298.78335 114.69204 297.48417 113.08612 C 296.19454 111.48157 295.22506 109.6085 294.58977 107.46683 C 293.95313 105.32379 293.63841 103.06478 293.63841 100.67499 C 293.63841 98.533319 293.98044 96.429784 294.65798 94.365816 C 295.33823 92.305939 296.33762 90.446517 297.65315 88.795614 C 298.9237 87.21424 300.50235 85.935291 302.38774 84.963289 C 304.27176 83.991291 306.38755 83.507564 308.72689 83.507564 z M 341.97964 83.541671 C 344.11993 83.541671 345.95892 84.115483 347.50075 85.261979 C 349.04261 86.412566 350.14691 87.801958 350.81218 89.429683 C 351.61786 88.651264 352.3252 87.96546 352.93866 87.372445 C 353.55075 86.782155 354.36046 86.152325 355.36384 85.481604 C 356.21312 84.90222 357.20844 84.433179 358.359 84.076005 C 359.50687 83.721562 360.78309 83.541671 362.19133 83.541671 C 364.97916 83.541671 367.18736 84.46062 368.8178 86.284656 C 370.44416 88.115507 371.25951 90.927556 371.25951 94.718766 L 371.25951 111.48415 C 371.25951 112.2653 371.39148 112.90366 371.66414 113.40806 C 371.93269 113.90702 372.38671 114.29786 373.03563 114.56097 C 373.55093 114.76273 374.05531 114.91277 374.55698 115.01365 C 375.06001 115.11317 375.62212 115.18707 376.24784 115.23069 L 376.24784 117.44038 L 376.2437 117.44038 L 376.2437 117.43779 L 376.24215 117.43779 L 360.14598 117.43779 L 360.14598 115.22656 C 360.65993 115.1843 361.17813 115.1408 361.70299 115.09582 C 362.22646 115.05356 362.68733 114.96342 363.08947 114.8271 C 363.71385 114.62534 364.17725 114.27373 364.47853 113.77342 C 364.78118 113.2731 364.93276 112.61718 364.93276 111.81695 L 364.93276 94.784395 C 364.93276 92.465502 364.4007 90.674158 363.3401 89.413147 C 362.27949 88.153501 360.96166 87.523857 359.37755 87.523857 C 358.28559 87.523857 357.25753 87.688725 356.29918 88.024084 C 355.33943 88.358081 354.45855 88.825759 353.65697 89.429683 C 353.0067 89.921819 352.46678 90.44941 352.02916 91.01925 C 351.59564 91.587728 351.26603 92.063575 351.04111 92.439836 L 351.04111 111.47898 C 351.04111 112.26422 351.17718 112.90361 351.44573 113.40393 C 351.71428 113.90424 352.16988 114.29274 352.81877 114.55993 C 353.33138 114.76033 353.79477 114.91155 354.20784 115.01107 C 354.61818 115.11058 355.15956 115.18397 355.82893 115.22759 L 355.82893 117.43624 L 340.07227 117.43624 L 340.07227 115.22759 C 340.58757 115.18397 341.07849 115.1408 341.56106 115.09582 C 342.03824 115.05356 342.48126 114.96357 342.87933 114.82452 C 343.50507 114.62412 343.96714 114.27355 344.26839 113.77187 C 344.57105 113.27155 344.72366 112.61732 344.72366 111.81436 L 344.72366 94.781812 C 344.72366 92.462918 344.19194 90.672605 343.12996 89.411597 C 342.07205 88.151951 340.74843 87.520756 339.16844 87.520756 C 338.07508 87.520756 337.0459 87.694356 336.0875 88.040621 C 335.12912 88.390977 334.2472 88.862594 333.44425 89.46379 C 332.79806 89.955925 332.25136 90.507917 331.80559 91.12002 C 331.35979 91.737572 331.02574 92.198258 330.79945 92.509082 L 330.79945 111.4149 C 330.79945 112.17424 330.95752 112.8121 331.2697 113.32332 C 331.58186 113.83863 332.04815 114.2273 332.67117 114.49585 C 333.13876 114.72079 333.62127 114.88411 334.10932 114.99453 C 334.60417 115.10904 335.14697 115.18537 335.74953 115.23173 L 335.74953 117.44193 L 319.71899 117.44193 L 319.71899 115.23173 C 320.23291 115.1881 320.76173 115.14475 321.31114 115.0984 C 321.85644 115.0575 322.32838 114.96601 322.73327 114.82968 C 323.35761 114.62929 323.82203 114.27749 324.11923 113.77445 C 324.42049 113.2755 324.57089 112.62282 324.57089 111.8185 L 324.57089 91.306571 C 324.57089 90.593592 324.41386 89.950287 324.08668 89.383175 C 323.76222 88.811972 323.31125 88.32651 322.73327 87.924349 C 322.3079 87.655787 321.78566 87.440391 321.16128 87.272709 C 320.53691 87.10503 319.88916 87.001578 319.21979 86.953866 L 319.21979 84.780872 L 330.26511 84.043449 L 330.73278 84.511121 L 330.73278 89.229179 L 330.96688 89.229179 C 331.52446 88.674335 332.20514 88.012921 333.0081 87.253589 C 333.81516 86.49971 334.55934 85.881174 335.25189 85.414941 C 336.03167 84.881907 337.00923 84.435904 338.18298 84.076005 C 339.35264 83.721562 340.6191 83.541671 341.97964 83.541671 z M 186.68835 83.641406 C 188.09522 83.641406 189.23763 84.100549 190.11966 85.013932 C 191.00305 85.927313 191.44206 87.153144 191.44206 88.692261 C 191.44206 89.829214 191.16403 90.839318 190.60645 91.719983 C 190.04888 92.604735 189.19103 93.040833 188.0309 93.040833 C 186.77943 93.040833 185.82681 92.71771 185.16699 92.068799 C 184.51127 91.425343 184.18152 90.709693 184.18152 89.929911 C 184.18152 89.439139 184.21957 88.993136 184.29728 88.590975 C 184.37635 88.187451 184.44855 87.785316 184.51535 87.385881 C 183.46701 87.385881 182.23859 87.810211 180.83444 88.658154 C 179.42892 89.507463 178.23617 90.709411 177.25326 92.270337 L 177.25326 111.47743 C 177.25326 112.26267 177.40603 112.89662 177.70595 113.38739 C 178.00586 113.88089 178.48002 114.24737 179.12757 114.49275 C 179.68514 114.71497 180.40491 114.8827 181.28558 114.9904 C 182.16624 115.10627 182.92955 115.18157 183.57846 115.22656 L 183.57846 117.43469 L 166.17797 117.43469 L 166.17797 115.22656 C 166.69056 115.18293 167.2212 115.14062 167.7665 115.09427 C 168.31317 115.05201 168.78751 114.96357 169.18967 114.82452 C 169.81268 114.62412 170.27727 114.27373 170.57719 113.77342 C 170.87846 113.27174 171.02987 112.61699 171.02987 111.8154 L 171.02987 91.43783 C 171.02987 90.746659 170.86772 90.063243 170.54463 89.396611 C 170.22017 88.72589 169.76751 88.191819 169.18812 87.791024 C 168.76551 87.521099 168.26542 87.329917 167.6833 87.204496 C 167.10256 87.083166 166.47803 87.000403 165.81003 86.955416 L 165.81003 84.779321 L 176.78404 84.041899 L 177.25171 84.511121 L 177.25171 89.162516 L 177.41811 89.162516 C 178.80454 87.354842 180.34379 85.983044 182.03695 85.046488 C 183.7342 84.108571 185.28419 83.641406 186.68835 83.641406 z M 155.11921 86.017489 C 152.77442 86.017489 150.82928 86.992119 149.27926 88.947026 C 147.72924 90.899204 146.88691 93.613241 146.75332 97.092265 L 162.01182 97.092265 C 162.01182 95.843525 161.90583 94.504848 161.69452 93.077523 C 161.48186 91.648832 161.14236 90.457439 160.6734 89.496346 C 160.16217 88.471179 159.45878 87.638055 158.56448 86.986422 C 157.67428 86.341601 156.52336 86.017489 155.11921 86.017489 z M 308.66126 86.017489 C 306.32193 86.017489 304.37289 86.992119 302.82286 88.947026 C 301.27423 90.899204 300.43136 93.613241 300.2964 97.092265 L 315.55542 97.092265 C 315.55542 95.843525 315.45045 94.504848 315.23916 93.077523 C 315.02921 91.648832 314.68563 90.457439 314.21803 89.496346 C 313.7068 88.471179 313.00498 87.638055 312.11066 86.986422 C 311.2164 86.341601 310.06816 86.017489 308.66126 86.017489 z M 93.194828 99.16604 C 91.298543 99.724974 89.638291 100.26725 88.209603 100.80573 C 86.780913 101.34013 85.454532 102.0082 84.228967 102.81388 C 83.112464 103.57185 82.231711 104.46912 81.584167 105.50519 C 80.937984 106.54263 80.613167 107.77907 80.613167 109.20367 C 80.613167 111.05633 81.09741 112.41532 82.069409 113.28507 C 83.040045 114.15347 84.271178 114.59094 85.765308 114.59094 C 87.350771 114.59094 88.743914 114.20518 89.949032 113.43494 C 91.152784 112.6647 92.169884 111.76125 92.99329 110.70745 L 93.194828 99.16604 z " /><g
       id="g5604"
       transform="matrix(0.26458333,0,0,0.26458333,123.66409,207.15993)" /></g></svg>
