<?xml version="1.0" encoding="UTF-8" standalone="no"?>
<!-- Created with Inkscape (http://www.inkscape.org/) -->

<svg
   width="1500"
   height="500"
   viewBox="0 0 396.87498 132.29167"
   version="1.1"
   id="svg5"
   inkscape:version="1.2.2 (732a01da63, 2022-12-09)"
   xml:space="preserve"
   sodipodi:docname="megacd.svg"
   xmlns:inkscape="http://www.inkscape.org/namespaces/inkscape"
   xmlns:sodipodi="http://sodipodi.sourceforge.net/DTD/sodipodi-0.dtd"
   xmlns="http://www.w3.org/2000/svg"
   xmlns:svg="http://www.w3.org/2000/svg"><sodipodi:namedview
     id="namedview7"
     pagecolor="#000000"
     bordercolor="#111111"
     borderopacity="1"
     inkscape:showpageshadow="0"
     inkscape:pageopacity="0"
     inkscape:pagecheckerboard="1"
     inkscape:deskcolor="#d1d1d1"
     inkscape:document-units="mm"
     showgrid="false"
     inkscape:zoom="0.44378316"
     inkscape:cx="694.03264"
     inkscape:cy="369.54985"
     inkscape:window-width="1920"
     inkscape:window-height="1009"
     inkscape:window-x="-8"
     inkscape:window-y="-8"
     inkscape:window-maximized="1"
     inkscape:current-layer="layer1" /><defs
     id="defs2"><path
   id="SVGID_37_"
   d="M263.9,1002.2c13.5-0.7,27.7-3.4,41.2-7.4c6.7-2,18.2-6.7,35.8-14.2c14.8-6.1,27-10.8,37.8-13.5 c15.5-4,31.7-6.1,48.6-6.1c16.9,0,33.1,2,48.6,6.1c9.4,2.7,22.3,7.4,37.8,14.2c15.5,6.7,27.7,10.8,35.8,13.5 c14.2,4,28.3,6.1,43.2,5.4c21.6,0,41.8-6.1,60.7-18.2c16.2-10.8,32.4-25.6,49.3-45.9c10.8-12.8,25-32.4,43.2-58.7 c19.6-29.7,37.1-61.4,52-96.5c5.4-12.8,11.5-28.3,16.9-45.9c-10.8-4-22.3-10.1-35.1-18.9c-26.3-17.5-47.9-39.1-64.1-64.1 c-22.9-34.4-34.4-74.2-35.1-119.5c0-37.1,8.8-72.9,27-105.3c12.8-22.9,30.4-43.9,51.3-62.8c9.4-8.8,19.6-16.2,30.4-22.9 c-25.6-37.8-60.1-64.8-102.6-81.7c-24.3-9.4-51.3-15.5-81-17.5c-15.5-1.3-31.7-0.7-47.9,2c-13.5,2-28.3,6.1-43.9,10.8 c-10.1,4-22.9,8.8-39.1,14.8c-16.2,6.7-27.7,10.8-33.7,12.8c-10.8,3.4-20.2,5.4-27,5.4c-8.8,0-20.2-2-33.7-6.7 c-4-1.3-16.9-6.7-39.8-15.5c-17.5-6.7-32.4-12.1-44.5-15.5c-16.9-4-32.4-6.1-47.2-6.1c-42.5,0.7-81.7,12.1-118.8,35.1 c-37.1,22.3-66.1,52.6-87.7,91.1C14.2,418.4,0,475.8,0,541.3C0,600,10.1,660,31,722.8c18.9,57.4,43.9,108,74.2,151.8 c17.5,26.3,32.4,46.6,44.5,60.7c17.5,21.6,35.1,37.1,52,47.9C222,996.1,242.3,1002.2,263.9,1002.2z" /><path
   id="SVGID_39_"
   d="M263.9,1002.2c13.5-0.7,27.7-3.4,41.2-7.4c6.7-2,18.2-6.7,35.8-14.2c14.8-6.1,27-10.8,37.8-13.5 c15.5-4,31.7-6.1,48.6-6.1c16.9,0,33.1,2,48.6,6.1c9.4,2.7,22.3,7.4,37.8,14.2c15.5,6.7,27.7,10.8,35.8,13.5 c14.2,4,28.3,6.1,43.2,5.4c21.6,0,41.8-6.1,60.7-18.2c16.2-10.8,32.4-25.6,49.3-45.9c10.8-12.8,25-32.4,43.2-58.7 c19.6-29.7,37.1-61.4,52-96.5c5.4-12.8,11.5-28.3,16.9-45.9c-10.8-4-22.3-10.1-35.1-18.9c-26.3-17.5-47.9-39.1-64.1-64.1 c-22.9-34.4-34.4-74.2-35.1-119.5c0-37.1,8.8-72.9,27-105.3c12.8-22.9,30.4-43.9,51.3-62.8c9.4-8.8,19.6-16.2,30.4-22.9 c-25.6-37.8-60.1-64.8-102.6-81.7c-24.3-9.4-51.3-15.5-81-17.5c-15.5-1.3-31.7-0.7-47.9,2c-13.5,2-28.3,6.1-43.9,10.8 c-10.1,4-22.9,8.8-39.1,14.8c-16.2,6.7-27.7,10.8-33.7,12.8c-10.8,3.4-20.2,5.4-27,5.4c-8.8,0-20.2-2-33.7-6.7 c-4-1.3-16.9-6.7-39.8-15.5c-17.5-6.7-32.4-12.1-44.5-15.5c-16.9-4-32.4-6.1-47.2-6.1c-42.5,0.7-81.7,12.1-118.8,35.1 c-37.1,22.3-66.1,52.6-87.7,91.1C14.2,418.4,0,475.8,0,541.3C0,600,10.1,660,31,722.8c18.9,57.4,43.9,108,74.2,151.8 c17.5,26.3,32.4,46.6,44.5,60.7c17.5,21.6,35.1,37.1,52,47.9C222,996.1,242.3,1002.2,263.9,1002.2z" /><path
   id="SVGID_41_"
   d="M263.9,1002.2c13.5-0.7,27.7-3.4,41.2-7.4c6.7-2,18.2-6.7,35.8-14.2c14.8-6.1,27-10.8,37.8-13.5 c15.5-4,31.7-6.1,48.6-6.1c16.9,0,33.1,2,48.6,6.1c9.4,2.7,22.3,7.4,37.8,14.2c15.5,6.7,27.7,10.8,35.8,13.5 c14.2,4,28.3,6.1,43.2,5.4c21.6,0,41.8-6.1,60.7-18.2c16.2-10.8,32.4-25.6,49.3-45.9c10.8-12.8,25-32.4,43.2-58.7 c19.6-29.7,37.1-61.4,52-96.5c5.4-12.8,11.5-28.3,16.9-45.9c-10.8-4-22.3-10.1-35.1-18.9c-26.3-17.5-47.9-39.1-64.1-64.1 c-22.9-34.4-34.4-74.2-35.1-119.5c0-37.1,8.8-72.9,27-105.3c12.8-22.9,30.4-43.9,51.3-62.8c9.4-8.8,19.6-16.2,30.4-22.9 c-25.6-37.8-60.1-64.8-102.6-81.7c-24.3-9.4-51.3-15.5-81-17.5c-15.5-1.3-31.7-0.7-47.9,2c-13.5,2-28.3,6.1-43.9,10.8 c-10.1,4-22.9,8.8-39.1,14.8c-16.2,6.7-27.7,10.8-33.7,12.8c-10.8,3.4-20.2,5.4-27,5.4c-8.8,0-20.2-2-33.7-6.7 c-4-1.3-16.9-6.7-39.8-15.5c-17.5-6.7-32.4-12.1-44.5-15.5c-16.9-4-32.4-6.1-47.2-6.1c-42.5,0.7-81.7,12.1-118.8,35.1 c-37.1,22.3-66.1,52.6-87.7,91.1C14.2,418.4,0,475.8,0,541.3C0,600,10.1,660,31,722.8c18.9,57.4,43.9,108,74.2,151.8 c17.5,26.3,32.4,46.6,44.5,60.7c17.5,21.6,35.1,37.1,52,47.9C222,996.1,242.3,1002.2,263.9,1002.2z" /><path
   id="SVGID_43_"
   d="M263.9,1002.2c13.5-0.7,27.7-3.4,41.2-7.4c6.7-2,18.2-6.7,35.8-14.2c14.8-6.1,27-10.8,37.8-13.5 c15.5-4,31.7-6.1,48.6-6.1c16.9,0,33.1,2,48.6,6.1c9.4,2.7,22.3,7.4,37.8,14.2c15.5,6.7,27.7,10.8,35.8,13.5 c14.2,4,28.3,6.1,43.2,5.4c21.6,0,41.8-6.1,60.7-18.2c16.2-10.8,32.4-25.6,49.3-45.9c10.8-12.8,25-32.4,43.2-58.7 c19.6-29.7,37.1-61.4,52-96.5c5.4-12.8,11.5-28.3,16.9-45.9c-10.8-4-22.3-10.1-35.1-18.9c-26.3-17.5-47.9-39.1-64.1-64.1 c-22.9-34.4-34.4-74.2-35.1-119.5c0-37.1,8.8-72.9,27-105.3c12.8-22.9,30.4-43.9,51.3-62.8c9.4-8.8,19.6-16.2,30.4-22.9 c-25.6-37.8-60.1-64.8-102.6-81.7c-24.3-9.4-51.3-15.5-81-17.5c-15.5-1.3-31.7-0.7-47.9,2c-13.5,2-28.3,6.1-43.9,10.8 c-10.1,4-22.9,8.8-39.1,14.8c-16.2,6.7-27.7,10.8-33.7,12.8c-10.8,3.4-20.2,5.4-27,5.4c-8.8,0-20.2-2-33.7-6.7 c-4-1.3-16.9-6.7-39.8-15.5c-17.5-6.7-32.4-12.1-44.5-15.5c-16.9-4-32.4-6.1-47.2-6.1c-42.5,0.7-81.7,12.1-118.8,35.1 c-37.1,22.3-66.1,52.6-87.7,91.1C14.2,418.4,0,475.8,0,541.3C0,600,10.1,660,31,722.8c18.9,57.4,43.9,108,74.2,151.8 c17.5,26.3,32.4,46.6,44.5,60.7c17.5,21.6,35.1,37.1,52,47.9C222,996.1,242.3,1002.2,263.9,1002.2z" /><path
   id="SVGID_45_"
   d="M263.9,1002.2c13.5-0.7,27.7-3.4,41.2-7.4c6.7-2,18.2-6.7,35.8-14.2c14.8-6.1,27-10.8,37.8-13.5 c15.5-4,31.7-6.1,48.6-6.1c16.9,0,33.1,2,48.6,6.1c9.4,2.7,22.3,7.4,37.8,14.2c15.5,6.7,27.7,10.8,35.8,13.5 c14.2,4,28.3,6.1,43.2,5.4c21.6,0,41.8-6.1,60.7-18.2c16.2-10.8,32.4-25.6,49.3-45.9c10.8-12.8,25-32.4,43.2-58.7 c19.6-29.7,37.1-61.4,52-96.5c5.4-12.8,11.5-28.3,16.9-45.9c-10.8-4-22.3-10.1-35.1-18.9c-26.3-17.5-47.9-39.1-64.1-64.1 c-22.9-34.4-34.4-74.2-35.1-119.5c0-37.1,8.8-72.9,27-105.3c12.8-22.9,30.4-43.9,51.3-62.8c9.4-8.8,19.6-16.2,30.4-22.9 c-25.6-37.8-60.1-64.8-102.6-81.7c-24.3-9.4-51.3-15.5-81-17.5c-15.5-1.3-31.7-0.7-47.9,2c-13.5,2-28.3,6.1-43.9,10.8 c-10.1,4-22.9,8.8-39.1,14.8c-16.2,6.7-27.7,10.8-33.7,12.8c-10.8,3.4-20.2,5.4-27,5.4c-8.8,0-20.2-2-33.7-6.7 c-4-1.3-16.9-6.7-39.8-15.5c-17.5-6.7-32.4-12.1-44.5-15.5c-16.9-4-32.4-6.1-47.2-6.1c-42.5,0.7-81.7,12.1-118.8,35.1 c-37.1,22.3-66.1,52.6-87.7,91.1C14.2,418.4,0,475.8,0,541.3C0,600,10.1,660,31,722.8c18.9,57.4,43.9,108,74.2,151.8 c17.5,26.3,32.4,46.6,44.5,60.7c17.5,21.6,35.1,37.1,52,47.9C222,996.1,242.3,1002.2,263.9,1002.2z" /><path
   id="SVGID_47_"
   d="M263.9,1002.2c13.5-0.7,27.7-3.4,41.2-7.4c6.7-2,18.2-6.7,35.8-14.2c14.8-6.1,27-10.8,37.8-13.5 c15.5-4,31.7-6.1,48.6-6.1c16.9,0,33.1,2,48.6,6.1c9.4,2.7,22.3,7.4,37.8,14.2c15.5,6.7,27.7,10.8,35.8,13.5 c14.2,4,28.3,6.1,43.2,5.4c21.6,0,41.8-6.1,60.7-18.2c16.2-10.8,32.4-25.6,49.3-45.9c10.8-12.8,25-32.4,43.2-58.7 c19.6-29.7,37.1-61.4,52-96.5c5.4-12.8,11.5-28.3,16.9-45.9c-10.8-4-22.3-10.1-35.1-18.9c-26.3-17.5-47.9-39.1-64.1-64.1 c-22.9-34.4-34.4-74.2-35.1-119.5c0-37.1,8.8-72.9,27-105.3c12.8-22.9,30.4-43.9,51.3-62.8c9.4-8.8,19.6-16.2,30.4-22.9 c-25.6-37.8-60.1-64.8-102.6-81.7c-24.3-9.4-51.3-15.5-81-17.5c-15.5-1.3-31.7-0.7-47.9,2c-13.5,2-28.3,6.1-43.9,10.8 c-10.1,4-22.9,8.8-39.1,14.8c-16.2,6.7-27.7,10.8-33.7,12.8c-10.8,3.4-20.2,5.4-27,5.4c-8.8,0-20.2-2-33.7-6.7 c-4-1.3-16.9-6.7-39.8-15.5c-17.5-6.7-32.4-12.1-44.5-15.5c-16.9-4-32.4-6.1-47.2-6.1c-42.5,0.7-81.7,12.1-118.8,35.1 c-37.1,22.3-66.1,52.6-87.7,91.1C14.2,418.4,0,475.8,0,541.3C0,600,10.1,660,31,722.8c18.9,57.4,43.9,108,74.2,151.8 c17.5,26.3,32.4,46.6,44.5,60.7c17.5,21.6,35.1,37.1,52,47.9C222,996.1,242.3,1002.2,263.9,1002.2z" />
	
		<linearGradient
   id="SVGID_15_"
   gradientUnits="userSpaceOnUse"
   x1="-82"
   y1="224.5"
   x2="-82"
   y2="151.5"
   gradientTransform="matrix(1,0,0,-1,654,325)">
		<stop
   offset="0"
   style="stop-color:#7ED3F7"
   id="stop160" />
		<stop
   offset="1"
   style="stop-color:#003D7E"
   id="stop162" />
	</linearGradient>
	
	

	
		<linearGradient
   id="SVGID_14_"
   gradientUnits="userSpaceOnUse"
   x1="-24"
   y1="311.5"
   x2="-24"
   y2="238"
   gradientTransform="matrix(1,0,0,-1,654,325)">
		<stop
   offset="0"
   style="stop-color:#7ED3F7"
   id="stop149" />
		<stop
   offset="1"
   style="stop-color:#003D7E"
   id="stop151" />
	</linearGradient>
	
	

	
		<linearGradient
   id="SVGID_13_"
   gradientUnits="userSpaceOnUse"
   x1="-208.3335"
   y1="311.5"
   x2="-208.3335"
   y2="238"
   gradientTransform="matrix(1,0,0,-1,654,325)">
		<stop
   offset="0"
   style="stop-color:#7ED3F7"
   id="stop138" />
		<stop
   offset="1"
   style="stop-color:#003D7E"
   id="stop140" />
	</linearGradient>
	
	

	
		<linearGradient
   id="SVGID_12_"
   gradientUnits="userSpaceOnUse"
   x1="-369.74951"
   y1="311.5"
   x2="-369.74951"
   y2="238"
   gradientTransform="matrix(1,0,0,-1,654,325)">
		<stop
   offset="0"
   style="stop-color:#7ED3F7"
   id="stop127" />
		<stop
   offset="1"
   style="stop-color:#003D7E"
   id="stop129" />
	</linearGradient>
	
	

	
		<linearGradient
   id="SVGID_11_"
   gradientUnits="userSpaceOnUse"
   x1="-403"
   y1="311.5"
   x2="-403"
   y2="238"
   gradientTransform="matrix(1,0,0,-1,654,325)">
		<stop
   offset="0"
   style="stop-color:#7ED3F7"
   id="stop116" />
		<stop
   offset="1"
   style="stop-color:#003D7E"
   id="stop118" />
	</linearGradient>
	
	

	
	

		
			<linearGradient
   id="SVGID_10_"
   gradientUnits="userSpaceOnUse"
   x1="-498.50049"
   y1="311.84671"
   x2="-498.50049"
   y2="236.83659"
   gradientTransform="matrix(1,0,0,-1,654,325)">
			<stop
   offset="0"
   style="stop-color:#7ED3F7"
   id="stop101" />
			<stop
   offset="1"
   style="stop-color:#003D7E"
   id="stop103" />
		</linearGradient>
		
	
		
	
	
		<linearGradient
   id="SVGID_9_"
   gradientUnits="userSpaceOnUse"
   x1="-303.91699"
   y1="311.5"
   x2="-303.91699"
   y2="238"
   gradientTransform="matrix(1,0,0,-1,654,325)">
		<stop
   offset="0"
   style="stop-color:#7ED3F7"
   id="stop90" />
		<stop
   offset="1"
   style="stop-color:#003D7E"
   id="stop92" />
	</linearGradient>
	
	

	
		<linearGradient
   id="SVGID_8_"
   gradientUnits="userSpaceOnUse"
   x1="-274.91699"
   y1="224.5"
   x2="-274.91699"
   y2="151.5"
   gradientTransform="matrix(1,0,0,-1,654,325)">
		<stop
   offset="0"
   style="stop-color:#7ED3F7"
   id="stop79" />
		<stop
   offset="1"
   style="stop-color:#003D7E"
   id="stop81" />
	</linearGradient>
	
	

	
		<linearGradient
   id="SVGID_7_"
   gradientUnits="userSpaceOnUse"
   x1="-593.4165"
   y1="311.5"
   x2="-593.4165"
   y2="238"
   gradientTransform="matrix(1,0,0,-1,654,325)">
		<stop
   offset="0"
   style="stop-color:#7ED3F7"
   id="stop68" />
		<stop
   offset="1"
   style="stop-color:#003D7E"
   id="stop70" />
	</linearGradient>
	
	

	
		<linearGradient
   id="SVGID_6_"
   gradientUnits="userSpaceOnUse"
   x1="-308.75"
   y1="224.5"
   x2="-308.75"
   y2="151.5"
   gradientTransform="matrix(1,0,0,-1,654,325)">
		<stop
   offset="0"
   style="stop-color:#7ED3F7"
   id="stop57" />
		<stop
   offset="1"
   style="stop-color:#003D7E"
   id="stop59" />
	</linearGradient>
	
	
</defs><g
     inkscape:label="Layer 1"
     inkscape:groupmode="layer"
     id="layer1"><path
       id="rect231"
       style="fill:#ffffff;stroke-width:0.8001;stroke-linecap:square;paint-order:fill markers stroke"
       d="M 0 0 L 0 132.29167 L 396.875 132.29167 L 396.875 0 L 256.9223 0 A 3.0895112 3.0895112 0 0 1 259.33197 1.2975952 L 290.42775 44.627767 A 5.3757496 5.3757496 0 0 1 290.86028 45.462341 C 287.21467 45.462341 283.75448 45.215181 280.35601 45.462341 A 6.4879738 6.4879738 0 0 1 273.28099 41.90907 C 272.15333 39.885443 270.87134 37.429424 269.00219 36.471676 C 267.13303 35.51393 264.36788 36.193602 262.06617 36.178153 L 251.14436 36.178153 A 3.2903297 3.2903297 0 0 1 249.04371 35.112069 C 247.32904 33.042098 245.76879 30.848815 244.13135 28.701607 L 243.72983 28.964124 L 243.72983 45.40033 C 243.12737 45.40033 242.58641 45.508333 242.06119 45.508333 L 230.19784 45.508333 C 228.65308 45.508333 228.00434 45.060574 228.05068 43.407686 C 228.17426 39.777514 228.12774 36.13201 228.14318 32.486389 L 228.14318 0.046508789 C 228.37589 0.046508789 228.56315 0.021853422 228.77725 0 L 218.31846 0 A 6.2871556 6.2871556 0 0 1 219.10652 0.10800374 L 219.10652 9.1601644 L 186.86715 9.1601644 C 184.16383 9.1601644 183.0052 10.241606 182.95886 13.083956 C 182.88162 19.262971 182.9591 25.442311 182.88186 31.621326 A 16.992312 16.992312 0 0 0 182.95886 34.94257 C 183.05154 35.45234 183.80853 36.209159 184.27196 36.209159 C 191.60954 36.286396 198.96263 36.270654 206.48559 36.270654 L 206.48559 27.496513 L 195.53328 27.496513 C 197.80407 24.113501 199.79667 21.101253 201.83574 18.135327 A 1.2975948 1.2975948 0 0 1 202.79382 17.749304 L 221.97973 17.749304 L 221.97973 45.554842 C 221.31549 45.554842 220.66637 45.678349 220.01758 45.678349 L 173.87569 45.678349 C 173.13421 45.678349 172.33128 45.67848 171.66704 45.570345 C 167.8206 45.43132 167.0327 44.535205 167.0327 40.626978 C 167.0327 32.470673 166.95546 24.329992 167.0327 16.17369 A 6.7969251 6.7969251 0 0 1 168.08328 12.790434 C 170.43131 9.0830244 172.96444 5.4991957 175.35881 1.8381307 A 3.6147285 3.6147285 0 0 1 178.55654 0 L 160.89044 0 A 7.9554916 7.9554916 0 0 1 161.61029 0.076997884 L 161.61029 9.1451782 L 130.71554 9.1451782 A 3.0895112 3.0895112 0 0 0 127.5178 11.987382 C 127.40967 13.810193 127.5178 15.663663 127.5178 17.687292 L 161.87332 17.687292 C 159.71067 20.962169 157.79472 23.959282 155.69386 26.847974 C 155.3849 27.29595 154.41191 27.450061 153.73222 27.465507 L 130.02049 27.465507 L 127.67231 27.465507 L 127.67231 36.193656 L 161.6568 36.193656 L 161.6568 45.12231 L 110.17002 45.168819 C 110.17002 44.411889 110.07752 43.747405 110.07752 43.083158 L 110.07752 16.204696 A 6.6733443 6.6733443 0 0 1 111.03508 12.960449 C 113.33677 9.2221445 115.8087 5.6076083 118.18762 1.9156453 A 3.5065954 3.5065954 0 0 1 121.22413 0 L 104.3156 0 C 104.56246 0.015131488 104.77907 0.00016171334 105.05715 0.046508789 L 105.05715 45.384827 L 88.38892 45.384827 L 88.38892 12.635921 A 3.8464415 3.8464415 0 0 0 84.264624 14.335559 C 83.198743 15.694945 82.271759 17.162296 81.344906 18.614368 C 75.768344 27.2032 70.222637 35.822874 64.615177 44.396257 A 2.4870565 2.4870565 0 0 1 62.962565 45.539339 L 47.035889 45.539339 A 3.6147285 3.6147285 0 0 1 46.201831 45.199308 L 67.828418 12.265401 L 67.627397 11.662854 A 52.35177 52.35177 0 0 0 59.656824 12.342399 A 6.5961066 6.5961066 0 0 0 56.19657 15.138611 C 49.785841 24.731533 43.48281 34.401567 37.195662 44.071729 A 2.7651128 2.7651128 0 0 1 34.523474 45.616854 C 29.224968 45.524168 23.972984 45.570345 18.288289 45.570345 C 21.377797 40.936085 24.142513 36.687955 26.969413 32.43988 C 33.148428 23.171356 39.327766 13.902536 45.506783 4.5413249 A 9.268534 9.268534 0 0 1 53.451518 0 L 0 0 z M 71.242163 0 L 71.242163 4.139799 L 71.582194 4.4953328 C 73.787655 1.4207717 76.596617 0.35550052 79.62098 0 L 71.242163 0 z M 243.89984 9.2221761 L 243.89984 27.373006 L 262.01967 27.326497 A 2.8577979 2.8577979 0 0 0 261.75715 26.677958 C 257.69443 21.116845 253.64731 15.540408 249.53826 9.9947388 A 2.0081823 2.0081823 0 0 0 248.22516 9.2221761 C 246.83488 9.1140437 245.42914 9.2221761 243.89984 9.2221761 z M 355.0605 23.310205 C 364.60709 24.360637 369.36476 30.740423 368.12895 40.30245 A 42.249068 42.249068 0 0 1 363.69563 53.973966 A 83.092405 83.092405 0 0 1 349.51458 73.684908 L 349.51458 66.254354 L 349.51458 44.627767 C 349.51458 39.159335 346.42487 36.193656 340.95645 36.193656 L 316.8587 36.193656 C 317.01318 35.869256 317.04408 35.668403 317.15222 35.606612 C 325.98822 29.906472 335.2875 25.241112 345.79181 23.588224 A 34.695212 34.695212 0 0 1 355.0605 23.310205 z M 315.96263 36.533687 L 315.96263 41.955579 L 315.96263 76.249093 C 315.96263 77.994664 316.39498 78.58171 318.21779 78.566264 C 325.81798 78.458129 333.41827 78.566264 341.01846 78.566264 C 342.13068 78.566264 343.22735 78.458039 344.44771 78.396248 A 4.0472598 4.0472598 0 0 1 343.86066 79.261312 C 332.39861 89.904671 319.62345 98.370191 304.36127 102.54103 C 298.95464 104.08578 293.45517 104.81165 287.89406 103.35958 A 12.14178 12.14178 0 0 1 281.6226 100.05384 C 283.89338 97.968424 285.96325 96.022062 288.07957 94.152909 C 295.80333 87.232411 303.69706 80.25026 311.5753 73.437895 A 3.7074136 3.7074136 0 0 0 312.87289 69.189575 L 277.85332 94.816951 L 277.5288 94.430929 C 277.8841 94.060187 278.22413 93.674198 278.59488 93.334355 C 289.68621 83.314049 300.7931 73.303855 311.91533 63.304146 A 2.888693 2.888693 0 0 0 312.8884 59.967399 L 278.23935 84.853219 L 277.86883 84.451693 C 278.67211 83.679317 279.41343 82.907008 280.2785 82.165527 C 290.81373 72.897003 301.3387 63.628514 311.85332 54.359989 A 10.149045 10.149045 0 0 0 313.39844 51.811308 L 312.68737 51.177755 L 282.14764 73.190365 L 281.76161 72.819845 A 29.195881 29.195881 0 0 1 284.18679 70.085645 C 293.38323 62.022026 302.57988 53.963694 311.77632 45.910376 A 11.045003 11.045003 0 0 0 313.41343 43.392183 L 312.70288 42.75863 L 293.16195 57.279708 C 294.10426 53.8658 309.30474 40.148413 315.96263 36.533687 z M 329.68014 44.952295 A 33.243141 33.243141 0 0 0 335.22553 44.952295 C 336.7703 44.797821 337.28019 45.431485 337.28019 46.914449 L 337.28019 65.034273 C 337.28019 69.668536 337.28012 69.668616 332.64585 69.668616 C 327.51726 69.668616 327.51748 69.668552 327.51748 64.462732 L 327.51748 57.248702 L 327.45546 57.248702 C 327.45546 53.86569 327.54815 50.46696 327.45546 47.083948 C 327.45546 45.322928 328.0427 44.844165 329.68014 44.952295 z M 275.6793 51.23925 C 277.1555 51.318901 278.63716 51.521372 280.12399 51.872803 A 50.235455 50.235455 0 0 1 286.41146 54.297978 L 286.67397 55.101546 A 21.1786 21.1786 0 0 0 284.78934 56.491642 C 275.38692 65.059879 265.99456 73.638705 256.61276 82.227539 A 2.7033225 2.7033225 0 0 0 255.7632 85.56377 L 289.8252 60.724459 L 290.52025 61.450513 A 8.9441352 8.9441352 0 0 0 288.79012 62.42358 C 278.57416 71.692103 268.37866 80.960591 258.20388 90.229118 A 41.708403 41.708403 0 0 0 255.11466 93.581368 L 255.7017 94.168412 L 289.68619 70.533679 L 290.07222 70.966211 C 289.56245 71.352399 289.00648 71.70777 288.52761 72.140299 C 277.87909 81.625091 267.24066 91.130405 256.61276 100.65639 A 10.952318 10.952318 0 0 0 255.06815 103.17406 L 255.6707 103.66861 L 286.08693 81.856502 L 286.41146 82.18103 C 285.85535 82.768034 285.36078 83.385995 284.75833 83.92666 C 275.39711 92.453703 266.03077 100.97528 256.65927 109.49202 A 12.14178 12.14178 0 0 0 255.11466 111.48518 L 255.7017 112.07223 C 262.28237 107.31439 268.85259 102.54611 275.41265 97.767676 L 275.75268 98.138196 A 91.325953 91.325953 0 0 1 269.4497 104.74968 C 264.08942 109.38394 258.54399 113.84856 253.09101 118.37469 A 8.7587644 8.7587644 0 0 0 252.4373 119.00256 A 14.010934 14.010934 0 0 0 252.43989 119.02168 C 252.44511 119.02218 252.45226 119.02273 252.45746 119.02323 L 252.45746 119.13175 C 251.19075 119.87323 249.90888 120.58347 248.64219 121.3404 C 240.59402 126.14458 232.22151 130.22304 222.8603 131.65966 A 40.349016 40.349016 0 0 1 212.55653 131.89117 C 204.01404 130.91798 199.31812 124.72375 200.19863 116.10402 A 38.618892 38.618892 0 0 1 203.84389 103.15856 A 79.941107 79.941107 0 0 1 219.16802 81.346973 C 219.16802 82.057561 219.35354 82.50539 219.35354 82.891581 L 219.35354 109.15251 A 18.382593 18.382593 0 0 0 219.67806 112.82877 A 7.214009 7.214009 0 0 0 227.04661 118.82272 L 250.26431 118.82272 C 250.97768 118.82272 251.77599 118.95632 252.41922 119.01961 A 8.7587644 8.7587644 0 0 1 252.4373 119.00256 A 14.010934 14.010934 0 0 1 252.14843 117.16959 L 252.14843 104.81169 C 252.14843 103.57589 251.85527 103.01966 250.51132 103.05056 L 241.76767 103.05056 L 241.76767 108.44196 C 241.76767 108.98262 241.21202 109.98657 240.88762 109.98657 C 237.70543 110.0947 234.50751 109.98657 231.1554 109.98657 L 231.1554 104.33265 L 231.1554 87.64943 C 231.1554 85.996543 231.6808 85.471379 233.22556 85.502275 C 235.69716 85.502275 238.16843 85.502089 240.62459 85.594775 C 241.07257 85.594775 241.78334 86.429053 241.82968 86.923376 C 241.98416 88.468129 241.82968 90.121005 241.82968 92.252767 L 248.27115 92.252767 C 252.17938 92.252767 252.17944 92.253056 252.17944 88.298486 L 252.17944 78.658765 C 252.17944 77.206696 251.77788 76.697184 250.32581 76.71263 C 241.75242 76.851658 233.16381 76.928969 224.59043 77.021655 L 223.61684 77.021655 C 224.08027 76.48099 224.32741 76.156628 224.62091 75.878573 C 235.68135 65.652302 248.02413 57.495653 262.5757 53.154895 C 266.87399 51.868886 271.25068 51.000296 275.6793 51.23925 z M 252.41922 119.01961 A 8.7587644 8.7587644 0 0 0 252.31845 119.11624 L 252.45746 119.13175 A 14.010934 14.010934 0 0 1 252.43989 119.02168 C 252.43374 119.02108 252.42539 119.02022 252.41922 119.01961 z " /><g
       id="g7347"
       transform="matrix(0.26458333,0,0,0.26458333,160.80729,208.67987)" /></g></svg>
