<?xml version="1.0" encoding="UTF-8" standalone="no"?>
<!-- Created with Inkscape (http://www.inkscape.org/) -->

<svg
   width="1500"
   height="500"
   viewBox="0 0 396.87498 132.29167"
   version="1.1"
   id="svg5"
   inkscape:version="1.2.2 (732a01da63, 2022-12-09)"
   xml:space="preserve"
   sodipodi:docname="megaduck.svg"
   xmlns:inkscape="http://www.inkscape.org/namespaces/inkscape"
   xmlns:sodipodi="http://sodipodi.sourceforge.net/DTD/sodipodi-0.dtd"
   xmlns="http://www.w3.org/2000/svg"
   xmlns:svg="http://www.w3.org/2000/svg"><sodipodi:namedview
     id="namedview7"
     pagecolor="#000000"
     bordercolor="#111111"
     borderopacity="1"
     inkscape:showpageshadow="0"
     inkscape:pageopacity="0"
     inkscape:pagecheckerboard="1"
     inkscape:deskcolor="#d1d1d1"
     inkscape:document-units="mm"
     showgrid="false"
     inkscape:zoom="0.44378316"
     inkscape:cx="694.03264"
     inkscape:cy="369.54985"
     inkscape:window-width="1920"
     inkscape:window-height="1009"
     inkscape:window-x="-8"
     inkscape:window-y="-8"
     inkscape:window-maximized="1"
     inkscape:current-layer="layer1" /><defs
     id="defs2"><path
   id="SVGID_37_"
   d="M263.9,1002.2c13.5-0.7,27.7-3.4,41.2-7.4c6.7-2,18.2-6.7,35.8-14.2c14.8-6.1,27-10.8,37.8-13.5 c15.5-4,31.7-6.1,48.6-6.1c16.9,0,33.1,2,48.6,6.1c9.4,2.7,22.3,7.4,37.8,14.2c15.5,6.7,27.7,10.8,35.8,13.5 c14.2,4,28.3,6.1,43.2,5.4c21.6,0,41.8-6.1,60.7-18.2c16.2-10.8,32.4-25.6,49.3-45.9c10.8-12.8,25-32.4,43.2-58.7 c19.6-29.7,37.1-61.4,52-96.5c5.4-12.8,11.5-28.3,16.9-45.9c-10.8-4-22.3-10.1-35.1-18.9c-26.3-17.5-47.9-39.1-64.1-64.1 c-22.9-34.4-34.4-74.2-35.1-119.5c0-37.1,8.8-72.9,27-105.3c12.8-22.9,30.4-43.9,51.3-62.8c9.4-8.8,19.6-16.2,30.4-22.9 c-25.6-37.8-60.1-64.8-102.6-81.7c-24.3-9.4-51.3-15.5-81-17.5c-15.5-1.3-31.7-0.7-47.9,2c-13.5,2-28.3,6.1-43.9,10.8 c-10.1,4-22.9,8.8-39.1,14.8c-16.2,6.7-27.7,10.8-33.7,12.8c-10.8,3.4-20.2,5.4-27,5.4c-8.8,0-20.2-2-33.7-6.7 c-4-1.3-16.9-6.7-39.8-15.5c-17.5-6.7-32.4-12.1-44.5-15.5c-16.9-4-32.4-6.1-47.2-6.1c-42.5,0.7-81.7,12.1-118.8,35.1 c-37.1,22.3-66.1,52.6-87.7,91.1C14.2,418.4,0,475.8,0,541.3C0,600,10.1,660,31,722.8c18.9,57.4,43.9,108,74.2,151.8 c17.5,26.3,32.4,46.6,44.5,60.7c17.5,21.6,35.1,37.1,52,47.9C222,996.1,242.3,1002.2,263.9,1002.2z" /><path
   id="SVGID_39_"
   d="M263.9,1002.2c13.5-0.7,27.7-3.4,41.2-7.4c6.7-2,18.2-6.7,35.8-14.2c14.8-6.1,27-10.8,37.8-13.5 c15.5-4,31.7-6.1,48.6-6.1c16.9,0,33.1,2,48.6,6.1c9.4,2.7,22.3,7.4,37.8,14.2c15.5,6.7,27.7,10.8,35.8,13.5 c14.2,4,28.3,6.1,43.2,5.4c21.6,0,41.8-6.1,60.7-18.2c16.2-10.8,32.4-25.6,49.3-45.9c10.8-12.8,25-32.4,43.2-58.7 c19.6-29.7,37.1-61.4,52-96.5c5.4-12.8,11.5-28.3,16.9-45.9c-10.8-4-22.3-10.1-35.1-18.9c-26.3-17.5-47.9-39.1-64.1-64.1 c-22.9-34.4-34.4-74.2-35.1-119.5c0-37.1,8.8-72.9,27-105.3c12.8-22.9,30.4-43.9,51.3-62.8c9.4-8.8,19.6-16.2,30.4-22.9 c-25.6-37.8-60.1-64.8-102.6-81.7c-24.3-9.4-51.3-15.5-81-17.5c-15.5-1.3-31.7-0.7-47.9,2c-13.5,2-28.3,6.1-43.9,10.8 c-10.1,4-22.9,8.8-39.1,14.8c-16.2,6.7-27.7,10.8-33.7,12.8c-10.8,3.4-20.2,5.4-27,5.4c-8.8,0-20.2-2-33.7-6.7 c-4-1.3-16.9-6.7-39.8-15.5c-17.5-6.7-32.4-12.1-44.5-15.5c-16.9-4-32.4-6.1-47.2-6.1c-42.5,0.7-81.7,12.1-118.8,35.1 c-37.1,22.3-66.1,52.6-87.7,91.1C14.2,418.4,0,475.8,0,541.3C0,600,10.1,660,31,722.8c18.9,57.4,43.9,108,74.2,151.8 c17.5,26.3,32.4,46.6,44.5,60.7c17.5,21.6,35.1,37.1,52,47.9C222,996.1,242.3,1002.2,263.9,1002.2z" /><path
   id="SVGID_41_"
   d="M263.9,1002.2c13.5-0.7,27.7-3.4,41.2-7.4c6.7-2,18.2-6.7,35.8-14.2c14.8-6.1,27-10.8,37.8-13.5 c15.5-4,31.7-6.1,48.6-6.1c16.9,0,33.1,2,48.6,6.1c9.4,2.7,22.3,7.4,37.8,14.2c15.5,6.7,27.7,10.8,35.8,13.5 c14.2,4,28.3,6.1,43.2,5.4c21.6,0,41.8-6.1,60.7-18.2c16.2-10.8,32.4-25.6,49.3-45.9c10.8-12.8,25-32.4,43.2-58.7 c19.6-29.7,37.1-61.4,52-96.5c5.4-12.8,11.5-28.3,16.9-45.9c-10.8-4-22.3-10.1-35.1-18.9c-26.3-17.5-47.9-39.1-64.1-64.1 c-22.9-34.4-34.4-74.2-35.1-119.5c0-37.1,8.8-72.9,27-105.3c12.8-22.9,30.4-43.9,51.3-62.8c9.4-8.8,19.6-16.2,30.4-22.9 c-25.6-37.8-60.1-64.8-102.6-81.7c-24.3-9.4-51.3-15.5-81-17.5c-15.5-1.3-31.7-0.7-47.9,2c-13.5,2-28.3,6.1-43.9,10.8 c-10.1,4-22.9,8.8-39.1,14.8c-16.2,6.7-27.7,10.8-33.7,12.8c-10.8,3.4-20.2,5.4-27,5.4c-8.8,0-20.2-2-33.7-6.7 c-4-1.3-16.9-6.7-39.8-15.5c-17.5-6.7-32.4-12.1-44.5-15.5c-16.9-4-32.4-6.1-47.2-6.1c-42.5,0.7-81.7,12.1-118.8,35.1 c-37.1,22.3-66.1,52.6-87.7,91.1C14.2,418.4,0,475.8,0,541.3C0,600,10.1,660,31,722.8c18.9,57.4,43.9,108,74.2,151.8 c17.5,26.3,32.4,46.6,44.5,60.7c17.5,21.6,35.1,37.1,52,47.9C222,996.1,242.3,1002.2,263.9,1002.2z" /><path
   id="SVGID_43_"
   d="M263.9,1002.2c13.5-0.7,27.7-3.4,41.2-7.4c6.7-2,18.2-6.7,35.8-14.2c14.8-6.1,27-10.8,37.8-13.5 c15.5-4,31.7-6.1,48.6-6.1c16.9,0,33.1,2,48.6,6.1c9.4,2.7,22.3,7.4,37.8,14.2c15.5,6.7,27.7,10.8,35.8,13.5 c14.2,4,28.3,6.1,43.2,5.4c21.6,0,41.8-6.1,60.7-18.2c16.2-10.8,32.4-25.6,49.3-45.9c10.8-12.8,25-32.4,43.2-58.7 c19.6-29.7,37.1-61.4,52-96.5c5.4-12.8,11.5-28.3,16.9-45.9c-10.8-4-22.3-10.1-35.1-18.9c-26.3-17.5-47.9-39.1-64.1-64.1 c-22.9-34.4-34.4-74.2-35.1-119.5c0-37.1,8.8-72.9,27-105.3c12.8-22.9,30.4-43.9,51.3-62.8c9.4-8.8,19.6-16.2,30.4-22.9 c-25.6-37.8-60.1-64.8-102.6-81.7c-24.3-9.4-51.3-15.5-81-17.5c-15.5-1.3-31.7-0.7-47.9,2c-13.5,2-28.3,6.1-43.9,10.8 c-10.1,4-22.9,8.8-39.1,14.8c-16.2,6.7-27.7,10.8-33.7,12.8c-10.8,3.4-20.2,5.4-27,5.4c-8.8,0-20.2-2-33.7-6.7 c-4-1.3-16.9-6.7-39.8-15.5c-17.5-6.7-32.4-12.1-44.5-15.5c-16.9-4-32.4-6.1-47.2-6.1c-42.5,0.7-81.7,12.1-118.8,35.1 c-37.1,22.3-66.1,52.6-87.7,91.1C14.2,418.4,0,475.8,0,541.3C0,600,10.1,660,31,722.8c18.9,57.4,43.9,108,74.2,151.8 c17.5,26.3,32.4,46.6,44.5,60.7c17.5,21.6,35.1,37.1,52,47.9C222,996.1,242.3,1002.2,263.9,1002.2z" /><path
   id="SVGID_45_"
   d="M263.9,1002.2c13.5-0.7,27.7-3.4,41.2-7.4c6.7-2,18.2-6.7,35.8-14.2c14.8-6.1,27-10.8,37.8-13.5 c15.5-4,31.7-6.1,48.6-6.1c16.9,0,33.1,2,48.6,6.1c9.4,2.7,22.3,7.4,37.8,14.2c15.5,6.7,27.7,10.8,35.8,13.5 c14.2,4,28.3,6.1,43.2,5.4c21.6,0,41.8-6.1,60.7-18.2c16.2-10.8,32.4-25.6,49.3-45.9c10.8-12.8,25-32.4,43.2-58.7 c19.6-29.7,37.1-61.4,52-96.5c5.4-12.8,11.5-28.3,16.9-45.9c-10.8-4-22.3-10.1-35.1-18.9c-26.3-17.5-47.9-39.1-64.1-64.1 c-22.9-34.4-34.4-74.2-35.1-119.5c0-37.1,8.8-72.9,27-105.3c12.8-22.9,30.4-43.9,51.3-62.8c9.4-8.8,19.6-16.2,30.4-22.9 c-25.6-37.8-60.1-64.8-102.6-81.7c-24.3-9.4-51.3-15.5-81-17.5c-15.5-1.3-31.7-0.7-47.9,2c-13.5,2-28.3,6.1-43.9,10.8 c-10.1,4-22.9,8.8-39.1,14.8c-16.2,6.7-27.7,10.8-33.7,12.8c-10.8,3.4-20.2,5.4-27,5.4c-8.8,0-20.2-2-33.7-6.7 c-4-1.3-16.9-6.7-39.8-15.5c-17.5-6.7-32.4-12.1-44.5-15.5c-16.9-4-32.4-6.1-47.2-6.1c-42.5,0.7-81.7,12.1-118.8,35.1 c-37.1,22.3-66.1,52.6-87.7,91.1C14.2,418.4,0,475.8,0,541.3C0,600,10.1,660,31,722.8c18.9,57.4,43.9,108,74.2,151.8 c17.5,26.3,32.4,46.6,44.5,60.7c17.5,21.6,35.1,37.1,52,47.9C222,996.1,242.3,1002.2,263.9,1002.2z" /><path
   id="SVGID_47_"
   d="M263.9,1002.2c13.5-0.7,27.7-3.4,41.2-7.4c6.7-2,18.2-6.7,35.8-14.2c14.8-6.1,27-10.8,37.8-13.5 c15.5-4,31.7-6.1,48.6-6.1c16.9,0,33.1,2,48.6,6.1c9.4,2.7,22.3,7.4,37.8,14.2c15.5,6.7,27.7,10.8,35.8,13.5 c14.2,4,28.3,6.1,43.2,5.4c21.6,0,41.8-6.1,60.7-18.2c16.2-10.8,32.4-25.6,49.3-45.9c10.8-12.8,25-32.4,43.2-58.7 c19.6-29.7,37.1-61.4,52-96.5c5.4-12.8,11.5-28.3,16.9-45.9c-10.8-4-22.3-10.1-35.1-18.9c-26.3-17.5-47.9-39.1-64.1-64.1 c-22.9-34.4-34.4-74.2-35.1-119.5c0-37.1,8.8-72.9,27-105.3c12.8-22.9,30.4-43.9,51.3-62.8c9.4-8.8,19.6-16.2,30.4-22.9 c-25.6-37.8-60.1-64.8-102.6-81.7c-24.3-9.4-51.3-15.5-81-17.5c-15.5-1.3-31.7-0.7-47.9,2c-13.5,2-28.3,6.1-43.9,10.8 c-10.1,4-22.9,8.8-39.1,14.8c-16.2,6.7-27.7,10.8-33.7,12.8c-10.8,3.4-20.2,5.4-27,5.4c-8.8,0-20.2-2-33.7-6.7 c-4-1.3-16.9-6.7-39.8-15.5c-17.5-6.7-32.4-12.1-44.5-15.5c-16.9-4-32.4-6.1-47.2-6.1c-42.5,0.7-81.7,12.1-118.8,35.1 c-37.1,22.3-66.1,52.6-87.7,91.1C14.2,418.4,0,475.8,0,541.3C0,600,10.1,660,31,722.8c18.9,57.4,43.9,108,74.2,151.8 c17.5,26.3,32.4,46.6,44.5,60.7c17.5,21.6,35.1,37.1,52,47.9C222,996.1,242.3,1002.2,263.9,1002.2z" />
	
		<linearGradient
   id="SVGID_15_"
   gradientUnits="userSpaceOnUse"
   x1="-82"
   y1="224.5"
   x2="-82"
   y2="151.5"
   gradientTransform="matrix(1,0,0,-1,654,325)">
		<stop
   offset="0"
   style="stop-color:#7ED3F7"
   id="stop160" />
		<stop
   offset="1"
   style="stop-color:#003D7E"
   id="stop162" />
	</linearGradient>
	
	

	
		<linearGradient
   id="SVGID_14_"
   gradientUnits="userSpaceOnUse"
   x1="-24"
   y1="311.5"
   x2="-24"
   y2="238"
   gradientTransform="matrix(1,0,0,-1,654,325)">
		<stop
   offset="0"
   style="stop-color:#7ED3F7"
   id="stop149" />
		<stop
   offset="1"
   style="stop-color:#003D7E"
   id="stop151" />
	</linearGradient>
	
	

	
		<linearGradient
   id="SVGID_13_"
   gradientUnits="userSpaceOnUse"
   x1="-208.3335"
   y1="311.5"
   x2="-208.3335"
   y2="238"
   gradientTransform="matrix(1,0,0,-1,654,325)">
		<stop
   offset="0"
   style="stop-color:#7ED3F7"
   id="stop138" />
		<stop
   offset="1"
   style="stop-color:#003D7E"
   id="stop140" />
	</linearGradient>
	
	

	
		<linearGradient
   id="SVGID_12_"
   gradientUnits="userSpaceOnUse"
   x1="-369.74951"
   y1="311.5"
   x2="-369.74951"
   y2="238"
   gradientTransform="matrix(1,0,0,-1,654,325)">
		<stop
   offset="0"
   style="stop-color:#7ED3F7"
   id="stop127" />
		<stop
   offset="1"
   style="stop-color:#003D7E"
   id="stop129" />
	</linearGradient>
	
	

	
		<linearGradient
   id="SVGID_11_"
   gradientUnits="userSpaceOnUse"
   x1="-403"
   y1="311.5"
   x2="-403"
   y2="238"
   gradientTransform="matrix(1,0,0,-1,654,325)">
		<stop
   offset="0"
   style="stop-color:#7ED3F7"
   id="stop116" />
		<stop
   offset="1"
   style="stop-color:#003D7E"
   id="stop118" />
	</linearGradient>
	
	

	
	

		
			<linearGradient
   id="SVGID_10_"
   gradientUnits="userSpaceOnUse"
   x1="-498.50049"
   y1="311.84671"
   x2="-498.50049"
   y2="236.83659"
   gradientTransform="matrix(1,0,0,-1,654,325)">
			<stop
   offset="0"
   style="stop-color:#7ED3F7"
   id="stop101" />
			<stop
   offset="1"
   style="stop-color:#003D7E"
   id="stop103" />
		</linearGradient>
		
	
		
	
	
		<linearGradient
   id="SVGID_9_"
   gradientUnits="userSpaceOnUse"
   x1="-303.91699"
   y1="311.5"
   x2="-303.91699"
   y2="238"
   gradientTransform="matrix(1,0,0,-1,654,325)">
		<stop
   offset="0"
   style="stop-color:#7ED3F7"
   id="stop90" />
		<stop
   offset="1"
   style="stop-color:#003D7E"
   id="stop92" />
	</linearGradient>
	
	

	
		<linearGradient
   id="SVGID_8_"
   gradientUnits="userSpaceOnUse"
   x1="-274.91699"
   y1="224.5"
   x2="-274.91699"
   y2="151.5"
   gradientTransform="matrix(1,0,0,-1,654,325)">
		<stop
   offset="0"
   style="stop-color:#7ED3F7"
   id="stop79" />
		<stop
   offset="1"
   style="stop-color:#003D7E"
   id="stop81" />
	</linearGradient>
	
	

	
		<linearGradient
   id="SVGID_7_"
   gradientUnits="userSpaceOnUse"
   x1="-593.4165"
   y1="311.5"
   x2="-593.4165"
   y2="238"
   gradientTransform="matrix(1,0,0,-1,654,325)">
		<stop
   offset="0"
   style="stop-color:#7ED3F7"
   id="stop68" />
		<stop
   offset="1"
   style="stop-color:#003D7E"
   id="stop70" />
	</linearGradient>
	
	

	
		<linearGradient
   id="SVGID_6_"
   gradientUnits="userSpaceOnUse"
   x1="-308.75"
   y1="224.5"
   x2="-308.75"
   y2="151.5"
   gradientTransform="matrix(1,0,0,-1,654,325)">
		<stop
   offset="0"
   style="stop-color:#7ED3F7"
   id="stop57" />
		<stop
   offset="1"
   style="stop-color:#003D7E"
   id="stop59" />
	</linearGradient>
	
	

		
		
		
		
		
		
		
		
		
	
		
	
			
			
			
			
			
			
			
			
			
		
				
				
				
				
			</defs><g
     inkscape:label="Layer 1"
     inkscape:groupmode="layer"
     id="layer1"><path
       id="rect231"
       style="fill:#ffffff;stroke-width:0.8001;stroke-linecap:square;paint-order:fill markers stroke"
       d="M 0 0 L 0 132.29167 L 396.875 132.29167 L 396.875 0 L 0 0 z M 58.994849 25.188127 L 60.056799 25.188127 C 60.896816 25.289668 61.745689 25.335644 62.56724 25.501803 C 64.690358 25.907964 65.751824 27.089556 65.788749 29.480371 C 65.788749 32.461966 65.714985 35.452752 65.530367 38.434347 A 90.998724 90.998724 0 0 0 65.530367 53.564172 A 118.6362 118.6362 0 0 1 66.001139 65.721053 C 66.001139 72.985806 65.862902 80.260138 65.761361 87.52489 A 25.089728 25.089728 0 0 1 65.539669 90.29423 A 3.258526 3.258526 0 0 1 62.364152 93.146252 A 3.0092904 3.0092904 0 0 1 59.041357 90.700407 A 76.856907 76.856907 0 0 1 58.1179 83.020256 C 57.379424 71.758505 56.75211 60.487167 56.013635 49.225419 C 55.801323 45.883817 55.37645 42.542451 54.970288 39.219312 C 54.850284 38.296218 54.79501 37.049836 53.502677 36.90214 C 52.210345 36.754447 51.794967 37.825446 51.4165 38.748539 C 49.847239 42.36707 48.277831 45.98521 46.88396 49.677588 C 43.191582 59.425463 39.499127 69.182828 36.028292 79.013782 A 23.298923 23.298923 0 0 1 29.077295 89.32478 C 26.252625 91.715595 23.659137 91.041879 22.394499 87.52489 C 21.905258 86.15871 21.951079 84.617004 21.609534 83.195439 C 20.015659 76.604546 18.388199 70.022821 16.726628 63.450391 C 16.025078 60.681108 15.231011 57.911653 14.409456 55.142371 A 10.587902 10.587902 0 0 0 13.274125 52.640715 C 13.061816 52.308401 12.526563 52.170237 12.148096 51.939465 A 3.5077617 3.5077617 0 0 0 11.621513 53.056193 C 11.344584 56.443949 11.049283 59.822856 10.892358 63.210612 C 10.560042 70.170745 10.320032 77.139717 10.015409 84.109078 C 9.9600242 85.355256 9.8125247 86.60169 9.6371379 87.847868 A 2.113888 2.113888 0 0 1 7.1540853 89.888053 C 4.883272 89.823437 1.7724654 87.460137 1.4309204 85.217021 A 82.617021 82.617021 0 0 1 0.57205811 76.309037 C 0.29512959 69.745837 0.0093017578 63.182483 0.0093017578 56.619283 A 147.38138 147.38138 0 0 1 1.578715 33.45894 A 7.4586094 7.4586094 0 0 1 6.8398926 27.145113 A 22.735835 22.735835 0 0 1 16.070854 26.083679 A 2.2615832 2.2615832 0 0 1 18.157031 28.068054 C 18.664734 30.218863 19.080202 32.397329 19.514054 34.529675 A 192.9269 192.9269 0 0 0 28.13575 64.604325 A 23.732778 23.732778 0 0 0 29.179097 66.791789 A 5.3539522 5.3539522 0 0 0 29.779061 67.512158 A 19.754237 19.754237 0 0 0 31.098877 65.185685 C 33.803543 58.410173 36.582416 51.671467 38.151676 44.489791 A 39.250008 39.250008 0 0 1 44.613298 30.163534 C 46.782569 27.080397 49.588403 25.344897 53.456169 25.437207 C 55.302358 25.437207 57.148659 25.280437 58.994849 25.188127 z M 211.42585 25.427905 A 76.755365 76.755365 0 0 1 220.65682 26.54515 C 228.7062 28.188258 236.72764 29.960584 244.7401 31.797542 C 252.98333 33.643729 257.66342 39.18217 259.69423 47.139242 C 260.94963 52.271648 261.18058 57.505519 261.66982 62.757926 C 261.36519 66.099529 261.15304 69.441411 260.74687 72.764551 A 9.3601854 9.3601854 0 0 1 256.97139 79.050472 A 41.133122 41.133122 0 0 1 245.60775 85.374117 C 236.54296 88.734182 227.73703 92.675429 219.05071 96.912431 C 217.03836 97.900141 214.90569 98.6482 212.81027 99.451294 A 6.4616665 6.4616665 0 0 1 210.96438 99.829565 C 209.36743 99.931104 208.65649 99.303652 208.72111 97.706698 C 208.82265 95.057417 208.8964 92.389681 209.24718 89.758862 C 210.67797 79.050969 212.21055 68.352061 213.72442 57.66263 A 16.043395 16.043395 0 0 0 213.17975 50.130273 A 14.206435 14.206435 0 0 1 213.11516 41.305489 C 214.03825 38.18543 217.31505 37.409958 219.35509 39.948466 C 222.5213 43.89931 224.63541 48.348387 224.10002 53.591561 C 223.26923 61.69633 222.30897 69.782983 221.44126 77.887752 A 24.775875 24.775875 0 0 0 221.33068 81.857019 A 1.5046452 1.5046452 0 0 0 223.25976 83.435217 A 10.56944 10.56944 0 0 0 225.82601 82.789262 A 98.161945 98.161945 0 0 0 245.55245 72.118079 C 249.61407 69.348796 250.75873 65.361047 250.47257 60.736344 C 250.42641 59.887096 250.37107 59.047246 250.34338 58.197998 A 12.683328 12.683328 0 0 0 247.94352 50.730237 C 246.05118 48.237883 244.12153 45.763667 242.09995 43.345158 A 10.929447 10.929447 0 0 0 236.91215 40.096261 A 96.454218 96.454218 0 0 0 219.29049 36.403463 A 42.046987 42.046987 0 0 1 214.30578 35.480522 A 4.2646999 4.2646999 0 0 1 212.45938 34.400484 A 10.689442 10.689442 0 0 1 209.43166 27.560592 C 209.31166 25.871329 209.76429 25.298672 211.42585 25.427905 z M 184.50657 36.681999 C 185.84578 36.29776 187.13695 37.128112 187.37926 38.831222 A 75.970735 75.970735 0 0 1 188.07121 47.637919 C 188.25583 55.207291 188.22852 62.767349 188.4593 70.32749 C 188.60699 74.942962 189.04983 79.558293 189.43753 84.11838 C 189.54831 85.429172 189.96382 86.712188 190.19459 88.013749 A 2.8339023 2.8339023 0 0 1 188.87426 90.968091 A 2.6585142 2.6585142 0 0 1 185.74525 91.041471 A 10.495592 10.495592 0 0 1 183.2436 88.909302 C 182.0528 87.413889 181.04644 85.770696 179.98488 84.182975 C 179.7541 83.850662 179.59716 83.472388 179.37561 83.130843 C 178.34175 81.496966 178.21263 81.469165 176.76337 82.77996 C 176.00643 83.472279 175.32361 84.257159 174.57591 84.96794 A 13.264878 13.264878 0 0 1 154.70167 83.195439 C 151.62776 79.041516 150.08608 74.250553 149.16299 69.238151 C 148.39682 65.148845 148.00912 61.003946 149.16299 56.951562 A 18.461904 18.461904 0 0 1 151.79384 51.413399 A 45.231666 45.231666 0 0 1 157.4891 44.665491 C 161.83687 40.53926 167.01548 39.985254 172.51712 41.951444 C 174.64024 42.754536 176.66217 43.760625 178.89606 44.702181 A 36.093021 36.093021 0 0 1 180.58484 41.0099 A 17.243418 17.243418 0 0 1 183.1883 37.4835 C 183.60831 37.072723 184.06016 36.810078 184.50657 36.681999 z M 355.8465 37.174992 C 356.74954 37.004075 357.45934 37.587819 357.59781 38.757841 C 358.03167 42.376372 358.28115 46.02237 358.70575 49.640898 C 359.05654 52.640955 359.5639 55.62258 360.00697 58.604175 A 2.4923571 2.4923571 0 0 0 360.11807 59.03774 C 361.04117 61.963949 361.73332 62.444363 364.678 61.6505 C 368.45344 60.625866 372.16427 59.388749 375.92124 58.327189 A 13.366419 13.366419 0 0 1 391.01386 65.102486 C 392.14926 67.410222 392.13065 69.644169 390.38599 71.711902 C 389.69368 72.533456 389.10323 73.42914 388.41092 74.241463 A 1.1723309 1.1723309 0 0 0 388.53081 76.087345 C 390.30314 77.70276 392.09398 79.309411 393.7925 80.998674 A 18.378825 18.378825 0 0 1 396.38614 84.146285 C 397.35539 85.687854 396.85704 86.712299 395.12162 87.219999 A 7.8555402 7.8555402 0 0 1 389.80463 86.860331 C 386.24146 85.364918 382.75195 83.693799 379.19804 82.170695 C 374.96104 80.324506 370.73358 78.543254 366.4412 76.890914 C 363.61654 75.801665 362.43469 76.521563 361.82546 79.503158 C 361.52085 81.017033 361.59487 82.595273 361.3087 84.11838 A 8.3078568 8.3078568 0 0 1 360.18267 87.183309 A 3.3416046 3.3416046 0 0 1 358.12388 88.419926 C 356.12075 88.743011 355.16066 87.940292 354.94836 85.909485 C 354.46835 81.174012 354.02527 76.43859 353.60064 71.703117 C 352.81602 63.773737 352.00394 55.85307 351.21009 47.92369 C 351.12701 47.360601 351.12689 46.769954 351.12689 46.391484 A 12.083316 12.083316 0 0 1 353.12987 39.394495 A 6.6462854 6.6462854 0 0 1 354.89307 37.603906 C 355.22307 37.373133 355.54548 37.231964 355.8465 37.174992 z M 328.81559 37.779089 A 23.021994 23.021994 0 0 1 343.9635 44.425195 A 3.8400759 3.8400759 0 0 1 345.07144 46.391484 C 345.27454 47.693047 344.01918 48.625255 342.3853 48.329867 A 48.462498 48.462498 0 0 1 337.49258 47.019352 C 335.9418 46.548574 334.42816 45.967064 332.87736 45.54244 C 328.97267 44.471651 325.84331 45.773024 323.10173 48.616154 A 20.548099 20.548099 0 0 0 317.20338 63.847266 C 317.26799 69.764301 319.97233 74.398266 323.83088 78.469112 C 326.18477 80.970697 329.46202 81.376737 332.69287 80.878267 C 336.68985 80.250563 340.63137 79.300109 344.60067 78.497017 C 345.32068 78.358553 346.05934 78.247673 346.77935 78.146134 A 2.7692855 2.7692855 0 0 1 349.38229 79.290767 A 1.2554095 1.2554095 0 0 1 349.44689 81.13665 A 15.434152 15.434152 0 0 1 347.21292 83.425916 C 341.05588 87.893692 334.11449 89.887676 326.63743 88.558419 C 317.60956 86.906082 312.49534 80.767896 310.29837 72.173889 C 309.48605 68.96152 309.44001 65.545698 309.03385 62.222559 L 309.36613 62.222559 C 308.75687 54.994731 311.53535 48.92105 315.89235 43.465564 A 14.474133 14.474133 0 0 1 328.81559 37.779089 z M 145.27692 41.655855 C 146.20001 41.738934 146.33821 42.440801 146.31975 43.179277 C 146.25513 46.170102 146.21806 49.160959 146.09806 52.142554 C 145.91344 56.970335 145.67372 61.798124 145.46141 66.625907 L 145.48001 66.579915 C 145.13846 74.093902 144.8152 81.607705 144.44596 89.121692 C 144.36289 90.78326 144.16904 92.435387 143.97519 94.078495 C 143.54134 97.669332 141.39046 100.10667 138.51041 102.00824 A 30.323678 30.323678 0 0 1 126.86099 106.2545 A 62.890476 62.890476 0 0 1 107.56811 106.45758 A 9.7755783 9.7755783 0 0 1 104.93726 105.69122 A 2.6769761 2.6769761 0 0 1 103.22987 102.86659 C 103.31295 101.62964 104.153 101.09435 105.18686 100.72512 A 17.788044 17.788044 0 0 1 112.61742 99.931368 C 116.55903 100.17137 120.49185 100.54943 124.39654 99.607874 C 129.09509 98.472468 132.3536 95.860371 133.28592 90.884892 A 0.32308331 0.32308331 0 0 1 133.28592 90.783089 C 133.83055 87.967653 133.10119 87.090787 130.2396 87.155404 A 80.567749 80.567749 0 0 1 121.40551 87.155404 A 38.982311 38.982311 0 0 1 113.55896 85.420109 C 106.50652 83.19545 102.81408 75.856737 104.2541 68.56429 A 22.375828 22.375828 0 0 1 111.56528 56.213106 A 35.160696 35.160696 0 0 1 127.73794 47.490125 A 7.320145 7.320145 0 0 1 129.9347 47.379537 A 1.8461904 1.8461904 0 0 1 131.51342 50.314758 A 4.615476 4.615476 0 0 1 130.36879 51.791671 C 127.91336 53.730168 125.44884 55.659274 122.91033 57.496232 A 30.019056 30.019056 0 0 0 115.81154 63.957853 A 9.5078805 9.5078805 0 0 0 114.15014 71.823006 C 114.99939 75.820004 118.14669 78.081278 122.78062 77.979736 A 25.625123 25.625123 0 0 0 131.48551 76.069259 C 134.3748 74.970776 134.93779 72.4228 135.1778 69.773519 C 135.47319 66.284224 135.5934 62.776635 135.87956 59.287337 C 136.23957 54.865715 136.80269 50.481095 138.7135 46.364095 A 14.35413 14.35413 0 0 1 140.61519 43.271777 A 5.0585618 5.0585618 0 0 1 145.27692 41.655855 z M 86.992623 44.877881 C 88.644963 44.970189 90.306318 44.979407 91.949426 45.145565 A 3.4616069 3.4616069 0 0 1 93.795825 45.884021 C 97.562049 49.20716 99.001804 52.714629 97.801782 56.960864 A 18.729602 18.729602 0 0 1 95.762113 61.834985 A 8.086314 8.086314 0 0 1 92.733875 64.604325 C 89.595356 66.228971 86.327709 67.604548 83.11534 69.07227 L 82.607878 69.284143 C 78.472415 71.13033 78.232285 71.241109 78.684603 76.290434 C 78.85999 78.136623 80.097093 79.31845 81.601737 80.232312 A 40.61619 40.61619 0 0 0 93.971008 85.447498 C 98.503401 86.462901 103.09116 87.229522 107.64201 88.134155 C 108.75895 88.355696 109.85754 88.669278 110.95602 88.973897 A 1.7723428 1.7723428 0 0 1 112.28514 90.995479 C 112.28514 92.915516 111.29778 94.244778 109.36852 94.364783 C 105.54691 94.595555 101.71582 94.669603 97.884981 94.660372 C 91.792559 94.660372 86.355784 92.103134 80.807987 90.044633 C 79.044877 89.389237 77.355466 88.549559 75.601587 87.866471 A 7.2647592 7.2647592 0 0 1 71.355334 83.250732 A 40.837731 40.837731 0 0 1 69.389046 72.958337 C 69.167503 70.382904 69.08445 67.83497 68.853678 64.041052 C 69.056759 62.416406 69.333535 59.555125 69.776619 56.739689 A 6.7662879 6.7662879 0 0 1 72.822945 52.29965 C 75.204528 50.619618 77.558331 48.899275 79.88453 47.139242 A 10.440207 10.440207 0 0 1 86.992623 44.877881 z M 267.77642 45.890222 C 268.3121 45.916617 268.90206 46.07994 269.52515 46.391484 A 4.8185569 4.8185569 0 0 1 272.49758 50.720935 C 272.57145 53.360985 272.51618 56.010261 272.51618 58.66877 C 272.83926 63.348858 272.96852 68.037996 274.27008 72.588851 C 274.43624 73.188862 274.67621 73.77057 274.87004 74.361353 C 277.55625 82.6692 288.95629 82.466087 293.03638 77.859847 A 12.646404 12.646404 0 0 0 295.75042 71.093852 C 296.5166 66.210683 297.09817 61.308592 297.77201 56.416195 C 297.89202 55.576178 298.06732 54.745841 298.23348 53.915055 A 2.4092785 2.4092785 0 0 1 300.16307 51.884172 A 2.6492832 2.6492832 0 0 1 302.84921 52.733215 A 5.8524235 5.8524235 0 0 1 304.52922 58.004211 A 33.886825 33.886825 0 0 0 305.26767 71.176534 C 305.94154 73.816584 306.55081 76.475091 307.16006 79.124369 C 307.64007 81.210563 308.09824 83.299856 308.53517 85.392204 A 5.5385713 5.5385713 0 0 1 307.05826 90.681803 C 305.80287 91.964904 304.57511 92.112678 303.28278 90.894194 A 16.615714 16.615714 0 0 1 300.90153 88.013749 C 299.87691 86.43526 298.8889 85.826231 297.02425 86.223161 A 52.957973 52.957973 0 0 0 291.82715 87.700073 C 288.82709 88.678554 285.82701 89.546204 282.59619 89.241581 C 275.21144 88.623108 268.34384 82.632551 266.99611 75.340104 A 130.95952 130.95952 0 0 1 265.01121 49.040934 C 265.05275 46.963972 266.16937 45.811038 267.77642 45.890222 z M 166.60017 49.391817 A 2.9723664 2.9723664 0 0 0 163.77553 50.942627 A 27.766703 27.766703 0 0 1 161.75395 53.582259 C 158.85544 57.20079 157.63672 61.373212 157.47979 67.059473 A 32.529875 32.529875 0 0 0 158.74483 72.736646 A 25.357425 25.357425 0 0 0 162.12344 78.63551 C 163.48961 80.481697 165.11401 80.416827 166.73866 78.736796 A 22.237363 22.237363 0 0 0 168.51116 76.475435 C 173.94819 68.961446 176.41272 60.237805 178.66506 51.431486 C 178.99738 50.120691 178.90521 49.908462 177.53903 49.825382 C 173.89281 49.61307 170.24639 49.52105 166.60017 49.391817 z M 85.497107 54.200826 A 31.237541 31.237541 0 0 0 81.675635 55.124284 A 4.6893236 4.6893236 0 0 0 78.555412 59.9705 C 78.638488 60.893593 79.109414 61.244201 79.921737 61.161125 A 31.939095 31.939095 0 0 0 83.420231 60.653662 A 7.5232259 7.5232259 0 0 0 88.635417 56.563989 C 89.189274 55.511663 88.894037 54.875073 87.712476 54.588916 A 19.172687 19.172687 0 0 0 85.552401 54.321232 L 85.497107 54.200826 z M 376.86382 65.607882 C 374.85724 65.610189 372.79181 66.090365 371.3887 67.078076 A 2.5569737 2.5569737 0 0 0 370.29058 68.924475 C 370.29058 69.422947 371.15817 70.124125 371.75819 70.290283 C 373.49359 70.733367 375.28413 70.982828 376.438 71.195138 A 8.0032354 8.0032354 0 0 0 382.04128 69.025761 C 383.07514 68.102668 383.08446 67.89035 381.98599 67.004179 C 380.81828 66.081086 378.8704 65.605574 376.86382 65.607882 z " /><g
       id="g7927"
       transform="matrix(0.26458333,0,0,0.26458333,131.51108,212.43147)" /></g><style
     type="text/css"
     id="style5697">
	.st0{fill:#E62229;}
	.st1{fill:#019B43;}
	.st2{fill:#FFFFFF;}
</style></svg>
