<?xml version="1.0" encoding="UTF-8" standalone="no"?>
<!-- Created with Inkscape (http://www.inkscape.org/) -->

<svg
   width="1500"
   height="500"
   viewBox="0 0 396.87498 132.29167"
   version="1.1"
   id="svg5"
   inkscape:version="1.2.2 (732a01da63, 2022-12-09)"
   xml:space="preserve"
   sodipodi:docname="megadrive.svg"
   xmlns:inkscape="http://www.inkscape.org/namespaces/inkscape"
   xmlns:sodipodi="http://sodipodi.sourceforge.net/DTD/sodipodi-0.dtd"
   xmlns="http://www.w3.org/2000/svg"
   xmlns:svg="http://www.w3.org/2000/svg"><sodipodi:namedview
     id="namedview7"
     pagecolor="#000000"
     bordercolor="#111111"
     borderopacity="1"
     inkscape:showpageshadow="0"
     inkscape:pageopacity="0"
     inkscape:pagecheckerboard="1"
     inkscape:deskcolor="#d1d1d1"
     inkscape:document-units="mm"
     showgrid="false"
     inkscape:zoom="0.44378316"
     inkscape:cx="694.03264"
     inkscape:cy="369.54985"
     inkscape:window-width="1920"
     inkscape:window-height="1009"
     inkscape:window-x="-8"
     inkscape:window-y="-8"
     inkscape:window-maximized="1"
     inkscape:current-layer="layer1" /><defs
     id="defs2"><path
   id="SVGID_37_"
   d="M263.9,1002.2c13.5-0.7,27.7-3.4,41.2-7.4c6.7-2,18.2-6.7,35.8-14.2c14.8-6.1,27-10.8,37.8-13.5 c15.5-4,31.7-6.1,48.6-6.1c16.9,0,33.1,2,48.6,6.1c9.4,2.7,22.3,7.4,37.8,14.2c15.5,6.7,27.7,10.8,35.8,13.5 c14.2,4,28.3,6.1,43.2,5.4c21.6,0,41.8-6.1,60.7-18.2c16.2-10.8,32.4-25.6,49.3-45.9c10.8-12.8,25-32.4,43.2-58.7 c19.6-29.7,37.1-61.4,52-96.5c5.4-12.8,11.5-28.3,16.9-45.9c-10.8-4-22.3-10.1-35.1-18.9c-26.3-17.5-47.9-39.1-64.1-64.1 c-22.9-34.4-34.4-74.2-35.1-119.5c0-37.1,8.8-72.9,27-105.3c12.8-22.9,30.4-43.9,51.3-62.8c9.4-8.8,19.6-16.2,30.4-22.9 c-25.6-37.8-60.1-64.8-102.6-81.7c-24.3-9.4-51.3-15.5-81-17.5c-15.5-1.3-31.7-0.7-47.9,2c-13.5,2-28.3,6.1-43.9,10.8 c-10.1,4-22.9,8.8-39.1,14.8c-16.2,6.7-27.7,10.8-33.7,12.8c-10.8,3.4-20.2,5.4-27,5.4c-8.8,0-20.2-2-33.7-6.7 c-4-1.3-16.9-6.7-39.8-15.5c-17.5-6.7-32.4-12.1-44.5-15.5c-16.9-4-32.4-6.1-47.2-6.1c-42.5,0.7-81.7,12.1-118.8,35.1 c-37.1,22.3-66.1,52.6-87.7,91.1C14.2,418.4,0,475.8,0,541.3C0,600,10.1,660,31,722.8c18.9,57.4,43.9,108,74.2,151.8 c17.5,26.3,32.4,46.6,44.5,60.7c17.5,21.6,35.1,37.1,52,47.9C222,996.1,242.3,1002.2,263.9,1002.2z" /><path
   id="SVGID_39_"
   d="M263.9,1002.2c13.5-0.7,27.7-3.4,41.2-7.4c6.7-2,18.2-6.7,35.8-14.2c14.8-6.1,27-10.8,37.8-13.5 c15.5-4,31.7-6.1,48.6-6.1c16.9,0,33.1,2,48.6,6.1c9.4,2.7,22.3,7.4,37.8,14.2c15.5,6.7,27.7,10.8,35.8,13.5 c14.2,4,28.3,6.1,43.2,5.4c21.6,0,41.8-6.1,60.7-18.2c16.2-10.8,32.4-25.6,49.3-45.9c10.8-12.8,25-32.4,43.2-58.7 c19.6-29.7,37.1-61.4,52-96.5c5.4-12.8,11.5-28.3,16.9-45.9c-10.8-4-22.3-10.1-35.1-18.9c-26.3-17.5-47.9-39.1-64.1-64.1 c-22.9-34.4-34.4-74.2-35.1-119.5c0-37.1,8.8-72.9,27-105.3c12.8-22.9,30.4-43.9,51.3-62.8c9.4-8.8,19.6-16.2,30.4-22.9 c-25.6-37.8-60.1-64.8-102.6-81.7c-24.3-9.4-51.3-15.5-81-17.5c-15.5-1.3-31.7-0.7-47.9,2c-13.5,2-28.3,6.1-43.9,10.8 c-10.1,4-22.9,8.8-39.1,14.8c-16.2,6.7-27.7,10.8-33.7,12.8c-10.8,3.4-20.2,5.4-27,5.4c-8.8,0-20.2-2-33.7-6.7 c-4-1.3-16.9-6.7-39.8-15.5c-17.5-6.7-32.4-12.1-44.5-15.5c-16.9-4-32.4-6.1-47.2-6.1c-42.5,0.7-81.7,12.1-118.8,35.1 c-37.1,22.3-66.1,52.6-87.7,91.1C14.2,418.4,0,475.8,0,541.3C0,600,10.1,660,31,722.8c18.9,57.4,43.9,108,74.2,151.8 c17.5,26.3,32.4,46.6,44.5,60.7c17.5,21.6,35.1,37.1,52,47.9C222,996.1,242.3,1002.2,263.9,1002.2z" /><path
   id="SVGID_41_"
   d="M263.9,1002.2c13.5-0.7,27.7-3.4,41.2-7.4c6.7-2,18.2-6.7,35.8-14.2c14.8-6.1,27-10.8,37.8-13.5 c15.5-4,31.7-6.1,48.6-6.1c16.9,0,33.1,2,48.6,6.1c9.4,2.7,22.3,7.4,37.8,14.2c15.5,6.7,27.7,10.8,35.8,13.5 c14.2,4,28.3,6.1,43.2,5.4c21.6,0,41.8-6.1,60.7-18.2c16.2-10.8,32.4-25.6,49.3-45.9c10.8-12.8,25-32.4,43.2-58.7 c19.6-29.7,37.1-61.4,52-96.5c5.4-12.8,11.5-28.3,16.9-45.9c-10.8-4-22.3-10.1-35.1-18.9c-26.3-17.5-47.9-39.1-64.1-64.1 c-22.9-34.4-34.4-74.2-35.1-119.5c0-37.1,8.8-72.9,27-105.3c12.8-22.9,30.4-43.9,51.3-62.8c9.4-8.8,19.6-16.2,30.4-22.9 c-25.6-37.8-60.1-64.8-102.6-81.7c-24.3-9.4-51.3-15.5-81-17.5c-15.5-1.3-31.7-0.7-47.9,2c-13.5,2-28.3,6.1-43.9,10.8 c-10.1,4-22.9,8.8-39.1,14.8c-16.2,6.7-27.7,10.8-33.7,12.8c-10.8,3.4-20.2,5.4-27,5.4c-8.8,0-20.2-2-33.7-6.7 c-4-1.3-16.9-6.7-39.8-15.5c-17.5-6.7-32.4-12.1-44.5-15.5c-16.9-4-32.4-6.1-47.2-6.1c-42.5,0.7-81.7,12.1-118.8,35.1 c-37.1,22.3-66.1,52.6-87.7,91.1C14.2,418.4,0,475.8,0,541.3C0,600,10.1,660,31,722.8c18.9,57.4,43.9,108,74.2,151.8 c17.5,26.3,32.4,46.6,44.5,60.7c17.5,21.6,35.1,37.1,52,47.9C222,996.1,242.3,1002.2,263.9,1002.2z" /><path
   id="SVGID_43_"
   d="M263.9,1002.2c13.5-0.7,27.7-3.4,41.2-7.4c6.7-2,18.2-6.7,35.8-14.2c14.8-6.1,27-10.8,37.8-13.5 c15.5-4,31.7-6.1,48.6-6.1c16.9,0,33.1,2,48.6,6.1c9.4,2.7,22.3,7.4,37.8,14.2c15.5,6.7,27.7,10.8,35.8,13.5 c14.2,4,28.3,6.1,43.2,5.4c21.6,0,41.8-6.1,60.7-18.2c16.2-10.8,32.4-25.6,49.3-45.9c10.8-12.8,25-32.4,43.2-58.7 c19.6-29.7,37.1-61.4,52-96.5c5.4-12.8,11.5-28.3,16.9-45.9c-10.8-4-22.3-10.1-35.1-18.9c-26.3-17.5-47.9-39.1-64.1-64.1 c-22.9-34.4-34.4-74.2-35.1-119.5c0-37.1,8.8-72.9,27-105.3c12.8-22.9,30.4-43.9,51.3-62.8c9.4-8.8,19.6-16.2,30.4-22.9 c-25.6-37.8-60.1-64.8-102.6-81.7c-24.3-9.4-51.3-15.5-81-17.5c-15.5-1.3-31.7-0.7-47.9,2c-13.5,2-28.3,6.1-43.9,10.8 c-10.1,4-22.9,8.8-39.1,14.8c-16.2,6.7-27.7,10.8-33.7,12.8c-10.8,3.4-20.2,5.4-27,5.4c-8.8,0-20.2-2-33.7-6.7 c-4-1.3-16.9-6.7-39.8-15.5c-17.5-6.7-32.4-12.1-44.5-15.5c-16.9-4-32.4-6.1-47.2-6.1c-42.5,0.7-81.7,12.1-118.8,35.1 c-37.1,22.3-66.1,52.6-87.7,91.1C14.2,418.4,0,475.8,0,541.3C0,600,10.1,660,31,722.8c18.9,57.4,43.9,108,74.2,151.8 c17.5,26.3,32.4,46.6,44.5,60.7c17.5,21.6,35.1,37.1,52,47.9C222,996.1,242.3,1002.2,263.9,1002.2z" /><path
   id="SVGID_45_"
   d="M263.9,1002.2c13.5-0.7,27.7-3.4,41.2-7.4c6.7-2,18.2-6.7,35.8-14.2c14.8-6.1,27-10.8,37.8-13.5 c15.5-4,31.7-6.1,48.6-6.1c16.9,0,33.1,2,48.6,6.1c9.4,2.7,22.3,7.4,37.8,14.2c15.5,6.7,27.7,10.8,35.8,13.5 c14.2,4,28.3,6.1,43.2,5.4c21.6,0,41.8-6.1,60.7-18.2c16.2-10.8,32.4-25.6,49.3-45.9c10.8-12.8,25-32.4,43.2-58.7 c19.6-29.7,37.1-61.4,52-96.5c5.4-12.8,11.5-28.3,16.9-45.9c-10.8-4-22.3-10.1-35.1-18.9c-26.3-17.5-47.9-39.1-64.1-64.1 c-22.9-34.4-34.4-74.2-35.1-119.5c0-37.1,8.8-72.9,27-105.3c12.8-22.9,30.4-43.9,51.3-62.8c9.4-8.8,19.6-16.2,30.4-22.9 c-25.6-37.8-60.1-64.8-102.6-81.7c-24.3-9.4-51.3-15.5-81-17.5c-15.5-1.3-31.7-0.7-47.9,2c-13.5,2-28.3,6.1-43.9,10.8 c-10.1,4-22.9,8.8-39.1,14.8c-16.2,6.7-27.7,10.8-33.7,12.8c-10.8,3.4-20.2,5.4-27,5.4c-8.8,0-20.2-2-33.7-6.7 c-4-1.3-16.9-6.7-39.8-15.5c-17.5-6.7-32.4-12.1-44.5-15.5c-16.9-4-32.4-6.1-47.2-6.1c-42.5,0.7-81.7,12.1-118.8,35.1 c-37.1,22.3-66.1,52.6-87.7,91.1C14.2,418.4,0,475.8,0,541.3C0,600,10.1,660,31,722.8c18.9,57.4,43.9,108,74.2,151.8 c17.5,26.3,32.4,46.6,44.5,60.7c17.5,21.6,35.1,37.1,52,47.9C222,996.1,242.3,1002.2,263.9,1002.2z" /><path
   id="SVGID_47_"
   d="M263.9,1002.2c13.5-0.7,27.7-3.4,41.2-7.4c6.7-2,18.2-6.7,35.8-14.2c14.8-6.1,27-10.8,37.8-13.5 c15.5-4,31.7-6.1,48.6-6.1c16.9,0,33.1,2,48.6,6.1c9.4,2.7,22.3,7.4,37.8,14.2c15.5,6.7,27.7,10.8,35.8,13.5 c14.2,4,28.3,6.1,43.2,5.4c21.6,0,41.8-6.1,60.7-18.2c16.2-10.8,32.4-25.6,49.3-45.9c10.8-12.8,25-32.4,43.2-58.7 c19.6-29.7,37.1-61.4,52-96.5c5.4-12.8,11.5-28.3,16.9-45.9c-10.8-4-22.3-10.1-35.1-18.9c-26.3-17.5-47.9-39.1-64.1-64.1 c-22.9-34.4-34.4-74.2-35.1-119.5c0-37.1,8.8-72.9,27-105.3c12.8-22.9,30.4-43.9,51.3-62.8c9.4-8.8,19.6-16.2,30.4-22.9 c-25.6-37.8-60.1-64.8-102.6-81.7c-24.3-9.4-51.3-15.5-81-17.5c-15.5-1.3-31.7-0.7-47.9,2c-13.5,2-28.3,6.1-43.9,10.8 c-10.1,4-22.9,8.8-39.1,14.8c-16.2,6.7-27.7,10.8-33.7,12.8c-10.8,3.4-20.2,5.4-27,5.4c-8.8,0-20.2-2-33.7-6.7 c-4-1.3-16.9-6.7-39.8-15.5c-17.5-6.7-32.4-12.1-44.5-15.5c-16.9-4-32.4-6.1-47.2-6.1c-42.5,0.7-81.7,12.1-118.8,35.1 c-37.1,22.3-66.1,52.6-87.7,91.1C14.2,418.4,0,475.8,0,541.3C0,600,10.1,660,31,722.8c18.9,57.4,43.9,108,74.2,151.8 c17.5,26.3,32.4,46.6,44.5,60.7c17.5,21.6,35.1,37.1,52,47.9C222,996.1,242.3,1002.2,263.9,1002.2z" />
	
		<linearGradient
   id="SVGID_15_"
   gradientUnits="userSpaceOnUse"
   x1="-82"
   y1="224.5"
   x2="-82"
   y2="151.5"
   gradientTransform="matrix(1,0,0,-1,654,325)">
		<stop
   offset="0"
   style="stop-color:#7ED3F7"
   id="stop160" />
		<stop
   offset="1"
   style="stop-color:#003D7E"
   id="stop162" />
	</linearGradient>
	
	

	
		<linearGradient
   id="SVGID_14_"
   gradientUnits="userSpaceOnUse"
   x1="-24"
   y1="311.5"
   x2="-24"
   y2="238"
   gradientTransform="matrix(1,0,0,-1,654,325)">
		<stop
   offset="0"
   style="stop-color:#7ED3F7"
   id="stop149" />
		<stop
   offset="1"
   style="stop-color:#003D7E"
   id="stop151" />
	</linearGradient>
	
	

	
		<linearGradient
   id="SVGID_13_"
   gradientUnits="userSpaceOnUse"
   x1="-208.3335"
   y1="311.5"
   x2="-208.3335"
   y2="238"
   gradientTransform="matrix(1,0,0,-1,654,325)">
		<stop
   offset="0"
   style="stop-color:#7ED3F7"
   id="stop138" />
		<stop
   offset="1"
   style="stop-color:#003D7E"
   id="stop140" />
	</linearGradient>
	
	

	
		<linearGradient
   id="SVGID_12_"
   gradientUnits="userSpaceOnUse"
   x1="-369.74951"
   y1="311.5"
   x2="-369.74951"
   y2="238"
   gradientTransform="matrix(1,0,0,-1,654,325)">
		<stop
   offset="0"
   style="stop-color:#7ED3F7"
   id="stop127" />
		<stop
   offset="1"
   style="stop-color:#003D7E"
   id="stop129" />
	</linearGradient>
	
	

	
		<linearGradient
   id="SVGID_11_"
   gradientUnits="userSpaceOnUse"
   x1="-403"
   y1="311.5"
   x2="-403"
   y2="238"
   gradientTransform="matrix(1,0,0,-1,654,325)">
		<stop
   offset="0"
   style="stop-color:#7ED3F7"
   id="stop116" />
		<stop
   offset="1"
   style="stop-color:#003D7E"
   id="stop118" />
	</linearGradient>
	
	

	
	

		
			<linearGradient
   id="SVGID_10_"
   gradientUnits="userSpaceOnUse"
   x1="-498.50049"
   y1="311.84671"
   x2="-498.50049"
   y2="236.83659"
   gradientTransform="matrix(1,0,0,-1,654,325)">
			<stop
   offset="0"
   style="stop-color:#7ED3F7"
   id="stop101" />
			<stop
   offset="1"
   style="stop-color:#003D7E"
   id="stop103" />
		</linearGradient>
		
	
		
	
	
		<linearGradient
   id="SVGID_9_"
   gradientUnits="userSpaceOnUse"
   x1="-303.91699"
   y1="311.5"
   x2="-303.91699"
   y2="238"
   gradientTransform="matrix(1,0,0,-1,654,325)">
		<stop
   offset="0"
   style="stop-color:#7ED3F7"
   id="stop90" />
		<stop
   offset="1"
   style="stop-color:#003D7E"
   id="stop92" />
	</linearGradient>
	
	

	
		<linearGradient
   id="SVGID_8_"
   gradientUnits="userSpaceOnUse"
   x1="-274.91699"
   y1="224.5"
   x2="-274.91699"
   y2="151.5"
   gradientTransform="matrix(1,0,0,-1,654,325)">
		<stop
   offset="0"
   style="stop-color:#7ED3F7"
   id="stop79" />
		<stop
   offset="1"
   style="stop-color:#003D7E"
   id="stop81" />
	</linearGradient>
	
	

	
		<linearGradient
   id="SVGID_7_"
   gradientUnits="userSpaceOnUse"
   x1="-593.4165"
   y1="311.5"
   x2="-593.4165"
   y2="238"
   gradientTransform="matrix(1,0,0,-1,654,325)">
		<stop
   offset="0"
   style="stop-color:#7ED3F7"
   id="stop68" />
		<stop
   offset="1"
   style="stop-color:#003D7E"
   id="stop70" />
	</linearGradient>
	
	

	
		<linearGradient
   id="SVGID_6_"
   gradientUnits="userSpaceOnUse"
   x1="-308.75"
   y1="224.5"
   x2="-308.75"
   y2="151.5"
   gradientTransform="matrix(1,0,0,-1,654,325)">
		<stop
   offset="0"
   style="stop-color:#7ED3F7"
   id="stop57" />
		<stop
   offset="1"
   style="stop-color:#003D7E"
   id="stop59" />
	</linearGradient>
	
	
</defs><g
     inkscape:label="Layer 1"
     inkscape:groupmode="layer"
     id="layer1"><path
       id="rect231"
       style="fill:#ffffff;stroke-width:0.8001;stroke-linecap:square;paint-order:fill markers stroke"
       d="M 0 0 L 0 95.224679 A 1.3569936 1.3569936 0 0 1 0.91984049 94.25988 C 3.5584374 94.184492 6.1969172 94.25988 8.9410563 94.25988 L 9.0464762 110.30231 L 0 110.30231 L 0 132.29167 L 396.875 132.29167 L 396.875 0 L 0 0 z M 286.86156 13.484448 A 15.077707 15.077707 0 0 1 301.14699 23.907068 C 307.44945 42.62351 313.76227 61.330303 320.08486 80.02664 C 320.31102 80.705134 320.50662 81.383373 320.74786 82.197567 L 282.85767 82.197567 L 282.85767 72.909762 L 307.73625 72.909762 C 306.69589 69.894224 305.76083 67.014667 304.79587 64.180062 L 291.81371 25.867155 A 5.1264203 5.1264203 0 0 0 285.02911 22.263757 A 5.6692178 5.6692178 0 0 0 281.62157 26.214421 L 268.86576 64.029167 C 266.81519 70.060242 264.74945 76.091253 262.66872 82.258028 L 224.86896 82.258028 C 213.56071 82.258028 205.49395 74.900161 205.14717 63.60697 C 204.83052 53.052585 204.90597 42.618635 205.22262 32.13964 A 18.259103 18.259103 0 0 1 222.92386 14.679724 C 233.29732 14.453559 243.671 14.679724 254.04444 14.679724 A 4.7645552 4.7645552 0 0 1 254.82837 14.80013 L 254.82837 24.103438 L 224.86896 24.103438 C 218.55142 24.103438 214.60085 28.053476 214.60085 34.371029 L 214.60085 63.018892 A 9.4838775 9.4838775 0 0 0 224.49172 72.924748 L 243.67091 72.924748 C 244.19862 72.804127 244.72634 72.744152 245.37469 72.698922 L 245.37469 47.32321 L 228.44239 47.32321 L 228.44239 37.929468 L 254.88883 37.929468 L 254.88883 74.115889 L 255.341 74.206323 C 255.97426 72.397001 256.63741 70.587645 257.25562 68.763245 C 262.34181 53.776018 267.42298 38.788873 272.49913 23.801648 A 15.077707 15.077707 0 0 1 286.86156 13.484448 z M 169.98601 14.604277 L 201.54377 14.604277 L 201.54377 24.042977 L 170.60406 24.042977 C 164.25635 24.042977 160.32148 27.963042 160.32148 34.280595 L 160.32148 62.853011 A 9.4235666 9.4235666 0 0 0 170.31777 72.804342 L 201.37789 72.804342 L 201.37789 82.243042 L 169.98601 82.243042 A 18.711434 18.711434 0 0 1 150.94272 63.260221 L 150.94272 33.602083 A 18.711434 18.711434 0 0 1 169.98601 14.604277 z M 130.69538 14.664738 C 135.66914 14.672277 140.64493 14.709696 145.62057 14.709696 A 7.5388533 7.5388533 0 0 1 146.44998 14.80013 L 146.44998 24.133411 C 145.7564 24.133411 145.04755 24.253817 144.35398 24.253817 L 116.68642 24.253817 A 12.635118 12.635118 0 0 0 113.58015 49.147388 A 52.771973 52.771973 0 0 0 122.20494 49.630046 A 27.531893 27.531893 0 0 1 127.22583 50.036739 A 10.554395 10.554395 0 0 1 124.58723 70.723332 C 118.13397 70.843952 111.68042 70.723332 105.22717 70.723332 L 94.597327 70.663387 L 94.597327 61.224687 L 122.64213 61.224687 A 3.4678725 3.4678725 0 0 0 124.0746 61.224687 A 6.3326369 6.3326369 0 0 0 125.35617 60.033545 C 124.91892 59.716913 124.49644 59.143767 124.04411 59.128691 C 121.57137 59.038224 119.0987 59.128691 116.62596 59.128691 A 22.164229 22.164229 0 0 1 107.42858 16.790706 A 22.752259 22.752259 0 0 1 115.78156 14.80013 C 120.74966 14.679508 125.72163 14.657199 130.69538 14.664738 z M 286.74787 24.057963 A 3.1512406 3.1512406 0 0 1 289.92907 26.742037 C 289.92907 26.907891 290.06512 27.073824 290.12544 27.239681 L 298.85514 53.263416 C 300.60416 58.460192 302.34842 63.651966 304.08738 68.838692 C 304.31355 69.38149 304.46395 69.954768 304.65996 70.572953 L 282.75225 70.572953 L 282.75225 63.848299 L 282.37553 63.757865 C 281.9835 64.858536 281.5763 65.943816 281.19937 67.044486 C 279.69159 71.65826 278.04798 76.272153 276.54023 80.901005 A 1.6283923 1.6283923 0 0 1 274.65559 82.273014 C 271.47421 82.197624 268.29292 82.273014 264.9306 82.273014 C 266.90576 76.437947 268.80559 70.798813 270.72043 65.174833 C 275.05276 52.338692 279.38966 39.507665 283.73204 26.681576 A 3.2115516 3.2115516 0 0 1 286.74787 24.057963 z M 131.11758 26.242326 C 136.09133 26.263058 141.06713 26.304854 146.04277 26.304854 A 1.9148687 1.9148687 0 0 1 146.49493 26.470736 L 146.49493 35.743038 L 118.11889 35.743038 A 4.7494777 4.7494777 0 0 0 116.50555 35.818486 A 1.749014 1.749014 0 0 0 115.58571 36.919194 C 115.58571 37.160438 116.0983 37.763736 116.44509 37.824048 A 16.118068 16.118068 0 0 0 119.14415 37.974943 C 123.35083 37.974943 127.55741 37.703217 131.67362 39.135596 A 22.209463 22.209463 0 0 1 146.4045 62.657157 C 144.80627 73.814652 136.24233 81.986632 125.43162 82.258028 C 115.19387 82.438961 104.94062 82.258028 94.597327 82.258028 L 94.597327 72.698922 L 96.813729 72.698922 L 124.49679 72.698922 A 12.604963 12.604963 0 0 0 126.86357 47.714917 A 69.704238 69.704238 0 0 0 117.1236 47.458602 A 10.418695 10.418695 0 0 1 108.22802 43.116231 A 10.207607 10.207607 0 0 1 107.15728 32.335494 A 9.6949653 9.6949653 0 0 1 116.20376 26.304854 C 121.17186 26.221927 126.14382 26.221594 131.11758 26.242326 z M 224.55219 26.274365 L 254.70745 26.274365 L 254.70745 35.758541 L 229.49762 35.758541 C 226.70825 35.758541 226.1956 36.256064 226.18051 39.000203 L 226.18051 57.983024 C 226.18051 60.455767 226.94952 61.224502 229.40719 61.254659 C 230.79433 61.239578 232.16675 61.224687 233.78005 61.224687 L 233.78005 59.038257 L 228.45737 59.038257 L 228.45737 49.47915 L 243.23373 49.47915 L 243.23373 70.587939 C 242.70603 70.587939 242.23845 70.693359 241.72581 70.693359 L 224.5372 70.693359 C 219.71234 70.693359 216.72693 67.677931 216.71184 62.928459 L 216.71184 33.979321 C 216.71184 29.169537 219.72733 26.274365 224.55219 26.274365 z M 169.18709 26.304854 L 201.00065 26.304854 A 2.3370444 2.3370444 0 0 1 201.54377 26.455233 L 201.54377 35.728052 L 199.35734 35.728052 L 174.78055 35.728052 C 173.3934 35.728052 172.27771 35.96949 171.96108 37.824048 L 173.99661 37.824048 L 193.1603 37.824048 C 194.53237 37.824048 194.9398 38.230863 194.89456 39.572778 C 194.8041 42.075676 194.89456 44.593757 194.89456 47.217273 L 162.52238 47.217273 L 162.52238 37.296431 L 162.52238 33.134928 A 7.041289 7.041289 0 0 1 169.18709 26.304854 z M 162.52238 49.614543 L 194.7137 49.614543 L 194.7137 58.947823 L 172.09699 58.947823 L 171.76523 59.445467 A 7.7499413 7.7499413 0 0 0 173.48398 60.953385 A 4.9304101 4.9304101 0 0 0 175.60995 61.194198 L 201.34792 61.194198 L 201.34792 70.572953 L 170.58907 70.572953 C 165.28172 70.572953 162.46243 67.738253 162.46243 62.415828 L 162.52238 49.614543 z M 286.83831 50.413977 L 283.59664 60.123979 L 290.06498 60.123979 C 289.00956 56.972741 288.01438 53.972312 286.83831 50.413977 z M 347.87282 86.97712 L 358.24635 86.97712 C 356.84411 88.997532 355.75828 90.611213 354.62745 92.194373 A 1.3117605 1.3117605 0 0 1 353.72311 92.646541 L 344.01311 92.646541 L 343.84723 92.088436 C 344.82727 90.580667 345.79205 89.072967 346.86255 87.565198 A 1.5077707 1.5077707 0 0 1 347.87282 86.97712 z M 1.1156942 87.052568 A 2.517977 2.517977 0 0 1 2.1864299 87.052568 L 43.936336 87.052568 A 30.547434 30.547434 0 0 1 48.791337 87.354358 A 4.9304101 4.9304101 0 0 1 53.073763 92.329765 L 0.12040609 92.344751 L 0.12040609 87.987394 C 0.12040609 87.64061 0.70859609 87.248579 1.1156942 87.052568 z M 314.53584 87.052568 L 323.4769 87.052568 A 1.8696356 1.8696356 0 0 1 324.83392 87.686121 C 325.90442 89.19389 326.86966 90.701642 328.03062 92.541121 L 318.6374 92.541121 A 1.2966828 1.2966828 0 0 1 317.76252 92.028491 C 316.7372 90.520725 315.75713 88.952359 314.53584 87.052568 z M 166.14128 87.113029 C 169.92578 87.113029 173.68036 87.113239 177.5101 87.248938 A 6.7246571 6.7246571 0 0 1 183.75209 92.631555 L 145.59008 92.631555 A 5.608907 5.608907 0 0 1 151.33495 87.263924 C 156.26535 87.113146 161.1958 87.128108 166.14128 87.113029 z M 108.43886 87.128015 C 117.90765 87.128015 127.36162 87.203705 136.83041 87.248938 A 12.062165 12.062165 0 0 1 138.14196 87.38433 L 138.14196 92.616569 L 99.618209 92.616569 A 5.4430522 5.4430522 0 0 1 104.30733 87.399316 A 23.687076 23.687076 0 0 1 108.43886 87.128015 z M 207.77078 87.128015 L 238.18236 87.128015 A 29.657849 29.657849 0 0 1 242.50975 87.399316 A 6.2120152 6.2120152 0 0 1 247.54561 92.631555 L 207.77078 92.631555 L 207.77078 87.128015 z M 266.92066 87.128015 L 286.97421 87.128015 A 6.9659004 6.9659004 0 0 1 294.15104 92.58608 L 255.35599 92.58608 A 6.5286468 6.5286468 0 0 1 261.13083 87.308883 C 263.04569 87.112872 264.99071 87.143094 266.92066 87.128015 z M 63.688102 87.17349 L 91.506559 87.17349 L 93.798409 87.17349 L 93.798409 92.37524 L 59.164864 92.450688 C 58.652221 87.128263 58.652153 87.158414 63.688102 87.17349 z M 300.77027 87.17349 L 310.41981 87.17349 L 310.41981 92.465674 L 300.77027 92.465674 L 300.77027 87.17349 z M 361.98566 87.188477 L 396.49828 87.188477 L 396.49828 92.209359 L 361.98566 92.209359 L 361.98566 87.188477 z M 345.88276 94.043355 C 347.06636 94.086704 348.30249 94.237445 349.41071 94.229907 L 353.16501 94.229907 C 352.74284 94.99887 352.53208 95.451044 352.26067 95.873218 C 349.09438 100.48699 345.97281 105.1308 342.71603 109.68426 A 3.3623287 3.3623287 0 0 1 340.4092 110.90589 C 337.28809 111.04159 334.15213 111.01144 331.01597 110.90589 A 2.6687542 2.6687542 0 0 1 329.0409 110.09147 C 325.7389 104.99521 322.55762 99.823551 319.05959 94.25988 A 33.547896 33.547896 0 0 0 324.32129 94.25988 C 328.24148 93.596461 330.77482 95.088966 332.44844 98.632222 A 44.17768 44.17768 0 0 0 335.841 103.6531 C 336.94166 102.14534 337.78573 101.04472 338.61499 99.898812 C 339.94185 98.029181 340.87686 95.375714 342.67107 94.501208 C 343.56821 94.063955 344.69916 94.000007 345.88276 94.043355 z M 361.88024 94.214404 L 370.74585 94.214404 C 371.04739 94.214404 371.52975 94.395357 371.62021 94.636601 C 372.37411 96.310226 373.85148 96.265442 375.31404 96.265442 L 392.3068 96.355876 L 394.38781 96.355876 L 394.38781 101.39174 L 374.68101 101.39174 A 3.8146598 3.8146598 0 0 0 372.90179 101.51215 C 372.29867 101.87402 371.55994 102.56743 371.52978 103.15546 C 371.49961 103.74349 372.26837 104.39198 372.84132 104.66338 A 4.1011363 4.1011363 0 0 0 374.78643 104.91969 C 381.48093 104.91969 388.16049 105.01016 394.85497 104.91969 C 396.36272 104.91969 396.98115 105.25163 396.86053 106.92526 C 396.60423 110.61929 396.67932 110.6345 392.98531 110.64958 L 370.20273 110.64958 A 7.8554852 7.8554852 0 0 1 361.88024 102.417 C 361.86516 99.868874 361.88024 97.16963 361.88024 94.214404 z M 21.757328 94.229907 L 31.135567 94.229907 L 31.135567 110.30231 L 21.757328 110.30231 L 21.757328 94.229907 z M 58.954024 94.25988 L 67.653752 94.25988 A 1.2363719 1.2363719 0 0 1 68.528117 94.923405 C 68.980451 96.536719 70.171884 96.823031 71.543953 96.823031 L 90.722628 96.823031 C 91.069417 96.823031 91.431102 96.822995 91.943742 96.913464 L 91.943742 101.708 L 68.85988 101.73849 C 68.46786 104.36201 69.085865 105.14585 71.528451 105.17601 C 78.162635 105.28155 84.797019 105.34195 91.416125 105.41734 L 93.692989 105.41734 L 93.692989 110.70952 C 93.210503 110.70952 92.682632 110.79996 92.185071 110.79996 C 83.741564 110.79996 75.298249 110.69466 66.86982 110.58912 C 61.366463 110.58912 58.938946 108.02602 58.954024 102.5679 L 58.954024 94.25988 z M 300.60439 94.274866 L 310.44978 94.274866 L 310.44978 110.78497 L 300.60439 110.78497 L 300.60439 94.274866 z M 255.56735 94.335327 C 258.58288 94.259937 261.59828 94.335327 264.61382 94.335327 L 264.61382 110.755 L 254.54209 110.755 L 254.54209 95.209692 A 1.387149 1.387149 0 0 1 255.56735 94.335327 z M 44.041756 94.395789 L 53.088749 94.395789 L 53.088749 110.43822 L 44.041756 110.43822 L 44.041756 94.395789 z M 238.71049 94.395789 L 247.93784 94.395789 A 113.15819 113.15819 0 0 1 247.8474 105.73411 A 5.8953833 5.8953833 0 0 1 242.05758 111.04128 C 234.36796 111.17698 226.66322 111.04128 218.82282 111.04128 L 218.82282 105.37186 L 222.65256 105.37186 L 235.28745 105.37186 C 237.86574 105.37186 238.66527 104.57282 238.71049 102.03977 C 238.75572 99.506714 238.71049 97.019307 238.71049 94.395789 z M 174.40382 94.425761 L 184.40011 94.425761 L 184.40011 110.83044 L 174.50924 110.83044 L 174.28342 106.09585 L 156.808 106.09585 L 156.808 99.295748 L 174.40382 99.295748 L 174.40382 94.425761 z M 284.44104 94.455733 L 294.73912 94.455733 C 295.26683 98.421167 294.37701 101.63302 290.77347 103.93991 L 297.49812 110.43822 L 297.19685 110.98082 C 296.63897 110.98082 296.06593 111.07126 295.50806 111.07126 A 29.009506 29.009506 0 0 0 291.88916 111.07126 C 287.36585 111.65928 283.67196 110.49837 280.97303 106.54802 A 2.7441427 2.7441427 0 0 0 278.95248 105.77907 L 266.89069 105.77907 L 266.90567 99.265776 L 280.05319 99.265776 C 283.58138 99.265776 284.109 98.753191 284.32011 95.255168 A 6.9206673 6.9206673 0 0 1 284.44104 94.455733 z M 145.28881 94.470719 L 154.90837 94.470719 L 154.90837 110.76998 L 146.4045 110.76998 C 146.01248 110.76998 145.30388 110.27244 145.28881 110.00104 L 145.28881 94.470719 z M 207.78577 94.501208 L 216.83224 94.501208 L 216.83224 110.81494 L 207.78577 110.81494 L 207.78577 94.501208 z M 99.030131 94.516195 L 108.6497 94.516195 L 108.6497 101.57261 C 108.6497 104.81431 109.20804 105.38737 112.40451 105.38737 L 126.68271 105.38737 A 4.1312917 4.1312917 0 0 0 128.7787 105.04062 C 129.38181 104.6486 130.09071 103.78887 130.01532 103.21592 A 2.2315006 2.2315006 0 0 0 128.31103 101.87389 C 125.12964 101.73819 121.93341 101.87434 118.73694 101.79895 L 116.61097 101.79895 L 116.61097 96.883492 C 117.21408 96.883492 117.84736 96.808044 118.48062 96.808044 L 132.75934 96.808044 C 137.47866 96.808044 139.98133 99.054687 140.11703 103.35183 A 6.845279 6.845279 0 0 1 133.16655 110.89039 C 130.15101 111.05624 127.25608 110.96584 124.31593 110.96584 L 107.50403 110.96584 A 17.852005 17.852005 0 0 1 103.40299 110.46819 A 5.247042 5.247042 0 0 1 99.06062 105.34189 C 98.939999 101.78356 99.030131 98.240384 99.030131 94.516195 z " /><g
       id="g7723"
       transform="matrix(0.26458333,0,0,0.26458333,121.98929,204.87058)" /></g></svg>
