<?xml version="1.0" encoding="UTF-8" standalone="no"?>
<!-- Created with Inkscape (http://www.inkscape.org/) -->

<svg
   width="1500"
   height="500"
   viewBox="0 0 396.87498 132.29167"
   version="1.1"
   id="svg5"
   inkscape:version="1.2.2 (732a01da63, 2022-12-09)"
   xml:space="preserve"
   sodipodi:docname="model3.svg"
   xmlns:inkscape="http://www.inkscape.org/namespaces/inkscape"
   xmlns:sodipodi="http://sodipodi.sourceforge.net/DTD/sodipodi-0.dtd"
   xmlns="http://www.w3.org/2000/svg"
   xmlns:svg="http://www.w3.org/2000/svg"><sodipodi:namedview
     id="namedview7"
     pagecolor="#000000"
     bordercolor="#111111"
     borderopacity="1"
     inkscape:showpageshadow="0"
     inkscape:pageopacity="0"
     inkscape:pagecheckerboard="1"
     inkscape:deskcolor="#d1d1d1"
     inkscape:document-units="mm"
     showgrid="false"
     inkscape:zoom="0.44378316"
     inkscape:cx="694.03264"
     inkscape:cy="369.54985"
     inkscape:window-width="1920"
     inkscape:window-height="1009"
     inkscape:window-x="-8"
     inkscape:window-y="-8"
     inkscape:window-maximized="1"
     inkscape:current-layer="layer1" /><defs
     id="defs2"><path
   id="SVGID_37_"
   d="M263.9,1002.2c13.5-0.7,27.7-3.4,41.2-7.4c6.7-2,18.2-6.7,35.8-14.2c14.8-6.1,27-10.8,37.8-13.5 c15.5-4,31.7-6.1,48.6-6.1c16.9,0,33.1,2,48.6,6.1c9.4,2.7,22.3,7.4,37.8,14.2c15.5,6.7,27.7,10.8,35.8,13.5 c14.2,4,28.3,6.1,43.2,5.4c21.6,0,41.8-6.1,60.7-18.2c16.2-10.8,32.4-25.6,49.3-45.9c10.8-12.8,25-32.4,43.2-58.7 c19.6-29.7,37.1-61.4,52-96.5c5.4-12.8,11.5-28.3,16.9-45.9c-10.8-4-22.3-10.1-35.1-18.9c-26.3-17.5-47.9-39.1-64.1-64.1 c-22.9-34.4-34.4-74.2-35.1-119.5c0-37.1,8.8-72.9,27-105.3c12.8-22.9,30.4-43.9,51.3-62.8c9.4-8.8,19.6-16.2,30.4-22.9 c-25.6-37.8-60.1-64.8-102.6-81.7c-24.3-9.4-51.3-15.5-81-17.5c-15.5-1.3-31.7-0.7-47.9,2c-13.5,2-28.3,6.1-43.9,10.8 c-10.1,4-22.9,8.8-39.1,14.8c-16.2,6.7-27.7,10.8-33.7,12.8c-10.8,3.4-20.2,5.4-27,5.4c-8.8,0-20.2-2-33.7-6.7 c-4-1.3-16.9-6.7-39.8-15.5c-17.5-6.7-32.4-12.1-44.5-15.5c-16.9-4-32.4-6.1-47.2-6.1c-42.5,0.7-81.7,12.1-118.8,35.1 c-37.1,22.3-66.1,52.6-87.7,91.1C14.2,418.4,0,475.8,0,541.3C0,600,10.1,660,31,722.8c18.9,57.4,43.9,108,74.2,151.8 c17.5,26.3,32.4,46.6,44.5,60.7c17.5,21.6,35.1,37.1,52,47.9C222,996.1,242.3,1002.2,263.9,1002.2z" /><path
   id="SVGID_39_"
   d="M263.9,1002.2c13.5-0.7,27.7-3.4,41.2-7.4c6.7-2,18.2-6.7,35.8-14.2c14.8-6.1,27-10.8,37.8-13.5 c15.5-4,31.7-6.1,48.6-6.1c16.9,0,33.1,2,48.6,6.1c9.4,2.7,22.3,7.4,37.8,14.2c15.5,6.7,27.7,10.8,35.8,13.5 c14.2,4,28.3,6.1,43.2,5.4c21.6,0,41.8-6.1,60.7-18.2c16.2-10.8,32.4-25.6,49.3-45.9c10.8-12.8,25-32.4,43.2-58.7 c19.6-29.7,37.1-61.4,52-96.5c5.4-12.8,11.5-28.3,16.9-45.9c-10.8-4-22.3-10.1-35.1-18.9c-26.3-17.5-47.9-39.1-64.1-64.1 c-22.9-34.4-34.4-74.2-35.1-119.5c0-37.1,8.8-72.9,27-105.3c12.8-22.9,30.4-43.9,51.3-62.8c9.4-8.8,19.6-16.2,30.4-22.9 c-25.6-37.8-60.1-64.8-102.6-81.7c-24.3-9.4-51.3-15.5-81-17.5c-15.5-1.3-31.7-0.7-47.9,2c-13.5,2-28.3,6.1-43.9,10.8 c-10.1,4-22.9,8.8-39.1,14.8c-16.2,6.7-27.7,10.8-33.7,12.8c-10.8,3.4-20.2,5.4-27,5.4c-8.8,0-20.2-2-33.7-6.7 c-4-1.3-16.9-6.7-39.8-15.5c-17.5-6.7-32.4-12.1-44.5-15.5c-16.9-4-32.4-6.1-47.2-6.1c-42.5,0.7-81.7,12.1-118.8,35.1 c-37.1,22.3-66.1,52.6-87.7,91.1C14.2,418.4,0,475.8,0,541.3C0,600,10.1,660,31,722.8c18.9,57.4,43.9,108,74.2,151.8 c17.5,26.3,32.4,46.6,44.5,60.7c17.5,21.6,35.1,37.1,52,47.9C222,996.1,242.3,1002.2,263.9,1002.2z" /><path
   id="SVGID_41_"
   d="M263.9,1002.2c13.5-0.7,27.7-3.4,41.2-7.4c6.7-2,18.2-6.7,35.8-14.2c14.8-6.1,27-10.8,37.8-13.5 c15.5-4,31.7-6.1,48.6-6.1c16.9,0,33.1,2,48.6,6.1c9.4,2.7,22.3,7.4,37.8,14.2c15.5,6.7,27.7,10.8,35.8,13.5 c14.2,4,28.3,6.1,43.2,5.4c21.6,0,41.8-6.1,60.7-18.2c16.2-10.8,32.4-25.6,49.3-45.9c10.8-12.8,25-32.4,43.2-58.7 c19.6-29.7,37.1-61.4,52-96.5c5.4-12.8,11.5-28.3,16.9-45.9c-10.8-4-22.3-10.1-35.1-18.9c-26.3-17.5-47.9-39.1-64.1-64.1 c-22.9-34.4-34.4-74.2-35.1-119.5c0-37.1,8.8-72.9,27-105.3c12.8-22.9,30.4-43.9,51.3-62.8c9.4-8.8,19.6-16.2,30.4-22.9 c-25.6-37.8-60.1-64.8-102.6-81.7c-24.3-9.4-51.3-15.5-81-17.5c-15.5-1.3-31.7-0.7-47.9,2c-13.5,2-28.3,6.1-43.9,10.8 c-10.1,4-22.9,8.8-39.1,14.8c-16.2,6.7-27.7,10.8-33.7,12.8c-10.8,3.4-20.2,5.4-27,5.4c-8.8,0-20.2-2-33.7-6.7 c-4-1.3-16.9-6.7-39.8-15.5c-17.5-6.7-32.4-12.1-44.5-15.5c-16.9-4-32.4-6.1-47.2-6.1c-42.5,0.7-81.7,12.1-118.8,35.1 c-37.1,22.3-66.1,52.6-87.7,91.1C14.2,418.4,0,475.8,0,541.3C0,600,10.1,660,31,722.8c18.9,57.4,43.9,108,74.2,151.8 c17.5,26.3,32.4,46.6,44.5,60.7c17.5,21.6,35.1,37.1,52,47.9C222,996.1,242.3,1002.2,263.9,1002.2z" /><path
   id="SVGID_43_"
   d="M263.9,1002.2c13.5-0.7,27.7-3.4,41.2-7.4c6.7-2,18.2-6.7,35.8-14.2c14.8-6.1,27-10.8,37.8-13.5 c15.5-4,31.7-6.1,48.6-6.1c16.9,0,33.1,2,48.6,6.1c9.4,2.7,22.3,7.4,37.8,14.2c15.5,6.7,27.7,10.8,35.8,13.5 c14.2,4,28.3,6.1,43.2,5.4c21.6,0,41.8-6.1,60.7-18.2c16.2-10.8,32.4-25.6,49.3-45.9c10.8-12.8,25-32.4,43.2-58.7 c19.6-29.7,37.1-61.4,52-96.5c5.4-12.8,11.5-28.3,16.9-45.9c-10.8-4-22.3-10.1-35.1-18.9c-26.3-17.5-47.9-39.1-64.1-64.1 c-22.9-34.4-34.4-74.2-35.1-119.5c0-37.1,8.8-72.9,27-105.3c12.8-22.9,30.4-43.9,51.3-62.8c9.4-8.8,19.6-16.2,30.4-22.9 c-25.6-37.8-60.1-64.8-102.6-81.7c-24.3-9.4-51.3-15.5-81-17.5c-15.5-1.3-31.7-0.7-47.9,2c-13.5,2-28.3,6.1-43.9,10.8 c-10.1,4-22.9,8.8-39.1,14.8c-16.2,6.7-27.7,10.8-33.7,12.8c-10.8,3.4-20.2,5.4-27,5.4c-8.8,0-20.2-2-33.7-6.7 c-4-1.3-16.9-6.7-39.8-15.5c-17.5-6.7-32.4-12.1-44.5-15.5c-16.9-4-32.4-6.1-47.2-6.1c-42.5,0.7-81.7,12.1-118.8,35.1 c-37.1,22.3-66.1,52.6-87.7,91.1C14.2,418.4,0,475.8,0,541.3C0,600,10.1,660,31,722.8c18.9,57.4,43.9,108,74.2,151.8 c17.5,26.3,32.4,46.6,44.5,60.7c17.5,21.6,35.1,37.1,52,47.9C222,996.1,242.3,1002.2,263.9,1002.2z" /><path
   id="SVGID_45_"
   d="M263.9,1002.2c13.5-0.7,27.7-3.4,41.2-7.4c6.7-2,18.2-6.7,35.8-14.2c14.8-6.1,27-10.8,37.8-13.5 c15.5-4,31.7-6.1,48.6-6.1c16.9,0,33.1,2,48.6,6.1c9.4,2.7,22.3,7.4,37.8,14.2c15.5,6.7,27.7,10.8,35.8,13.5 c14.2,4,28.3,6.1,43.2,5.4c21.6,0,41.8-6.1,60.7-18.2c16.2-10.8,32.4-25.6,49.3-45.9c10.8-12.8,25-32.4,43.2-58.7 c19.6-29.7,37.1-61.4,52-96.5c5.4-12.8,11.5-28.3,16.9-45.9c-10.8-4-22.3-10.1-35.1-18.9c-26.3-17.5-47.9-39.1-64.1-64.1 c-22.9-34.4-34.4-74.2-35.1-119.5c0-37.1,8.8-72.9,27-105.3c12.8-22.9,30.4-43.9,51.3-62.8c9.4-8.8,19.6-16.2,30.4-22.9 c-25.6-37.8-60.1-64.8-102.6-81.7c-24.3-9.4-51.3-15.5-81-17.5c-15.5-1.3-31.7-0.7-47.9,2c-13.5,2-28.3,6.1-43.9,10.8 c-10.1,4-22.9,8.8-39.1,14.8c-16.2,6.7-27.7,10.8-33.7,12.8c-10.8,3.4-20.2,5.4-27,5.4c-8.8,0-20.2-2-33.7-6.7 c-4-1.3-16.9-6.7-39.8-15.5c-17.5-6.7-32.4-12.1-44.5-15.5c-16.9-4-32.4-6.1-47.2-6.1c-42.5,0.7-81.7,12.1-118.8,35.1 c-37.1,22.3-66.1,52.6-87.7,91.1C14.2,418.4,0,475.8,0,541.3C0,600,10.1,660,31,722.8c18.9,57.4,43.9,108,74.2,151.8 c17.5,26.3,32.4,46.6,44.5,60.7c17.5,21.6,35.1,37.1,52,47.9C222,996.1,242.3,1002.2,263.9,1002.2z" /><path
   id="SVGID_47_"
   d="M263.9,1002.2c13.5-0.7,27.7-3.4,41.2-7.4c6.7-2,18.2-6.7,35.8-14.2c14.8-6.1,27-10.8,37.8-13.5 c15.5-4,31.7-6.1,48.6-6.1c16.9,0,33.1,2,48.6,6.1c9.4,2.7,22.3,7.4,37.8,14.2c15.5,6.7,27.7,10.8,35.8,13.5 c14.2,4,28.3,6.1,43.2,5.4c21.6,0,41.8-6.1,60.7-18.2c16.2-10.8,32.4-25.6,49.3-45.9c10.8-12.8,25-32.4,43.2-58.7 c19.6-29.7,37.1-61.4,52-96.5c5.4-12.8,11.5-28.3,16.9-45.9c-10.8-4-22.3-10.1-35.1-18.9c-26.3-17.5-47.9-39.1-64.1-64.1 c-22.9-34.4-34.4-74.2-35.1-119.5c0-37.1,8.8-72.9,27-105.3c12.8-22.9,30.4-43.9,51.3-62.8c9.4-8.8,19.6-16.2,30.4-22.9 c-25.6-37.8-60.1-64.8-102.6-81.7c-24.3-9.4-51.3-15.5-81-17.5c-15.5-1.3-31.7-0.7-47.9,2c-13.5,2-28.3,6.1-43.9,10.8 c-10.1,4-22.9,8.8-39.1,14.8c-16.2,6.7-27.7,10.8-33.7,12.8c-10.8,3.4-20.2,5.4-27,5.4c-8.8,0-20.2-2-33.7-6.7 c-4-1.3-16.9-6.7-39.8-15.5c-17.5-6.7-32.4-12.1-44.5-15.5c-16.9-4-32.4-6.1-47.2-6.1c-42.5,0.7-81.7,12.1-118.8,35.1 c-37.1,22.3-66.1,52.6-87.7,91.1C14.2,418.4,0,475.8,0,541.3C0,600,10.1,660,31,722.8c18.9,57.4,43.9,108,74.2,151.8 c17.5,26.3,32.4,46.6,44.5,60.7c17.5,21.6,35.1,37.1,52,47.9C222,996.1,242.3,1002.2,263.9,1002.2z" />
	
		<linearGradient
   id="SVGID_15_"
   gradientUnits="userSpaceOnUse"
   x1="-82"
   y1="224.5"
   x2="-82"
   y2="151.5"
   gradientTransform="matrix(1,0,0,-1,654,325)">
		<stop
   offset="0"
   style="stop-color:#7ED3F7"
   id="stop160" />
		<stop
   offset="1"
   style="stop-color:#003D7E"
   id="stop162" />
	</linearGradient>
	
	

	
		<linearGradient
   id="SVGID_14_"
   gradientUnits="userSpaceOnUse"
   x1="-24"
   y1="311.5"
   x2="-24"
   y2="238"
   gradientTransform="matrix(1,0,0,-1,654,325)">
		<stop
   offset="0"
   style="stop-color:#7ED3F7"
   id="stop149" />
		<stop
   offset="1"
   style="stop-color:#003D7E"
   id="stop151" />
	</linearGradient>
	
	

	
		<linearGradient
   id="SVGID_13_"
   gradientUnits="userSpaceOnUse"
   x1="-208.3335"
   y1="311.5"
   x2="-208.3335"
   y2="238"
   gradientTransform="matrix(1,0,0,-1,654,325)">
		<stop
   offset="0"
   style="stop-color:#7ED3F7"
   id="stop138" />
		<stop
   offset="1"
   style="stop-color:#003D7E"
   id="stop140" />
	</linearGradient>
	
	

	
		<linearGradient
   id="SVGID_12_"
   gradientUnits="userSpaceOnUse"
   x1="-369.74951"
   y1="311.5"
   x2="-369.74951"
   y2="238"
   gradientTransform="matrix(1,0,0,-1,654,325)">
		<stop
   offset="0"
   style="stop-color:#7ED3F7"
   id="stop127" />
		<stop
   offset="1"
   style="stop-color:#003D7E"
   id="stop129" />
	</linearGradient>
	
	

	
		<linearGradient
   id="SVGID_11_"
   gradientUnits="userSpaceOnUse"
   x1="-403"
   y1="311.5"
   x2="-403"
   y2="238"
   gradientTransform="matrix(1,0,0,-1,654,325)">
		<stop
   offset="0"
   style="stop-color:#7ED3F7"
   id="stop116" />
		<stop
   offset="1"
   style="stop-color:#003D7E"
   id="stop118" />
	</linearGradient>
	
	

	
	

		
			<linearGradient
   id="SVGID_10_"
   gradientUnits="userSpaceOnUse"
   x1="-498.50049"
   y1="311.84671"
   x2="-498.50049"
   y2="236.83659"
   gradientTransform="matrix(1,0,0,-1,654,325)">
			<stop
   offset="0"
   style="stop-color:#7ED3F7"
   id="stop101" />
			<stop
   offset="1"
   style="stop-color:#003D7E"
   id="stop103" />
		</linearGradient>
		
	
		
	
	
		<linearGradient
   id="SVGID_9_"
   gradientUnits="userSpaceOnUse"
   x1="-303.91699"
   y1="311.5"
   x2="-303.91699"
   y2="238"
   gradientTransform="matrix(1,0,0,-1,654,325)">
		<stop
   offset="0"
   style="stop-color:#7ED3F7"
   id="stop90" />
		<stop
   offset="1"
   style="stop-color:#003D7E"
   id="stop92" />
	</linearGradient>
	
	

	
		<linearGradient
   id="SVGID_8_"
   gradientUnits="userSpaceOnUse"
   x1="-274.91699"
   y1="224.5"
   x2="-274.91699"
   y2="151.5"
   gradientTransform="matrix(1,0,0,-1,654,325)">
		<stop
   offset="0"
   style="stop-color:#7ED3F7"
   id="stop79" />
		<stop
   offset="1"
   style="stop-color:#003D7E"
   id="stop81" />
	</linearGradient>
	
	

	
		<linearGradient
   id="SVGID_7_"
   gradientUnits="userSpaceOnUse"
   x1="-593.4165"
   y1="311.5"
   x2="-593.4165"
   y2="238"
   gradientTransform="matrix(1,0,0,-1,654,325)">
		<stop
   offset="0"
   style="stop-color:#7ED3F7"
   id="stop68" />
		<stop
   offset="1"
   style="stop-color:#003D7E"
   id="stop70" />
	</linearGradient>
	
	

	
		<linearGradient
   id="SVGID_6_"
   gradientUnits="userSpaceOnUse"
   x1="-308.75"
   y1="224.5"
   x2="-308.75"
   y2="151.5"
   gradientTransform="matrix(1,0,0,-1,654,325)">
		<stop
   offset="0"
   style="stop-color:#7ED3F7"
   id="stop57" />
		<stop
   offset="1"
   style="stop-color:#003D7E"
   id="stop59" />
	</linearGradient>
	
	

		
		
		
		
		
		
		
		
		
	
		
	
			
			
			
			
			
			
			
			
			
		
				
				
				
				
			</defs><g
     inkscape:label="Layer 1"
     inkscape:groupmode="layer"
     id="layer1"><path
       id="rect231"
       style="fill:#ffffff;stroke-width:0.8001;stroke-linecap:square;paint-order:fill markers stroke"
       d="M 0 0 L 0 132.29167 L 130.11144 132.29167 C 126.24247 132.29167 122.90577 131.83112 120.11153 130.92017 C 117.3173 129.999 114.98366 128.56624 113.13108 126.60106 C 111.27849 124.63588 109.90706 122.10757 109.0166 119.01651 C 108.12612 115.92544 107.68593 112.22041 107.68593 107.92158 L 107.68593 77.501729 C 107.68593 73.039131 108.12612 69.26274 109.0166 66.171672 C 109.90706 63.080606 111.27849 60.562419 113.13108 58.627946 C 114.98366 56.693468 117.3173 55.291071 120.11153 54.431303 C 122.90577 53.571538 126.24247 53.141976 130.11144 53.141976 L 140.43897 53.141976 C 144.35909 53.141976 147.73694 53.571538 150.56187 54.431303 C 153.38682 55.291071 155.71022 56.693468 157.54232 58.627946 C 159.36421 60.562419 160.71539 63.080606 161.57515 66.171672 C 162.43491 69.26274 162.86448 73.039131 162.86448 77.501729 L 162.86448 107.92158 C 162.86448 112.23065 162.43491 115.92544 161.57515 119.01651 C 160.71539 122.10757 159.37445 124.63588 157.54232 126.60106 C 155.71022 128.56624 153.38682 130.00923 150.56187 130.92017 C 147.73694 131.83112 144.36933 132.29167 140.43897 132.29167 L 168.35096 132.29167 L 168.35096 80.091235 L 178.51417 80.091235 L 178.51417 121.56519 L 200.54073 121.56519 C 202.57757 121.56519 204.29735 121.27857 205.69959 120.71563 C 207.10183 120.14245 208.23784 119.35429 209.12832 118.33076 C 210.0188 117.30723 210.66339 116.09911 211.06257 114.69687 C 211.46175 113.30487 211.66667 111.80064 211.66667 110.18346 L 211.66667 75.250187 C 211.66667 73.643242 211.46175 72.138491 211.06257 70.736251 C 210.66339 69.334013 210.0188 68.126413 209.12832 67.102881 C 208.23784 66.079352 207.08148 65.280959 205.65876 64.718014 C 204.23605 64.155071 202.50616 63.868453 200.45908 63.868453 L 168.35096 63.868453 L 168.35096 53.141976 L 199.41522 53.141976 C 203.33536 53.141976 206.71264 53.571538 209.5376 54.431303 C 212.36255 55.291071 214.68592 56.693468 216.51805 58.627946 C 218.33992 60.562419 219.69112 63.080606 220.55088 66.171672 C 221.41067 69.26274 221.84072 73.039131 221.84072 77.501729 L 221.84072 107.92158 C 221.84072 112.23065 221.41067 115.92544 220.55088 119.01651 C 219.69112 122.10757 218.35016 124.63588 216.51805 126.60106 C 214.68592 128.56624 212.36255 130.00923 209.5376 130.92017 C 206.71264 131.83112 203.34557 132.29167 199.41522 132.29167 L 396.875 132.29167 L 396.875 107.92158 C 396.875 111.30947 396.26086 114.49248 395.0224 117.4812 C 393.78391 120.46992 392.12592 123.04892 390.05836 125.22905 C 387.98062 127.39894 385.58564 129.12896 382.87327 130.38791 C 380.15068 131.64685 377.346 132.28133 374.43916 132.28133 L 334.76716 132.28133 L 307.84788 132.28133 C 304.94106 132.28133 302.12666 131.65709 299.41428 130.38791 C 296.6917 129.12896 294.29675 127.40917 292.22919 125.22905 C 290.15142 123.04892 288.5031 120.46992 287.26464 117.4812 C 286.02618 114.49248 285.41204 111.30947 285.41204 107.92158 L 285.41204 53.141976 L 296.13903 53.141976 L 296.13903 107.92158 C 296.13903 109.53876 296.43577 111.1658 297.02941 112.80345 C 297.61282 114.45133 298.46236 115.91509 299.56776 117.20473 C 300.67316 118.49438 302.02423 119.53859 303.64141 120.34718 C 305.2586 121.15577 307.08031 121.55485 309.12738 121.55485 L 338.41087 121.55485 L 373.11883 121.55485 C 375.16588 121.55485 376.98761 121.15577 378.6048 120.34718 C 380.22198 119.54882 381.57305 118.49438 382.67845 117.20473 C 383.77361 115.90485 384.62313 114.4411 385.2168 112.80345 C 385.81044 111.1658 386.10718 109.53876 386.10718 107.92158 L 386.10718 77.501729 C 386.10718 75.884547 385.81044 74.257507 385.2168 72.619857 C 384.63339 70.97197 383.78388 69.508224 382.67845 68.218575 C 381.57305 66.928923 380.22198 65.884723 378.6048 65.076131 C 376.98761 64.267539 375.16588 63.868453 373.11883 63.868453 L 315.56575 63.868453 L 315.56575 53.141976 L 374.41849 53.141976 C 377.32533 53.141976 380.14023 53.776456 382.8526 55.0354 C 385.57519 56.294345 387.97016 58.013617 390.03769 60.193742 C 392.11546 62.373867 393.76324 64.953392 395.00173 67.942106 C 396.24019 70.930818 396.85463 74.113838 396.875 77.501729 L 396.875 0 L 248.2479 0 C 252.44437 0 255.92435 2.8964587 257.08095 6.6528239 L 268.83114 41.422278 L 245.95501 41.432613 L 245.95501 35.782829 L 261.01094 35.772493 L 251.44098 7.4000651 C 251.01111 6.1001791 249.84454 5.2301717 248.40138 5.2301717 C 246.95818 5.2301717 245.79115 6.1001791 245.36125 7.4000651 L 233.6524 41.432613 L 210.336 41.442948 C 204.11293 41.442948 199.03643 36.376274 199.03643 30.153198 L 199.02609 12.057145 C 199.02609 5.8340695 204.09225 0.7575765 210.31533 0.7575765 L 229.13847 0.74724121 L 229.13847 6.3970256 L 210.45899 6.4073608 C 207.41909 6.4073608 204.81902 8.8739596 204.81902 12.057145 L 204.82936 30.153198 C 204.82936 33.193091 207.29594 35.793164 210.47914 35.793164 L 223.50884 35.782829 L 223.4985 20.429761 L 213.06865 20.440096 L 213.06865 14.790312 L 228.99481 14.779976 L 229.00514 37.512439 L 239.55799 6.5200155 C 240.57129 2.7534162 244.05142 0 248.2479 0 L 0 0 z M 145.30069 0.74724121 L 163.39674 0.74724121 L 163.39674 6.3970256 L 145.44384 6.3970256 C 141.24734 6.3970256 137.7673 9.8770764 137.7673 14.07356 C 137.7673 18.27004 141.24734 21.750094 145.44384 21.750094 L 150.08076 21.750094 C 153.55053 21.750094 156.44678 24.636622 156.44678 28.11663 C 156.44678 31.596641 153.55043 34.492985 150.07043 34.492985 L 131.97437 34.492985 L 131.97437 28.853536 L 150.08076 28.853536 C 150.37757 28.853536 150.66419 28.556333 150.66419 28.126449 C 150.66419 27.686331 150.36749 27.399878 149.93762 27.399878 L 145.30069 27.399878 C 137.91078 27.399878 131.97437 21.463462 131.97437 14.07356 C 131.97437 6.6836567 137.91078 0.74724121 145.30069 0.74724121 z M 177.45015 0.74724121 L 196.8562 0.74724121 L 196.8562 6.3970256 L 177.45015 6.3970256 C 174.41025 6.3970256 171.79985 8.8636243 171.79985 12.04681 L 171.79985 30.142863 C 171.79985 33.182756 174.25674 35.793164 177.45015 35.793164 L 196.8562 35.793164 L 196.8562 41.442948 L 177.45015 41.442948 C 171.21684 41.442948 166.15007 36.365939 166.15007 30.142863 L 166.15007 12.04681 C 166.15007 5.8134975 171.22708 0.74724121 177.45015 0.74724121 z M 248.40138 6.5505046 C 249.27138 6.5505046 249.85472 7.1239745 250.14132 7.8506836 L 259.11752 34.492985 L 245.7912 34.492985 L 245.7912 29.426628 L 241.73822 41.442948 L 235.07506 41.442948 L 246.66143 7.7070231 C 246.95824 7.1338462 247.67467 6.5505046 248.40138 6.5505046 z M 177.43982 7.6972046 L 196.70272 7.6972046 L 196.70272 13.490133 L 180.04948 13.490133 C 179.33301 13.490133 178.74981 14.073839 178.74981 14.790312 L 192.79288 14.790312 L 192.79288 20.440096 L 173.10003 20.440096 L 173.10003 12.036991 C 173.10003 9.5805149 174.97311 7.6972046 177.43982 7.6972046 z M 210.31584 7.6972046 L 229.13847 7.6972046 L 229.13847 13.346989 L 213.06865 13.346989 C 212.34194 13.346989 211.76899 13.930179 211.76899 14.646651 L 211.76899 27.399878 C 211.76899 28.11635 212.34194 28.700057 213.06865 28.700057 L 216.39558 28.700057 L 216.39558 27.399878 L 213.06865 27.399878 L 213.06865 21.750094 L 222.04536 21.750094 L 222.04536 34.472831 L 210.31584 34.472831 C 207.85938 34.472831 205.97606 32.599755 205.97606 30.133044 L 205.97606 12.036991 C 205.97606 9.5805149 207.84914 7.6972046 210.31584 7.6972046 z M 163.39674 7.7173584 L 163.39674 13.510803 L 145.29036 13.510803 C 144.99355 13.510803 144.70693 13.807642 144.70693 14.09423 C 144.70693 14.534348 145.00412 14.820801 145.43402 14.820801 L 150.07043 14.820801 C 157.46031 14.820801 163.41742 20.757114 163.41742 28.136784 C 163.41742 35.51645 157.49083 41.463102 150.10092 41.463102 L 132.00486 41.473437 L 132.00486 35.823653 L 149.95777 35.813318 C 154.15427 35.813318 157.62397 32.333264 157.62397 28.136784 C 157.62397 23.9403 154.14391 20.470585 149.94744 20.470585 L 145.31103 20.470585 C 141.83102 20.470585 138.93416 17.584057 138.93416 14.104049 C 138.93416 10.624041 141.82068 7.7276937 145.30069 7.7276937 L 163.39674 7.7173584 z M 192.8027 21.893237 L 192.8027 27.543022 L 178.76015 27.553357 C 178.76015 28.269832 179.33311 28.853384 180.05981 28.99668 L 196.86654 28.986344 L 196.86654 34.636129 L 177.45997 34.646464 C 174.99326 34.646464 173.11036 32.77339 173.11036 30.306677 L 173.11036 21.903573 L 192.8027 21.893237 z M 248.25823 22.323185 L 246.23148 28.11663 L 250.14132 28.11663 L 248.25823 22.323185 z M 41.709082 53.141976 C 43.541214 53.141976 45.127654 53.387487 46.468481 53.868547 C 47.809309 54.349606 48.99669 55.015076 50.020203 55.844137 C 51.043742 56.683434 51.913494 57.624768 52.640198 58.66877 C 53.366902 59.71277 53.991148 60.808318 54.533622 61.934204 L 56.949495 66.775252 L 59.364852 61.934204 C 59.958497 60.808318 60.613738 59.71277 61.340442 58.66877 C 62.067172 57.614531 62.926791 56.683434 63.919613 55.844137 C 64.912434 55.015076 66.089682 54.349606 67.430509 53.868547 C 68.771337 53.387487 70.357803 53.141976 72.189909 53.141976 C 73.960631 53.141976 75.567417 53.387487 76.990133 53.868547 C 78.423062 54.349606 79.661676 55.015076 80.705668 55.844137 C 81.749686 56.683434 82.640274 57.624768 83.367004 58.66877 C 84.093708 59.71277 84.64606 60.808318 85.024784 61.934204 L 109.95815 132.271 L 99.231669 132.271 L 75.997428 65.956698 C 75.833651 65.414226 75.352363 64.932926 74.54377 64.50304 C 73.735178 64.073156 72.957666 63.858118 72.200244 63.858118 C 71.330242 63.858118 70.552213 64.073156 69.856201 64.50304 C 69.160215 64.932926 68.699629 65.42446 68.484709 65.956698 L 56.949495 96.857137 L 45.414282 65.956698 C 45.199335 65.414226 44.738775 64.932926 44.04279 64.50304 C 43.336538 64.073156 42.558509 63.858118 41.698747 63.858118 C 40.941325 63.858118 40.16327 64.073156 39.354704 64.50304 C 38.546111 64.932926 38.065339 65.42446 37.901562 65.956698 L 14.667322 132.271 L 3.9408447 132.271 L 28.87369 61.934204 C 29.303584 60.808318 29.876799 59.71277 30.572811 58.66877 C 31.268797 57.614531 32.149304 56.683434 33.193323 55.844137 C 34.247554 55.015076 35.46528 54.349606 36.867517 53.868547 C 38.269754 53.387487 39.876977 53.141976 41.709082 53.141976 z M 249.35326 53.141976 L 279.92607 53.141976 L 279.92607 63.868453 L 250.64258 63.868453 C 248.59553 63.868453 246.7738 64.267539 245.15661 65.076131 C 243.53943 65.874484 242.18839 66.928923 241.08296 68.218575 C 239.98777 69.518461 239.13826 70.982204 238.54461 72.619857 C 237.95097 74.257507 237.65423 75.884547 237.65423 77.501729 L 237.65423 107.92158 C 237.65423 109.53876 237.95097 111.1658 238.54461 112.80345 C 239.12802 114.45133 239.97753 115.91509 241.08296 117.20473 C 242.18839 118.49438 243.53943 119.53859 245.15661 120.34718 C 246.7738 121.15577 248.59553 121.55485 250.64258 121.55485 L 279.92607 121.55485 L 279.92607 132.28133 L 249.35326 132.28133 C 246.44641 132.28133 243.63152 131.65709 240.91914 130.38791 C 238.19656 129.12896 235.80158 127.40917 233.73405 125.22905 C 231.65628 123.04892 230.00848 120.46992 228.77002 117.4812 C 227.53153 114.49248 226.91742 111.30947 226.91742 107.92158 L 226.91742 77.501729 C 226.91742 74.113838 227.53153 70.930818 228.77002 67.942106 C 230.00848 64.953392 231.66652 62.373867 233.73405 60.193742 C 235.81182 58.023854 238.2068 56.304579 240.91914 55.0354 C 243.63152 53.776456 246.44641 53.141976 249.35326 53.141976 z M 299.03549 53.141976 L 310.0896 53.141976 L 310.0896 105.81266 C 310.0896 106.45749 310.2635 106.95914 310.61153 107.30715 C 310.96978 107.65515 311.29738 107.82908 311.62491 107.82908 L 311.62491 107.91124 L 338.41087 107.91124 L 371.83932 107.91124 C 372.16685 107.91124 372.50469 107.72667 372.85269 107.34797 C 373.20067 106.96926 373.37463 106.45749 373.37463 105.81266 L 373.37463 104.7688 L 349.97657 104.7688 L 349.97657 94.042322 L 383.22105 94.042322 L 383.22105 106.29377 C 383.22105 107.69601 382.99589 109.13951 382.53531 110.6134 C 382.07469 112.08729 381.389 113.41759 380.47807 114.60489 C 379.56711 115.79219 378.41021 116.75428 377.008 117.51169 C 375.60573 118.25887 373.96808 118.63772 372.08478 118.63772 L 334.74649 118.63772 L 310.17125 118.63772 C 308.28795 118.63772 306.6503 118.2691 305.24803 117.51169 C 303.84582 116.75428 302.68941 115.79219 301.77848 114.60489 C 300.86752 113.42783 300.18185 112.09711 299.72124 110.62322 C 299.26065 109.1391 299.03549 107.70635 299.03549 106.30411 L 299.03549 53.141976 z M 129.06757 63.868453 C 127.03076 63.868453 125.29061 64.155071 123.86789 64.718014 C 122.44518 65.291193 121.28879 66.079352 120.39834 67.102881 C 119.50786 68.126413 118.86275 69.334013 118.46357 70.736251 C 118.06439 72.128254 117.85999 73.633005 117.85999 75.250187 L 117.85999 110.17312 C 117.85999 111.78007 118.06439 113.28482 118.46357 114.68706 C 118.86275 116.0893 119.50786 117.29689 120.39834 118.32043 C 121.28879 119.34396 122.42483 120.14235 123.82707 120.70529 C 125.21909 121.26824 126.93836 121.55485 128.98541 121.55485 L 135.28063 121.55485 L 141.57534 121.55485 C 143.61218 121.55485 145.33144 121.26824 146.73368 120.70529 C 148.13594 120.13212 149.27196 119.34396 150.16241 118.32043 C 151.05289 117.29689 151.69797 116.0893 152.09718 114.68706 C 152.49633 113.29505 152.70076 111.7903 152.70076 110.17312 L 152.70076 75.250187 C 152.70076 73.643242 152.49633 72.138491 152.09718 70.736251 C 151.69797 69.334013 151.05289 68.126413 150.16241 67.102881 C 149.27196 66.079352 148.11557 65.280959 146.69285 64.718014 C 145.27014 64.155071 143.54022 63.868453 141.49317 63.868453 L 129.06757 63.868453 z M 41.698747 66.775252 C 42.067205 66.775252 42.466424 66.887723 42.865601 67.13337 C 43.275016 67.379017 43.520389 67.6554 43.632996 67.982931 L 56.949495 104.68715 L 70.265479 67.982931 C 70.378059 67.6554 70.634214 67.379017 71.03339 67.13337 C 71.432567 66.897957 71.821546 66.775252 72.200244 66.775252 C 72.568729 66.775252 72.978054 66.887723 73.407922 67.13337 C 73.837817 67.379017 74.103983 67.665635 74.206323 67.982931 L 96.314535 132.28133 L 85.987 132.28133 L 72.189909 91.61663 L 56.93916 132.28133 L 41.688411 91.61663 L 28.300598 132.28133 L 17.574121 132.28133 L 39.682332 67.982931 C 39.794912 67.6554 40.061174 67.379017 40.491069 67.13337 C 40.920937 66.897957 41.320023 66.775252 41.698747 66.775252 z M 130.12177 66.775252 L 135.28063 66.775252 L 140.43897 66.775252 C 142.32225 66.775252 143.86761 67.0314 145.07538 67.543164 C 146.28315 68.054929 147.24535 68.771108 147.94136 69.682052 C 148.63734 70.592998 149.11875 71.66767 149.40535 72.906144 C 149.67147 74.144618 149.80429 75.455087 149.80429 76.857324 L 149.80429 108.56598 C 149.80429 110.44929 149.67147 112.02561 149.40535 113.28456 C 149.13923 114.5435 148.66805 115.57759 147.99252 116.38618 C 147.31698 117.18453 146.37565 117.76779 145.16788 118.11579 C 143.96011 118.46379 142.41426 118.63772 140.53096 118.63772 L 130.04012 118.63772 C 128.15682 118.63772 126.61097 118.46379 125.4032 118.11579 C 124.19543 117.76779 123.2541 117.19477 122.57856 116.38618 C 121.90303 115.58782 121.43185 114.55374 121.16573 113.28456 C 120.89961 112.02561 120.76679 110.44929 120.76679 108.56598 L 120.76679 76.857324 C 120.76679 75.465321 120.89961 74.144618 121.16573 72.906144 C 121.43185 71.66767 121.92338 70.592998 122.61939 69.682052 C 123.31537 68.771108 124.27759 68.054929 125.48536 67.543164 C 126.69313 67.0314 128.23847 66.775252 130.12177 66.775252 z M 168.35096 66.775252 L 199.41522 66.775252 C 201.29852 66.775252 202.84386 67.0314 204.05163 67.543164 C 205.2594 68.054929 206.22159 68.771108 206.9176 69.682052 C 207.61361 70.592998 208.10463 71.66767 208.37074 72.906144 C 208.63686 74.144618 208.7702 75.455087 208.7702 76.857324 L 208.7702 108.58665 C 208.7702 110.46995 208.63686 112.04628 208.37074 113.30523 C 208.10463 114.56417 207.63396 115.59774 206.95843 116.40633 C 206.28292 117.20468 205.34105 117.78846 204.13328 118.13646 C 202.92551 118.48446 201.38017 118.65839 199.49687 118.65839 L 181.42148 118.65839 L 181.42148 80.091235 L 192.72105 80.091235 L 192.72105 105.823 C 192.72105 107.22524 193.39664 107.92158 194.73747 107.92158 L 196.5079 107.92158 C 197.15274 107.92158 197.68537 107.73701 198.08455 107.3583 C 198.48373 106.9796 198.68813 106.46782 198.68813 105.823 L 198.68813 79.600309 C 198.68813 78.955483 198.48373 78.443708 198.08455 78.065002 C 197.67513 77.696531 197.15274 77.501729 196.5079 77.501729 L 168.35096 77.501729 L 168.35096 66.775252 z M 251.68696 66.775252 L 279.92607 66.775252 L 279.92607 77.512065 L 251.93243 77.512065 C 251.6049 77.512065 251.26706 77.696632 250.91905 78.075338 C 250.57105 78.454046 250.39712 78.965821 250.39712 79.610645 L 250.39712 80.736157 L 273.80551 80.736157 L 273.80551 91.380986 L 240.56103 91.380986 L 240.56103 79.119202 C 240.56103 77.716962 240.78616 76.283687 241.24677 74.799569 C 241.70736 73.32568 242.39305 71.995379 243.30401 70.808081 C 244.21495 69.620783 245.37185 68.658696 246.77408 67.901282 C 248.16608 67.154104 249.80366 66.775252 251.68696 66.775252 z M 315.56575 66.775252 L 372.07496 66.775252 C 373.95827 66.775252 375.59591 67.143868 376.99818 67.901282 C 378.40041 68.658696 379.5568 69.620783 380.46773 70.808081 C 381.37867 71.985142 382.06439 73.32568 382.52497 74.799569 C 382.98556 76.283687 383.21072 77.716962 383.21072 79.119202 L 383.21072 91.380986 L 349.97657 91.380986 L 349.97657 80.736157 L 373.37463 80.736157 L 373.37463 79.610645 C 373.37463 78.965821 373.20067 78.454046 372.85269 78.075338 C 372.50469 77.696632 372.16675 77.501729 371.82898 77.501729 L 315.56575 77.501729 L 315.56575 66.775252 z M 132.69061 77.501729 C 132.04579 77.501729 131.62634 77.686294 131.44211 78.065002 C 131.24764 78.443708 131.1553 78.955483 131.1553 79.600309 L 131.1553 105.81266 C 131.1553 106.45749 131.25788 106.96926 131.44211 107.34797 C 131.62634 107.72667 132.04579 107.91124 132.69061 107.91124 L 137.84947 107.91124 C 138.49431 107.91124 138.91371 107.72667 139.09797 107.34797 C 139.29244 106.96926 139.38477 106.45749 139.38477 105.81266 L 139.38477 79.600309 C 139.38477 78.955483 139.2822 78.443708 139.09797 78.065002 C 138.91371 77.686294 138.49431 77.501729 137.84947 77.501729 L 132.69061 77.501729 z M 240.56103 94.042322 L 273.80551 94.042322 L 273.80551 104.7688 L 250.40745 104.7688 L 250.40745 105.81266 C 250.40745 106.45749 250.58138 106.96926 250.92939 107.34797 C 251.27739 107.72667 251.61514 107.91134 251.93243 107.92158 L 279.9364 107.92158 L 279.9364 118.64806 L 251.6973 118.64806 C 249.814 118.64806 248.17632 118.27944 246.77408 117.52203 C 245.37185 116.76461 244.21495 115.80252 243.30401 114.61523 C 242.39305 113.43816 241.70736 112.10734 241.24677 110.62322 C 240.78616 109.1391 240.56103 107.70635 240.56103 106.30411 L 240.56103 94.042322 z " /><g
       id="g8119"
       transform="matrix(0.26458333,0,0,0.26458333,-400.55178,46.029668)" /></g><style
     type="text/css"
     id="style5697">
	.st0{fill:#E62229;}
	.st1{fill:#019B43;}
	.st2{fill:#FFFFFF;}
</style></svg>
