<?xml version="1.0" encoding="UTF-8" standalone="no"?>
<!-- Created with Inkscape (http://www.inkscape.org/) -->

<svg
   width="1500"
   height="500"
   viewBox="0 0 396.87498 132.29167"
   version="1.1"
   id="svg5"
   inkscape:version="1.2.2 (732a01da63, 2022-12-09)"
   xml:space="preserve"
   sodipodi:docname="moto.svg"
   xmlns:inkscape="http://www.inkscape.org/namespaces/inkscape"
   xmlns:sodipodi="http://sodipodi.sourceforge.net/DTD/sodipodi-0.dtd"
   xmlns="http://www.w3.org/2000/svg"
   xmlns:svg="http://www.w3.org/2000/svg"><sodipodi:namedview
     id="namedview7"
     pagecolor="#000000"
     bordercolor="#111111"
     borderopacity="1"
     inkscape:showpageshadow="0"
     inkscape:pageopacity="0"
     inkscape:pagecheckerboard="1"
     inkscape:deskcolor="#d1d1d1"
     inkscape:document-units="mm"
     showgrid="false"
     inkscape:zoom="0.44378316"
     inkscape:cx="694.03264"
     inkscape:cy="369.54985"
     inkscape:window-width="1920"
     inkscape:window-height="1009"
     inkscape:window-x="-8"
     inkscape:window-y="-8"
     inkscape:window-maximized="1"
     inkscape:current-layer="layer1" /><defs
     id="defs2"><path
   id="SVGID_37_"
   d="M263.9,1002.2c13.5-0.7,27.7-3.4,41.2-7.4c6.7-2,18.2-6.7,35.8-14.2c14.8-6.1,27-10.8,37.8-13.5 c15.5-4,31.7-6.1,48.6-6.1c16.9,0,33.1,2,48.6,6.1c9.4,2.7,22.3,7.4,37.8,14.2c15.5,6.7,27.7,10.8,35.8,13.5 c14.2,4,28.3,6.1,43.2,5.4c21.6,0,41.8-6.1,60.7-18.2c16.2-10.8,32.4-25.6,49.3-45.9c10.8-12.8,25-32.4,43.2-58.7 c19.6-29.7,37.1-61.4,52-96.5c5.4-12.8,11.5-28.3,16.9-45.9c-10.8-4-22.3-10.1-35.1-18.9c-26.3-17.5-47.9-39.1-64.1-64.1 c-22.9-34.4-34.4-74.2-35.1-119.5c0-37.1,8.8-72.9,27-105.3c12.8-22.9,30.4-43.9,51.3-62.8c9.4-8.8,19.6-16.2,30.4-22.9 c-25.6-37.8-60.1-64.8-102.6-81.7c-24.3-9.4-51.3-15.5-81-17.5c-15.5-1.3-31.7-0.7-47.9,2c-13.5,2-28.3,6.1-43.9,10.8 c-10.1,4-22.9,8.8-39.1,14.8c-16.2,6.7-27.7,10.8-33.7,12.8c-10.8,3.4-20.2,5.4-27,5.4c-8.8,0-20.2-2-33.7-6.7 c-4-1.3-16.9-6.7-39.8-15.5c-17.5-6.7-32.4-12.1-44.5-15.5c-16.9-4-32.4-6.1-47.2-6.1c-42.5,0.7-81.7,12.1-118.8,35.1 c-37.1,22.3-66.1,52.6-87.7,91.1C14.2,418.4,0,475.8,0,541.3C0,600,10.1,660,31,722.8c18.9,57.4,43.9,108,74.2,151.8 c17.5,26.3,32.4,46.6,44.5,60.7c17.5,21.6,35.1,37.1,52,47.9C222,996.1,242.3,1002.2,263.9,1002.2z" /><path
   id="SVGID_39_"
   d="M263.9,1002.2c13.5-0.7,27.7-3.4,41.2-7.4c6.7-2,18.2-6.7,35.8-14.2c14.8-6.1,27-10.8,37.8-13.5 c15.5-4,31.7-6.1,48.6-6.1c16.9,0,33.1,2,48.6,6.1c9.4,2.7,22.3,7.4,37.8,14.2c15.5,6.7,27.7,10.8,35.8,13.5 c14.2,4,28.3,6.1,43.2,5.4c21.6,0,41.8-6.1,60.7-18.2c16.2-10.8,32.4-25.6,49.3-45.9c10.8-12.8,25-32.4,43.2-58.7 c19.6-29.7,37.1-61.4,52-96.5c5.4-12.8,11.5-28.3,16.9-45.9c-10.8-4-22.3-10.1-35.1-18.9c-26.3-17.5-47.9-39.1-64.1-64.1 c-22.9-34.4-34.4-74.2-35.1-119.5c0-37.1,8.8-72.9,27-105.3c12.8-22.9,30.4-43.9,51.3-62.8c9.4-8.8,19.6-16.2,30.4-22.9 c-25.6-37.8-60.1-64.8-102.6-81.7c-24.3-9.4-51.3-15.5-81-17.5c-15.5-1.3-31.7-0.7-47.9,2c-13.5,2-28.3,6.1-43.9,10.8 c-10.1,4-22.9,8.8-39.1,14.8c-16.2,6.7-27.7,10.8-33.7,12.8c-10.8,3.4-20.2,5.4-27,5.4c-8.8,0-20.2-2-33.7-6.7 c-4-1.3-16.9-6.7-39.8-15.5c-17.5-6.7-32.4-12.1-44.5-15.5c-16.9-4-32.4-6.1-47.2-6.1c-42.5,0.7-81.7,12.1-118.8,35.1 c-37.1,22.3-66.1,52.6-87.7,91.1C14.2,418.4,0,475.8,0,541.3C0,600,10.1,660,31,722.8c18.9,57.4,43.9,108,74.2,151.8 c17.5,26.3,32.4,46.6,44.5,60.7c17.5,21.6,35.1,37.1,52,47.9C222,996.1,242.3,1002.2,263.9,1002.2z" /><path
   id="SVGID_41_"
   d="M263.9,1002.2c13.5-0.7,27.7-3.4,41.2-7.4c6.7-2,18.2-6.7,35.8-14.2c14.8-6.1,27-10.8,37.8-13.5 c15.5-4,31.7-6.1,48.6-6.1c16.9,0,33.1,2,48.6,6.1c9.4,2.7,22.3,7.4,37.8,14.2c15.5,6.7,27.7,10.8,35.8,13.5 c14.2,4,28.3,6.1,43.2,5.4c21.6,0,41.8-6.1,60.7-18.2c16.2-10.8,32.4-25.6,49.3-45.9c10.8-12.8,25-32.4,43.2-58.7 c19.6-29.7,37.1-61.4,52-96.5c5.4-12.8,11.5-28.3,16.9-45.9c-10.8-4-22.3-10.1-35.1-18.9c-26.3-17.5-47.9-39.1-64.1-64.1 c-22.9-34.4-34.4-74.2-35.1-119.5c0-37.1,8.8-72.9,27-105.3c12.8-22.9,30.4-43.9,51.3-62.8c9.4-8.8,19.6-16.2,30.4-22.9 c-25.6-37.8-60.1-64.8-102.6-81.7c-24.3-9.4-51.3-15.5-81-17.5c-15.5-1.3-31.7-0.7-47.9,2c-13.5,2-28.3,6.1-43.9,10.8 c-10.1,4-22.9,8.8-39.1,14.8c-16.2,6.7-27.7,10.8-33.7,12.8c-10.8,3.4-20.2,5.4-27,5.4c-8.8,0-20.2-2-33.7-6.7 c-4-1.3-16.9-6.7-39.8-15.5c-17.5-6.7-32.4-12.1-44.5-15.5c-16.9-4-32.4-6.1-47.2-6.1c-42.5,0.7-81.7,12.1-118.8,35.1 c-37.1,22.3-66.1,52.6-87.7,91.1C14.2,418.4,0,475.8,0,541.3C0,600,10.1,660,31,722.8c18.9,57.4,43.9,108,74.2,151.8 c17.5,26.3,32.4,46.6,44.5,60.7c17.5,21.6,35.1,37.1,52,47.9C222,996.1,242.3,1002.2,263.9,1002.2z" /><path
   id="SVGID_43_"
   d="M263.9,1002.2c13.5-0.7,27.7-3.4,41.2-7.4c6.7-2,18.2-6.7,35.8-14.2c14.8-6.1,27-10.8,37.8-13.5 c15.5-4,31.7-6.1,48.6-6.1c16.9,0,33.1,2,48.6,6.1c9.4,2.7,22.3,7.4,37.8,14.2c15.5,6.7,27.7,10.8,35.8,13.5 c14.2,4,28.3,6.1,43.2,5.4c21.6,0,41.8-6.1,60.7-18.2c16.2-10.8,32.4-25.6,49.3-45.9c10.8-12.8,25-32.4,43.2-58.7 c19.6-29.7,37.1-61.4,52-96.5c5.4-12.8,11.5-28.3,16.9-45.9c-10.8-4-22.3-10.1-35.1-18.9c-26.3-17.5-47.9-39.1-64.1-64.1 c-22.9-34.4-34.4-74.2-35.1-119.5c0-37.1,8.8-72.9,27-105.3c12.8-22.9,30.4-43.9,51.3-62.8c9.4-8.8,19.6-16.2,30.4-22.9 c-25.6-37.8-60.1-64.8-102.6-81.7c-24.3-9.4-51.3-15.5-81-17.5c-15.5-1.3-31.7-0.7-47.9,2c-13.5,2-28.3,6.1-43.9,10.8 c-10.1,4-22.9,8.8-39.1,14.8c-16.2,6.7-27.7,10.8-33.7,12.8c-10.8,3.4-20.2,5.4-27,5.4c-8.8,0-20.2-2-33.7-6.7 c-4-1.3-16.9-6.7-39.8-15.5c-17.5-6.7-32.4-12.1-44.5-15.5c-16.9-4-32.4-6.1-47.2-6.1c-42.5,0.7-81.7,12.1-118.8,35.1 c-37.1,22.3-66.1,52.6-87.7,91.1C14.2,418.4,0,475.8,0,541.3C0,600,10.1,660,31,722.8c18.9,57.4,43.9,108,74.2,151.8 c17.5,26.3,32.4,46.6,44.5,60.7c17.5,21.6,35.1,37.1,52,47.9C222,996.1,242.3,1002.2,263.9,1002.2z" /><path
   id="SVGID_45_"
   d="M263.9,1002.2c13.5-0.7,27.7-3.4,41.2-7.4c6.7-2,18.2-6.7,35.8-14.2c14.8-6.1,27-10.8,37.8-13.5 c15.5-4,31.7-6.1,48.6-6.1c16.9,0,33.1,2,48.6,6.1c9.4,2.7,22.3,7.4,37.8,14.2c15.5,6.7,27.7,10.8,35.8,13.5 c14.2,4,28.3,6.1,43.2,5.4c21.6,0,41.8-6.1,60.7-18.2c16.2-10.8,32.4-25.6,49.3-45.9c10.8-12.8,25-32.4,43.2-58.7 c19.6-29.7,37.1-61.4,52-96.5c5.4-12.8,11.5-28.3,16.9-45.9c-10.8-4-22.3-10.1-35.1-18.9c-26.3-17.5-47.9-39.1-64.1-64.1 c-22.9-34.4-34.4-74.2-35.1-119.5c0-37.1,8.8-72.9,27-105.3c12.8-22.9,30.4-43.9,51.3-62.8c9.4-8.8,19.6-16.2,30.4-22.9 c-25.6-37.8-60.1-64.8-102.6-81.7c-24.3-9.4-51.3-15.5-81-17.5c-15.5-1.3-31.7-0.7-47.9,2c-13.5,2-28.3,6.1-43.9,10.8 c-10.1,4-22.9,8.8-39.1,14.8c-16.2,6.7-27.7,10.8-33.7,12.8c-10.8,3.4-20.2,5.4-27,5.4c-8.8,0-20.2-2-33.7-6.7 c-4-1.3-16.9-6.7-39.8-15.5c-17.5-6.7-32.4-12.1-44.5-15.5c-16.9-4-32.4-6.1-47.2-6.1c-42.5,0.7-81.7,12.1-118.8,35.1 c-37.1,22.3-66.1,52.6-87.7,91.1C14.2,418.4,0,475.8,0,541.3C0,600,10.1,660,31,722.8c18.9,57.4,43.9,108,74.2,151.8 c17.5,26.3,32.4,46.6,44.5,60.7c17.5,21.6,35.1,37.1,52,47.9C222,996.1,242.3,1002.2,263.9,1002.2z" /><path
   id="SVGID_47_"
   d="M263.9,1002.2c13.5-0.7,27.7-3.4,41.2-7.4c6.7-2,18.2-6.7,35.8-14.2c14.8-6.1,27-10.8,37.8-13.5 c15.5-4,31.7-6.1,48.6-6.1c16.9,0,33.1,2,48.6,6.1c9.4,2.7,22.3,7.4,37.8,14.2c15.5,6.7,27.7,10.8,35.8,13.5 c14.2,4,28.3,6.1,43.2,5.4c21.6,0,41.8-6.1,60.7-18.2c16.2-10.8,32.4-25.6,49.3-45.9c10.8-12.8,25-32.4,43.2-58.7 c19.6-29.7,37.1-61.4,52-96.5c5.4-12.8,11.5-28.3,16.9-45.9c-10.8-4-22.3-10.1-35.1-18.9c-26.3-17.5-47.9-39.1-64.1-64.1 c-22.9-34.4-34.4-74.2-35.1-119.5c0-37.1,8.8-72.9,27-105.3c12.8-22.9,30.4-43.9,51.3-62.8c9.4-8.8,19.6-16.2,30.4-22.9 c-25.6-37.8-60.1-64.8-102.6-81.7c-24.3-9.4-51.3-15.5-81-17.5c-15.5-1.3-31.7-0.7-47.9,2c-13.5,2-28.3,6.1-43.9,10.8 c-10.1,4-22.9,8.8-39.1,14.8c-16.2,6.7-27.7,10.8-33.7,12.8c-10.8,3.4-20.2,5.4-27,5.4c-8.8,0-20.2-2-33.7-6.7 c-4-1.3-16.9-6.7-39.8-15.5c-17.5-6.7-32.4-12.1-44.5-15.5c-16.9-4-32.4-6.1-47.2-6.1c-42.5,0.7-81.7,12.1-118.8,35.1 c-37.1,22.3-66.1,52.6-87.7,91.1C14.2,418.4,0,475.8,0,541.3C0,600,10.1,660,31,722.8c18.9,57.4,43.9,108,74.2,151.8 c17.5,26.3,32.4,46.6,44.5,60.7c17.5,21.6,35.1,37.1,52,47.9C222,996.1,242.3,1002.2,263.9,1002.2z" />
	
		<linearGradient
   id="SVGID_15_"
   gradientUnits="userSpaceOnUse"
   x1="-82"
   y1="224.5"
   x2="-82"
   y2="151.5"
   gradientTransform="matrix(1,0,0,-1,654,325)">
		<stop
   offset="0"
   style="stop-color:#7ED3F7"
   id="stop160" />
		<stop
   offset="1"
   style="stop-color:#003D7E"
   id="stop162" />
	</linearGradient>
	
	

	
		<linearGradient
   id="SVGID_14_"
   gradientUnits="userSpaceOnUse"
   x1="-24"
   y1="311.5"
   x2="-24"
   y2="238"
   gradientTransform="matrix(1,0,0,-1,654,325)">
		<stop
   offset="0"
   style="stop-color:#7ED3F7"
   id="stop149" />
		<stop
   offset="1"
   style="stop-color:#003D7E"
   id="stop151" />
	</linearGradient>
	
	

	
		<linearGradient
   id="SVGID_13_"
   gradientUnits="userSpaceOnUse"
   x1="-208.3335"
   y1="311.5"
   x2="-208.3335"
   y2="238"
   gradientTransform="matrix(1,0,0,-1,654,325)">
		<stop
   offset="0"
   style="stop-color:#7ED3F7"
   id="stop138" />
		<stop
   offset="1"
   style="stop-color:#003D7E"
   id="stop140" />
	</linearGradient>
	
	

	
		<linearGradient
   id="SVGID_12_"
   gradientUnits="userSpaceOnUse"
   x1="-369.74951"
   y1="311.5"
   x2="-369.74951"
   y2="238"
   gradientTransform="matrix(1,0,0,-1,654,325)">
		<stop
   offset="0"
   style="stop-color:#7ED3F7"
   id="stop127" />
		<stop
   offset="1"
   style="stop-color:#003D7E"
   id="stop129" />
	</linearGradient>
	
	

	
		<linearGradient
   id="SVGID_11_"
   gradientUnits="userSpaceOnUse"
   x1="-403"
   y1="311.5"
   x2="-403"
   y2="238"
   gradientTransform="matrix(1,0,0,-1,654,325)">
		<stop
   offset="0"
   style="stop-color:#7ED3F7"
   id="stop116" />
		<stop
   offset="1"
   style="stop-color:#003D7E"
   id="stop118" />
	</linearGradient>
	
	

	
	

		
			<linearGradient
   id="SVGID_10_"
   gradientUnits="userSpaceOnUse"
   x1="-498.50049"
   y1="311.84671"
   x2="-498.50049"
   y2="236.83659"
   gradientTransform="matrix(1,0,0,-1,654,325)">
			<stop
   offset="0"
   style="stop-color:#7ED3F7"
   id="stop101" />
			<stop
   offset="1"
   style="stop-color:#003D7E"
   id="stop103" />
		</linearGradient>
		
	
		
	
	
		<linearGradient
   id="SVGID_9_"
   gradientUnits="userSpaceOnUse"
   x1="-303.91699"
   y1="311.5"
   x2="-303.91699"
   y2="238"
   gradientTransform="matrix(1,0,0,-1,654,325)">
		<stop
   offset="0"
   style="stop-color:#7ED3F7"
   id="stop90" />
		<stop
   offset="1"
   style="stop-color:#003D7E"
   id="stop92" />
	</linearGradient>
	
	

	
		<linearGradient
   id="SVGID_8_"
   gradientUnits="userSpaceOnUse"
   x1="-274.91699"
   y1="224.5"
   x2="-274.91699"
   y2="151.5"
   gradientTransform="matrix(1,0,0,-1,654,325)">
		<stop
   offset="0"
   style="stop-color:#7ED3F7"
   id="stop79" />
		<stop
   offset="1"
   style="stop-color:#003D7E"
   id="stop81" />
	</linearGradient>
	
	

	
		<linearGradient
   id="SVGID_7_"
   gradientUnits="userSpaceOnUse"
   x1="-593.4165"
   y1="311.5"
   x2="-593.4165"
   y2="238"
   gradientTransform="matrix(1,0,0,-1,654,325)">
		<stop
   offset="0"
   style="stop-color:#7ED3F7"
   id="stop68" />
		<stop
   offset="1"
   style="stop-color:#003D7E"
   id="stop70" />
	</linearGradient>
	
	

	
		<linearGradient
   id="SVGID_6_"
   gradientUnits="userSpaceOnUse"
   x1="-308.75"
   y1="224.5"
   x2="-308.75"
   y2="151.5"
   gradientTransform="matrix(1,0,0,-1,654,325)">
		<stop
   offset="0"
   style="stop-color:#7ED3F7"
   id="stop57" />
		<stop
   offset="1"
   style="stop-color:#003D7E"
   id="stop59" />
	</linearGradient>
	
	

		
		
		
		
		
		
		
		
		
	
		
	
			
			
			
			
			
			
			
			
			
		
				
				
				
				
			</defs><g
     inkscape:label="Layer 1"
     inkscape:groupmode="layer"
     id="layer1"><path
       id="rect231"
       style="fill:#ffffff;stroke-width:0.8001;stroke-linecap:square;paint-order:fill markers stroke"
       d="M 0 0 L 0 132.29167 L 396.875 132.29167 L 396.875 0 L 0 0 z M 370.84041 14.263212 L 371.77369 14.612545 L 371.77369 14.893665 L 390.42837 21.88807 L 390.42837 29.271082 L 386.20743 27.688232 L 386.20743 27.694434 L 377.75369 24.525118 L 377.75369 24.521501 L 371.10345 22.027079 L 371.10345 21.746476 L 370.84041 21.648291 L 370.84041 14.263212 z M 369.81567 14.642517 L 369.81567 22.027079 L 363.16646 24.520467 L 363.16646 38.862227 L 354.7122 35.692395 L 354.7122 27.688232 L 350.49023 29.271082 L 350.49023 21.88807 L 369.81567 14.642517 z M 113.32435 15.525151 C 126.67534 15.525151 129.64241 15.860568 132.08341 17.726567 C 134.52341 19.593565 135.24136 22.799145 135.24136 31.939136 C 135.24136 41.126127 134.52341 44.333249 132.08341 46.199247 C 129.64241 48.065245 126.62745 48.400146 113.42047 48.400146 C 99.973481 48.400146 97.006318 48.065245 94.566321 46.199247 C 92.077323 44.285249 91.408374 41.126407 91.408374 31.747416 C 91.408374 22.847425 92.125323 19.593565 94.566321 17.726567 C 97.006318 15.860568 99.973362 15.525151 113.32435 15.525151 z M 216.8803 15.525151 C 226.16329 15.525151 229.5136 15.956306 231.7626 17.487305 C 233.6766 18.779303 234.44254 20.789564 234.44254 24.56956 C 234.44254 24.76156 234.44248 25.431191 234.39448 26.05319 L 225.01521 26.05319 C 224.91921 24.282192 224.77667 23.851309 224.05868 23.421309 C 223.24468 22.94231 222.0484 22.847184 215.15741 22.847184 C 206.92642 22.847184 206.25666 23.038466 206.25666 25.383464 C 206.25666 26.579462 206.68723 27.201186 207.69223 27.440186 C 208.55323 27.680185 211.18547 27.823344 217.93347 28.015344 C 228.46046 28.350344 230.5185 28.589382 232.5765 29.88138 C 234.7775 31.317379 235.59027 33.47017 235.59027 37.920166 C 235.59027 43.47116 234.25121 46.1991 230.94921 47.443099 C 229.03521 48.161098 225.01526 48.400146 215.49227 48.400146 C 205.58728 48.400146 201.71021 47.969109 199.46121 46.534111 C 197.26021 45.146112 196.54253 43.280209 196.54253 38.877214 L 196.54253 37.346558 L 205.96934 37.346558 C 205.96934 39.260556 206.16139 39.882361 206.92639 40.361361 C 207.83639 40.93536 208.88854 41.031087 215.73153 41.031087 C 226.16352 41.031087 226.16346 41.031484 226.16346 38.207487 C 226.16346 36.293489 225.44626 35.815326 222.33527 35.767326 L 214.6794 35.480522 L 209.51021 35.240226 L 206.92639 35.145142 C 199.0314 34.906142 196.82933 32.896464 196.82933 25.861471 C 196.82933 19.784477 198.55257 17.056275 202.95557 16.099276 C 204.82157 15.716276 209.22331 15.525151 216.8803 15.525151 z M 260.2482 15.525151 C 273.59918 15.525151 276.56626 15.860568 279.00726 17.726567 C 281.44726 19.593565 282.16521 22.799145 282.16521 31.939136 C 282.16521 41.126127 281.44726 44.333249 279.00726 46.199247 C 276.56626 48.065245 273.5513 48.400146 260.34432 48.400146 C 246.89733 48.400146 243.93068 48.065245 241.49069 46.199247 C 239.00169 44.285249 238.33171 41.126407 238.33171 31.747416 C 238.33171 22.847425 239.04969 19.593565 241.49069 17.726567 C 243.93068 15.860568 246.89721 15.525151 260.2482 15.525151 z M 5.7944784 16.004191 L 44.412276 16.004191 L 44.412276 24.139095 L 30.19919 24.139095 L 30.19919 47.922139 L 20.006531 47.922139 L 20.006531 24.139095 L 5.7944784 24.139095 L 5.7944784 16.004191 z M 45.252535 16.004191 L 55.445194 16.004191 L 55.445194 27.440186 L 77.410262 27.440186 L 77.410262 16.004191 L 87.602405 16.004191 L 87.602405 47.922139 L 77.410262 47.922139 L 77.410262 36.38951 L 55.445194 36.38951 L 55.445194 47.922139 L 45.252535 47.922139 L 45.252535 16.004191 z M 139.0897 16.004191 L 156.69948 16.004191 L 166.17435 36.724373 L 175.69729 16.004191 L 193.21146 16.004191 L 193.21146 47.922139 L 183.6415 47.922139 L 183.88025 24.043494 L 182.25347 24.043494 L 170.24232 47.922139 L 162.15548 47.922139 L 150.14329 24.043494 L 148.42143 24.043494 L 148.66069 47.922139 L 139.0897 47.922139 L 139.0897 16.004191 z M 286.01355 16.004191 L 303.0492 16.004191 L 319.75051 39.787236 L 320.75562 39.787236 L 320.51532 16.004191 L 330.42169 16.004191 L 330.42169 47.922139 L 313.5297 47.922139 L 296.73228 24.091553 L 295.68066 24.091553 L 295.91941 47.922139 L 286.01355 47.922139 L 286.01355 16.004191 z M 113.32435 23.804232 C 103.75436 23.804232 102.84432 23.947413 101.88732 25.813411 C 101.31332 26.91441 101.12251 28.733069 101.12251 32.800065 C 101.12251 36.772061 101.40957 38.064333 102.55756 38.973332 C 103.84956 39.978331 105.38148 40.122099 113.42047 40.122099 C 121.22046 40.122099 122.79965 39.930331 124.09165 38.973332 C 125.19265 38.112333 125.52722 36.72412 125.52722 32.848124 C 125.52722 28.110129 125.24045 26.292285 124.37845 25.239286 C 123.27846 23.947288 122.22534 23.804232 113.32435 23.804232 z M 260.2482 23.804232 C 250.67821 23.804232 249.76869 23.947413 248.81169 25.813411 C 248.23769 26.91441 248.04636 28.733069 248.04636 32.800065 C 248.04636 36.772061 248.33341 38.064333 249.48141 38.973332 C 250.77341 39.978331 252.30532 40.122099 260.34432 40.122099 C 268.14431 40.122099 269.7235 39.930331 271.0155 38.973332 C 272.1165 38.112333 272.45159 36.72412 272.45159 32.848124 C 272.45159 28.110129 272.1643 26.292285 271.3023 25.239286 C 270.2023 23.947288 269.14919 23.804232 260.2482 23.804232 z M 377.75369 25.064103 L 386.20743 28.234452 L 386.20743 36.237065 L 390.42837 34.654215 L 390.42837 42.037227 L 371.10345 49.283297 L 371.10345 41.899251 L 377.75369 39.405347 L 377.75369 25.064103 z M 350.49023 34.654215 L 354.7122 36.237065 L 354.7122 36.23138 L 363.16646 39.401213 L 363.16646 39.405347 L 369.81567 41.898218 L 369.81567 42.179854 L 370.0787 42.278556 L 370.0787 49.662085 L 369.14543 49.313269 L 369.14543 49.032149 L 350.49023 42.037227 L 350.49023 34.654215 z M 219.35457 62.225142 L 226.84248 62.225142 L 226.81355 62.275269 L 231.11561 62.275269 L 198.82559 118.59018 L 191.39659 118.59018 L 191.42552 118.54108 L 187.12243 118.54108 L 219.35457 62.225142 z M 138.60446 66.900309 C 157.69844 66.900309 161.94125 67.37944 165.43125 70.048437 C 168.92124 72.717435 169.94828 77.302308 169.94828 90.373295 C 169.94828 103.51328 168.92124 108.0984 165.43125 110.7674 C 161.94125 113.4364 157.62938 113.91553 138.7414 113.91553 C 119.51042 113.91553 115.26767 113.4364 111.77767 110.7674 C 108.21868 108.0304 107.26064 103.51343 107.26064 90.100444 C 107.26064 77.370456 108.28768 72.717435 111.77767 70.048437 C 115.26767 67.37944 119.51048 66.900309 138.60446 66.900309 z M 338.03156 66.900309 C 357.12454 66.900309 361.36735 67.37944 364.85835 70.048437 C 368.34835 72.717435 369.37435 77.302308 369.37435 90.373295 C 369.37435 103.51328 368.34835 108.0984 364.85835 110.7674 C 361.36735 113.4364 357.05649 113.91553 338.16851 113.91553 C 318.93753 113.91553 314.69426 113.4364 311.20426 110.7674 C 307.64526 108.0304 306.68722 103.51343 306.68722 90.100444 C 306.68722 77.370456 307.71426 72.717435 311.20426 70.048437 C 314.69426 67.37944 318.93758 66.900309 338.03156 66.900309 z M 24.41143 67.584505 L 49.595422 67.584505 L 63.146533 97.217322 L 76.76534 67.584505 L 101.81239 67.584505 L 101.81239 113.23133 L 88.12537 113.23133 L 88.467468 79.081478 L 86.140479 79.081478 L 68.963232 113.23133 L 57.39753 113.23133 L 40.220284 79.081478 L 37.756352 79.081478 L 38.09845 113.23133 L 24.41143 113.23133 L 24.41143 67.584505 z M 248.29027 67.584505 L 303.51842 67.584505 L 303.51842 79.21842 L 283.19253 79.21842 L 283.19253 113.23133 L 268.61565 113.23133 L 268.61565 79.21842 L 248.29027 79.21842 L 248.29027 67.584505 z M 138.60446 78.73938 C 124.91747 78.73938 123.61635 78.944142 122.24835 81.61414 C 121.42735 83.188138 121.15333 85.788267 121.15333 91.605261 C 121.15333 97.285256 121.56343 99.133147 123.20643 100.43315 C 125.05443 101.87114 127.24441 102.07646 138.7414 102.07646 C 149.89639 102.07646 152.15449 101.80214 154.00249 100.43315 C 155.57648 99.202147 156.05559 97.217502 156.05559 91.674508 C 156.05559 84.898514 155.64531 82.298483 154.41331 80.792485 C 152.83932 78.944486 151.33345 78.73938 138.60446 78.73938 z M 338.03156 78.73938 C 324.34358 78.73938 323.04342 78.944142 321.67442 81.61414 C 320.85342 83.188138 320.58043 85.788267 320.58043 91.605261 C 320.58043 97.285256 320.99054 99.133147 322.63354 100.43315 C 324.48053 101.87114 326.67052 102.07646 338.16851 102.07646 C 349.32349 102.07646 351.58159 101.80214 353.42959 100.43315 C 355.00359 99.202147 355.48269 97.217502 355.48269 91.674508 C 355.48269 84.898514 355.07138 82.298483 353.83938 80.792485 C 352.26539 78.944486 350.76055 78.73938 338.03156 78.73938 z " /><g
       id="g8287"
       transform="translate(5.4954475,13.70131)" /></g><style
     type="text/css"
     id="style5697">
	.st0{fill:#E62229;}
	.st1{fill:#019B43;}
	.st2{fill:#FFFFFF;}
</style></svg>
