<?xml version="1.0" encoding="UTF-8" standalone="no"?>
<!-- Created with Inkscape (http://www.inkscape.org/) -->

<svg
   width="1500"
   height="500"
   viewBox="0 0 396.87498 132.29167"
   version="1.1"
   id="svg5"
   inkscape:version="1.2.2 (732a01da63, 2022-12-09)"
   xml:space="preserve"
   sodipodi:docname="msx2.svg"
   xmlns:inkscape="http://www.inkscape.org/namespaces/inkscape"
   xmlns:sodipodi="http://sodipodi.sourceforge.net/DTD/sodipodi-0.dtd"
   xmlns="http://www.w3.org/2000/svg"
   xmlns:svg="http://www.w3.org/2000/svg"><sodipodi:namedview
     id="namedview7"
     pagecolor="#000000"
     bordercolor="#111111"
     borderopacity="1"
     inkscape:showpageshadow="0"
     inkscape:pageopacity="0"
     inkscape:pagecheckerboard="1"
     inkscape:deskcolor="#d1d1d1"
     inkscape:document-units="mm"
     showgrid="false"
     inkscape:zoom="0.44378316"
     inkscape:cx="694.03264"
     inkscape:cy="369.54985"
     inkscape:window-width="1920"
     inkscape:window-height="1009"
     inkscape:window-x="-8"
     inkscape:window-y="-8"
     inkscape:window-maximized="1"
     inkscape:current-layer="layer1" /><defs
     id="defs2"><path
   id="SVGID_37_"
   d="M263.9,1002.2c13.5-0.7,27.7-3.4,41.2-7.4c6.7-2,18.2-6.7,35.8-14.2c14.8-6.1,27-10.8,37.8-13.5 c15.5-4,31.7-6.1,48.6-6.1c16.9,0,33.1,2,48.6,6.1c9.4,2.7,22.3,7.4,37.8,14.2c15.5,6.7,27.7,10.8,35.8,13.5 c14.2,4,28.3,6.1,43.2,5.4c21.6,0,41.8-6.1,60.7-18.2c16.2-10.8,32.4-25.6,49.3-45.9c10.8-12.8,25-32.4,43.2-58.7 c19.6-29.7,37.1-61.4,52-96.5c5.4-12.8,11.5-28.3,16.9-45.9c-10.8-4-22.3-10.1-35.1-18.9c-26.3-17.5-47.9-39.1-64.1-64.1 c-22.9-34.4-34.4-74.2-35.1-119.5c0-37.1,8.8-72.9,27-105.3c12.8-22.9,30.4-43.9,51.3-62.8c9.4-8.8,19.6-16.2,30.4-22.9 c-25.6-37.8-60.1-64.8-102.6-81.7c-24.3-9.4-51.3-15.5-81-17.5c-15.5-1.3-31.7-0.7-47.9,2c-13.5,2-28.3,6.1-43.9,10.8 c-10.1,4-22.9,8.8-39.1,14.8c-16.2,6.7-27.7,10.8-33.7,12.8c-10.8,3.4-20.2,5.4-27,5.4c-8.8,0-20.2-2-33.7-6.7 c-4-1.3-16.9-6.7-39.8-15.5c-17.5-6.7-32.4-12.1-44.5-15.5c-16.9-4-32.4-6.1-47.2-6.1c-42.5,0.7-81.7,12.1-118.8,35.1 c-37.1,22.3-66.1,52.6-87.7,91.1C14.2,418.4,0,475.8,0,541.3C0,600,10.1,660,31,722.8c18.9,57.4,43.9,108,74.2,151.8 c17.5,26.3,32.4,46.6,44.5,60.7c17.5,21.6,35.1,37.1,52,47.9C222,996.1,242.3,1002.2,263.9,1002.2z" /><path
   id="SVGID_39_"
   d="M263.9,1002.2c13.5-0.7,27.7-3.4,41.2-7.4c6.7-2,18.2-6.7,35.8-14.2c14.8-6.1,27-10.8,37.8-13.5 c15.5-4,31.7-6.1,48.6-6.1c16.9,0,33.1,2,48.6,6.1c9.4,2.7,22.3,7.4,37.8,14.2c15.5,6.7,27.7,10.8,35.8,13.5 c14.2,4,28.3,6.1,43.2,5.4c21.6,0,41.8-6.1,60.7-18.2c16.2-10.8,32.4-25.6,49.3-45.9c10.8-12.8,25-32.4,43.2-58.7 c19.6-29.7,37.1-61.4,52-96.5c5.4-12.8,11.5-28.3,16.9-45.9c-10.8-4-22.3-10.1-35.1-18.9c-26.3-17.5-47.9-39.1-64.1-64.1 c-22.9-34.4-34.4-74.2-35.1-119.5c0-37.1,8.8-72.9,27-105.3c12.8-22.9,30.4-43.9,51.3-62.8c9.4-8.8,19.6-16.2,30.4-22.9 c-25.6-37.8-60.1-64.8-102.6-81.7c-24.3-9.4-51.3-15.5-81-17.5c-15.5-1.3-31.7-0.7-47.9,2c-13.5,2-28.3,6.1-43.9,10.8 c-10.1,4-22.9,8.8-39.1,14.8c-16.2,6.7-27.7,10.8-33.7,12.8c-10.8,3.4-20.2,5.4-27,5.4c-8.8,0-20.2-2-33.7-6.7 c-4-1.3-16.9-6.7-39.8-15.5c-17.5-6.7-32.4-12.1-44.5-15.5c-16.9-4-32.4-6.1-47.2-6.1c-42.5,0.7-81.7,12.1-118.8,35.1 c-37.1,22.3-66.1,52.6-87.7,91.1C14.2,418.4,0,475.8,0,541.3C0,600,10.1,660,31,722.8c18.9,57.4,43.9,108,74.2,151.8 c17.5,26.3,32.4,46.6,44.5,60.7c17.5,21.6,35.1,37.1,52,47.9C222,996.1,242.3,1002.2,263.9,1002.2z" /><path
   id="SVGID_41_"
   d="M263.9,1002.2c13.5-0.7,27.7-3.4,41.2-7.4c6.7-2,18.2-6.7,35.8-14.2c14.8-6.1,27-10.8,37.8-13.5 c15.5-4,31.7-6.1,48.6-6.1c16.9,0,33.1,2,48.6,6.1c9.4,2.7,22.3,7.4,37.8,14.2c15.5,6.7,27.7,10.8,35.8,13.5 c14.2,4,28.3,6.1,43.2,5.4c21.6,0,41.8-6.1,60.7-18.2c16.2-10.8,32.4-25.6,49.3-45.9c10.8-12.8,25-32.4,43.2-58.7 c19.6-29.7,37.1-61.4,52-96.5c5.4-12.8,11.5-28.3,16.9-45.9c-10.8-4-22.3-10.1-35.1-18.9c-26.3-17.5-47.9-39.1-64.1-64.1 c-22.9-34.4-34.4-74.2-35.1-119.5c0-37.1,8.8-72.9,27-105.3c12.8-22.9,30.4-43.9,51.3-62.8c9.4-8.8,19.6-16.2,30.4-22.9 c-25.6-37.8-60.1-64.8-102.6-81.7c-24.3-9.4-51.3-15.5-81-17.5c-15.5-1.3-31.7-0.7-47.9,2c-13.5,2-28.3,6.1-43.9,10.8 c-10.1,4-22.9,8.8-39.1,14.8c-16.2,6.7-27.7,10.8-33.7,12.8c-10.8,3.4-20.2,5.4-27,5.4c-8.8,0-20.2-2-33.7-6.7 c-4-1.3-16.9-6.7-39.8-15.5c-17.5-6.7-32.4-12.1-44.5-15.5c-16.9-4-32.4-6.1-47.2-6.1c-42.5,0.7-81.7,12.1-118.8,35.1 c-37.1,22.3-66.1,52.6-87.7,91.1C14.2,418.4,0,475.8,0,541.3C0,600,10.1,660,31,722.8c18.9,57.4,43.9,108,74.2,151.8 c17.5,26.3,32.4,46.6,44.5,60.7c17.5,21.6,35.1,37.1,52,47.9C222,996.1,242.3,1002.2,263.9,1002.2z" /><path
   id="SVGID_43_"
   d="M263.9,1002.2c13.5-0.7,27.7-3.4,41.2-7.4c6.7-2,18.2-6.7,35.8-14.2c14.8-6.1,27-10.8,37.8-13.5 c15.5-4,31.7-6.1,48.6-6.1c16.9,0,33.1,2,48.6,6.1c9.4,2.7,22.3,7.4,37.8,14.2c15.5,6.7,27.7,10.8,35.8,13.5 c14.2,4,28.3,6.1,43.2,5.4c21.6,0,41.8-6.1,60.7-18.2c16.2-10.8,32.4-25.6,49.3-45.9c10.8-12.8,25-32.4,43.2-58.7 c19.6-29.7,37.1-61.4,52-96.5c5.4-12.8,11.5-28.3,16.9-45.9c-10.8-4-22.3-10.1-35.1-18.9c-26.3-17.5-47.9-39.1-64.1-64.1 c-22.9-34.4-34.4-74.2-35.1-119.5c0-37.1,8.8-72.9,27-105.3c12.8-22.9,30.4-43.9,51.3-62.8c9.4-8.8,19.6-16.2,30.4-22.9 c-25.6-37.8-60.1-64.8-102.6-81.7c-24.3-9.4-51.3-15.5-81-17.5c-15.5-1.3-31.7-0.7-47.9,2c-13.5,2-28.3,6.1-43.9,10.8 c-10.1,4-22.9,8.8-39.1,14.8c-16.2,6.7-27.7,10.8-33.7,12.8c-10.8,3.4-20.2,5.4-27,5.4c-8.8,0-20.2-2-33.7-6.7 c-4-1.3-16.9-6.7-39.8-15.5c-17.5-6.7-32.4-12.1-44.5-15.5c-16.9-4-32.4-6.1-47.2-6.1c-42.5,0.7-81.7,12.1-118.8,35.1 c-37.1,22.3-66.1,52.6-87.7,91.1C14.2,418.4,0,475.8,0,541.3C0,600,10.1,660,31,722.8c18.9,57.4,43.9,108,74.2,151.8 c17.5,26.3,32.4,46.6,44.5,60.7c17.5,21.6,35.1,37.1,52,47.9C222,996.1,242.3,1002.2,263.9,1002.2z" /><path
   id="SVGID_45_"
   d="M263.9,1002.2c13.5-0.7,27.7-3.4,41.2-7.4c6.7-2,18.2-6.7,35.8-14.2c14.8-6.1,27-10.8,37.8-13.5 c15.5-4,31.7-6.1,48.6-6.1c16.9,0,33.1,2,48.6,6.1c9.4,2.7,22.3,7.4,37.8,14.2c15.5,6.7,27.7,10.8,35.8,13.5 c14.2,4,28.3,6.1,43.2,5.4c21.6,0,41.8-6.1,60.7-18.2c16.2-10.8,32.4-25.6,49.3-45.9c10.8-12.8,25-32.4,43.2-58.7 c19.6-29.7,37.1-61.4,52-96.5c5.4-12.8,11.5-28.3,16.9-45.9c-10.8-4-22.3-10.1-35.1-18.9c-26.3-17.5-47.9-39.1-64.1-64.1 c-22.9-34.4-34.4-74.2-35.1-119.5c0-37.1,8.8-72.9,27-105.3c12.8-22.9,30.4-43.9,51.3-62.8c9.4-8.8,19.6-16.2,30.4-22.9 c-25.6-37.8-60.1-64.8-102.6-81.7c-24.3-9.4-51.3-15.5-81-17.5c-15.5-1.3-31.7-0.7-47.9,2c-13.5,2-28.3,6.1-43.9,10.8 c-10.1,4-22.9,8.8-39.1,14.8c-16.2,6.7-27.7,10.8-33.7,12.8c-10.8,3.4-20.2,5.4-27,5.4c-8.8,0-20.2-2-33.7-6.7 c-4-1.3-16.9-6.7-39.8-15.5c-17.5-6.7-32.4-12.1-44.5-15.5c-16.9-4-32.4-6.1-47.2-6.1c-42.5,0.7-81.7,12.1-118.8,35.1 c-37.1,22.3-66.1,52.6-87.7,91.1C14.2,418.4,0,475.8,0,541.3C0,600,10.1,660,31,722.8c18.9,57.4,43.9,108,74.2,151.8 c17.5,26.3,32.4,46.6,44.5,60.7c17.5,21.6,35.1,37.1,52,47.9C222,996.1,242.3,1002.2,263.9,1002.2z" /><path
   id="SVGID_47_"
   d="M263.9,1002.2c13.5-0.7,27.7-3.4,41.2-7.4c6.7-2,18.2-6.7,35.8-14.2c14.8-6.1,27-10.8,37.8-13.5 c15.5-4,31.7-6.1,48.6-6.1c16.9,0,33.1,2,48.6,6.1c9.4,2.7,22.3,7.4,37.8,14.2c15.5,6.7,27.7,10.8,35.8,13.5 c14.2,4,28.3,6.1,43.2,5.4c21.6,0,41.8-6.1,60.7-18.2c16.2-10.8,32.4-25.6,49.3-45.9c10.8-12.8,25-32.4,43.2-58.7 c19.6-29.7,37.1-61.4,52-96.5c5.4-12.8,11.5-28.3,16.9-45.9c-10.8-4-22.3-10.1-35.1-18.9c-26.3-17.5-47.9-39.1-64.1-64.1 c-22.9-34.4-34.4-74.2-35.1-119.5c0-37.1,8.8-72.9,27-105.3c12.8-22.9,30.4-43.9,51.3-62.8c9.4-8.8,19.6-16.2,30.4-22.9 c-25.6-37.8-60.1-64.8-102.6-81.7c-24.3-9.4-51.3-15.5-81-17.5c-15.5-1.3-31.7-0.7-47.9,2c-13.5,2-28.3,6.1-43.9,10.8 c-10.1,4-22.9,8.8-39.1,14.8c-16.2,6.7-27.7,10.8-33.7,12.8c-10.8,3.4-20.2,5.4-27,5.4c-8.8,0-20.2-2-33.7-6.7 c-4-1.3-16.9-6.7-39.8-15.5c-17.5-6.7-32.4-12.1-44.5-15.5c-16.9-4-32.4-6.1-47.2-6.1c-42.5,0.7-81.7,12.1-118.8,35.1 c-37.1,22.3-66.1,52.6-87.7,91.1C14.2,418.4,0,475.8,0,541.3C0,600,10.1,660,31,722.8c18.9,57.4,43.9,108,74.2,151.8 c17.5,26.3,32.4,46.6,44.5,60.7c17.5,21.6,35.1,37.1,52,47.9C222,996.1,242.3,1002.2,263.9,1002.2z" />
	
		<linearGradient
   id="SVGID_15_"
   gradientUnits="userSpaceOnUse"
   x1="-82"
   y1="224.5"
   x2="-82"
   y2="151.5"
   gradientTransform="matrix(1,0,0,-1,654,325)">
		<stop
   offset="0"
   style="stop-color:#7ED3F7"
   id="stop160" />
		<stop
   offset="1"
   style="stop-color:#003D7E"
   id="stop162" />
	</linearGradient>
	
	

	
		<linearGradient
   id="SVGID_14_"
   gradientUnits="userSpaceOnUse"
   x1="-24"
   y1="311.5"
   x2="-24"
   y2="238"
   gradientTransform="matrix(1,0,0,-1,654,325)">
		<stop
   offset="0"
   style="stop-color:#7ED3F7"
   id="stop149" />
		<stop
   offset="1"
   style="stop-color:#003D7E"
   id="stop151" />
	</linearGradient>
	
	

	
		<linearGradient
   id="SVGID_13_"
   gradientUnits="userSpaceOnUse"
   x1="-208.3335"
   y1="311.5"
   x2="-208.3335"
   y2="238"
   gradientTransform="matrix(1,0,0,-1,654,325)">
		<stop
   offset="0"
   style="stop-color:#7ED3F7"
   id="stop138" />
		<stop
   offset="1"
   style="stop-color:#003D7E"
   id="stop140" />
	</linearGradient>
	
	

	
		<linearGradient
   id="SVGID_12_"
   gradientUnits="userSpaceOnUse"
   x1="-369.74951"
   y1="311.5"
   x2="-369.74951"
   y2="238"
   gradientTransform="matrix(1,0,0,-1,654,325)">
		<stop
   offset="0"
   style="stop-color:#7ED3F7"
   id="stop127" />
		<stop
   offset="1"
   style="stop-color:#003D7E"
   id="stop129" />
	</linearGradient>
	
	

	
		<linearGradient
   id="SVGID_11_"
   gradientUnits="userSpaceOnUse"
   x1="-403"
   y1="311.5"
   x2="-403"
   y2="238"
   gradientTransform="matrix(1,0,0,-1,654,325)">
		<stop
   offset="0"
   style="stop-color:#7ED3F7"
   id="stop116" />
		<stop
   offset="1"
   style="stop-color:#003D7E"
   id="stop118" />
	</linearGradient>
	
	

	
	

		
			<linearGradient
   id="SVGID_10_"
   gradientUnits="userSpaceOnUse"
   x1="-498.50049"
   y1="311.84671"
   x2="-498.50049"
   y2="236.83659"
   gradientTransform="matrix(1,0,0,-1,654,325)">
			<stop
   offset="0"
   style="stop-color:#7ED3F7"
   id="stop101" />
			<stop
   offset="1"
   style="stop-color:#003D7E"
   id="stop103" />
		</linearGradient>
		
	
		
	
	
		<linearGradient
   id="SVGID_9_"
   gradientUnits="userSpaceOnUse"
   x1="-303.91699"
   y1="311.5"
   x2="-303.91699"
   y2="238"
   gradientTransform="matrix(1,0,0,-1,654,325)">
		<stop
   offset="0"
   style="stop-color:#7ED3F7"
   id="stop90" />
		<stop
   offset="1"
   style="stop-color:#003D7E"
   id="stop92" />
	</linearGradient>
	
	

	
		<linearGradient
   id="SVGID_8_"
   gradientUnits="userSpaceOnUse"
   x1="-274.91699"
   y1="224.5"
   x2="-274.91699"
   y2="151.5"
   gradientTransform="matrix(1,0,0,-1,654,325)">
		<stop
   offset="0"
   style="stop-color:#7ED3F7"
   id="stop79" />
		<stop
   offset="1"
   style="stop-color:#003D7E"
   id="stop81" />
	</linearGradient>
	
	

	
		<linearGradient
   id="SVGID_7_"
   gradientUnits="userSpaceOnUse"
   x1="-593.4165"
   y1="311.5"
   x2="-593.4165"
   y2="238"
   gradientTransform="matrix(1,0,0,-1,654,325)">
		<stop
   offset="0"
   style="stop-color:#7ED3F7"
   id="stop68" />
		<stop
   offset="1"
   style="stop-color:#003D7E"
   id="stop70" />
	</linearGradient>
	
	

	
		<linearGradient
   id="SVGID_6_"
   gradientUnits="userSpaceOnUse"
   x1="-308.75"
   y1="224.5"
   x2="-308.75"
   y2="151.5"
   gradientTransform="matrix(1,0,0,-1,654,325)">
		<stop
   offset="0"
   style="stop-color:#7ED3F7"
   id="stop57" />
		<stop
   offset="1"
   style="stop-color:#003D7E"
   id="stop59" />
	</linearGradient>
	
	

		
		
		
		
		
		
		
		
		
	
		
	
			
			
			
			
			
			
			
			
			
		
				
				
				
				
			</defs><g
     inkscape:label="Layer 1"
     inkscape:groupmode="layer"
     id="layer1"><path
       id="rect231"
       style="fill:#ffffff;stroke-width:0.8001;stroke-linecap:square;paint-order:fill markers stroke"
       d="M 0 0 L 0 132.29167 L 336.24459 132.29167 C 336.24459 120.19208 339.32837 109.08953 349.33165 98.842029 L 364.64648 83.282772 C 369.09351 78.835739 370.82388 75.508126 370.82388 68.964783 C 370.82388 61.556457 368.47311 59.205688 364.90124 59.205688 C 361.69571 59.205688 358.47993 60.935707 358.47993 70.816866 L 358.47993 74.521033 L 336.9877 74.521033 L 336.9877 74.510697 C 337.1098 65.494521 338.21865 58.208169 342.42148 53.038623 C 346.62427 47.848726 353.77848 44.887699 365.62368 44.887699 C 388.58134 44.887699 393.76098 55.633508 393.76098 68.710018 C 393.76098 80.565374 389.43626 88.096199 382.89291 94.629366 L 369.31751 107.83786 C 367.34332 109.81206 364.50428 112.40733 363.6393 115.00228 L 393.77131 115.00228 L 393.77131 132.29167 L 396.875 132.29167 L 396.875 0 L 329.14167 0 L 329.14167 132.28133 L 3.1036865 132.28133 L 3.1036865 0 L 0 0 z M 6.1567301 3.0530436 L 6.1567301 129.2288 L 326.08862 129.2288 L 326.08862 3.0530436 L 6.1567301 3.0530436 z M 54.198759 19.680969 L 75.904928 19.680969 L 87.251522 61.271195 L 98.598116 19.680969 L 120.29395 19.680969 L 139.11347 88.68606 L 185.66619 88.68606 L 185.66619 88.696395 C 192.71836 88.686208 192.71498 78.102726 185.65585 78.102726 L 185.65585 78.092908 L 164.67264 78.092908 C 125.73823 78.092908 125.73823 19.680969 164.67264 19.680969 L 237.39223 19.680969 L 254.7059 44.059843 L 272.02216 19.680969 L 301.33975 19.680969 L 269.36599 64.702511 L 303.37528 112.59054 L 274.05769 112.59054 L 254.70642 85.345178 L 235.35721 112.59054 L 206.02877 112.59054 L 240.04426 64.701994 L 225.05293 43.595272 L 210.00785 43.595272 L 210.00785 43.584937 L 164.67264 43.584937 C 157.61031 43.584937 157.61031 54.178605 164.67264 54.178605 L 164.67264 54.18894 L 185.65585 54.18894 C 224.59028 54.18894 224.59028 112.60036 185.65585 112.60036 L 185.65585 112.59054 L 120.85361 112.59054 L 109.4357 70.745553 L 98.03846 112.59054 L 76.464583 112.59054 L 65.046676 70.745553 L 53.639103 112.59054 L 28.849919 112.59054 L 54.198759 19.680969 z " /><g
       id="g8495"
       transform="matrix(0.26458333,0,0,0.26458333,-385.05059,33.709688)" /></g><style
     type="text/css"
     id="style5697">
	.st0{fill:#E62229;}
	.st1{fill:#019B43;}
	.st2{fill:#FFFFFF;}
</style></svg>
