<?xml version="1.0" encoding="UTF-8" standalone="no"?>
<!-- Created with Inkscape (http://www.inkscape.org/) -->

<svg
   width="1500"
   height="500"
   viewBox="0 0 396.87498 132.29167"
   version="1.1"
   id="svg5"
   inkscape:version="1.2.2 (732a01da63, 2022-12-09)"
   xml:space="preserve"
   sodipodi:docname="mugen.svg"
   xmlns:inkscape="http://www.inkscape.org/namespaces/inkscape"
   xmlns:sodipodi="http://sodipodi.sourceforge.net/DTD/sodipodi-0.dtd"
   xmlns="http://www.w3.org/2000/svg"
   xmlns:svg="http://www.w3.org/2000/svg"><sodipodi:namedview
     id="namedview7"
     pagecolor="#000000"
     bordercolor="#111111"
     borderopacity="1"
     inkscape:showpageshadow="0"
     inkscape:pageopacity="0"
     inkscape:pagecheckerboard="1"
     inkscape:deskcolor="#d1d1d1"
     inkscape:document-units="mm"
     showgrid="false"
     inkscape:zoom="0.44378316"
     inkscape:cx="694.03264"
     inkscape:cy="369.54985"
     inkscape:window-width="1920"
     inkscape:window-height="1009"
     inkscape:window-x="-8"
     inkscape:window-y="-8"
     inkscape:window-maximized="1"
     inkscape:current-layer="layer1" /><defs
     id="defs2"><path
   id="SVGID_37_"
   d="M263.9,1002.2c13.5-0.7,27.7-3.4,41.2-7.4c6.7-2,18.2-6.7,35.8-14.2c14.8-6.1,27-10.8,37.8-13.5 c15.5-4,31.7-6.1,48.6-6.1c16.9,0,33.1,2,48.6,6.1c9.4,2.7,22.3,7.4,37.8,14.2c15.5,6.7,27.7,10.8,35.8,13.5 c14.2,4,28.3,6.1,43.2,5.4c21.6,0,41.8-6.1,60.7-18.2c16.2-10.8,32.4-25.6,49.3-45.9c10.8-12.8,25-32.4,43.2-58.7 c19.6-29.7,37.1-61.4,52-96.5c5.4-12.8,11.5-28.3,16.9-45.9c-10.8-4-22.3-10.1-35.1-18.9c-26.3-17.5-47.9-39.1-64.1-64.1 c-22.9-34.4-34.4-74.2-35.1-119.5c0-37.1,8.8-72.9,27-105.3c12.8-22.9,30.4-43.9,51.3-62.8c9.4-8.8,19.6-16.2,30.4-22.9 c-25.6-37.8-60.1-64.8-102.6-81.7c-24.3-9.4-51.3-15.5-81-17.5c-15.5-1.3-31.7-0.7-47.9,2c-13.5,2-28.3,6.1-43.9,10.8 c-10.1,4-22.9,8.8-39.1,14.8c-16.2,6.7-27.7,10.8-33.7,12.8c-10.8,3.4-20.2,5.4-27,5.4c-8.8,0-20.2-2-33.7-6.7 c-4-1.3-16.9-6.7-39.8-15.5c-17.5-6.7-32.4-12.1-44.5-15.5c-16.9-4-32.4-6.1-47.2-6.1c-42.5,0.7-81.7,12.1-118.8,35.1 c-37.1,22.3-66.1,52.6-87.7,91.1C14.2,418.4,0,475.8,0,541.3C0,600,10.1,660,31,722.8c18.9,57.4,43.9,108,74.2,151.8 c17.5,26.3,32.4,46.6,44.5,60.7c17.5,21.6,35.1,37.1,52,47.9C222,996.1,242.3,1002.2,263.9,1002.2z" /><path
   id="SVGID_39_"
   d="M263.9,1002.2c13.5-0.7,27.7-3.4,41.2-7.4c6.7-2,18.2-6.7,35.8-14.2c14.8-6.1,27-10.8,37.8-13.5 c15.5-4,31.7-6.1,48.6-6.1c16.9,0,33.1,2,48.6,6.1c9.4,2.7,22.3,7.4,37.8,14.2c15.5,6.7,27.7,10.8,35.8,13.5 c14.2,4,28.3,6.1,43.2,5.4c21.6,0,41.8-6.1,60.7-18.2c16.2-10.8,32.4-25.6,49.3-45.9c10.8-12.8,25-32.4,43.2-58.7 c19.6-29.7,37.1-61.4,52-96.5c5.4-12.8,11.5-28.3,16.9-45.9c-10.8-4-22.3-10.1-35.1-18.9c-26.3-17.5-47.9-39.1-64.1-64.1 c-22.9-34.4-34.4-74.2-35.1-119.5c0-37.1,8.8-72.9,27-105.3c12.8-22.9,30.4-43.9,51.3-62.8c9.4-8.8,19.6-16.2,30.4-22.9 c-25.6-37.8-60.1-64.8-102.6-81.7c-24.3-9.4-51.3-15.5-81-17.5c-15.5-1.3-31.7-0.7-47.9,2c-13.5,2-28.3,6.1-43.9,10.8 c-10.1,4-22.9,8.8-39.1,14.8c-16.2,6.7-27.7,10.8-33.7,12.8c-10.8,3.4-20.2,5.4-27,5.4c-8.8,0-20.2-2-33.7-6.7 c-4-1.3-16.9-6.7-39.8-15.5c-17.5-6.7-32.4-12.1-44.5-15.5c-16.9-4-32.4-6.1-47.2-6.1c-42.5,0.7-81.7,12.1-118.8,35.1 c-37.1,22.3-66.1,52.6-87.7,91.1C14.2,418.4,0,475.8,0,541.3C0,600,10.1,660,31,722.8c18.9,57.4,43.9,108,74.2,151.8 c17.5,26.3,32.4,46.6,44.5,60.7c17.5,21.6,35.1,37.1,52,47.9C222,996.1,242.3,1002.2,263.9,1002.2z" /><path
   id="SVGID_41_"
   d="M263.9,1002.2c13.5-0.7,27.7-3.4,41.2-7.4c6.7-2,18.2-6.7,35.8-14.2c14.8-6.1,27-10.8,37.8-13.5 c15.5-4,31.7-6.1,48.6-6.1c16.9,0,33.1,2,48.6,6.1c9.4,2.7,22.3,7.4,37.8,14.2c15.5,6.7,27.7,10.8,35.8,13.5 c14.2,4,28.3,6.1,43.2,5.4c21.6,0,41.8-6.1,60.7-18.2c16.2-10.8,32.4-25.6,49.3-45.9c10.8-12.8,25-32.4,43.2-58.7 c19.6-29.7,37.1-61.4,52-96.5c5.4-12.8,11.5-28.3,16.9-45.9c-10.8-4-22.3-10.1-35.1-18.9c-26.3-17.5-47.9-39.1-64.1-64.1 c-22.9-34.4-34.4-74.2-35.1-119.5c0-37.1,8.8-72.9,27-105.3c12.8-22.9,30.4-43.9,51.3-62.8c9.4-8.8,19.6-16.2,30.4-22.9 c-25.6-37.8-60.1-64.8-102.6-81.7c-24.3-9.4-51.3-15.5-81-17.5c-15.5-1.3-31.7-0.7-47.9,2c-13.5,2-28.3,6.1-43.9,10.8 c-10.1,4-22.9,8.8-39.1,14.8c-16.2,6.7-27.7,10.8-33.7,12.8c-10.8,3.4-20.2,5.4-27,5.4c-8.8,0-20.2-2-33.7-6.7 c-4-1.3-16.9-6.7-39.8-15.5c-17.5-6.7-32.4-12.1-44.5-15.5c-16.9-4-32.4-6.1-47.2-6.1c-42.5,0.7-81.7,12.1-118.8,35.1 c-37.1,22.3-66.1,52.6-87.7,91.1C14.2,418.4,0,475.8,0,541.3C0,600,10.1,660,31,722.8c18.9,57.4,43.9,108,74.2,151.8 c17.5,26.3,32.4,46.6,44.5,60.7c17.5,21.6,35.1,37.1,52,47.9C222,996.1,242.3,1002.2,263.9,1002.2z" /><path
   id="SVGID_43_"
   d="M263.9,1002.2c13.5-0.7,27.7-3.4,41.2-7.4c6.7-2,18.2-6.7,35.8-14.2c14.8-6.1,27-10.8,37.8-13.5 c15.5-4,31.7-6.1,48.6-6.1c16.9,0,33.1,2,48.6,6.1c9.4,2.7,22.3,7.4,37.8,14.2c15.5,6.7,27.7,10.8,35.8,13.5 c14.2,4,28.3,6.1,43.2,5.4c21.6,0,41.8-6.1,60.7-18.2c16.2-10.8,32.4-25.6,49.3-45.9c10.8-12.8,25-32.4,43.2-58.7 c19.6-29.7,37.1-61.4,52-96.5c5.4-12.8,11.5-28.3,16.9-45.9c-10.8-4-22.3-10.1-35.1-18.9c-26.3-17.5-47.9-39.1-64.1-64.1 c-22.9-34.4-34.4-74.2-35.1-119.5c0-37.1,8.8-72.9,27-105.3c12.8-22.9,30.4-43.9,51.3-62.8c9.4-8.8,19.6-16.2,30.4-22.9 c-25.6-37.8-60.1-64.8-102.6-81.7c-24.3-9.4-51.3-15.5-81-17.5c-15.5-1.3-31.7-0.7-47.9,2c-13.5,2-28.3,6.1-43.9,10.8 c-10.1,4-22.9,8.8-39.1,14.8c-16.2,6.7-27.7,10.8-33.7,12.8c-10.8,3.4-20.2,5.4-27,5.4c-8.8,0-20.2-2-33.7-6.7 c-4-1.3-16.9-6.7-39.8-15.5c-17.5-6.7-32.4-12.1-44.5-15.5c-16.9-4-32.4-6.1-47.2-6.1c-42.5,0.7-81.7,12.1-118.8,35.1 c-37.1,22.3-66.1,52.6-87.7,91.1C14.2,418.4,0,475.8,0,541.3C0,600,10.1,660,31,722.8c18.9,57.4,43.9,108,74.2,151.8 c17.5,26.3,32.4,46.6,44.5,60.7c17.5,21.6,35.1,37.1,52,47.9C222,996.1,242.3,1002.2,263.9,1002.2z" /><path
   id="SVGID_45_"
   d="M263.9,1002.2c13.5-0.7,27.7-3.4,41.2-7.4c6.7-2,18.2-6.7,35.8-14.2c14.8-6.1,27-10.8,37.8-13.5 c15.5-4,31.7-6.1,48.6-6.1c16.9,0,33.1,2,48.6,6.1c9.4,2.7,22.3,7.4,37.8,14.2c15.5,6.7,27.7,10.8,35.8,13.5 c14.2,4,28.3,6.1,43.2,5.4c21.6,0,41.8-6.1,60.7-18.2c16.2-10.8,32.4-25.6,49.3-45.9c10.8-12.8,25-32.4,43.2-58.7 c19.6-29.7,37.1-61.4,52-96.5c5.4-12.8,11.5-28.3,16.9-45.9c-10.8-4-22.3-10.1-35.1-18.9c-26.3-17.5-47.9-39.1-64.1-64.1 c-22.9-34.4-34.4-74.2-35.1-119.5c0-37.1,8.8-72.9,27-105.3c12.8-22.9,30.4-43.9,51.3-62.8c9.4-8.8,19.6-16.2,30.4-22.9 c-25.6-37.8-60.1-64.8-102.6-81.7c-24.3-9.4-51.3-15.5-81-17.5c-15.5-1.3-31.7-0.7-47.9,2c-13.5,2-28.3,6.1-43.9,10.8 c-10.1,4-22.9,8.8-39.1,14.8c-16.2,6.7-27.7,10.8-33.7,12.8c-10.8,3.4-20.2,5.4-27,5.4c-8.8,0-20.2-2-33.7-6.7 c-4-1.3-16.9-6.7-39.8-15.5c-17.5-6.7-32.4-12.1-44.5-15.5c-16.9-4-32.4-6.1-47.2-6.1c-42.5,0.7-81.7,12.1-118.8,35.1 c-37.1,22.3-66.1,52.6-87.7,91.1C14.2,418.4,0,475.8,0,541.3C0,600,10.1,660,31,722.8c18.9,57.4,43.9,108,74.2,151.8 c17.5,26.3,32.4,46.6,44.5,60.7c17.5,21.6,35.1,37.1,52,47.9C222,996.1,242.3,1002.2,263.9,1002.2z" /><path
   id="SVGID_47_"
   d="M263.9,1002.2c13.5-0.7,27.7-3.4,41.2-7.4c6.7-2,18.2-6.7,35.8-14.2c14.8-6.1,27-10.8,37.8-13.5 c15.5-4,31.7-6.1,48.6-6.1c16.9,0,33.1,2,48.6,6.1c9.4,2.7,22.3,7.4,37.8,14.2c15.5,6.7,27.7,10.8,35.8,13.5 c14.2,4,28.3,6.1,43.2,5.4c21.6,0,41.8-6.1,60.7-18.2c16.2-10.8,32.4-25.6,49.3-45.9c10.8-12.8,25-32.4,43.2-58.7 c19.6-29.7,37.1-61.4,52-96.5c5.4-12.8,11.5-28.3,16.9-45.9c-10.8-4-22.3-10.1-35.1-18.9c-26.3-17.5-47.9-39.1-64.1-64.1 c-22.9-34.4-34.4-74.2-35.1-119.5c0-37.1,8.8-72.9,27-105.3c12.8-22.9,30.4-43.9,51.3-62.8c9.4-8.8,19.6-16.2,30.4-22.9 c-25.6-37.8-60.1-64.8-102.6-81.7c-24.3-9.4-51.3-15.5-81-17.5c-15.5-1.3-31.7-0.7-47.9,2c-13.5,2-28.3,6.1-43.9,10.8 c-10.1,4-22.9,8.8-39.1,14.8c-16.2,6.7-27.7,10.8-33.7,12.8c-10.8,3.4-20.2,5.4-27,5.4c-8.8,0-20.2-2-33.7-6.7 c-4-1.3-16.9-6.7-39.8-15.5c-17.5-6.7-32.4-12.1-44.5-15.5c-16.9-4-32.4-6.1-47.2-6.1c-42.5,0.7-81.7,12.1-118.8,35.1 c-37.1,22.3-66.1,52.6-87.7,91.1C14.2,418.4,0,475.8,0,541.3C0,600,10.1,660,31,722.8c18.9,57.4,43.9,108,74.2,151.8 c17.5,26.3,32.4,46.6,44.5,60.7c17.5,21.6,35.1,37.1,52,47.9C222,996.1,242.3,1002.2,263.9,1002.2z" />
	
		<linearGradient
   id="SVGID_15_"
   gradientUnits="userSpaceOnUse"
   x1="-82"
   y1="224.5"
   x2="-82"
   y2="151.5"
   gradientTransform="matrix(1,0,0,-1,654,325)">
		<stop
   offset="0"
   style="stop-color:#7ED3F7"
   id="stop160" />
		<stop
   offset="1"
   style="stop-color:#003D7E"
   id="stop162" />
	</linearGradient>
	
	

	
		<linearGradient
   id="SVGID_14_"
   gradientUnits="userSpaceOnUse"
   x1="-24"
   y1="311.5"
   x2="-24"
   y2="238"
   gradientTransform="matrix(1,0,0,-1,654,325)">
		<stop
   offset="0"
   style="stop-color:#7ED3F7"
   id="stop149" />
		<stop
   offset="1"
   style="stop-color:#003D7E"
   id="stop151" />
	</linearGradient>
	
	

	
		<linearGradient
   id="SVGID_13_"
   gradientUnits="userSpaceOnUse"
   x1="-208.3335"
   y1="311.5"
   x2="-208.3335"
   y2="238"
   gradientTransform="matrix(1,0,0,-1,654,325)">
		<stop
   offset="0"
   style="stop-color:#7ED3F7"
   id="stop138" />
		<stop
   offset="1"
   style="stop-color:#003D7E"
   id="stop140" />
	</linearGradient>
	
	

	
		<linearGradient
   id="SVGID_12_"
   gradientUnits="userSpaceOnUse"
   x1="-369.74951"
   y1="311.5"
   x2="-369.74951"
   y2="238"
   gradientTransform="matrix(1,0,0,-1,654,325)">
		<stop
   offset="0"
   style="stop-color:#7ED3F7"
   id="stop127" />
		<stop
   offset="1"
   style="stop-color:#003D7E"
   id="stop129" />
	</linearGradient>
	
	

	
		<linearGradient
   id="SVGID_11_"
   gradientUnits="userSpaceOnUse"
   x1="-403"
   y1="311.5"
   x2="-403"
   y2="238"
   gradientTransform="matrix(1,0,0,-1,654,325)">
		<stop
   offset="0"
   style="stop-color:#7ED3F7"
   id="stop116" />
		<stop
   offset="1"
   style="stop-color:#003D7E"
   id="stop118" />
	</linearGradient>
	
	

	
	

		
			<linearGradient
   id="SVGID_10_"
   gradientUnits="userSpaceOnUse"
   x1="-498.50049"
   y1="311.84671"
   x2="-498.50049"
   y2="236.83659"
   gradientTransform="matrix(1,0,0,-1,654,325)">
			<stop
   offset="0"
   style="stop-color:#7ED3F7"
   id="stop101" />
			<stop
   offset="1"
   style="stop-color:#003D7E"
   id="stop103" />
		</linearGradient>
		
	
		
	
	
		<linearGradient
   id="SVGID_9_"
   gradientUnits="userSpaceOnUse"
   x1="-303.91699"
   y1="311.5"
   x2="-303.91699"
   y2="238"
   gradientTransform="matrix(1,0,0,-1,654,325)">
		<stop
   offset="0"
   style="stop-color:#7ED3F7"
   id="stop90" />
		<stop
   offset="1"
   style="stop-color:#003D7E"
   id="stop92" />
	</linearGradient>
	
	

	
		<linearGradient
   id="SVGID_8_"
   gradientUnits="userSpaceOnUse"
   x1="-274.91699"
   y1="224.5"
   x2="-274.91699"
   y2="151.5"
   gradientTransform="matrix(1,0,0,-1,654,325)">
		<stop
   offset="0"
   style="stop-color:#7ED3F7"
   id="stop79" />
		<stop
   offset="1"
   style="stop-color:#003D7E"
   id="stop81" />
	</linearGradient>
	
	

	
		<linearGradient
   id="SVGID_7_"
   gradientUnits="userSpaceOnUse"
   x1="-593.4165"
   y1="311.5"
   x2="-593.4165"
   y2="238"
   gradientTransform="matrix(1,0,0,-1,654,325)">
		<stop
   offset="0"
   style="stop-color:#7ED3F7"
   id="stop68" />
		<stop
   offset="1"
   style="stop-color:#003D7E"
   id="stop70" />
	</linearGradient>
	
	

	
		<linearGradient
   id="SVGID_6_"
   gradientUnits="userSpaceOnUse"
   x1="-308.75"
   y1="224.5"
   x2="-308.75"
   y2="151.5"
   gradientTransform="matrix(1,0,0,-1,654,325)">
		<stop
   offset="0"
   style="stop-color:#7ED3F7"
   id="stop57" />
		<stop
   offset="1"
   style="stop-color:#003D7E"
   id="stop59" />
	</linearGradient>
	
	

		
		
		
		
		
		
		
		
		
	
		
	
			
			
			
			
			
			
			
			
			
		
				
				
				
				
			</defs><g
     inkscape:label="Layer 1"
     inkscape:groupmode="layer"
     id="layer1"><path
       id="rect231"
       style="fill:#ffffff;stroke-width:0.8001;stroke-linecap:square;paint-order:fill markers stroke"
       d="M 0 0 L 0 66.21508 C -7.8332324e-17 42.242664 0.038693171 39.265138 0.35553385 38.812618 L 0.71106771 38.305672 L 12.901538 38.305672 C 24.762387 38.305672 25.100898 38.317544 25.406718 38.754224 C 25.579948 39.001163 27.610131 45.423252 29.918587 53.025704 C 32.22739 60.628486 34.183992 66.771584 34.266642 66.677584 C 34.349296 66.583554 36.391369 60.39271 38.804867 52.919767 C 41.218019 45.447155 43.341603 39.101559 43.523442 38.818819 L 43.853654 38.305672 L 55.823983 38.305672 L 67.794312 38.305672 L 68.149845 38.812618 C 68.466665 39.265138 68.505379 42.242664 68.505379 66.21508 C 68.505379 92.805223 68.500059 93.114892 68.04856 93.566382 C 67.60636 94.007911 67.289583 94.023584 58.17216 94.019584 C 52.636407 94.017514 48.611608 93.926872 48.410482 93.799443 C 48.112239 93.611053 48.053182 91.182511 47.953662 74.970618 L 47.839457 56.358317 L 41.950411 74.904989 C 38.333266 86.296777 35.915904 93.562648 35.684127 93.737948 C 35.402759 93.950857 33.646923 94.023201 28.772404 94.023201 C 23.887897 94.023201 22.146704 93.951117 21.878768 93.737948 C 21.671788 93.572978 19.119157 85.65952 15.840894 75.021261 L 10.161137 56.590861 L 10.047449 74.98302 C 9.9362093 92.856252 9.9206946 93.383894 9.48986 93.698674 C 9.1465024 93.949693 8.1312406 94.023201 4.9800578 94.023201 C 1.2175785 94.023201 0.87887047 93.988951 0.4563029 93.566382 C 0.0047833487 93.114892 0 92.805223 0 66.21508 L 0 132.29167 L 396.875 132.29167 L 396.875 66.079171 C 396.875 90.525816 396.83837 93.342041 396.51637 93.66405 C 396.19918 93.98125 394.75295 94.023201 384.05614 94.023201 C 377.05604 94.023201 371.78774 93.933948 371.55872 93.811328 C 371.32831 93.688038 367.30838 85.048931 361.92623 73.112333 L 352.68907 52.625728 L 352.57486 73.000195 C 352.46362 92.836125 352.4488 93.383204 352.01727 93.698674 C 351.67357 93.949693 350.65901 94.023201 347.50747 94.023201 C 343.74534 94.023201 343.4063 93.988961 342.98372 93.566382 C 342.53206 93.114892 342.5269 92.805223 342.5269 66.21508 C 342.5269 42.242654 342.5656 39.265148 342.88243 38.812618 L 343.23848 38.305672 L 355.65374 38.305672 C 365.9383 38.305672 368.1244 38.360029 368.38682 38.622449 C 368.56109 38.796719 372.80704 48.044797 377.82242 59.174166 L 386.94176 79.409623 L 386.99963 59.164347 C 387.04129 44.667872 387.13078 38.83269 387.31331 38.61263 C 387.48654 38.40352 389.70463 38.291451 391.93112 38.283451 C 394.15794 38.275541 396.39294 38.371381 396.6006 38.579041 C 396.81074 38.78912 396.875 45.208012 396.875 66.079171 L 396.875 0 L 0 0 z M 148.63124 38.268982 C 150.81984 38.259692 152.99761 38.375176 153.2046 38.624516 C 153.4027 38.863166 153.45057 44.461972 153.39477 60.831946 C 153.32003 82.630904 153.31759 82.72705 152.81031 84.637728 C 151.46236 89.713733 149.19849 92.173626 144.66042 93.494035 C 143.42337 93.853894 141.75943 93.897453 127.53433 93.941553 C 114.93339 93.980473 111.46771 93.927339 110.2279 93.676969 C 104.91255 92.60213 101.84376 89.249242 100.40834 82.947909 C 99.958951 80.974891 99.936519 80.063751 99.849719 60.152401 C 99.76845 41.486029 99.79574 39.357456 100.12257 38.859127 L 100.48482 38.305155 L 110.05426 38.305155 C 118.44881 38.305155 119.66758 38.34901 119.98234 38.66379 C 120.30324 38.98476 120.34149 41.231106 120.34149 59.958097 C 120.34149 79.431378 120.36936 80.948445 120.74095 81.691654 C 121.53409 83.279573 121.60377 83.290007 132.16558 83.290007 C 142.44911 83.290007 142.94854 83.234291 143.40623 82.030652 C 143.55049 81.650782 143.63309 73.721972 143.63309 60.228365 C 143.63309 41.255124 143.67076 38.98476 143.99173 38.66379 C 144.24279 38.41273 146.44262 38.277982 148.63124 38.268982 z M 234.94793 38.304639 L 235.30295 38.813135 C 235.59497 39.229844 235.65848 40.107649 235.65848 43.722396 C 235.65848 47.819962 235.62698 48.155684 235.20166 48.581014 C 234.75498 49.027274 234.44021 49.037834 220.57568 49.037834 C 205.07153 49.037834 205.26435 49.021927 204.89137 50.355066 C 204.66338 51.169555 204.66338 81.158462 204.89137 81.973291 C 205.22577 83.16831 205.96776 83.325098 210.91736 83.246598 L 215.37548 83.176318 L 215.92635 82.535531 C 216.47603 81.895641 216.47723 81.889351 216.47723 76.198966 L 216.47723 70.502673 L 211.72713 70.502673 C 208.33728 70.502673 206.89928 70.424398 206.70366 70.228788 C 206.50802 70.033178 206.42926 68.597748 206.42926 65.218241 C 206.42926 60.582036 206.44029 60.473875 206.93724 60.126046 C 207.38322 59.813676 209.15167 59.769995 221.53635 59.769995 C 230.13994 59.769995 235.8567 59.856691 236.21452 59.992721 L 236.80002 60.215963 L 236.80002 76.883162 C 236.80002 93.127766 236.78867 93.556464 236.35818 93.786523 C 235.82919 94.069953 196.18211 94.070293 194.50079 93.786523 L 194.50079 93.787557 C 191.84415 93.340177 189.14146 91.91887 187.73841 90.231702 C 186.10978 88.273494 184.96151 85.205607 184.50967 81.601221 C 184.20445 79.164293 184.20695 53.167462 184.51277 50.629985 C 184.98459 46.719758 186.29145 43.570477 188.25931 41.602629 C 189.68027 40.18167 191.2346 39.348308 193.58612 38.746989 C 195.22885 38.326789 196.28405 38.305672 215.13054 38.305672 L 234.94793 38.304639 z M 268.79548 38.305672 L 290.20192 38.305672 C 306.5471 38.305672 311.67286 38.369651 311.88226 38.579041 C 312.07819 38.775 312.15666 40.236803 312.15666 43.70896 C 312.15666 48.276275 312.13016 48.579193 311.71482 48.801672 C 311.42725 48.955632 307.3198 49.037834 299.9543 49.037834 L 288.63613 49.037834 L 288.63613 54.397713 L 288.63613 59.757076 L 299.12903 59.820638 C 307.35655 59.870578 309.68574 59.948343 309.91855 60.180823 C 310.29979 60.561362 310.47412 68.950987 310.12009 69.882556 L 309.88393 70.50319 L 299.26029 70.50319 L 288.63613 70.50319 L 288.63613 76.896598 L 288.63613 83.290523 L 300.12225 83.290523 C 308.75133 83.290523 311.67631 83.358799 311.88226 83.564408 C 312.07819 83.760358 312.15666 85.221811 312.15666 88.694328 C 312.15666 93.261303 312.13016 93.564044 311.71482 93.786523 C 311.41934 93.944623 304.26945 94.023201 290.13526 94.023201 C 269.30232 94.023201 268.99135 94.016501 268.54123 93.566382 C 268.08957 93.114892 268.08441 92.805223 268.08441 66.21508 C 268.08441 42.242664 268.12312 39.265138 268.43995 38.812618 L 268.79548 38.305672 z M 55.983146 40.131917 L 56.068412 40.135018 L 66.678617 40.135018 L 66.678617 40.131917 L 55.983146 40.131917 z M 84.147319 78.038131 C 92.220901 78.038131 93.407499 78.083192 93.721928 78.397282 C 94.032878 78.708602 94.080562 79.721834 94.080562 86.030408 C 94.080562 92.339311 94.032908 93.353061 93.721928 93.66405 C 93.407498 93.97845 92.2209 94.023201 84.147319 94.023201 C 76.074097 94.023201 74.887139 93.97847 74.572709 93.66405 C 74.261349 93.353061 74.214075 92.339311 74.214075 86.030408 C 74.214075 79.721834 74.261379 78.708602 74.572709 78.397282 C 74.887139 78.083212 76.074097 78.038131 84.147319 78.038131 z M 169.32248 78.038131 C 177.39606 78.038131 178.58265 78.083192 178.89709 78.397282 C 179.2081 78.708602 179.25573 79.721834 179.25573 86.030408 C 179.25573 92.339311 179.20807 93.353061 178.89709 93.66405 C 178.58265 93.97845 177.39606 94.023201 169.32248 94.023201 C 161.24926 94.023201 160.06231 93.97847 159.74787 93.66405 C 159.43652 93.353061 159.38924 92.339311 159.38924 86.030408 C 159.38924 79.721834 159.43655 78.708602 159.74787 78.397282 C 160.06231 78.083212 161.24926 78.038131 169.32248 78.038131 z M 252.44247 78.038131 C 260.5157 78.038131 261.70264 78.083192 262.01708 78.397282 C 262.32843 78.708602 262.37572 79.721834 262.37572 86.030408 C 262.37572 92.339311 262.32841 93.353061 262.01708 93.66405 C 261.70264 93.97845 260.5157 94.023201 252.44247 94.023201 C 244.3689 94.023201 243.18229 93.97847 242.86786 93.66405 C 242.55691 93.353061 242.50923 92.339311 242.50923 86.030408 C 242.50923 79.721834 242.55687 78.708602 242.86786 78.397282 C 243.18229 78.083212 244.3689 78.038131 252.44247 78.038131 z M 326.88496 78.038131 C 334.95854 78.038131 336.14513 78.083192 336.45957 78.397282 C 336.77051 78.708602 336.81872 79.721834 336.81872 86.030408 C 336.81872 92.339311 336.77054 93.353061 336.45957 93.66405 C 336.14513 93.97845 334.95854 94.023201 326.88496 94.023201 C 318.81173 94.023201 317.6253 93.97847 317.31086 93.66405 C 316.99951 93.353061 316.95171 92.339311 316.95171 86.030408 C 316.95171 79.721834 316.99953 78.708602 317.31086 78.397282 C 317.6253 78.083212 318.81173 78.038131 326.88496 78.038131 z " /></g><style
     type="text/css"
     id="style5697">
	.st0{fill:#E62229;}
	.st1{fill:#019B43;}
	.st2{fill:#FFFFFF;}
</style></svg>
