<?xml version="1.0" encoding="UTF-8" standalone="no"?>
<!-- Created with Inkscape (http://www.inkscape.org/) -->

<svg
   width="1500"
   height="500"
   viewBox="0 0 396.87498 132.29167"
   version="1.1"
   id="svg5"
   inkscape:version="1.2.2 (732a01da63, 2022-12-09)"
   xml:space="preserve"
   sodipodi:docname="n3ds.svg"
   xmlns:inkscape="http://www.inkscape.org/namespaces/inkscape"
   xmlns:sodipodi="http://sodipodi.sourceforge.net/DTD/sodipodi-0.dtd"
   xmlns="http://www.w3.org/2000/svg"
   xmlns:svg="http://www.w3.org/2000/svg"><sodipodi:namedview
     id="namedview7"
     pagecolor="#000000"
     bordercolor="#111111"
     borderopacity="1"
     inkscape:showpageshadow="0"
     inkscape:pageopacity="0"
     inkscape:pagecheckerboard="1"
     inkscape:deskcolor="#d1d1d1"
     inkscape:document-units="mm"
     showgrid="false"
     inkscape:zoom="0.62760417"
     inkscape:cx="954.42323"
     inkscape:cy="541.74274"
     inkscape:window-width="1920"
     inkscape:window-height="1009"
     inkscape:window-x="-8"
     inkscape:window-y="-8"
     inkscape:window-maximized="1"
     inkscape:current-layer="layer1" /><defs
     id="defs2" /><g
     inkscape:label="Layer 1"
     inkscape:groupmode="layer"
     id="layer1"><path
       id="rect231"
       style="fill:#ffffff;stroke-width:0.8001;stroke-linecap:square;paint-order:fill markers stroke"
       d="M 0 0 L 0 44.596761 L 3.6023641 44.596761 L 20.629749 61.133219 L 20.629749 44.596761 L 23.904484 44.596761 L 24.722522 44.596761 L 24.722522 67.190731 L 21.448303 67.190731 L 4.2571045 50.490975 L 4.2571045 67.190731 L 0 67.190731 L 0 132.29167 L 396.875 132.29167 L 396.875 79.470601 C 396.875 87.165338 388.36112 92.569027 368.87723 92.569027 C 361.01844 92.569027 355.45181 92.077479 349.39418 91.095215 L 349.39418 83.072449 C 353.65132 84.710218 362.81999 86.18337 370.02393 86.18337 C 377.8827 86.18337 381.15761 83.563599 381.15761 80.125342 C 381.15761 77.177886 378.21015 75.377453 369.53248 72.102576 C 357.90802 67.846096 349.55747 64.408133 349.55747 56.876115 C 349.55747 49.017336 359.70922 44.433464 375.2634 44.433464 C 383.61364 44.433464 386.39641 44.923977 391.79986 45.906242 L 391.79986 53.437565 C 386.56045 52.4553 381.97589 50.818087 374.77196 50.818087 C 367.07722 50.818087 363.80208 53.274456 363.80208 55.730448 C 363.80208 59.332085 368.87736 61.133305 377.71906 64.244141 C 389.99836 68.664662 396.875 72.102624 396.875 79.470601 L 396.875 0 L 0 0 z M 247.2278 44.269132 C 262.45456 44.269132 276.69939 47.543587 276.69939 55.730448 C 276.69939 64.080028 263.27385 66.208362 263.27385 66.208362 L 263.27385 66.372693 C 269.00406 66.372693 278.66361 70.792834 278.66361 78.488232 C 278.66361 87.493317 264.5833 92.732324 248.53832 92.732324 C 234.12979 92.732324 226.27115 91.09509 223.32435 90.604289 L 223.32435 82.581523 C 229.54602 84.21863 237.07738 86.019556 245.26358 86.019556 C 254.76013 86.019556 262.29148 83.072444 262.29148 78.161121 C 262.29148 72.757673 253.77711 70.465466 238.87844 70.465466 L 232.8199 70.465466 L 232.8199 63.752698 L 239.36937 63.752698 C 253.61386 63.752698 260.16293 61.133339 260.16293 56.712817 C 260.16293 53.110519 253.44966 50.490975 244.77266 50.490975 C 236.58579 50.490975 230.69169 51.80054 224.47002 53.274268 L 224.47002 45.906242 C 224.47002 45.906242 233.47478 44.269132 247.2278 44.269132 z M 31.271993 44.596761 L 34.710026 44.596761 L 35.529097 44.596761 L 35.529097 67.190731 L 31.271993 67.190731 L 31.271993 44.596761 z M 42.078052 44.596761 L 45.679899 44.596761 L 62.7078 61.133219 L 62.7078 44.596761 L 65.982019 44.596761 L 66.800574 44.596761 L 66.800574 67.190731 L 63.526355 67.190731 L 46.335156 50.490975 L 46.335156 67.190731 L 42.078052 67.190731 L 42.078052 44.596761 z M 71.385307 44.596761 L 95.12546 44.596761 L 95.289274 44.596761 L 96.107829 44.596761 L 96.107829 48.526237 L 85.957027 48.526237 L 85.957027 67.190731 L 81.536108 67.190731 L 81.536108 48.526237 L 71.385307 48.526237 L 71.385307 44.596761 z M 121.97705 44.596761 L 122.79561 44.596761 L 122.79561 48.526237 L 104.94915 48.526237 L 104.94915 53.601896 L 118.86613 53.601896 L 118.86613 57.531372 L 104.94915 57.531372 L 104.94915 63.425069 L 122.79561 63.425069 L 122.79561 67.354545 L 100.69256 67.354545 L 100.69256 44.760575 L 121.97705 44.760575 L 121.97705 44.596761 z M 129.01745 44.596761 L 132.6193 44.596761 L 149.6472 61.133219 L 149.6472 44.596761 L 152.92142 44.596761 L 153.73997 44.596761 L 153.73997 67.190731 L 150.46523 67.190731 L 133.27404 50.490975 L 133.27404 67.190731 L 129.01745 67.190731 L 129.01745 44.596761 z M 160.28944 44.596761 L 176.9892 44.596761 C 179.93665 44.596761 182.39249 45.742926 184.02959 47.871497 C 185.50332 49.836026 186.32144 52.61953 186.32144 55.893746 C 186.32144 59.168623 185.50332 61.951983 184.02959 63.916512 C 182.39249 66.045083 179.93665 67.190731 176.9892 67.190731 L 160.28944 67.190731 L 160.28944 44.596761 z M 195.32658 44.596761 L 213.50015 44.596761 C 216.12018 44.596761 218.24869 46.725419 218.24869 49.344792 L 218.24869 62.4427 C 218.24869 65.062734 216.12018 67.190731 213.50015 67.190731 L 195.32658 67.190731 C 192.70721 67.190731 190.57855 65.062734 190.57855 62.4427 L 190.57855 49.344792 C 190.57855 46.725419 192.70721 44.596761 195.32658 44.596761 z M 283.57597 44.596761 L 312.39178 44.596761 C 319.92314 44.596761 328.60078 45.906223 333.18535 48.034794 C 344.319 53.110159 347.92037 60.969806 347.92037 68.664543 C 347.92037 76.1959 344.319 84.21841 333.18535 89.293774 L 333.02102 89.130477 C 328.43711 91.259048 319.92314 92.569027 312.39178 92.569027 L 283.57597 92.569027 L 283.57597 44.596761 z M 164.2184 48.526237 L 164.2184 63.261772 L 176.9892 63.261772 L 177.15301 63.261772 C 181.08207 63.261772 182.55578 59.332003 182.55578 55.893746 C 182.55578 52.455489 181.24611 48.526237 177.15301 48.526237 L 164.38221 48.526237 L 164.2184 48.526237 z M 195.49091 48.526237 C 194.99945 48.526237 194.50802 49.017143 194.50802 49.508606 L 194.50802 62.4427 C 194.50802 62.934163 194.99945 63.425069 195.49091 63.425069 L 213.33685 63.425069 C 213.82765 63.425069 214.31922 62.934163 214.31922 62.4427 L 214.31922 49.508606 C 214.31922 49.017143 213.82765 48.526237 213.33685 48.526237 L 195.49091 48.526237 z M 299.13006 50.982418 L 299.13006 85.855741 L 308.29849 85.855741 C 322.37894 85.855741 331.38391 79.798281 331.38391 68.501245 C 331.38391 57.203548 322.54299 50.982418 308.29849 50.982418 L 299.13006 50.982418 z M 213.50015 69.810726 L 213.50015 69.812276 C 216.12018 69.812276 218.24869 71.94079 218.24869 74.560824 L 218.24869 87.494918 C 218.24869 90.11429 216.12018 92.242948 213.50015 92.242948 L 195.32658 92.242948 C 192.70721 92.242948 190.57855 90.11429 190.57855 87.494918 L 190.57855 74.560824 C 190.57855 71.94079 192.70721 69.812276 195.32658 69.812276 L 213.50015 69.810726 z M 195.49091 73.739685 C 194.99945 73.739685 194.50802 74.231108 194.50802 74.722571 L 194.50802 87.656665 C 194.50802 88.148128 194.99945 88.639034 195.49091 88.639034 L 213.33685 88.639034 C 213.82765 88.639034 214.31922 88.148128 214.31922 87.656665 L 214.31922 74.722571 C 214.31922 74.231108 213.82765 73.739685 213.33685 73.739685 L 195.49091 73.739685 z " /><g
       id="g276"
       transform="matrix(0.26458333,0,0,0.26458333,104.01089,60.710706)" /></g></svg>
