<?xml version="1.0" encoding="UTF-8" standalone="no"?>
<!-- Created with Inkscape (http://www.inkscape.org/) -->

<svg
   width="1500"
   height="500"
   viewBox="0 0 396.87498 132.29167"
   version="1.1"
   id="svg5"
   inkscape:version="1.2.2 (732a01da63, 2022-12-09)"
   xml:space="preserve"
   sodipodi:docname="n64.svg"
   xmlns:inkscape="http://www.inkscape.org/namespaces/inkscape"
   xmlns:sodipodi="http://sodipodi.sourceforge.net/DTD/sodipodi-0.dtd"
   xmlns="http://www.w3.org/2000/svg"
   xmlns:svg="http://www.w3.org/2000/svg"><sodipodi:namedview
     id="namedview7"
     pagecolor="#000000"
     bordercolor="#111111"
     borderopacity="1"
     inkscape:showpageshadow="0"
     inkscape:pageopacity="0"
     inkscape:pagecheckerboard="1"
     inkscape:deskcolor="#d1d1d1"
     inkscape:document-units="mm"
     showgrid="false"
     inkscape:zoom="0.62760417"
     inkscape:cx="954.42323"
     inkscape:cy="541.74274"
     inkscape:window-width="1920"
     inkscape:window-height="1009"
     inkscape:window-x="-8"
     inkscape:window-y="-8"
     inkscape:window-maximized="1"
     inkscape:current-layer="layer1" /><defs
     id="defs2" /><g
     inkscape:label="Layer 1"
     inkscape:groupmode="layer"
     id="layer1"><path
       id="rect231"
       style="fill:#ffffff;stroke-width:0.8001;stroke-linecap:square;paint-order:fill markers stroke"
       d="M 0 0 L 0 50.624817 L 19.411735 50.624817 L 28.074772 75.255355 L 28.187944 75.255355 L 28.187944 50.624817 L 41.323059 50.624817 L 41.323059 93.578267 L 21.90874 93.578267 L 13.245703 68.783398 L 13.127364 68.783398 L 13.127364 93.578267 L 0 93.578267 L 0 132.29167 L 396.875 132.29167 L 396.875 64.764006 L 393.21631 64.764006 L 393.21631 72.472062 L 384.55586 72.472062 L 384.55586 64.764006 L 370.16449 64.764006 L 370.16449 58.604175 L 381.71882 38.103101 L 393.21631 38.103101 L 393.21631 57.701904 L 396.875 57.701904 L 396.875 0 L 0 0 z M 360.7909 37.618376 C 362.27124 37.534073 363.15208 37.618059 363.86513 37.681938 L 363.86513 44.913538 C 363.00259 44.839111 362.16589 44.872453 360.99709 44.926457 C 354.16688 45.241261 351.40427 48.137956 350.46698 51.414433 L 350.63183 51.414433 C 352.33376 49.932606 354.43457 49.242989 357.25106 49.242989 C 362.67038 49.242989 367.6189 53.164879 367.6189 60.523954 C 367.6189 67.565592 362.18133 73.050838 354.8848 73.050838 C 345.27184 73.050838 341.09339 65.740939 341.09339 57.902409 C 341.09339 51.53714 343.36157 46.143625 347.08424 42.665613 C 350.62966 39.397041 355.19628 37.746794 360.7909 37.618376 z M 384.6127 44.954362 C 383.5418 47.274567 382.60991 49.481368 381.39481 51.87797 L 378.56501 57.599068 L 378.534 57.704488 L 384.55586 57.701904 L 384.55586 51.796322 C 384.55586 49.61178 384.68769 47.34372 384.8008 44.954362 L 384.6127 44.954362 z M 313.79377 49.49672 C 327.88877 49.49672 334.90411 58.714164 334.90411 72.099992 C 334.90411 85.488454 327.88612 94.708948 313.79377 94.708948 C 299.69347 94.708948 292.68033 85.488454 292.68033 72.099992 C 292.68033 58.714164 299.69083 49.49672 313.79377 49.49672 z M 160.846 50.611381 L 192.86988 50.611381 L 192.86988 61.975028 L 176.78456 61.975028 L 176.78456 66.46571 L 191.59606 66.46571 L 191.59606 77.477958 L 176.78456 77.477958 L 176.78456 82.296785 L 193.3851 82.296785 L 193.3851 93.565348 L 160.846 93.565348 L 160.846 50.611381 z M 49.252291 50.624817 L 65.446134 50.624817 L 65.446134 93.578267 L 49.252291 93.578267 L 49.252291 50.624817 z M 73.244108 50.624817 L 92.655843 50.624817 L 101.31888 75.255355 L 101.43722 75.255355 L 101.43722 50.624817 L 114.56458 50.624817 L 114.56458 93.578267 L 95.150264 93.578267 L 86.492395 68.783398 L 86.379224 68.783398 L 86.379224 93.578267 L 73.244108 93.578267 L 73.244108 50.624817 z M 119.26042 50.624817 L 156.06489 50.624817 L 156.06489 62.292839 L 145.73891 62.292839 L 145.73891 93.578267 L 129.55075 93.578267 L 129.55075 62.292839 L 119.26042 62.292839 L 119.26042 50.624817 z M 199.36302 50.624817 L 218.77734 50.624817 L 227.4378 75.255355 L 227.55355 75.255355 L 227.55355 50.624817 L 240.68608 50.624817 L 240.68608 93.578267 L 221.26918 93.578267 L 212.60873 68.783398 L 212.49297 68.783398 L 212.49297 93.578267 L 199.36302 93.578267 L 199.36302 50.624817 z M 247.65517 50.624817 L 266.84004 50.624817 C 283.20119 50.624817 288.40927 59.845116 288.40927 72.576965 C 288.40927 85.547223 280.37417 93.578267 267.80846 93.578267 L 247.65517 93.578267 L 247.65517 50.624817 z M 354.21559 55.918034 C 352.40319 55.918034 350.98771 57.063802 350.45458 58.445528 C 350.24886 58.870978 350.16881 59.472693 350.16881 60.498116 C 350.35931 63.243775 351.68727 66.125163 354.71013 66.125163 L 354.76388 66.125163 C 356.97844 66.125163 358.3218 63.871729 358.3218 60.993693 C 358.30394 58.566136 357.18685 55.918034 354.21559 55.918034 z M 263.5064 60.37771 L 263.5064 83.817106 L 265.08459 83.817106 C 267.69008 83.817106 269.43535 83.022868 270.45533 81.297363 C 271.52887 79.510611 271.65215 76.260301 271.65215 72.099992 C 271.65215 67.937049 271.52887 64.689424 270.45533 62.900037 C 269.43535 61.172557 267.69008 60.37771 265.08459 60.37771 L 263.5064 60.37771 z M 313.79377 60.37771 C 311.19094 60.37771 309.43279 61.828633 309.43279 72.099992 C 309.43279 82.607127 311.30139 83.824858 313.79377 83.824858 C 316.28084 83.824858 318.15216 82.607127 318.15216 72.099992 C 318.15216 61.828633 316.39131 60.37771 313.79377 60.37771 z " /><g
       transform="matrix(0.11641667,0,0,0.11591184,175.86338,174.56459)"
       id="g356" /></g></svg>
