<?xml version="1.0" encoding="UTF-8" standalone="no"?>
<!-- Created with Inkscape (http://www.inkscape.org/) -->

<svg
   width="1500"
   height="500"
   viewBox="0 0 396.87498 132.29167"
   version="1.1"
   id="svg5"
   inkscape:version="1.2.2 (732a01da63, 2022-12-09)"
   xml:space="preserve"
   sodipodi:docname="n64dd.svg"
   xmlns:inkscape="http://www.inkscape.org/namespaces/inkscape"
   xmlns:sodipodi="http://sodipodi.sourceforge.net/DTD/sodipodi-0.dtd"
   xmlns="http://www.w3.org/2000/svg"
   xmlns:svg="http://www.w3.org/2000/svg"><sodipodi:namedview
     id="namedview7"
     pagecolor="#000000"
     bordercolor="#111111"
     borderopacity="1"
     inkscape:showpageshadow="0"
     inkscape:pageopacity="0"
     inkscape:pagecheckerboard="1"
     inkscape:deskcolor="#d1d1d1"
     inkscape:document-units="mm"
     showgrid="false"
     inkscape:zoom="0.62760417"
     inkscape:cx="954.42323"
     inkscape:cy="541.74274"
     inkscape:window-width="1920"
     inkscape:window-height="1009"
     inkscape:window-x="-8"
     inkscape:window-y="-8"
     inkscape:window-maximized="1"
     inkscape:current-layer="layer1" /><defs
     id="defs2" /><g
     inkscape:label="Layer 1"
     inkscape:groupmode="layer"
     id="layer1"><path
       id="rect231"
       style="fill:#ffffff;stroke-width:0.8001;stroke-linecap:square;paint-order:fill markers stroke"
       d="M 0 0 L 0 132.29167 L 79.41169 132.29167 C 51.793187 132.29989 39.768632 111.21154 39.768632 88.610095 C 39.768632 70.227912 46.290953 54.667102 56.974817 44.641203 C 67.173436 35.223932 80.275574 30.469954 96.354842 30.075167 C 100.61521 29.853102 103.14809 30.075134 105.17136 30.264303 L 105.17136 51.113676 C 102.69573 50.940956 100.31915 50.998749 96.938786 51.155017 C 77.314686 52.092633 69.402171 60.432387 66.704456 69.882556 L 67.173678 69.882556 C 72.042694 65.613942 78.071275 63.648311 86.189054 63.648311 C 98.04907 63.648311 109.13602 70.203675 113.73363 82.738102 L 142.48691 31.473531 L 175.51745 31.473531 L 175.51745 88.026152 L 190.4783 88.026152 L 190.4783 31.481283 L 192.2384 31.481283 L 197.36211 31.481283 L 200.3149 31.481283 L 216.36922 31.481283 L 228.17987 31.481283 C 252.39338 31.481283 267.2559 44.904124 272.10846 63.820911 L 272.10846 31.481283 L 273.87682 31.481283 L 279.00054 31.481283 L 281.95333 31.481283 L 298.00765 31.481283 L 309.8183 31.481283 C 339.86311 31.481283 355.50692 52.150441 355.49871 78.337854 L 355.49871 83.765946 C 355.49871 109.95336 339.86304 130.63027 309.81003 130.63027 L 297.99938 130.63027 L 281.94506 130.63027 L 278.99227 130.63027 L 273.86855 130.63027 L 272.10846 130.63027 L 272.10846 98.290641 C 267.2559 117.20743 252.39338 130.63027 228.17987 130.63027 L 216.36922 130.63027 L 200.3149 130.63027 L 197.36211 130.63027 L 192.2384 130.63027 L 190.4783 130.63027 L 190.4783 108.38253 L 175.51745 108.38253 L 175.51745 130.622 L 150.66212 130.63027 L 150.66212 108.3908 L 113.94705 108.3908 C 109.08626 122.47969 95.9022 132.29167 79.41169 132.29167 L 396.875 132.29167 L 396.875 0 L 0 0 z M 176.88274 0.013952637 C 177.44202 -0.018935038 177.78745 0.014071724 178.05063 0.038757324 L 178.03409 2.7936279 C 177.71334 2.7689582 177.3925 2.7772106 176.94837 2.8018962 C 174.34937 2.925266 173.30487 4.0275617 172.9512 5.277714 L 173.01735 5.277714 C 173.65885 4.7102098 174.46478 4.446757 175.53399 4.446757 C 177.59017 4.446757 179.47328 5.943683 179.47328 8.7483032 C 179.47328 11.437777 177.40089 13.526823 174.6374 13.526823 C 170.98563 13.526823 169.39793 10.738578 169.39793 7.7530151 C 169.39793 5.318507 170.2617 3.2625577 171.67634 1.938383 C 173.02519 0.68823064 174.76076 0.063300024 176.88274 0.013952637 z M 184.82799 0.18655192 L 189.19517 0.18655192 L 189.19517 7.6708496 L 190.58527 7.6708496 L 190.58527 10.368876 L 189.19517 10.368876 L 189.19517 13.313399 L 185.90493 13.313399 L 185.90493 10.368876 L 180.43601 10.368876 L 180.43601 8.0082967 L 184.82799 0.18655192 z M 185.92147 2.8101644 C 185.51023 3.6984306 185.15678 4.5373747 184.69622 5.4503133 L 183.61877 7.6300252 L 183.60223 7.6708496 L 185.90493 7.6791178 L 185.90493 5.4255086 C 185.90493 4.5948131 185.95422 3.7313289 185.99537 2.8101644 L 185.92147 2.8101644 z M 202.55198 3.7806478 L 204.87948 3.7806478 L 204.87948 4.8255452 L 211.54161 4.8255452 L 211.54161 6.6264689 L 204.87948 6.6264689 L 204.87948 7.424353 L 209.41151 7.424353 L 210.24195 7.424353 L 210.24195 13.847734 L 208.12011 13.847734 L 208.12011 14.645618 L 211.53334 14.645618 L 211.53334 16.446541 L 208.11184 16.446541 L 208.11184 18.231445 L 208.11184 19.004525 C 208.11184 19.85989 207.41279 20.558952 206.55742 20.558952 L 203.92554 20.558952 L 203.92554 18.231445 L 205.33992 18.231445 C 205.58664 18.231445 205.78434 18.034287 205.78434 17.787545 L 205.78434 16.43879 L 200.28183 16.43879 L 202.75765 18.914091 L 201.11279 20.558952 L 198.26697 17.713647 L 199.53356 16.446541 L 195.88158 16.446541 L 195.88158 14.645618 L 205.79261 14.645618 L 205.79261 13.847734 L 199.51702 13.847734 L 197.18951 13.847734 L 197.18951 7.424353 L 198.4561 7.424353 L 202.55198 7.424353 L 202.55198 6.6264689 L 195.88158 6.6264689 L 195.88158 4.8255452 L 202.55198 4.8255452 L 202.55198 3.7806478 z M 159.01045 4.5371908 C 164.36471 4.5371908 167.03787 8.0576002 167.03787 13.173356 C 167.03787 18.289115 164.37294 21.801253 159.01045 21.801253 C 153.65619 21.801253 150.98303 18.280889 150.98303 13.173356 C 150.98303 8.0576002 153.64796 4.5371908 159.01045 4.5371908 z M 280.40717 4.6772339 L 283.06334 5.3350749 C 283.00577 5.5324671 282.94828 5.7299369 282.88247 5.935555 L 289.6433 5.935555 L 289.6433 7.9586873 L 289.6433 9.4640218 L 289.65157 9.4640218 C 289.65157 15.64899 284.84819 19.547316 278.20266 20.558952 C 278.07105 19.777606 277.91465 18.840354 277.78304 17.894515 C 282.50403 17.458606 286.95354 14.267242 286.95354 9.4640218 L 286.94579 9.4640218 L 286.94579 8.6335815 L 281.87117 8.6335815 C 280.87599 10.887147 279.52716 13.066258 277.87399 14.604277 L 276.76347 12.04681 C 278.58933 10.204481 279.71629 7.1610894 280.40717 4.6772339 z M 214.72436 4.817277 L 215.49744 4.817277 L 227.12722 4.817277 L 227.77731 4.817277 L 227.77731 12.721187 L 227.77731 18.239714 L 227.77731 19.012793 C 227.77731 19.868161 227.07825 20.56722 226.22288 20.56722 L 223.59049 20.56722 L 223.59049 18.239714 L 225.00539 18.239714 C 225.25214 18.239714 225.44929 18.042553 225.44929 17.795813 L 225.44929 16.446541 L 225.44929 15.246098 L 222.41485 15.246098 L 222.41485 20.56722 L 220.08682 20.56722 L 220.08682 15.246098 L 217.06014 15.246098 L 217.06014 15.550472 C 217.06836 17.623094 216.2545 19.613315 214.79051 21.085535 C 214.23946 20.542705 213.37578 19.810904 212.82474 19.268075 C 213.8528 18.231764 214.73256 17.014511 214.72436 15.55874 L 214.72436 4.817277 z M 245.39432 4.8994425 L 246.63611 4.8994425 L 246.63611 8.641333 L 245.39432 8.641333 L 245.39432 4.8994425 z M 248.20707 4.8994425 L 249.44937 4.8994425 L 249.44937 8.641333 L 248.20707 8.641333 L 248.20707 4.8994425 z M 303.69102 4.8994425 L 304.93281 4.8994425 L 304.93281 8.641333 L 303.69102 8.641333 L 303.69102 4.8994425 z M 306.50377 4.8994425 L 307.74607 4.8994425 L 307.74607 8.641333 L 306.50377 8.641333 L 306.50377 4.8994425 z M 351.07366 4.8994425 L 352.31545 4.8994425 L 352.31545 8.6330648 L 352.31545 9.7270549 L 352.31545 9.7353231 C 352.31545 16.347974 348.93505 20.56722 341.46701 20.56722 C 341.4259 20.304029 341.05567 17.918803 341.05567 17.918803 L 341.47528 17.918803 C 346.59925 17.918803 349.61794 14.859263 349.61794 9.7270549 L 349.61794 8.641333 L 340.5296 8.641333 L 340.5296 5.9438232 L 350.09491 5.9438232 L 350.09491 8.3452271 L 351.07366 8.3452271 L 351.07366 4.8994425 z M 354.26468 4.8994425 L 355.50647 4.8994425 L 355.50647 8.6335815 L 354.26468 8.6335815 L 354.26468 4.8994425 z M 39.760364 4.9650716 L 47.138208 4.9650716 L 50.42793 14.374316 L 50.469271 14.374316 L 50.469271 4.9650716 L 55.461731 4.9650716 L 55.461731 21.365104 L 48.083887 21.365104 L 44.794165 11.898499 L 44.752824 11.898499 L 44.752824 21.365104 L 39.760364 21.365104 L 39.760364 4.9650716 z M 58.471883 4.9650716 L 64.623962 4.9650716 L 64.623962 21.356836 L 58.471883 21.356836 L 58.471883 4.9650716 z M 67.592773 4.9650716 L 74.970618 4.9650716 L 78.268608 14.374316 L 78.309432 14.374316 L 78.309432 4.9650716 L 83.293624 4.9650716 L 83.293624 21.365104 L 75.916296 21.365104 L 72.626575 11.898499 L 72.585234 11.898499 L 72.585234 21.365104 L 67.592773 21.365104 L 67.592773 4.9650716 z M 85.078528 4.9650716 L 99.068888 4.9650716 L 99.068888 9.4226807 L 95.145614 9.4226807 L 95.145614 21.365104 L 88.993534 21.365104 L 88.993534 9.4226807 L 85.078528 9.4226807 L 85.078528 4.9650716 z M 100.88635 4.9650716 L 113.05925 4.9650716 L 113.05925 9.2996908 L 106.93973 9.2996908 L 106.93973 11.018449 L 112.57401 11.018449 L 112.57401 15.229561 L 106.93973 15.229561 L 106.93973 17.063558 L 113.24838 17.063558 L 113.24838 21.365104 L 100.88635 21.365104 L 100.88635 4.9650716 z M 115.52628 4.9650716 L 122.90413 4.9650716 L 126.19385 14.374316 L 126.24346 14.374316 L 126.24346 4.9650716 L 131.22765 4.9650716 L 131.22765 21.365104 L 123.8498 21.365104 L 120.56008 11.898499 L 120.51874 11.898499 L 120.51874 21.365104 L 115.52628 21.365104 L 115.52628 4.9650716 z M 133.87555 4.9650716 L 141.16296 4.9650716 C 147.38082 4.9650716 149.36298 8.48512 149.36298 13.337687 C 149.36298 18.288952 146.31149 21.356836 141.53296 21.356836 L 133.87555 21.356836 L 133.87555 4.9650716 z M 311.88277 5.0389689 L 321.91678 5.0389689 L 321.91678 7.7369954 L 311.88277 7.7369954 L 311.88277 5.0389689 z M 236.09205 5.1872803 L 243.74119 5.1872803 L 243.74119 7.88479 L 236.09205 7.88479 L 236.09205 5.1872803 z M 296.96327 5.3025187 L 299.66078 5.3025187 L 299.66078 10.434505 C 302.51473 10.467403 305.34429 11.149999 307.9104 12.474174 C 307.49919 13.271969 306.91501 14.620902 306.50377 15.418697 C 304.32424 14.291915 302.04594 13.354387 299.66078 13.189893 L 299.66078 20.56722 L 296.96327 20.56722 L 296.96327 5.3025187 z M 335.43844 5.3025187 L 338.3995 5.3025187 C 337.46187 7.6465553 335.9317 9.6367928 334.03181 11.133687 L 334.03181 20.558952 L 331.3343 20.558952 L 331.3343 12.803353 C 329.4755 13.683393 327.41109 14.168605 325.27265 14.160376 L 325.27265 11.462866 C 329.58242 11.479315 333.48918 9.0694249 335.43844 5.3025187 z M 262.32094 5.9438232 L 272.15755 5.9438232 L 272.15755 8.641333 C 272.15755 10.261597 271.65597 12.022017 270.81706 13.683403 C 272.55246 14.859535 274.18101 16.882499 275.61212 18.798853 L 273.64635 21.192505 C 272.30573 19.226804 270.98953 17.187254 269.40216 15.953548 C 267.55984 18.396282 265.00199 20.271088 262.3783 20.558952 C 262.33718 20.394458 261.76146 18.1413 261.69565 17.902783 C 267.23086 16.183824 269.45184 10.730404 269.46004 8.641333 L 262.32094 8.641333 L 262.32094 5.9438232 z M 174.38264 6.9964722 C 173.69999 6.9964722 173.15681 7.424084 172.9512 7.9586873 C 172.86889 8.1231813 172.84423 8.3535188 172.84423 8.7483032 C 172.91823 9.8010634 173.41983 10.903171 174.57952 10.894942 C 175.42667 10.894942 175.93706 10.031323 175.93706 8.937439 C 175.92884 8.0080513 175.50942 6.9964722 174.38264 6.9964722 z M 217.06014 7.1447835 L 217.06014 8.8718099 L 220.08682 8.8718099 L 220.08682 7.1447835 L 217.06014 7.1447835 z M 222.4226 7.1447835 L 222.4226 8.8718099 L 225.45756 8.8718099 L 225.45756 7.1447835 L 222.4226 7.1447835 z M 257.16415 8.0165649 L 259.86166 8.0165649 C 259.35173 9.8917948 258.14255 11.536794 256.61276 12.811621 L 256.61276 20.56722 L 253.91525 20.56722 L 253.91525 14.555184 C 252.5006 15.246058 251.01212 15.657317 249.65505 15.73134 L 249.20236 13.049849 C 251.74379 13.049849 255.99625 10.870533 257.16415 8.0165649 z M 159.01045 8.6909424 C 158.02348 8.6909424 157.35732 9.241956 157.35732 13.173356 C 157.34909 17.178781 158.06462 17.647502 159.01045 17.647502 C 159.95628 17.647502 160.66358 17.187007 160.66358 13.173356 C 160.66358 9.2501793 159.99742 8.6909424 159.01045 8.6909424 z M 139.89637 8.7074788 L 139.89637 17.647502 L 140.49685 17.647502 C 141.48382 17.647502 142.14996 17.343262 142.53652 16.685286 C 142.94776 16.002638 142.98869 14.760765 142.98869 13.181624 C 142.98869 11.594258 142.93953 10.352345 142.53652 9.669694 C 142.14996 9.0117183 141.49203 8.7074788 140.49685 8.7074788 L 139.89637 8.7074788 z M 199.51702 8.8635417 L 199.51702 9.5875285 L 202.55198 9.5875285 L 202.55198 8.8635417 L 199.51702 8.8635417 z M 204.87948 8.8635417 L 204.87948 9.5875285 L 207.91444 9.5875285 L 207.91444 8.8635417 L 204.87948 8.8635417 z M 309.98315 9.47229 L 323.14255 9.47229 L 323.14255 12.137244 C 323.14255 16.430533 320.31294 20.56722 314.58855 20.56722 L 311.89104 20.56722 L 311.47143 17.86971 L 314.58855 17.86971 C 318.49528 17.86971 320.42812 15.097787 320.44452 12.1698 L 309.98315 12.1698 L 309.98315 9.47229 z M 234.09372 9.9001709 L 247.91923 9.9001709 L 247.91923 12.597681 L 242.86115 12.597681 L 242.86115 14.316439 L 242.86115 14.324707 C 242.86115 18.552197 239.91687 19.629606 236.2569 20.56722 L 235.55771 18.338416 C 240.55011 16.759275 240.16364 15.862723 240.16364 14.324707 L 240.16364 14.316439 L 240.16364 12.597681 L 234.09372 12.597681 L 234.09372 9.9001709 z M 199.51702 11.026717 L 199.51702 12.408545 L 202.55198 12.408545 L 202.55198 11.026717 L 199.51702 11.026717 z M 204.87948 11.026717 L 204.87948 12.408545 L 207.91444 12.408545 L 207.91444 11.026717 L 204.87948 11.026717 z M 217.06014 11.199316 L 217.06014 12.918591 L 220.08682 12.918591 L 220.08682 11.199316 L 217.06014 11.199316 z M 222.41485 11.199316 L 222.41485 12.918591 L 225.44929 12.918591 L 225.44929 11.199316 L 222.41485 11.199316 z M 150.8187 51.245451 C 147.70977 57.94035 145.03686 64.306509 141.56604 71.207023 L 133.42338 87.721777 L 133.31641 88.03442 L 150.66212 88.03442 L 150.66212 70.984814 C 150.66212 64.701149 151.01578 58.145968 151.34477 51.245451 L 150.8187 51.245451 z M 216.36922 51.985457 L 216.36922 110.13436 L 228.17987 110.13436 C 237.482 110.13436 245.49303 100.68428 245.49303 81.060168 C 245.49303 61.436058 237.482 51.985457 228.17987 51.985457 L 216.36922 51.985457 z M 298.00765 51.985457 L 298.00765 110.13436 L 309.8183 110.13436 C 319.12043 110.13436 327.13145 100.68428 327.13145 81.060168 C 327.13145 61.436058 319.12043 51.985457 309.8183 51.985457 L 298.00765 51.985457 z M 77.437651 82.877629 C 72.256082 82.877629 68.176967 86.151303 66.663631 90.148503 C 66.07967 91.37398 65.849211 93.125666 65.849211 96.070105 C 66.392056 103.99048 70.200341 112.32234 78.885624 112.32234 L 79.016882 112.32234 C 85.407463 112.32234 89.240548 105.83277 89.240548 97.52583 C 89.199431 90.501943 85.99133 82.877629 77.437651 82.877629 z " /><g
       id="g491"
       transform="matrix(0.26458333,0,0,0.26458333,-297.50089,-35.311524)" /></g></svg>
