<?xml version="1.0" encoding="UTF-8" standalone="no"?>
<!-- Created with Inkscape (http://www.inkscape.org/) -->

<svg
   width="1500"
   height="500"
   viewBox="0 0 396.87498 132.29167"
   version="1.1"
   id="svg5"
   inkscape:version="1.2.2 (732a01da63, 2022-12-09)"
   xml:space="preserve"
   sodipodi:docname="naomi2.svg"
   xmlns:inkscape="http://www.inkscape.org/namespaces/inkscape"
   xmlns:sodipodi="http://sodipodi.sourceforge.net/DTD/sodipodi-0.dtd"
   xmlns="http://www.w3.org/2000/svg"
   xmlns:svg="http://www.w3.org/2000/svg"><sodipodi:namedview
     id="namedview7"
     pagecolor="#000000"
     bordercolor="#111111"
     borderopacity="1"
     inkscape:showpageshadow="0"
     inkscape:pageopacity="0"
     inkscape:pagecheckerboard="1"
     inkscape:deskcolor="#d1d1d1"
     inkscape:document-units="mm"
     showgrid="false"
     inkscape:zoom="0.26088402"
     inkscape:cx="1782.4012"
     inkscape:cy="1211.2662"
     inkscape:window-width="1920"
     inkscape:window-height="1009"
     inkscape:window-x="-8"
     inkscape:window-y="-8"
     inkscape:window-maximized="1"
     inkscape:current-layer="layer1" /><defs
     id="defs2">
		
		
	
			
				
			
		
			
			
			
			
			
				
			
			
			
			
			
		</defs><g
     inkscape:label="Layer 1"
     inkscape:groupmode="layer"
     id="layer1"><path
       id="rect231"
       style="fill:#ffffff;stroke-width:0.8001;stroke-linecap:square;paint-order:fill markers stroke"
       d="M 0 0 L 0 45.034977 L 0.001550293 45.034977 L 0.001550293 34.192228 L 49.191313 74.488993 L 49.191313 35.43453 L 59.187602 35.43453 L 59.187602 85.417008 L 59.184501 85.417008 L 59.184501 95.597782 L 9.9962891 55.293783 L 9.9962891 95.596749 L 0 95.596749 L 0 132.29167 L 396.875 132.29167 L 396.875 0 L 0 0 z M 173.1052 31.380514 C 192.30218 31.380514 207.87103 46.948864 207.87103 66.145833 C 207.87103 85.342803 192.30218 100.91115 173.1052 100.91115 C 153.90824 100.91115 138.33988 85.342803 138.33988 66.145833 C 138.33988 46.948864 153.90824 31.380514 173.1052 31.380514 z M 103.45053 34.088875 L 137.10998 95.597782 L 125.71791 95.597782 L 119.36067 83.981437 L 87.518172 84.008309 L 81.172823 95.597782 L 69.780754 95.597782 L 76.158659 83.946297 L 69.839148 83.94113 L 69.839148 73.94484 L 81.631193 73.948975 L 103.45053 34.088875 z M 76.158659 83.946297 L 76.197933 83.946297 L 81.624475 73.961377 L 76.158659 83.946297 z M 376.21941 34.378263 C 382.45299 34.378263 388.05593 36.993524 392.41842 41.945243 C 395.84017 45.821854 397.33917 50.701638 396.74994 56.056527 C 396.63816 57.041834 396.4484 58.034513 396.18874 59.031539 C 395.92905 60.028562 395.59957 61.02973 395.20844 62.031873 C 394.81728 63.034015 394.36433 64.03723 393.85813 65.037891 C 393.35196 66.038549 392.79221 67.036867 392.18743 68.029439 C 391.58262 69.022012 390.93291 70.008479 390.24595 70.986365 C 389.55896 71.964248 388.83497 72.933469 388.08226 73.890063 C 387.32954 74.846658 386.54799 75.790648 385.74596 76.719348 C 384.94393 77.648048 384.12108 78.561409 383.28617 79.455615 C 382.45122 80.349819 381.60436 81.225088 380.75299 82.078194 C 379.90158 82.9313 379.04591 83.762041 378.19449 84.567448 C 377.34308 85.372855 378.08629 84.890582 377.21935 85.604594 L 396.86053 85.604594 L 396.86053 95.600883 L 365.08573 95.597782 L 357.19784 95.597782 L 357.19784 89.095337 C 365.37488 83.223567 394.75486 59.550286 384.99614 48.499365 C 378.46276 41.097625 370.09946 45.005259 365.23042 48.447689 L 358.15953 41.345797 C 362.28425 38.182484 368.78667 34.378263 376.21941 34.378263 z M 217.46425 35.432463 L 252.91221 76.494039 L 288.37 35.432463 L 288.37 95.597782 L 278.37371 95.597782 L 278.37371 62.300073 L 252.91221 91.783028 L 227.46053 62.300073 L 227.46053 95.597782 L 217.46425 95.597782 L 217.46425 35.432463 z M 309.56198 35.432463 L 319.55879 35.432463 L 319.55879 95.597782 L 309.56198 95.597782 L 309.56198 35.432463 z M 326.73303 35.432463 L 334.47571 35.432463 L 334.47571 36.745561 L 331.26092 36.776567 L 331.26092 45.853015 L 329.46206 45.853015 L 329.46206 36.745561 L 326.73303 36.745561 L 326.73303 35.432463 z M 335.42707 35.432463 L 340.84379 42.162284 L 346.32305 35.432463 L 346.32305 45.853015 L 344.65855 45.853015 L 344.65855 40.074556 L 340.81279 44.94351 L 336.95669 40.074556 C 336.95669 40.074556 336.94639 45.842675 336.96703 45.853015 C 336.98767 45.86336 335.42707 45.853015 335.42707 45.853015 L 335.42707 35.432463 z M 173.1052 43.165324 C 160.43127 43.165324 150.12469 53.471905 150.12469 66.145833 C 150.12469 78.819762 160.43127 89.126343 173.1052 89.126343 C 185.76878 89.126343 196.08622 78.819762 196.08622 66.145833 C 196.08622 53.471905 185.77912 43.165324 173.1052 43.165324 z M 103.45053 54.908793 L 93.04755 73.909184 L 113.88917 73.983598 L 103.45053 54.908793 z M 148.3372 66.151001 C 148.3372 66.15275 148.33668 66.15442 148.33668 66.156169 C 148.33668 79.832846 159.42853 90.925199 173.1052 90.925199 C 186.78187 90.925199 197.87423 79.832846 197.87423 66.156169 C 197.87423 66.15442 197.87371 66.15275 197.87371 66.151001 C 197.87087 79.825268 186.78012 90.914864 173.1052 90.914864 C 159.43028 90.914864 148.34004 79.825268 148.3372 66.151001 z " /><g
       id="g34"
       style="fill:#ffffff;fill-opacity:1"
       transform="matrix(0.26458333,0,0,0.26458333,-331.23948,112.11274)">
	
</g></g><style
     type="text/css"
     id="style2">
	.st0{fill:#F05100;}
	.st1{fill:#FFFFFF;}
	.st2{fill:#1281C4;}
	.st3{fill:#034693;}
	.st4{fill:#CF3312;}
</style></svg>
