<?xml version="1.0" encoding="UTF-8" standalone="no"?>
<!-- Created with Inkscape (http://www.inkscape.org/) -->

<svg
   width="1500"
   height="500"
   viewBox="0 0 396.87498 132.29167"
   version="1.1"
   id="svg5"
   inkscape:version="1.2.2 (732a01da63, 2022-12-09)"
   xml:space="preserve"
   sodipodi:docname="naomigd.svg"
   xmlns:inkscape="http://www.inkscape.org/namespaces/inkscape"
   xmlns:sodipodi="http://sodipodi.sourceforge.net/DTD/sodipodi-0.dtd"
   xmlns="http://www.w3.org/2000/svg"
   xmlns:svg="http://www.w3.org/2000/svg"><sodipodi:namedview
     id="namedview7"
     pagecolor="#000000"
     bordercolor="#111111"
     borderopacity="1"
     inkscape:showpageshadow="0"
     inkscape:pageopacity="0"
     inkscape:pagecheckerboard="1"
     inkscape:deskcolor="#d1d1d1"
     inkscape:document-units="mm"
     showgrid="false"
     inkscape:zoom="0.26088402"
     inkscape:cx="797.28916"
     inkscape:cy="908.44967"
     inkscape:window-width="1920"
     inkscape:window-height="1009"
     inkscape:window-x="-8"
     inkscape:window-y="-8"
     inkscape:window-maximized="1"
     inkscape:current-layer="layer1" /><defs
     id="defs2">
		
		
	
			
				
			
		
			
			
			
			
			
				
			
			
			
			
			
		</defs><g
     inkscape:label="Layer 1"
     inkscape:groupmode="layer"
     id="layer1"><path
       id="rect231"
       style="fill:#ffffff;stroke-width:0.8001;stroke-linecap:square;paint-order:fill markers stroke"
       d="M 0 0 L 0 5.9169515 L 61.076892 55.960925 L 61.076892 7.4672445 L 73.492672 7.4672445 L 73.492672 69.526506 L 73.482336 69.526506 L 73.482336 82.159326 L 12.41578 32.132406 L 12.41578 82.169661 L 0 82.169661 L 0 96.29128 L 396.875 96.29128 L 396.875 0 L 0 0 z M 214.91608 2.4329264 C 238.76576 2.4329264 258.08761 21.754762 258.08761 45.604451 C 258.08761 69.454146 238.75544 88.77546 214.91608 88.77546 C 191.06638 88.77546 171.74507 69.454146 171.74507 45.604451 C 171.74507 21.754762 191.07672 2.4329264 214.91608 2.4329264 z M 128.42885 5.7929281 L 170.2356 82.159326 L 156.08298 82.159326 L 142.10709 56.626518 L 148.17597 67.71473 L 134.09672 67.696643 L 108.88896 67.348861 L 100.78506 82.159326 L 86.642773 82.159326 L 94.624198 67.572103 L 86.71512 67.696643 L 86.71512 55.280863 L 101.41758 55.15684 L 128.42885 5.7929281 z M 101.41758 55.15684 L 94.624198 67.572103 L 101.41758 55.15684 z M 269.99696 7.4569092 L 314.00564 58.433643 L 358.02466 7.4569092 L 358.02466 82.159326 L 345.61921 82.159326 L 345.61921 40.817664 L 314.00564 77.435067 L 282.41274 40.817664 L 282.41274 82.159326 L 269.99696 82.159326 L 269.99696 7.4569092 z M 384.35587 7.4569092 L 396.77165 7.4569092 L 396.77165 82.159326 L 384.35587 82.159326 L 384.35587 7.4569092 z M 214.91608 17.060974 C 199.1817 17.060974 186.38346 29.859729 186.38346 45.594116 C 186.38346 61.328506 199.1817 74.126742 214.91608 74.126742 C 230.65047 74.126742 243.45954 61.328506 243.44922 45.594116 C 243.44922 29.859729 230.65047 17.060974 214.91608 17.060974 z M 128.42885 31.637862 L 115.58106 55.118083 L 134.09672 55.280863 L 141.34331 55.231254 L 128.42885 31.637862 z M 184.3195 48.748962 C 185.78851 63.223356 197.28873 74.730997 211.77002 76.201034 C 197.29635 74.730338 185.78948 63.222843 184.3195 48.748962 z M 126.36386 101.7757 C 124.69945 101.80413 123.03733 101.89449 121.49181 102.1426 C 120.3753 102.30801 119.29012 102.63903 118.37004 103.33168 C 116.62294 104.67561 116.43687 107.23945 116.30246 109.24501 C 116.19909 110.52692 116.19911 111.80886 116.19911 113.09077 C 116.19911 114.37268 116.19909 115.65462 116.30246 116.93653 C 116.39552 118.9421 116.60225 121.56796 118.37004 122.84987 C 120.31358 124.29718 123.79754 124.2968 126.09256 124.32781 C 127.78801 124.35883 129.52448 124.35882 131.24057 124.35882 C 134.45568 124.35882 137.80525 124.45195 140.99966 123.99708 C 142.14719 123.82134 143.20186 123.56319 144.12195 122.83953 C 145.90008 121.49559 146.08615 118.96277 146.18953 116.9262 C 146.28258 115.65463 146.28256 114.37268 146.29288 113.09077 C 146.29288 111.80886 146.2929 110.52692 146.18953 109.24501 C 146.05514 107.23945 145.88974 104.6446 144.12195 103.33168 C 142.18875 101.88436 138.73579 101.88423 136.44077 101.85321 C 134.70399 101.81186 132.98768 101.78087 131.2509 101.78087 C 129.69504 101.78087 128.02828 101.74727 126.36386 101.7757 z M 20.065959 101.78087 C 16.850848 101.78087 12.912184 101.73936 9.7177531 102.36998 C 6.3062217 103.02127 5.2622724 105.32658 5.0244995 108.5727 C 4.9211216 109.95799 4.889624 111.34323 4.889624 112.71818 C 4.889624 114.82713 4.7969453 118.46614 5.4792521 120.50272 C 5.84108 121.51584 6.3270318 122.23993 7.216097 122.8292 C 9.1596342 124.14212 12.281349 124.20377 14.545365 124.27614 C 15.982342 124.3485 17.430084 124.34848 18.877401 124.34848 C 22.237241 124.34848 26.113834 124.45201 29.390971 123.75937 C 30.445443 123.53194 31.458339 123.16994 32.244027 122.41527 C 33.546609 121.17471 33.650115 119.71717 33.753495 117.9804 C 33.825861 117.06032 33.825836 116.10944 33.856848 115.15835 L 33.93953 112.24276 C 33.93953 112.036 33.908525 111.81907 33.908525 111.61231 L 18.670178 111.61231 L 18.670178 115.98517 L 27.437085 115.98517 L 27.437085 116.67763 C 27.437085 117.1325 27.437146 117.73224 27.199373 118.1561 C 26.599773 119.21057 24.067002 119.07645 23.084896 119.07645 C 21.865014 119.07645 20.64505 119.10746 19.435506 119.10746 C 18.381034 119.10746 17.32635 119.07645 16.271875 119.07645 C 15.289769 119.07645 13.284147 119.13814 12.498462 118.41448 C 12.10562 118.04231 11.971396 117.75315 11.837004 117.25693 C 11.506187 116.01637 11.578621 114.26933 11.578621 112.98742 C 11.578621 111.76754 11.412975 108.87264 12.498462 108.02493 C 13.273809 107.40465 14.959046 107.36348 15.91014 107.33247 C 17.099007 107.29111 18.308651 107.26012 19.497518 107.26012 C 20.934495 107.26012 22.381722 107.2601 23.829036 107.33247 C 24.4183 107.36348 25.079968 107.36344 25.669234 107.46683 C 26.062077 107.53919 26.371951 107.62179 26.692428 107.85957 C 27.250677 108.28342 27.220044 109.06915 27.220044 109.69976 L 33.887854 109.69976 C 33.85684 107.93197 33.918665 105.47145 32.678109 104.05515 C 31.003359 102.12194 27.189135 101.9876 24.821741 101.88422 C 23.260706 101.78084 21.67868 101.78087 20.065959 101.78087 z M 217.73865 101.7912 C 214.88536 101.7912 211.95939 101.76012 209.13711 102.04958 C 204.93989 102.47344 203.91675 104.94452 203.91675 108.85227 C 203.91675 110.48567 203.99912 112.32563 205.15699 113.60754 C 206.54226 115.15823 208.97176 115.22034 210.87395 115.2927 C 214.39918 115.4271 217.91445 115.61307 221.42938 115.71645 C 222.78365 115.74747 224.0964 115.67519 224.0964 117.36028 C 224.0964 117.76346 224.09646 118.24902 223.86902 118.61085 C 223.31078 119.40687 221.23272 119.30383 220.416 119.30383 C 219.22715 119.30383 218.08985 119.33483 216.90097 119.33483 C 215.94988 119.33483 215.03002 119.30383 214.07892 119.30383 C 213.36561 119.30383 211.49422 119.37631 210.86361 118.88008 C 210.60517 118.68366 210.47089 118.47657 210.36752 118.1871 C 210.2021 117.72189 210.20216 117.26739 210.20216 116.77117 L 203.76172 116.77117 C 203.72039 117.33975 203.68938 117.89757 203.68938 118.45582 C 203.68938 119.93415 203.82346 121.35045 204.93995 122.43594 C 205.6843 123.19061 206.60469 123.61462 207.65916 123.85239 C 210.45043 124.483 213.90299 124.37949 216.75628 124.37949 C 218.47239 124.37949 220.16805 124.37951 221.88413 124.30714 C 224.01376 124.26579 227.456 124.33808 229.0377 122.62197 C 230.35064 121.20567 230.51618 119.10741 230.5265 117.28793 C 230.5265 115.64419 230.45397 113.37995 229.11005 112.19108 C 228.47941 111.63284 227.78681 111.31265 227.00113 111.07487 C 224.53038 110.41324 220.92257 110.45426 218.38977 110.38189 C 216.91144 110.35088 215.43323 110.28889 213.9549 110.21653 C 213.21057 110.18551 212.42496 110.18556 211.65995 110.05116 C 211.37047 110.02015 211.03937 109.96854 210.81194 109.76178 C 210.49148 109.49299 210.38819 108.96555 210.38819 108.5727 C 210.38819 108.07648 210.49146 107.54958 210.91529 107.26012 C 211.49423 106.83626 213.44829 106.86738 214.1306 106.86738 L 219.80622 106.86738 C 220.51956 106.86738 221.99764 106.83626 222.62827 107.26012 C 223.19686 107.62195 223.25924 108.07644 223.25924 108.70706 L 223.25924 109.02797 L 229.73068 109.02797 L 229.73068 107.97325 C 229.73068 105.0993 229.09997 103.14532 226.1123 102.38031 C 223.42442 101.71868 220.49888 101.7912 217.73865 101.7912 z M 279.6837 101.7912 C 276.83041 101.7912 273.90496 101.76012 271.08268 102.04958 C 266.88546 102.47344 265.86181 104.94452 265.86181 108.85227 C 265.86181 110.48567 265.94472 112.32563 267.10256 113.60754 C 268.48786 115.15823 270.91681 115.22034 272.81901 115.2927 C 276.34426 115.4271 279.85953 115.61307 283.37443 115.71645 C 284.7287 115.74747 286.04146 115.67519 286.04146 117.36028 C 286.04146 117.76346 286.04151 118.24902 285.81408 118.61085 C 285.25581 119.40687 283.17775 119.30383 282.36106 119.30383 C 281.17218 119.30383 280.0354 119.33483 278.84655 119.33483 C 277.89545 119.33483 276.97508 119.30383 276.02398 119.30383 C 275.31066 119.30383 273.4393 119.37631 272.80867 118.88008 C 272.55023 118.68366 272.41595 118.47657 272.31258 118.1871 C 272.14716 117.72189 272.14721 117.26739 272.14721 116.77117 L 265.70678 116.77117 C 265.66542 117.33975 265.63443 117.89757 265.63443 118.45582 C 265.63443 119.93415 265.76851 121.35045 266.885 122.43594 C 267.62933 123.19061 268.54975 123.61462 269.60422 123.85239 C 272.39546 124.483 275.84804 124.37949 278.70133 124.37949 C 280.41742 124.37949 282.1131 124.37951 283.82919 124.30714 C 285.95882 124.26579 289.40157 124.33808 290.98327 122.62197 C 292.29619 121.20567 292.46123 119.10741 292.47155 117.28793 C 292.47155 115.64419 292.39957 113.37995 291.05562 112.19108 C 290.42501 111.63284 289.73238 111.31265 288.9467 111.07487 C 286.47592 110.41324 282.86763 110.45426 280.33483 110.38189 C 278.8565 110.35088 277.37829 110.28889 275.89996 110.21653 C 275.1556 110.18551 274.37002 110.18556 273.605 110.05116 C 273.31555 110.02015 272.98443 109.96854 272.75699 109.76178 C 272.43651 109.49299 272.33325 108.96555 272.33325 108.5727 C 272.33325 108.07648 272.437 107.54958 272.86086 107.26012 C 273.4398 106.83626 275.39335 106.86738 276.07566 106.86738 L 281.75128 106.86738 C 282.46459 106.86738 283.94269 106.83626 284.57333 107.26012 C 285.13157 107.62195 285.2043 108.07644 285.2043 108.70706 L 285.2043 109.02797 L 291.67574 109.02797 L 291.67574 107.97325 C 291.67574 105.0993 291.04502 103.14532 288.05735 102.38031 C 285.36948 101.71868 282.44394 101.7912 279.6837 101.7912 z M 39.191406 102.1116 L 39.191406 124.01775 L 55.628646 124.01775 C 58.481925 124.01775 63.743846 124.24515 66.007857 122.17756 C 67.351807 120.937 67.848032 118.79734 67.982414 117.02955 C 68.065122 115.62359 68.106437 114.17582 68.106437 112.76986 C 68.106437 110.6299 68.158292 108.32467 67.475985 106.25708 C 66.235408 102.5044 62.679221 102.21497 59.2677 102.1426 C 58.027144 102.11159 56.776189 102.1116 55.525293 102.1116 L 39.191406 102.1116 z M 295.71787 102.1116 L 295.71787 107.70454 L 305.47696 107.70454 L 305.47696 124.03842 L 312.4755 124.03842 L 312.4755 107.70454 L 322.23459 107.70454 L 322.23459 102.1116 L 295.71787 102.1116 z M 84.42017 102.12193 L 84.42017 124.02809 L 91.098315 124.02809 L 91.098315 118.47649 L 102.06664 118.47649 C 103.3899 118.47649 104.41369 118.61099 104.70317 120.0583 C 104.98228 121.34021 104.90988 122.7255 104.90988 124.03842 L 111.48467 124.03842 L 111.48467 120.45105 C 111.48467 117.39101 110.95739 115.78886 107.6079 115.55109 C 108.95183 115.33399 110.23391 115.02379 110.95757 113.78324 C 111.71224 112.51167 111.68104 110.79568 111.68104 109.34836 C 111.68104 107.76665 111.74328 105.80218 110.89556 104.38588 C 109.41723 101.9151 106.63652 102.18395 104.13473 102.15294 C 102.94585 102.15294 101.72586 102.12193 100.54735 102.12193 L 84.42017 102.12193 z M 151.65793 102.12193 L 151.65793 124.02809 L 158.23324 124.02809 L 158.06787 107.63219 L 159.25643 107.63219 L 167.49572 124.02809 L 173.04732 124.02809 L 181.28661 107.63219 L 182.40334 107.63219 L 182.23797 124.02809 L 188.80243 124.02809 L 188.8231 102.12193 L 176.80006 102.12193 L 170.25627 116.3469 L 163.74349 102.12193 L 151.65793 102.12193 z M 232.32535 102.12193 L 244.9065 116.28489 L 244.9065 124.03842 L 251.81254 124.03842 L 251.81254 116.28489 L 263.76323 102.12193 L 255.08986 102.12193 L 248.25616 110.93018 L 241.1336 102.12193 L 232.32535 102.12193 z M 325.6256 102.12193 L 325.6256 124.02809 L 350.00241 124.02809 L 350.01274 124.02809 L 350.01274 118.78706 L 332.20039 118.78706 L 332.20039 115.27203 L 348.98955 115.27203 L 348.98955 110.47491 L 332.20039 110.47491 L 332.20039 107.28079 L 349.87839 107.28079 L 349.87839 102.12193 L 325.6256 102.12193 z M 354.85121 102.12193 L 354.85121 124.02809 L 361.426 124.02809 L 361.26064 107.63219 L 362.44971 107.63219 L 370.689 124.02809 L 376.2406 124.02809 L 384.47989 107.63219 L 385.5961 107.63219 L 385.43074 124.02809 L 392.00605 124.02809 L 392.01638 124.02809 L 392.01638 102.12193 L 379.99334 102.12193 L 373.44904 116.3469 L 366.93626 102.12193 L 354.85121 102.12193 z M 128.12913 107.50817 L 132.32629 107.50817 C 133.86664 107.50817 135.43784 107.46677 136.98854 107.67353 C 138.13606 107.83894 138.89064 108.12849 139.25248 109.31736 C 139.62464 110.46487 139.62455 112.46001 139.62455 113.65921 C 139.62455 114.86875 139.72818 117.08101 138.6427 117.89771 C 137.6399 118.65238 135.65508 118.65219 134.44554 118.65219 C 133.39104 118.65219 132.30537 118.68319 131.2509 118.68319 C 129.74156 118.68319 125.13066 118.87982 123.89011 117.89771 C 122.7736 117.00865 122.90826 114.89977 122.90826 113.65921 C 122.90826 108.56259 122.80506 107.50817 128.12913 107.50817 z M 45.766199 107.60118 L 55.390934 107.60118 C 60.549579 107.60118 61.54199 107.6013 61.531645 113.14245 C 61.531645 114.36233 61.573253 116.83296 60.549792 117.68067 C 59.784785 118.30095 58.306241 118.34212 57.386161 118.37314 C 56.610814 118.41449 55.845892 118.44548 55.060205 118.44548 L 45.766199 118.44548 L 45.766199 107.60118 z M 91.118986 107.60118 L 102.2842 107.60118 C 104.48616 107.60118 105.04425 107.9732 105.05457 110.19586 C 105.05457 112.8217 104.39271 112.88405 101.99429 112.95641 C 101.49807 112.95641 101.01257 112.98742 100.51635 112.98742 L 91.118986 112.98742 L 91.118986 107.60118 z M 70.546598 113.90726 L 70.546598 118.37314 L 81.483915 118.37314 L 81.49425 118.37314 L 81.49425 113.90726 L 70.546598 113.90726 z M 0 129.85874 L 0 132.29167 L 396.875 132.29167 L 396.875 129.85874 L 0 129.85874 z " /><g
       id="g1190"
       transform="matrix(0.26458333,0,0,0.26458333,-202.59955,229.42492)" /></g><style
     type="text/css"
     id="style2">
	.st0{fill:#F05100;}
	.st1{fill:#FFFFFF;}
	.st2{fill:#1281C4;}
	.st3{fill:#034693;}
	.st4{fill:#CF3312;}
</style></svg>
