<?xml version="1.0" encoding="UTF-8" standalone="no"?>
<!-- Created with Inkscape (http://www.inkscape.org/) -->

<svg
   width="1500"
   height="500"
   viewBox="0 0 396.87498 132.29167"
   version="1.1"
   id="svg5"
   inkscape:version="1.2.2 (732a01da63, 2022-12-09)"
   xml:space="preserve"
   sodipodi:docname="naomi.svg"
   xmlns:inkscape="http://www.inkscape.org/namespaces/inkscape"
   xmlns:sodipodi="http://sodipodi.sourceforge.net/DTD/sodipodi-0.dtd"
   xmlns="http://www.w3.org/2000/svg"
   xmlns:svg="http://www.w3.org/2000/svg"><sodipodi:namedview
     id="namedview7"
     pagecolor="#000000"
     bordercolor="#111111"
     borderopacity="1"
     inkscape:showpageshadow="0"
     inkscape:pageopacity="0"
     inkscape:pagecheckerboard="1"
     inkscape:deskcolor="#d1d1d1"
     inkscape:document-units="mm"
     showgrid="false"
     inkscape:zoom="0.62760417"
     inkscape:cx="713.82572"
     inkscape:cy="481.19502"
     inkscape:window-width="1920"
     inkscape:window-height="1009"
     inkscape:window-x="-8"
     inkscape:window-y="-8"
     inkscape:window-maximized="1"
     inkscape:current-layer="layer1" /><defs
     id="defs2" /><g
     inkscape:label="Layer 1"
     inkscape:groupmode="layer"
     id="layer1"><path
       id="rect231"
       style="fill:#ffffff;stroke-width:0.8001;stroke-linecap:square;paint-order:fill markers stroke"
       d="M 0 0 L 0 26.447998 L 61.097563 76.503341 L 61.097563 27.998808 L 73.513342 27.998808 L 73.513342 90.067887 L 73.503007 90.067887 L 73.503007 102.71104 L 12.41578 52.664486 L 12.41578 102.72138 L 0 102.72138 L 0 132.29167 L 396.875 132.29167 L 396.875 102.72138 L 384.45922 102.72138 L 384.45922 27.998808 L 396.875 27.998808 L 396.875 0 L 0 0 z M 214.97809 22.963973 C 238.82777 22.963973 258.15995 42.296139 258.15995 66.145833 C 258.15995 89.995528 238.81745 109.32769 214.97809 109.32769 C 191.12839 109.32769 171.79675 89.995528 171.79675 66.145833 C 171.79675 42.296139 191.13873 22.963973 214.97809 22.963973 z M 128.47019 26.323975 L 170.27694 102.71104 L 156.13466 102.71104 L 148.31188 88.418892 L 132.91747 88.373934 L 108.68277 88.333626 L 100.81607 102.71104 L 86.663444 102.71104 L 94.571488 88.261796 L 86.735791 88.238025 L 86.735791 75.822245 L 101.38141 75.818628 L 128.47019 26.323975 z M 270.07964 27.998808 L 314.09866 78.98536 L 358.12853 27.998808 L 358.12853 102.71104 L 345.71223 102.71104 L 345.71223 61.359562 L 314.09866 97.986784 L 282.49542 61.359562 L 282.49542 102.71104 L 270.07964 102.71104 L 270.07964 27.998808 z M 214.97809 37.613208 C 199.25403 37.613208 186.44547 50.401106 186.44547 66.145833 C 186.44547 81.869883 199.23336 94.678459 214.97809 94.678459 C 230.71248 94.678459 243.52155 81.880223 243.51123 66.145833 C 243.51123 50.421783 230.72282 37.613208 214.97809 37.613208 z M 128.47019 52.168909 L 115.55212 75.778837 L 127.70022 75.738013 L 141.3552 75.710107 L 128.47019 52.168909 z " /><g
       id="g544"
       transform="matrix(0.26458333,0,0,0.26458333,-279.79466,72.447857)" /></g></svg>
