<?xml version="1.0" encoding="UTF-8" standalone="no"?>
<!-- Created with Inkscape (http://www.inkscape.org/) -->

<svg
   width="1500"
   height="500"
   viewBox="0 0 396.87498 132.29167"
   version="1.1"
   id="svg5"
   inkscape:version="1.2.2 (732a01da63, 2022-12-09)"
   xml:space="preserve"
   sodipodi:docname="nds.svg"
   xmlns:inkscape="http://www.inkscape.org/namespaces/inkscape"
   xmlns:sodipodi="http://sodipodi.sourceforge.net/DTD/sodipodi-0.dtd"
   xmlns="http://www.w3.org/2000/svg"
   xmlns:svg="http://www.w3.org/2000/svg"><sodipodi:namedview
     id="namedview7"
     pagecolor="#000000"
     bordercolor="#111111"
     borderopacity="1"
     inkscape:showpageshadow="0"
     inkscape:pageopacity="0"
     inkscape:pagecheckerboard="1"
     inkscape:deskcolor="#d1d1d1"
     inkscape:document-units="mm"
     showgrid="false"
     inkscape:zoom="0.26088402"
     inkscape:cx="797.28916"
     inkscape:cy="908.44967"
     inkscape:window-width="1920"
     inkscape:window-height="1009"
     inkscape:window-x="-8"
     inkscape:window-y="-8"
     inkscape:window-maximized="1"
     inkscape:current-layer="layer1" /><defs
     id="defs2">
		
		
	
			
				
			
		
			
			
			
			
			
				
			
			
			
			
			
		</defs><g
     inkscape:label="Layer 1"
     inkscape:groupmode="layer"
     id="layer1"><path
       id="rect231"
       style="fill:#ffffff;stroke-width:0.8001;stroke-linecap:square;paint-order:fill markers stroke"
       d="M 0 0 L 0 37.88606 L 4.2126628 37.88606 L 24.185604 57.414067 L 24.185604 37.88606 L 28.13265 37.88606 L 29.04939 37.88606 L 29.04939 64.690625 L 25.197428 64.690625 L 4.9309652 44.859277 L 4.9309652 64.690625 L 0 64.690625 L 0 132.29167 L 396.875 132.29167 L 396.875 79.061841 C 396.875 88.158954 386.76644 94.708948 363.96796 94.708948 C 354.60768 94.708948 348.15089 94.101688 340.97144 92.889937 L 340.97144 83.368038 C 346.08318 85.430202 356.87979 87.067037 365.30742 87.067037 C 374.5288 87.067037 378.34486 83.914998 378.34486 79.912435 C 378.34486 76.273189 374.80091 74.211051 364.61909 70.45203 C 351.00232 65.417373 341.01278 61.416452 341.01278 52.379232 C 341.01278 43.10046 353.03426 37.582719 371.35201 37.582719 C 381.19052 37.582719 384.56594 38.189927 390.81077 39.341785 L 390.86038 48.194991 C 384.72271 47.043133 379.28539 45.043245 370.8399 45.043245 C 361.78719 45.043245 357.92751 47.953544 357.92751 50.924023 C 357.92751 55.230033 363.87306 57.292034 374.29498 61.051054 C 388.80471 66.26737 396.875 70.270165 396.875 79.061841 L 396.875 0 L 0 0 z M 263.263 37.704675 L 297.17824 37.704675 C 306.05038 37.704675 316.2022 39.281522 321.57985 41.707015 C 334.641 47.649976 338.89766 57.170508 338.89766 66.145833 C 338.89766 75.12117 334.67872 84.64169 321.56797 90.584652 C 316.20223 93.010144 306.05038 94.586991 297.17824 94.586991 L 263.263 94.586991 L 263.263 37.704675 z M 36.770365 37.88606 L 40.792859 37.88606 L 41.701847 37.88606 L 41.701847 64.690625 L 36.770365 64.690625 L 36.770365 37.88606 z M 49.436776 37.88606 L 53.643754 37.88606 L 73.614111 57.414067 L 73.614111 37.88606 L 77.569425 37.88606 L 78.486165 37.88606 L 78.486165 64.690625 L 74.634204 64.690625 L 54.367741 44.859277 L 54.367741 64.690625 L 49.436776 64.690625 L 49.436776 37.88606 z M 84.073938 37.88606 L 112.06758 37.88606 L 112.97243 37.88606 L 112.97243 42.495597 L 101.08427 42.495597 L 101.08427 64.690625 L 95.960551 64.690625 L 95.960551 42.495597 L 84.073938 42.495597 L 84.073938 37.88606 z M 118.56021 37.88606 L 143.6548 37.88606 L 144.57774 37.88606 L 144.57774 42.495597 L 123.44208 42.495597 L 123.44208 48.498332 L 139.79147 48.498332 L 139.79147 53.107869 L 123.44208 53.107869 L 123.44208 60.081087 L 144.57774 60.081087 L 144.57774 64.690625 L 118.56021 64.690625 L 118.56021 37.88606 z M 151.89615 37.88606 L 156.10262 37.88606 L 176.07349 57.414067 L 176.07349 37.88606 L 180.02829 37.88606 L 180.94503 37.88606 L 180.94503 64.690625 L 177.09772 64.690625 L 156.82505 44.859277 L 156.82505 64.690625 L 151.89615 64.690625 L 151.89615 37.88606 z M 188.46188 37.88606 L 208.22037 37.88606 C 211.66921 37.88606 214.52102 39.219818 216.44984 41.828971 C 218.2576 44.19258 219.21608 47.468407 219.21608 51.287309 C 219.21608 55.108213 218.2576 58.384105 216.44984 60.747713 C 214.52102 63.294983 211.66921 64.690625 208.22037 64.690625 L 188.46188 64.690625 L 188.46188 37.88606 z M 229.96529 37.88606 L 251.4539 37.88606 C 254.57135 37.88606 257.10369 40.433821 257.10369 43.58597 L 257.10369 58.989164 C 257.10369 62.143305 254.57135 64.690625 251.4539 64.690625 L 229.96529 64.690625 C 226.85379 64.690625 224.31551 62.143305 224.31551 58.989164 L 224.31551 43.58597 C 224.31551 40.433821 226.85379 37.88606 229.96529 37.88606 z M 193.21663 42.495597 L 193.21663 60.081087 L 208.35937 60.081087 C 213.09805 60.081087 214.78069 55.289883 214.78069 51.287309 C 214.78069 47.224853 213.09805 42.495597 208.35937 42.495597 L 193.21663 42.495597 z M 230.15753 42.495597 C 229.54237 42.495597 229.04855 42.98109 229.04855 43.58597 L 229.04855 58.989164 C 229.04855 59.536142 229.54237 60.081087 230.15753 60.081087 L 251.26735 60.081087 C 251.87656 60.081087 252.37064 59.536142 252.37064 58.989164 L 252.37064 43.58597 C 252.37064 42.98109 251.87656 42.495597 251.26735 42.495597 L 230.15753 42.495597 z M 281.5947 45.406531 L 281.5947 86.763696 L 292.4452 86.763696 C 309.10004 86.763696 319.60736 79.546954 319.60736 66.145833 C 319.60736 52.744724 309.10004 45.406531 292.4452 45.406531 L 281.5947 45.406531 z M 229.96529 67.904382 L 251.4539 67.904382 C 254.57135 67.904382 257.10369 70.451638 257.10369 73.603776 L 257.10369 89.007487 C 257.10369 92.101734 254.57135 94.708948 251.4539 94.708948 L 229.96529 94.708948 C 226.85379 94.708948 224.31551 92.101734 224.31551 89.007487 L 224.31551 73.603776 C 224.31551 70.451638 226.85379 67.904382 229.96529 67.904382 z M 230.15753 72.51392 C 229.54237 72.51392 229.04855 72.998908 229.04855 73.603776 L 229.04855 88.947542 C 229.04855 89.554413 229.54237 90.09941 230.15753 90.09941 L 251.26735 90.09941 C 251.87656 90.09941 252.37064 89.554413 252.37064 88.947542 L 252.37064 73.603776 C 252.37064 72.998908 251.87656 72.51392 251.26735 72.51392 L 230.15753 72.51392 z " /><g
       transform="matrix(0.11641667,0,0,0.11711596,158.78336,293.14181)"
       id="g1219" /></g><style
     type="text/css"
     id="style2">
	.st0{fill:#F05100;}
	.st1{fill:#FFFFFF;}
	.st2{fill:#1281C4;}
	.st3{fill:#034693;}
	.st4{fill:#CF3312;}
</style></svg>
