<?xml version="1.0" encoding="UTF-8" standalone="no"?>
<!-- Created with Inkscape (http://www.inkscape.org/) -->

<svg
   width="1500"
   height="500"
   viewBox="0 0 396.87498 132.29167"
   version="1.1"
   id="svg5"
   inkscape:version="1.2.2 (732a01da63, 2022-12-09)"
   xml:space="preserve"
   sodipodi:docname="neogeocd.svg"
   xmlns:inkscape="http://www.inkscape.org/namespaces/inkscape"
   xmlns:sodipodi="http://sodipodi.sourceforge.net/DTD/sodipodi-0.dtd"
   xmlns="http://www.w3.org/2000/svg"
   xmlns:svg="http://www.w3.org/2000/svg"><sodipodi:namedview
     id="namedview7"
     pagecolor="#000000"
     bordercolor="#111111"
     borderopacity="1"
     inkscape:showpageshadow="0"
     inkscape:pageopacity="0"
     inkscape:pagecheckerboard="1"
     inkscape:deskcolor="#d1d1d1"
     inkscape:document-units="mm"
     showgrid="false"
     inkscape:zoom="0.26088402"
     inkscape:cx="797.28916"
     inkscape:cy="908.44967"
     inkscape:window-width="1920"
     inkscape:window-height="1009"
     inkscape:window-x="-8"
     inkscape:window-y="-8"
     inkscape:window-maximized="1"
     inkscape:current-layer="layer1" /><defs
     id="defs2">
		
		
	
			
				
			
		
			
			
			
			
			
				
			
			
			
			
			
		</defs><g
     inkscape:label="Layer 1"
     inkscape:groupmode="layer"
     id="layer1"><path
       id="rect231"
       style="fill:#ffffff;stroke-width:0.8001;stroke-linecap:square;paint-order:fill markers stroke"
       d="M 0 0 L 0 132.29167 L 317.5031 132.29167 C 306.32423 132.29167 295.25071 125.08249 295.25071 108.51121 C 295.25071 95.457956 305.08396 84.682686 316.11869 84.682686 C 323.81798 84.682686 326.85565 87.239636 329.26827 87.239636 C 331.1234 87.239636 331.96888 84.019678 331.96888 84.019678 L 334.37236 84.019678 L 334.37236 100.83105 L 331.54617 100.83105 C 330.55615 96.082672 326.24024 89.585229 319.12729 89.585229 C 309.40942 89.585229 307.5737 101.35029 307.56417 108.29985 C 307.56417 113.23087 307.91006 116.96042 308.92895 119.75755 C 310.90906 125.19801 315.21525 127.1974 319.44458 127.1974 C 325.71166 127.1974 331.46929 121.21861 334.36254 115.59553 L 334.36254 122.91033 C 330.41197 128.73527 323.70292 132.29167 317.5031 132.29167 L 396.875 132.29167 L 396.875 0 L 160.91163 0 L 180.0686 19.15697 L 198.64886 0.57670898 L 231.37812 0.57670898 L 254.524 23.722583 L 254.524 56.451851 L 235.94425 75.032113 L 216.78728 55.875142 L 198.20702 74.455404 L 165.47775 74.455404 L 142.33136 51.30953 L 142.33136 18.580261 L 160.91163 0 L 0 0 z M 160.91163 4.6327922 L 145.5999 19.935734 L 145.5999 49.954057 L 166.83271 71.187386 L 196.85155 71.187386 L 212.15398 55.875142 L 160.91163 4.6327922 z M 218.55565 11.784294 L 216.65241 14.879712 L 217.77689 17.907434 L 221.62213 18.503263 L 223.90985 15.302425 L 222.56368 12.274703 L 218.55565 11.784294 z M 209.6642 20.464384 L 204.24335 21.656042 L 203.7147 28.02878 L 208.42449 32.046623 L 213.81692 29.97078 L 213.46139 24.261051 L 209.6642 20.464384 z M 171.09085 23.962878 L 174.28239 28.000358 L 172.7538 31.546912 L 168.88013 32.181498 L 166.22706 27.92336 L 168.08225 24.097754 L 171.09085 23.962878 z M 240.10627 29.806966 L 230.24383 31.57585 L 230.85929 38.525297 L 229.96529 41.293604 L 224.08245 43.821615 L 225.13975 50.204171 L 228.84081 53.154895 L 236.29979 52.241772 L 237.50127 46.253507 L 241.73046 44.773494 L 242.24981 41.149426 L 240.10627 29.806966 z M 156.37495 34.74775 L 158.72985 34.978743 L 159.90238 37.516056 L 156.68243 39.842013 L 154.59677 38.554236 L 154.43295 36.324398 L 156.37495 34.74775 z M 187.94098 44.263965 L 189.55587 52.222652 L 188.49857 56.586727 L 184.30761 61.902165 L 180.47219 63.843648 L 174.80122 63.882406 L 167.43836 59.191219 L 173.5708 60.815926 L 179.69394 60.18134 L 184.02908 57.048197 L 186.38397 52.145654 L 187.94098 44.263965 z M 182.05865 84.038798 C 185.00958 84.038798 189.03701 84.31779 193.53547 86.192155 C 196.51523 87.432116 198.09167 86.326474 198.3512 84.327153 L 200.36968 84.327153 L 200.36968 99.177926 L 198.23545 99.177926 C 194.82314 88.883353 186.81637 87.287695 184.45179 87.287695 C 177.18502 87.287695 172.17709 93.314691 172.17709 107.55984 C 172.17709 118.49843 174.04209 123.1027 176.8104 125.37116 C 179.45371 127.5435 182.99088 127.61082 183.61567 127.61082 C 186.68192 127.61082 188.84446 126.63002 189.47887 125.86105 L 189.47887 115.163 C 189.47887 112.76958 188.70041 111.43351 185.9225 111.43351 L 184.21149 111.43351 L 184.21149 109.25121 L 204.90636 109.25121 L 204.90636 111.43351 C 202.21496 111.43351 200.21569 112.29858 200.21569 115.163 L 200.21569 127.38964 C 195.43845 129.80228 189.41147 131.11913 183.72109 131.11913 C 171.72518 131.11913 160.54627 122.4488 160.54627 107.64614 C 160.54627 94.794745 170.43758 84.038798 182.05865 84.038798 z M 124.11646 84.692505 C 137.14087 84.692505 147.17603 94.285084 147.17603 108.06886 C 147.17603 121.85263 137.14087 131.44572 124.11646 131.44572 C 111.10164 131.44572 101.0667 121.85263 101.0667 108.06886 C 101.0667 94.285084 111.09204 84.692505 124.11646 84.692505 z M 268.60583 84.692505 C 281.63022 84.692505 291.6654 94.285084 291.6654 108.06886 C 291.6654 121.85263 281.63022 131.44572 268.60583 131.44572 C 255.59101 131.44572 245.55607 121.85263 245.55607 108.06886 C 245.55607 94.285084 255.58141 84.692505 268.60583 84.692505 z M 336.03479 85.076978 L 360.54595 85.076978 C 370.69634 85.076978 382.9325 92.189736 382.95182 108.33809 C 382.95182 123.61174 371.98424 131.5899 360.56507 131.5899 L 352.93298 131.5899 L 343.16717 131.5899 L 335.96761 131.5899 L 335.96761 128.29294 L 336.90967 128.29294 C 341.17747 128.29294 342.06181 126.67843 342.06181 124.69833 L 342.06181 91.968547 C 342.06181 89.97884 341.18708 88.373934 336.90967 88.373934 L 336.03479 88.373934 L 336.03479 85.076978 z M 13.923181 85.163277 L 28.245304 85.163277 L 51.708472 113.94188 L 51.708472 91.613013 C 51.708472 89.209982 49.757238 86.970402 47.354215 86.970402 L 45.556909 86.970402 L 45.556909 85.163277 L 59.321444 85.163277 L 59.321444 87.239636 C 56.630052 87.335759 54.803373 89.316028 54.803373 91.65177 L 54.803373 131.06125 L 53.140426 131.06125 L 22.766569 94.025785 L 22.766569 123.34286 C 22.766569 125.06343 23.035364 126.31278 24.025407 127.25476 C 25.025081 128.19675 26.563269 128.59103 29.47572 128.61024 L 29.47572 130.41736 L 13.923181 130.41736 L 13.923181 128.61024 C 16.268535 128.61024 19.642212 127.55293 19.642212 124.3521 L 19.642212 93.064604 C 19.642212 89.854155 17.124014 86.970402 13.923181 86.970402 L 13.923181 85.163277 z M 60.647461 85.163277 L 96.750684 85.163277 L 96.750684 88.267997 L 96.750684 97.96663 L 94.751322 97.96663 C 94.751322 96.813178 94.405499 87.883525 84.389681 87.883525 L 76.949825 87.883525 L 76.949825 105.46436 L 78.372477 105.46436 C 83.043982 105.46436 85.312622 101.59076 85.312622 96.227201 L 87.167289 96.227201 L 87.167289 106.82914 L 87.167289 107.37691 L 87.167289 118.1809 L 85.321924 118.1809 C 85.321924 112.08682 82.620931 108.54014 78.391597 108.54014 L 76.968945 108.54014 L 76.968945 124.40016 C 76.968945 126.02461 78.285934 127.34158 79.910368 127.34158 L 85.081628 127.34158 C 91.079568 127.49538 96.423931 122.65059 97.548568 116.45077 L 99.326754 116.45077 L 97.270032 130.42666 L 66.722542 130.42666 L 60.647461 130.42666 L 60.647461 128.36994 L 62.474223 128.36994 C 64.42547 128.36994 66.722542 127.57217 66.722542 124.06375 L 66.722542 90.747949 C 66.722542 88.806301 65.146356 86.9611 63.195109 86.9611 L 60.647461 86.9611 L 60.647461 85.163277 z M 205.14665 85.163277 L 241.24987 85.163277 L 241.24987 88.267997 L 241.24987 97.96663 L 239.25051 97.96663 C 239.25051 96.813178 238.90469 87.883525 228.88887 87.883525 L 221.44902 87.883525 L 221.44902 105.46436 L 222.87167 105.46436 C 227.54317 105.46436 229.8113 101.59076 229.8113 96.227201 L 231.6763 96.227201 L 231.6763 106.82914 L 231.6763 107.37691 L 231.6763 118.1809 L 229.82111 118.1809 C 229.82111 112.08682 227.12012 108.54014 222.89079 108.54014 L 221.46814 108.54014 L 221.46814 124.40016 C 221.46814 126.02461 222.78512 127.34158 224.40956 127.34158 L 229.58082 127.34158 C 235.57876 127.49538 240.92312 122.65059 242.04776 116.45077 L 243.82594 116.45077 L 241.76871 130.42666 L 211.22173 130.42666 L 205.14665 130.42666 L 205.14665 128.36994 L 206.9729 128.36994 C 208.92414 128.36994 211.22173 127.57217 211.22173 124.06375 L 211.22173 90.747949 C 211.22173 88.806301 209.64503 86.9611 207.69378 86.9611 L 205.14665 86.9611 L 205.14665 85.163277 z M 332.93007 85.346212 C 332.41103 86.6054 331.28648 88.56617 329.27758 88.56617 C 328.19138 88.56617 327.14378 88.20073 325.81732 87.739347 C 323.71227 87.008826 320.83846 86.00922 316.12851 86.00922 C 311.20713 86.00922 306.25688 88.412355 302.55621 92.584013 C 298.71137 96.909464 296.59637 102.57123 296.59637 108.5019 C 296.59637 125.07319 307.86184 130.94601 317.5124 130.94601 C 323.32773 130.94601 329.37378 127.63919 333.036 122.4871 L 333.036 120.22832 C 329.61407 124.78446 324.6925 128.53324 319.45389 128.53324 C 313.89806 128.53324 309.60184 125.49586 307.67941 120.2092 C 306.67976 117.46975 306.23764 113.79798 306.23764 108.29985 C 306.23764 103.59953 307.17004 88.248992 319.13711 88.229757 C 325.95211 88.229757 330.98861 93.8434 332.60347 99.476099 L 333.04582 99.476099 L 333.04582 85.346212 L 332.93007 85.346212 z M 337.38096 86.412813 L 337.38096 87.037581 C 341.3796 87.152924 343.40746 88.80647 343.40746 91.959245 L 343.40746 124.69833 C 343.40746 127.86072 341.35068 129.52336 337.30396 129.61948 L 337.30396 130.24425 L 360.54595 130.24425 C 370.68673 130.24425 381.59635 123.38105 381.59635 108.33809 C 381.59635 101.40775 379.20296 95.640488 374.66602 91.661072 C 370.86923 88.325669 365.7271 86.412813 360.55577 86.412813 L 337.38096 86.412813 z M 124.11646 87.710409 C 117.86859 87.710409 112.79363 93.439217 112.79363 108.06886 C 112.79363 122.6985 117.85896 128.42782 124.11646 128.42782 C 130.37395 128.42782 135.44932 122.6985 135.43979 108.06886 C 135.43979 93.439217 130.37395 87.710409 124.11646 87.710409 z M 268.60583 87.710409 C 262.35796 87.710409 257.283 93.439217 257.283 108.06886 C 257.283 122.6985 262.34833 128.42782 268.60583 128.42782 C 274.86332 128.42782 279.94822 122.6985 279.92917 108.06886 C 279.92917 93.439217 274.86332 87.710409 268.60583 87.710409 z M 352.81774 87.854586 L 358.99824 87.854586 C 362.8719 87.854586 366.55339 89.844548 368.36046 92.920426 C 371.6574 98.514678 371.74401 106.97329 371.75354 107.9345 C 371.75354 109.83769 371.56128 116.48926 369.08135 121.89127 C 367.38 125.60154 363.55457 128.10071 359.58477 128.10071 L 356.37411 128.10071 C 354.41323 128.10071 352.81774 126.51502 352.81774 124.55415 L 352.81774 87.854586 z M 354.15409 89.18112 L 354.15409 124.54434 C 354.15409 125.76507 355.14408 126.75505 356.36481 126.75505 L 359.57495 126.75505 C 363.0353 126.75505 366.37088 124.57327 367.86075 121.32438 C 370.22533 116.16267 370.40788 109.7609 370.40788 107.91538 C 370.40788 107.01184 370.31174 98.889527 367.20704 93.593254 C 365.64026 90.911471 362.41054 89.18112 358.99824 89.18112 L 354.15409 89.18112 z M 153.85624 102.4077 A 5.2482196 5.2482196 0 0 1 159.1045 107.65596 A 5.2482196 5.2482196 0 0 1 153.85624 112.90422 A 5.2482196 5.2482196 0 0 1 148.6085 107.65596 A 5.2482196 5.2482196 0 0 1 153.85624 102.4077 z " /><g
       id="g1338"
       transform="matrix(0.26458333,0,0,0.26458333,-246.23574,139.42202)" /></g><style
     type="text/css"
     id="style2">
	.st0{fill:#F05100;}
	.st1{fill:#FFFFFF;}
	.st2{fill:#1281C4;}
	.st3{fill:#034693;}
	.st4{fill:#CF3312;}
</style></svg>
