<?xml version="1.0" encoding="UTF-8" standalone="no"?>
<!-- Created with Inkscape (http://www.inkscape.org/) -->

<svg
   width="1500"
   height="500"
   viewBox="0 0 396.87498 132.29167"
   version="1.1"
   id="svg5"
   inkscape:version="1.2.2 (732a01da63, 2022-12-09)"
   xml:space="preserve"
   sodipodi:docname="neogeo.svg"
   xmlns:inkscape="http://www.inkscape.org/namespaces/inkscape"
   xmlns:sodipodi="http://sodipodi.sourceforge.net/DTD/sodipodi-0.dtd"
   xmlns="http://www.w3.org/2000/svg"
   xmlns:svg="http://www.w3.org/2000/svg"><sodipodi:namedview
     id="namedview7"
     pagecolor="#000000"
     bordercolor="#111111"
     borderopacity="1"
     inkscape:showpageshadow="0"
     inkscape:pageopacity="0"
     inkscape:pagecheckerboard="1"
     inkscape:deskcolor="#d1d1d1"
     inkscape:document-units="mm"
     showgrid="false"
     inkscape:zoom="0.26088402"
     inkscape:cx="797.28916"
     inkscape:cy="908.44967"
     inkscape:window-width="1920"
     inkscape:window-height="1009"
     inkscape:window-x="-8"
     inkscape:window-y="-8"
     inkscape:window-maximized="1"
     inkscape:current-layer="layer1" /><defs
     id="defs2">
		
		
	
			
				
			
		
			
			
			
			
			
				
			
			
			
			
			
		</defs><g
     inkscape:label="Layer 1"
     inkscape:groupmode="layer"
     id="layer1"><path
       id="rect231"
       style="fill:#ffffff;stroke-width:0.8001;stroke-linecap:square;paint-order:fill markers stroke"
       d="M 0 0 L 0 33.069299 L 20.975981 33.069299 L 55.349593 75.217631 L 55.349593 42.508 C 55.349593 39.003428 52.496423 35.716166 48.971171 35.716166 L 46.344975 35.716166 L 46.344975 33.069299 L 66.504468 33.069299 L 66.504468 36.108907 C 62.565699 36.253637 59.887817 39.158478 59.887817 42.580347 L 59.887817 100.30757 L 57.458508 100.30757 L 12.953731 46.043701 L 12.953731 89.008521 C 12.953731 91.520647 13.346107 93.350015 14.803748 94.735303 C 16.261415 96.110254 18.515079 96.699531 22.784656 96.720194 L 22.784656 99.367061 L 0 99.367061 L 0 132.29167 L 396.875 132.29167 L 396.875 66.626424 C 396.875 86.826815 382.1744 100.87653 363.0905 100.87653 C 344.01694 100.87653 329.31633 86.826815 329.31633 66.626424 C 329.31633 46.426036 344.00663 32.376835 363.0905 32.376835 C 382.1744 32.376835 396.875 46.426036 396.875 66.626424 L 396.875 0 L 0 0 z M 241.08193 31.415653 C 245.40318 31.415653 251.30593 31.828871 257.91191 34.568433 C 262.28486 36.387915 264.60078 34.765046 264.97297 31.8394 L 267.92938 31.8394 L 267.92938 53.611198 L 264.79676 53.611198 C 259.80352 38.517763 248.06998 36.181254 244.60677 36.181254 C 233.969 36.181254 226.62906 45.020263 226.62906 65.882284 C 226.62906 81.906135 229.35862 88.646436 233.41108 91.975264 C 237.28783 95.159358 242.47747 95.262919 243.38721 95.262919 C 247.86353 95.262919 251.03716 93.835913 251.96757 92.698735 L 251.96757 77.026306 C 251.96757 73.521734 250.80953 71.557906 246.7467 71.557906 L 244.24504 71.557906 L 244.24504 68.352934 L 274.56619 68.352934 L 274.56619 71.557906 C 270.61707 71.557906 267.69167 72.82909 267.69167 77.026306 L 267.69167 94.93219 C 260.69284 98.478114 251.85398 100.40059 243.52157 100.40059 C 225.93669 100.40059 209.56137 87.695366 209.56137 66.006307 C 209.56137 47.180867 224.06561 31.415653 241.08193 31.415653 z M 158.53296 32.376835 C 177.61683 32.376835 192.31746 46.426036 192.31746 66.626424 C 192.31746 86.826815 177.61683 100.87653 158.53296 100.87653 C 139.4594 100.87653 124.75879 86.826815 124.75879 66.626424 C 124.75879 46.426036 139.44906 32.376835 158.53296 32.376835 z M 68.457837 33.069299 L 121.35745 33.069299 L 121.35745 37.60804 L 121.35745 51.812341 L 118.43205 51.812341 C 118.43205 50.127251 117.93563 37.049418 103.25571 37.049418 L 92.349402 37.049418 L 92.349402 62.801335 L 94.427311 62.801335 C 101.28139 62.801335 104.59982 57.125685 104.59982 49.268827 L 107.31851 49.268827 L 107.31851 64.796562 L 107.31851 65.603231 L 107.31851 81.430688 L 104.59982 81.430688 C 104.59982 72.498682 100.64043 67.30907 94.437646 67.30907 L 92.359737 67.30907 L 92.359737 90.548478 C 92.359737 92.926209 94.29283 94.859326 96.670585 94.859326 L 104.25875 94.859326 C 113.04603 95.086762 120.88213 87.994921 122.52585 78.907845 L 125.1412 78.907845 L 122.12278 99.377397 L 77.359102 99.377397 L 68.457837 99.377397 L 68.457837 96.358459 L 71.13571 96.358459 C 73.989 96.358459 77.359102 95.190355 77.359102 90.052384 L 77.359102 41.246578 C 77.359102 38.403636 75.043173 35.705831 72.189909 35.705831 L 68.457837 35.705831 L 68.457837 33.069299 z M 273.01589 33.069299 L 325.91499 33.069299 L 325.91499 37.60804 L 325.91499 51.812341 L 322.98959 51.812341 C 322.98959 50.127251 322.49317 37.049418 307.81325 37.049418 L 296.90694 37.049418 L 296.90694 62.801335 L 298.98485 62.801335 C 305.8389 62.801335 309.15736 57.125685 309.15736 49.268827 L 311.87605 49.268827 L 311.87605 64.796562 L 311.87605 65.603231 L 311.87605 81.430688 L 309.15736 81.430688 C 309.15736 72.498682 305.19797 67.30907 298.99519 67.30907 L 296.91728 67.30907 L 296.91728 90.548478 C 296.91728 92.926209 298.8504 94.859326 301.22812 94.859326 L 308.81629 94.859326 C 317.60357 95.086762 325.43965 87.994921 327.08339 78.907845 L 329.69874 78.907845 L 326.68032 99.377397 L 281.91664 99.377397 L 273.01589 99.377397 L 273.01589 96.358459 L 275.69325 96.358459 C 278.54654 96.358459 281.91664 95.190355 281.91664 90.052384 L 281.91664 41.246578 C 281.91664 38.403636 279.60074 35.705831 276.74745 35.705831 L 273.01589 35.705831 L 273.01589 33.069299 z M 0 35.716166 L 0 96.720194 C 3.4425538 96.720194 8.3839844 95.15923 8.3839844 90.476131 L 8.3839844 44.637585 C 8.3839844 39.944149 4.6831044 35.716166 0 35.716166 z M 363.0905 36.791036 C 353.9414 36.791036 346.50857 45.18548 346.50857 66.616089 C 346.50857 88.046698 353.92074 96.441142 363.0905 96.441142 C 372.26029 96.441142 379.69307 88.046698 379.67243 66.616089 C 379.67243 45.18548 372.26029 36.791036 363.0905 36.791036 z M 158.53296 36.801371 C 149.38384 36.801371 141.95103 45.18548 141.95103 66.616089 C 141.95103 88.046698 149.36317 96.441142 158.53296 96.441142 C 167.70272 96.441142 175.13553 88.046696 175.11489 66.626424 C 175.11489 45.195818 167.70272 36.801371 158.53296 36.801371 z M 200.93916 58.314787 A 7.6914565 7.6914565 0 0 1 208.63068 66.006307 A 7.6914565 7.6914565 0 0 1 200.93916 73.697827 A 7.6914565 7.6914565 0 0 1 193.24764 66.006307 A 7.6914565 7.6914565 0 0 1 200.93916 58.314787 z " /><g
       id="g1275"
       transform="matrix(0.26458333,0,0,0.26458333,-264.46452,230.5799)" /></g><style
     type="text/css"
     id="style2">
	.st0{fill:#F05100;}
	.st1{fill:#FFFFFF;}
	.st2{fill:#1281C4;}
	.st3{fill:#034693;}
	.st4{fill:#CF3312;}
</style></svg>
