<?xml version="1.0" encoding="UTF-8" standalone="no"?>
<!-- Created with Inkscape (http://www.inkscape.org/) -->

<svg
   width="1500"
   height="500"
   viewBox="0 0 396.87498 132.29167"
   version="1.1"
   id="svg5"
   inkscape:version="1.2.2 (732a01da63, 2022-12-09)"
   xml:space="preserve"
   sodipodi:docname="nes.svg"
   xmlns:inkscape="http://www.inkscape.org/namespaces/inkscape"
   xmlns:sodipodi="http://sodipodi.sourceforge.net/DTD/sodipodi-0.dtd"
   xmlns="http://www.w3.org/2000/svg"
   xmlns:svg="http://www.w3.org/2000/svg"><sodipodi:namedview
     id="namedview7"
     pagecolor="#000000"
     bordercolor="#111111"
     borderopacity="1"
     inkscape:showpageshadow="0"
     inkscape:pageopacity="0"
     inkscape:pagecheckerboard="1"
     inkscape:deskcolor="#d1d1d1"
     inkscape:document-units="mm"
     showgrid="false"
     inkscape:zoom="0.26088402"
     inkscape:cx="797.28916"
     inkscape:cy="908.44967"
     inkscape:window-width="1920"
     inkscape:window-height="1009"
     inkscape:window-x="-8"
     inkscape:window-y="-8"
     inkscape:window-maximized="1"
     inkscape:current-layer="layer1" /><defs
     id="defs2">
		
		
	
			
				
			
		
			
			
			
			
			
				
			
			
			
			
			
		</defs><g
     inkscape:label="Layer 1"
     inkscape:groupmode="layer"
     id="layer1"><path
       id="rect231"
       style="fill:#ffffff;stroke-width:0.8001;stroke-linecap:square;paint-order:fill markers stroke"
       d="M 0 0 L 0 51.900191 C 0 24.939777 21.963591 3.0065348 48.952568 3.0065348 L 347.909 3.0065348 C 374.9025 3.0065348 396.86156 24.939777 396.86156 51.900191 C 396.85865 78.860605 374.90409 100.79591 347.9121 100.79591 L 48.952568 100.79591 C 21.962088 100.79591 -1.0026537e-14 78.860605 0 51.900191 L 0 113.78117 L 16.658415 113.78117 L 16.658415 117.37423 L 5.4885539 117.37423 C 4.9218048 117.37423 4.1640869 117.94253 4.1640869 118.6987 C 4.1640869 119.45637 4.9218048 120.02316 5.4885539 120.02316 L 15.900321 120.02316 L 15.900321 123.04624 L 5.4885539 123.04624 C 4.9218048 123.04624 4.1640869 123.804 4.1640869 124.37225 C 4.1640869 125.12842 4.9218048 125.88327 5.4885539 125.88327 L 16.658415 125.88327 L 16.658415 129.09393 L 4.1640869 129.09393 C 2.0835018 129.09393 -6.2665859e-16 127.77115 0 125.69207 L 0 132.29167 L 396.875 132.29167 L 396.875 129.07481 L 396.87345 129.07326 L 392.14092 129.07326 L 392.14092 118.86561 C 392.14092 118.10794 391.38214 117.35149 390.81387 117.35149 L 387.97373 117.35149 C 387.21605 117.35149 386.64927 118.10794 386.64927 118.86561 L 386.64927 129.07326 L 381.7307 129.07326 L 381.7307 118.86561 C 381.7307 118.10794 380.97292 117.35149 380.40314 117.35149 L 377.56507 117.35149 C 376.80738 117.35149 376.2406 118.10794 376.2406 118.86561 L 376.2406 129.07481 L 371.31997 129.07481 L 371.31997 113.94653 L 392.70781 113.94653 C 394.79291 113.94653 396.875 116.02895 396.875 118.10804 L 396.875 0 L 0 0 z M 48.952568 14.573271 C 28.346658 14.573271 11.580172 31.318428 11.580172 51.903292 C 11.580172 72.48515 28.345153 89.23383 48.952568 89.23383 L 347.909 89.23383 C 368.51192 89.23383 385.28139 72.486653 385.28139 51.903292 C 385.28139 31.319933 368.51491 14.573271 347.909 14.573271 L 48.952568 14.573271 z M 39.111825 29.445231 L 53.718168 29.445231 L 73.758805 60.999894 L 73.758805 29.445231 L 87.348674 29.445231 L 87.348674 74.576326 L 73.758805 74.576326 L 52.700142 42.001054 L 52.700142 74.576326 L 39.111825 74.576326 L 39.111825 29.445231 z M 95.842212 29.445231 L 109.4295 29.445231 L 109.4295 37.58737 L 95.842212 37.58737 L 95.842212 29.445231 z M 300.00288 29.445231 L 313.59119 29.445231 L 313.59119 74.574776 L 300.00288 74.574776 L 300.00288 73.558818 C 300.00288 73.558818 295.9242 75.595903 290.48821 75.595903 C 281.99901 75.595903 274.86281 67.112599 274.86281 58.626396 C 274.86281 50.48295 281.996 43.01908 290.48821 43.01908 C 295.9242 43.01908 300.00288 46.072123 300.00288 46.072123 L 300.00288 29.445231 z M 165.14341 33.517851 L 179.06711 33.517851 L 179.06711 39.963969 L 186.20207 39.963969 L 186.20207 44.036589 L 179.06711 44.036589 L 179.06711 74.576326 L 165.14341 74.576326 L 165.14341 44.036589 L 158.00741 44.036589 L 158.00741 39.963969 L 165.14341 39.963969 L 165.14341 33.517851 z M 140.00076 43.017529 L 144.07906 43.017529 C 148.49279 43.017529 156.9868 49.123998 156.9868 53.534717 L 156.9868 74.574776 L 143.05845 74.574776 L 143.05845 53.534717 C 143.05845 51.499232 139.32262 49.123617 137.28413 49.123617 C 135.24413 49.123617 130.48919 51.499232 130.48919 53.534717 L 130.48919 74.576326 L 116.90087 74.576326 L 116.90087 44.036589 L 130.48919 44.036589 L 130.48919 47.089632 C 133.54693 45.732141 136.94452 43.017529 140.00076 43.017529 z M 205.22365 43.01908 C 216.43686 43.01908 225.27006 50.484266 225.27307 59.645455 L 200.133 59.645455 L 200.133 68.128658 C 200.133 71.523137 202.1731 72.543892 205.22933 72.543892 C 208.28707 72.543892 210.66259 71.521634 210.66259 68.128658 L 210.66259 64.056038 L 224.58784 64.056038 C 222.54935 71.181742 214.73661 76.611861 205.22365 76.611861 C 194.3547 76.611861 185.18301 69.14785 185.18301 59.643905 C 185.18301 50.482716 194.3547 43.01908 205.22365 43.01908 z M 339.07388 43.01908 C 349.93832 43.01908 359.10898 50.484221 359.11348 59.643905 C 359.11348 69.14785 349.93832 76.611861 339.07388 76.611861 C 327.85767 76.611861 319.02911 69.14785 319.02911 59.643905 C 319.02911 50.482716 327.86066 43.01908 339.07388 43.01908 z M 95.842212 44.036589 L 109.4295 44.036589 L 109.4295 74.576326 L 95.842212 74.576326 L 95.842212 44.036589 z M 253.69356 44.069661 L 257.76566 44.069661 C 262.18991 44.069661 270.67909 50.176175 270.67909 54.588399 L 270.67909 75.627425 L 256.74505 75.627425 L 256.74505 54.588399 C 256.74505 52.552914 253.01082 50.176265 250.97383 50.176265 C 248.93533 50.176265 244.17734 52.552914 244.17734 54.588399 L 244.17734 75.628975 L 230.59213 75.628975 L 230.59213 45.088721 L 244.17734 45.088721 L 244.17734 48.142281 C 247.23659 46.78479 250.63432 44.069661 253.69356 44.069661 z M 205.22365 46.072123 C 202.16892 46.072123 200.12887 48.109304 200.12887 51.502283 L 200.12887 54.553776 L 210.65949 54.553776 L 210.65949 51.502283 C 210.65949 48.109304 208.28289 46.072123 205.22365 46.072123 z M 339.07388 46.072123 C 335.67338 46.072123 333.63202 48.109304 333.63493 51.502283 L 333.63493 68.127108 C 333.63493 71.520084 335.6779 72.539242 339.07388 72.539242 C 342.1256 72.539242 344.16711 71.520084 344.16711 68.127108 L 344.16711 51.502283 C 344.16711 48.109304 342.1256 46.072123 339.07388 46.072123 z M 294.90655 48.109208 C 291.51205 48.109208 289.4707 50.484542 289.4707 53.536267 L 289.4707 66.091573 C 289.4707 69.149312 291.51205 70.164193 294.90655 70.164193 C 297.96277 70.164193 300.00288 69.147809 300.00288 66.091573 L 300.00288 53.536267 C 300.00288 50.484542 297.96277 48.109208 294.90655 48.109208 z M 351.27365 113.7605 L 367.93 113.7605 L 367.93 117.35304 L 356.76375 117.35304 C 356.19548 117.35304 355.43774 117.91984 355.43774 118.67751 C 355.43774 119.43368 356.19548 120.00043 356.76375 120.00043 L 367.17242 120.00043 L 367.17242 123.02505 L 356.76375 123.02505 C 356.19548 123.02505 355.43774 123.78277 355.43774 124.34952 C 355.43774 125.10718 356.19548 125.86208 356.76375 125.86208 L 367.93 125.86208 L 367.93155 129.07481 L 355.43774 129.07481 C 353.35565 129.07481 351.27365 127.75006 351.27365 125.67398 L 351.27365 113.7605 z M 203.93949 113.78117 L 220.59945 113.78117 L 220.59945 117.37423 L 209.43114 117.37423 C 208.86289 117.37423 208.10358 117.94253 208.10358 118.6987 C 208.10358 119.45637 208.86139 120.02316 209.43114 120.02316 L 219.83878 120.02316 L 219.83878 123.04624 L 209.43114 123.04624 C 208.86289 123.04624 208.10358 123.804 208.10358 124.37225 C 208.10358 125.12842 208.86139 125.88327 209.43114 125.88327 L 220.59945 125.88327 L 220.59945 129.09393 L 220.60101 129.09393 L 220.60101 129.09703 L 220.59945 129.09703 L 220.59945 129.09393 L 208.10513 129.09393 C 206.02454 129.09393 203.93949 127.77115 203.93949 125.69207 L 203.93949 113.78117 z M 331.95597 113.94653 L 349.1792 113.94653 L 349.1792 117.34891 L 344.44978 117.34891 C 342.93292 117.34891 342.93307 117.34868 342.93307 118.86251 L 342.93307 129.07016 L 338.2021 129.07016 L 338.2021 118.86251 C 338.2021 117.34868 338.20198 117.34891 336.87608 117.34891 L 331.95597 117.34891 L 331.95597 113.94653 z M 20.064925 113.96617 L 35.965247 113.96617 C 38.047335 113.96617 40.127783 116.04704 40.127783 118.12612 L 40.127783 129.09393 L 35.396806 129.09393 L 35.396806 118.88525 C 35.396806 118.12908 34.639323 117.37268 33.881653 117.37268 L 26.311056 117.37268 C 25.553386 117.37268 24.986589 118.12908 24.986589 118.88525 L 24.986589 129.09393 L 20.064925 129.09393 L 20.064925 113.96617 z M 143.86099 113.96617 L 148.59041 113.96617 L 148.59041 129.09393 L 148.59041 129.09548 L 143.86099 129.09548 L 143.86099 113.96617 z M 151.41815 113.96617 L 167.31899 113.96617 C 169.39957 113.96617 171.48152 116.04704 171.48152 118.12612 L 171.48152 129.09393 L 166.74744 129.09393 L 166.74744 118.88525 C 166.74744 118.12908 165.99306 117.37268 165.23539 117.37268 L 157.66479 117.37268 C 156.90712 117.37268 156.33723 118.12908 156.33723 118.88525 L 156.33723 129.09393 L 151.41815 129.09393 L 151.41815 113.96617 z M 174.90302 113.96617 L 196.29241 113.96617 C 198.376 113.96617 200.45805 116.04704 200.45805 118.12612 L 200.45805 129.09393 L 195.72552 129.09393 L 195.72552 118.88525 C 195.72552 118.12908 194.96776 117.37268 194.3995 117.37268 L 191.55988 117.37268 C 190.80221 117.37268 190.23697 118.12908 190.23697 118.88525 L 190.23697 129.09393 L 185.31375 129.09393 L 185.31375 118.88525 C 185.31375 118.12908 184.55749 117.37268 183.98774 117.37268 L 181.14812 117.37268 C 180.39045 117.37268 179.8252 118.12908 179.8252 118.88525 L 179.8252 129.09393 L 174.90302 129.09393 L 174.90302 113.96617 z M 223.31453 113.96617 L 239.21486 113.96617 C 241.29845 113.96617 243.37894 116.04704 243.37894 118.12612 L 243.37894 129.09393 L 238.64538 129.09393 L 238.64538 118.88525 C 238.64538 118.12908 237.88893 117.37268 237.13126 117.37268 L 229.56222 117.37268 C 228.80154 117.37268 228.23465 118.12908 228.23465 118.88525 L 228.23465 129.09393 L 223.31453 129.09393 L 223.31453 113.96617 z M 42.211377 113.96772 L 59.436682 113.96772 L 59.436682 117.37268 L 54.704154 117.37268 C 53.190319 117.37268 53.190035 117.37292 53.190035 118.88525 L 53.190035 129.09393 L 48.458024 129.09393 L 48.458024 118.88525 C 48.458024 117.37292 48.457975 117.37268 47.133557 117.37268 L 42.211377 117.37268 L 42.211377 113.96772 z M 81.583134 113.96772 L 96.917082 113.96927 C 98.243005 113.96927 100.32514 116.80588 100.32514 118.13181 L 100.32514 119.45627 C 100.32514 120.96861 98.999125 122.29186 98.999125 122.8571 C 98.999125 123.61477 99.566016 124.3708 99.566016 124.93604 L 99.566016 129.09703 L 95.401929 129.09703 L 95.401929 126.4512 C 95.401929 125.69353 94.835085 124.93604 94.075911 124.93604 L 87.829781 124.93604 C 87.073616 124.93604 86.505314 125.69503 86.505314 126.4512 L 86.505314 129.09703 L 81.583134 129.09703 L 81.583134 113.96772 z M 102.35913 113.96772 L 119.58392 113.96772 L 119.58392 117.37268 L 114.8519 117.37268 C 113.33506 117.37268 113.33468 117.37292 113.33468 118.88525 L 113.33468 129.09393 L 108.60371 129.09393 L 108.60371 118.88525 C 108.60371 117.37292 108.60417 117.37268 107.27976 117.37268 L 102.35913 117.37268 L 102.35913 113.96772 z M 125.12104 113.96772 L 136.85418 113.96772 C 138.36952 113.96772 140.45034 116.80433 140.45034 118.13026 L 140.45034 129.09703 L 135.52971 129.09703 L 135.52971 124.93604 L 126.63465 124.93604 L 126.63465 129.09703 L 121.71453 129.09703 L 121.71453 118.13026 C 121.71453 116.80433 123.79512 113.96772 125.12104 113.96772 z M 246.15293 113.96772 L 263.37617 113.96772 L 263.37617 117.37268 L 258.64519 117.37268 C 257.13136 117.37268 257.13159 117.37292 257.13159 118.88525 L 257.13159 129.09393 L 252.40061 129.09393 L 252.40061 118.88525 C 252.40061 117.37292 252.40052 117.37268 251.0746 117.37268 L 246.15293 117.37268 L 246.15293 113.96772 z M 61.527511 113.96927 L 78.187476 113.96927 L 78.187476 117.56233 L 67.016064 117.56233 C 66.450817 117.56233 65.693148 118.13068 65.693148 118.88835 C 65.693148 119.64602 66.450817 120.2123 67.016064 120.2123 L 77.428349 120.2123 L 77.428349 123.23589 L 67.016064 123.23589 C 66.450817 123.23589 65.693148 123.99314 65.693148 124.56139 C 65.693148 125.31906 66.450817 126.07241 67.016064 126.07241 L 78.187476 126.07241 L 78.187476 129.28513 L 65.693148 129.28513 C 63.611059 129.28513 61.527511 127.96236 61.527511 125.88327 L 61.527511 113.96927 z M 275.89272 114.02508 L 289.70997 114.02508 L 289.70997 117.42539 L 277.40684 117.42539 C 276.64918 117.42539 275.89272 117.99369 275.89272 118.74986 C 275.89272 119.50753 276.64918 120.07432 277.40684 120.07432 L 285.73501 120.07432 C 287.06095 120.07432 289.70997 122.15458 289.70997 123.66842 L 289.70997 125.74788 C 289.70997 127.0708 287.06095 129.14974 285.73501 129.14974 L 271.72708 129.14974 L 271.72708 125.74788 L 284.22089 125.74788 C 284.97707 125.74788 285.73501 124.99303 285.73501 124.23686 C 285.73501 123.67011 284.97855 122.91239 284.22089 122.91239 L 275.89272 122.91239 C 274.56682 122.91239 271.72708 120.83345 271.72708 119.51053 L 271.72708 117.42849 C 271.72708 116.10708 274.56682 114.02663 275.89272 114.02663 L 275.89272 114.02508 z M 315.99053 114.02508 L 329.80778 114.02508 L 329.80778 117.42539 L 317.5031 117.42539 C 316.74692 117.42539 315.98898 117.99369 315.98898 118.74986 C 315.98898 119.50753 316.74544 120.07432 317.5031 120.07432 L 325.83282 120.07432 C 327.15725 120.07432 329.80778 122.15458 329.80778 123.66842 L 329.80778 125.74788 C 329.80778 127.0708 327.15725 129.14974 325.83282 129.14974 L 311.82489 129.14974 L 311.82489 125.74788 L 324.31922 125.74788 C 325.07537 125.74788 325.83282 124.99303 325.83282 124.23686 C 325.83282 123.67011 325.07537 122.91239 324.31922 122.91239 L 315.99053 122.91239 C 314.6646 122.91239 311.82489 120.83345 311.82489 119.51053 L 311.82489 117.42849 C 311.82489 116.10708 314.6646 114.02663 315.99053 114.02663 L 315.99053 114.02508 z M 291.22512 114.02663 L 295.95455 114.02663 L 295.95455 119.51208 C 295.95455 120.07883 296.71201 120.83655 297.4697 120.83655 L 303.52669 120.83655 C 304.28287 120.83655 305.0403 120.07733 305.0403 119.51208 L 305.0403 114.02663 L 309.77282 114.02663 L 309.77282 120.83655 C 309.77282 122.15947 307.68923 124.23841 306.36631 124.23841 L 302.95825 124.23841 L 302.95825 129.15284 L 298.03659 129.15284 L 298.03659 124.23841 L 294.63163 124.23841 C 293.3057 124.23841 291.22512 122.15947 291.22512 120.83655 L 291.22512 114.02663 z M 87.829781 117.37268 C 87.073616 117.37268 86.506902 118.13059 86.505314 118.88525 L 86.505314 120.20817 C 86.505314 120.96583 87.073616 121.53263 87.829781 121.53263 L 94.075911 121.53263 C 94.833579 121.53263 95.400378 120.96433 95.400378 120.20817 L 95.400378 118.88525 C 95.400378 118.12908 94.835085 117.37268 94.075911 117.37268 L 87.829781 117.37268 z M 127.95911 117.37268 C 127.20295 117.37268 126.63465 118.13059 126.63465 118.88525 L 126.63465 121.53263 L 135.52971 121.53263 L 135.52971 118.88525 C 135.52971 118.12908 134.77199 117.37268 134.20524 117.37268 L 127.95911 117.37268 z " /><g
       id="g1482"
       transform="matrix(0.26458333,0,0,0.26458333,2.5e-6,3.0066279)" /></g><style
     type="text/css"
     id="style2">
	.st0{fill:#F05100;}
	.st1{fill:#FFFFFF;}
	.st2{fill:#1281C4;}
	.st3{fill:#034693;}
	.st4{fill:#CF3312;}
</style></svg>
