<?xml version="1.0" encoding="UTF-8" standalone="no"?>
<!-- Created with Inkscape (http://www.inkscape.org/) -->

<svg
   width="1500"
   height="500"
   viewBox="0 0 396.87498 132.29167"
   version="1.1"
   id="svg5"
   inkscape:version="1.2.2 (732a01da63, 2022-12-09)"
   xml:space="preserve"
   sodipodi:docname="ngage.svg"
   xmlns:inkscape="http://www.inkscape.org/namespaces/inkscape"
   xmlns:sodipodi="http://sodipodi.sourceforge.net/DTD/sodipodi-0.dtd"
   xmlns="http://www.w3.org/2000/svg"
   xmlns:svg="http://www.w3.org/2000/svg"><sodipodi:namedview
     id="namedview7"
     pagecolor="#000000"
     bordercolor="#111111"
     borderopacity="1"
     inkscape:showpageshadow="0"
     inkscape:pageopacity="0"
     inkscape:pagecheckerboard="1"
     inkscape:deskcolor="#d1d1d1"
     inkscape:document-units="mm"
     showgrid="false"
     inkscape:zoom="0.26088402"
     inkscape:cx="797.28916"
     inkscape:cy="908.44967"
     inkscape:window-width="1920"
     inkscape:window-height="1009"
     inkscape:window-x="-8"
     inkscape:window-y="-8"
     inkscape:window-maximized="1"
     inkscape:current-layer="layer1" /><defs
     id="defs2">
		
		
	
			
				
			
		
			
			
			
			
			
				
			
			
			
			
			
		
		
		
		
	</defs><g
     inkscape:label="Layer 1"
     inkscape:groupmode="layer"
     id="layer1"><path
       id="rect231"
       style="fill:#ffffff;stroke-width:0.8001;stroke-linecap:square;paint-order:fill markers stroke"
       d="M 0 0 L 0 49.732365 C 0 48.218701 0.66427898 46.867056 1.9952271 45.672664 C 3.4165726 44.527319 4.8614489 43.76936 6.3308797 43.402002 C 6.8809532 43.402002 7.5116348 43.425008 8.2232707 43.470215 C 8.9339408 43.516377 9.7254998 43.585563 10.596769 43.676921 C 12.293151 43.906761 13.738477 44.388488 14.931905 45.121277 L 54.494865 77.254716 L 54.494865 43.951839 L 68.256299 43.951839 L 68.256299 82.964962 C 68.256299 84.066072 67.865742 85.120835 67.085828 86.129626 C 66.398237 87.000896 65.641755 87.668578 64.815682 88.12537 C 62.429786 88.905284 60.137185 89.087761 57.934965 88.675208 C 55.640427 88.354009 53.531269 87.598563 51.604085 86.406095 C 49.815385 85.075147 48.002657 83.745109 46.168758 82.415125 C 44.332933 81.085137 42.3953 79.627827 40.354643 78.045882 C 38.313022 76.462977 36.146292 74.755403 33.852714 72.91958 C 29.219399 69.296014 24.81579 65.855931 20.642151 62.598763 C 16.42139 59.388717 13.944315 57.187356 13.210563 55.992965 L 13.210563 88.126404 L 0 88.126404 L 0 132.29167 L 396.875 132.29167 L 396.875 88.126404 L 328.6187 88.126404 L 328.6187 61.154407 L 381.94309 61.154407 L 381.94309 70.373999 L 342.38014 70.373999 L 342.38014 78.355941 L 396.875 78.355941 L 396.875 0 L 0 0 z M 107.88747 43.951839 L 183.57484 43.951839 L 184.05647 43.951839 L 234.00949 43.951839 C 235.84435 43.951839 237.77155 44.527319 239.79105 45.672664 C 241.67111 46.866095 242.61261 48.586098 242.61155 50.832556 L 242.61155 88.126404 L 229.46971 88.126404 L 229.46971 70.373999 L 190.45556 70.373999 L 190.45556 61.77349 L 229.46971 61.77349 L 229.46971 54.27369 C 229.46971 53.907295 229.1684 53.631062 228.57313 53.447384 C 228.29905 53.356026 228.02348 53.264786 227.74941 53.172465 L 184.05647 53.172465 L 183.57484 53.172465 L 114.76871 53.172465 L 114.76871 78.973991 L 162.38285 78.973991 L 162.38285 70.373999 L 129.07998 70.373999 L 129.07998 61.77349 L 175.52469 61.77349 L 175.52469 82.415641 C 175.52469 86.222886 173.62072 88.126404 169.81444 88.126404 L 106.71855 88.126404 C 105.61744 88.126404 104.37865 87.644607 103.0025 86.681014 C 101.67155 85.717424 101.00675 83.907583 101.00675 81.245687 L 101.00675 50.832039 C 101.00675 48.905819 101.58031 47.300585 102.72758 46.015796 C 103.87389 44.639649 105.59293 43.951839 107.88747 43.951839 z M 252.93236 43.951839 L 328.6187 43.951839 L 329.10136 43.951839 L 394.53509 43.951839 L 394.53509 53.104252 L 329.10136 53.104252 L 329.10136 53.172465 L 259.81205 53.172465 L 259.81205 78.973991 L 307.42723 78.973991 L 307.42723 70.373999 L 274.12487 70.373999 L 274.12487 61.77349 L 320.56855 61.77349 L 320.56855 82.415641 C 320.56855 86.222886 318.66451 88.126404 314.85727 88.126404 L 251.76189 88.126404 C 250.66175 88.126404 249.42302 87.644607 248.04687 86.681014 C 246.71497 85.717424 246.05165 83.907583 246.05165 81.245687 L 246.05165 50.832039 C 246.05165 48.905819 246.62469 47.300585 247.77196 46.015796 C 248.9173 44.639649 250.63782 43.951839 252.93236 43.951839 z M 84.704907 59.435132 C 85.806015 59.435132 86.837769 59.59556 87.801359 59.916756 C 88.763989 60.237955 89.613188 60.673577 90.34694 61.223653 C 91.080692 61.773727 91.653732 62.416842 92.067249 63.149634 C 92.479805 63.883386 92.686849 64.663396 92.686849 65.488509 C 92.686849 66.31458 92.480765 67.094739 92.067249 67.829451 C 91.653732 68.564167 91.080692 69.194775 90.34694 69.720809 C 89.613188 70.248763 88.763989 70.67292 87.801359 70.994116 C 86.837769 71.315315 85.806015 71.475224 84.704907 71.475224 C 83.603797 71.475224 82.559988 71.315315 81.573315 70.994116 C 80.586645 70.67292 79.72738 70.248763 78.993628 69.720809 C 78.259876 69.194775 77.68632 68.564167 77.272803 67.829451 C 76.859286 67.094739 76.653719 66.315543 76.653719 65.488509 C 76.653719 64.663396 76.860246 63.883386 77.272803 63.149634 C 77.685357 62.415881 78.258915 61.773727 78.993628 61.223653 C 79.72738 60.672617 80.586645 60.237955 81.573315 59.916756 C 82.559025 59.596521 83.603797 59.435132 84.704907 59.435132 z " /><g
       id="g14"
       transform="matrix(0.26458333,0,0,0.26458333,76.755384,304.54558)"
       style="fill:#ffffff;fill-opacity:1">
	
	
	
</g></g><style
     type="text/css"
     id="style2">
	.st0{fill:#F05100;}
	.st1{fill:#FFFFFF;}
	.st2{fill:#1281C4;}
	.st3{fill:#034693;}
	.st4{fill:#CF3312;}
</style></svg>
