<?xml version="1.0" encoding="UTF-8" standalone="no"?>
<!-- Created with Inkscape (http://www.inkscape.org/) -->

<svg
   width="1500"
   height="500"
   viewBox="0 0 396.87498 132.29167"
   version="1.1"
   id="svg5"
   inkscape:version="1.2.2 (732a01da63, 2022-12-09)"
   xml:space="preserve"
   sodipodi:docname="ngp.svg"
   xmlns:inkscape="http://www.inkscape.org/namespaces/inkscape"
   xmlns:sodipodi="http://sodipodi.sourceforge.net/DTD/sodipodi-0.dtd"
   xmlns="http://www.w3.org/2000/svg"
   xmlns:svg="http://www.w3.org/2000/svg"><sodipodi:namedview
     id="namedview7"
     pagecolor="#000000"
     bordercolor="#111111"
     borderopacity="1"
     inkscape:showpageshadow="0"
     inkscape:pageopacity="0"
     inkscape:pagecheckerboard="1"
     inkscape:deskcolor="#d1d1d1"
     inkscape:document-units="mm"
     showgrid="false"
     inkscape:zoom="0.26088402"
     inkscape:cx="797.28916"
     inkscape:cy="908.44967"
     inkscape:window-width="1920"
     inkscape:window-height="1009"
     inkscape:window-x="-8"
     inkscape:window-y="-8"
     inkscape:window-maximized="1"
     inkscape:current-layer="layer1" /><defs
     id="defs2">
		
		
	
			
				
			
		
			
			
			
			
			
				
			
			
			
			
			
		
		
		
		
	</defs><g
     inkscape:label="Layer 1"
     inkscape:groupmode="layer"
     id="layer1"><path
       id="rect231"
       style="fill:#ffffff;stroke-width:0.8001;stroke-linecap:square;paint-order:fill markers stroke"
       d="M 0 0 L 0 69.578182 L 3.9568644 69.578182 L 23.786662 98.620854 L 23.739119 69.578182 L 27.509432 69.578182 L 27.509432 104.35332 L 23.739119 104.35332 L 3.6752279 75.075521 L 3.7682454 104.35332 L 0 104.35332 L 0 132.29167 L 396.875 132.29167 L 396.875 73.00898 L 385.59559 73.00898 L 385.59559 104.35332 L 381.68471 104.35332 L 381.68471 73.00898 L 370.45129 73.00898 L 370.45129 69.578182 L 396.875 69.578182 L 396.875 0 L 0 0 z M 215.46747 22.549528 C 218.22178 22.949401 220.95001 23.34924 223.72019 23.753072 C 221.58302 29.541335 219.45577 35.296131 217.32059 41.074495 C 215.80849 40.763703 214.33631 40.460797 212.82422 40.150004 C 213.70528 34.286518 214.58442 28.424892 215.46747 22.549528 z M 230.36423 27.0769 C 232.47561 28.531884 234.54891 29.963412 236.63052 31.3986 C 232.86815 35.876387 229.11385 40.341882 225.3356 44.835506 C 224.01401 44.021903 222.70442 43.21445 221.35703 42.38501 C 224.34748 37.305433 227.34203 32.211905 230.36423 27.0769 z M 241.89325 36.291842 C 243.35573 38.653469 244.79655 40.985431 246.263 43.354976 C 241.4886 46.302556 236.7159 49.248034 231.93158 52.203532 C 230.92749 50.708957 229.94344 49.242215 228.93538 47.739722 C 233.25139 43.92707 237.55937 40.122309 241.89325 36.291842 z M 211.33387 45.690751 C 216.60437 45.87881 221.05928 47.91777 224.69068 51.712606 C 226.62941 53.733747 227.89931 56.144917 228.71886 58.811397 C 229.33798 60.82264 229.65761 62.873401 229.62784 64.971745 C 229.58022 68.358789 228.70895 71.53002 226.97064 74.441968 C 225.10136 77.573647 222.5558 80.060384 219.50185 82.039954 C 217.58494 83.281144 215.54854 84.286804 213.40144 85.104366 C 207.99998 80.646375 202.60487 76.194261 197.18951 71.726371 C 198.86829 66.99322 200.54478 62.269938 202.22952 57.51897 C 206.85509 57.47344 211.4807 57.429624 216.15787 57.384094 L 216.15787 64.245691 L 207.0995 64.245691 C 206.50816 66.405402 205.9187 68.559066 205.32338 70.732633 C 208.46663 72.955691 211.59583 75.168888 214.79464 77.433516 C 215.66777 76.667423 216.56869 75.929011 217.41205 75.129264 C 218.63641 73.967257 219.68044 72.654534 220.59325 71.229244 C 221.9585 69.097247 222.72817 66.800982 222.68253 64.261194 C 222.65078 62.434051 222.08738 60.73781 221.2976 59.110604 C 220.46417 57.394317 219.37842 55.875631 217.84252 54.705705 C 216.10024 53.381372 214.11791 52.753924 211.95295 52.684639 C 208.77399 52.581702 205.82934 53.444754 203.0274 54.881921 C 200.36239 56.247825 197.69127 57.600173 195.02427 58.958158 C 193.13713 59.922209 191.24811 60.884371 189.35898 61.848421 C 189.32128 61.868217 189.28748 61.895726 189.24581 61.925419 C 196.8162 76.948375 204.38272 91.959423 211.96897 107.01207 C 209.83776 107.92663 207.74641 108.8256 205.61122 109.74214 C 197.19351 92.61094 188.76943 75.477666 180.33783 58.326672 C 181.17722 57.926799 182.0187 57.528773 182.85809 57.13088 C 185.34054 55.956995 187.82531 54.784908 190.30776 53.607064 C 193.12359 52.272834 195.94527 50.946864 198.75118 49.592839 C 200.01324 48.983131 201.23938 48.3042 202.49152 47.676676 C 205.27162 46.283059 208.2184 45.581875 211.33387 45.690751 z M 108.60112 68.964783 C 115.66748 68.964783 122.21545 72.914012 124.94793 78.599337 L 120.51926 78.599337 L 120.51926 78.601404 C 119.43579 77.096931 118.11608 75.827769 116.60994 74.841943 C 114.34775 73.289961 111.61512 72.397131 108.50759 72.397131 C 100.87569 72.397131 94.234041 78.2254 94.234041 86.917692 C 94.234041 95.752513 100.92315 101.58036 108.55306 101.58036 C 112.22812 101.58036 115.47862 100.31334 117.88169 98.432751 C 120.33239 96.50465 122.02697 93.873705 122.59252 91.145858 L 103.61796 91.145858 L 103.61796 87.950704 L 127.11524 87.950704 C 127.06761 89.971845 126.59709 92.509534 125.55926 94.671224 C 122.545 101.2038 115.57179 105.01064 108.55306 105.01064 C 98.379184 105.01064 90.322652 97.209476 90.322652 86.917692 C 90.322652 76.485358 98.520508 68.964783 108.60112 68.964783 z M 70.157475 68.96685 C 80.37898 68.96685 88.340344 76.76847 88.340344 86.965234 C 88.340344 97.163979 80.426605 104.96517 70.157475 104.96517 C 59.84072 104.96517 51.972538 97.02301 51.972538 87.107345 L 51.972538 87.059802 C 51.972538 76.34637 60.311016 68.96685 70.157475 68.96685 z M 168.03677 68.96685 C 178.25828 68.96685 186.21964 76.76847 186.21964 86.965234 C 186.21964 97.163979 178.3059 104.96517 168.03677 104.96517 C 157.72002 104.96517 149.85184 97.02301 149.85184 87.107345 L 149.85184 87.059802 C 149.85184 76.34637 158.19031 68.96685 168.03677 68.96685 z M 247.42572 68.96685 C 257.64921 68.96685 265.61066 76.76847 265.61066 86.965234 C 265.61066 97.163979 257.69684 104.96517 247.42572 104.96517 C 237.10897 104.96517 229.24079 97.02301 229.24079 87.107345 L 229.24079 87.059802 C 229.24079 76.34637 237.57927 68.96685 247.42572 68.96685 z M 288.45681 68.968917 C 297.07693 68.968917 302.49439 74.701318 304.52043 79.119718 L 300.3274 79.119718 C 299.14869 77.051068 295.19177 72.399198 288.45681 72.399198 C 280.30699 72.399198 274.18326 78.836658 274.18326 86.919242 C 274.18326 95.144355 280.35263 101.53489 288.45681 101.53489 C 295.7593 101.53489 299.48008 96.318367 300.3274 95.001953 L 304.52043 95.001953 C 302.26023 100.36065 296.18388 104.96724 288.50435 104.96724 C 278.1876 104.96724 270.32148 97.023 270.32148 86.966785 C 270.32148 77.051119 277.99917 68.968917 288.45681 68.968917 z M 332.07534 69.576632 L 336.31384 69.576632 L 319.66473 86.917692 L 337.77628 104.35332 L 332.92438 104.35332 L 317.35737 89.314962 L 313.801 93.020679 L 313.801 104.35332 L 309.93767 104.35332 L 309.93767 69.578182 L 313.801 69.578182 L 313.801 83.963867 L 313.801 88.431812 L 332.07534 69.576632 z M 31.718477 69.578182 L 50.212439 69.578182 L 50.212439 73.00898 L 35.581807 73.00898 L 35.581807 85.086279 L 50.119421 85.086279 L 50.119421 88.517078 L 35.581807 88.517078 L 35.581807 100.92304 L 50.212439 100.92304 L 50.212439 104.35332 L 31.718477 104.35332 L 31.718477 69.578182 z M 128.98437 69.578182 L 148.29844 69.578182 L 148.29844 73.00898 L 132.84771 73.00898 L 132.84771 85.086279 L 148.20284 85.086279 L 148.20284 88.517078 L 132.84771 88.517078 L 132.84771 100.92304 L 148.29844 100.92304 L 148.29844 104.35332 L 128.98437 104.35332 L 128.98437 69.578182 z M 342.77288 69.578182 L 362.08901 69.578182 L 362.08901 73.00898 L 346.63879 73.00898 L 346.63879 85.086279 L 361.99341 85.086279 L 361.99341 88.517078 L 346.63879 88.517078 L 346.63879 100.92304 L 362.08901 100.92304 L 362.08901 104.35332 L 342.77288 104.35332 L 342.77288 69.578182 z M 70.157475 72.397131 C 61.96003 72.397131 55.88186 78.882618 55.88186 86.917692 L 55.88186 86.965234 C 55.88186 95.142838 62.053647 101.53489 70.203467 101.53489 C 78.448537 101.53489 84.478564 94.909249 84.478564 86.965234 C 84.478564 79.0232 78.448185 72.397131 70.157475 72.397131 z M 168.03677 72.397131 C 159.83933 72.397131 153.76322 78.882618 153.76322 86.917692 L 153.76322 86.965234 C 153.76322 95.142838 159.93294 101.53489 168.08276 101.53489 C 176.32783 101.53489 182.35631 94.909249 182.35631 86.965234 C 182.35631 79.0232 176.32748 72.397131 168.03677 72.397131 z M 247.42572 72.397131 C 239.23026 72.397131 233.15011 78.882618 233.15011 86.917692 L 233.15011 86.965234 C 233.15011 95.142838 239.32146 101.53489 247.47327 101.53489 C 255.71635 101.53489 261.74681 94.909249 261.74681 86.965234 C 261.74681 79.0232 255.71842 72.397131 247.42572 72.397131 z " /><g
       transform="matrix(0.66145833,0,0,0.65985731,23.897434,367.57365)"
       id="g1541"
       style="stroke-width:0.176" /></g><style
     type="text/css"
     id="style2">
	.st0{fill:#F05100;}
	.st1{fill:#FFFFFF;}
	.st2{fill:#1281C4;}
	.st3{fill:#034693;}
	.st4{fill:#CF3312;}
</style></svg>
