<?xml version="1.0" encoding="UTF-8" standalone="no"?>
<!-- Created with Inkscape (http://www.inkscape.org/) -->

<svg
   width="1500"
   height="500"
   viewBox="0 0 396.87498 132.29167"
   version="1.1"
   id="svg5"
   inkscape:version="1.2.2 (732a01da63, 2022-12-09)"
   xml:space="preserve"
   sodipodi:docname="ngpc.svg"
   xmlns:inkscape="http://www.inkscape.org/namespaces/inkscape"
   xmlns:sodipodi="http://sodipodi.sourceforge.net/DTD/sodipodi-0.dtd"
   xmlns="http://www.w3.org/2000/svg"
   xmlns:svg="http://www.w3.org/2000/svg"><sodipodi:namedview
     id="namedview7"
     pagecolor="#000000"
     bordercolor="#111111"
     borderopacity="1"
     inkscape:showpageshadow="0"
     inkscape:pageopacity="0"
     inkscape:pagecheckerboard="1"
     inkscape:deskcolor="#d1d1d1"
     inkscape:document-units="mm"
     showgrid="false"
     inkscape:zoom="0.26088402"
     inkscape:cx="797.28916"
     inkscape:cy="908.44967"
     inkscape:window-width="1920"
     inkscape:window-height="1009"
     inkscape:window-x="-8"
     inkscape:window-y="-8"
     inkscape:window-maximized="1"
     inkscape:current-layer="layer1" /><defs
     id="defs2">
		
		
	
			
				
			
		
			
			
			
			
			
				
			
			
			
			
			
		
		
		
		
	</defs><g
     inkscape:label="Layer 1"
     inkscape:groupmode="layer"
     id="layer1"><path
       id="rect231"
       style="fill:#ffffff;stroke-width:0.8001;stroke-linecap:square;paint-order:fill markers stroke"
       d="M 0 0 L 0 54.671082 L 3.9568644 54.671082 L 23.786662 83.784033 L 23.739119 54.671082 L 27.509432 54.671082 L 27.509432 89.530452 L 23.739119 89.530452 L 3.6752279 60.181856 L 3.7682454 89.530452 L 0 89.530452 L 0 132.29167 L 396.875 132.29167 L 396.875 58.110148 L 385.59559 58.110148 L 385.59559 89.530452 L 381.68471 89.530452 L 381.68471 58.110148 L 370.45129 58.110148 L 370.45129 54.671082 L 396.875 54.671082 L 396.875 0 L 0 0 z M 215.46747 7.5282227 C 218.22178 7.929066 220.95001 8.3300553 223.72019 8.7348674 C 221.58302 14.537174 219.45577 20.305764 217.32059 26.098149 C 215.80849 25.786602 214.33631 25.483137 212.82422 25.17159 C 213.70528 19.293877 214.58442 13.417842 215.46747 7.5282227 z M 230.36423 12.066447 C 232.47561 13.524961 234.54891 14.959812 236.63052 16.398482 C 232.86815 20.887134 229.11385 25.363934 225.3356 29.868461 C 224.01401 29.052884 222.70442 28.243216 221.35703 27.411764 C 224.34748 22.319862 227.34203 17.213911 230.36423 12.066447 z M 241.89325 21.304126 C 243.35573 23.671483 244.79655 26.009019 246.263 28.384314 C 241.4886 31.339045 236.7159 34.291905 231.93158 37.254574 C 230.92749 35.756372 229.94344 34.285534 228.93538 32.779395 C 233.25139 28.957492 237.55937 25.143888 241.89325 21.304126 z M 211.32974 30.725773 C 216.60023 30.914289 221.05522 32.958054 224.68861 36.762097 C 226.62536 38.788142 227.89578 41.204991 228.71731 43.877942 C 229.33643 45.89208 229.65554 47.950357 229.62578 50.053792 C 229.57815 53.449055 228.7074 56.62774 226.96909 59.546753 C 225.09783 62.684047 222.55158 65.178453 219.49565 67.162826 C 217.58073 68.407027 215.54492 69.414844 213.39783 70.232406 C 207.99835 65.765582 202.60073 61.303168 197.18538 56.824438 C 198.86416 52.079803 200.54117 47.344909 202.2259 42.582414 C 206.85147 42.536773 211.47863 42.493179 216.1558 42.447538 L 216.1558 49.325155 L 207.09744 49.325155 C 206.50411 51.490106 205.91456 53.649275 205.31925 55.828117 C 208.4625 58.056568 211.5917 60.274897 214.79051 62.54502 C 215.66562 61.777067 216.56654 61.037286 217.40792 60.2356 C 218.63228 59.070773 219.67631 57.755026 220.58912 56.326278 C 221.95437 54.189108 222.72412 51.887125 222.68046 49.341174 C 222.64673 47.509598 222.08325 45.80882 221.29347 44.177665 C 220.46202 42.457214 219.3748 40.935195 217.8389 39.762431 C 216.0986 38.434885 214.11385 37.806168 211.95089 37.736715 C 208.77192 37.633527 205.8252 38.498509 203.02327 39.939164 C 200.36024 41.308382 197.68964 42.66394 195.02065 44.02522 C 193.13153 44.991609 191.24406 45.955811 189.35692 46.922201 C 189.31723 46.942044 189.28335 46.971934 189.24168 46.999715 C 196.81603 62.059122 204.38272 77.106751 211.96897 92.195923 C 209.83577 93.112703 207.74633 94.013425 205.60916 94.93219 C 197.19144 77.759426 188.7678 60.584791 180.33421 43.392183 C 181.17559 42.99134 182.01457 42.592149 182.85396 42.19329 C 185.33839 41.016557 187.82126 39.839924 190.3057 38.661206 C 193.11954 37.323739 195.94122 35.994473 198.74911 34.637162 C 200.00919 34.025975 201.23524 33.344879 202.48738 32.715833 C 205.26749 31.318834 208.21427 30.616633 211.32974 30.725773 z M 108.60112 54.056132 C 115.66748 54.056132 122.21545 58.014821 124.94793 63.71394 L 120.51926 63.71394 L 120.51926 63.716007 C 119.43579 62.207884 118.11608 60.93598 116.60994 59.947762 C 114.34775 58.392014 111.61512 57.496749 108.50759 57.496749 C 100.87569 57.496749 94.234041 63.339068 94.234041 72.05245 C 94.234041 80.908706 100.92315 86.750777 108.55306 86.750777 C 112.22812 86.750777 115.47862 85.480569 117.88169 83.595414 C 120.33239 81.662635 122.02697 79.025417 122.59252 76.290951 L 103.61796 76.290951 L 103.61796 73.088045 L 127.11524 73.088045 C 127.06761 75.11409 126.59709 77.658166 125.55926 79.825102 C 122.545 86.373533 115.57179 90.189327 108.55306 90.189327 C 98.379184 90.189327 90.322652 82.369205 90.322652 72.05245 C 90.322652 61.594804 98.520508 54.056132 108.60112 54.056132 z M 70.157475 54.058199 C 80.37898 54.058199 88.340344 61.878487 88.340344 72.099992 C 88.340344 82.323482 80.426605 90.143852 70.157475 90.143852 C 59.84072 90.143852 51.972538 82.180793 51.972538 72.241069 L 51.972538 72.195076 C 51.972538 61.45565 60.311017 54.058199 70.157475 54.058199 z M 168.03677 54.058199 C 178.25828 54.058199 186.21964 61.878487 186.21964 72.099992 C 186.21964 82.323482 178.3059 90.143852 168.03677 90.143852 C 157.72002 90.143852 149.85184 82.180793 149.85184 72.241069 L 149.85184 72.195076 C 149.85184 61.45565 158.19031 54.058199 168.03677 54.058199 z M 247.42572 54.058199 C 257.64921 54.058199 265.61066 61.878487 265.61066 72.099992 C 265.61066 82.323482 257.69684 90.143852 247.42572 90.143852 C 237.10897 90.143852 229.24079 82.180793 229.24079 72.241069 L 229.24079 72.195076 C 229.24079 61.45565 237.57927 54.058199 247.42572 54.058199 z M 288.45474 54.059749 C 297.07486 54.059749 302.4943 59.808736 304.51836 64.235872 L 300.32534 64.235872 C 299.14662 62.164187 295.19169 57.498816 288.45474 57.498816 C 280.30492 57.498816 274.1812 63.952322 274.1812 72.054517 C 274.1812 80.299586 280.35057 86.706852 288.45474 86.706852 C 295.75922 86.706852 299.47801 81.476038 300.32534 80.158415 L 304.52043 80.156348 C 302.26023 85.528045 296.18388 90.145919 288.50435 90.145919 C 278.1876 90.145919 270.31942 82.182756 270.31942 72.104126 C 270.31942 62.162417 277.99908 54.059749 288.45474 54.059749 z M 332.07534 54.669014 L 336.31384 54.669014 L 319.66473 72.05245 L 337.77628 89.530452 L 332.92438 89.530452 L 317.35737 74.455404 L 313.801 78.169906 L 313.801 89.530452 L 309.93767 89.530452 L 309.93767 54.671082 L 313.801 54.671082 L 313.801 69.09139 L 313.801 73.570186 L 332.07534 54.669014 z M 31.718477 54.671082 L 50.212439 54.671082 L 50.212439 58.110148 L 35.581807 58.110148 L 35.581807 70.216903 L 50.119421 70.216903 L 50.119421 73.655452 L 35.581807 73.655452 L 35.581807 86.091903 L 50.212439 86.091903 L 50.212439 89.530452 L 31.718477 89.530452 L 31.718477 54.671082 z M 128.98437 54.671082 L 148.29844 54.671082 L 148.29844 58.110148 L 132.84771 58.110148 L 132.84771 70.216903 L 148.20284 70.216903 L 148.20284 73.655452 L 132.84771 73.655452 L 132.84771 86.091903 L 148.29844 86.091903 L 148.29844 89.530452 L 128.98437 89.530452 L 128.98437 54.671082 z M 342.77288 54.671082 L 362.08901 54.671082 L 362.08901 58.110148 L 346.63879 58.110148 L 346.63879 70.216903 L 361.99341 70.216903 L 361.99341 73.655452 L 346.63879 73.655452 L 346.63879 86.091903 L 362.08901 86.091903 L 362.08901 89.530452 L 342.77288 89.530452 L 342.77288 54.671082 z M 70.157475 57.496749 C 61.960031 57.496749 55.88186 63.99788 55.88186 72.05245 L 55.88186 72.099992 C 55.88186 80.297437 62.053648 86.704785 70.203467 86.704785 C 78.448537 86.704785 84.478564 80.063281 84.478564 72.099992 C 84.478564 64.138687 78.448185 57.496749 70.157475 57.496749 z M 168.03677 57.496749 C 159.83933 57.496749 153.76322 63.99788 153.76322 72.05245 L 153.76322 72.099992 C 153.76322 80.297437 159.93294 86.704785 168.08276 86.704785 C 176.32783 86.704785 182.35631 80.063281 182.35631 72.099992 C 182.35631 64.138687 176.32748 57.496749 168.03677 57.496749 z M 247.42572 57.496749 C 239.23026 57.496749 233.15011 63.99788 233.15011 72.05245 L 233.15011 72.099992 C 233.15011 80.297437 239.32146 86.704785 247.47327 86.704785 C 255.71635 86.704785 261.74681 80.063281 261.74681 72.099992 C 261.74681 64.138687 255.71842 57.496749 247.42572 57.496749 z M 175.12523 100.22644 C 182.28088 100.22644 187.55341 105.78474 187.55341 112.49391 C 187.55341 119.20307 182.31234 124.76138 175.09319 124.76138 C 167.84031 124.76138 162.72857 119.04238 162.72857 112.71818 L 162.72857 112.68615 C 162.72857 105.11576 168.54306 100.22644 175.12523 100.22644 z M 238.23404 100.22644 C 245.39167 100.22644 250.66429 105.78474 250.66429 112.49391 C 250.66429 119.20307 245.42365 124.76138 238.20251 124.76138 C 230.95162 124.76138 225.83996 119.04238 225.83996 112.71818 L 225.83996 112.68615 C 225.83996 105.11576 231.65386 100.22644 238.23404 100.22644 z M 138.38432 100.22851 C 145.18873 100.26224 149.05432 105.27691 149.98103 108.72773 L 144.96479 108.72773 C 144.23058 107.09856 142.1231 104.44708 138.3528 104.41533 C 133.75103 104.41533 130.78013 108.27898 130.78013 112.466 C 130.78013 116.77805 133.87979 120.5823 138.38432 120.5823 C 142.60111 120.5823 144.51831 117.25816 144.96479 116.39496 L 149.98103 116.39341 C 148.54434 121.28092 143.94284 124.76344 138.41636 124.76344 C 131.19522 124.76344 126.0197 119.04412 126.0197 112.46394 C 126.0197 106.17149 130.9072 100.22851 138.38432 100.22851 z M 263.40408 100.67292 L 270.08326 100.67499 C 272.74232 100.74246 275.09203 100.87957 277.20737 102.65162 C 277.75109 103.09611 278.26471 103.67311 278.63777 104.25255 C 279.72918 105.92538 279.83046 107.79669 279.83046 108.44558 C 279.83046 109.02303 279.7631 110.62645 278.87807 112.0929 C 278.63796 112.46596 278.33249 112.9782 277.61613 113.62511 C 276.8323 114.30773 276.01478 114.68088 275.7072 114.8178 C 275.12777 115.05592 274.54831 115.2266 273.28823 115.50044 L 280.24129 124.73554 L 274.88968 124.73554 L 268.20792 115.63532 L 268.20792 124.73554 L 263.40408 124.73554 L 263.40408 100.67292 z M 201.61043 100.67499 L 206.37087 100.67499 L 206.37087 120.13169 L 214.1337 120.13169 L 214.1337 124.31696 L 201.61043 124.31696 L 201.61043 100.67499 z M 175.15675 104.41171 C 170.42799 104.41171 167.489 108.30866 167.489 112.46394 L 167.489 112.49598 C 167.489 116.81 170.58901 120.57817 175.18879 120.57817 C 179.98304 120.57817 182.79246 116.42481 182.79246 112.5275 C 182.79246 108.56669 179.98275 104.41171 175.15675 104.41171 z M 238.26763 104.41171 C 233.53887 104.41171 230.60039 108.30866 230.60039 112.46394 L 230.60039 112.49598 C 230.60039 116.81 233.69981 120.57817 238.2976 120.57817 C 243.09184 120.57817 245.90179 116.42481 245.90179 112.5275 C 245.90179 108.56669 243.08965 104.41171 238.26763 104.41171 z M 268.20637 104.66338 L 268.20637 112.0929 L 268.20792 112.0929 L 270.59537 112.0929 C 270.86723 112.0929 271.10546 112.09304 271.3793 112.05931 C 271.88928 112.05931 273.59349 111.98967 274.71863 110.62839 C 274.99049 110.28509 275.46897 109.57086 275.46897 108.41199 C 275.46897 108.03694 275.43507 107.11621 274.81992 106.2669 C 273.76225 104.83418 272.12706 104.69711 270.48995 104.66338 L 268.20637 104.66338 z " /><g
       transform="matrix(0.66145833,0,0,0.66145833,1.585476,327.40524)"
       id="g1597"
       style="stroke-width:0.176" /></g><style
     type="text/css"
     id="style2">
	.st0{fill:#F05100;}
	.st1{fill:#FFFFFF;}
	.st2{fill:#1281C4;}
	.st3{fill:#034693;}
	.st4{fill:#CF3312;}
</style></svg>
