<?xml version="1.0" encoding="UTF-8" standalone="no"?>
<!-- Created with Inkscape (http://www.inkscape.org/) -->

<svg
   width="1500"
   height="500"
   viewBox="0 0 396.87498 132.29167"
   version="1.1"
   id="svg5"
   inkscape:version="1.2.2 (732a01da63, 2022-12-09)"
   xml:space="preserve"
   sodipodi:docname="nowplaying.svg"
   xmlns:inkscape="http://www.inkscape.org/namespaces/inkscape"
   xmlns:sodipodi="http://sodipodi.sourceforge.net/DTD/sodipodi-0.dtd"
   xmlns="http://www.w3.org/2000/svg"
   xmlns:svg="http://www.w3.org/2000/svg"><sodipodi:namedview
     id="namedview7"
     pagecolor="#000000"
     bordercolor="#111111"
     borderopacity="1"
     inkscape:showpageshadow="0"
     inkscape:pageopacity="0"
     inkscape:pagecheckerboard="1"
     inkscape:deskcolor="#d1d1d1"
     inkscape:document-units="mm"
     showgrid="false"
     inkscape:zoom="0.26088402"
     inkscape:cx="797.28916"
     inkscape:cy="908.44967"
     inkscape:window-width="1920"
     inkscape:window-height="1009"
     inkscape:window-x="-8"
     inkscape:window-y="-8"
     inkscape:window-maximized="1"
     inkscape:current-layer="layer1" /><defs
     id="defs2">
		
		
	
			
				
			
		
			
			
			
			
			
				
			
			
			
			
			
		
		
		
		
	</defs><g
     inkscape:label="Layer 1"
     inkscape:groupmode="layer"
     id="layer1"><path
       id="rect231"
       style="fill:#ffffff;stroke-width:0.8001;stroke-linecap:square;paint-order:fill markers stroke"
       d="M 0 0 L 0 64.441028 C 0 54.171898 8.1764425 45.850948 18.269686 45.850948 C 28.359921 45.850948 36.540959 54.171898 36.539372 64.441028 C 36.539372 74.707168 28.359921 83.024906 18.269686 83.024906 C 8.1764425 83.024906 0 74.707168 0 64.441028 L 0 132.29167 L 396.875 132.29167 L 396.875 47.461186 L 393.5243 56.942778 C 390.47858 56.36551 387.68398 56.07513 385.14187 56.07513 C 382.6088 56.07513 380.79874 56.282828 379.69982 56.694731 C 378.6054 57.108142 377.95411 57.934924 377.75265 59.173649 L 374.76886 76.71108 L 378.60531 76.71108 C 379.98384 76.71108 381.00775 76.561023 381.66921 76.257361 C 382.3472 75.940179 382.78757 75.223077 382.98903 74.107621 L 383.29392 72.434338 L 380.37161 72.434338 L 382.01337 62.954297 L 395.95929 62.954297 L 392.3683 83.651742 C 387.41639 85.509829 382.44173 86.440719 377.44621 86.440719 C 372.45522 86.440719 368.84559 85.427147 366.62672 83.403695 C 364.42285 81.378735 363.31943 78.259455 363.31943 74.04716 C 363.31943 72.268765 363.60388 69.646977 364.17364 66.175806 C 365.38831 58.988486 367.54064 53.803753 370.62544 50.62275 C 373.71326 47.441721 378.82908 45.850948 385.97282 45.850948 C 387.47613 45.850948 389.38855 46.016313 391.71718 46.347042 C 394.05784 46.676263 395.77608 47.049283 396.875 47.461186 L 396.875 0 L 0 0 z M 108.94064 45.850948 C 114.097 45.850948 117.77139 46.877761 119.96322 48.92828 C 122.15505 50.968294 123.25243 54.113149 123.25243 58.369047 C 123.25243 62.62341 122.58777 67.07931 121.26185 71.732056 C 119.94946 76.37279 117.8582 79.981041 114.98988 82.556201 C 112.13359 85.144908 107.95154 86.440719 102.44491 86.440719 C 96.9503 86.440719 93.107683 85.421531 90.914347 83.383024 C 88.722517 81.331024 87.626693 78.176983 87.626693 73.92262 C 87.626693 71.897633 87.910584 69.225898 88.478837 65.906571 C 89.04709 62.575233 89.798889 59.705481 90.732446 57.294177 C 91.666004 54.872343 92.92442 52.7707 94.50741 50.993787 C 97.553121 47.566219 102.36364 45.850948 108.94064 45.850948 z M 53.584326 46.781641 L 64.484436 46.781641 L 70.69646 60.538424 C 70.818229 60.827057 70.879911 61.234268 70.879911 61.75592 C 70.879911 62.265534 70.839134 62.850428 70.757955 63.511886 L 71.245264 63.511886 L 74.167566 46.781641 L 85.738436 46.781641 L 79.03962 85.510026 L 68.138993 85.510026 L 61.927486 71.753243 C 61.76513 71.464609 61.68409 71.057356 61.68409 70.534196 C 61.68409 70.026091 61.72435 69.441197 61.80553 68.778231 L 61.318738 68.778231 L 58.45638 85.510026 L 46.88551 85.510026 L 53.584326 46.781641 z M 128.30638 46.781641 L 140.4245 46.781641 L 139.32845 68.406677 L 139.6938 68.406677 L 147.61063 46.781641 L 156.80645 46.781641 L 156.80645 68.406677 L 157.17128 68.406677 L 163.6882 46.781641 L 175.80684 46.781641 L 163.4448 85.510026 L 148.09742 85.510026 L 148.09742 71.2587 L 147.42873 71.2587 L 142.37426 85.510026 L 128.30638 85.510026 L 128.30638 46.781641 z M 189.39361 46.781641 L 207.66174 46.781641 C 214.56496 46.781641 218.01512 50.043854 218.01512 56.571224 C 218.01512 59.671053 217.58799 62.465762 216.73561 64.956759 C 215.88323 67.462784 214.94385 69.454719 213.91407 70.92797 C 212.87378 72.387675 211.44413 73.627828 209.63113 74.645573 C 207.83167 75.65128 205.75418 76.153491 203.39999 76.153491 L 195.84903 76.153491 L 194.26411 85.510026 L 182.69479 85.510026 L 189.39361 46.781641 z M 224.28708 46.781641 L 235.85795 46.781641 L 230.86394 75.594352 L 241.05454 75.594352 L 252.97009 46.781641 L 270.87494 46.781641 L 273.55385 85.510026 L 261.31377 85.510026 L 261.06985 79.375 L 251.5092 79.375 L 249.13363 85.510026 L 240.73001 85.510026 L 217.58827 85.510026 L 224.28708 46.781641 z M 276.17229 46.781641 L 288.96117 46.781641 L 289.75337 60.413883 L 290.17867 60.413883 L 295.78143 46.781641 L 308.57031 46.781641 L 293.22448 74.974752 L 291.45818 85.510026 L 279.88731 85.510026 L 281.65361 74.974752 L 276.17229 46.781641 z M 310.33661 46.781641 L 321.90748 46.781641 L 315.20918 85.510026 L 303.6378 85.510026 L 310.33661 46.781641 z M 329.09361 46.781641 L 339.99578 46.781641 L 346.20574 60.538424 C 346.32753 60.827057 346.38919 61.234268 346.38919 61.75592 C 346.38919 62.265534 346.34988 62.850428 346.26569 63.511886 L 346.7561 63.511886 L 349.6784 46.781641 L 361.24927 46.781641 L 354.54942 85.510026 L 343.65034 85.510026 L 337.43832 71.753243 C 337.27594 71.464609 337.19337 71.057356 337.19337 70.534196 C 337.19337 70.026091 337.23564 69.441197 337.31533 68.778231 L 336.82957 68.778231 L 333.96566 85.510026 L 322.39479 85.510026 L 329.09361 46.781641 z M 18.269686 48.954118 C 9.8646624 48.954118 3.0514933 55.891688 3.0514933 64.441028 C 3.0514933 72.994893 9.8646624 79.925354 18.269686 79.925354 C 26.673204 79.925354 33.487916 72.994893 33.486328 64.441028 C 33.486328 55.891688 26.673204 48.954118 18.269686 48.954118 z M 106.93094 56.447717 C 105.38854 56.447717 104.23103 56.640624 103.45983 57.02546 C 102.68863 57.425351 102.18047 58.327148 101.93693 59.731238 L 99.136068 75.842399 L 103.94663 75.842399 C 105.52961 75.842399 106.70803 75.651518 107.47923 75.265173 C 108.25043 74.866791 108.75704 73.964476 109.00058 72.558879 L 111.80299 56.447717 L 106.93094 56.447717 z M 199.19818 56.694731 L 197.55332 66.238851 L 200.23222 66.238851 C 201.61377 66.238851 202.65411 66.087244 203.35916 65.783582 C 204.07474 65.467881 204.53649 64.750848 204.73944 63.635392 C 205.2671 60.57914 205.53164 58.905728 205.53164 58.617094 C 205.53164 57.832367 205.22633 57.315364 204.61748 57.067318 C 204.00864 56.819271 203.09477 56.694731 201.87708 56.694731 L 199.19818 56.694731 z M 16.242419 57.924113 C 16.407408 57.937266 16.568967 57.9966 16.708024 58.10033 L 24.296708 63.711873 C 24.53423 63.887768 24.675534 64.16467 24.673946 64.465316 C 24.673946 64.756966 24.535733 65.033198 24.296708 65.21359 L 16.708024 70.82255 C 16.548671 70.939814 16.359068 71.001351 16.172656 71.001351 C 16.028339 71.001351 15.88693 70.96832 15.756144 70.903682 C 15.447963 70.744324 15.2554 70.423007 15.2554 70.072725 L 15.2554 58.851705 C 15.2554 58.502932 15.447963 58.18269 15.756144 58.023332 C 15.908731 57.943666 16.077431 57.91096 16.242419 57.924113 z M 259.54747 58.677555 L 255.28519 69.523922 L 260.15621 69.523922 L 260.15621 58.677555 L 259.54747 58.677555 z " /><g
       id="g1654"
       transform="matrix(0.26458333,0,0,0.26458333,120.24453,353.41946)" /></g><style
     type="text/css"
     id="style2">
	.st0{fill:#F05100;}
	.st1{fill:#FFFFFF;}
	.st2{fill:#1281C4;}
	.st3{fill:#034693;}
	.st4{fill:#CF3312;}
</style></svg>
