<?xml version="1.0" encoding="UTF-8" standalone="no"?>
<!-- Created with Inkscape (http://www.inkscape.org/) -->

<svg
   width="1500"
   height="500"
   viewBox="0 0 396.87498 132.29167"
   version="1.1"
   id="svg5"
   inkscape:version="1.2.2 (732a01da63, 2022-12-09)"
   xml:space="preserve"
   sodipodi:docname="odyssey2.svg"
   xmlns:inkscape="http://www.inkscape.org/namespaces/inkscape"
   xmlns:sodipodi="http://sodipodi.sourceforge.net/DTD/sodipodi-0.dtd"
   xmlns="http://www.w3.org/2000/svg"
   xmlns:svg="http://www.w3.org/2000/svg"><sodipodi:namedview
     id="namedview7"
     pagecolor="#000000"
     bordercolor="#111111"
     borderopacity="1"
     inkscape:showpageshadow="0"
     inkscape:pageopacity="0"
     inkscape:pagecheckerboard="1"
     inkscape:deskcolor="#d1d1d1"
     inkscape:document-units="mm"
     showgrid="false"
     inkscape:zoom="0.26088402"
     inkscape:cx="797.28916"
     inkscape:cy="908.44967"
     inkscape:window-width="1920"
     inkscape:window-height="1009"
     inkscape:window-x="-8"
     inkscape:window-y="-8"
     inkscape:window-maximized="1"
     inkscape:current-layer="layer1" /><defs
     id="defs2">
		
		
	
			
				
			
		
			
			
			
			
			
				
			
			
			
			
			
		
		
		
		
	</defs><g
     inkscape:label="Layer 1"
     inkscape:groupmode="layer"
     id="layer1"><path
       id="rect231"
       style="fill:#ffffff;stroke-width:0.8001;stroke-linecap:square;paint-order:fill markers stroke"
       d="M 0 0 L 0 132.29167 L 396.875 132.29167 L 396.875 41.049691 C 396.87629 44.643357 394.48301 48.23582 389.69663 48.230648 L 378.2012 48.230648 L 374.15907 52.810213 L 389.47959 52.810213 L 383.80396 59.240312 L 361.14385 59.240312 L 366.81895 52.810213 L 370.86108 48.230648 L 375.61687 42.834078 L 389.69663 42.834078 C 392.08465 42.834078 392.08465 39.257035 389.69663 39.257035 L 374.02472 39.257035 L 378.77998 33.860982 L 389.68629 33.860982 C 394.47784 33.860982 396.87371 37.456024 396.875 41.049691 L 396.875 0 L 0 0 z M 126.72456 43.547213 L 145.17719 43.547213 L 152.43462 74.2611 C 153.14794 77.279726 150.86286 80.174434 147.76152 80.174434 L 143.60622 80.174434 L 148.96093 98.410014 L 133.07198 98.420349 L 125.85588 80.18477 L 122.20701 80.18477 C 118.51642 80.18477 115.15664 78.034285 113.61632 74.674512 L 99.350008 43.557548 L 118.84701 43.557548 L 126.33182 63.788871 C 126.77632 64.998389 127.934 65.804769 129.22622 65.804769 L 129.71198 65.804769 C 131.81055 65.804769 133.29899 63.757829 132.64772 61.752303 L 126.72456 43.547213 z M 314.27229 43.547213 L 337.35667 43.547213 L 323.82416 62.041691 C 322.32517 64.088567 323.78325 66.962321 326.316 66.962321 C 327.27741 66.962321 328.17673 66.518085 328.76598 65.763428 L 345.91635 43.557548 L 366.99517 43.557548 L 334.97904 79.88453 C 334.16237 80.814928 332.9836 81.342322 331.75339 81.342322 L 324.96156 81.342322 L 310.83994 98.420349 L 292.18062 98.420349 L 303.9861 81.342322 L 298.87943 81.342322 C 295.51965 81.342322 293.4623 77.662094 295.20937 74.798535 L 314.27229 43.547213 z M 3.0638957 43.557548 L 37.21995 43.557548 C 41.468758 43.557548 45.459168 45.604658 47.950562 49.047135 L 78.674268 91.607845 C 80.73148 94.450729 78.695241 98.420349 75.190759 98.420349 L 52.395768 98.420349 C 49.449504 98.420349 46.627099 97.210601 44.600895 95.060347 L 0.84129232 48.716406 C -0.99882999 46.762569 0.37607568 43.557548 3.0638957 43.557548 z M 50.1835 43.557548 L 87.016911 43.557548 C 91.141681 43.557548 94.894555 45.914655 96.693323 49.625911 L 117.31687 92.258968 C 118.70212 95.112192 116.62463 98.430684 113.45096 98.430684 L 88.081962 98.430684 L 65.555688 65.815104 L 81.35214 65.815104 L 93.478015 85.715181 L 96.228235 85.715181 C 98.585247 85.715181 100.07376 83.172161 98.926261 81.114945 L 88.164644 61.865991 C 87.616746 60.894241 86.582589 60.284176 85.466101 60.284176 L 61.740934 60.284176 L 50.1835 43.557548 z M 161.50074 43.557548 L 199.17131 43.557548 L 198.69588 60.284176 L 170.94926 60.284176 L 171.27998 63.086072 C 171.46607 64.647075 172.77927 65.815104 174.3506 65.815104 L 190.36357 65.815104 C 194.83984 65.815104 198.43754 69.516129 198.31348 73.992383 L 197.74504 94.254195 C 197.67267 96.580193 195.77053 98.430684 193.44452 98.430684 L 162.00717 98.430684 L 159.32981 85.715181 L 180.69801 85.715181 C 182.46577 85.715181 183.88182 84.22681 183.77845 82.448714 L 183.65442 80.195105 L 163.83703 80.195105 C 160.53929 80.195105 157.68613 77.879224 157.00385 74.643506 L 152.73435 54.371358 C 151.55584 48.799302 155.81495 43.557548 161.50074 43.557548 z M 214.80239 43.567883 L 251.77016 43.567883 L 246.91154 60.294511 L 222.82413 60.294511 L 222.51407 62.238062 C 222.21429 64.119536 223.66184 65.815104 225.56401 65.815104 L 238.44488 65.815104 C 241.86668 65.815104 244.34759 69.102487 243.38618 72.400232 L 236.7287 95.329582 C 236.20147 97.169701 234.51638 98.430684 232.60389 98.430684 L 202.69667 98.430684 L 203.5545 85.715181 L 220.36381 85.715181 C 221.85243 85.715181 223.13465 84.650482 223.40342 83.18252 L 223.96152 80.18477 L 210.21249 80.18477 C 206.81136 80.18477 204.1234 77.310824 204.35083 73.920036 L 205.8293 51.931197 C 206.14976 47.217176 210.06771 43.557538 214.80239 43.567883 z M 258.33462 43.567883 L 308.4313 43.567883 L 299.10681 60.294511 L 276.96346 60.294511 L 276.43584 61.442244 C 275.50543 63.48912 276.99443 65.815104 279.24807 65.815104 L 295.59178 65.815104 L 287.30081 80.195105 L 267.87616 80.195105 L 267.34906 81.342322 C 266.41865 83.3892 267.90713 85.715181 270.16077 85.715181 L 284.10669 85.715181 L 276.77742 98.430684 L 240.5848 98.430684 L 258.33462 43.567883 z M 36.114075 60.284176 C 33.467583 60.284176 32.050872 63.385831 33.766931 65.391357 L 49.191313 83.37889 C 50.462872 84.85719 52.323467 85.715181 54.277307 85.715181 C 56.872073 85.715181 58.308968 82.7174 56.696281 80.691199 L 42.460974 62.806502 C 41.189441 61.214487 39.256473 60.284176 37.21995 60.284176 L 36.114075 60.284176 z " /><g
       id="g1696"
       transform="matrix(0.26458333,0,0,0.26458333,-355.74059,238.86566)" /></g><style
     type="text/css"
     id="style2">
	.st0{fill:#F05100;}
	.st1{fill:#FFFFFF;}
	.st2{fill:#1281C4;}
	.st3{fill:#034693;}
	.st4{fill:#CF3312;}
</style></svg>
