<?xml version="1.0" encoding="UTF-8" standalone="no"?>
<!-- Created with Inkscape (http://www.inkscape.org/) -->

<svg
   width="1500"
   height="500"
   viewBox="0 0 396.87498 132.29167"
   version="1.1"
   id="svg5"
   inkscape:version="1.2.2 (732a01da63, 2022-12-09)"
   xml:space="preserve"
   sodipodi:docname="openbor.svg"
   xmlns:inkscape="http://www.inkscape.org/namespaces/inkscape"
   xmlns:sodipodi="http://sodipodi.sourceforge.net/DTD/sodipodi-0.dtd"
   xmlns="http://www.w3.org/2000/svg"
   xmlns:svg="http://www.w3.org/2000/svg"><sodipodi:namedview
     id="namedview7"
     pagecolor="#000000"
     bordercolor="#111111"
     borderopacity="1"
     inkscape:showpageshadow="0"
     inkscape:pageopacity="0"
     inkscape:pagecheckerboard="1"
     inkscape:deskcolor="#d1d1d1"
     inkscape:document-units="mm"
     showgrid="false"
     inkscape:zoom="0.26088402"
     inkscape:cx="797.28916"
     inkscape:cy="908.44967"
     inkscape:window-width="1920"
     inkscape:window-height="1009"
     inkscape:window-x="-8"
     inkscape:window-y="-8"
     inkscape:window-maximized="1"
     inkscape:current-layer="layer1" /><defs
     id="defs2">
		
		
	
			
				
			
		
			
			
			
			
			
				
			
			
			
			
			
		
		
		
		
	</defs><g
     inkscape:label="Layer 1"
     inkscape:groupmode="layer"
     id="layer1"><path
       id="rect231"
       style="fill:#ffffff;stroke-width:0.8001;stroke-linecap:square;paint-order:fill markers stroke"
       d="M 0 0 L 0 59.599463 C -0.0046533095 54.462209 0.22792371 53.959455 1.1585856 52.060905 C 2.4987387 49.380599 4.6333814 47.593892 7.4625936 46.799727 C 9.7954528 46.104833 48.312576 46.154443 50.744706 46.849337 C 51.787048 47.097513 53.375035 48.040555 54.367741 48.884355 C 57.594035 51.713567 57.743142 52.408512 57.941683 63.62609 C 58.040954 69.23488 57.991396 74.942994 57.792855 76.382418 C 57.445408 79.410171 55.807452 81.792446 52.829333 83.728223 L 50.893534 85.0191 L 28.755868 84.969491 L 6.6683268 84.969491 L 4.8317464 83.728223 C 3.7894051 83.082964 2.3501163 81.594066 1.6055868 80.452454 L 0.21549072 78.417436 L 0.066662598 66.504985 C 0.029436122 63.539275 0.0015511032 61.311881 0 59.599463 L 0 132.29167 L 396.875 132.29167 L 396.875 0 L 0 0 z M 339.47334 46.253507 L 363.94368 46.402336 C 390.74674 46.551242 389.7044 46.452353 392.63288 49.629012 C 395.06501 52.210048 395.56139 53.847789 395.56139 58.960225 C 395.56139 61.888708 395.31305 64.321137 394.86634 65.313843 C 393.87363 67.646702 391.4913 69.63195 388.61246 70.57502 L 386.08083 71.418896 L 391.14357 78.07017 C 393.97278 81.743182 396.45477 84.870246 396.65331 84.919881 C 396.90148 85.019152 396.95107 85.316627 396.75253 85.564803 C 396.30581 86.309333 381.31608 86.110869 380.67082 85.415975 C 380.37301 85.068528 376.89842 79.856661 372.97723 73.850789 L 365.82987 62.931042 L 372.97723 62.782214 L 380.17421 62.633386 L 380.17421 59.208272 L 380.17421 55.734066 L 367.5171 55.734066 L 354.86051 55.734066 L 354.86051 70.62463 L 354.86051 85.515194 L 347.16692 85.515194 L 339.47334 85.515194 L 339.47334 65.909155 L 339.47334 46.253507 z M 211.91058 46.303117 L 236.43053 46.303117 C 253.85252 46.303117 261.39686 46.452228 262.58811 46.898946 C 265.16914 47.792382 266.80728 49.182213 268.19707 51.763249 C 269.88467 54.890273 270.03342 60.54847 268.49472 63.079871 L 267.50202 64.718014 L 268.49472 66.653813 C 269.78524 69.135578 269.88441 75.985073 268.69316 78.86392 C 267.84936 80.898967 265.91382 83.232153 264.27586 84.175224 C 262.93571 84.969389 212.35719 85.515066 212.10902 84.770536 C 211.96011 84.472724 211.96016 79.112133 212.0098 72.858085 L 212.15863 61.442244 L 233.50203 61.343026 L 254.84491 61.243807 L 255.29191 59.258398 C 256.13571 55.486116 257.62478 55.734066 233.50203 55.734066 L 211.91058 55.734066 L 211.91058 51.018591 L 211.91058 46.303117 z M 303.58715 46.402336 C 317.83249 46.303065 324.73136 46.452254 326.17079 46.849337 C 329 47.593866 332.22633 50.8202 333.0205 53.699048 C 333.41758 55.188107 333.5668 59.555731 333.41789 67.100297 C 333.26899 77.821522 333.21899 78.417562 332.12701 80.154797 C 331.48176 81.147503 330.04244 82.685985 328.95046 83.529785 L 326.86584 85.0191 L 304.67908 85.0191 L 282.4918 85.0191 L 280.30795 83.380957 C 279.11671 82.487522 277.67742 80.799851 277.0818 79.558968 C 275.98982 77.474285 275.94026 76.779286 275.94026 65.909155 C 275.94026 54.542671 275.94011 54.393868 277.23062 51.862467 C 278.17369 49.926691 279.11697 48.933992 280.80457 47.89165 L 283.13724 46.551681 L 303.58715 46.402336 z M 138.2019 55.237455 L 156.81523 55.237455 L 156.81523 58.960225 L 156.81523 62.682996 L 140.5847 62.782214 L 124.30404 62.931042 L 124.30404 64.916451 L 124.30404 66.90186 L 139.59148 67.050688 L 154.87944 67.150423 L 154.73061 70.277364 L 154.58178 73.354696 L 139.44265 73.453914 L 124.30404 73.553133 L 124.15521 75.538542 L 124.00638 77.57356 L 140.28653 77.672778 L 156.56719 77.821606 L 156.71602 81.445158 L 156.86484 85.0191 L 137.15959 85.0191 L 117.45433 85.0191 L 115.32009 82.785128 C 114.02957 81.49461 113.08622 79.90621 112.88768 78.963139 C 112.68914 78.020068 112.63958 73.602518 112.73885 69.085706 C 112.88776 60.945516 112.88799 60.846315 114.27778 59.059444 C 115.07194 58.017103 116.56082 56.776148 117.60316 56.23016 C 119.43966 55.287089 120.58137 55.237455 138.2019 55.237455 z M 161.77876 55.237455 L 180.39209 55.237455 C 200.64329 55.237455 200.99052 55.287189 203.57155 58.017131 C 204.31608 58.811295 205.11032 60.449409 205.40813 61.690291 C 205.90449 63.774974 206.20263 84.621992 205.75592 85.068709 C 205.65665 85.16798 203.07549 85.217589 200.04774 85.118319 L 194.538 84.969491 L 194.43878 73.950008 L 194.28995 62.931042 L 184.61095 62.782214 C 179.29998 62.732579 174.43566 62.782137 173.84003 62.931042 C 172.69842 63.179219 172.6985 63.229222 172.6985 74.099353 L 172.6985 84.969491 L 167.43733 85.118319 C 164.55848 85.217589 162.07646 85.16798 161.97719 85.068709 C 161.87792 84.969439 161.77876 78.16899 161.77876 70.0288 L 161.77876 55.237455 z M 64.245174 55.486019 L 83.652775 55.486019 L 103.01025 55.486019 L 105.09539 56.825989 C 107.87497 58.71213 108.86723 60.69758 108.91687 64.668404 C 108.91687 68.738499 107.77557 71.419049 105.34344 73.106649 C 103.55657 74.347531 103.5067 74.347322 89.956266 74.496228 L 76.356063 74.645056 L 76.455798 79.856624 L 76.555017 85.068709 L 70.449447 85.167928 C 66.726799 85.217563 64.294835 85.068348 64.195565 84.770536 C 64.046659 84.472724 64.046711 77.771985 64.096346 69.879972 L 64.245174 55.486019 z M 15.106055 55.982113 L 14.957227 65.413062 C 14.907591 70.575133 14.907565 75.042292 15.006836 75.340104 C 15.155742 75.687551 19.921145 75.786614 29.054041 75.736979 L 42.902291 75.63776 L 42.902291 65.809937 L 42.902291 55.982113 L 29.004431 55.982113 L 15.106055 55.982113 z M 290.83083 55.982113 L 290.83083 65.809937 L 290.83083 75.588151 L 304.72869 75.588151 L 318.62655 75.588151 L 318.52733 65.909155 L 318.3785 56.23016 L 304.57986 56.081331 L 290.83083 55.982113 z M 77.001501 62.682996 L 76.803064 64.817232 C 76.654158 65.958844 76.654184 67.051075 76.753455 67.299251 C 76.852725 67.497793 81.319911 67.646517 86.630888 67.646517 L 96.260274 67.646517 L 96.260274 65.165015 L 96.260274 62.682996 L 86.630888 62.682996 L 77.001501 62.682996 z M 223.57498 69.383879 L 223.42564 72.063818 C 223.32637 73.503242 223.37595 75.042266 223.52486 75.389714 C 223.77303 75.985337 226.40399 76.084297 238.81281 75.985026 L 253.85221 75.836198 L 253.85221 72.610038 L 253.85221 69.383879 L 238.71359 69.383879 L 223.57498 69.383879 z " /><g
       fill="#ffffff"
       id="g1721"
       transform="matrix(0.49635351,0,0,0.49635351,-0.03250502,46.303323)"
       style="stroke-width:0.533054" /></g><style
     type="text/css"
     id="style2">
	.st0{fill:#F05100;}
	.st1{fill:#FFFFFF;}
	.st2{fill:#1281C4;}
	.st3{fill:#034693;}
	.st4{fill:#CF3312;}
</style></svg>
