<?xml version="1.0" encoding="UTF-8" standalone="no"?>
<!-- Created with Inkscape (http://www.inkscape.org/) -->

<svg
   width="1500"
   height="500"
   viewBox="0 0 396.87498 132.29167"
   version="1.1"
   id="svg5"
   inkscape:version="1.2.2 (732a01da63, 2022-12-09)"
   xml:space="preserve"
   sodipodi:docname="oric.svg"
   xmlns:inkscape="http://www.inkscape.org/namespaces/inkscape"
   xmlns:sodipodi="http://sodipodi.sourceforge.net/DTD/sodipodi-0.dtd"
   xmlns="http://www.w3.org/2000/svg"
   xmlns:svg="http://www.w3.org/2000/svg"><sodipodi:namedview
     id="namedview7"
     pagecolor="#000000"
     bordercolor="#111111"
     borderopacity="1"
     inkscape:showpageshadow="0"
     inkscape:pageopacity="0"
     inkscape:pagecheckerboard="1"
     inkscape:deskcolor="#d1d1d1"
     inkscape:document-units="mm"
     showgrid="false"
     inkscape:zoom="0.26088402"
     inkscape:cx="797.28916"
     inkscape:cy="908.44967"
     inkscape:window-width="1920"
     inkscape:window-height="1009"
     inkscape:window-x="-8"
     inkscape:window-y="-8"
     inkscape:window-maximized="1"
     inkscape:current-layer="layer1" /><defs
     id="defs2">
		
		
	
			
				
			
		
			
			
			
			
			
				
			
			
			
			
			
		
		
		
		
	</defs><g
     inkscape:label="Layer 1"
     inkscape:groupmode="layer"
     id="layer1"><path
       id="rect231"
       style="fill:#ffffff;stroke-width:0.8001;stroke-linecap:square;paint-order:fill markers stroke"
       d="M 0 0 L 0 66.173222 C 0.0055118903 59.730982 0.89883613 53.751324 2.6830404 48.235299 C 2.6830404 48.235299 31.061734 48.235198 31.072522 48.232198 L 2.6814901 48.232198 C 5.5053172 39.490767 10.55715 31.910677 17.829403 25.488883 C 29.720621 15.005734 43.776219 9.7601278 60.024243 9.7601278 C 75.831687 9.7601278 89.627897 14.980169 101.3995 25.409819 C 108.69975 31.880022 113.74149 39.488167 116.5195 48.232198 L 116.52105 48.232198 C 118.22197 53.589693 119.07542 59.372623 119.07542 65.583077 C 119.07542 72.21881 118.1791 78.360199 116.38618 84.015544 L 116.38824 84.015544 C 113.61793 92.754475 108.70343 100.32217 101.65013 106.71855 C 90.031358 117.26022 76.001314 122.53102 59.534351 122.53102 C 42.975667 122.53102 28.907578 117.47442 17.352429 107.36554 C 10.082676 101.02017 5.0993838 93.266606 2.3977865 84.112695 C 0.80416442 78.712648 0.0054576097 72.826416 0 66.452791 L 0 132.29167 L 396.875 132.29167 L 396.875 30.898372 L 380.33751 48.235299 L 380.33286 48.235299 L 376.71189 52.029382 L 370.61614 48.235299 L 370.60787 48.235299 L 369.45187 47.514412 C 370.00235 46.734883 370.46282 45.895292 370.82698 45.011723 C 371.19654 44.108044 371.44087 43.160369 371.55251 42.19019 C 371.55251 36.705465 369.50279 32.621453 365.41852 29.929956 C 361.33417 27.238559 356.75588 25.896611 351.69895 25.896611 C 341.37622 25.896611 333.81609 29.254879 329.0316 35.977132 C 326.62535 39.366269 324.80758 43.13471 323.65156 47.127356 L 323.35597 48.230131 L 323.34822 48.230131 C 322.35514 51.996127 321.86097 56.059835 321.86097 60.419051 C 321.86097 68.855023 323.89278 76.72084 327.95673 84.010893 C 329.4259 86.63358 331.10673 89.131433 332.98329 91.479171 L 332.98278 91.481238 C 340.40016 100.78287 350.13704 105.43284 362.18358 105.43284 C 364.07294 105.42484 365.9599 105.31803 367.83905 105.114 C 371.42681 104.69922 374.90507 103.60147 378.08287 101.88525 C 381.24795 100.16644 383.42758 97.424362 384.6065 93.658366 L 393.32018 93.495585 L 393.32018 119.78855 C 390.84512 120.43816 388.35453 120.94234 385.82606 121.31921 C 383.29758 121.69647 380.74131 121.99388 378.16193 122.20753 C 374.77789 122.42406 371.3883 122.53361 367.99666 122.53361 L 364.44494 122.53361 C 363.26602 122.53361 362.08455 122.47577 360.90562 122.37083 C 352.30932 121.94257 343.78397 120.56293 335.49063 118.261 C 327.20499 115.97697 319.48702 111.99481 312.82328 106.56611 C 306.32257 101.26212 301.0644 94.598178 297.41802 87.043266 C 296.93683 86.055287 296.48662 85.059641 296.06875 84.058952 L 296.04963 84.058952 L 296.04963 84.010893 C 293.24341 77.278449 291.84265 70.222814 291.84265 62.838542 C 291.84265 57.626177 292.46948 52.754966 293.72212 48.230131 L 293.72987 48.230131 C 296.37296 38.656051 301.82458 30.622762 310.07461 24.119458 C 322.23578 14.550468 335.89188 9.7580607 351.06281 9.7580607 C 360.30843 9.7580607 368.80311 11.451379 376.54394 14.845605 C 384.29699 18.234564 391.06712 23.583934 396.875 30.896305 L 396.875 0 L 0 0 z M 31.072522 48.232198 L 31.074072 48.232198 C 28.980984 53.892652 27.929436 59.914611 27.919226 66.295695 C 27.938426 72.368629 30.735676 83.228976 30.952116 84.061536 L 30.959867 84.061536 C 32.164296 87.359052 33.709685 90.518944 35.576123 93.493001 C 40.683978 101.66923 48.776235 105.75375 59.850094 105.75375 C 69.745034 105.75375 77.251543 102.04618 82.361898 94.621098 C 84.635826 91.336381 86.507259 87.789248 87.935718 84.058952 C 89.634036 79.580016 90.665453 74.879583 90.996513 70.102698 C 91.100443 69.460788 91.151542 68.814151 91.151542 68.164832 L 91.151542 66.232133 C 91.151542 65.480504 91.122644 64.722344 91.074544 63.968705 C 91.026444 63.217086 90.997546 62.463651 90.997546 61.712512 C 90.602967 57.101147 89.57155 52.566071 87.936751 48.237366 L 87.926933 48.237366 C 86.493364 44.509569 84.626559 40.962443 82.362931 37.672636 C 77.359406 30.359573 69.916609 26.70328 60.021659 26.70328 C 48.830681 26.70328 40.687585 30.820614 35.57974 39.047746 C 33.771802 41.947983 32.261641 45.026401 31.072522 48.232198 z M 239.24535 12.179102 L 279.91005 12.179102 L 279.91005 19.927466 L 277.96443 20.25096 C 276.25331 20.56951 275.05913 21.378985 274.42511 22.669934 C 273.77069 23.988873 273.33279 25.404408 273.12906 26.863477 L 273.12906 28.793591 L 273.13217 48.232198 L 273.13217 84.01296 L 273.12906 84.01296 L 273.12906 103.50014 C 273.12906 106.19164 273.58241 108.25925 274.50417 109.71062 C 275.41074 111.16199 277.21311 111.99171 279.91211 112.20555 L 279.91211 119.79114 L 239.24793 119.79114 L 239.24793 112.05052 C 241.7255 111.94082 243.47466 111.13617 244.49825 109.62638 C 245.50914 108.1215 246.02839 106.1328 246.02839 103.66034 L 246.02839 28.641146 C 246.02839 25.840219 245.57547 23.82323 244.6538 22.585701 C 243.74723 21.353273 241.94444 20.518543 239.24535 20.090763 L 239.24535 12.179102 z M 130.99924 12.179618 L 188.59934 12.179618 C 188.76968 12.278718 188.96104 12.334699 189.15641 12.342399 L 189.55846 12.342399 C 198.49092 12.452109 206.68775 14.740803 214.16884 19.201929 C 221.63973 23.663064 225.64491 30.955797 226.18981 41.064677 C 226.18981 43.582944 225.93777 45.974255 225.43637 48.237882 L 225.42655 48.237882 C 224.48918 52.574288 222.5107 56.617714 219.65378 60.011841 C 215.29696 65.231816 209.61608 68.913832 202.62898 71.06543 L 210.42333 84.058952 L 179.82985 84.058952 L 173.75219 73.810482 L 164.88296 73.810482 L 164.88296 103.50014 C 164.88296 106.18905 165.33907 108.25925 166.24515 109.71062 C 167.16712 111.16199 168.96981 111.99171 171.65361 112.20555 L 171.65361 119.79114 L 131.00182 119.79114 L 131.00182 112.05052 C 133.47679 111.94082 135.21563 111.13617 136.23923 109.62638 C 137.26292 108.1215 137.76989 106.1303 137.76989 103.66034 L 137.76989 84.061536 L 137.76678 84.061536 L 137.76678 48.234782 L 164.87986 48.234782 L 164.87986 58.486353 L 178.10541 58.486353 C 183.16245 58.596062 187.77863 57.59809 191.98001 55.504622 C 194.90315 54.037944 196.81082 51.61896 197.69439 48.242533 L 206.93724 48.240466 L 197.69698 48.240466 C 198.08193 46.781388 198.27214 45.138908 198.27214 43.32087 C 198.27214 37.296346 196.39307 33.153357 192.63217 30.897339 C 188.85856 28.641321 184.2929 27.505815 178.91259 27.505815 L 164.88296 27.505815 L 164.88296 48.232715 L 137.76989 48.232715 L 137.76989 28.639079 C 137.76989 25.838162 137.31378 23.821163 136.40769 22.583634 C 135.48574 21.353806 133.68305 20.516476 130.99924 20.088696 L 130.99924 12.179618 z M 27.914058 66.232133 L 27.914058 66.251253 L 27.914058 66.232133 z M 179.83037 84.061536 L 210.42437 84.061536 C 210.42437 84.061536 221.98954 103.33676 221.99213 103.33426 L 221.99162 103.33426 C 222.26398 103.88475 222.55948 104.42153 222.87322 104.94863 C 223.15327 105.39132 223.45156 105.82241 223.76722 106.23951 C 224.6555 107.55596 225.71498 108.74769 226.9169 109.78658 C 228.04491 110.75416 229.62599 111.56392 231.67578 112.20555 L 231.67578 119.79114 L 201.0208 119.79114 L 179.83037 84.061536 z " /></g><style
     type="text/css"
     id="style2">
	.st0{fill:#F05100;}
	.st1{fill:#FFFFFF;}
	.st2{fill:#1281C4;}
	.st3{fill:#034693;}
	.st4{fill:#CF3312;}
</style></svg>
