<?xml version="1.0" encoding="UTF-8" standalone="no"?>
<!-- Created with Inkscape (http://www.inkscape.org/) -->

<svg
   width="1500"
   height="500"
   viewBox="0 0 396.87498 132.29167"
   version="1.1"
   id="svg5"
   inkscape:version="1.2.2 (732a01da63, 2022-12-09)"
   xml:space="preserve"
   sodipodi:docname="pc98.svg"
   xmlns:inkscape="http://www.inkscape.org/namespaces/inkscape"
   xmlns:sodipodi="http://sodipodi.sourceforge.net/DTD/sodipodi-0.dtd"
   xmlns="http://www.w3.org/2000/svg"
   xmlns:svg="http://www.w3.org/2000/svg"><sodipodi:namedview
     id="namedview7"
     pagecolor="#000000"
     bordercolor="#111111"
     borderopacity="1"
     inkscape:showpageshadow="0"
     inkscape:pageopacity="0"
     inkscape:pagecheckerboard="1"
     inkscape:deskcolor="#d1d1d1"
     inkscape:document-units="mm"
     showgrid="false"
     inkscape:zoom="0.52176804"
     inkscape:cx="958.28024"
     inkscape:cy="436.97579"
     inkscape:window-width="1920"
     inkscape:window-height="1009"
     inkscape:window-x="-8"
     inkscape:window-y="-8"
     inkscape:window-maximized="1"
     inkscape:current-layer="layer1" /><defs
     id="defs2">
		
		
	
			
				
			
		
			
			
			
			
			
				
			
			
			
			
			
		
		
		
		
	<path
   id="a"
   d="M63.175 34.078h8.133v49.598h-5.782V39.391c0-.343-.378-.573-.738-.573h-1.613v-4.74zM60.17 51.885v31.792h-3.122c-.378 0-.884.034-1.496-.712-.369-.444-.566-1.316-.566-1.316-1.303 1.593-2.607 2.145-4.383 2.145-4.541 0-6.096-2.631-6.096-7.944v-7.156c0-6.575 4.491-8.795 10.24-10.947v-5.509c0-2.765-.934-3.691-2.291-3.691-1.639 0-2.703.532-2.703 3.34v2.802c0 1.11-.424 1.692-2.291 1.668h-2.727v-3.889c0-5.313 2.555-8.296 7.609-8.296 5.346-.001 7.826 2.46 7.826 7.713zm-5.421 10.287c-3.252 1.587-4.814 2.686-4.814 7.06v5.555c0 2.674.215 4.634 2.18 4.634 1.709 0 2.636-1.047 2.636-5.741V62.172h-.002zm71.863 1.134c0 17.472-7.089 33.309-18.545 44.764s-27.28 18.545-44.755 18.536c-17.481.009-33.314-7.081-44.767-18.536S0 80.778 0 63.306c0-17.481 7.089-33.305 18.545-44.761S45.833.002 63.312.002c17.476 0 33.3 7.089 44.755 18.545s18.545 27.28 18.545 44.759zm-12.787.009c0-27.905-22.617-50.525-50.513-50.525-27.905 0-50.525 22.621-50.525 50.525a50.326 50.326 0 0 0 10.462 30.779V44.403h2.657c.784 0 1.596-.041 2.137.994a4.83 4.83 0 0 1 .39 1.047c1.311-2.154 3.302-2.288 5.087-2.288 4.61 0 6.599 3.209 6.599 9.238V75.5c0 4.985-2.421 8.413-6.599 8.413-1.529 0-3.063-.209-4.496-1.962v18.452a50.284 50.284 0 0 0 34.289 13.424c27.895.001 50.512-22.617 50.512-50.512zM31.701 79.319c1.5.017 2.712-.453 2.712-4.642V52.932c0-4.119-1.014-4.616-2.48-4.616-1.852 0-2.907 1.433-2.907 4.848v22.571c-.002 2.244 1.43 3.569 2.675 3.584zm65.256-35.148a6.041 6.041 0 0 0-5.233 3.154c-1.145-2.531-3.046-3.154-5.238-3.154-1.811 0-3.473.738-4.683 2.401 0 0-.076-1.337-.753-1.835-.474-.343-.704-.335-1.399-.335h-3.183v39.276h5.756V53.515c0-3.997 1.102-4.894 2.875-4.894 1.316 0 2.526.596 2.526 3.372v31.684h5.651V53.515c0-3.997 1.098-4.894 2.875-4.894 1.308 0 2.523.596 2.523 3.372v31.684h5.656V53.623c-.004-6.046-2.271-9.452-7.373-9.452" /><path
   id="c"
   d="M63.175 34.078h8.133v49.598h-5.782V39.391c0-.343-.378-.573-.738-.573h-1.613v-4.74zM60.17 51.885v31.792h-3.122c-.378 0-.884.034-1.496-.712-.369-.444-.566-1.316-.566-1.316-1.303 1.593-2.607 2.145-4.383 2.145-4.541 0-6.096-2.631-6.096-7.944v-7.156c0-6.575 4.491-8.795 10.24-10.947v-5.509c0-2.765-.934-3.691-2.291-3.691-1.639 0-2.703.532-2.703 3.34v2.802c0 1.11-.424 1.692-2.291 1.668h-2.727v-3.889c0-5.313 2.555-8.296 7.609-8.296 5.346-.001 7.826 2.46 7.826 7.713zm-5.421 10.287c-3.252 1.587-4.814 2.686-4.814 7.06v5.555c0 2.674.215 4.634 2.18 4.634 1.709 0 2.636-1.047 2.636-5.741V62.172h-.002zm71.863 1.134c0 17.472-7.089 33.309-18.545 44.764s-27.28 18.545-44.755 18.536c-17.481.009-33.314-7.081-44.767-18.536S0 80.778 0 63.306c0-17.481 7.089-33.305 18.545-44.761S45.833.002 63.312.002c17.476 0 33.3 7.089 44.755 18.545s18.545 27.28 18.545 44.759zm-12.787.009c0-27.905-22.617-50.525-50.513-50.525-27.905 0-50.525 22.621-50.525 50.525a50.326 50.326 0 0 0 10.462 30.779V44.403h2.657c.784 0 1.596-.041 2.137.994a4.83 4.83 0 0 1 .39 1.047c1.311-2.154 3.302-2.288 5.087-2.288 4.61 0 6.599 3.209 6.599 9.238V75.5c0 4.985-2.421 8.413-6.599 8.413-1.529 0-3.063-.209-4.496-1.962v18.452a50.284 50.284 0 0 0 34.289 13.424c27.895.001 50.512-22.617 50.512-50.512zM31.701 79.319c1.5.017 2.712-.453 2.712-4.642V52.932c0-4.119-1.014-4.616-2.48-4.616-1.852 0-2.907 1.433-2.907 4.848v22.571c-.002 2.244 1.43 3.569 2.675 3.584zm65.256-35.148a6.041 6.041 0 0 0-5.233 3.154c-1.145-2.531-3.046-3.154-5.238-3.154-1.811 0-3.473.738-4.683 2.401 0 0-.076-1.337-.753-1.835-.474-.343-.704-.335-1.399-.335h-3.183v39.276h5.756V53.515c0-3.997 1.102-4.894 2.875-4.894 1.316 0 2.526.596 2.526 3.372v31.684h5.651V53.515c0-3.997 1.098-4.894 2.875-4.894 1.308 0 2.523.596 2.523 3.372v31.684h5.656V53.623c-.004-6.046-2.271-9.452-7.373-9.452" /><path
   id="e"
   d="M63.175 34.078h8.133v49.598h-5.782V39.391c0-.343-.378-.573-.738-.573h-1.613v-4.74zM60.17 51.885v31.792h-3.122c-.378 0-.884.034-1.496-.712-.369-.444-.566-1.316-.566-1.316-1.303 1.593-2.607 2.145-4.383 2.145-4.541 0-6.096-2.631-6.096-7.944v-7.156c0-6.575 4.491-8.795 10.24-10.947v-5.509c0-2.765-.934-3.691-2.291-3.691-1.639 0-2.703.532-2.703 3.34v2.802c0 1.11-.424 1.692-2.291 1.668h-2.727v-3.889c0-5.313 2.555-8.296 7.609-8.296 5.346-.001 7.826 2.46 7.826 7.713zm-5.421 10.287c-3.252 1.587-4.814 2.686-4.814 7.06v5.555c0 2.674.215 4.634 2.18 4.634 1.709 0 2.636-1.047 2.636-5.741V62.172h-.002zm71.863 1.134c0 17.472-7.089 33.309-18.545 44.764s-27.28 18.545-44.755 18.536c-17.481.009-33.314-7.081-44.767-18.536S0 80.778 0 63.306c0-17.481 7.089-33.305 18.545-44.761S45.833.002 63.312.002c17.476 0 33.3 7.089 44.755 18.545s18.545 27.28 18.545 44.759zm-12.787.009c0-27.905-22.617-50.525-50.513-50.525-27.905 0-50.525 22.621-50.525 50.525a50.326 50.326 0 0 0 10.462 30.779V44.403h2.657c.784 0 1.596-.041 2.137.994a4.83 4.83 0 0 1 .39 1.047c1.311-2.154 3.302-2.288 5.087-2.288 4.61 0 6.599 3.209 6.599 9.238V75.5c0 4.985-2.421 8.413-6.599 8.413-1.529 0-3.063-.209-4.496-1.962v18.452a50.284 50.284 0 0 0 34.289 13.424c27.895.001 50.512-22.617 50.512-50.512zM31.701 79.319c1.5.017 2.712-.453 2.712-4.642V52.932c0-4.119-1.014-4.616-2.48-4.616-1.852 0-2.907 1.433-2.907 4.848v22.571c-.002 2.244 1.43 3.569 2.675 3.584zm65.256-35.148a6.041 6.041 0 0 0-5.233 3.154c-1.145-2.531-3.046-3.154-5.238-3.154-1.811 0-3.473.738-4.683 2.401 0 0-.076-1.337-.753-1.835-.474-.343-.704-.335-1.399-.335h-3.183v39.276h5.756V53.515c0-3.997 1.102-4.894 2.875-4.894 1.316 0 2.526.596 2.526 3.372v31.684h5.651V53.515c0-3.997 1.098-4.894 2.875-4.894 1.308 0 2.523.596 2.523 3.372v31.684h5.656V53.623c-.004-6.046-2.271-9.452-7.373-9.452" /><path
   id="g"
   d="M63.175 34.078h8.133v49.598h-5.782V39.391c0-.343-.378-.573-.738-.573h-1.613v-4.74zM60.17 51.885v31.792h-3.122c-.378 0-.884.034-1.496-.712-.369-.444-.566-1.316-.566-1.316-1.303 1.593-2.607 2.145-4.383 2.145-4.541 0-6.096-2.631-6.096-7.944v-7.156c0-6.575 4.491-8.795 10.24-10.947v-5.509c0-2.765-.934-3.691-2.291-3.691-1.639 0-2.703.532-2.703 3.34v2.802c0 1.11-.424 1.692-2.291 1.668h-2.727v-3.889c0-5.313 2.555-8.296 7.609-8.296 5.346-.001 7.826 2.46 7.826 7.713zm-5.421 10.287c-3.252 1.587-4.814 2.686-4.814 7.06v5.555c0 2.674.215 4.634 2.18 4.634 1.709 0 2.636-1.047 2.636-5.741V62.172h-.002zm71.863 1.134c0 17.472-7.089 33.309-18.545 44.764s-27.28 18.545-44.755 18.536c-17.481.009-33.314-7.081-44.767-18.536S0 80.778 0 63.306c0-17.481 7.089-33.305 18.545-44.761S45.833.002 63.312.002c17.476 0 33.3 7.089 44.755 18.545s18.545 27.28 18.545 44.759zm-12.787.009c0-27.905-22.617-50.525-50.513-50.525-27.905 0-50.525 22.621-50.525 50.525a50.326 50.326 0 0 0 10.462 30.779V44.403h2.657c.784 0 1.596-.041 2.137.994a4.83 4.83 0 0 1 .39 1.047c1.311-2.154 3.302-2.288 5.087-2.288 4.61 0 6.599 3.209 6.599 9.238V75.5c0 4.985-2.421 8.413-6.599 8.413-1.529 0-3.063-.209-4.496-1.962v18.452a50.284 50.284 0 0 0 34.289 13.424c27.895.001 50.512-22.617 50.512-50.512zM31.701 79.319c1.5.017 2.712-.453 2.712-4.642V52.932c0-4.119-1.014-4.616-2.48-4.616-1.852 0-2.907 1.433-2.907 4.848v22.571c-.002 2.244 1.43 3.569 2.675 3.584zm65.256-35.148a6.041 6.041 0 0 0-5.233 3.154c-1.145-2.531-3.046-3.154-5.238-3.154-1.811 0-3.473.738-4.683 2.401 0 0-.076-1.337-.753-1.835-.474-.343-.704-.335-1.399-.335h-3.183v39.276h5.756V53.515c0-3.997 1.102-4.894 2.875-4.894 1.316 0 2.526.596 2.526 3.372v31.684h5.651V53.515c0-3.997 1.098-4.894 2.875-4.894 1.308 0 2.523.596 2.523 3.372v31.684h5.656V53.623c-.004-6.046-2.271-9.452-7.373-9.452" /><path
   id="i"
   d="M63.175 34.078h8.133v49.598h-5.782V39.391c0-.343-.378-.573-.738-.573h-1.613v-4.74zM60.17 51.885v31.792h-3.122c-.378 0-.884.034-1.496-.712-.369-.444-.566-1.316-.566-1.316-1.303 1.593-2.607 2.145-4.383 2.145-4.541 0-6.096-2.631-6.096-7.944v-7.156c0-6.575 4.491-8.795 10.24-10.947v-5.509c0-2.765-.934-3.691-2.291-3.691-1.639 0-2.703.532-2.703 3.34v2.802c0 1.11-.424 1.692-2.291 1.668h-2.727v-3.889c0-5.313 2.555-8.296 7.609-8.296 5.346-.001 7.826 2.46 7.826 7.713zm-5.421 10.287c-3.252 1.587-4.814 2.686-4.814 7.06v5.555c0 2.674.215 4.634 2.18 4.634 1.709 0 2.636-1.047 2.636-5.741V62.172h-.002zm71.863 1.134c0 17.472-7.089 33.309-18.545 44.764s-27.28 18.545-44.755 18.536c-17.481.009-33.314-7.081-44.767-18.536S0 80.778 0 63.306c0-17.481 7.089-33.305 18.545-44.761S45.833.002 63.312.002c17.476 0 33.3 7.089 44.755 18.545s18.545 27.28 18.545 44.759zm-12.787.009c0-27.905-22.617-50.525-50.513-50.525-27.905 0-50.525 22.621-50.525 50.525a50.326 50.326 0 0 0 10.462 30.779V44.403h2.657c.784 0 1.596-.041 2.137.994a4.83 4.83 0 0 1 .39 1.047c1.311-2.154 3.302-2.288 5.087-2.288 4.61 0 6.599 3.209 6.599 9.238V75.5c0 4.985-2.421 8.413-6.599 8.413-1.529 0-3.063-.209-4.496-1.962v18.452a50.284 50.284 0 0 0 34.289 13.424c27.895.001 50.512-22.617 50.512-50.512zM31.701 79.319c1.5.017 2.712-.453 2.712-4.642V52.932c0-4.119-1.014-4.616-2.48-4.616-1.852 0-2.907 1.433-2.907 4.848v22.571c-.002 2.244 1.43 3.569 2.675 3.584zm65.256-35.148a6.041 6.041 0 0 0-5.233 3.154c-1.145-2.531-3.046-3.154-5.238-3.154-1.811 0-3.473.738-4.683 2.401 0 0-.076-1.337-.753-1.835-.474-.343-.704-.335-1.399-.335h-3.183v39.276h5.756V53.515c0-3.997 1.102-4.894 2.875-4.894 1.316 0 2.526.596 2.526 3.372v31.684h5.651V53.515c0-3.997 1.098-4.894 2.875-4.894 1.308 0 2.523.596 2.523 3.372v31.684h5.656V53.623c-.004-6.046-2.271-9.452-7.373-9.452" /><path
   id="k"
   d="M63.175 34.078h8.133v49.598h-5.782V39.391c0-.343-.378-.573-.738-.573h-1.613v-4.74zM60.17 51.885v31.792h-3.122c-.378 0-.884.034-1.496-.712-.369-.444-.566-1.316-.566-1.316-1.303 1.593-2.607 2.145-4.383 2.145-4.541 0-6.096-2.631-6.096-7.944v-7.156c0-6.575 4.491-8.795 10.24-10.947v-5.509c0-2.765-.934-3.691-2.291-3.691-1.639 0-2.703.532-2.703 3.34v2.802c0 1.11-.424 1.692-2.291 1.668h-2.727v-3.889c0-5.313 2.555-8.296 7.609-8.296 5.346-.001 7.826 2.46 7.826 7.713zm-5.421 10.287c-3.252 1.587-4.814 2.686-4.814 7.06v5.555c0 2.674.215 4.634 2.18 4.634 1.709 0 2.636-1.047 2.636-5.741V62.172h-.002zm71.863 1.134c0 17.472-7.089 33.309-18.545 44.764s-27.28 18.545-44.755 18.536c-17.481.009-33.314-7.081-44.767-18.536S0 80.778 0 63.306c0-17.481 7.089-33.305 18.545-44.761S45.833.002 63.312.002c17.476 0 33.3 7.089 44.755 18.545s18.545 27.28 18.545 44.759zm-12.787.009c0-27.905-22.617-50.525-50.513-50.525-27.905 0-50.525 22.621-50.525 50.525a50.326 50.326 0 0 0 10.462 30.779V44.403h2.657c.784 0 1.596-.041 2.137.994a4.83 4.83 0 0 1 .39 1.047c1.311-2.154 3.302-2.288 5.087-2.288 4.61 0 6.599 3.209 6.599 9.238V75.5c0 4.985-2.421 8.413-6.599 8.413-1.529 0-3.063-.209-4.496-1.962v18.452a50.284 50.284 0 0 0 34.289 13.424c27.895.001 50.512-22.617 50.512-50.512zM31.701 79.319c1.5.017 2.712-.453 2.712-4.642V52.932c0-4.119-1.014-4.616-2.48-4.616-1.852 0-2.907 1.433-2.907 4.848v22.571c-.002 2.244 1.43 3.569 2.675 3.584zm65.256-35.148a6.041 6.041 0 0 0-5.233 3.154c-1.145-2.531-3.046-3.154-5.238-3.154-1.811 0-3.473.738-4.683 2.401 0 0-.076-1.337-.753-1.835-.474-.343-.704-.335-1.399-.335h-3.183v39.276h5.756V53.515c0-3.997 1.102-4.894 2.875-4.894 1.316 0 2.526.596 2.526 3.372v31.684h5.651V53.515c0-3.997 1.098-4.894 2.875-4.894 1.308 0 2.523.596 2.523 3.372v31.684h5.656V53.623c-.004-6.046-2.271-9.452-7.373-9.452" /><path
   id="m"
   d="M63.175 34.078h8.133v49.598h-5.782V39.391c0-.343-.378-.573-.738-.573h-1.613v-4.74zM60.17 51.885v31.792h-3.122c-.378 0-.884.034-1.496-.712-.369-.444-.566-1.316-.566-1.316-1.303 1.593-2.607 2.145-4.383 2.145-4.541 0-6.096-2.631-6.096-7.944v-7.156c0-6.575 4.491-8.795 10.24-10.947v-5.509c0-2.765-.934-3.691-2.291-3.691-1.639 0-2.703.532-2.703 3.34v2.802c0 1.11-.424 1.692-2.291 1.668h-2.727v-3.889c0-5.313 2.555-8.296 7.609-8.296 5.346-.001 7.826 2.46 7.826 7.713zm-5.421 10.287c-3.252 1.587-4.814 2.686-4.814 7.06v5.555c0 2.674.215 4.634 2.18 4.634 1.709 0 2.636-1.047 2.636-5.741V62.172h-.002zm71.863 1.134c0 17.472-7.089 33.309-18.545 44.764s-27.28 18.545-44.755 18.536c-17.481.009-33.314-7.081-44.767-18.536S0 80.778 0 63.306c0-17.481 7.089-33.305 18.545-44.761S45.833.002 63.312.002c17.476 0 33.3 7.089 44.755 18.545s18.545 27.28 18.545 44.759zm-12.787.009c0-27.905-22.617-50.525-50.513-50.525-27.905 0-50.525 22.621-50.525 50.525a50.326 50.326 0 0 0 10.462 30.779V44.403h2.657c.784 0 1.596-.041 2.137.994a4.83 4.83 0 0 1 .39 1.047c1.311-2.154 3.302-2.288 5.087-2.288 4.61 0 6.599 3.209 6.599 9.238V75.5c0 4.985-2.421 8.413-6.599 8.413-1.529 0-3.063-.209-4.496-1.962v18.452a50.284 50.284 0 0 0 34.289 13.424c27.895.001 50.512-22.617 50.512-50.512zM31.701 79.319c1.5.017 2.712-.453 2.712-4.642V52.932c0-4.119-1.014-4.616-2.48-4.616-1.852 0-2.907 1.433-2.907 4.848v22.571c-.002 2.244 1.43 3.569 2.675 3.584zm65.256-35.148a6.041 6.041 0 0 0-5.233 3.154c-1.145-2.531-3.046-3.154-5.238-3.154-1.811 0-3.473.738-4.683 2.401 0 0-.076-1.337-.753-1.835-.474-.343-.704-.335-1.399-.335h-3.183v39.276h5.756V53.515c0-3.997 1.102-4.894 2.875-4.894 1.316 0 2.526.596 2.526 3.372v31.684h5.651V53.515c0-3.997 1.098-4.894 2.875-4.894 1.308 0 2.523.596 2.523 3.372v31.684h5.656V53.623c-.004-6.046-2.271-9.452-7.373-9.452" /><path
   id="o"
   d="M63.175 34.078h8.133v49.598h-5.782V39.391c0-.343-.378-.573-.738-.573h-1.613v-4.74zM60.17 51.885v31.792h-3.122c-.378 0-.884.034-1.496-.712-.369-.444-.566-1.316-.566-1.316-1.303 1.593-2.607 2.145-4.383 2.145-4.541 0-6.096-2.631-6.096-7.944v-7.156c0-6.575 4.491-8.795 10.24-10.947v-5.509c0-2.765-.934-3.691-2.291-3.691-1.639 0-2.703.532-2.703 3.34v2.802c0 1.11-.424 1.692-2.291 1.668h-2.727v-3.889c0-5.313 2.555-8.296 7.609-8.296 5.346-.001 7.826 2.46 7.826 7.713zm-5.421 10.287c-3.252 1.587-4.814 2.686-4.814 7.06v5.555c0 2.674.215 4.634 2.18 4.634 1.709 0 2.636-1.047 2.636-5.741V62.172h-.002zm71.863 1.134c0 17.472-7.089 33.309-18.545 44.764s-27.28 18.545-44.755 18.536c-17.481.009-33.314-7.081-44.767-18.536S0 80.778 0 63.306c0-17.481 7.089-33.305 18.545-44.761S45.833.002 63.312.002c17.476 0 33.3 7.089 44.755 18.545s18.545 27.28 18.545 44.759zm-12.787.009c0-27.905-22.617-50.525-50.513-50.525-27.905 0-50.525 22.621-50.525 50.525a50.326 50.326 0 0 0 10.462 30.779V44.403h2.657c.784 0 1.596-.041 2.137.994a4.83 4.83 0 0 1 .39 1.047c1.311-2.154 3.302-2.288 5.087-2.288 4.61 0 6.599 3.209 6.599 9.238V75.5c0 4.985-2.421 8.413-6.599 8.413-1.529 0-3.063-.209-4.496-1.962v18.452a50.284 50.284 0 0 0 34.289 13.424c27.895.001 50.512-22.617 50.512-50.512zM31.701 79.319c1.5.017 2.712-.453 2.712-4.642V52.932c0-4.119-1.014-4.616-2.48-4.616-1.852 0-2.907 1.433-2.907 4.848v22.571c-.002 2.244 1.43 3.569 2.675 3.584zm65.256-35.148a6.041 6.041 0 0 0-5.233 3.154c-1.145-2.531-3.046-3.154-5.238-3.154-1.811 0-3.473.738-4.683 2.401 0 0-.076-1.337-.753-1.835-.474-.343-.704-.335-1.399-.335h-3.183v39.276h5.756V53.515c0-3.997 1.102-4.894 2.875-4.894 1.316 0 2.526.596 2.526 3.372v31.684h5.651V53.515c0-3.997 1.098-4.894 2.875-4.894 1.308 0 2.523.596 2.523 3.372v31.684h5.656V53.623c-.004-6.046-2.271-9.452-7.373-9.452" /><path
   id="q"
   d="M63.175 34.078h8.133v49.598h-5.782V39.391c0-.343-.378-.573-.738-.573h-1.613v-4.74zM60.17 51.885v31.792h-3.122c-.378 0-.884.034-1.496-.712-.369-.444-.566-1.316-.566-1.316-1.303 1.593-2.607 2.145-4.383 2.145-4.541 0-6.096-2.631-6.096-7.944v-7.156c0-6.575 4.491-8.795 10.24-10.947v-5.509c0-2.765-.934-3.691-2.291-3.691-1.639 0-2.703.532-2.703 3.34v2.802c0 1.11-.424 1.692-2.291 1.668h-2.727v-3.889c0-5.313 2.555-8.296 7.609-8.296 5.346-.001 7.826 2.46 7.826 7.713zm-5.421 10.287c-3.252 1.587-4.814 2.686-4.814 7.06v5.555c0 2.674.215 4.634 2.18 4.634 1.709 0 2.636-1.047 2.636-5.741V62.172h-.002zm71.863 1.134c0 17.472-7.089 33.309-18.545 44.764s-27.28 18.545-44.755 18.536c-17.481.009-33.314-7.081-44.767-18.536S0 80.778 0 63.306c0-17.481 7.089-33.305 18.545-44.761S45.833.002 63.312.002c17.476 0 33.3 7.089 44.755 18.545s18.545 27.28 18.545 44.759zm-12.787.009c0-27.905-22.617-50.525-50.513-50.525-27.905 0-50.525 22.621-50.525 50.525a50.326 50.326 0 0 0 10.462 30.779V44.403h2.657c.784 0 1.596-.041 2.137.994a4.83 4.83 0 0 1 .39 1.047c1.311-2.154 3.302-2.288 5.087-2.288 4.61 0 6.599 3.209 6.599 9.238V75.5c0 4.985-2.421 8.413-6.599 8.413-1.529 0-3.063-.209-4.496-1.962v18.452a50.284 50.284 0 0 0 34.289 13.424c27.895.001 50.512-22.617 50.512-50.512zM31.701 79.319c1.5.017 2.712-.453 2.712-4.642V52.932c0-4.119-1.014-4.616-2.48-4.616-1.852 0-2.907 1.433-2.907 4.848v22.571c-.002 2.244 1.43 3.569 2.675 3.584zm65.256-35.148a6.041 6.041 0 0 0-5.233 3.154c-1.145-2.531-3.046-3.154-5.238-3.154-1.811 0-3.473.738-4.683 2.401 0 0-.076-1.337-.753-1.835-.474-.343-.704-.335-1.399-.335h-3.183v39.276h5.756V53.515c0-3.997 1.102-4.894 2.875-4.894 1.316 0 2.526.596 2.526 3.372v31.684h5.651V53.515c0-3.997 1.098-4.894 2.875-4.894 1.308 0 2.523.596 2.523 3.372v31.684h5.656V53.623c-.004-6.046-2.271-9.452-7.373-9.452" /><path
   id="s"
   d="M63.175 34.078h8.133v49.598h-5.782V39.391c0-.343-.378-.573-.738-.573h-1.613v-4.74zM60.17 51.885v31.792h-3.122c-.378 0-.884.034-1.496-.712-.369-.444-.566-1.316-.566-1.316-1.303 1.593-2.607 2.145-4.383 2.145-4.541 0-6.096-2.631-6.096-7.944v-7.156c0-6.575 4.491-8.795 10.24-10.947v-5.509c0-2.765-.934-3.691-2.291-3.691-1.639 0-2.703.532-2.703 3.34v2.802c0 1.11-.424 1.692-2.291 1.668h-2.727v-3.889c0-5.313 2.555-8.296 7.609-8.296 5.346-.001 7.826 2.46 7.826 7.713zm-5.421 10.287c-3.252 1.587-4.814 2.686-4.814 7.06v5.555c0 2.674.215 4.634 2.18 4.634 1.709 0 2.636-1.047 2.636-5.741V62.172h-.002zm71.863 1.134c0 17.472-7.089 33.309-18.545 44.764s-27.28 18.545-44.755 18.536c-17.481.009-33.314-7.081-44.767-18.536S0 80.778 0 63.306c0-17.481 7.089-33.305 18.545-44.761S45.833.002 63.312.002c17.476 0 33.3 7.089 44.755 18.545s18.545 27.28 18.545 44.759zm-12.787.009c0-27.905-22.617-50.525-50.513-50.525-27.905 0-50.525 22.621-50.525 50.525a50.326 50.326 0 0 0 10.462 30.779V44.403h2.657c.784 0 1.596-.041 2.137.994a4.83 4.83 0 0 1 .39 1.047c1.311-2.154 3.302-2.288 5.087-2.288 4.61 0 6.599 3.209 6.599 9.238V75.5c0 4.985-2.421 8.413-6.599 8.413-1.529 0-3.063-.209-4.496-1.962v18.452a50.284 50.284 0 0 0 34.289 13.424c27.895.001 50.512-22.617 50.512-50.512zM31.701 79.319c1.5.017 2.712-.453 2.712-4.642V52.932c0-4.119-1.014-4.616-2.48-4.616-1.852 0-2.907 1.433-2.907 4.848v22.571c-.002 2.244 1.43 3.569 2.675 3.584zm65.256-35.148a6.041 6.041 0 0 0-5.233 3.154c-1.145-2.531-3.046-3.154-5.238-3.154-1.811 0-3.473.738-4.683 2.401 0 0-.076-1.337-.753-1.835-.474-.343-.704-.335-1.399-.335h-3.183v39.276h5.756V53.515c0-3.997 1.102-4.894 2.875-4.894 1.316 0 2.526.596 2.526 3.372v31.684h5.651V53.515c0-3.997 1.098-4.894 2.875-4.894 1.308 0 2.523.596 2.523 3.372v31.684h5.656V53.623c-.004-6.046-2.271-9.452-7.373-9.452" /><path
   id="u"
   d="M63.175 34.078h8.133v49.598h-5.782V39.391c0-.343-.378-.573-.738-.573h-1.613v-4.74zM60.17 51.885v31.792h-3.122c-.378 0-.884.034-1.496-.712-.369-.444-.566-1.316-.566-1.316-1.303 1.593-2.607 2.145-4.383 2.145-4.541 0-6.096-2.631-6.096-7.944v-7.156c0-6.575 4.491-8.795 10.24-10.947v-5.509c0-2.765-.934-3.691-2.291-3.691-1.639 0-2.703.532-2.703 3.34v2.802c0 1.11-.424 1.692-2.291 1.668h-2.727v-3.889c0-5.313 2.555-8.296 7.609-8.296 5.346-.001 7.826 2.46 7.826 7.713zm-5.421 10.287c-3.252 1.587-4.814 2.686-4.814 7.06v5.555c0 2.674.215 4.634 2.18 4.634 1.709 0 2.636-1.047 2.636-5.741V62.172h-.002zm71.863 1.134c0 17.472-7.089 33.309-18.545 44.764s-27.28 18.545-44.755 18.536c-17.481.009-33.314-7.081-44.767-18.536S0 80.778 0 63.306c0-17.481 7.089-33.305 18.545-44.761S45.833.002 63.312.002c17.476 0 33.3 7.089 44.755 18.545s18.545 27.28 18.545 44.759zm-12.787.009c0-27.905-22.617-50.525-50.513-50.525-27.905 0-50.525 22.621-50.525 50.525a50.326 50.326 0 0 0 10.462 30.779V44.403h2.657c.784 0 1.596-.041 2.137.994a4.83 4.83 0 0 1 .39 1.047c1.311-2.154 3.302-2.288 5.087-2.288 4.61 0 6.599 3.209 6.599 9.238V75.5c0 4.985-2.421 8.413-6.599 8.413-1.529 0-3.063-.209-4.496-1.962v18.452a50.284 50.284 0 0 0 34.289 13.424c27.895.001 50.512-22.617 50.512-50.512zM31.701 79.319c1.5.017 2.712-.453 2.712-4.642V52.932c0-4.119-1.014-4.616-2.48-4.616-1.852 0-2.907 1.433-2.907 4.848v22.571c-.002 2.244 1.43 3.569 2.675 3.584zm65.256-35.148a6.041 6.041 0 0 0-5.233 3.154c-1.145-2.531-3.046-3.154-5.238-3.154-1.811 0-3.473.738-4.683 2.401 0 0-.076-1.337-.753-1.835-.474-.343-.704-.335-1.399-.335h-3.183v39.276h5.756V53.515c0-3.997 1.102-4.894 2.875-4.894 1.316 0 2.526.596 2.526 3.372v31.684h5.651V53.515c0-3.997 1.098-4.894 2.875-4.894 1.308 0 2.523.596 2.523 3.372v31.684h5.656V53.623c-.004-6.046-2.271-9.452-7.373-9.452" /><path
   id="w"
   d="M63.175 34.078h8.133v49.598h-5.782V39.391c0-.343-.378-.573-.738-.573h-1.613v-4.74zM60.17 51.885v31.792h-3.122c-.378 0-.884.034-1.496-.712-.369-.444-.566-1.316-.566-1.316-1.303 1.593-2.607 2.145-4.383 2.145-4.541 0-6.096-2.631-6.096-7.944v-7.156c0-6.575 4.491-8.795 10.24-10.947v-5.509c0-2.765-.934-3.691-2.291-3.691-1.639 0-2.703.532-2.703 3.34v2.802c0 1.11-.424 1.692-2.291 1.668h-2.727v-3.889c0-5.313 2.555-8.296 7.609-8.296 5.346-.001 7.826 2.46 7.826 7.713zm-5.421 10.287c-3.252 1.587-4.814 2.686-4.814 7.06v5.555c0 2.674.215 4.634 2.18 4.634 1.709 0 2.636-1.047 2.636-5.741V62.172h-.002zm71.863 1.134c0 17.472-7.089 33.309-18.545 44.764s-27.28 18.545-44.755 18.536c-17.481.009-33.314-7.081-44.767-18.536S0 80.778 0 63.306c0-17.481 7.089-33.305 18.545-44.761S45.833.002 63.312.002c17.476 0 33.3 7.089 44.755 18.545s18.545 27.28 18.545 44.759zm-12.787.009c0-27.905-22.617-50.525-50.513-50.525-27.905 0-50.525 22.621-50.525 50.525a50.326 50.326 0 0 0 10.462 30.779V44.403h2.657c.784 0 1.596-.041 2.137.994a4.83 4.83 0 0 1 .39 1.047c1.311-2.154 3.302-2.288 5.087-2.288 4.61 0 6.599 3.209 6.599 9.238V75.5c0 4.985-2.421 8.413-6.599 8.413-1.529 0-3.063-.209-4.496-1.962v18.452a50.284 50.284 0 0 0 34.289 13.424c27.895.001 50.512-22.617 50.512-50.512zM31.701 79.319c1.5.017 2.712-.453 2.712-4.642V52.932c0-4.119-1.014-4.616-2.48-4.616-1.852 0-2.907 1.433-2.907 4.848v22.571c-.002 2.244 1.43 3.569 2.675 3.584zm65.256-35.148a6.041 6.041 0 0 0-5.233 3.154c-1.145-2.531-3.046-3.154-5.238-3.154-1.811 0-3.473.738-4.683 2.401 0 0-.076-1.337-.753-1.835-.474-.343-.704-.335-1.399-.335h-3.183v39.276h5.756V53.515c0-3.997 1.102-4.894 2.875-4.894 1.316 0 2.526.596 2.526 3.372v31.684h5.651V53.515c0-3.997 1.098-4.894 2.875-4.894 1.308 0 2.523.596 2.523 3.372v31.684h5.656V53.623c-.004-6.046-2.271-9.452-7.373-9.452" /><path
   id="y"
   d="M63.175 34.078h8.133v49.598h-5.782V39.391c0-.343-.378-.573-.738-.573h-1.613v-4.74zM60.17 51.885v31.792h-3.122c-.378 0-.884.034-1.496-.712-.369-.444-.566-1.316-.566-1.316-1.303 1.593-2.607 2.145-4.383 2.145-4.541 0-6.096-2.631-6.096-7.944v-7.156c0-6.575 4.491-8.795 10.24-10.947v-5.509c0-2.765-.934-3.691-2.291-3.691-1.639 0-2.703.532-2.703 3.34v2.802c0 1.11-.424 1.692-2.291 1.668h-2.727v-3.889c0-5.313 2.555-8.296 7.609-8.296 5.346-.001 7.826 2.46 7.826 7.713zm-5.421 10.287c-3.252 1.587-4.814 2.686-4.814 7.06v5.555c0 2.674.215 4.634 2.18 4.634 1.709 0 2.636-1.047 2.636-5.741V62.172h-.002zm71.863 1.134c0 17.472-7.089 33.309-18.545 44.764s-27.28 18.545-44.755 18.536c-17.481.009-33.314-7.081-44.767-18.536S0 80.778 0 63.306c0-17.481 7.089-33.305 18.545-44.761S45.833.002 63.312.002c17.476 0 33.3 7.089 44.755 18.545s18.545 27.28 18.545 44.759zm-12.787.009c0-27.905-22.617-50.525-50.513-50.525-27.905 0-50.525 22.621-50.525 50.525a50.326 50.326 0 0 0 10.462 30.779V44.403h2.657c.784 0 1.596-.041 2.137.994a4.83 4.83 0 0 1 .39 1.047c1.311-2.154 3.302-2.288 5.087-2.288 4.61 0 6.599 3.209 6.599 9.238V75.5c0 4.985-2.421 8.413-6.599 8.413-1.529 0-3.063-.209-4.496-1.962v18.452a50.284 50.284 0 0 0 34.289 13.424c27.895.001 50.512-22.617 50.512-50.512zM31.701 79.319c1.5.017 2.712-.453 2.712-4.642V52.932c0-4.119-1.014-4.616-2.48-4.616-1.852 0-2.907 1.433-2.907 4.848v22.571c-.002 2.244 1.43 3.569 2.675 3.584zm65.256-35.148a6.041 6.041 0 0 0-5.233 3.154c-1.145-2.531-3.046-3.154-5.238-3.154-1.811 0-3.473.738-4.683 2.401 0 0-.076-1.337-.753-1.835-.474-.343-.704-.335-1.399-.335h-3.183v39.276h5.756V53.515c0-3.997 1.102-4.894 2.875-4.894 1.316 0 2.526.596 2.526 3.372v31.684h5.651V53.515c0-3.997 1.098-4.894 2.875-4.894 1.308 0 2.523.596 2.523 3.372v31.684h5.656V53.623c-.004-6.046-2.271-9.452-7.373-9.452" /><path
   id="A"
   d="M63.175 34.078h8.133v49.598h-5.782V39.391c0-.343-.378-.573-.738-.573h-1.613v-4.74zM60.17 51.885v31.792h-3.122c-.378 0-.884.034-1.496-.712-.369-.444-.566-1.316-.566-1.316-1.303 1.593-2.607 2.145-4.383 2.145-4.541 0-6.096-2.631-6.096-7.944v-7.156c0-6.575 4.491-8.795 10.24-10.947v-5.509c0-2.765-.934-3.691-2.291-3.691-1.639 0-2.703.532-2.703 3.34v2.802c0 1.11-.424 1.692-2.291 1.668h-2.727v-3.889c0-5.313 2.555-8.296 7.609-8.296 5.346-.001 7.826 2.46 7.826 7.713zm-5.421 10.287c-3.252 1.587-4.814 2.686-4.814 7.06v5.555c0 2.674.215 4.634 2.18 4.634 1.709 0 2.636-1.047 2.636-5.741V62.172h-.002zm71.863 1.134c0 17.472-7.089 33.309-18.545 44.764s-27.28 18.545-44.755 18.536c-17.481.009-33.314-7.081-44.767-18.536S0 80.778 0 63.306c0-17.481 7.089-33.305 18.545-44.761S45.833.002 63.312.002c17.476 0 33.3 7.089 44.755 18.545s18.545 27.28 18.545 44.759zm-12.787.009c0-27.905-22.617-50.525-50.513-50.525-27.905 0-50.525 22.621-50.525 50.525a50.326 50.326 0 0 0 10.462 30.779V44.403h2.657c.784 0 1.596-.041 2.137.994a4.83 4.83 0 0 1 .39 1.047c1.311-2.154 3.302-2.288 5.087-2.288 4.61 0 6.599 3.209 6.599 9.238V75.5c0 4.985-2.421 8.413-6.599 8.413-1.529 0-3.063-.209-4.496-1.962v18.452a50.284 50.284 0 0 0 34.289 13.424c27.895.001 50.512-22.617 50.512-50.512zM31.701 79.319c1.5.017 2.712-.453 2.712-4.642V52.932c0-4.119-1.014-4.616-2.48-4.616-1.852 0-2.907 1.433-2.907 4.848v22.571c-.002 2.244 1.43 3.569 2.675 3.584zm65.256-35.148a6.041 6.041 0 0 0-5.233 3.154c-1.145-2.531-3.046-3.154-5.238-3.154-1.811 0-3.473.738-4.683 2.401 0 0-.076-1.337-.753-1.835-.474-.343-.704-.335-1.399-.335h-3.183v39.276h5.756V53.515c0-3.997 1.102-4.894 2.875-4.894 1.316 0 2.526.596 2.526 3.372v31.684h5.651V53.515c0-3.997 1.098-4.894 2.875-4.894 1.308 0 2.523.596 2.523 3.372v31.684h5.656V53.623c-.004-6.046-2.271-9.452-7.373-9.452" /><path
   id="C"
   d="M63.175 34.078h8.133v49.598h-5.782V39.391c0-.343-.378-.573-.738-.573h-1.613v-4.74zM60.17 51.885v31.792h-3.122c-.378 0-.884.034-1.496-.712-.369-.444-.566-1.316-.566-1.316-1.303 1.593-2.607 2.145-4.383 2.145-4.541 0-6.096-2.631-6.096-7.944v-7.156c0-6.575 4.491-8.795 10.24-10.947v-5.509c0-2.765-.934-3.691-2.291-3.691-1.639 0-2.703.532-2.703 3.34v2.802c0 1.11-.424 1.692-2.291 1.668h-2.727v-3.889c0-5.313 2.555-8.296 7.609-8.296 5.346-.001 7.826 2.46 7.826 7.713zm-5.421 10.287c-3.252 1.587-4.814 2.686-4.814 7.06v5.555c0 2.674.215 4.634 2.18 4.634 1.709 0 2.636-1.047 2.636-5.741V62.172h-.002zm71.863 1.134c0 17.472-7.089 33.309-18.545 44.764s-27.28 18.545-44.755 18.536c-17.481.009-33.314-7.081-44.767-18.536S0 80.778 0 63.306c0-17.481 7.089-33.305 18.545-44.761S45.833.002 63.312.002c17.476 0 33.3 7.089 44.755 18.545s18.545 27.28 18.545 44.759zm-12.787.009c0-27.905-22.617-50.525-50.513-50.525-27.905 0-50.525 22.621-50.525 50.525a50.326 50.326 0 0 0 10.462 30.779V44.403h2.657c.784 0 1.596-.041 2.137.994a4.83 4.83 0 0 1 .39 1.047c1.311-2.154 3.302-2.288 5.087-2.288 4.61 0 6.599 3.209 6.599 9.238V75.5c0 4.985-2.421 8.413-6.599 8.413-1.529 0-3.063-.209-4.496-1.962v18.452a50.284 50.284 0 0 0 34.289 13.424c27.895.001 50.512-22.617 50.512-50.512zM31.701 79.319c1.5.017 2.712-.453 2.712-4.642V52.932c0-4.119-1.014-4.616-2.48-4.616-1.852 0-2.907 1.433-2.907 4.848v22.571c-.002 2.244 1.43 3.569 2.675 3.584zm65.256-35.148a6.041 6.041 0 0 0-5.233 3.154c-1.145-2.531-3.046-3.154-5.238-3.154-1.811 0-3.473.738-4.683 2.401 0 0-.076-1.337-.753-1.835-.474-.343-.704-.335-1.399-.335h-3.183v39.276h5.756V53.515c0-3.997 1.102-4.894 2.875-4.894 1.316 0 2.526.596 2.526 3.372v31.684h5.651V53.515c0-3.997 1.098-4.894 2.875-4.894 1.308 0 2.523.596 2.523 3.372v31.684h5.656V53.623c-.004-6.046-2.271-9.452-7.373-9.452" /><path
   id="E"
   d="M63.175 34.078h8.133v49.598h-5.782V39.391c0-.343-.378-.573-.738-.573h-1.613v-4.74zM60.17 51.885v31.792h-3.122c-.378 0-.884.034-1.496-.712-.369-.444-.566-1.316-.566-1.316-1.303 1.593-2.607 2.145-4.383 2.145-4.541 0-6.096-2.631-6.096-7.944v-7.156c0-6.575 4.491-8.795 10.24-10.947v-5.509c0-2.765-.934-3.691-2.291-3.691-1.639 0-2.703.532-2.703 3.34v2.802c0 1.11-.424 1.692-2.291 1.668h-2.727v-3.889c0-5.313 2.555-8.296 7.609-8.296 5.346-.001 7.826 2.46 7.826 7.713zm-5.421 10.287c-3.252 1.587-4.814 2.686-4.814 7.06v5.555c0 2.674.215 4.634 2.18 4.634 1.709 0 2.636-1.047 2.636-5.741V62.172h-.002zm71.863 1.134c0 17.472-7.089 33.309-18.545 44.764s-27.28 18.545-44.755 18.536c-17.481.009-33.314-7.081-44.767-18.536S0 80.778 0 63.306c0-17.481 7.089-33.305 18.545-44.761S45.833.002 63.312.002c17.476 0 33.3 7.089 44.755 18.545s18.545 27.28 18.545 44.759zm-12.787.009c0-27.905-22.617-50.525-50.513-50.525-27.905 0-50.525 22.621-50.525 50.525a50.326 50.326 0 0 0 10.462 30.779V44.403h2.657c.784 0 1.596-.041 2.137.994a4.83 4.83 0 0 1 .39 1.047c1.311-2.154 3.302-2.288 5.087-2.288 4.61 0 6.599 3.209 6.599 9.238V75.5c0 4.985-2.421 8.413-6.599 8.413-1.529 0-3.063-.209-4.496-1.962v18.452a50.284 50.284 0 0 0 34.289 13.424c27.895.001 50.512-22.617 50.512-50.512zM31.701 79.319c1.5.017 2.712-.453 2.712-4.642V52.932c0-4.119-1.014-4.616-2.48-4.616-1.852 0-2.907 1.433-2.907 4.848v22.571c-.002 2.244 1.43 3.569 2.675 3.584zm65.256-35.148a6.041 6.041 0 0 0-5.233 3.154c-1.145-2.531-3.046-3.154-5.238-3.154-1.811 0-3.473.738-4.683 2.401 0 0-.076-1.337-.753-1.835-.474-.343-.704-.335-1.399-.335h-3.183v39.276h5.756V53.515c0-3.997 1.102-4.894 2.875-4.894 1.316 0 2.526.596 2.526 3.372v31.684h5.651V53.515c0-3.997 1.098-4.894 2.875-4.894 1.308 0 2.523.596 2.523 3.372v31.684h5.656V53.623c-.004-6.046-2.271-9.452-7.373-9.452" /><path
   id="G"
   d="M63.175 34.078h8.133v49.598h-5.782V39.391c0-.343-.378-.573-.738-.573h-1.613v-4.74zM60.17 51.885v31.792h-3.122c-.378 0-.884.034-1.496-.712-.369-.444-.566-1.316-.566-1.316-1.303 1.593-2.607 2.145-4.383 2.145-4.541 0-6.096-2.631-6.096-7.944v-7.156c0-6.575 4.491-8.795 10.24-10.947v-5.509c0-2.765-.934-3.691-2.291-3.691-1.639 0-2.703.532-2.703 3.34v2.802c0 1.11-.424 1.692-2.291 1.668h-2.727v-3.889c0-5.313 2.555-8.296 7.609-8.296 5.346-.001 7.826 2.46 7.826 7.713zm-5.421 10.287c-3.252 1.587-4.814 2.686-4.814 7.06v5.555c0 2.674.215 4.634 2.18 4.634 1.709 0 2.636-1.047 2.636-5.741V62.172h-.002zm71.863 1.134c0 17.472-7.089 33.309-18.545 44.764s-27.28 18.545-44.755 18.536c-17.481.009-33.314-7.081-44.767-18.536S0 80.778 0 63.306c0-17.481 7.089-33.305 18.545-44.761S45.833.002 63.312.002c17.476 0 33.3 7.089 44.755 18.545s18.545 27.28 18.545 44.759zm-12.787.009c0-27.905-22.617-50.525-50.513-50.525-27.905 0-50.525 22.621-50.525 50.525a50.326 50.326 0 0 0 10.462 30.779V44.403h2.657c.784 0 1.596-.041 2.137.994a4.83 4.83 0 0 1 .39 1.047c1.311-2.154 3.302-2.288 5.087-2.288 4.61 0 6.599 3.209 6.599 9.238V75.5c0 4.985-2.421 8.413-6.599 8.413-1.529 0-3.063-.209-4.496-1.962v18.452a50.284 50.284 0 0 0 34.289 13.424c27.895.001 50.512-22.617 50.512-50.512zM31.701 79.319c1.5.017 2.712-.453 2.712-4.642V52.932c0-4.119-1.014-4.616-2.48-4.616-1.852 0-2.907 1.433-2.907 4.848v22.571c-.002 2.244 1.43 3.569 2.675 3.584zm65.256-35.148a6.041 6.041 0 0 0-5.233 3.154c-1.145-2.531-3.046-3.154-5.238-3.154-1.811 0-3.473.738-4.683 2.401 0 0-.076-1.337-.753-1.835-.474-.343-.704-.335-1.399-.335h-3.183v39.276h5.756V53.515c0-3.997 1.102-4.894 2.875-4.894 1.316 0 2.526.596 2.526 3.372v31.684h5.651V53.515c0-3.997 1.098-4.894 2.875-4.894 1.308 0 2.523.596 2.523 3.372v31.684h5.656V53.623c-.004-6.046-2.271-9.452-7.373-9.452" /><path
   id="I"
   d="M63.175 34.078h8.133v49.598h-5.782V39.391c0-.343-.378-.573-.738-.573h-1.613v-4.74zM60.17 51.885v31.792h-3.122c-.378 0-.884.034-1.496-.712-.369-.444-.566-1.316-.566-1.316-1.303 1.593-2.607 2.145-4.383 2.145-4.541 0-6.096-2.631-6.096-7.944v-7.156c0-6.575 4.491-8.795 10.24-10.947v-5.509c0-2.765-.934-3.691-2.291-3.691-1.639 0-2.703.532-2.703 3.34v2.802c0 1.11-.424 1.692-2.291 1.668h-2.727v-3.889c0-5.313 2.555-8.296 7.609-8.296 5.346-.001 7.826 2.46 7.826 7.713zm-5.421 10.287c-3.252 1.587-4.814 2.686-4.814 7.06v5.555c0 2.674.215 4.634 2.18 4.634 1.709 0 2.636-1.047 2.636-5.741V62.172h-.002zm71.863 1.134c0 17.472-7.089 33.309-18.545 44.764s-27.28 18.545-44.755 18.536c-17.481.009-33.314-7.081-44.767-18.536S0 80.778 0 63.306c0-17.481 7.089-33.305 18.545-44.761S45.833.002 63.312.002c17.476 0 33.3 7.089 44.755 18.545s18.545 27.28 18.545 44.759zm-12.787.009c0-27.905-22.617-50.525-50.513-50.525-27.905 0-50.525 22.621-50.525 50.525a50.326 50.326 0 0 0 10.462 30.779V44.403h2.657c.784 0 1.596-.041 2.137.994a4.83 4.83 0 0 1 .39 1.047c1.311-2.154 3.302-2.288 5.087-2.288 4.61 0 6.599 3.209 6.599 9.238V75.5c0 4.985-2.421 8.413-6.599 8.413-1.529 0-3.063-.209-4.496-1.962v18.452a50.284 50.284 0 0 0 34.289 13.424c27.895.001 50.512-22.617 50.512-50.512zM31.701 79.319c1.5.017 2.712-.453 2.712-4.642V52.932c0-4.119-1.014-4.616-2.48-4.616-1.852 0-2.907 1.433-2.907 4.848v22.571c-.002 2.244 1.43 3.569 2.675 3.584zm65.256-35.148a6.041 6.041 0 0 0-5.233 3.154c-1.145-2.531-3.046-3.154-5.238-3.154-1.811 0-3.473.738-4.683 2.401 0 0-.076-1.337-.753-1.835-.474-.343-.704-.335-1.399-.335h-3.183v39.276h5.756V53.515c0-3.997 1.102-4.894 2.875-4.894 1.316 0 2.526.596 2.526 3.372v31.684h5.651V53.515c0-3.997 1.098-4.894 2.875-4.894 1.308 0 2.523.596 2.523 3.372v31.684h5.656V53.623c-.004-6.046-2.271-9.452-7.373-9.452" /><path
   id="K"
   d="M63.175 34.078h8.133v49.598h-5.782V39.391c0-.343-.378-.573-.738-.573h-1.613v-4.74zM60.17 51.885v31.792h-3.122c-.378 0-.884.034-1.496-.712-.369-.444-.566-1.316-.566-1.316-1.303 1.593-2.607 2.145-4.383 2.145-4.541 0-6.096-2.631-6.096-7.944v-7.156c0-6.575 4.491-8.795 10.24-10.947v-5.509c0-2.765-.934-3.691-2.291-3.691-1.639 0-2.703.532-2.703 3.34v2.802c0 1.11-.424 1.692-2.291 1.668h-2.727v-3.889c0-5.313 2.555-8.296 7.609-8.296 5.346-.001 7.826 2.46 7.826 7.713zm-5.421 10.287c-3.252 1.587-4.814 2.686-4.814 7.06v5.555c0 2.674.215 4.634 2.18 4.634 1.709 0 2.636-1.047 2.636-5.741V62.172h-.002zm71.863 1.134c0 17.472-7.089 33.309-18.545 44.764s-27.28 18.545-44.755 18.536c-17.481.009-33.314-7.081-44.767-18.536S0 80.778 0 63.306c0-17.481 7.089-33.305 18.545-44.761S45.833.002 63.312.002c17.476 0 33.3 7.089 44.755 18.545s18.545 27.28 18.545 44.759zm-12.787.009c0-27.905-22.617-50.525-50.513-50.525-27.905 0-50.525 22.621-50.525 50.525a50.326 50.326 0 0 0 10.462 30.779V44.403h2.657c.784 0 1.596-.041 2.137.994a4.83 4.83 0 0 1 .39 1.047c1.311-2.154 3.302-2.288 5.087-2.288 4.61 0 6.599 3.209 6.599 9.238V75.5c0 4.985-2.421 8.413-6.599 8.413-1.529 0-3.063-.209-4.496-1.962v18.452a50.284 50.284 0 0 0 34.289 13.424c27.895.001 50.512-22.617 50.512-50.512zM31.701 79.319c1.5.017 2.712-.453 2.712-4.642V52.932c0-4.119-1.014-4.616-2.48-4.616-1.852 0-2.907 1.433-2.907 4.848v22.571c-.002 2.244 1.43 3.569 2.675 3.584zm65.256-35.148a6.041 6.041 0 0 0-5.233 3.154c-1.145-2.531-3.046-3.154-5.238-3.154-1.811 0-3.473.738-4.683 2.401 0 0-.076-1.337-.753-1.835-.474-.343-.704-.335-1.399-.335h-3.183v39.276h5.756V53.515c0-3.997 1.102-4.894 2.875-4.894 1.316 0 2.526.596 2.526 3.372v31.684h5.651V53.515c0-3.997 1.098-4.894 2.875-4.894 1.308 0 2.523.596 2.523 3.372v31.684h5.656V53.623c-.004-6.046-2.271-9.452-7.373-9.452" /><path
   id="M"
   d="M63.175 34.078h8.133v49.598h-5.782V39.391c0-.343-.378-.573-.738-.573h-1.613v-4.74zM60.17 51.885v31.792h-3.122c-.378 0-.884.034-1.496-.712-.369-.444-.566-1.316-.566-1.316-1.303 1.593-2.607 2.145-4.383 2.145-4.541 0-6.096-2.631-6.096-7.944v-7.156c0-6.575 4.491-8.795 10.24-10.947v-5.509c0-2.765-.934-3.691-2.291-3.691-1.639 0-2.703.532-2.703 3.34v2.802c0 1.11-.424 1.692-2.291 1.668h-2.727v-3.889c0-5.313 2.555-8.296 7.609-8.296 5.346-.001 7.826 2.46 7.826 7.713zm-5.421 10.287c-3.252 1.587-4.814 2.686-4.814 7.06v5.555c0 2.674.215 4.634 2.18 4.634 1.709 0 2.636-1.047 2.636-5.741V62.172h-.002zm71.863 1.134c0 17.472-7.089 33.309-18.545 44.764s-27.28 18.545-44.755 18.536c-17.481.009-33.314-7.081-44.767-18.536S0 80.778 0 63.306c0-17.481 7.089-33.305 18.545-44.761S45.833.002 63.312.002c17.476 0 33.3 7.089 44.755 18.545s18.545 27.28 18.545 44.759zm-12.787.009c0-27.905-22.617-50.525-50.513-50.525-27.905 0-50.525 22.621-50.525 50.525a50.326 50.326 0 0 0 10.462 30.779V44.403h2.657c.784 0 1.596-.041 2.137.994a4.83 4.83 0 0 1 .39 1.047c1.311-2.154 3.302-2.288 5.087-2.288 4.61 0 6.599 3.209 6.599 9.238V75.5c0 4.985-2.421 8.413-6.599 8.413-1.529 0-3.063-.209-4.496-1.962v18.452a50.284 50.284 0 0 0 34.289 13.424c27.895.001 50.512-22.617 50.512-50.512zM31.701 79.319c1.5.017 2.712-.453 2.712-4.642V52.932c0-4.119-1.014-4.616-2.48-4.616-1.852 0-2.907 1.433-2.907 4.848v22.571c-.002 2.244 1.43 3.569 2.675 3.584zm65.256-35.148a6.041 6.041 0 0 0-5.233 3.154c-1.145-2.531-3.046-3.154-5.238-3.154-1.811 0-3.473.738-4.683 2.401 0 0-.076-1.337-.753-1.835-.474-.343-.704-.335-1.399-.335h-3.183v39.276h5.756V53.515c0-3.997 1.102-4.894 2.875-4.894 1.316 0 2.526.596 2.526 3.372v31.684h5.651V53.515c0-3.997 1.098-4.894 2.875-4.894 1.308 0 2.523.596 2.523 3.372v31.684h5.656V53.623c-.004-6.046-2.271-9.452-7.373-9.452" /><path
   id="O"
   d="M63.175 34.078h8.133v49.598h-5.782V39.391c0-.343-.378-.573-.738-.573h-1.613v-4.74zM60.17 51.885v31.792h-3.122c-.378 0-.884.034-1.496-.712-.369-.444-.566-1.316-.566-1.316-1.303 1.593-2.607 2.145-4.383 2.145-4.541 0-6.096-2.631-6.096-7.944v-7.156c0-6.575 4.491-8.795 10.24-10.947v-5.509c0-2.765-.934-3.691-2.291-3.691-1.639 0-2.703.532-2.703 3.34v2.802c0 1.11-.424 1.692-2.291 1.668h-2.727v-3.889c0-5.313 2.555-8.296 7.609-8.296 5.346-.001 7.826 2.46 7.826 7.713zm-5.421 10.287c-3.252 1.587-4.814 2.686-4.814 7.06v5.555c0 2.674.215 4.634 2.18 4.634 1.709 0 2.636-1.047 2.636-5.741V62.172h-.002zm71.863 1.134c0 17.472-7.089 33.309-18.545 44.764s-27.28 18.545-44.755 18.536c-17.481.009-33.314-7.081-44.767-18.536S0 80.778 0 63.306c0-17.481 7.089-33.305 18.545-44.761S45.833.002 63.312.002c17.476 0 33.3 7.089 44.755 18.545s18.545 27.28 18.545 44.759zm-12.787.009c0-27.905-22.617-50.525-50.513-50.525-27.905 0-50.525 22.621-50.525 50.525a50.326 50.326 0 0 0 10.462 30.779V44.403h2.657c.784 0 1.596-.041 2.137.994a4.83 4.83 0 0 1 .39 1.047c1.311-2.154 3.302-2.288 5.087-2.288 4.61 0 6.599 3.209 6.599 9.238V75.5c0 4.985-2.421 8.413-6.599 8.413-1.529 0-3.063-.209-4.496-1.962v18.452a50.284 50.284 0 0 0 34.289 13.424c27.895.001 50.512-22.617 50.512-50.512zM31.701 79.319c1.5.017 2.712-.453 2.712-4.642V52.932c0-4.119-1.014-4.616-2.48-4.616-1.852 0-2.907 1.433-2.907 4.848v22.571c-.002 2.244 1.43 3.569 2.675 3.584zm65.256-35.148a6.041 6.041 0 0 0-5.233 3.154c-1.145-2.531-3.046-3.154-5.238-3.154-1.811 0-3.473.738-4.683 2.401 0 0-.076-1.337-.753-1.835-.474-.343-.704-.335-1.399-.335h-3.183v39.276h5.756V53.515c0-3.997 1.102-4.894 2.875-4.894 1.316 0 2.526.596 2.526 3.372v31.684h5.651V53.515c0-3.997 1.098-4.894 2.875-4.894 1.308 0 2.523.596 2.523 3.372v31.684h5.656V53.623c-.004-6.046-2.271-9.452-7.373-9.452" /><path
   id="Q"
   d="M63.175 34.078h8.133v49.598h-5.782V39.391c0-.343-.378-.573-.738-.573h-1.613v-4.74zM60.17 51.885v31.792h-3.122c-.378 0-.884.034-1.496-.712-.369-.444-.566-1.316-.566-1.316-1.303 1.593-2.607 2.145-4.383 2.145-4.541 0-6.096-2.631-6.096-7.944v-7.156c0-6.575 4.491-8.795 10.24-10.947v-5.509c0-2.765-.934-3.691-2.291-3.691-1.639 0-2.703.532-2.703 3.34v2.802c0 1.11-.424 1.692-2.291 1.668h-2.727v-3.889c0-5.313 2.555-8.296 7.609-8.296 5.346-.001 7.826 2.46 7.826 7.713zm-5.421 10.287c-3.252 1.587-4.814 2.686-4.814 7.06v5.555c0 2.674.215 4.634 2.18 4.634 1.709 0 2.636-1.047 2.636-5.741V62.172h-.002zm71.863 1.134c0 17.472-7.089 33.309-18.545 44.764s-27.28 18.545-44.755 18.536c-17.481.009-33.314-7.081-44.767-18.536S0 80.778 0 63.306c0-17.481 7.089-33.305 18.545-44.761S45.833.002 63.312.002c17.476 0 33.3 7.089 44.755 18.545s18.545 27.28 18.545 44.759zm-12.787.009c0-27.905-22.617-50.525-50.513-50.525-27.905 0-50.525 22.621-50.525 50.525a50.326 50.326 0 0 0 10.462 30.779V44.403h2.657c.784 0 1.596-.041 2.137.994a4.83 4.83 0 0 1 .39 1.047c1.311-2.154 3.302-2.288 5.087-2.288 4.61 0 6.599 3.209 6.599 9.238V75.5c0 4.985-2.421 8.413-6.599 8.413-1.529 0-3.063-.209-4.496-1.962v18.452a50.284 50.284 0 0 0 34.289 13.424c27.895.001 50.512-22.617 50.512-50.512zM31.701 79.319c1.5.017 2.712-.453 2.712-4.642V52.932c0-4.119-1.014-4.616-2.48-4.616-1.852 0-2.907 1.433-2.907 4.848v22.571c-.002 2.244 1.43 3.569 2.675 3.584zm65.256-35.148a6.041 6.041 0 0 0-5.233 3.154c-1.145-2.531-3.046-3.154-5.238-3.154-1.811 0-3.473.738-4.683 2.401 0 0-.076-1.337-.753-1.835-.474-.343-.704-.335-1.399-.335h-3.183v39.276h5.756V53.515c0-3.997 1.102-4.894 2.875-4.894 1.316 0 2.526.596 2.526 3.372v31.684h5.651V53.515c0-3.997 1.098-4.894 2.875-4.894 1.308 0 2.523.596 2.523 3.372v31.684h5.656V53.623c-.004-6.046-2.271-9.452-7.373-9.452" /><path
   id="S"
   d="M63.175 34.078h8.133v49.598h-5.782V39.391c0-.343-.378-.573-.738-.573h-1.613v-4.74zM60.17 51.885v31.792h-3.122c-.378 0-.884.034-1.496-.712-.369-.444-.566-1.316-.566-1.316-1.303 1.593-2.607 2.145-4.383 2.145-4.541 0-6.096-2.631-6.096-7.944v-7.156c0-6.575 4.491-8.795 10.24-10.947v-5.509c0-2.765-.934-3.691-2.291-3.691-1.639 0-2.703.532-2.703 3.34v2.802c0 1.11-.424 1.692-2.291 1.668h-2.727v-3.889c0-5.313 2.555-8.296 7.609-8.296 5.346-.001 7.826 2.46 7.826 7.713zm-5.421 10.287c-3.252 1.587-4.814 2.686-4.814 7.06v5.555c0 2.674.215 4.634 2.18 4.634 1.709 0 2.636-1.047 2.636-5.741V62.172h-.002zm71.863 1.134c0 17.472-7.089 33.309-18.545 44.764s-27.28 18.545-44.755 18.536c-17.481.009-33.314-7.081-44.767-18.536S0 80.778 0 63.306c0-17.481 7.089-33.305 18.545-44.761S45.833.002 63.312.002c17.476 0 33.3 7.089 44.755 18.545s18.545 27.28 18.545 44.759zm-12.787.009c0-27.905-22.617-50.525-50.513-50.525-27.905 0-50.525 22.621-50.525 50.525a50.326 50.326 0 0 0 10.462 30.779V44.403h2.657c.784 0 1.596-.041 2.137.994a4.83 4.83 0 0 1 .39 1.047c1.311-2.154 3.302-2.288 5.087-2.288 4.61 0 6.599 3.209 6.599 9.238V75.5c0 4.985-2.421 8.413-6.599 8.413-1.529 0-3.063-.209-4.496-1.962v18.452a50.284 50.284 0 0 0 34.289 13.424c27.895.001 50.512-22.617 50.512-50.512zM31.701 79.319c1.5.017 2.712-.453 2.712-4.642V52.932c0-4.119-1.014-4.616-2.48-4.616-1.852 0-2.907 1.433-2.907 4.848v22.571c-.002 2.244 1.43 3.569 2.675 3.584zm65.256-35.148a6.041 6.041 0 0 0-5.233 3.154c-1.145-2.531-3.046-3.154-5.238-3.154-1.811 0-3.473.738-4.683 2.401 0 0-.076-1.337-.753-1.835-.474-.343-.704-.335-1.399-.335h-3.183v39.276h5.756V53.515c0-3.997 1.102-4.894 2.875-4.894 1.316 0 2.526.596 2.526 3.372v31.684h5.651V53.515c0-3.997 1.098-4.894 2.875-4.894 1.308 0 2.523.596 2.523 3.372v31.684h5.656V53.623c-.004-6.046-2.271-9.452-7.373-9.452" /><path
   id="U"
   d="M63.175 34.078h8.133v49.598h-5.782V39.391c0-.343-.378-.573-.738-.573h-1.613v-4.74zM60.17 51.885v31.792h-3.122c-.378 0-.884.034-1.496-.712-.369-.444-.566-1.316-.566-1.316-1.303 1.593-2.607 2.145-4.383 2.145-4.541 0-6.096-2.631-6.096-7.944v-7.156c0-6.575 4.491-8.795 10.24-10.947v-5.509c0-2.765-.934-3.691-2.291-3.691-1.639 0-2.703.532-2.703 3.34v2.802c0 1.11-.424 1.692-2.291 1.668h-2.727v-3.889c0-5.313 2.555-8.296 7.609-8.296 5.346-.001 7.826 2.46 7.826 7.713zm-5.421 10.287c-3.252 1.587-4.814 2.686-4.814 7.06v5.555c0 2.674.215 4.634 2.18 4.634 1.709 0 2.636-1.047 2.636-5.741V62.172h-.002zm71.863 1.134c0 17.472-7.089 33.309-18.545 44.764s-27.28 18.545-44.755 18.536c-17.481.009-33.314-7.081-44.767-18.536S0 80.778 0 63.306c0-17.481 7.089-33.305 18.545-44.761S45.833.002 63.312.002c17.476 0 33.3 7.089 44.755 18.545s18.545 27.28 18.545 44.759zm-12.787.009c0-27.905-22.617-50.525-50.513-50.525-27.905 0-50.525 22.621-50.525 50.525a50.326 50.326 0 0 0 10.462 30.779V44.403h2.657c.784 0 1.596-.041 2.137.994a4.83 4.83 0 0 1 .39 1.047c1.311-2.154 3.302-2.288 5.087-2.288 4.61 0 6.599 3.209 6.599 9.238V75.5c0 4.985-2.421 8.413-6.599 8.413-1.529 0-3.063-.209-4.496-1.962v18.452a50.284 50.284 0 0 0 34.289 13.424c27.895.001 50.512-22.617 50.512-50.512zM31.701 79.319c1.5.017 2.712-.453 2.712-4.642V52.932c0-4.119-1.014-4.616-2.48-4.616-1.852 0-2.907 1.433-2.907 4.848v22.571c-.002 2.244 1.43 3.569 2.675 3.584zm65.256-35.148a6.041 6.041 0 0 0-5.233 3.154c-1.145-2.531-3.046-3.154-5.238-3.154-1.811 0-3.473.738-4.683 2.401 0 0-.076-1.337-.753-1.835-.474-.343-.704-.335-1.399-.335h-3.183v39.276h5.756V53.515c0-3.997 1.102-4.894 2.875-4.894 1.316 0 2.526.596 2.526 3.372v31.684h5.651V53.515c0-3.997 1.098-4.894 2.875-4.894 1.308 0 2.523.596 2.523 3.372v31.684h5.656V53.623c-.004-6.046-2.271-9.452-7.373-9.452" /><path
   id="W"
   d="M63.175 34.078h8.133v49.598h-5.782V39.391c0-.343-.378-.573-.738-.573h-1.613v-4.74zM60.17 51.885v31.792h-3.122c-.378 0-.884.034-1.496-.712-.369-.444-.566-1.316-.566-1.316-1.303 1.593-2.607 2.145-4.383 2.145-4.541 0-6.096-2.631-6.096-7.944v-7.156c0-6.575 4.491-8.795 10.24-10.947v-5.509c0-2.765-.934-3.691-2.291-3.691-1.639 0-2.703.532-2.703 3.34v2.802c0 1.11-.424 1.692-2.291 1.668h-2.727v-3.889c0-5.313 2.555-8.296 7.609-8.296 5.346-.001 7.826 2.46 7.826 7.713zm-5.421 10.287c-3.252 1.587-4.814 2.686-4.814 7.06v5.555c0 2.674.215 4.634 2.18 4.634 1.709 0 2.636-1.047 2.636-5.741V62.172h-.002zm71.863 1.134c0 17.472-7.089 33.309-18.545 44.764s-27.28 18.545-44.755 18.536c-17.481.009-33.314-7.081-44.767-18.536S0 80.778 0 63.306c0-17.481 7.089-33.305 18.545-44.761S45.833.002 63.312.002c17.476 0 33.3 7.089 44.755 18.545s18.545 27.28 18.545 44.759zm-12.787.009c0-27.905-22.617-50.525-50.513-50.525-27.905 0-50.525 22.621-50.525 50.525a50.326 50.326 0 0 0 10.462 30.779V44.403h2.657c.784 0 1.596-.041 2.137.994a4.83 4.83 0 0 1 .39 1.047c1.311-2.154 3.302-2.288 5.087-2.288 4.61 0 6.599 3.209 6.599 9.238V75.5c0 4.985-2.421 8.413-6.599 8.413-1.529 0-3.063-.209-4.496-1.962v18.452a50.284 50.284 0 0 0 34.289 13.424c27.895.001 50.512-22.617 50.512-50.512zM31.701 79.319c1.5.017 2.712-.453 2.712-4.642V52.932c0-4.119-1.014-4.616-2.48-4.616-1.852 0-2.907 1.433-2.907 4.848v22.571c-.002 2.244 1.43 3.569 2.675 3.584zm65.256-35.148a6.041 6.041 0 0 0-5.233 3.154c-1.145-2.531-3.046-3.154-5.238-3.154-1.811 0-3.473.738-4.683 2.401 0 0-.076-1.337-.753-1.835-.474-.343-.704-.335-1.399-.335h-3.183v39.276h5.756V53.515c0-3.997 1.102-4.894 2.875-4.894 1.316 0 2.526.596 2.526 3.372v31.684h5.651V53.515c0-3.997 1.098-4.894 2.875-4.894 1.308 0 2.523.596 2.523 3.372v31.684h5.656V53.623c-.004-6.046-2.271-9.452-7.373-9.452" /><path
   id="Y"
   d="M63.175 34.078h8.133v49.598h-5.782V39.391c0-.343-.378-.573-.738-.573h-1.613v-4.74zM60.17 51.885v31.792h-3.122c-.378 0-.884.034-1.496-.712-.369-.444-.566-1.316-.566-1.316-1.303 1.593-2.607 2.145-4.383 2.145-4.541 0-6.096-2.631-6.096-7.944v-7.156c0-6.575 4.491-8.795 10.24-10.947v-5.509c0-2.765-.934-3.691-2.291-3.691-1.639 0-2.703.532-2.703 3.34v2.802c0 1.11-.424 1.692-2.291 1.668h-2.727v-3.889c0-5.313 2.555-8.296 7.609-8.296 5.346-.001 7.826 2.46 7.826 7.713zm-5.421 10.287c-3.252 1.587-4.814 2.686-4.814 7.06v5.555c0 2.674.215 4.634 2.18 4.634 1.709 0 2.636-1.047 2.636-5.741V62.172h-.002zm71.863 1.134c0 17.472-7.089 33.309-18.545 44.764s-27.28 18.545-44.755 18.536c-17.481.009-33.314-7.081-44.767-18.536S0 80.778 0 63.306c0-17.481 7.089-33.305 18.545-44.761S45.833.002 63.312.002c17.476 0 33.3 7.089 44.755 18.545s18.545 27.28 18.545 44.759zm-12.787.009c0-27.905-22.617-50.525-50.513-50.525-27.905 0-50.525 22.621-50.525 50.525a50.326 50.326 0 0 0 10.462 30.779V44.403h2.657c.784 0 1.596-.041 2.137.994a4.83 4.83 0 0 1 .39 1.047c1.311-2.154 3.302-2.288 5.087-2.288 4.61 0 6.599 3.209 6.599 9.238V75.5c0 4.985-2.421 8.413-6.599 8.413-1.529 0-3.063-.209-4.496-1.962v18.452a50.284 50.284 0 0 0 34.289 13.424c27.895.001 50.512-22.617 50.512-50.512zM31.701 79.319c1.5.017 2.712-.453 2.712-4.642V52.932c0-4.119-1.014-4.616-2.48-4.616-1.852 0-2.907 1.433-2.907 4.848v22.571c-.002 2.244 1.43 3.569 2.675 3.584zm65.256-35.148a6.041 6.041 0 0 0-5.233 3.154c-1.145-2.531-3.046-3.154-5.238-3.154-1.811 0-3.473.738-4.683 2.401 0 0-.076-1.337-.753-1.835-.474-.343-.704-.335-1.399-.335h-3.183v39.276h5.756V53.515c0-3.997 1.102-4.894 2.875-4.894 1.316 0 2.526.596 2.526 3.372v31.684h5.651V53.515c0-3.997 1.098-4.894 2.875-4.894 1.308 0 2.523.596 2.523 3.372v31.684h5.656V53.623c-.004-6.046-2.271-9.452-7.373-9.452" /><path
   id="aa"
   d="M63.175 34.078h8.133v49.598h-5.782V39.391c0-.343-.378-.573-.738-.573h-1.613v-4.74zM60.17 51.885v31.792h-3.122c-.378 0-.884.034-1.496-.712-.369-.444-.566-1.316-.566-1.316-1.303 1.593-2.607 2.145-4.383 2.145-4.541 0-6.096-2.631-6.096-7.944v-7.156c0-6.575 4.491-8.795 10.24-10.947v-5.509c0-2.765-.934-3.691-2.291-3.691-1.639 0-2.703.532-2.703 3.34v2.802c0 1.11-.424 1.692-2.291 1.668h-2.727v-3.889c0-5.313 2.555-8.296 7.609-8.296 5.346-.001 7.826 2.46 7.826 7.713zm-5.421 10.287c-3.252 1.587-4.814 2.686-4.814 7.06v5.555c0 2.674.215 4.634 2.18 4.634 1.709 0 2.636-1.047 2.636-5.741V62.172h-.002zm71.863 1.134c0 17.472-7.089 33.309-18.545 44.764s-27.28 18.545-44.755 18.536c-17.481.009-33.314-7.081-44.767-18.536S0 80.778 0 63.306c0-17.481 7.089-33.305 18.545-44.761S45.833.002 63.312.002c17.476 0 33.3 7.089 44.755 18.545s18.545 27.28 18.545 44.759zm-12.787.009c0-27.905-22.617-50.525-50.513-50.525-27.905 0-50.525 22.621-50.525 50.525a50.326 50.326 0 0 0 10.462 30.779V44.403h2.657c.784 0 1.596-.041 2.137.994a4.83 4.83 0 0 1 .39 1.047c1.311-2.154 3.302-2.288 5.087-2.288 4.61 0 6.599 3.209 6.599 9.238V75.5c0 4.985-2.421 8.413-6.599 8.413-1.529 0-3.063-.209-4.496-1.962v18.452a50.284 50.284 0 0 0 34.289 13.424c27.895.001 50.512-22.617 50.512-50.512zM31.701 79.319c1.5.017 2.712-.453 2.712-4.642V52.932c0-4.119-1.014-4.616-2.48-4.616-1.852 0-2.907 1.433-2.907 4.848v22.571c-.002 2.244 1.43 3.569 2.675 3.584zm65.256-35.148a6.041 6.041 0 0 0-5.233 3.154c-1.145-2.531-3.046-3.154-5.238-3.154-1.811 0-3.473.738-4.683 2.401 0 0-.076-1.337-.753-1.835-.474-.343-.704-.335-1.399-.335h-3.183v39.276h5.756V53.515c0-3.997 1.102-4.894 2.875-4.894 1.316 0 2.526.596 2.526 3.372v31.684h5.651V53.515c0-3.997 1.098-4.894 2.875-4.894 1.308 0 2.523.596 2.523 3.372v31.684h5.656V53.623c-.004-6.046-2.271-9.452-7.373-9.452" /><path
   id="ac"
   d="M63.175 34.078h8.133v49.598h-5.782V39.391c0-.343-.378-.573-.738-.573h-1.613v-4.74zM60.17 51.885v31.792h-3.122c-.378 0-.884.034-1.496-.712-.369-.444-.566-1.316-.566-1.316-1.303 1.593-2.607 2.145-4.383 2.145-4.541 0-6.096-2.631-6.096-7.944v-7.156c0-6.575 4.491-8.795 10.24-10.947v-5.509c0-2.765-.934-3.691-2.291-3.691-1.639 0-2.703.532-2.703 3.34v2.802c0 1.11-.424 1.692-2.291 1.668h-2.727v-3.889c0-5.313 2.555-8.296 7.609-8.296 5.346-.001 7.826 2.46 7.826 7.713zm-5.421 10.287c-3.252 1.587-4.814 2.686-4.814 7.06v5.555c0 2.674.215 4.634 2.18 4.634 1.709 0 2.636-1.047 2.636-5.741V62.172h-.002zm71.863 1.134c0 17.472-7.089 33.309-18.545 44.764s-27.28 18.545-44.755 18.536c-17.481.009-33.314-7.081-44.767-18.536S0 80.778 0 63.306c0-17.481 7.089-33.305 18.545-44.761S45.833.002 63.312.002c17.476 0 33.3 7.089 44.755 18.545s18.545 27.28 18.545 44.759zm-12.787.009c0-27.905-22.617-50.525-50.513-50.525-27.905 0-50.525 22.621-50.525 50.525a50.326 50.326 0 0 0 10.462 30.779V44.403h2.657c.784 0 1.596-.041 2.137.994a4.83 4.83 0 0 1 .39 1.047c1.311-2.154 3.302-2.288 5.087-2.288 4.61 0 6.599 3.209 6.599 9.238V75.5c0 4.985-2.421 8.413-6.599 8.413-1.529 0-3.063-.209-4.496-1.962v18.452a50.284 50.284 0 0 0 34.289 13.424c27.895.001 50.512-22.617 50.512-50.512zM31.701 79.319c1.5.017 2.712-.453 2.712-4.642V52.932c0-4.119-1.014-4.616-2.48-4.616-1.852 0-2.907 1.433-2.907 4.848v22.571c-.002 2.244 1.43 3.569 2.675 3.584zm65.256-35.148a6.041 6.041 0 0 0-5.233 3.154c-1.145-2.531-3.046-3.154-5.238-3.154-1.811 0-3.473.738-4.683 2.401 0 0-.076-1.337-.753-1.835-.474-.343-.704-.335-1.399-.335h-3.183v39.276h5.756V53.515c0-3.997 1.102-4.894 2.875-4.894 1.316 0 2.526.596 2.526 3.372v31.684h5.651V53.515c0-3.997 1.098-4.894 2.875-4.894 1.308 0 2.523.596 2.523 3.372v31.684h5.656V53.623c-.004-6.046-2.271-9.452-7.373-9.452" /><path
   id="ae"
   d="M63.175 34.078h8.133v49.598h-5.782V39.391c0-.343-.378-.573-.738-.573h-1.613v-4.74zM60.17 51.885v31.792h-3.122c-.378 0-.884.034-1.496-.712-.369-.444-.566-1.316-.566-1.316-1.303 1.593-2.607 2.145-4.383 2.145-4.541 0-6.096-2.631-6.096-7.944v-7.156c0-6.575 4.491-8.795 10.24-10.947v-5.509c0-2.765-.934-3.691-2.291-3.691-1.639 0-2.703.532-2.703 3.34v2.802c0 1.11-.424 1.692-2.291 1.668h-2.727v-3.889c0-5.313 2.555-8.296 7.609-8.296 5.346-.001 7.826 2.46 7.826 7.713zm-5.421 10.287c-3.252 1.587-4.814 2.686-4.814 7.06v5.555c0 2.674.215 4.634 2.18 4.634 1.709 0 2.636-1.047 2.636-5.741V62.172h-.002zm71.863 1.134c0 17.472-7.089 33.309-18.545 44.764s-27.28 18.545-44.755 18.536c-17.481.009-33.314-7.081-44.767-18.536S0 80.778 0 63.306c0-17.481 7.089-33.305 18.545-44.761S45.833.002 63.312.002c17.476 0 33.3 7.089 44.755 18.545s18.545 27.28 18.545 44.759zm-12.787.009c0-27.905-22.617-50.525-50.513-50.525-27.905 0-50.525 22.621-50.525 50.525a50.326 50.326 0 0 0 10.462 30.779V44.403h2.657c.784 0 1.596-.041 2.137.994a4.83 4.83 0 0 1 .39 1.047c1.311-2.154 3.302-2.288 5.087-2.288 4.61 0 6.599 3.209 6.599 9.238V75.5c0 4.985-2.421 8.413-6.599 8.413-1.529 0-3.063-.209-4.496-1.962v18.452a50.284 50.284 0 0 0 34.289 13.424c27.895.001 50.512-22.617 50.512-50.512zM31.701 79.319c1.5.017 2.712-.453 2.712-4.642V52.932c0-4.119-1.014-4.616-2.48-4.616-1.852 0-2.907 1.433-2.907 4.848v22.571c-.002 2.244 1.43 3.569 2.675 3.584zm65.256-35.148a6.041 6.041 0 0 0-5.233 3.154c-1.145-2.531-3.046-3.154-5.238-3.154-1.811 0-3.473.738-4.683 2.401 0 0-.076-1.337-.753-1.835-.474-.343-.704-.335-1.399-.335h-3.183v39.276h5.756V53.515c0-3.997 1.102-4.894 2.875-4.894 1.316 0 2.526.596 2.526 3.372v31.684h5.651V53.515c0-3.997 1.098-4.894 2.875-4.894 1.308 0 2.523.596 2.523 3.372v31.684h5.656V53.623c-.004-6.046-2.271-9.452-7.373-9.452" /><path
   id="ag"
   d="M63.175 34.078h8.133v49.598h-5.782V39.391c0-.343-.378-.573-.738-.573h-1.613v-4.74zM60.17 51.885v31.792h-3.122c-.378 0-.884.034-1.496-.712-.369-.444-.566-1.316-.566-1.316-1.303 1.593-2.607 2.145-4.383 2.145-4.541 0-6.096-2.631-6.096-7.944v-7.156c0-6.575 4.491-8.795 10.24-10.947v-5.509c0-2.765-.934-3.691-2.291-3.691-1.639 0-2.703.532-2.703 3.34v2.802c0 1.11-.424 1.692-2.291 1.668h-2.727v-3.889c0-5.313 2.555-8.296 7.609-8.296 5.346-.001 7.826 2.46 7.826 7.713zm-5.421 10.287c-3.252 1.587-4.814 2.686-4.814 7.06v5.555c0 2.674.215 4.634 2.18 4.634 1.709 0 2.636-1.047 2.636-5.741V62.172h-.002zm71.863 1.134c0 17.472-7.089 33.309-18.545 44.764s-27.28 18.545-44.755 18.536c-17.481.009-33.314-7.081-44.767-18.536S0 80.778 0 63.306c0-17.481 7.089-33.305 18.545-44.761S45.833.002 63.312.002c17.476 0 33.3 7.089 44.755 18.545s18.545 27.28 18.545 44.759zm-12.787.009c0-27.905-22.617-50.525-50.513-50.525-27.905 0-50.525 22.621-50.525 50.525a50.326 50.326 0 0 0 10.462 30.779V44.403h2.657c.784 0 1.596-.041 2.137.994a4.83 4.83 0 0 1 .39 1.047c1.311-2.154 3.302-2.288 5.087-2.288 4.61 0 6.599 3.209 6.599 9.238V75.5c0 4.985-2.421 8.413-6.599 8.413-1.529 0-3.063-.209-4.496-1.962v18.452a50.284 50.284 0 0 0 34.289 13.424c27.895.001 50.512-22.617 50.512-50.512zM31.701 79.319c1.5.017 2.712-.453 2.712-4.642V52.932c0-4.119-1.014-4.616-2.48-4.616-1.852 0-2.907 1.433-2.907 4.848v22.571c-.002 2.244 1.43 3.569 2.675 3.584zm65.256-35.148a6.041 6.041 0 0 0-5.233 3.154c-1.145-2.531-3.046-3.154-5.238-3.154-1.811 0-3.473.738-4.683 2.401 0 0-.076-1.337-.753-1.835-.474-.343-.704-.335-1.399-.335h-3.183v39.276h5.756V53.515c0-3.997 1.102-4.894 2.875-4.894 1.316 0 2.526.596 2.526 3.372v31.684h5.651V53.515c0-3.997 1.098-4.894 2.875-4.894 1.308 0 2.523.596 2.523 3.372v31.684h5.656V53.623c-.004-6.046-2.271-9.452-7.373-9.452" /></defs><g
     inkscape:label="Layer 1"
     inkscape:groupmode="layer"
     id="layer1"><path
       id="rect231"
       style="fill:#ffffff;stroke-width:0.8001;stroke-linecap:square;paint-order:fill markers stroke"
       d="M 0 0 L 0 132.29167 L 396.875 132.29167 L 396.875 0 L 17.395837 0 C 29.639186 0.072546031 31.071488 4.9689009 31.071488 9.7911336 C 31.071488 16.633297 26.273914 19.513538 19.044832 19.513538 L 19.044832 13.250354 C 22.050549 13.250354 23.912236 12.170872 23.912236 10.008691 C 23.912236 8.2106669 23.625226 6.4083944 17.468701 6.4083944 L 17.468701 32.5453 L 10.88254 32.5453 L 11.0262 0 L 0 0 z M 46.615243 0.074930827 C 48.05888 0.087520657 49.605845 0.27060216 51.25682 0.64853923 L 51.25682 6.9845866 C 34.076018 2.3046016 34.219641 30.313299 51.043396 25.636161 L 51.043396 31.969108 C 26.613512 38.04624 24.960681 -0.11391662 46.615243 0.074930827 z M 81.098409 0.085782878 C 81.851485 0.12134797 82.621282 0.23427237 83.399561 0.43253174 C 87.837719 1.584746 90.415233 3.8163855 91.129321 8.6428833 C 91.489212 10.871922 91.345241 13.032801 89.843095 16.345772 L 82.039437 32.5453 L 74.66521 32.5453 L 80.608516 20.449915 C 78.959854 20.449915 74.524317 19.586253 72.875655 18.146696 C 70.800247 16.200732 69.082136 12.387196 70.227238 7.7783366 C 71.354915 3.3672041 75.826874 -0.16317279 81.098409 0.085782878 z M 151.3334 0.14521077 C 154.9138 -0.2146804 158.06277 1.0799041 159.85226 2.8096476 C 165.1496 7.8495211 166.00912 24.555117 159.6378 30.099972 C 157.06025 32.401558 151.62076 33.553919 147.46852 31.539677 C 143.53107 29.596558 141.16809 24.338646 140.81104 18.288806 C 140.16666 8.7851703 142.88809 1.0086591 151.3334 0.14521077 z M 104.18382 0.30644124 C 110.09475 0.85478096 114.61854 5.9580878 112.67684 12.386841 C 112.31838 13.536211 110.38551 15.984554 110.38551 15.984554 C 110.38551 15.984554 113.39396 18.721393 113.67988 20.522262 C 115.03978 28.011656 109.45632 32.330504 103.80193 32.5453 C 97.787658 32.690392 91.201834 28.657434 92.492029 20.953243 C 92.634279 19.9447 93.350931 18.93604 93.707975 18.288806 C 94.06502 17.641575 95.712504 15.984554 95.712504 15.984554 C 95.712504 15.984554 93.491917 12.45536 93.278544 10.946102 C 92.561609 5.5463399 95.783726 1.1534172 101.58036 0.35966797 C 102.46657 0.24266868 103.3394 0.228107 104.18382 0.30644124 z M 126.28015 0.35966797 C 129.8577 -0.00022056266 133.00706 1.2957821 134.79797 3.0241048 C 140.09532 8.0653991 140.95329 24.771383 134.58197 30.313395 C 132.00584 32.617824 126.56635 33.772644 122.41268 31.754134 C 118.47666 29.811018 116.1151 24.555168 115.75521 18.50533 C 115.11225 9.0002684 117.83199 1.2245424 126.28015 0.35966797 z M 277.32467 2.2319051 A 2.6486038 2.664161 0 0 1 279.97361 4.896342 A 2.6486038 2.664161 0 0 1 277.32467 7.560262 A 2.6486038 2.664161 0 0 1 274.67626 4.896342 A 2.6486038 2.664161 0 0 1 277.32467 2.2319051 z M 283.91135 2.2319051 A 2.6486038 2.664161 0 0 1 286.55977 4.896342 A 2.6486038 2.664161 0 0 1 283.91135 7.560262 A 2.6486038 2.664161 0 0 1 281.26242 4.896342 A 2.6486038 2.664161 0 0 1 283.91135 2.2319051 z M 167.94065 2.3755656 L 182.11602 2.3755656 L 182.11602 8.4981893 L 167.94065 8.4981893 L 167.94065 2.3755656 z M 198.29384 2.3755656 L 204.80714 2.3755656 L 204.80714 16.633093 L 198.29384 16.633093 L 198.29384 2.3755656 z M 214.54298 2.3755656 L 220.98548 2.3755656 L 220.98548 20.953243 C 220.98548 27.216453 216.33392 31.899345 210.53444 31.899345 L 198.36515 31.899345 L 198.36515 25.775688 L 209.67506 25.775688 C 212.82587 25.775688 214.54298 24.122368 214.54298 20.738269 L 214.54298 2.3755656 z M 247.47327 2.3755656 L 264.15235 2.3755656 C 272.24204 2.3755656 274.60328 11.089775 271.66869 14.259078 L 267.44362 18.648991 C 267.51617 18.648991 274.67558 29.020138 275.10517 32.260563 L 268.3769 32.260563 C 267.59026 29.020138 263.22166 23.257495 263.22166 23.257495 L 255.84898 30.889587 C 254.48766 32.260866 252.05514 32.260563 249.55014 32.260563 L 247.47327 32.260563 L 247.47327 26.498124 L 248.9047 26.498124 C 250.4097 26.498124 251.76827 26.355844 252.91479 25.20363 L 265.79825 11.522294 C 267.15957 10.15386 266.44379 8.2103516 264.08104 8.2103516 L 247.47327 8.281665 L 247.47327 2.3755656 z M 194.78604 4.0328288 L 194.78604 20.88348 C 194.78604 27.291785 188.98955 31.899345 183.76191 31.899345 L 167.94065 31.899345 L 167.94065 25.418604 L 183.68905 25.418604 C 186.33772 25.418604 188.41331 23.978676 188.41331 21.02559 L 188.41331 4.1051758 L 194.78604 4.0328288 z M 103.15649 6.3732544 C 101.6892 6.3371586 100.22179 7.3095746 100.22179 9.290389 C 100.22179 13.176625 106.0912 13.176415 106.0912 9.5063965 C 106.0912 7.4537478 104.62379 6.4093501 103.15649 6.3732544 z M 152.79791 6.6063151 C 152.40859 6.5535303 151.99233 6.580266 151.54941 6.6972656 C 146.53798 7.9220259 146.60904 26.283479 152.54934 26.212354 C 158.45578 26.07633 158.63765 7.3980872 152.79791 6.6063151 z M 80.571309 6.8135376 C 78.549244 6.7865104 76.527112 8.1008205 76.527112 10.729578 C 76.527112 15.984245 84.615507 16.132491 84.615507 10.946102 C 84.615507 8.2092361 82.593375 6.8405648 80.571309 6.8135376 z M 127.74207 6.8223226 C 127.35275 6.7696058 126.9365 6.7961847 126.49357 6.9132731 C 121.48215 8.1351891 121.55346 26.497933 127.49661 26.426811 C 133.40171 26.292119 133.58197 7.6130748 127.74207 6.8223226 z M 167.94065 11.808065 L 182.11602 11.808065 L 182.11602 17.857825 L 167.94065 17.857825 L 167.94065 11.808065 z M 51.471794 14.18363 L 67.220186 14.18363 L 67.220186 19.081523 L 51.471794 19.081523 L 51.471794 14.18363 z M 223.56413 14.401188 L 248.9047 14.401188 L 248.9047 20.306254 L 223.56413 20.306254 L 223.56413 14.401188 z M 103.15649 19.513538 C 98.432414 19.513538 98.574463 26.426811 103.22884 26.426811 C 107.81067 26.426811 107.81087 19.513538 103.15649 19.513538 z M 194.43413 39.560893 C 196.54479 39.662878 198.69838 39.981496 200.87301 40.539644 C 213.32688 43.708945 220.62824 50.045956 222.77762 63.797139 C 223.77763 70.135743 223.34829 76.253928 219.19747 85.613896 L 196.93527 131.55321 L 176.0306 131.55321 L 192.92414 97.27985 C 188.34373 97.27985 175.74309 94.833034 171.16268 90.658032 C 165.22237 85.255426 160.35153 74.312164 163.71714 61.277913 C 166.9757 48.74029 179.65951 38.846993 194.43413 39.560893 z M 10.88254 39.603267 L 28.922266 39.603267 C 63.569786 39.746939 67.651168 53.715963 67.651168 67.253776 C 67.578622 86.696332 54.120311 94.902734 33.720422 94.902734 L 33.790186 77.117257 C 42.382007 77.117257 47.5356 74.095896 47.5356 67.828418 C 47.5356 62.644873 46.676369 57.532406 29.27935 57.532406 L 29.351697 131.55321 L 10.669116 131.55321 L 10.88254 39.603267 z M 117.51376 39.775867 C 121.59852 39.812531 125.97632 40.332114 130.64732 41.403158 L 130.64732 59.260982 C 82.039511 46.084481 82.396407 125.14608 130.00137 112.04071 L 130.00137 129.89905 C 60.876486 147.24628 56.242388 39.225905 117.51376 39.775867 z M 259.08341 40.40942 C 277.56252 40.098874 292.61832 55.2952 286.84657 74.673478 C 285.91342 77.911059 280.40252 84.82428 280.40252 84.82428 C 280.40252 84.82428 288.77809 92.671088 289.70841 97.712382 C 293.57331 118.81071 277.75389 131.1946 261.64708 131.70101 C 244.60995 132.20314 225.92567 120.60878 229.5772 98.863216 C 230.07792 95.911557 232.0098 93.104657 233.01265 91.376335 C 234.0155 89.648012 238.66812 84.82428 238.66812 84.82428 C 238.66812 84.82428 232.43934 74.888458 231.8675 70.638066 C 229.79067 55.231105 238.88334 42.772813 255.3472 40.681755 C 256.60442 40.519858 257.85147 40.430123 259.08341 40.40942 z M 368.52428 40.466781 L 386.20588 40.466781 L 386.20588 131.55321 L 368.52428 131.55321 L 368.52428 40.466781 z M 328.88949 40.517424 C 337.46706 40.61307 344.812 43.95083 349.19574 48.17277 C 364.08491 62.501486 366.52 109.59443 348.62368 125.29158 C 341.24951 131.77243 325.93203 135.08238 314.26195 129.32131 C 303.09401 123.7793 296.50794 109.01798 295.36285 91.950977 C 293.64592 65.094417 301.30488 43.131278 325.14294 40.681755 C 326.41358 40.55622 327.66412 40.50376 328.88949 40.517424 z M 259.64307 57.605269 C 255.49083 57.514942 251.33866 60.304766 251.33866 65.957731 C 251.33866 77.046018 267.94747 76.90101 267.94747 66.533923 C 267.94747 60.666163 263.79531 57.695597 259.64307 57.605269 z M 327.53866 58.746285 C 326.95001 58.784629 326.34242 58.882517 325.71604 59.044458 C 311.54237 62.717318 311.7571 114.7053 328.57943 114.27571 C 345.91787 113.92569 345.78703 57.557626 327.53866 58.746285 z M 192.92517 58.884778 C 187.19895 58.794628 181.47264 62.502587 181.47264 69.99056 C 181.47264 84.895381 204.37771 85.328029 204.37771 70.568302 C 204.37771 62.8634 198.6514 58.974928 192.92517 58.884778 z M 133.07973 78.198328 L 154.62622 78.198328 L 154.62622 90.438924 L 133.07973 90.438924 L 133.07973 78.198328 z M 259.71386 94.68776 C 246.39796 94.76173 246.75803 114.27571 259.92884 114.27571 C 272.88627 114.27571 272.95722 94.68776 259.71386 94.68776 z " /><g
       id="g2161"
       transform="matrix(0.26458333,0,0,0.26458333,176.62938,159.09176)" /></g><style
     type="text/css"
     id="style2">
	.st0{fill:#F05100;}
	.st1{fill:#FFFFFF;}
	.st2{fill:#1281C4;}
	.st3{fill:#034693;}
	.st4{fill:#CF3312;}
</style></svg>
