<?xml version="1.0" encoding="UTF-8" standalone="no"?>
<!-- Created with Inkscape (http://www.inkscape.org/) -->

<svg
   width="1500"
   height="500"
   viewBox="0 0 396.87498 132.29167"
   version="1.1"
   id="svg5"
   inkscape:version="1.2.2 (732a01da63, 2022-12-09)"
   xml:space="preserve"
   sodipodi:docname="pcfx.svg"
   xmlns:inkscape="http://www.inkscape.org/namespaces/inkscape"
   xmlns:sodipodi="http://sodipodi.sourceforge.net/DTD/sodipodi-0.dtd"
   xmlns:xlink="http://www.w3.org/1999/xlink"
   xmlns="http://www.w3.org/2000/svg"
   xmlns:svg="http://www.w3.org/2000/svg"><sodipodi:namedview
     id="namedview7"
     pagecolor="#000000"
     bordercolor="#111111"
     borderopacity="1"
     inkscape:showpageshadow="0"
     inkscape:pageopacity="0"
     inkscape:pagecheckerboard="1"
     inkscape:deskcolor="#d1d1d1"
     inkscape:document-units="mm"
     showgrid="false"
     inkscape:zoom="0.73789144"
     inkscape:cx="383.52525"
     inkscape:cy="421.47121"
     inkscape:window-width="1920"
     inkscape:window-height="1009"
     inkscape:window-x="-8"
     inkscape:window-y="-8"
     inkscape:window-maximized="1"
     inkscape:current-layer="layer1" /><defs
     id="defs2">
		
		
	
			
				
			
		
			
			
			
			
			
				
			
			
			
			
			
		
		
		
		
	<path
   id="a"
   d="M63.175 34.078h8.133v49.598h-5.782V39.391c0-.343-.378-.573-.738-.573h-1.613v-4.74zM60.17 51.885v31.792h-3.122c-.378 0-.884.034-1.496-.712-.369-.444-.566-1.316-.566-1.316-1.303 1.593-2.607 2.145-4.383 2.145-4.541 0-6.096-2.631-6.096-7.944v-7.156c0-6.575 4.491-8.795 10.24-10.947v-5.509c0-2.765-.934-3.691-2.291-3.691-1.639 0-2.703.532-2.703 3.34v2.802c0 1.11-.424 1.692-2.291 1.668h-2.727v-3.889c0-5.313 2.555-8.296 7.609-8.296 5.346-.001 7.826 2.46 7.826 7.713zm-5.421 10.287c-3.252 1.587-4.814 2.686-4.814 7.06v5.555c0 2.674.215 4.634 2.18 4.634 1.709 0 2.636-1.047 2.636-5.741V62.172h-.002zm71.863 1.134c0 17.472-7.089 33.309-18.545 44.764s-27.28 18.545-44.755 18.536c-17.481.009-33.314-7.081-44.767-18.536S0 80.778 0 63.306c0-17.481 7.089-33.305 18.545-44.761S45.833.002 63.312.002c17.476 0 33.3 7.089 44.755 18.545s18.545 27.28 18.545 44.759zm-12.787.009c0-27.905-22.617-50.525-50.513-50.525-27.905 0-50.525 22.621-50.525 50.525a50.326 50.326 0 0 0 10.462 30.779V44.403h2.657c.784 0 1.596-.041 2.137.994a4.83 4.83 0 0 1 .39 1.047c1.311-2.154 3.302-2.288 5.087-2.288 4.61 0 6.599 3.209 6.599 9.238V75.5c0 4.985-2.421 8.413-6.599 8.413-1.529 0-3.063-.209-4.496-1.962v18.452a50.284 50.284 0 0 0 34.289 13.424c27.895.001 50.512-22.617 50.512-50.512zM31.701 79.319c1.5.017 2.712-.453 2.712-4.642V52.932c0-4.119-1.014-4.616-2.48-4.616-1.852 0-2.907 1.433-2.907 4.848v22.571c-.002 2.244 1.43 3.569 2.675 3.584zm65.256-35.148a6.041 6.041 0 0 0-5.233 3.154c-1.145-2.531-3.046-3.154-5.238-3.154-1.811 0-3.473.738-4.683 2.401 0 0-.076-1.337-.753-1.835-.474-.343-.704-.335-1.399-.335h-3.183v39.276h5.756V53.515c0-3.997 1.102-4.894 2.875-4.894 1.316 0 2.526.596 2.526 3.372v31.684h5.651V53.515c0-3.997 1.098-4.894 2.875-4.894 1.308 0 2.523.596 2.523 3.372v31.684h5.656V53.623c-.004-6.046-2.271-9.452-7.373-9.452" /><path
   id="c"
   d="M63.175 34.078h8.133v49.598h-5.782V39.391c0-.343-.378-.573-.738-.573h-1.613v-4.74zM60.17 51.885v31.792h-3.122c-.378 0-.884.034-1.496-.712-.369-.444-.566-1.316-.566-1.316-1.303 1.593-2.607 2.145-4.383 2.145-4.541 0-6.096-2.631-6.096-7.944v-7.156c0-6.575 4.491-8.795 10.24-10.947v-5.509c0-2.765-.934-3.691-2.291-3.691-1.639 0-2.703.532-2.703 3.34v2.802c0 1.11-.424 1.692-2.291 1.668h-2.727v-3.889c0-5.313 2.555-8.296 7.609-8.296 5.346-.001 7.826 2.46 7.826 7.713zm-5.421 10.287c-3.252 1.587-4.814 2.686-4.814 7.06v5.555c0 2.674.215 4.634 2.18 4.634 1.709 0 2.636-1.047 2.636-5.741V62.172h-.002zm71.863 1.134c0 17.472-7.089 33.309-18.545 44.764s-27.28 18.545-44.755 18.536c-17.481.009-33.314-7.081-44.767-18.536S0 80.778 0 63.306c0-17.481 7.089-33.305 18.545-44.761S45.833.002 63.312.002c17.476 0 33.3 7.089 44.755 18.545s18.545 27.28 18.545 44.759zm-12.787.009c0-27.905-22.617-50.525-50.513-50.525-27.905 0-50.525 22.621-50.525 50.525a50.326 50.326 0 0 0 10.462 30.779V44.403h2.657c.784 0 1.596-.041 2.137.994a4.83 4.83 0 0 1 .39 1.047c1.311-2.154 3.302-2.288 5.087-2.288 4.61 0 6.599 3.209 6.599 9.238V75.5c0 4.985-2.421 8.413-6.599 8.413-1.529 0-3.063-.209-4.496-1.962v18.452a50.284 50.284 0 0 0 34.289 13.424c27.895.001 50.512-22.617 50.512-50.512zM31.701 79.319c1.5.017 2.712-.453 2.712-4.642V52.932c0-4.119-1.014-4.616-2.48-4.616-1.852 0-2.907 1.433-2.907 4.848v22.571c-.002 2.244 1.43 3.569 2.675 3.584zm65.256-35.148a6.041 6.041 0 0 0-5.233 3.154c-1.145-2.531-3.046-3.154-5.238-3.154-1.811 0-3.473.738-4.683 2.401 0 0-.076-1.337-.753-1.835-.474-.343-.704-.335-1.399-.335h-3.183v39.276h5.756V53.515c0-3.997 1.102-4.894 2.875-4.894 1.316 0 2.526.596 2.526 3.372v31.684h5.651V53.515c0-3.997 1.098-4.894 2.875-4.894 1.308 0 2.523.596 2.523 3.372v31.684h5.656V53.623c-.004-6.046-2.271-9.452-7.373-9.452" /><path
   id="e"
   d="M63.175 34.078h8.133v49.598h-5.782V39.391c0-.343-.378-.573-.738-.573h-1.613v-4.74zM60.17 51.885v31.792h-3.122c-.378 0-.884.034-1.496-.712-.369-.444-.566-1.316-.566-1.316-1.303 1.593-2.607 2.145-4.383 2.145-4.541 0-6.096-2.631-6.096-7.944v-7.156c0-6.575 4.491-8.795 10.24-10.947v-5.509c0-2.765-.934-3.691-2.291-3.691-1.639 0-2.703.532-2.703 3.34v2.802c0 1.11-.424 1.692-2.291 1.668h-2.727v-3.889c0-5.313 2.555-8.296 7.609-8.296 5.346-.001 7.826 2.46 7.826 7.713zm-5.421 10.287c-3.252 1.587-4.814 2.686-4.814 7.06v5.555c0 2.674.215 4.634 2.18 4.634 1.709 0 2.636-1.047 2.636-5.741V62.172h-.002zm71.863 1.134c0 17.472-7.089 33.309-18.545 44.764s-27.28 18.545-44.755 18.536c-17.481.009-33.314-7.081-44.767-18.536S0 80.778 0 63.306c0-17.481 7.089-33.305 18.545-44.761S45.833.002 63.312.002c17.476 0 33.3 7.089 44.755 18.545s18.545 27.28 18.545 44.759zm-12.787.009c0-27.905-22.617-50.525-50.513-50.525-27.905 0-50.525 22.621-50.525 50.525a50.326 50.326 0 0 0 10.462 30.779V44.403h2.657c.784 0 1.596-.041 2.137.994a4.83 4.83 0 0 1 .39 1.047c1.311-2.154 3.302-2.288 5.087-2.288 4.61 0 6.599 3.209 6.599 9.238V75.5c0 4.985-2.421 8.413-6.599 8.413-1.529 0-3.063-.209-4.496-1.962v18.452a50.284 50.284 0 0 0 34.289 13.424c27.895.001 50.512-22.617 50.512-50.512zM31.701 79.319c1.5.017 2.712-.453 2.712-4.642V52.932c0-4.119-1.014-4.616-2.48-4.616-1.852 0-2.907 1.433-2.907 4.848v22.571c-.002 2.244 1.43 3.569 2.675 3.584zm65.256-35.148a6.041 6.041 0 0 0-5.233 3.154c-1.145-2.531-3.046-3.154-5.238-3.154-1.811 0-3.473.738-4.683 2.401 0 0-.076-1.337-.753-1.835-.474-.343-.704-.335-1.399-.335h-3.183v39.276h5.756V53.515c0-3.997 1.102-4.894 2.875-4.894 1.316 0 2.526.596 2.526 3.372v31.684h5.651V53.515c0-3.997 1.098-4.894 2.875-4.894 1.308 0 2.523.596 2.523 3.372v31.684h5.656V53.623c-.004-6.046-2.271-9.452-7.373-9.452" /><path
   id="g"
   d="M63.175 34.078h8.133v49.598h-5.782V39.391c0-.343-.378-.573-.738-.573h-1.613v-4.74zM60.17 51.885v31.792h-3.122c-.378 0-.884.034-1.496-.712-.369-.444-.566-1.316-.566-1.316-1.303 1.593-2.607 2.145-4.383 2.145-4.541 0-6.096-2.631-6.096-7.944v-7.156c0-6.575 4.491-8.795 10.24-10.947v-5.509c0-2.765-.934-3.691-2.291-3.691-1.639 0-2.703.532-2.703 3.34v2.802c0 1.11-.424 1.692-2.291 1.668h-2.727v-3.889c0-5.313 2.555-8.296 7.609-8.296 5.346-.001 7.826 2.46 7.826 7.713zm-5.421 10.287c-3.252 1.587-4.814 2.686-4.814 7.06v5.555c0 2.674.215 4.634 2.18 4.634 1.709 0 2.636-1.047 2.636-5.741V62.172h-.002zm71.863 1.134c0 17.472-7.089 33.309-18.545 44.764s-27.28 18.545-44.755 18.536c-17.481.009-33.314-7.081-44.767-18.536S0 80.778 0 63.306c0-17.481 7.089-33.305 18.545-44.761S45.833.002 63.312.002c17.476 0 33.3 7.089 44.755 18.545s18.545 27.28 18.545 44.759zm-12.787.009c0-27.905-22.617-50.525-50.513-50.525-27.905 0-50.525 22.621-50.525 50.525a50.326 50.326 0 0 0 10.462 30.779V44.403h2.657c.784 0 1.596-.041 2.137.994a4.83 4.83 0 0 1 .39 1.047c1.311-2.154 3.302-2.288 5.087-2.288 4.61 0 6.599 3.209 6.599 9.238V75.5c0 4.985-2.421 8.413-6.599 8.413-1.529 0-3.063-.209-4.496-1.962v18.452a50.284 50.284 0 0 0 34.289 13.424c27.895.001 50.512-22.617 50.512-50.512zM31.701 79.319c1.5.017 2.712-.453 2.712-4.642V52.932c0-4.119-1.014-4.616-2.48-4.616-1.852 0-2.907 1.433-2.907 4.848v22.571c-.002 2.244 1.43 3.569 2.675 3.584zm65.256-35.148a6.041 6.041 0 0 0-5.233 3.154c-1.145-2.531-3.046-3.154-5.238-3.154-1.811 0-3.473.738-4.683 2.401 0 0-.076-1.337-.753-1.835-.474-.343-.704-.335-1.399-.335h-3.183v39.276h5.756V53.515c0-3.997 1.102-4.894 2.875-4.894 1.316 0 2.526.596 2.526 3.372v31.684h5.651V53.515c0-3.997 1.098-4.894 2.875-4.894 1.308 0 2.523.596 2.523 3.372v31.684h5.656V53.623c-.004-6.046-2.271-9.452-7.373-9.452" /><path
   id="i"
   d="M63.175 34.078h8.133v49.598h-5.782V39.391c0-.343-.378-.573-.738-.573h-1.613v-4.74zM60.17 51.885v31.792h-3.122c-.378 0-.884.034-1.496-.712-.369-.444-.566-1.316-.566-1.316-1.303 1.593-2.607 2.145-4.383 2.145-4.541 0-6.096-2.631-6.096-7.944v-7.156c0-6.575 4.491-8.795 10.24-10.947v-5.509c0-2.765-.934-3.691-2.291-3.691-1.639 0-2.703.532-2.703 3.34v2.802c0 1.11-.424 1.692-2.291 1.668h-2.727v-3.889c0-5.313 2.555-8.296 7.609-8.296 5.346-.001 7.826 2.46 7.826 7.713zm-5.421 10.287c-3.252 1.587-4.814 2.686-4.814 7.06v5.555c0 2.674.215 4.634 2.18 4.634 1.709 0 2.636-1.047 2.636-5.741V62.172h-.002zm71.863 1.134c0 17.472-7.089 33.309-18.545 44.764s-27.28 18.545-44.755 18.536c-17.481.009-33.314-7.081-44.767-18.536S0 80.778 0 63.306c0-17.481 7.089-33.305 18.545-44.761S45.833.002 63.312.002c17.476 0 33.3 7.089 44.755 18.545s18.545 27.28 18.545 44.759zm-12.787.009c0-27.905-22.617-50.525-50.513-50.525-27.905 0-50.525 22.621-50.525 50.525a50.326 50.326 0 0 0 10.462 30.779V44.403h2.657c.784 0 1.596-.041 2.137.994a4.83 4.83 0 0 1 .39 1.047c1.311-2.154 3.302-2.288 5.087-2.288 4.61 0 6.599 3.209 6.599 9.238V75.5c0 4.985-2.421 8.413-6.599 8.413-1.529 0-3.063-.209-4.496-1.962v18.452a50.284 50.284 0 0 0 34.289 13.424c27.895.001 50.512-22.617 50.512-50.512zM31.701 79.319c1.5.017 2.712-.453 2.712-4.642V52.932c0-4.119-1.014-4.616-2.48-4.616-1.852 0-2.907 1.433-2.907 4.848v22.571c-.002 2.244 1.43 3.569 2.675 3.584zm65.256-35.148a6.041 6.041 0 0 0-5.233 3.154c-1.145-2.531-3.046-3.154-5.238-3.154-1.811 0-3.473.738-4.683 2.401 0 0-.076-1.337-.753-1.835-.474-.343-.704-.335-1.399-.335h-3.183v39.276h5.756V53.515c0-3.997 1.102-4.894 2.875-4.894 1.316 0 2.526.596 2.526 3.372v31.684h5.651V53.515c0-3.997 1.098-4.894 2.875-4.894 1.308 0 2.523.596 2.523 3.372v31.684h5.656V53.623c-.004-6.046-2.271-9.452-7.373-9.452" /><path
   id="k"
   d="M63.175 34.078h8.133v49.598h-5.782V39.391c0-.343-.378-.573-.738-.573h-1.613v-4.74zM60.17 51.885v31.792h-3.122c-.378 0-.884.034-1.496-.712-.369-.444-.566-1.316-.566-1.316-1.303 1.593-2.607 2.145-4.383 2.145-4.541 0-6.096-2.631-6.096-7.944v-7.156c0-6.575 4.491-8.795 10.24-10.947v-5.509c0-2.765-.934-3.691-2.291-3.691-1.639 0-2.703.532-2.703 3.34v2.802c0 1.11-.424 1.692-2.291 1.668h-2.727v-3.889c0-5.313 2.555-8.296 7.609-8.296 5.346-.001 7.826 2.46 7.826 7.713zm-5.421 10.287c-3.252 1.587-4.814 2.686-4.814 7.06v5.555c0 2.674.215 4.634 2.18 4.634 1.709 0 2.636-1.047 2.636-5.741V62.172h-.002zm71.863 1.134c0 17.472-7.089 33.309-18.545 44.764s-27.28 18.545-44.755 18.536c-17.481.009-33.314-7.081-44.767-18.536S0 80.778 0 63.306c0-17.481 7.089-33.305 18.545-44.761S45.833.002 63.312.002c17.476 0 33.3 7.089 44.755 18.545s18.545 27.28 18.545 44.759zm-12.787.009c0-27.905-22.617-50.525-50.513-50.525-27.905 0-50.525 22.621-50.525 50.525a50.326 50.326 0 0 0 10.462 30.779V44.403h2.657c.784 0 1.596-.041 2.137.994a4.83 4.83 0 0 1 .39 1.047c1.311-2.154 3.302-2.288 5.087-2.288 4.61 0 6.599 3.209 6.599 9.238V75.5c0 4.985-2.421 8.413-6.599 8.413-1.529 0-3.063-.209-4.496-1.962v18.452a50.284 50.284 0 0 0 34.289 13.424c27.895.001 50.512-22.617 50.512-50.512zM31.701 79.319c1.5.017 2.712-.453 2.712-4.642V52.932c0-4.119-1.014-4.616-2.48-4.616-1.852 0-2.907 1.433-2.907 4.848v22.571c-.002 2.244 1.43 3.569 2.675 3.584zm65.256-35.148a6.041 6.041 0 0 0-5.233 3.154c-1.145-2.531-3.046-3.154-5.238-3.154-1.811 0-3.473.738-4.683 2.401 0 0-.076-1.337-.753-1.835-.474-.343-.704-.335-1.399-.335h-3.183v39.276h5.756V53.515c0-3.997 1.102-4.894 2.875-4.894 1.316 0 2.526.596 2.526 3.372v31.684h5.651V53.515c0-3.997 1.098-4.894 2.875-4.894 1.308 0 2.523.596 2.523 3.372v31.684h5.656V53.623c-.004-6.046-2.271-9.452-7.373-9.452" /><path
   id="m"
   d="M63.175 34.078h8.133v49.598h-5.782V39.391c0-.343-.378-.573-.738-.573h-1.613v-4.74zM60.17 51.885v31.792h-3.122c-.378 0-.884.034-1.496-.712-.369-.444-.566-1.316-.566-1.316-1.303 1.593-2.607 2.145-4.383 2.145-4.541 0-6.096-2.631-6.096-7.944v-7.156c0-6.575 4.491-8.795 10.24-10.947v-5.509c0-2.765-.934-3.691-2.291-3.691-1.639 0-2.703.532-2.703 3.34v2.802c0 1.11-.424 1.692-2.291 1.668h-2.727v-3.889c0-5.313 2.555-8.296 7.609-8.296 5.346-.001 7.826 2.46 7.826 7.713zm-5.421 10.287c-3.252 1.587-4.814 2.686-4.814 7.06v5.555c0 2.674.215 4.634 2.18 4.634 1.709 0 2.636-1.047 2.636-5.741V62.172h-.002zm71.863 1.134c0 17.472-7.089 33.309-18.545 44.764s-27.28 18.545-44.755 18.536c-17.481.009-33.314-7.081-44.767-18.536S0 80.778 0 63.306c0-17.481 7.089-33.305 18.545-44.761S45.833.002 63.312.002c17.476 0 33.3 7.089 44.755 18.545s18.545 27.28 18.545 44.759zm-12.787.009c0-27.905-22.617-50.525-50.513-50.525-27.905 0-50.525 22.621-50.525 50.525a50.326 50.326 0 0 0 10.462 30.779V44.403h2.657c.784 0 1.596-.041 2.137.994a4.83 4.83 0 0 1 .39 1.047c1.311-2.154 3.302-2.288 5.087-2.288 4.61 0 6.599 3.209 6.599 9.238V75.5c0 4.985-2.421 8.413-6.599 8.413-1.529 0-3.063-.209-4.496-1.962v18.452a50.284 50.284 0 0 0 34.289 13.424c27.895.001 50.512-22.617 50.512-50.512zM31.701 79.319c1.5.017 2.712-.453 2.712-4.642V52.932c0-4.119-1.014-4.616-2.48-4.616-1.852 0-2.907 1.433-2.907 4.848v22.571c-.002 2.244 1.43 3.569 2.675 3.584zm65.256-35.148a6.041 6.041 0 0 0-5.233 3.154c-1.145-2.531-3.046-3.154-5.238-3.154-1.811 0-3.473.738-4.683 2.401 0 0-.076-1.337-.753-1.835-.474-.343-.704-.335-1.399-.335h-3.183v39.276h5.756V53.515c0-3.997 1.102-4.894 2.875-4.894 1.316 0 2.526.596 2.526 3.372v31.684h5.651V53.515c0-3.997 1.098-4.894 2.875-4.894 1.308 0 2.523.596 2.523 3.372v31.684h5.656V53.623c-.004-6.046-2.271-9.452-7.373-9.452" /><path
   id="o"
   d="M63.175 34.078h8.133v49.598h-5.782V39.391c0-.343-.378-.573-.738-.573h-1.613v-4.74zM60.17 51.885v31.792h-3.122c-.378 0-.884.034-1.496-.712-.369-.444-.566-1.316-.566-1.316-1.303 1.593-2.607 2.145-4.383 2.145-4.541 0-6.096-2.631-6.096-7.944v-7.156c0-6.575 4.491-8.795 10.24-10.947v-5.509c0-2.765-.934-3.691-2.291-3.691-1.639 0-2.703.532-2.703 3.34v2.802c0 1.11-.424 1.692-2.291 1.668h-2.727v-3.889c0-5.313 2.555-8.296 7.609-8.296 5.346-.001 7.826 2.46 7.826 7.713zm-5.421 10.287c-3.252 1.587-4.814 2.686-4.814 7.06v5.555c0 2.674.215 4.634 2.18 4.634 1.709 0 2.636-1.047 2.636-5.741V62.172h-.002zm71.863 1.134c0 17.472-7.089 33.309-18.545 44.764s-27.28 18.545-44.755 18.536c-17.481.009-33.314-7.081-44.767-18.536S0 80.778 0 63.306c0-17.481 7.089-33.305 18.545-44.761S45.833.002 63.312.002c17.476 0 33.3 7.089 44.755 18.545s18.545 27.28 18.545 44.759zm-12.787.009c0-27.905-22.617-50.525-50.513-50.525-27.905 0-50.525 22.621-50.525 50.525a50.326 50.326 0 0 0 10.462 30.779V44.403h2.657c.784 0 1.596-.041 2.137.994a4.83 4.83 0 0 1 .39 1.047c1.311-2.154 3.302-2.288 5.087-2.288 4.61 0 6.599 3.209 6.599 9.238V75.5c0 4.985-2.421 8.413-6.599 8.413-1.529 0-3.063-.209-4.496-1.962v18.452a50.284 50.284 0 0 0 34.289 13.424c27.895.001 50.512-22.617 50.512-50.512zM31.701 79.319c1.5.017 2.712-.453 2.712-4.642V52.932c0-4.119-1.014-4.616-2.48-4.616-1.852 0-2.907 1.433-2.907 4.848v22.571c-.002 2.244 1.43 3.569 2.675 3.584zm65.256-35.148a6.041 6.041 0 0 0-5.233 3.154c-1.145-2.531-3.046-3.154-5.238-3.154-1.811 0-3.473.738-4.683 2.401 0 0-.076-1.337-.753-1.835-.474-.343-.704-.335-1.399-.335h-3.183v39.276h5.756V53.515c0-3.997 1.102-4.894 2.875-4.894 1.316 0 2.526.596 2.526 3.372v31.684h5.651V53.515c0-3.997 1.098-4.894 2.875-4.894 1.308 0 2.523.596 2.523 3.372v31.684h5.656V53.623c-.004-6.046-2.271-9.452-7.373-9.452" /><path
   id="q"
   d="M63.175 34.078h8.133v49.598h-5.782V39.391c0-.343-.378-.573-.738-.573h-1.613v-4.74zM60.17 51.885v31.792h-3.122c-.378 0-.884.034-1.496-.712-.369-.444-.566-1.316-.566-1.316-1.303 1.593-2.607 2.145-4.383 2.145-4.541 0-6.096-2.631-6.096-7.944v-7.156c0-6.575 4.491-8.795 10.24-10.947v-5.509c0-2.765-.934-3.691-2.291-3.691-1.639 0-2.703.532-2.703 3.34v2.802c0 1.11-.424 1.692-2.291 1.668h-2.727v-3.889c0-5.313 2.555-8.296 7.609-8.296 5.346-.001 7.826 2.46 7.826 7.713zm-5.421 10.287c-3.252 1.587-4.814 2.686-4.814 7.06v5.555c0 2.674.215 4.634 2.18 4.634 1.709 0 2.636-1.047 2.636-5.741V62.172h-.002zm71.863 1.134c0 17.472-7.089 33.309-18.545 44.764s-27.28 18.545-44.755 18.536c-17.481.009-33.314-7.081-44.767-18.536S0 80.778 0 63.306c0-17.481 7.089-33.305 18.545-44.761S45.833.002 63.312.002c17.476 0 33.3 7.089 44.755 18.545s18.545 27.28 18.545 44.759zm-12.787.009c0-27.905-22.617-50.525-50.513-50.525-27.905 0-50.525 22.621-50.525 50.525a50.326 50.326 0 0 0 10.462 30.779V44.403h2.657c.784 0 1.596-.041 2.137.994a4.83 4.83 0 0 1 .39 1.047c1.311-2.154 3.302-2.288 5.087-2.288 4.61 0 6.599 3.209 6.599 9.238V75.5c0 4.985-2.421 8.413-6.599 8.413-1.529 0-3.063-.209-4.496-1.962v18.452a50.284 50.284 0 0 0 34.289 13.424c27.895.001 50.512-22.617 50.512-50.512zM31.701 79.319c1.5.017 2.712-.453 2.712-4.642V52.932c0-4.119-1.014-4.616-2.48-4.616-1.852 0-2.907 1.433-2.907 4.848v22.571c-.002 2.244 1.43 3.569 2.675 3.584zm65.256-35.148a6.041 6.041 0 0 0-5.233 3.154c-1.145-2.531-3.046-3.154-5.238-3.154-1.811 0-3.473.738-4.683 2.401 0 0-.076-1.337-.753-1.835-.474-.343-.704-.335-1.399-.335h-3.183v39.276h5.756V53.515c0-3.997 1.102-4.894 2.875-4.894 1.316 0 2.526.596 2.526 3.372v31.684h5.651V53.515c0-3.997 1.098-4.894 2.875-4.894 1.308 0 2.523.596 2.523 3.372v31.684h5.656V53.623c-.004-6.046-2.271-9.452-7.373-9.452" /><path
   id="s"
   d="M63.175 34.078h8.133v49.598h-5.782V39.391c0-.343-.378-.573-.738-.573h-1.613v-4.74zM60.17 51.885v31.792h-3.122c-.378 0-.884.034-1.496-.712-.369-.444-.566-1.316-.566-1.316-1.303 1.593-2.607 2.145-4.383 2.145-4.541 0-6.096-2.631-6.096-7.944v-7.156c0-6.575 4.491-8.795 10.24-10.947v-5.509c0-2.765-.934-3.691-2.291-3.691-1.639 0-2.703.532-2.703 3.34v2.802c0 1.11-.424 1.692-2.291 1.668h-2.727v-3.889c0-5.313 2.555-8.296 7.609-8.296 5.346-.001 7.826 2.46 7.826 7.713zm-5.421 10.287c-3.252 1.587-4.814 2.686-4.814 7.06v5.555c0 2.674.215 4.634 2.18 4.634 1.709 0 2.636-1.047 2.636-5.741V62.172h-.002zm71.863 1.134c0 17.472-7.089 33.309-18.545 44.764s-27.28 18.545-44.755 18.536c-17.481.009-33.314-7.081-44.767-18.536S0 80.778 0 63.306c0-17.481 7.089-33.305 18.545-44.761S45.833.002 63.312.002c17.476 0 33.3 7.089 44.755 18.545s18.545 27.28 18.545 44.759zm-12.787.009c0-27.905-22.617-50.525-50.513-50.525-27.905 0-50.525 22.621-50.525 50.525a50.326 50.326 0 0 0 10.462 30.779V44.403h2.657c.784 0 1.596-.041 2.137.994a4.83 4.83 0 0 1 .39 1.047c1.311-2.154 3.302-2.288 5.087-2.288 4.61 0 6.599 3.209 6.599 9.238V75.5c0 4.985-2.421 8.413-6.599 8.413-1.529 0-3.063-.209-4.496-1.962v18.452a50.284 50.284 0 0 0 34.289 13.424c27.895.001 50.512-22.617 50.512-50.512zM31.701 79.319c1.5.017 2.712-.453 2.712-4.642V52.932c0-4.119-1.014-4.616-2.48-4.616-1.852 0-2.907 1.433-2.907 4.848v22.571c-.002 2.244 1.43 3.569 2.675 3.584zm65.256-35.148a6.041 6.041 0 0 0-5.233 3.154c-1.145-2.531-3.046-3.154-5.238-3.154-1.811 0-3.473.738-4.683 2.401 0 0-.076-1.337-.753-1.835-.474-.343-.704-.335-1.399-.335h-3.183v39.276h5.756V53.515c0-3.997 1.102-4.894 2.875-4.894 1.316 0 2.526.596 2.526 3.372v31.684h5.651V53.515c0-3.997 1.098-4.894 2.875-4.894 1.308 0 2.523.596 2.523 3.372v31.684h5.656V53.623c-.004-6.046-2.271-9.452-7.373-9.452" /><path
   id="u"
   d="M63.175 34.078h8.133v49.598h-5.782V39.391c0-.343-.378-.573-.738-.573h-1.613v-4.74zM60.17 51.885v31.792h-3.122c-.378 0-.884.034-1.496-.712-.369-.444-.566-1.316-.566-1.316-1.303 1.593-2.607 2.145-4.383 2.145-4.541 0-6.096-2.631-6.096-7.944v-7.156c0-6.575 4.491-8.795 10.24-10.947v-5.509c0-2.765-.934-3.691-2.291-3.691-1.639 0-2.703.532-2.703 3.34v2.802c0 1.11-.424 1.692-2.291 1.668h-2.727v-3.889c0-5.313 2.555-8.296 7.609-8.296 5.346-.001 7.826 2.46 7.826 7.713zm-5.421 10.287c-3.252 1.587-4.814 2.686-4.814 7.06v5.555c0 2.674.215 4.634 2.18 4.634 1.709 0 2.636-1.047 2.636-5.741V62.172h-.002zm71.863 1.134c0 17.472-7.089 33.309-18.545 44.764s-27.28 18.545-44.755 18.536c-17.481.009-33.314-7.081-44.767-18.536S0 80.778 0 63.306c0-17.481 7.089-33.305 18.545-44.761S45.833.002 63.312.002c17.476 0 33.3 7.089 44.755 18.545s18.545 27.28 18.545 44.759zm-12.787.009c0-27.905-22.617-50.525-50.513-50.525-27.905 0-50.525 22.621-50.525 50.525a50.326 50.326 0 0 0 10.462 30.779V44.403h2.657c.784 0 1.596-.041 2.137.994a4.83 4.83 0 0 1 .39 1.047c1.311-2.154 3.302-2.288 5.087-2.288 4.61 0 6.599 3.209 6.599 9.238V75.5c0 4.985-2.421 8.413-6.599 8.413-1.529 0-3.063-.209-4.496-1.962v18.452a50.284 50.284 0 0 0 34.289 13.424c27.895.001 50.512-22.617 50.512-50.512zM31.701 79.319c1.5.017 2.712-.453 2.712-4.642V52.932c0-4.119-1.014-4.616-2.48-4.616-1.852 0-2.907 1.433-2.907 4.848v22.571c-.002 2.244 1.43 3.569 2.675 3.584zm65.256-35.148a6.041 6.041 0 0 0-5.233 3.154c-1.145-2.531-3.046-3.154-5.238-3.154-1.811 0-3.473.738-4.683 2.401 0 0-.076-1.337-.753-1.835-.474-.343-.704-.335-1.399-.335h-3.183v39.276h5.756V53.515c0-3.997 1.102-4.894 2.875-4.894 1.316 0 2.526.596 2.526 3.372v31.684h5.651V53.515c0-3.997 1.098-4.894 2.875-4.894 1.308 0 2.523.596 2.523 3.372v31.684h5.656V53.623c-.004-6.046-2.271-9.452-7.373-9.452" /><path
   id="w"
   d="M63.175 34.078h8.133v49.598h-5.782V39.391c0-.343-.378-.573-.738-.573h-1.613v-4.74zM60.17 51.885v31.792h-3.122c-.378 0-.884.034-1.496-.712-.369-.444-.566-1.316-.566-1.316-1.303 1.593-2.607 2.145-4.383 2.145-4.541 0-6.096-2.631-6.096-7.944v-7.156c0-6.575 4.491-8.795 10.24-10.947v-5.509c0-2.765-.934-3.691-2.291-3.691-1.639 0-2.703.532-2.703 3.34v2.802c0 1.11-.424 1.692-2.291 1.668h-2.727v-3.889c0-5.313 2.555-8.296 7.609-8.296 5.346-.001 7.826 2.46 7.826 7.713zm-5.421 10.287c-3.252 1.587-4.814 2.686-4.814 7.06v5.555c0 2.674.215 4.634 2.18 4.634 1.709 0 2.636-1.047 2.636-5.741V62.172h-.002zm71.863 1.134c0 17.472-7.089 33.309-18.545 44.764s-27.28 18.545-44.755 18.536c-17.481.009-33.314-7.081-44.767-18.536S0 80.778 0 63.306c0-17.481 7.089-33.305 18.545-44.761S45.833.002 63.312.002c17.476 0 33.3 7.089 44.755 18.545s18.545 27.28 18.545 44.759zm-12.787.009c0-27.905-22.617-50.525-50.513-50.525-27.905 0-50.525 22.621-50.525 50.525a50.326 50.326 0 0 0 10.462 30.779V44.403h2.657c.784 0 1.596-.041 2.137.994a4.83 4.83 0 0 1 .39 1.047c1.311-2.154 3.302-2.288 5.087-2.288 4.61 0 6.599 3.209 6.599 9.238V75.5c0 4.985-2.421 8.413-6.599 8.413-1.529 0-3.063-.209-4.496-1.962v18.452a50.284 50.284 0 0 0 34.289 13.424c27.895.001 50.512-22.617 50.512-50.512zM31.701 79.319c1.5.017 2.712-.453 2.712-4.642V52.932c0-4.119-1.014-4.616-2.48-4.616-1.852 0-2.907 1.433-2.907 4.848v22.571c-.002 2.244 1.43 3.569 2.675 3.584zm65.256-35.148a6.041 6.041 0 0 0-5.233 3.154c-1.145-2.531-3.046-3.154-5.238-3.154-1.811 0-3.473.738-4.683 2.401 0 0-.076-1.337-.753-1.835-.474-.343-.704-.335-1.399-.335h-3.183v39.276h5.756V53.515c0-3.997 1.102-4.894 2.875-4.894 1.316 0 2.526.596 2.526 3.372v31.684h5.651V53.515c0-3.997 1.098-4.894 2.875-4.894 1.308 0 2.523.596 2.523 3.372v31.684h5.656V53.623c-.004-6.046-2.271-9.452-7.373-9.452" /><path
   id="y"
   d="M63.175 34.078h8.133v49.598h-5.782V39.391c0-.343-.378-.573-.738-.573h-1.613v-4.74zM60.17 51.885v31.792h-3.122c-.378 0-.884.034-1.496-.712-.369-.444-.566-1.316-.566-1.316-1.303 1.593-2.607 2.145-4.383 2.145-4.541 0-6.096-2.631-6.096-7.944v-7.156c0-6.575 4.491-8.795 10.24-10.947v-5.509c0-2.765-.934-3.691-2.291-3.691-1.639 0-2.703.532-2.703 3.34v2.802c0 1.11-.424 1.692-2.291 1.668h-2.727v-3.889c0-5.313 2.555-8.296 7.609-8.296 5.346-.001 7.826 2.46 7.826 7.713zm-5.421 10.287c-3.252 1.587-4.814 2.686-4.814 7.06v5.555c0 2.674.215 4.634 2.18 4.634 1.709 0 2.636-1.047 2.636-5.741V62.172h-.002zm71.863 1.134c0 17.472-7.089 33.309-18.545 44.764s-27.28 18.545-44.755 18.536c-17.481.009-33.314-7.081-44.767-18.536S0 80.778 0 63.306c0-17.481 7.089-33.305 18.545-44.761S45.833.002 63.312.002c17.476 0 33.3 7.089 44.755 18.545s18.545 27.28 18.545 44.759zm-12.787.009c0-27.905-22.617-50.525-50.513-50.525-27.905 0-50.525 22.621-50.525 50.525a50.326 50.326 0 0 0 10.462 30.779V44.403h2.657c.784 0 1.596-.041 2.137.994a4.83 4.83 0 0 1 .39 1.047c1.311-2.154 3.302-2.288 5.087-2.288 4.61 0 6.599 3.209 6.599 9.238V75.5c0 4.985-2.421 8.413-6.599 8.413-1.529 0-3.063-.209-4.496-1.962v18.452a50.284 50.284 0 0 0 34.289 13.424c27.895.001 50.512-22.617 50.512-50.512zM31.701 79.319c1.5.017 2.712-.453 2.712-4.642V52.932c0-4.119-1.014-4.616-2.48-4.616-1.852 0-2.907 1.433-2.907 4.848v22.571c-.002 2.244 1.43 3.569 2.675 3.584zm65.256-35.148a6.041 6.041 0 0 0-5.233 3.154c-1.145-2.531-3.046-3.154-5.238-3.154-1.811 0-3.473.738-4.683 2.401 0 0-.076-1.337-.753-1.835-.474-.343-.704-.335-1.399-.335h-3.183v39.276h5.756V53.515c0-3.997 1.102-4.894 2.875-4.894 1.316 0 2.526.596 2.526 3.372v31.684h5.651V53.515c0-3.997 1.098-4.894 2.875-4.894 1.308 0 2.523.596 2.523 3.372v31.684h5.656V53.623c-.004-6.046-2.271-9.452-7.373-9.452" /><path
   id="A"
   d="M63.175 34.078h8.133v49.598h-5.782V39.391c0-.343-.378-.573-.738-.573h-1.613v-4.74zM60.17 51.885v31.792h-3.122c-.378 0-.884.034-1.496-.712-.369-.444-.566-1.316-.566-1.316-1.303 1.593-2.607 2.145-4.383 2.145-4.541 0-6.096-2.631-6.096-7.944v-7.156c0-6.575 4.491-8.795 10.24-10.947v-5.509c0-2.765-.934-3.691-2.291-3.691-1.639 0-2.703.532-2.703 3.34v2.802c0 1.11-.424 1.692-2.291 1.668h-2.727v-3.889c0-5.313 2.555-8.296 7.609-8.296 5.346-.001 7.826 2.46 7.826 7.713zm-5.421 10.287c-3.252 1.587-4.814 2.686-4.814 7.06v5.555c0 2.674.215 4.634 2.18 4.634 1.709 0 2.636-1.047 2.636-5.741V62.172h-.002zm71.863 1.134c0 17.472-7.089 33.309-18.545 44.764s-27.28 18.545-44.755 18.536c-17.481.009-33.314-7.081-44.767-18.536S0 80.778 0 63.306c0-17.481 7.089-33.305 18.545-44.761S45.833.002 63.312.002c17.476 0 33.3 7.089 44.755 18.545s18.545 27.28 18.545 44.759zm-12.787.009c0-27.905-22.617-50.525-50.513-50.525-27.905 0-50.525 22.621-50.525 50.525a50.326 50.326 0 0 0 10.462 30.779V44.403h2.657c.784 0 1.596-.041 2.137.994a4.83 4.83 0 0 1 .39 1.047c1.311-2.154 3.302-2.288 5.087-2.288 4.61 0 6.599 3.209 6.599 9.238V75.5c0 4.985-2.421 8.413-6.599 8.413-1.529 0-3.063-.209-4.496-1.962v18.452a50.284 50.284 0 0 0 34.289 13.424c27.895.001 50.512-22.617 50.512-50.512zM31.701 79.319c1.5.017 2.712-.453 2.712-4.642V52.932c0-4.119-1.014-4.616-2.48-4.616-1.852 0-2.907 1.433-2.907 4.848v22.571c-.002 2.244 1.43 3.569 2.675 3.584zm65.256-35.148a6.041 6.041 0 0 0-5.233 3.154c-1.145-2.531-3.046-3.154-5.238-3.154-1.811 0-3.473.738-4.683 2.401 0 0-.076-1.337-.753-1.835-.474-.343-.704-.335-1.399-.335h-3.183v39.276h5.756V53.515c0-3.997 1.102-4.894 2.875-4.894 1.316 0 2.526.596 2.526 3.372v31.684h5.651V53.515c0-3.997 1.098-4.894 2.875-4.894 1.308 0 2.523.596 2.523 3.372v31.684h5.656V53.623c-.004-6.046-2.271-9.452-7.373-9.452" /><path
   id="C"
   d="M63.175 34.078h8.133v49.598h-5.782V39.391c0-.343-.378-.573-.738-.573h-1.613v-4.74zM60.17 51.885v31.792h-3.122c-.378 0-.884.034-1.496-.712-.369-.444-.566-1.316-.566-1.316-1.303 1.593-2.607 2.145-4.383 2.145-4.541 0-6.096-2.631-6.096-7.944v-7.156c0-6.575 4.491-8.795 10.24-10.947v-5.509c0-2.765-.934-3.691-2.291-3.691-1.639 0-2.703.532-2.703 3.34v2.802c0 1.11-.424 1.692-2.291 1.668h-2.727v-3.889c0-5.313 2.555-8.296 7.609-8.296 5.346-.001 7.826 2.46 7.826 7.713zm-5.421 10.287c-3.252 1.587-4.814 2.686-4.814 7.06v5.555c0 2.674.215 4.634 2.18 4.634 1.709 0 2.636-1.047 2.636-5.741V62.172h-.002zm71.863 1.134c0 17.472-7.089 33.309-18.545 44.764s-27.28 18.545-44.755 18.536c-17.481.009-33.314-7.081-44.767-18.536S0 80.778 0 63.306c0-17.481 7.089-33.305 18.545-44.761S45.833.002 63.312.002c17.476 0 33.3 7.089 44.755 18.545s18.545 27.28 18.545 44.759zm-12.787.009c0-27.905-22.617-50.525-50.513-50.525-27.905 0-50.525 22.621-50.525 50.525a50.326 50.326 0 0 0 10.462 30.779V44.403h2.657c.784 0 1.596-.041 2.137.994a4.83 4.83 0 0 1 .39 1.047c1.311-2.154 3.302-2.288 5.087-2.288 4.61 0 6.599 3.209 6.599 9.238V75.5c0 4.985-2.421 8.413-6.599 8.413-1.529 0-3.063-.209-4.496-1.962v18.452a50.284 50.284 0 0 0 34.289 13.424c27.895.001 50.512-22.617 50.512-50.512zM31.701 79.319c1.5.017 2.712-.453 2.712-4.642V52.932c0-4.119-1.014-4.616-2.48-4.616-1.852 0-2.907 1.433-2.907 4.848v22.571c-.002 2.244 1.43 3.569 2.675 3.584zm65.256-35.148a6.041 6.041 0 0 0-5.233 3.154c-1.145-2.531-3.046-3.154-5.238-3.154-1.811 0-3.473.738-4.683 2.401 0 0-.076-1.337-.753-1.835-.474-.343-.704-.335-1.399-.335h-3.183v39.276h5.756V53.515c0-3.997 1.102-4.894 2.875-4.894 1.316 0 2.526.596 2.526 3.372v31.684h5.651V53.515c0-3.997 1.098-4.894 2.875-4.894 1.308 0 2.523.596 2.523 3.372v31.684h5.656V53.623c-.004-6.046-2.271-9.452-7.373-9.452" /><path
   id="E"
   d="M63.175 34.078h8.133v49.598h-5.782V39.391c0-.343-.378-.573-.738-.573h-1.613v-4.74zM60.17 51.885v31.792h-3.122c-.378 0-.884.034-1.496-.712-.369-.444-.566-1.316-.566-1.316-1.303 1.593-2.607 2.145-4.383 2.145-4.541 0-6.096-2.631-6.096-7.944v-7.156c0-6.575 4.491-8.795 10.24-10.947v-5.509c0-2.765-.934-3.691-2.291-3.691-1.639 0-2.703.532-2.703 3.34v2.802c0 1.11-.424 1.692-2.291 1.668h-2.727v-3.889c0-5.313 2.555-8.296 7.609-8.296 5.346-.001 7.826 2.46 7.826 7.713zm-5.421 10.287c-3.252 1.587-4.814 2.686-4.814 7.06v5.555c0 2.674.215 4.634 2.18 4.634 1.709 0 2.636-1.047 2.636-5.741V62.172h-.002zm71.863 1.134c0 17.472-7.089 33.309-18.545 44.764s-27.28 18.545-44.755 18.536c-17.481.009-33.314-7.081-44.767-18.536S0 80.778 0 63.306c0-17.481 7.089-33.305 18.545-44.761S45.833.002 63.312.002c17.476 0 33.3 7.089 44.755 18.545s18.545 27.28 18.545 44.759zm-12.787.009c0-27.905-22.617-50.525-50.513-50.525-27.905 0-50.525 22.621-50.525 50.525a50.326 50.326 0 0 0 10.462 30.779V44.403h2.657c.784 0 1.596-.041 2.137.994a4.83 4.83 0 0 1 .39 1.047c1.311-2.154 3.302-2.288 5.087-2.288 4.61 0 6.599 3.209 6.599 9.238V75.5c0 4.985-2.421 8.413-6.599 8.413-1.529 0-3.063-.209-4.496-1.962v18.452a50.284 50.284 0 0 0 34.289 13.424c27.895.001 50.512-22.617 50.512-50.512zM31.701 79.319c1.5.017 2.712-.453 2.712-4.642V52.932c0-4.119-1.014-4.616-2.48-4.616-1.852 0-2.907 1.433-2.907 4.848v22.571c-.002 2.244 1.43 3.569 2.675 3.584zm65.256-35.148a6.041 6.041 0 0 0-5.233 3.154c-1.145-2.531-3.046-3.154-5.238-3.154-1.811 0-3.473.738-4.683 2.401 0 0-.076-1.337-.753-1.835-.474-.343-.704-.335-1.399-.335h-3.183v39.276h5.756V53.515c0-3.997 1.102-4.894 2.875-4.894 1.316 0 2.526.596 2.526 3.372v31.684h5.651V53.515c0-3.997 1.098-4.894 2.875-4.894 1.308 0 2.523.596 2.523 3.372v31.684h5.656V53.623c-.004-6.046-2.271-9.452-7.373-9.452" /><path
   id="G"
   d="M63.175 34.078h8.133v49.598h-5.782V39.391c0-.343-.378-.573-.738-.573h-1.613v-4.74zM60.17 51.885v31.792h-3.122c-.378 0-.884.034-1.496-.712-.369-.444-.566-1.316-.566-1.316-1.303 1.593-2.607 2.145-4.383 2.145-4.541 0-6.096-2.631-6.096-7.944v-7.156c0-6.575 4.491-8.795 10.24-10.947v-5.509c0-2.765-.934-3.691-2.291-3.691-1.639 0-2.703.532-2.703 3.34v2.802c0 1.11-.424 1.692-2.291 1.668h-2.727v-3.889c0-5.313 2.555-8.296 7.609-8.296 5.346-.001 7.826 2.46 7.826 7.713zm-5.421 10.287c-3.252 1.587-4.814 2.686-4.814 7.06v5.555c0 2.674.215 4.634 2.18 4.634 1.709 0 2.636-1.047 2.636-5.741V62.172h-.002zm71.863 1.134c0 17.472-7.089 33.309-18.545 44.764s-27.28 18.545-44.755 18.536c-17.481.009-33.314-7.081-44.767-18.536S0 80.778 0 63.306c0-17.481 7.089-33.305 18.545-44.761S45.833.002 63.312.002c17.476 0 33.3 7.089 44.755 18.545s18.545 27.28 18.545 44.759zm-12.787.009c0-27.905-22.617-50.525-50.513-50.525-27.905 0-50.525 22.621-50.525 50.525a50.326 50.326 0 0 0 10.462 30.779V44.403h2.657c.784 0 1.596-.041 2.137.994a4.83 4.83 0 0 1 .39 1.047c1.311-2.154 3.302-2.288 5.087-2.288 4.61 0 6.599 3.209 6.599 9.238V75.5c0 4.985-2.421 8.413-6.599 8.413-1.529 0-3.063-.209-4.496-1.962v18.452a50.284 50.284 0 0 0 34.289 13.424c27.895.001 50.512-22.617 50.512-50.512zM31.701 79.319c1.5.017 2.712-.453 2.712-4.642V52.932c0-4.119-1.014-4.616-2.48-4.616-1.852 0-2.907 1.433-2.907 4.848v22.571c-.002 2.244 1.43 3.569 2.675 3.584zm65.256-35.148a6.041 6.041 0 0 0-5.233 3.154c-1.145-2.531-3.046-3.154-5.238-3.154-1.811 0-3.473.738-4.683 2.401 0 0-.076-1.337-.753-1.835-.474-.343-.704-.335-1.399-.335h-3.183v39.276h5.756V53.515c0-3.997 1.102-4.894 2.875-4.894 1.316 0 2.526.596 2.526 3.372v31.684h5.651V53.515c0-3.997 1.098-4.894 2.875-4.894 1.308 0 2.523.596 2.523 3.372v31.684h5.656V53.623c-.004-6.046-2.271-9.452-7.373-9.452" /><path
   id="I"
   d="M63.175 34.078h8.133v49.598h-5.782V39.391c0-.343-.378-.573-.738-.573h-1.613v-4.74zM60.17 51.885v31.792h-3.122c-.378 0-.884.034-1.496-.712-.369-.444-.566-1.316-.566-1.316-1.303 1.593-2.607 2.145-4.383 2.145-4.541 0-6.096-2.631-6.096-7.944v-7.156c0-6.575 4.491-8.795 10.24-10.947v-5.509c0-2.765-.934-3.691-2.291-3.691-1.639 0-2.703.532-2.703 3.34v2.802c0 1.11-.424 1.692-2.291 1.668h-2.727v-3.889c0-5.313 2.555-8.296 7.609-8.296 5.346-.001 7.826 2.46 7.826 7.713zm-5.421 10.287c-3.252 1.587-4.814 2.686-4.814 7.06v5.555c0 2.674.215 4.634 2.18 4.634 1.709 0 2.636-1.047 2.636-5.741V62.172h-.002zm71.863 1.134c0 17.472-7.089 33.309-18.545 44.764s-27.28 18.545-44.755 18.536c-17.481.009-33.314-7.081-44.767-18.536S0 80.778 0 63.306c0-17.481 7.089-33.305 18.545-44.761S45.833.002 63.312.002c17.476 0 33.3 7.089 44.755 18.545s18.545 27.28 18.545 44.759zm-12.787.009c0-27.905-22.617-50.525-50.513-50.525-27.905 0-50.525 22.621-50.525 50.525a50.326 50.326 0 0 0 10.462 30.779V44.403h2.657c.784 0 1.596-.041 2.137.994a4.83 4.83 0 0 1 .39 1.047c1.311-2.154 3.302-2.288 5.087-2.288 4.61 0 6.599 3.209 6.599 9.238V75.5c0 4.985-2.421 8.413-6.599 8.413-1.529 0-3.063-.209-4.496-1.962v18.452a50.284 50.284 0 0 0 34.289 13.424c27.895.001 50.512-22.617 50.512-50.512zM31.701 79.319c1.5.017 2.712-.453 2.712-4.642V52.932c0-4.119-1.014-4.616-2.48-4.616-1.852 0-2.907 1.433-2.907 4.848v22.571c-.002 2.244 1.43 3.569 2.675 3.584zm65.256-35.148a6.041 6.041 0 0 0-5.233 3.154c-1.145-2.531-3.046-3.154-5.238-3.154-1.811 0-3.473.738-4.683 2.401 0 0-.076-1.337-.753-1.835-.474-.343-.704-.335-1.399-.335h-3.183v39.276h5.756V53.515c0-3.997 1.102-4.894 2.875-4.894 1.316 0 2.526.596 2.526 3.372v31.684h5.651V53.515c0-3.997 1.098-4.894 2.875-4.894 1.308 0 2.523.596 2.523 3.372v31.684h5.656V53.623c-.004-6.046-2.271-9.452-7.373-9.452" /><path
   id="K"
   d="M63.175 34.078h8.133v49.598h-5.782V39.391c0-.343-.378-.573-.738-.573h-1.613v-4.74zM60.17 51.885v31.792h-3.122c-.378 0-.884.034-1.496-.712-.369-.444-.566-1.316-.566-1.316-1.303 1.593-2.607 2.145-4.383 2.145-4.541 0-6.096-2.631-6.096-7.944v-7.156c0-6.575 4.491-8.795 10.24-10.947v-5.509c0-2.765-.934-3.691-2.291-3.691-1.639 0-2.703.532-2.703 3.34v2.802c0 1.11-.424 1.692-2.291 1.668h-2.727v-3.889c0-5.313 2.555-8.296 7.609-8.296 5.346-.001 7.826 2.46 7.826 7.713zm-5.421 10.287c-3.252 1.587-4.814 2.686-4.814 7.06v5.555c0 2.674.215 4.634 2.18 4.634 1.709 0 2.636-1.047 2.636-5.741V62.172h-.002zm71.863 1.134c0 17.472-7.089 33.309-18.545 44.764s-27.28 18.545-44.755 18.536c-17.481.009-33.314-7.081-44.767-18.536S0 80.778 0 63.306c0-17.481 7.089-33.305 18.545-44.761S45.833.002 63.312.002c17.476 0 33.3 7.089 44.755 18.545s18.545 27.28 18.545 44.759zm-12.787.009c0-27.905-22.617-50.525-50.513-50.525-27.905 0-50.525 22.621-50.525 50.525a50.326 50.326 0 0 0 10.462 30.779V44.403h2.657c.784 0 1.596-.041 2.137.994a4.83 4.83 0 0 1 .39 1.047c1.311-2.154 3.302-2.288 5.087-2.288 4.61 0 6.599 3.209 6.599 9.238V75.5c0 4.985-2.421 8.413-6.599 8.413-1.529 0-3.063-.209-4.496-1.962v18.452a50.284 50.284 0 0 0 34.289 13.424c27.895.001 50.512-22.617 50.512-50.512zM31.701 79.319c1.5.017 2.712-.453 2.712-4.642V52.932c0-4.119-1.014-4.616-2.48-4.616-1.852 0-2.907 1.433-2.907 4.848v22.571c-.002 2.244 1.43 3.569 2.675 3.584zm65.256-35.148a6.041 6.041 0 0 0-5.233 3.154c-1.145-2.531-3.046-3.154-5.238-3.154-1.811 0-3.473.738-4.683 2.401 0 0-.076-1.337-.753-1.835-.474-.343-.704-.335-1.399-.335h-3.183v39.276h5.756V53.515c0-3.997 1.102-4.894 2.875-4.894 1.316 0 2.526.596 2.526 3.372v31.684h5.651V53.515c0-3.997 1.098-4.894 2.875-4.894 1.308 0 2.523.596 2.523 3.372v31.684h5.656V53.623c-.004-6.046-2.271-9.452-7.373-9.452" /><path
   id="M"
   d="M63.175 34.078h8.133v49.598h-5.782V39.391c0-.343-.378-.573-.738-.573h-1.613v-4.74zM60.17 51.885v31.792h-3.122c-.378 0-.884.034-1.496-.712-.369-.444-.566-1.316-.566-1.316-1.303 1.593-2.607 2.145-4.383 2.145-4.541 0-6.096-2.631-6.096-7.944v-7.156c0-6.575 4.491-8.795 10.24-10.947v-5.509c0-2.765-.934-3.691-2.291-3.691-1.639 0-2.703.532-2.703 3.34v2.802c0 1.11-.424 1.692-2.291 1.668h-2.727v-3.889c0-5.313 2.555-8.296 7.609-8.296 5.346-.001 7.826 2.46 7.826 7.713zm-5.421 10.287c-3.252 1.587-4.814 2.686-4.814 7.06v5.555c0 2.674.215 4.634 2.18 4.634 1.709 0 2.636-1.047 2.636-5.741V62.172h-.002zm71.863 1.134c0 17.472-7.089 33.309-18.545 44.764s-27.28 18.545-44.755 18.536c-17.481.009-33.314-7.081-44.767-18.536S0 80.778 0 63.306c0-17.481 7.089-33.305 18.545-44.761S45.833.002 63.312.002c17.476 0 33.3 7.089 44.755 18.545s18.545 27.28 18.545 44.759zm-12.787.009c0-27.905-22.617-50.525-50.513-50.525-27.905 0-50.525 22.621-50.525 50.525a50.326 50.326 0 0 0 10.462 30.779V44.403h2.657c.784 0 1.596-.041 2.137.994a4.83 4.83 0 0 1 .39 1.047c1.311-2.154 3.302-2.288 5.087-2.288 4.61 0 6.599 3.209 6.599 9.238V75.5c0 4.985-2.421 8.413-6.599 8.413-1.529 0-3.063-.209-4.496-1.962v18.452a50.284 50.284 0 0 0 34.289 13.424c27.895.001 50.512-22.617 50.512-50.512zM31.701 79.319c1.5.017 2.712-.453 2.712-4.642V52.932c0-4.119-1.014-4.616-2.48-4.616-1.852 0-2.907 1.433-2.907 4.848v22.571c-.002 2.244 1.43 3.569 2.675 3.584zm65.256-35.148a6.041 6.041 0 0 0-5.233 3.154c-1.145-2.531-3.046-3.154-5.238-3.154-1.811 0-3.473.738-4.683 2.401 0 0-.076-1.337-.753-1.835-.474-.343-.704-.335-1.399-.335h-3.183v39.276h5.756V53.515c0-3.997 1.102-4.894 2.875-4.894 1.316 0 2.526.596 2.526 3.372v31.684h5.651V53.515c0-3.997 1.098-4.894 2.875-4.894 1.308 0 2.523.596 2.523 3.372v31.684h5.656V53.623c-.004-6.046-2.271-9.452-7.373-9.452" /><path
   id="O"
   d="M63.175 34.078h8.133v49.598h-5.782V39.391c0-.343-.378-.573-.738-.573h-1.613v-4.74zM60.17 51.885v31.792h-3.122c-.378 0-.884.034-1.496-.712-.369-.444-.566-1.316-.566-1.316-1.303 1.593-2.607 2.145-4.383 2.145-4.541 0-6.096-2.631-6.096-7.944v-7.156c0-6.575 4.491-8.795 10.24-10.947v-5.509c0-2.765-.934-3.691-2.291-3.691-1.639 0-2.703.532-2.703 3.34v2.802c0 1.11-.424 1.692-2.291 1.668h-2.727v-3.889c0-5.313 2.555-8.296 7.609-8.296 5.346-.001 7.826 2.46 7.826 7.713zm-5.421 10.287c-3.252 1.587-4.814 2.686-4.814 7.06v5.555c0 2.674.215 4.634 2.18 4.634 1.709 0 2.636-1.047 2.636-5.741V62.172h-.002zm71.863 1.134c0 17.472-7.089 33.309-18.545 44.764s-27.28 18.545-44.755 18.536c-17.481.009-33.314-7.081-44.767-18.536S0 80.778 0 63.306c0-17.481 7.089-33.305 18.545-44.761S45.833.002 63.312.002c17.476 0 33.3 7.089 44.755 18.545s18.545 27.28 18.545 44.759zm-12.787.009c0-27.905-22.617-50.525-50.513-50.525-27.905 0-50.525 22.621-50.525 50.525a50.326 50.326 0 0 0 10.462 30.779V44.403h2.657c.784 0 1.596-.041 2.137.994a4.83 4.83 0 0 1 .39 1.047c1.311-2.154 3.302-2.288 5.087-2.288 4.61 0 6.599 3.209 6.599 9.238V75.5c0 4.985-2.421 8.413-6.599 8.413-1.529 0-3.063-.209-4.496-1.962v18.452a50.284 50.284 0 0 0 34.289 13.424c27.895.001 50.512-22.617 50.512-50.512zM31.701 79.319c1.5.017 2.712-.453 2.712-4.642V52.932c0-4.119-1.014-4.616-2.48-4.616-1.852 0-2.907 1.433-2.907 4.848v22.571c-.002 2.244 1.43 3.569 2.675 3.584zm65.256-35.148a6.041 6.041 0 0 0-5.233 3.154c-1.145-2.531-3.046-3.154-5.238-3.154-1.811 0-3.473.738-4.683 2.401 0 0-.076-1.337-.753-1.835-.474-.343-.704-.335-1.399-.335h-3.183v39.276h5.756V53.515c0-3.997 1.102-4.894 2.875-4.894 1.316 0 2.526.596 2.526 3.372v31.684h5.651V53.515c0-3.997 1.098-4.894 2.875-4.894 1.308 0 2.523.596 2.523 3.372v31.684h5.656V53.623c-.004-6.046-2.271-9.452-7.373-9.452" /><path
   id="Q"
   d="M63.175 34.078h8.133v49.598h-5.782V39.391c0-.343-.378-.573-.738-.573h-1.613v-4.74zM60.17 51.885v31.792h-3.122c-.378 0-.884.034-1.496-.712-.369-.444-.566-1.316-.566-1.316-1.303 1.593-2.607 2.145-4.383 2.145-4.541 0-6.096-2.631-6.096-7.944v-7.156c0-6.575 4.491-8.795 10.24-10.947v-5.509c0-2.765-.934-3.691-2.291-3.691-1.639 0-2.703.532-2.703 3.34v2.802c0 1.11-.424 1.692-2.291 1.668h-2.727v-3.889c0-5.313 2.555-8.296 7.609-8.296 5.346-.001 7.826 2.46 7.826 7.713zm-5.421 10.287c-3.252 1.587-4.814 2.686-4.814 7.06v5.555c0 2.674.215 4.634 2.18 4.634 1.709 0 2.636-1.047 2.636-5.741V62.172h-.002zm71.863 1.134c0 17.472-7.089 33.309-18.545 44.764s-27.28 18.545-44.755 18.536c-17.481.009-33.314-7.081-44.767-18.536S0 80.778 0 63.306c0-17.481 7.089-33.305 18.545-44.761S45.833.002 63.312.002c17.476 0 33.3 7.089 44.755 18.545s18.545 27.28 18.545 44.759zm-12.787.009c0-27.905-22.617-50.525-50.513-50.525-27.905 0-50.525 22.621-50.525 50.525a50.326 50.326 0 0 0 10.462 30.779V44.403h2.657c.784 0 1.596-.041 2.137.994a4.83 4.83 0 0 1 .39 1.047c1.311-2.154 3.302-2.288 5.087-2.288 4.61 0 6.599 3.209 6.599 9.238V75.5c0 4.985-2.421 8.413-6.599 8.413-1.529 0-3.063-.209-4.496-1.962v18.452a50.284 50.284 0 0 0 34.289 13.424c27.895.001 50.512-22.617 50.512-50.512zM31.701 79.319c1.5.017 2.712-.453 2.712-4.642V52.932c0-4.119-1.014-4.616-2.48-4.616-1.852 0-2.907 1.433-2.907 4.848v22.571c-.002 2.244 1.43 3.569 2.675 3.584zm65.256-35.148a6.041 6.041 0 0 0-5.233 3.154c-1.145-2.531-3.046-3.154-5.238-3.154-1.811 0-3.473.738-4.683 2.401 0 0-.076-1.337-.753-1.835-.474-.343-.704-.335-1.399-.335h-3.183v39.276h5.756V53.515c0-3.997 1.102-4.894 2.875-4.894 1.316 0 2.526.596 2.526 3.372v31.684h5.651V53.515c0-3.997 1.098-4.894 2.875-4.894 1.308 0 2.523.596 2.523 3.372v31.684h5.656V53.623c-.004-6.046-2.271-9.452-7.373-9.452" /><path
   id="S"
   d="M63.175 34.078h8.133v49.598h-5.782V39.391c0-.343-.378-.573-.738-.573h-1.613v-4.74zM60.17 51.885v31.792h-3.122c-.378 0-.884.034-1.496-.712-.369-.444-.566-1.316-.566-1.316-1.303 1.593-2.607 2.145-4.383 2.145-4.541 0-6.096-2.631-6.096-7.944v-7.156c0-6.575 4.491-8.795 10.24-10.947v-5.509c0-2.765-.934-3.691-2.291-3.691-1.639 0-2.703.532-2.703 3.34v2.802c0 1.11-.424 1.692-2.291 1.668h-2.727v-3.889c0-5.313 2.555-8.296 7.609-8.296 5.346-.001 7.826 2.46 7.826 7.713zm-5.421 10.287c-3.252 1.587-4.814 2.686-4.814 7.06v5.555c0 2.674.215 4.634 2.18 4.634 1.709 0 2.636-1.047 2.636-5.741V62.172h-.002zm71.863 1.134c0 17.472-7.089 33.309-18.545 44.764s-27.28 18.545-44.755 18.536c-17.481.009-33.314-7.081-44.767-18.536S0 80.778 0 63.306c0-17.481 7.089-33.305 18.545-44.761S45.833.002 63.312.002c17.476 0 33.3 7.089 44.755 18.545s18.545 27.28 18.545 44.759zm-12.787.009c0-27.905-22.617-50.525-50.513-50.525-27.905 0-50.525 22.621-50.525 50.525a50.326 50.326 0 0 0 10.462 30.779V44.403h2.657c.784 0 1.596-.041 2.137.994a4.83 4.83 0 0 1 .39 1.047c1.311-2.154 3.302-2.288 5.087-2.288 4.61 0 6.599 3.209 6.599 9.238V75.5c0 4.985-2.421 8.413-6.599 8.413-1.529 0-3.063-.209-4.496-1.962v18.452a50.284 50.284 0 0 0 34.289 13.424c27.895.001 50.512-22.617 50.512-50.512zM31.701 79.319c1.5.017 2.712-.453 2.712-4.642V52.932c0-4.119-1.014-4.616-2.48-4.616-1.852 0-2.907 1.433-2.907 4.848v22.571c-.002 2.244 1.43 3.569 2.675 3.584zm65.256-35.148a6.041 6.041 0 0 0-5.233 3.154c-1.145-2.531-3.046-3.154-5.238-3.154-1.811 0-3.473.738-4.683 2.401 0 0-.076-1.337-.753-1.835-.474-.343-.704-.335-1.399-.335h-3.183v39.276h5.756V53.515c0-3.997 1.102-4.894 2.875-4.894 1.316 0 2.526.596 2.526 3.372v31.684h5.651V53.515c0-3.997 1.098-4.894 2.875-4.894 1.308 0 2.523.596 2.523 3.372v31.684h5.656V53.623c-.004-6.046-2.271-9.452-7.373-9.452" /><path
   id="U"
   d="M63.175 34.078h8.133v49.598h-5.782V39.391c0-.343-.378-.573-.738-.573h-1.613v-4.74zM60.17 51.885v31.792h-3.122c-.378 0-.884.034-1.496-.712-.369-.444-.566-1.316-.566-1.316-1.303 1.593-2.607 2.145-4.383 2.145-4.541 0-6.096-2.631-6.096-7.944v-7.156c0-6.575 4.491-8.795 10.24-10.947v-5.509c0-2.765-.934-3.691-2.291-3.691-1.639 0-2.703.532-2.703 3.34v2.802c0 1.11-.424 1.692-2.291 1.668h-2.727v-3.889c0-5.313 2.555-8.296 7.609-8.296 5.346-.001 7.826 2.46 7.826 7.713zm-5.421 10.287c-3.252 1.587-4.814 2.686-4.814 7.06v5.555c0 2.674.215 4.634 2.18 4.634 1.709 0 2.636-1.047 2.636-5.741V62.172h-.002zm71.863 1.134c0 17.472-7.089 33.309-18.545 44.764s-27.28 18.545-44.755 18.536c-17.481.009-33.314-7.081-44.767-18.536S0 80.778 0 63.306c0-17.481 7.089-33.305 18.545-44.761S45.833.002 63.312.002c17.476 0 33.3 7.089 44.755 18.545s18.545 27.28 18.545 44.759zm-12.787.009c0-27.905-22.617-50.525-50.513-50.525-27.905 0-50.525 22.621-50.525 50.525a50.326 50.326 0 0 0 10.462 30.779V44.403h2.657c.784 0 1.596-.041 2.137.994a4.83 4.83 0 0 1 .39 1.047c1.311-2.154 3.302-2.288 5.087-2.288 4.61 0 6.599 3.209 6.599 9.238V75.5c0 4.985-2.421 8.413-6.599 8.413-1.529 0-3.063-.209-4.496-1.962v18.452a50.284 50.284 0 0 0 34.289 13.424c27.895.001 50.512-22.617 50.512-50.512zM31.701 79.319c1.5.017 2.712-.453 2.712-4.642V52.932c0-4.119-1.014-4.616-2.48-4.616-1.852 0-2.907 1.433-2.907 4.848v22.571c-.002 2.244 1.43 3.569 2.675 3.584zm65.256-35.148a6.041 6.041 0 0 0-5.233 3.154c-1.145-2.531-3.046-3.154-5.238-3.154-1.811 0-3.473.738-4.683 2.401 0 0-.076-1.337-.753-1.835-.474-.343-.704-.335-1.399-.335h-3.183v39.276h5.756V53.515c0-3.997 1.102-4.894 2.875-4.894 1.316 0 2.526.596 2.526 3.372v31.684h5.651V53.515c0-3.997 1.098-4.894 2.875-4.894 1.308 0 2.523.596 2.523 3.372v31.684h5.656V53.623c-.004-6.046-2.271-9.452-7.373-9.452" /><path
   id="W"
   d="M63.175 34.078h8.133v49.598h-5.782V39.391c0-.343-.378-.573-.738-.573h-1.613v-4.74zM60.17 51.885v31.792h-3.122c-.378 0-.884.034-1.496-.712-.369-.444-.566-1.316-.566-1.316-1.303 1.593-2.607 2.145-4.383 2.145-4.541 0-6.096-2.631-6.096-7.944v-7.156c0-6.575 4.491-8.795 10.24-10.947v-5.509c0-2.765-.934-3.691-2.291-3.691-1.639 0-2.703.532-2.703 3.34v2.802c0 1.11-.424 1.692-2.291 1.668h-2.727v-3.889c0-5.313 2.555-8.296 7.609-8.296 5.346-.001 7.826 2.46 7.826 7.713zm-5.421 10.287c-3.252 1.587-4.814 2.686-4.814 7.06v5.555c0 2.674.215 4.634 2.18 4.634 1.709 0 2.636-1.047 2.636-5.741V62.172h-.002zm71.863 1.134c0 17.472-7.089 33.309-18.545 44.764s-27.28 18.545-44.755 18.536c-17.481.009-33.314-7.081-44.767-18.536S0 80.778 0 63.306c0-17.481 7.089-33.305 18.545-44.761S45.833.002 63.312.002c17.476 0 33.3 7.089 44.755 18.545s18.545 27.28 18.545 44.759zm-12.787.009c0-27.905-22.617-50.525-50.513-50.525-27.905 0-50.525 22.621-50.525 50.525a50.326 50.326 0 0 0 10.462 30.779V44.403h2.657c.784 0 1.596-.041 2.137.994a4.83 4.83 0 0 1 .39 1.047c1.311-2.154 3.302-2.288 5.087-2.288 4.61 0 6.599 3.209 6.599 9.238V75.5c0 4.985-2.421 8.413-6.599 8.413-1.529 0-3.063-.209-4.496-1.962v18.452a50.284 50.284 0 0 0 34.289 13.424c27.895.001 50.512-22.617 50.512-50.512zM31.701 79.319c1.5.017 2.712-.453 2.712-4.642V52.932c0-4.119-1.014-4.616-2.48-4.616-1.852 0-2.907 1.433-2.907 4.848v22.571c-.002 2.244 1.43 3.569 2.675 3.584zm65.256-35.148a6.041 6.041 0 0 0-5.233 3.154c-1.145-2.531-3.046-3.154-5.238-3.154-1.811 0-3.473.738-4.683 2.401 0 0-.076-1.337-.753-1.835-.474-.343-.704-.335-1.399-.335h-3.183v39.276h5.756V53.515c0-3.997 1.102-4.894 2.875-4.894 1.316 0 2.526.596 2.526 3.372v31.684h5.651V53.515c0-3.997 1.098-4.894 2.875-4.894 1.308 0 2.523.596 2.523 3.372v31.684h5.656V53.623c-.004-6.046-2.271-9.452-7.373-9.452" /><path
   id="Y"
   d="M63.175 34.078h8.133v49.598h-5.782V39.391c0-.343-.378-.573-.738-.573h-1.613v-4.74zM60.17 51.885v31.792h-3.122c-.378 0-.884.034-1.496-.712-.369-.444-.566-1.316-.566-1.316-1.303 1.593-2.607 2.145-4.383 2.145-4.541 0-6.096-2.631-6.096-7.944v-7.156c0-6.575 4.491-8.795 10.24-10.947v-5.509c0-2.765-.934-3.691-2.291-3.691-1.639 0-2.703.532-2.703 3.34v2.802c0 1.11-.424 1.692-2.291 1.668h-2.727v-3.889c0-5.313 2.555-8.296 7.609-8.296 5.346-.001 7.826 2.46 7.826 7.713zm-5.421 10.287c-3.252 1.587-4.814 2.686-4.814 7.06v5.555c0 2.674.215 4.634 2.18 4.634 1.709 0 2.636-1.047 2.636-5.741V62.172h-.002zm71.863 1.134c0 17.472-7.089 33.309-18.545 44.764s-27.28 18.545-44.755 18.536c-17.481.009-33.314-7.081-44.767-18.536S0 80.778 0 63.306c0-17.481 7.089-33.305 18.545-44.761S45.833.002 63.312.002c17.476 0 33.3 7.089 44.755 18.545s18.545 27.28 18.545 44.759zm-12.787.009c0-27.905-22.617-50.525-50.513-50.525-27.905 0-50.525 22.621-50.525 50.525a50.326 50.326 0 0 0 10.462 30.779V44.403h2.657c.784 0 1.596-.041 2.137.994a4.83 4.83 0 0 1 .39 1.047c1.311-2.154 3.302-2.288 5.087-2.288 4.61 0 6.599 3.209 6.599 9.238V75.5c0 4.985-2.421 8.413-6.599 8.413-1.529 0-3.063-.209-4.496-1.962v18.452a50.284 50.284 0 0 0 34.289 13.424c27.895.001 50.512-22.617 50.512-50.512zM31.701 79.319c1.5.017 2.712-.453 2.712-4.642V52.932c0-4.119-1.014-4.616-2.48-4.616-1.852 0-2.907 1.433-2.907 4.848v22.571c-.002 2.244 1.43 3.569 2.675 3.584zm65.256-35.148a6.041 6.041 0 0 0-5.233 3.154c-1.145-2.531-3.046-3.154-5.238-3.154-1.811 0-3.473.738-4.683 2.401 0 0-.076-1.337-.753-1.835-.474-.343-.704-.335-1.399-.335h-3.183v39.276h5.756V53.515c0-3.997 1.102-4.894 2.875-4.894 1.316 0 2.526.596 2.526 3.372v31.684h5.651V53.515c0-3.997 1.098-4.894 2.875-4.894 1.308 0 2.523.596 2.523 3.372v31.684h5.656V53.623c-.004-6.046-2.271-9.452-7.373-9.452" /><path
   id="aa"
   d="M63.175 34.078h8.133v49.598h-5.782V39.391c0-.343-.378-.573-.738-.573h-1.613v-4.74zM60.17 51.885v31.792h-3.122c-.378 0-.884.034-1.496-.712-.369-.444-.566-1.316-.566-1.316-1.303 1.593-2.607 2.145-4.383 2.145-4.541 0-6.096-2.631-6.096-7.944v-7.156c0-6.575 4.491-8.795 10.24-10.947v-5.509c0-2.765-.934-3.691-2.291-3.691-1.639 0-2.703.532-2.703 3.34v2.802c0 1.11-.424 1.692-2.291 1.668h-2.727v-3.889c0-5.313 2.555-8.296 7.609-8.296 5.346-.001 7.826 2.46 7.826 7.713zm-5.421 10.287c-3.252 1.587-4.814 2.686-4.814 7.06v5.555c0 2.674.215 4.634 2.18 4.634 1.709 0 2.636-1.047 2.636-5.741V62.172h-.002zm71.863 1.134c0 17.472-7.089 33.309-18.545 44.764s-27.28 18.545-44.755 18.536c-17.481.009-33.314-7.081-44.767-18.536S0 80.778 0 63.306c0-17.481 7.089-33.305 18.545-44.761S45.833.002 63.312.002c17.476 0 33.3 7.089 44.755 18.545s18.545 27.28 18.545 44.759zm-12.787.009c0-27.905-22.617-50.525-50.513-50.525-27.905 0-50.525 22.621-50.525 50.525a50.326 50.326 0 0 0 10.462 30.779V44.403h2.657c.784 0 1.596-.041 2.137.994a4.83 4.83 0 0 1 .39 1.047c1.311-2.154 3.302-2.288 5.087-2.288 4.61 0 6.599 3.209 6.599 9.238V75.5c0 4.985-2.421 8.413-6.599 8.413-1.529 0-3.063-.209-4.496-1.962v18.452a50.284 50.284 0 0 0 34.289 13.424c27.895.001 50.512-22.617 50.512-50.512zM31.701 79.319c1.5.017 2.712-.453 2.712-4.642V52.932c0-4.119-1.014-4.616-2.48-4.616-1.852 0-2.907 1.433-2.907 4.848v22.571c-.002 2.244 1.43 3.569 2.675 3.584zm65.256-35.148a6.041 6.041 0 0 0-5.233 3.154c-1.145-2.531-3.046-3.154-5.238-3.154-1.811 0-3.473.738-4.683 2.401 0 0-.076-1.337-.753-1.835-.474-.343-.704-.335-1.399-.335h-3.183v39.276h5.756V53.515c0-3.997 1.102-4.894 2.875-4.894 1.316 0 2.526.596 2.526 3.372v31.684h5.651V53.515c0-3.997 1.098-4.894 2.875-4.894 1.308 0 2.523.596 2.523 3.372v31.684h5.656V53.623c-.004-6.046-2.271-9.452-7.373-9.452" /><path
   id="ac"
   d="M63.175 34.078h8.133v49.598h-5.782V39.391c0-.343-.378-.573-.738-.573h-1.613v-4.74zM60.17 51.885v31.792h-3.122c-.378 0-.884.034-1.496-.712-.369-.444-.566-1.316-.566-1.316-1.303 1.593-2.607 2.145-4.383 2.145-4.541 0-6.096-2.631-6.096-7.944v-7.156c0-6.575 4.491-8.795 10.24-10.947v-5.509c0-2.765-.934-3.691-2.291-3.691-1.639 0-2.703.532-2.703 3.34v2.802c0 1.11-.424 1.692-2.291 1.668h-2.727v-3.889c0-5.313 2.555-8.296 7.609-8.296 5.346-.001 7.826 2.46 7.826 7.713zm-5.421 10.287c-3.252 1.587-4.814 2.686-4.814 7.06v5.555c0 2.674.215 4.634 2.18 4.634 1.709 0 2.636-1.047 2.636-5.741V62.172h-.002zm71.863 1.134c0 17.472-7.089 33.309-18.545 44.764s-27.28 18.545-44.755 18.536c-17.481.009-33.314-7.081-44.767-18.536S0 80.778 0 63.306c0-17.481 7.089-33.305 18.545-44.761S45.833.002 63.312.002c17.476 0 33.3 7.089 44.755 18.545s18.545 27.28 18.545 44.759zm-12.787.009c0-27.905-22.617-50.525-50.513-50.525-27.905 0-50.525 22.621-50.525 50.525a50.326 50.326 0 0 0 10.462 30.779V44.403h2.657c.784 0 1.596-.041 2.137.994a4.83 4.83 0 0 1 .39 1.047c1.311-2.154 3.302-2.288 5.087-2.288 4.61 0 6.599 3.209 6.599 9.238V75.5c0 4.985-2.421 8.413-6.599 8.413-1.529 0-3.063-.209-4.496-1.962v18.452a50.284 50.284 0 0 0 34.289 13.424c27.895.001 50.512-22.617 50.512-50.512zM31.701 79.319c1.5.017 2.712-.453 2.712-4.642V52.932c0-4.119-1.014-4.616-2.48-4.616-1.852 0-2.907 1.433-2.907 4.848v22.571c-.002 2.244 1.43 3.569 2.675 3.584zm65.256-35.148a6.041 6.041 0 0 0-5.233 3.154c-1.145-2.531-3.046-3.154-5.238-3.154-1.811 0-3.473.738-4.683 2.401 0 0-.076-1.337-.753-1.835-.474-.343-.704-.335-1.399-.335h-3.183v39.276h5.756V53.515c0-3.997 1.102-4.894 2.875-4.894 1.316 0 2.526.596 2.526 3.372v31.684h5.651V53.515c0-3.997 1.098-4.894 2.875-4.894 1.308 0 2.523.596 2.523 3.372v31.684h5.656V53.623c-.004-6.046-2.271-9.452-7.373-9.452" /><path
   id="ae"
   d="M63.175 34.078h8.133v49.598h-5.782V39.391c0-.343-.378-.573-.738-.573h-1.613v-4.74zM60.17 51.885v31.792h-3.122c-.378 0-.884.034-1.496-.712-.369-.444-.566-1.316-.566-1.316-1.303 1.593-2.607 2.145-4.383 2.145-4.541 0-6.096-2.631-6.096-7.944v-7.156c0-6.575 4.491-8.795 10.24-10.947v-5.509c0-2.765-.934-3.691-2.291-3.691-1.639 0-2.703.532-2.703 3.34v2.802c0 1.11-.424 1.692-2.291 1.668h-2.727v-3.889c0-5.313 2.555-8.296 7.609-8.296 5.346-.001 7.826 2.46 7.826 7.713zm-5.421 10.287c-3.252 1.587-4.814 2.686-4.814 7.06v5.555c0 2.674.215 4.634 2.18 4.634 1.709 0 2.636-1.047 2.636-5.741V62.172h-.002zm71.863 1.134c0 17.472-7.089 33.309-18.545 44.764s-27.28 18.545-44.755 18.536c-17.481.009-33.314-7.081-44.767-18.536S0 80.778 0 63.306c0-17.481 7.089-33.305 18.545-44.761S45.833.002 63.312.002c17.476 0 33.3 7.089 44.755 18.545s18.545 27.28 18.545 44.759zm-12.787.009c0-27.905-22.617-50.525-50.513-50.525-27.905 0-50.525 22.621-50.525 50.525a50.326 50.326 0 0 0 10.462 30.779V44.403h2.657c.784 0 1.596-.041 2.137.994a4.83 4.83 0 0 1 .39 1.047c1.311-2.154 3.302-2.288 5.087-2.288 4.61 0 6.599 3.209 6.599 9.238V75.5c0 4.985-2.421 8.413-6.599 8.413-1.529 0-3.063-.209-4.496-1.962v18.452a50.284 50.284 0 0 0 34.289 13.424c27.895.001 50.512-22.617 50.512-50.512zM31.701 79.319c1.5.017 2.712-.453 2.712-4.642V52.932c0-4.119-1.014-4.616-2.48-4.616-1.852 0-2.907 1.433-2.907 4.848v22.571c-.002 2.244 1.43 3.569 2.675 3.584zm65.256-35.148a6.041 6.041 0 0 0-5.233 3.154c-1.145-2.531-3.046-3.154-5.238-3.154-1.811 0-3.473.738-4.683 2.401 0 0-.076-1.337-.753-1.835-.474-.343-.704-.335-1.399-.335h-3.183v39.276h5.756V53.515c0-3.997 1.102-4.894 2.875-4.894 1.316 0 2.526.596 2.526 3.372v31.684h5.651V53.515c0-3.997 1.098-4.894 2.875-4.894 1.308 0 2.523.596 2.523 3.372v31.684h5.656V53.623c-.004-6.046-2.271-9.452-7.373-9.452" /><path
   id="ag"
   d="M63.175 34.078h8.133v49.598h-5.782V39.391c0-.343-.378-.573-.738-.573h-1.613v-4.74zM60.17 51.885v31.792h-3.122c-.378 0-.884.034-1.496-.712-.369-.444-.566-1.316-.566-1.316-1.303 1.593-2.607 2.145-4.383 2.145-4.541 0-6.096-2.631-6.096-7.944v-7.156c0-6.575 4.491-8.795 10.24-10.947v-5.509c0-2.765-.934-3.691-2.291-3.691-1.639 0-2.703.532-2.703 3.34v2.802c0 1.11-.424 1.692-2.291 1.668h-2.727v-3.889c0-5.313 2.555-8.296 7.609-8.296 5.346-.001 7.826 2.46 7.826 7.713zm-5.421 10.287c-3.252 1.587-4.814 2.686-4.814 7.06v5.555c0 2.674.215 4.634 2.18 4.634 1.709 0 2.636-1.047 2.636-5.741V62.172h-.002zm71.863 1.134c0 17.472-7.089 33.309-18.545 44.764s-27.28 18.545-44.755 18.536c-17.481.009-33.314-7.081-44.767-18.536S0 80.778 0 63.306c0-17.481 7.089-33.305 18.545-44.761S45.833.002 63.312.002c17.476 0 33.3 7.089 44.755 18.545s18.545 27.28 18.545 44.759zm-12.787.009c0-27.905-22.617-50.525-50.513-50.525-27.905 0-50.525 22.621-50.525 50.525a50.326 50.326 0 0 0 10.462 30.779V44.403h2.657c.784 0 1.596-.041 2.137.994a4.83 4.83 0 0 1 .39 1.047c1.311-2.154 3.302-2.288 5.087-2.288 4.61 0 6.599 3.209 6.599 9.238V75.5c0 4.985-2.421 8.413-6.599 8.413-1.529 0-3.063-.209-4.496-1.962v18.452a50.284 50.284 0 0 0 34.289 13.424c27.895.001 50.512-22.617 50.512-50.512zM31.701 79.319c1.5.017 2.712-.453 2.712-4.642V52.932c0-4.119-1.014-4.616-2.48-4.616-1.852 0-2.907 1.433-2.907 4.848v22.571c-.002 2.244 1.43 3.569 2.675 3.584zm65.256-35.148a6.041 6.041 0 0 0-5.233 3.154c-1.145-2.531-3.046-3.154-5.238-3.154-1.811 0-3.473.738-4.683 2.401 0 0-.076-1.337-.753-1.835-.474-.343-.704-.335-1.399-.335h-3.183v39.276h5.756V53.515c0-3.997 1.102-4.894 2.875-4.894 1.316 0 2.526.596 2.526 3.372v31.684h5.651V53.515c0-3.997 1.098-4.894 2.875-4.894 1.308 0 2.523.596 2.523 3.372v31.684h5.656V53.623c-.004-6.046-2.271-9.452-7.373-9.452" /><linearGradient
   id="linearGradient34773"
   gradientUnits="userSpaceOnUse"
   x1="15.196"
   y1="312.37051"
   x2="3854.196"
   y2="312.37051"
   gradientTransform="translate(1160.9631,-2.2896484e-5)">
				<stop
   offset="0"
   style="stop-color:#f3dd42;stop-opacity:1"
   id="stop34769" />
				<stop
   offset="1"
   style="stop-color:#d7861b;stop-opacity:1"
   id="stop34771" />
			</linearGradient><linearGradient
   id="SVGID_1_"
   gradientUnits="userSpaceOnUse"
   x1="15.196"
   y1="312.37051"
   x2="3854.196"
   y2="312.37051"
   gradientTransform="translate(1160.9631,-2.2896484e-5)">
				<stop
   offset="0"
   style="stop-color:#FF2422"
   id="stop4" />
				<stop
   offset="1"
   style="stop-color:#C24FFF"
   id="stop6" />
			</linearGradient><linearGradient
   xlink:href="#linearGradient34773"
   id="linearGradient6574"
   gradientUnits="userSpaceOnUse"
   gradientTransform="translate(1160.9631,-7.145e-5)"
   x1="15.196"
   y1="312.37051"
   x2="3588.2239"
   y2="316.50259" />
		
		
		
		
		
		
	
			
				<linearGradient
   id="SVGID_00000145054330599880703690000004533480753458681732_"
   gradientUnits="userSpaceOnUse"
   x1="2220.6216"
   y1="604.23328"
   x2="2220.6216"
   y2="16.339899">
				<stop
   offset="0"
   style="stop-color:#FF0000"
   id="stop78" />
				<stop
   offset="0.2634"
   style="stop-color:#E42372"
   id="stop80" />
				<stop
   offset="0.3192"
   style="stop-color:#FFA1FF"
   id="stop82" />
				<stop
   offset="0.4267"
   style="stop-color:#DA2F9A"
   id="stop84" />
				<stop
   offset="0.7554"
   style="stop-color:#CC41D4"
   id="stop86" />
				<stop
   offset="0.7881"
   style="stop-color:#FFA1FF"
   id="stop88" />
				<stop
   offset="0.8413"
   style="stop-color:#C846E3"
   id="stop90" />
				<stop
   offset="1"
   style="stop-color:#C24FFF"
   id="stop92" />
			</linearGradient>
			
		
			
				<linearGradient
   id="SVGID_00000135673619673579814740000002913345356260872074_"
   gradientUnits="userSpaceOnUse"
   x1="1037.5408"
   y1="604.23328"
   x2="1037.5408"
   y2="20.5096">
				<stop
   offset="0"
   style="stop-color:#FF0000"
   id="stop36" />
				<stop
   offset="0.2634"
   style="stop-color:#E42372"
   id="stop38" />
				<stop
   offset="0.3192"
   style="stop-color:#FFA1FF"
   id="stop40" />
				<stop
   offset="0.4267"
   style="stop-color:#DA2F9A"
   id="stop42" />
				<stop
   offset="0.7554"
   style="stop-color:#CC41D4"
   id="stop44" />
				<stop
   offset="0.7881"
   style="stop-color:#FFA1FF"
   id="stop46" />
				<stop
   offset="0.8413"
   style="stop-color:#C846E3"
   id="stop48" />
				<stop
   offset="1"
   style="stop-color:#C24FFF"
   id="stop50" />
			</linearGradient>
			
		
			
				<linearGradient
   id="SVGID_00000128444796063564815230000007252927678799283094_"
   gradientUnits="userSpaceOnUse"
   x1="357.92542"
   y1="604.23328"
   x2="357.92542"
   y2="16.339899">
				<stop
   offset="0"
   style="stop-color:#FF0000"
   id="stop15" />
				<stop
   offset="0.2634"
   style="stop-color:#E42372"
   id="stop17" />
				<stop
   offset="0.3192"
   style="stop-color:#FFA1FF"
   id="stop19" />
				<stop
   offset="0.4267"
   style="stop-color:#DA2F9A"
   id="stop21" />
				<stop
   offset="0.7554"
   style="stop-color:#CC41D4"
   id="stop23" />
				<stop
   offset="0.7881"
   style="stop-color:#FFA1FF"
   id="stop25" />
				<stop
   offset="0.8413"
   style="stop-color:#C846E3"
   id="stop27" />
				<stop
   offset="1"
   style="stop-color:#C24FFF"
   id="stop29" />
			</linearGradient>
			
		
			
				<linearGradient
   id="SVGID_00000021080724737336074490000000910687952145319586_"
   gradientUnits="userSpaceOnUse"
   x1="3526.8933"
   y1="604.23328"
   x2="3526.8933"
   y2="20.5096">
				<stop
   offset="0"
   style="stop-color:#FF0000"
   id="stop120" />
				<stop
   offset="0.2634"
   style="stop-color:#E42372"
   id="stop122" />
				<stop
   offset="0.3192"
   style="stop-color:#FFA1FF"
   id="stop124" />
				<stop
   offset="0.4267"
   style="stop-color:#DA2F9A"
   id="stop126" />
				<stop
   offset="0.7554"
   style="stop-color:#CC41D4"
   id="stop128" />
				<stop
   offset="0.7881"
   style="stop-color:#FFA1FF"
   id="stop130" />
				<stop
   offset="0.8413"
   style="stop-color:#C846E3"
   id="stop132" />
				<stop
   offset="1"
   style="stop-color:#C24FFF"
   id="stop134" />
			</linearGradient>
			
		
			
				<linearGradient
   id="SVGID_00000106148091704042031110000017185161894946614463_"
   gradientUnits="userSpaceOnUse"
   x1="2905.2402"
   y1="604.23328"
   x2="2905.2402"
   y2="20.5096">
				<stop
   offset="0"
   style="stop-color:#FF0000"
   id="stop99" />
				<stop
   offset="0.2634"
   style="stop-color:#E42372"
   id="stop101" />
				<stop
   offset="0.3192"
   style="stop-color:#FFA1FF"
   id="stop103" />
				<stop
   offset="0.4267"
   style="stop-color:#DA2F9A"
   id="stop105" />
				<stop
   offset="0.7554"
   style="stop-color:#CC41D4"
   id="stop107" />
				<stop
   offset="0.7881"
   style="stop-color:#FFA1FF"
   id="stop109" />
				<stop
   offset="0.8413"
   style="stop-color:#C846E3"
   id="stop111" />
				<stop
   offset="1"
   style="stop-color:#C24FFF"
   id="stop113" />
			</linearGradient>
			
		
			
				<linearGradient
   id="SVGID_00000093171400342485411010000004786870807831186310_"
   gradientUnits="userSpaceOnUse"
   x1="1682.7727"
   y1="616.74109"
   x2="1682.7727"
   y2="8.0001001">
				<stop
   offset="0"
   style="stop-color:#FF0000"
   id="stop57" />
				<stop
   offset="0.2634"
   style="stop-color:#E42372"
   id="stop59" />
				<stop
   offset="0.3192"
   style="stop-color:#FFA1FF"
   id="stop61" />
				<stop
   offset="0.4267"
   style="stop-color:#DA2F9A"
   id="stop63" />
				<stop
   offset="0.7554"
   style="stop-color:#CC41D4"
   id="stop65" />
				<stop
   offset="0.7881"
   style="stop-color:#FFA1FF"
   id="stop67" />
				<stop
   offset="0.8413"
   style="stop-color:#C846E3"
   id="stop69" />
				<stop
   offset="1"
   style="stop-color:#C24FFF"
   id="stop71" />
			</linearGradient>
			
		</defs><g
     inkscape:label="Layer 1"
     inkscape:groupmode="layer"
     id="layer1"><path
       id="rect231"
       style="fill:#ffffff;stroke-width:0.8001;stroke-linecap:square;paint-order:fill markers stroke"
       d="M 0 0 L 0 132.29167 L 47.014185 132.29167 C 44.483265 132.29167 42.746745 130.76382 42.746745 127.35088 L 42.746745 119.51829 L 44.006099 119.51829 L 44.006099 127.35088 C 44.006099 129.91372 45.061857 131.13773 47.031238 131.13773 C 48.969232 131.13773 50.04139 129.916 50.04139 127.35088 L 50.04139 119.51829 L 51.298161 119.51829 L 51.298161 127.35088 C 51.298161 130.76382 49.565077 132.29167 47.014185 132.29167 L 340.30998 132.29167 C 336.55326 132.29167 333.71296 129.50513 333.71296 125.83676 C 333.71296 122.08345 336.48563 119.29711 340.22523 119.29711 C 342.82691 119.29711 345.03691 120.62424 346.0042 122.78114 L 344.59189 122.78114 C 343.52188 121.09804 342.04401 120.45363 340.2738 120.45363 C 337.28292 120.45363 334.9873 122.76374 334.9873 125.78612 C 334.9873 128.72526 337.38501 131.13515 340.29086 131.13515 C 342.12898 131.13515 343.33449 130.44055 344.65958 128.77457 L 346.0533 128.77457 C 344.7984 131.10421 342.86029 132.29167 340.30998 132.29167 L 396.875 132.29167 L 396.875 0 L 155.25667 0 C 177.53675 0 196.76926 12.957959 205.86289 31.731396 L 194.28168 31.731396 C 186.13652 18.768962 171.71058 10.1446 155.25874 10.1446 C 129.82343 10.1446 109.20419 30.747225 109.20419 56.157812 C 109.20419 81.570688 129.82343 102.17102 155.25874 102.17102 C 173.32271 102.17102 188.94705 91.778176 196.49188 76.653719 L 207.58475 76.653719 C 199.38822 97.531023 179.05872 112.31821 155.25667 112.31821 C 124.21396 112.31821 99.047701 87.174724 99.047701 56.157812 C 99.047701 25.143187 124.21396 0 155.25667 0 L 0 0 z M 27.666528 2.5119914 L 55.106197 2.523877 C 67.304829 2.2199906 79.671177 7.9074841 86.771448 17.935339 C 91.539391 24.251494 94.211933 32.049711 94.659338 39.930379 C 95.169516 56.007559 84.950153 72.293123 69.524955 77.603532 C 63.757769 79.796911 57.644646 80.171638 51.505383 80.173918 L 38.832255 80.173918 L 38.832255 110.63201 L 27.666528 110.63201 L 27.666528 25.991178 L 27.593665 25.995829 L 27.666528 25.677502 L 27.666528 2.5119914 z M 224.80953 2.5119914 L 235.90188 2.5119914 L 245.37004 2.5119914 L 278.95145 2.5119914 L 303.25901 2.5119914 L 320.61971 32.851225 L 337.98299 2.5119914 L 362.72825 2.5119914 L 332.99363 54.472127 L 365.15497 110.6687 L 340.4092 110.6687 L 320.61971 76.092513 L 300.83228 110.6687 L 276.08702 110.6687 L 308.24837 54.472127 L 278.95145 3.2768026 L 278.95145 23.948409 L 245.37004 23.948409 L 245.37004 43.688289 L 277.40529 43.688289 L 277.40529 64.69941 L 245.37004 64.69941 L 245.37004 110.6687 L 224.80953 110.6687 L 224.80953 2.5119914 z M 38.722701 12.50363 L 38.832255 69.761633 C 45.134159 69.761633 51.174602 69.80783 57.340686 69.722876 C 65.629661 69.58946 73.651397 65.345236 78.5797 58.713212 C 85.643448 49.776054 86.297161 36.534299 80.568209 26.748755 C 75.994863 18.479816 66.915823 13.266473 57.57168 12.64729 C 51.296028 12.357652 45.010338 12.491649 38.722701 12.50363 z M 199.5873 43.688289 L 216.01472 43.688289 L 216.01472 64.69941 L 200.50921 64.69941 C 201.02966 61.930175 201.31381 59.080727 201.31381 56.160396 C 201.31381 51.836351 200.70354 47.65541 199.5873 43.688289 z M 27.23658 119.51829 L 29.1915 119.51829 L 33.764864 130.20239 L 38.319625 119.51829 L 40.276095 119.51829 L 40.276095 132.07049 L 39.01674 132.07049 L 39.01674 120.89598 L 34.289897 132.07049 L 33.203141 132.07049 L 28.493868 120.89598 L 28.493868 132.07049 L 27.23658 132.07049 L 27.23658 119.51829 z M 53.773979 119.51829 L 55.033333 119.51829 L 55.033333 130.93103 L 60.234566 130.93103 L 60.234566 132.07049 L 53.773979 132.07049 L 53.773979 119.51829 z M 67.89353 119.51829 L 69.152885 119.51829 L 69.152885 132.07049 L 67.89353 132.07049 L 67.89353 119.51829 z M 71.632837 119.51829 L 73.587756 119.51829 L 78.159054 130.20239 L 82.715881 119.51829 L 84.670284 119.51829 L 84.670284 132.07049 L 83.41403 132.07049 L 83.41403 120.89598 L 78.687187 132.07049 L 77.599915 132.07049 L 72.890125 120.89598 L 72.890125 132.07049 L 71.632837 132.07049 L 71.632837 119.51829 z M 87.146102 119.51829 L 94.012349 119.51829 L 94.012349 120.65517 L 88.403389 120.65517 L 88.403389 125.1567 L 93.825281 125.1567 L 93.825281 126.29358 L 88.403389 126.29358 L 88.403389 130.93103 L 94.012349 130.93103 L 94.012349 132.07049 L 87.146102 132.07049 L 87.146102 119.51829 z M 96.149687 119.51829 L 99.109196 119.51829 C 101.38731 119.51829 102.71218 119.79039 103.90374 120.50479 C 105.77325 121.60747 106.75834 123.47575 106.75834 125.83676 C 106.75834 129.45666 104.44573 132.07049 99.533976 132.07049 L 96.149687 132.07049 L 96.149687 119.51829 z M 108.68897 119.51829 L 109.94833 119.51829 L 109.94833 132.07049 L 108.68897 132.07049 L 108.68897 119.51829 z M 116.71019 119.51829 L 118.12302 119.51829 L 123.52838 132.07049 L 122.15223 132.07049 L 120.33116 127.84129 L 114.48345 127.84129 L 112.64739 132.07049 L 111.3224 132.07049 L 116.71019 119.51829 z M 129.50217 119.51829 L 136.37152 119.51829 L 136.37152 120.65517 L 130.75946 120.65517 L 130.75946 125.1567 L 136.18445 125.1567 L 136.18445 126.29358 L 130.75946 126.29358 L 130.75946 130.93103 L 136.37152 130.93103 L 136.37152 132.07049 L 129.50217 132.07049 L 129.50217 119.51829 z M 138.50627 119.51829 L 140.20798 119.51829 L 147.24476 129.93057 L 147.24476 119.51829 L 148.50463 119.51829 L 148.50463 132.07049 L 147.24734 132.07049 L 139.76563 121.03189 L 139.76563 132.07049 L 138.50627 132.07049 L 138.50627 119.51829 z M 158.11386 119.51829 L 164.98269 119.51829 L 164.98269 120.65517 L 159.37322 120.65517 L 159.37322 125.1567 L 164.79511 125.1567 L 164.79511 126.29358 L 159.37322 126.29358 L 159.37322 130.93103 L 164.98269 130.93103 L 164.98269 132.07049 L 158.11386 132.07049 L 158.11386 119.51829 z M 167.11951 119.51829 L 170.22992 119.51829 C 174.17381 119.51829 175.63527 120.94678 175.63527 123.56093 C 175.6376 125.78625 174.34385 127.12931 171.93162 127.38189 L 175.45027 132.07049 L 173.88654 132.07049 L 169.65373 126.38143 C 173.17191 126.38143 174.36093 125.7713 174.36093 123.51236 C 174.36093 121.42274 173.0699 120.65775 170.14465 120.65775 L 168.3768 120.65775 L 168.3768 132.07049 L 167.11951 132.07049 L 167.11951 119.51829 z M 187.90171 119.51829 L 189.31454 119.51829 L 194.71938 132.07049 L 193.34375 132.07049 L 191.52474 127.84129 L 185.67445 127.84129 L 183.83839 132.07049 L 182.51341 132.07049 L 187.90171 119.51829 z M 196.08881 119.51829 L 197.34816 119.51829 L 197.34816 132.07049 L 196.08881 132.07049 L 196.08881 119.51829 z M 199.82605 119.51829 L 201.52517 119.51829 L 208.56453 129.93057 L 208.56453 119.51829 L 209.82389 119.51829 L 209.82389 132.07049 L 208.56453 132.07049 L 201.0854 121.03189 L 201.0854 132.07049 L 199.82605 132.07049 L 199.82605 119.51829 z M 212.2997 119.51829 L 214.25411 119.51829 L 218.82799 130.20239 L 223.38223 119.51829 L 225.33715 119.51829 L 225.33715 132.07049 L 224.07986 132.07049 L 224.07986 120.89598 L 219.35302 132.07049 L 218.26575 132.07049 L 213.55647 120.89598 L 213.55647 132.07049 L 212.2997 132.07049 L 212.2997 119.51829 z M 227.81193 119.51829 L 234.67922 119.51829 L 234.67922 120.65517 L 229.06922 120.65517 L 229.06922 125.1567 L 234.49163 125.1567 L 234.49163 126.29358 L 229.06922 126.29358 L 229.06922 130.93103 L 234.67922 130.93103 L 234.67922 132.07049 L 227.81193 132.07049 L 227.81193 119.51829 z M 236.81604 119.51829 L 238.51567 119.51829 L 245.55504 129.93057 L 245.55504 119.51829 L 246.81181 119.51829 L 246.81181 132.07049 L 245.55504 132.07049 L 238.07332 121.03189 L 238.07332 132.07049 L 236.81604 132.07049 L 236.81604 119.51829 z M 261.02644 119.51829 L 264.496 119.51829 C 267.94627 119.51829 269.33963 120.68974 269.33963 123.32271 C 269.34196 125.70139 268.11672 126.99328 264.70012 126.99328 L 262.2858 126.99328 L 262.2858 132.07049 L 261.02644 132.07049 L 261.02644 119.51829 z M 270.98346 119.51829 L 272.24281 119.51829 L 272.24281 130.93103 L 277.44611 130.93103 L 277.44611 132.07049 L 270.98346 132.07049 L 270.98346 119.51829 z M 283.61008 119.51829 L 285.02291 119.51829 L 290.42775 132.07049 L 289.05212 132.07049 L 287.23053 127.84129 L 281.38282 127.84129 L 279.54676 132.07049 L 278.22178 132.07049 L 283.61008 119.51829 z M 289.26606 119.51829 L 290.65874 119.51829 L 294.22855 126.55145 L 297.88518 119.51829 L 299.26184 119.51829 L 294.87502 127.8754 L 294.87502 132.07049 L 293.61774 132.07049 L 293.61774 127.8754 L 289.26606 119.51829 z M 300.47933 119.51829 L 307.34868 119.51829 L 307.34868 120.65517 L 301.73662 120.65517 L 301.73662 125.1567 L 307.16161 125.1567 L 307.16161 126.29358 L 301.73662 126.29358 L 301.73662 130.93103 L 307.34868 130.93103 L 307.34868 132.07049 L 300.47933 132.07049 L 300.47933 119.51829 z M 309.48344 119.51829 L 312.59332 119.51829 C 316.53721 119.51829 318.00074 120.94678 318.00074 123.56093 C 318.00354 125.78625 316.71005 127.12931 314.29554 127.38189 L 317.81368 132.07049 L 316.25046 132.07049 L 312.01765 126.38143 C 315.53583 126.38143 316.72692 125.7713 316.72692 123.51236 C 316.72692 121.42274 315.43589 120.65775 312.51064 120.65775 L 310.74331 120.65775 L 310.74331 132.07049 L 309.48344 132.07049 L 309.48344 119.51829 z M 324.30114 119.51829 L 327.76862 119.51829 C 331.21888 119.51829 332.61381 120.68974 332.61381 123.32271 C 332.61381 125.70139 331.39105 126.99328 327.97275 126.99328 L 325.55842 126.99328 L 325.55842 132.07049 L 324.30114 132.07049 L 324.30114 119.51829 z M 352.57434 119.51829 L 358.94967 119.51829 L 358.94967 120.65517 L 353.83163 120.65517 L 353.83163 120.65775 L 353.83163 125.19339 L 358.7626 125.19339 L 358.7626 126.33027 L 353.83163 126.33027 L 353.83163 132.07049 L 352.57434 132.07049 L 352.57434 119.51829 z M 359.79561 119.51829 L 361.27407 119.51829 L 364.60824 124.54744 L 367.92173 119.51829 L 369.38365 119.51829 L 365.35444 125.64969 L 369.63842 132.07049 L 368.15789 132.07049 L 364.60514 126.70441 L 361.03584 132.07049 L 359.5579 132.07049 L 363.82534 125.64969 L 359.79561 119.51829 z M 59.584993 119.52087 L 66.589734 119.52087 L 66.589734 120.65775 L 63.716007 120.65775 L 63.716007 132.07049 L 62.45872 132.07049 L 62.45872 120.65775 L 59.584993 120.65775 L 59.584993 119.52087 z M 149.80533 119.52087 L 156.81058 119.52087 L 156.81058 120.65775 L 153.93686 120.65775 L 153.93686 132.07049 L 152.67957 132.07049 L 152.67957 120.65775 L 149.80533 120.65775 L 149.80533 119.52087 z M 176.16031 119.52087 L 183.16298 119.52087 L 183.16298 120.65775 L 180.29132 120.65775 L 180.29132 132.07049 L 179.03197 132.07049 L 179.03197 120.65775 L 176.16031 120.65775 L 176.16031 119.52087 z M 248.1156 119.52087 L 255.11828 119.52087 L 255.11828 120.65775 L 252.24662 120.65775 L 252.24662 132.07049 L 250.98726 132.07049 L 250.98726 120.65775 L 248.1156 120.65775 L 248.1156 119.52087 z M 97.409041 120.65775 L 97.409041 130.93361 L 99.159839 130.93361 C 101.38716 130.93361 102.67824 130.61085 103.68204 129.81378 C 104.83708 128.87872 105.484 127.43588 105.484 125.7887 C 105.484 123.91804 104.64995 122.33886 103.20559 121.47166 C 102.25257 120.89581 101.06359 120.65775 99.159839 120.65775 L 97.409041 120.65775 z M 262.2858 120.65775 L 262.2858 125.85382 L 264.61279 125.85382 C 267.11232 125.85382 268.06529 125.14264 268.06529 123.32271 C 268.06529 120.77698 266.46809 120.65775 264.0707 120.65775 L 262.2858 120.65775 z M 325.55842 120.65775 L 325.55842 125.85382 L 327.888 125.85382 C 330.38753 125.85382 331.3405 125.14264 331.3405 123.32271 C 331.3405 120.77698 329.73997 120.65775 327.34488 120.65775 L 325.55842 120.65775 z M 117.42539 120.94662 L 114.95991 126.70441 L 119.83971 126.70441 L 117.42539 120.94662 z M 188.61691 120.94662 L 186.15091 126.70441 L 191.02865 126.70441 L 188.61691 120.94662 z M 284.32528 120.94662 L 281.85928 126.70441 L 286.7396 126.70441 L 284.32528 120.94662 z M 348.89808 125.09366 C 349.39171 125.09366 349.81482 125.50187 349.81482 126.00988 C 349.81482 126.52016 349.39171 126.92559 348.89808 126.92559 C 348.38733 126.92559 347.98083 126.52016 347.98083 126.00988 C 347.98083 125.50187 348.38733 125.09366 348.89808 125.09366 z " /><g
       transform="matrix(0.11641667,0,0,0.11631136,29.258447,176.9052)"
       id="g3503" /></g><style
     type="text/css"
     id="style2">
	.st0{fill:#F05100;}
	.st1{fill:#FFFFFF;}
	.st2{fill:#1281C4;}
	.st3{fill:#034693;}
	.st4{fill:#CF3312;}
</style><style
     type="text/css"
     id="style2-4">
	.st0{fill:#FFFFFF;}
	.st1{fill:#FF0000;}
	.st2{fill:url(#SVGID_1_);}
	.st3{fill:url(#SVGID_00000060022068257817767130000001067164073883981741_);}
	.st4{fill:url(#SVGID_00000144308182761068376180000004131709304805192586_);}
	.st5{fill:url(#SVGID_00000000935997520668853970000011105419993307822477_);}
	.st6{fill:url(#SVGID_00000018200174457167754170000000853354448091225986_);}
	.st7{fill:url(#SVGID_00000072987630451721579260000010409738167651109522_);}
	.st8{fill:#3636FF;}
	.st9{display:none;}
	.st10{display:inline;}
	.st11{enable-background:new    ;}
	.st12{fill:url(#SVGID_00000099639162208554751810000013272208193612295339_);}
	.st13{fill:url(#SVGID_00000158736166008707814920000018426778185460247990_);}
	.st14{fill:url(#SVGID_00000133527000259551881150000004185836194023049859_);}
	.st15{fill:url(#SVGID_00000093164219829473752460000004603917870326250679_);}
	.st16{fill:url(#SVGID_00000156556395246081825560000005894267688922753411_);}
	.st17{fill:url(#SVGID_00000135690321830567168220000000437954853257014148_);}
	.st18{fill:url(#SVGID_00000040565659643257570880000002075315462357006765_);}
	.st19{fill:url(#SVGID_00000017508175736194757820000008863537906517323707_);}
	.st20{fill:url(#SVGID_00000126293465477839731700000000626789561221784705_);}
	.st21{fill:url(#SVGID_00000087403315896914670680000008996143154280075168_);}
	.st22{fill:url(#SVGID_00000151540686432933406660000011628697137491540393_);}
	.st23{fill:url(#SVGID_00000143589059756432772880000012524823099024141722_);}
	.st24{fill:url(#SVGID_00000052088033699595628130000015515451372212444082_);}
	.st25{fill:url(#SVGID_00000126294377186336552610000001799937443100725399_);}
	.st26{fill:url(#SVGID_00000070835762807858034660000013936331226864194476_);}
	.st27{fill:url(#SVGID_00000092457199491666826160000016742156659903073436_);}
	.st28{fill:url(#SVGID_00000138556585880754416440000017272986633013561527_);}
	.st29{fill:url(#SVGID_00000032624778419303139080000015394367773870234245_);}
	.st30{fill:url(#SVGID_00000040539262103052545880000003837399106474199717_);}
	.st31{fill:url(#SVGID_00000115483974547727894610000006699104590764616355_);}
	.st32{fill:url(#SVGID_00000041285316495664937430000010139118778734034608_);}
	.st33{fill:url(#SVGID_00000178199001922562380240000009661348160359078294_);}
	.st34{fill:url(#SVGID_00000145019290134935790460000010249637267404127883_);}
	.st35{fill:url(#SVGID_00000117636406951782473700000003654222835714608307_);}
	.st36{fill:url(#SVGID_00000158745280490234840560000003483236744759648947_);}
	.st37{fill:url(#SVGID_00000146474604070782972690000015670225624893543309_);}
	.st38{fill:url(#SVGID_00000173847499186819278890000011550608873747634579_);}
	.st39{fill:url(#SVGID_00000141427567100195222880000010417319602782459071_);}
</style></svg>
