<?xml version="1.0" encoding="UTF-8" standalone="no"?>
<!-- Created with Inkscape (http://www.inkscape.org/) -->

<svg
   width="1500"
   height="500"
   viewBox="0 0 396.87498 132.29167"
   version="1.1"
   id="svg5"
   inkscape:version="1.2.2 (732a01da63, 2022-12-09)"
   xml:space="preserve"
   sodipodi:docname="sega32xna.svg"
   xmlns:inkscape="http://www.inkscape.org/namespaces/inkscape"
   xmlns:sodipodi="http://sodipodi.sourceforge.net/DTD/sodipodi-0.dtd"
   xmlns:xlink="http://www.w3.org/1999/xlink"
   xmlns="http://www.w3.org/2000/svg"
   xmlns:svg="http://www.w3.org/2000/svg"><sodipodi:namedview
     id="namedview7"
     pagecolor="#000000"
     bordercolor="#111111"
     borderopacity="1"
     inkscape:showpageshadow="0"
     inkscape:pageopacity="0"
     inkscape:pagecheckerboard="1"
     inkscape:deskcolor="#d1d1d1"
     inkscape:document-units="mm"
     showgrid="false"
     inkscape:zoom="0.5"
     inkscape:cx="-24"
     inkscape:cy="142"
     inkscape:window-width="1920"
     inkscape:window-height="1009"
     inkscape:window-x="-8"
     inkscape:window-y="-8"
     inkscape:window-maximized="1"
     inkscape:current-layer="layer1" /><defs
     id="defs2">
		
		
	
			
				
			
		
			
			
			
			
			
				
			
			
			
			
			
		
		
		
		
	<path
   id="a"
   d="M63.175 34.078h8.133v49.598h-5.782V39.391c0-.343-.378-.573-.738-.573h-1.613v-4.74zM60.17 51.885v31.792h-3.122c-.378 0-.884.034-1.496-.712-.369-.444-.566-1.316-.566-1.316-1.303 1.593-2.607 2.145-4.383 2.145-4.541 0-6.096-2.631-6.096-7.944v-7.156c0-6.575 4.491-8.795 10.24-10.947v-5.509c0-2.765-.934-3.691-2.291-3.691-1.639 0-2.703.532-2.703 3.34v2.802c0 1.11-.424 1.692-2.291 1.668h-2.727v-3.889c0-5.313 2.555-8.296 7.609-8.296 5.346-.001 7.826 2.46 7.826 7.713zm-5.421 10.287c-3.252 1.587-4.814 2.686-4.814 7.06v5.555c0 2.674.215 4.634 2.18 4.634 1.709 0 2.636-1.047 2.636-5.741V62.172h-.002zm71.863 1.134c0 17.472-7.089 33.309-18.545 44.764s-27.28 18.545-44.755 18.536c-17.481.009-33.314-7.081-44.767-18.536S0 80.778 0 63.306c0-17.481 7.089-33.305 18.545-44.761S45.833.002 63.312.002c17.476 0 33.3 7.089 44.755 18.545s18.545 27.28 18.545 44.759zm-12.787.009c0-27.905-22.617-50.525-50.513-50.525-27.905 0-50.525 22.621-50.525 50.525a50.326 50.326 0 0 0 10.462 30.779V44.403h2.657c.784 0 1.596-.041 2.137.994a4.83 4.83 0 0 1 .39 1.047c1.311-2.154 3.302-2.288 5.087-2.288 4.61 0 6.599 3.209 6.599 9.238V75.5c0 4.985-2.421 8.413-6.599 8.413-1.529 0-3.063-.209-4.496-1.962v18.452a50.284 50.284 0 0 0 34.289 13.424c27.895.001 50.512-22.617 50.512-50.512zM31.701 79.319c1.5.017 2.712-.453 2.712-4.642V52.932c0-4.119-1.014-4.616-2.48-4.616-1.852 0-2.907 1.433-2.907 4.848v22.571c-.002 2.244 1.43 3.569 2.675 3.584zm65.256-35.148a6.041 6.041 0 0 0-5.233 3.154c-1.145-2.531-3.046-3.154-5.238-3.154-1.811 0-3.473.738-4.683 2.401 0 0-.076-1.337-.753-1.835-.474-.343-.704-.335-1.399-.335h-3.183v39.276h5.756V53.515c0-3.997 1.102-4.894 2.875-4.894 1.316 0 2.526.596 2.526 3.372v31.684h5.651V53.515c0-3.997 1.098-4.894 2.875-4.894 1.308 0 2.523.596 2.523 3.372v31.684h5.656V53.623c-.004-6.046-2.271-9.452-7.373-9.452" /><path
   id="c"
   d="M63.175 34.078h8.133v49.598h-5.782V39.391c0-.343-.378-.573-.738-.573h-1.613v-4.74zM60.17 51.885v31.792h-3.122c-.378 0-.884.034-1.496-.712-.369-.444-.566-1.316-.566-1.316-1.303 1.593-2.607 2.145-4.383 2.145-4.541 0-6.096-2.631-6.096-7.944v-7.156c0-6.575 4.491-8.795 10.24-10.947v-5.509c0-2.765-.934-3.691-2.291-3.691-1.639 0-2.703.532-2.703 3.34v2.802c0 1.11-.424 1.692-2.291 1.668h-2.727v-3.889c0-5.313 2.555-8.296 7.609-8.296 5.346-.001 7.826 2.46 7.826 7.713zm-5.421 10.287c-3.252 1.587-4.814 2.686-4.814 7.06v5.555c0 2.674.215 4.634 2.18 4.634 1.709 0 2.636-1.047 2.636-5.741V62.172h-.002zm71.863 1.134c0 17.472-7.089 33.309-18.545 44.764s-27.28 18.545-44.755 18.536c-17.481.009-33.314-7.081-44.767-18.536S0 80.778 0 63.306c0-17.481 7.089-33.305 18.545-44.761S45.833.002 63.312.002c17.476 0 33.3 7.089 44.755 18.545s18.545 27.28 18.545 44.759zm-12.787.009c0-27.905-22.617-50.525-50.513-50.525-27.905 0-50.525 22.621-50.525 50.525a50.326 50.326 0 0 0 10.462 30.779V44.403h2.657c.784 0 1.596-.041 2.137.994a4.83 4.83 0 0 1 .39 1.047c1.311-2.154 3.302-2.288 5.087-2.288 4.61 0 6.599 3.209 6.599 9.238V75.5c0 4.985-2.421 8.413-6.599 8.413-1.529 0-3.063-.209-4.496-1.962v18.452a50.284 50.284 0 0 0 34.289 13.424c27.895.001 50.512-22.617 50.512-50.512zM31.701 79.319c1.5.017 2.712-.453 2.712-4.642V52.932c0-4.119-1.014-4.616-2.48-4.616-1.852 0-2.907 1.433-2.907 4.848v22.571c-.002 2.244 1.43 3.569 2.675 3.584zm65.256-35.148a6.041 6.041 0 0 0-5.233 3.154c-1.145-2.531-3.046-3.154-5.238-3.154-1.811 0-3.473.738-4.683 2.401 0 0-.076-1.337-.753-1.835-.474-.343-.704-.335-1.399-.335h-3.183v39.276h5.756V53.515c0-3.997 1.102-4.894 2.875-4.894 1.316 0 2.526.596 2.526 3.372v31.684h5.651V53.515c0-3.997 1.098-4.894 2.875-4.894 1.308 0 2.523.596 2.523 3.372v31.684h5.656V53.623c-.004-6.046-2.271-9.452-7.373-9.452" /><path
   id="e"
   d="M63.175 34.078h8.133v49.598h-5.782V39.391c0-.343-.378-.573-.738-.573h-1.613v-4.74zM60.17 51.885v31.792h-3.122c-.378 0-.884.034-1.496-.712-.369-.444-.566-1.316-.566-1.316-1.303 1.593-2.607 2.145-4.383 2.145-4.541 0-6.096-2.631-6.096-7.944v-7.156c0-6.575 4.491-8.795 10.24-10.947v-5.509c0-2.765-.934-3.691-2.291-3.691-1.639 0-2.703.532-2.703 3.34v2.802c0 1.11-.424 1.692-2.291 1.668h-2.727v-3.889c0-5.313 2.555-8.296 7.609-8.296 5.346-.001 7.826 2.46 7.826 7.713zm-5.421 10.287c-3.252 1.587-4.814 2.686-4.814 7.06v5.555c0 2.674.215 4.634 2.18 4.634 1.709 0 2.636-1.047 2.636-5.741V62.172h-.002zm71.863 1.134c0 17.472-7.089 33.309-18.545 44.764s-27.28 18.545-44.755 18.536c-17.481.009-33.314-7.081-44.767-18.536S0 80.778 0 63.306c0-17.481 7.089-33.305 18.545-44.761S45.833.002 63.312.002c17.476 0 33.3 7.089 44.755 18.545s18.545 27.28 18.545 44.759zm-12.787.009c0-27.905-22.617-50.525-50.513-50.525-27.905 0-50.525 22.621-50.525 50.525a50.326 50.326 0 0 0 10.462 30.779V44.403h2.657c.784 0 1.596-.041 2.137.994a4.83 4.83 0 0 1 .39 1.047c1.311-2.154 3.302-2.288 5.087-2.288 4.61 0 6.599 3.209 6.599 9.238V75.5c0 4.985-2.421 8.413-6.599 8.413-1.529 0-3.063-.209-4.496-1.962v18.452a50.284 50.284 0 0 0 34.289 13.424c27.895.001 50.512-22.617 50.512-50.512zM31.701 79.319c1.5.017 2.712-.453 2.712-4.642V52.932c0-4.119-1.014-4.616-2.48-4.616-1.852 0-2.907 1.433-2.907 4.848v22.571c-.002 2.244 1.43 3.569 2.675 3.584zm65.256-35.148a6.041 6.041 0 0 0-5.233 3.154c-1.145-2.531-3.046-3.154-5.238-3.154-1.811 0-3.473.738-4.683 2.401 0 0-.076-1.337-.753-1.835-.474-.343-.704-.335-1.399-.335h-3.183v39.276h5.756V53.515c0-3.997 1.102-4.894 2.875-4.894 1.316 0 2.526.596 2.526 3.372v31.684h5.651V53.515c0-3.997 1.098-4.894 2.875-4.894 1.308 0 2.523.596 2.523 3.372v31.684h5.656V53.623c-.004-6.046-2.271-9.452-7.373-9.452" /><path
   id="g"
   d="M63.175 34.078h8.133v49.598h-5.782V39.391c0-.343-.378-.573-.738-.573h-1.613v-4.74zM60.17 51.885v31.792h-3.122c-.378 0-.884.034-1.496-.712-.369-.444-.566-1.316-.566-1.316-1.303 1.593-2.607 2.145-4.383 2.145-4.541 0-6.096-2.631-6.096-7.944v-7.156c0-6.575 4.491-8.795 10.24-10.947v-5.509c0-2.765-.934-3.691-2.291-3.691-1.639 0-2.703.532-2.703 3.34v2.802c0 1.11-.424 1.692-2.291 1.668h-2.727v-3.889c0-5.313 2.555-8.296 7.609-8.296 5.346-.001 7.826 2.46 7.826 7.713zm-5.421 10.287c-3.252 1.587-4.814 2.686-4.814 7.06v5.555c0 2.674.215 4.634 2.18 4.634 1.709 0 2.636-1.047 2.636-5.741V62.172h-.002zm71.863 1.134c0 17.472-7.089 33.309-18.545 44.764s-27.28 18.545-44.755 18.536c-17.481.009-33.314-7.081-44.767-18.536S0 80.778 0 63.306c0-17.481 7.089-33.305 18.545-44.761S45.833.002 63.312.002c17.476 0 33.3 7.089 44.755 18.545s18.545 27.28 18.545 44.759zm-12.787.009c0-27.905-22.617-50.525-50.513-50.525-27.905 0-50.525 22.621-50.525 50.525a50.326 50.326 0 0 0 10.462 30.779V44.403h2.657c.784 0 1.596-.041 2.137.994a4.83 4.83 0 0 1 .39 1.047c1.311-2.154 3.302-2.288 5.087-2.288 4.61 0 6.599 3.209 6.599 9.238V75.5c0 4.985-2.421 8.413-6.599 8.413-1.529 0-3.063-.209-4.496-1.962v18.452a50.284 50.284 0 0 0 34.289 13.424c27.895.001 50.512-22.617 50.512-50.512zM31.701 79.319c1.5.017 2.712-.453 2.712-4.642V52.932c0-4.119-1.014-4.616-2.48-4.616-1.852 0-2.907 1.433-2.907 4.848v22.571c-.002 2.244 1.43 3.569 2.675 3.584zm65.256-35.148a6.041 6.041 0 0 0-5.233 3.154c-1.145-2.531-3.046-3.154-5.238-3.154-1.811 0-3.473.738-4.683 2.401 0 0-.076-1.337-.753-1.835-.474-.343-.704-.335-1.399-.335h-3.183v39.276h5.756V53.515c0-3.997 1.102-4.894 2.875-4.894 1.316 0 2.526.596 2.526 3.372v31.684h5.651V53.515c0-3.997 1.098-4.894 2.875-4.894 1.308 0 2.523.596 2.523 3.372v31.684h5.656V53.623c-.004-6.046-2.271-9.452-7.373-9.452" /><path
   id="i"
   d="M63.175 34.078h8.133v49.598h-5.782V39.391c0-.343-.378-.573-.738-.573h-1.613v-4.74zM60.17 51.885v31.792h-3.122c-.378 0-.884.034-1.496-.712-.369-.444-.566-1.316-.566-1.316-1.303 1.593-2.607 2.145-4.383 2.145-4.541 0-6.096-2.631-6.096-7.944v-7.156c0-6.575 4.491-8.795 10.24-10.947v-5.509c0-2.765-.934-3.691-2.291-3.691-1.639 0-2.703.532-2.703 3.34v2.802c0 1.11-.424 1.692-2.291 1.668h-2.727v-3.889c0-5.313 2.555-8.296 7.609-8.296 5.346-.001 7.826 2.46 7.826 7.713zm-5.421 10.287c-3.252 1.587-4.814 2.686-4.814 7.06v5.555c0 2.674.215 4.634 2.18 4.634 1.709 0 2.636-1.047 2.636-5.741V62.172h-.002zm71.863 1.134c0 17.472-7.089 33.309-18.545 44.764s-27.28 18.545-44.755 18.536c-17.481.009-33.314-7.081-44.767-18.536S0 80.778 0 63.306c0-17.481 7.089-33.305 18.545-44.761S45.833.002 63.312.002c17.476 0 33.3 7.089 44.755 18.545s18.545 27.28 18.545 44.759zm-12.787.009c0-27.905-22.617-50.525-50.513-50.525-27.905 0-50.525 22.621-50.525 50.525a50.326 50.326 0 0 0 10.462 30.779V44.403h2.657c.784 0 1.596-.041 2.137.994a4.83 4.83 0 0 1 .39 1.047c1.311-2.154 3.302-2.288 5.087-2.288 4.61 0 6.599 3.209 6.599 9.238V75.5c0 4.985-2.421 8.413-6.599 8.413-1.529 0-3.063-.209-4.496-1.962v18.452a50.284 50.284 0 0 0 34.289 13.424c27.895.001 50.512-22.617 50.512-50.512zM31.701 79.319c1.5.017 2.712-.453 2.712-4.642V52.932c0-4.119-1.014-4.616-2.48-4.616-1.852 0-2.907 1.433-2.907 4.848v22.571c-.002 2.244 1.43 3.569 2.675 3.584zm65.256-35.148a6.041 6.041 0 0 0-5.233 3.154c-1.145-2.531-3.046-3.154-5.238-3.154-1.811 0-3.473.738-4.683 2.401 0 0-.076-1.337-.753-1.835-.474-.343-.704-.335-1.399-.335h-3.183v39.276h5.756V53.515c0-3.997 1.102-4.894 2.875-4.894 1.316 0 2.526.596 2.526 3.372v31.684h5.651V53.515c0-3.997 1.098-4.894 2.875-4.894 1.308 0 2.523.596 2.523 3.372v31.684h5.656V53.623c-.004-6.046-2.271-9.452-7.373-9.452" /><path
   id="k"
   d="M63.175 34.078h8.133v49.598h-5.782V39.391c0-.343-.378-.573-.738-.573h-1.613v-4.74zM60.17 51.885v31.792h-3.122c-.378 0-.884.034-1.496-.712-.369-.444-.566-1.316-.566-1.316-1.303 1.593-2.607 2.145-4.383 2.145-4.541 0-6.096-2.631-6.096-7.944v-7.156c0-6.575 4.491-8.795 10.24-10.947v-5.509c0-2.765-.934-3.691-2.291-3.691-1.639 0-2.703.532-2.703 3.34v2.802c0 1.11-.424 1.692-2.291 1.668h-2.727v-3.889c0-5.313 2.555-8.296 7.609-8.296 5.346-.001 7.826 2.46 7.826 7.713zm-5.421 10.287c-3.252 1.587-4.814 2.686-4.814 7.06v5.555c0 2.674.215 4.634 2.18 4.634 1.709 0 2.636-1.047 2.636-5.741V62.172h-.002zm71.863 1.134c0 17.472-7.089 33.309-18.545 44.764s-27.28 18.545-44.755 18.536c-17.481.009-33.314-7.081-44.767-18.536S0 80.778 0 63.306c0-17.481 7.089-33.305 18.545-44.761S45.833.002 63.312.002c17.476 0 33.3 7.089 44.755 18.545s18.545 27.28 18.545 44.759zm-12.787.009c0-27.905-22.617-50.525-50.513-50.525-27.905 0-50.525 22.621-50.525 50.525a50.326 50.326 0 0 0 10.462 30.779V44.403h2.657c.784 0 1.596-.041 2.137.994a4.83 4.83 0 0 1 .39 1.047c1.311-2.154 3.302-2.288 5.087-2.288 4.61 0 6.599 3.209 6.599 9.238V75.5c0 4.985-2.421 8.413-6.599 8.413-1.529 0-3.063-.209-4.496-1.962v18.452a50.284 50.284 0 0 0 34.289 13.424c27.895.001 50.512-22.617 50.512-50.512zM31.701 79.319c1.5.017 2.712-.453 2.712-4.642V52.932c0-4.119-1.014-4.616-2.48-4.616-1.852 0-2.907 1.433-2.907 4.848v22.571c-.002 2.244 1.43 3.569 2.675 3.584zm65.256-35.148a6.041 6.041 0 0 0-5.233 3.154c-1.145-2.531-3.046-3.154-5.238-3.154-1.811 0-3.473.738-4.683 2.401 0 0-.076-1.337-.753-1.835-.474-.343-.704-.335-1.399-.335h-3.183v39.276h5.756V53.515c0-3.997 1.102-4.894 2.875-4.894 1.316 0 2.526.596 2.526 3.372v31.684h5.651V53.515c0-3.997 1.098-4.894 2.875-4.894 1.308 0 2.523.596 2.523 3.372v31.684h5.656V53.623c-.004-6.046-2.271-9.452-7.373-9.452" /><path
   id="m"
   d="M63.175 34.078h8.133v49.598h-5.782V39.391c0-.343-.378-.573-.738-.573h-1.613v-4.74zM60.17 51.885v31.792h-3.122c-.378 0-.884.034-1.496-.712-.369-.444-.566-1.316-.566-1.316-1.303 1.593-2.607 2.145-4.383 2.145-4.541 0-6.096-2.631-6.096-7.944v-7.156c0-6.575 4.491-8.795 10.24-10.947v-5.509c0-2.765-.934-3.691-2.291-3.691-1.639 0-2.703.532-2.703 3.34v2.802c0 1.11-.424 1.692-2.291 1.668h-2.727v-3.889c0-5.313 2.555-8.296 7.609-8.296 5.346-.001 7.826 2.46 7.826 7.713zm-5.421 10.287c-3.252 1.587-4.814 2.686-4.814 7.06v5.555c0 2.674.215 4.634 2.18 4.634 1.709 0 2.636-1.047 2.636-5.741V62.172h-.002zm71.863 1.134c0 17.472-7.089 33.309-18.545 44.764s-27.28 18.545-44.755 18.536c-17.481.009-33.314-7.081-44.767-18.536S0 80.778 0 63.306c0-17.481 7.089-33.305 18.545-44.761S45.833.002 63.312.002c17.476 0 33.3 7.089 44.755 18.545s18.545 27.28 18.545 44.759zm-12.787.009c0-27.905-22.617-50.525-50.513-50.525-27.905 0-50.525 22.621-50.525 50.525a50.326 50.326 0 0 0 10.462 30.779V44.403h2.657c.784 0 1.596-.041 2.137.994a4.83 4.83 0 0 1 .39 1.047c1.311-2.154 3.302-2.288 5.087-2.288 4.61 0 6.599 3.209 6.599 9.238V75.5c0 4.985-2.421 8.413-6.599 8.413-1.529 0-3.063-.209-4.496-1.962v18.452a50.284 50.284 0 0 0 34.289 13.424c27.895.001 50.512-22.617 50.512-50.512zM31.701 79.319c1.5.017 2.712-.453 2.712-4.642V52.932c0-4.119-1.014-4.616-2.48-4.616-1.852 0-2.907 1.433-2.907 4.848v22.571c-.002 2.244 1.43 3.569 2.675 3.584zm65.256-35.148a6.041 6.041 0 0 0-5.233 3.154c-1.145-2.531-3.046-3.154-5.238-3.154-1.811 0-3.473.738-4.683 2.401 0 0-.076-1.337-.753-1.835-.474-.343-.704-.335-1.399-.335h-3.183v39.276h5.756V53.515c0-3.997 1.102-4.894 2.875-4.894 1.316 0 2.526.596 2.526 3.372v31.684h5.651V53.515c0-3.997 1.098-4.894 2.875-4.894 1.308 0 2.523.596 2.523 3.372v31.684h5.656V53.623c-.004-6.046-2.271-9.452-7.373-9.452" /><path
   id="o"
   d="M63.175 34.078h8.133v49.598h-5.782V39.391c0-.343-.378-.573-.738-.573h-1.613v-4.74zM60.17 51.885v31.792h-3.122c-.378 0-.884.034-1.496-.712-.369-.444-.566-1.316-.566-1.316-1.303 1.593-2.607 2.145-4.383 2.145-4.541 0-6.096-2.631-6.096-7.944v-7.156c0-6.575 4.491-8.795 10.24-10.947v-5.509c0-2.765-.934-3.691-2.291-3.691-1.639 0-2.703.532-2.703 3.34v2.802c0 1.11-.424 1.692-2.291 1.668h-2.727v-3.889c0-5.313 2.555-8.296 7.609-8.296 5.346-.001 7.826 2.46 7.826 7.713zm-5.421 10.287c-3.252 1.587-4.814 2.686-4.814 7.06v5.555c0 2.674.215 4.634 2.18 4.634 1.709 0 2.636-1.047 2.636-5.741V62.172h-.002zm71.863 1.134c0 17.472-7.089 33.309-18.545 44.764s-27.28 18.545-44.755 18.536c-17.481.009-33.314-7.081-44.767-18.536S0 80.778 0 63.306c0-17.481 7.089-33.305 18.545-44.761S45.833.002 63.312.002c17.476 0 33.3 7.089 44.755 18.545s18.545 27.28 18.545 44.759zm-12.787.009c0-27.905-22.617-50.525-50.513-50.525-27.905 0-50.525 22.621-50.525 50.525a50.326 50.326 0 0 0 10.462 30.779V44.403h2.657c.784 0 1.596-.041 2.137.994a4.83 4.83 0 0 1 .39 1.047c1.311-2.154 3.302-2.288 5.087-2.288 4.61 0 6.599 3.209 6.599 9.238V75.5c0 4.985-2.421 8.413-6.599 8.413-1.529 0-3.063-.209-4.496-1.962v18.452a50.284 50.284 0 0 0 34.289 13.424c27.895.001 50.512-22.617 50.512-50.512zM31.701 79.319c1.5.017 2.712-.453 2.712-4.642V52.932c0-4.119-1.014-4.616-2.48-4.616-1.852 0-2.907 1.433-2.907 4.848v22.571c-.002 2.244 1.43 3.569 2.675 3.584zm65.256-35.148a6.041 6.041 0 0 0-5.233 3.154c-1.145-2.531-3.046-3.154-5.238-3.154-1.811 0-3.473.738-4.683 2.401 0 0-.076-1.337-.753-1.835-.474-.343-.704-.335-1.399-.335h-3.183v39.276h5.756V53.515c0-3.997 1.102-4.894 2.875-4.894 1.316 0 2.526.596 2.526 3.372v31.684h5.651V53.515c0-3.997 1.098-4.894 2.875-4.894 1.308 0 2.523.596 2.523 3.372v31.684h5.656V53.623c-.004-6.046-2.271-9.452-7.373-9.452" /><path
   id="q"
   d="M63.175 34.078h8.133v49.598h-5.782V39.391c0-.343-.378-.573-.738-.573h-1.613v-4.74zM60.17 51.885v31.792h-3.122c-.378 0-.884.034-1.496-.712-.369-.444-.566-1.316-.566-1.316-1.303 1.593-2.607 2.145-4.383 2.145-4.541 0-6.096-2.631-6.096-7.944v-7.156c0-6.575 4.491-8.795 10.24-10.947v-5.509c0-2.765-.934-3.691-2.291-3.691-1.639 0-2.703.532-2.703 3.34v2.802c0 1.11-.424 1.692-2.291 1.668h-2.727v-3.889c0-5.313 2.555-8.296 7.609-8.296 5.346-.001 7.826 2.46 7.826 7.713zm-5.421 10.287c-3.252 1.587-4.814 2.686-4.814 7.06v5.555c0 2.674.215 4.634 2.18 4.634 1.709 0 2.636-1.047 2.636-5.741V62.172h-.002zm71.863 1.134c0 17.472-7.089 33.309-18.545 44.764s-27.28 18.545-44.755 18.536c-17.481.009-33.314-7.081-44.767-18.536S0 80.778 0 63.306c0-17.481 7.089-33.305 18.545-44.761S45.833.002 63.312.002c17.476 0 33.3 7.089 44.755 18.545s18.545 27.28 18.545 44.759zm-12.787.009c0-27.905-22.617-50.525-50.513-50.525-27.905 0-50.525 22.621-50.525 50.525a50.326 50.326 0 0 0 10.462 30.779V44.403h2.657c.784 0 1.596-.041 2.137.994a4.83 4.83 0 0 1 .39 1.047c1.311-2.154 3.302-2.288 5.087-2.288 4.61 0 6.599 3.209 6.599 9.238V75.5c0 4.985-2.421 8.413-6.599 8.413-1.529 0-3.063-.209-4.496-1.962v18.452a50.284 50.284 0 0 0 34.289 13.424c27.895.001 50.512-22.617 50.512-50.512zM31.701 79.319c1.5.017 2.712-.453 2.712-4.642V52.932c0-4.119-1.014-4.616-2.48-4.616-1.852 0-2.907 1.433-2.907 4.848v22.571c-.002 2.244 1.43 3.569 2.675 3.584zm65.256-35.148a6.041 6.041 0 0 0-5.233 3.154c-1.145-2.531-3.046-3.154-5.238-3.154-1.811 0-3.473.738-4.683 2.401 0 0-.076-1.337-.753-1.835-.474-.343-.704-.335-1.399-.335h-3.183v39.276h5.756V53.515c0-3.997 1.102-4.894 2.875-4.894 1.316 0 2.526.596 2.526 3.372v31.684h5.651V53.515c0-3.997 1.098-4.894 2.875-4.894 1.308 0 2.523.596 2.523 3.372v31.684h5.656V53.623c-.004-6.046-2.271-9.452-7.373-9.452" /><path
   id="s"
   d="M63.175 34.078h8.133v49.598h-5.782V39.391c0-.343-.378-.573-.738-.573h-1.613v-4.74zM60.17 51.885v31.792h-3.122c-.378 0-.884.034-1.496-.712-.369-.444-.566-1.316-.566-1.316-1.303 1.593-2.607 2.145-4.383 2.145-4.541 0-6.096-2.631-6.096-7.944v-7.156c0-6.575 4.491-8.795 10.24-10.947v-5.509c0-2.765-.934-3.691-2.291-3.691-1.639 0-2.703.532-2.703 3.34v2.802c0 1.11-.424 1.692-2.291 1.668h-2.727v-3.889c0-5.313 2.555-8.296 7.609-8.296 5.346-.001 7.826 2.46 7.826 7.713zm-5.421 10.287c-3.252 1.587-4.814 2.686-4.814 7.06v5.555c0 2.674.215 4.634 2.18 4.634 1.709 0 2.636-1.047 2.636-5.741V62.172h-.002zm71.863 1.134c0 17.472-7.089 33.309-18.545 44.764s-27.28 18.545-44.755 18.536c-17.481.009-33.314-7.081-44.767-18.536S0 80.778 0 63.306c0-17.481 7.089-33.305 18.545-44.761S45.833.002 63.312.002c17.476 0 33.3 7.089 44.755 18.545s18.545 27.28 18.545 44.759zm-12.787.009c0-27.905-22.617-50.525-50.513-50.525-27.905 0-50.525 22.621-50.525 50.525a50.326 50.326 0 0 0 10.462 30.779V44.403h2.657c.784 0 1.596-.041 2.137.994a4.83 4.83 0 0 1 .39 1.047c1.311-2.154 3.302-2.288 5.087-2.288 4.61 0 6.599 3.209 6.599 9.238V75.5c0 4.985-2.421 8.413-6.599 8.413-1.529 0-3.063-.209-4.496-1.962v18.452a50.284 50.284 0 0 0 34.289 13.424c27.895.001 50.512-22.617 50.512-50.512zM31.701 79.319c1.5.017 2.712-.453 2.712-4.642V52.932c0-4.119-1.014-4.616-2.48-4.616-1.852 0-2.907 1.433-2.907 4.848v22.571c-.002 2.244 1.43 3.569 2.675 3.584zm65.256-35.148a6.041 6.041 0 0 0-5.233 3.154c-1.145-2.531-3.046-3.154-5.238-3.154-1.811 0-3.473.738-4.683 2.401 0 0-.076-1.337-.753-1.835-.474-.343-.704-.335-1.399-.335h-3.183v39.276h5.756V53.515c0-3.997 1.102-4.894 2.875-4.894 1.316 0 2.526.596 2.526 3.372v31.684h5.651V53.515c0-3.997 1.098-4.894 2.875-4.894 1.308 0 2.523.596 2.523 3.372v31.684h5.656V53.623c-.004-6.046-2.271-9.452-7.373-9.452" /><path
   id="u"
   d="M63.175 34.078h8.133v49.598h-5.782V39.391c0-.343-.378-.573-.738-.573h-1.613v-4.74zM60.17 51.885v31.792h-3.122c-.378 0-.884.034-1.496-.712-.369-.444-.566-1.316-.566-1.316-1.303 1.593-2.607 2.145-4.383 2.145-4.541 0-6.096-2.631-6.096-7.944v-7.156c0-6.575 4.491-8.795 10.24-10.947v-5.509c0-2.765-.934-3.691-2.291-3.691-1.639 0-2.703.532-2.703 3.34v2.802c0 1.11-.424 1.692-2.291 1.668h-2.727v-3.889c0-5.313 2.555-8.296 7.609-8.296 5.346-.001 7.826 2.46 7.826 7.713zm-5.421 10.287c-3.252 1.587-4.814 2.686-4.814 7.06v5.555c0 2.674.215 4.634 2.18 4.634 1.709 0 2.636-1.047 2.636-5.741V62.172h-.002zm71.863 1.134c0 17.472-7.089 33.309-18.545 44.764s-27.28 18.545-44.755 18.536c-17.481.009-33.314-7.081-44.767-18.536S0 80.778 0 63.306c0-17.481 7.089-33.305 18.545-44.761S45.833.002 63.312.002c17.476 0 33.3 7.089 44.755 18.545s18.545 27.28 18.545 44.759zm-12.787.009c0-27.905-22.617-50.525-50.513-50.525-27.905 0-50.525 22.621-50.525 50.525a50.326 50.326 0 0 0 10.462 30.779V44.403h2.657c.784 0 1.596-.041 2.137.994a4.83 4.83 0 0 1 .39 1.047c1.311-2.154 3.302-2.288 5.087-2.288 4.61 0 6.599 3.209 6.599 9.238V75.5c0 4.985-2.421 8.413-6.599 8.413-1.529 0-3.063-.209-4.496-1.962v18.452a50.284 50.284 0 0 0 34.289 13.424c27.895.001 50.512-22.617 50.512-50.512zM31.701 79.319c1.5.017 2.712-.453 2.712-4.642V52.932c0-4.119-1.014-4.616-2.48-4.616-1.852 0-2.907 1.433-2.907 4.848v22.571c-.002 2.244 1.43 3.569 2.675 3.584zm65.256-35.148a6.041 6.041 0 0 0-5.233 3.154c-1.145-2.531-3.046-3.154-5.238-3.154-1.811 0-3.473.738-4.683 2.401 0 0-.076-1.337-.753-1.835-.474-.343-.704-.335-1.399-.335h-3.183v39.276h5.756V53.515c0-3.997 1.102-4.894 2.875-4.894 1.316 0 2.526.596 2.526 3.372v31.684h5.651V53.515c0-3.997 1.098-4.894 2.875-4.894 1.308 0 2.523.596 2.523 3.372v31.684h5.656V53.623c-.004-6.046-2.271-9.452-7.373-9.452" /><path
   id="w"
   d="M63.175 34.078h8.133v49.598h-5.782V39.391c0-.343-.378-.573-.738-.573h-1.613v-4.74zM60.17 51.885v31.792h-3.122c-.378 0-.884.034-1.496-.712-.369-.444-.566-1.316-.566-1.316-1.303 1.593-2.607 2.145-4.383 2.145-4.541 0-6.096-2.631-6.096-7.944v-7.156c0-6.575 4.491-8.795 10.24-10.947v-5.509c0-2.765-.934-3.691-2.291-3.691-1.639 0-2.703.532-2.703 3.34v2.802c0 1.11-.424 1.692-2.291 1.668h-2.727v-3.889c0-5.313 2.555-8.296 7.609-8.296 5.346-.001 7.826 2.46 7.826 7.713zm-5.421 10.287c-3.252 1.587-4.814 2.686-4.814 7.06v5.555c0 2.674.215 4.634 2.18 4.634 1.709 0 2.636-1.047 2.636-5.741V62.172h-.002zm71.863 1.134c0 17.472-7.089 33.309-18.545 44.764s-27.28 18.545-44.755 18.536c-17.481.009-33.314-7.081-44.767-18.536S0 80.778 0 63.306c0-17.481 7.089-33.305 18.545-44.761S45.833.002 63.312.002c17.476 0 33.3 7.089 44.755 18.545s18.545 27.28 18.545 44.759zm-12.787.009c0-27.905-22.617-50.525-50.513-50.525-27.905 0-50.525 22.621-50.525 50.525a50.326 50.326 0 0 0 10.462 30.779V44.403h2.657c.784 0 1.596-.041 2.137.994a4.83 4.83 0 0 1 .39 1.047c1.311-2.154 3.302-2.288 5.087-2.288 4.61 0 6.599 3.209 6.599 9.238V75.5c0 4.985-2.421 8.413-6.599 8.413-1.529 0-3.063-.209-4.496-1.962v18.452a50.284 50.284 0 0 0 34.289 13.424c27.895.001 50.512-22.617 50.512-50.512zM31.701 79.319c1.5.017 2.712-.453 2.712-4.642V52.932c0-4.119-1.014-4.616-2.48-4.616-1.852 0-2.907 1.433-2.907 4.848v22.571c-.002 2.244 1.43 3.569 2.675 3.584zm65.256-35.148a6.041 6.041 0 0 0-5.233 3.154c-1.145-2.531-3.046-3.154-5.238-3.154-1.811 0-3.473.738-4.683 2.401 0 0-.076-1.337-.753-1.835-.474-.343-.704-.335-1.399-.335h-3.183v39.276h5.756V53.515c0-3.997 1.102-4.894 2.875-4.894 1.316 0 2.526.596 2.526 3.372v31.684h5.651V53.515c0-3.997 1.098-4.894 2.875-4.894 1.308 0 2.523.596 2.523 3.372v31.684h5.656V53.623c-.004-6.046-2.271-9.452-7.373-9.452" /><path
   id="y"
   d="M63.175 34.078h8.133v49.598h-5.782V39.391c0-.343-.378-.573-.738-.573h-1.613v-4.74zM60.17 51.885v31.792h-3.122c-.378 0-.884.034-1.496-.712-.369-.444-.566-1.316-.566-1.316-1.303 1.593-2.607 2.145-4.383 2.145-4.541 0-6.096-2.631-6.096-7.944v-7.156c0-6.575 4.491-8.795 10.24-10.947v-5.509c0-2.765-.934-3.691-2.291-3.691-1.639 0-2.703.532-2.703 3.34v2.802c0 1.11-.424 1.692-2.291 1.668h-2.727v-3.889c0-5.313 2.555-8.296 7.609-8.296 5.346-.001 7.826 2.46 7.826 7.713zm-5.421 10.287c-3.252 1.587-4.814 2.686-4.814 7.06v5.555c0 2.674.215 4.634 2.18 4.634 1.709 0 2.636-1.047 2.636-5.741V62.172h-.002zm71.863 1.134c0 17.472-7.089 33.309-18.545 44.764s-27.28 18.545-44.755 18.536c-17.481.009-33.314-7.081-44.767-18.536S0 80.778 0 63.306c0-17.481 7.089-33.305 18.545-44.761S45.833.002 63.312.002c17.476 0 33.3 7.089 44.755 18.545s18.545 27.28 18.545 44.759zm-12.787.009c0-27.905-22.617-50.525-50.513-50.525-27.905 0-50.525 22.621-50.525 50.525a50.326 50.326 0 0 0 10.462 30.779V44.403h2.657c.784 0 1.596-.041 2.137.994a4.83 4.83 0 0 1 .39 1.047c1.311-2.154 3.302-2.288 5.087-2.288 4.61 0 6.599 3.209 6.599 9.238V75.5c0 4.985-2.421 8.413-6.599 8.413-1.529 0-3.063-.209-4.496-1.962v18.452a50.284 50.284 0 0 0 34.289 13.424c27.895.001 50.512-22.617 50.512-50.512zM31.701 79.319c1.5.017 2.712-.453 2.712-4.642V52.932c0-4.119-1.014-4.616-2.48-4.616-1.852 0-2.907 1.433-2.907 4.848v22.571c-.002 2.244 1.43 3.569 2.675 3.584zm65.256-35.148a6.041 6.041 0 0 0-5.233 3.154c-1.145-2.531-3.046-3.154-5.238-3.154-1.811 0-3.473.738-4.683 2.401 0 0-.076-1.337-.753-1.835-.474-.343-.704-.335-1.399-.335h-3.183v39.276h5.756V53.515c0-3.997 1.102-4.894 2.875-4.894 1.316 0 2.526.596 2.526 3.372v31.684h5.651V53.515c0-3.997 1.098-4.894 2.875-4.894 1.308 0 2.523.596 2.523 3.372v31.684h5.656V53.623c-.004-6.046-2.271-9.452-7.373-9.452" /><path
   id="A"
   d="M63.175 34.078h8.133v49.598h-5.782V39.391c0-.343-.378-.573-.738-.573h-1.613v-4.74zM60.17 51.885v31.792h-3.122c-.378 0-.884.034-1.496-.712-.369-.444-.566-1.316-.566-1.316-1.303 1.593-2.607 2.145-4.383 2.145-4.541 0-6.096-2.631-6.096-7.944v-7.156c0-6.575 4.491-8.795 10.24-10.947v-5.509c0-2.765-.934-3.691-2.291-3.691-1.639 0-2.703.532-2.703 3.34v2.802c0 1.11-.424 1.692-2.291 1.668h-2.727v-3.889c0-5.313 2.555-8.296 7.609-8.296 5.346-.001 7.826 2.46 7.826 7.713zm-5.421 10.287c-3.252 1.587-4.814 2.686-4.814 7.06v5.555c0 2.674.215 4.634 2.18 4.634 1.709 0 2.636-1.047 2.636-5.741V62.172h-.002zm71.863 1.134c0 17.472-7.089 33.309-18.545 44.764s-27.28 18.545-44.755 18.536c-17.481.009-33.314-7.081-44.767-18.536S0 80.778 0 63.306c0-17.481 7.089-33.305 18.545-44.761S45.833.002 63.312.002c17.476 0 33.3 7.089 44.755 18.545s18.545 27.28 18.545 44.759zm-12.787.009c0-27.905-22.617-50.525-50.513-50.525-27.905 0-50.525 22.621-50.525 50.525a50.326 50.326 0 0 0 10.462 30.779V44.403h2.657c.784 0 1.596-.041 2.137.994a4.83 4.83 0 0 1 .39 1.047c1.311-2.154 3.302-2.288 5.087-2.288 4.61 0 6.599 3.209 6.599 9.238V75.5c0 4.985-2.421 8.413-6.599 8.413-1.529 0-3.063-.209-4.496-1.962v18.452a50.284 50.284 0 0 0 34.289 13.424c27.895.001 50.512-22.617 50.512-50.512zM31.701 79.319c1.5.017 2.712-.453 2.712-4.642V52.932c0-4.119-1.014-4.616-2.48-4.616-1.852 0-2.907 1.433-2.907 4.848v22.571c-.002 2.244 1.43 3.569 2.675 3.584zm65.256-35.148a6.041 6.041 0 0 0-5.233 3.154c-1.145-2.531-3.046-3.154-5.238-3.154-1.811 0-3.473.738-4.683 2.401 0 0-.076-1.337-.753-1.835-.474-.343-.704-.335-1.399-.335h-3.183v39.276h5.756V53.515c0-3.997 1.102-4.894 2.875-4.894 1.316 0 2.526.596 2.526 3.372v31.684h5.651V53.515c0-3.997 1.098-4.894 2.875-4.894 1.308 0 2.523.596 2.523 3.372v31.684h5.656V53.623c-.004-6.046-2.271-9.452-7.373-9.452" /><path
   id="C"
   d="M63.175 34.078h8.133v49.598h-5.782V39.391c0-.343-.378-.573-.738-.573h-1.613v-4.74zM60.17 51.885v31.792h-3.122c-.378 0-.884.034-1.496-.712-.369-.444-.566-1.316-.566-1.316-1.303 1.593-2.607 2.145-4.383 2.145-4.541 0-6.096-2.631-6.096-7.944v-7.156c0-6.575 4.491-8.795 10.24-10.947v-5.509c0-2.765-.934-3.691-2.291-3.691-1.639 0-2.703.532-2.703 3.34v2.802c0 1.11-.424 1.692-2.291 1.668h-2.727v-3.889c0-5.313 2.555-8.296 7.609-8.296 5.346-.001 7.826 2.46 7.826 7.713zm-5.421 10.287c-3.252 1.587-4.814 2.686-4.814 7.06v5.555c0 2.674.215 4.634 2.18 4.634 1.709 0 2.636-1.047 2.636-5.741V62.172h-.002zm71.863 1.134c0 17.472-7.089 33.309-18.545 44.764s-27.28 18.545-44.755 18.536c-17.481.009-33.314-7.081-44.767-18.536S0 80.778 0 63.306c0-17.481 7.089-33.305 18.545-44.761S45.833.002 63.312.002c17.476 0 33.3 7.089 44.755 18.545s18.545 27.28 18.545 44.759zm-12.787.009c0-27.905-22.617-50.525-50.513-50.525-27.905 0-50.525 22.621-50.525 50.525a50.326 50.326 0 0 0 10.462 30.779V44.403h2.657c.784 0 1.596-.041 2.137.994a4.83 4.83 0 0 1 .39 1.047c1.311-2.154 3.302-2.288 5.087-2.288 4.61 0 6.599 3.209 6.599 9.238V75.5c0 4.985-2.421 8.413-6.599 8.413-1.529 0-3.063-.209-4.496-1.962v18.452a50.284 50.284 0 0 0 34.289 13.424c27.895.001 50.512-22.617 50.512-50.512zM31.701 79.319c1.5.017 2.712-.453 2.712-4.642V52.932c0-4.119-1.014-4.616-2.48-4.616-1.852 0-2.907 1.433-2.907 4.848v22.571c-.002 2.244 1.43 3.569 2.675 3.584zm65.256-35.148a6.041 6.041 0 0 0-5.233 3.154c-1.145-2.531-3.046-3.154-5.238-3.154-1.811 0-3.473.738-4.683 2.401 0 0-.076-1.337-.753-1.835-.474-.343-.704-.335-1.399-.335h-3.183v39.276h5.756V53.515c0-3.997 1.102-4.894 2.875-4.894 1.316 0 2.526.596 2.526 3.372v31.684h5.651V53.515c0-3.997 1.098-4.894 2.875-4.894 1.308 0 2.523.596 2.523 3.372v31.684h5.656V53.623c-.004-6.046-2.271-9.452-7.373-9.452" /><path
   id="E"
   d="M63.175 34.078h8.133v49.598h-5.782V39.391c0-.343-.378-.573-.738-.573h-1.613v-4.74zM60.17 51.885v31.792h-3.122c-.378 0-.884.034-1.496-.712-.369-.444-.566-1.316-.566-1.316-1.303 1.593-2.607 2.145-4.383 2.145-4.541 0-6.096-2.631-6.096-7.944v-7.156c0-6.575 4.491-8.795 10.24-10.947v-5.509c0-2.765-.934-3.691-2.291-3.691-1.639 0-2.703.532-2.703 3.34v2.802c0 1.11-.424 1.692-2.291 1.668h-2.727v-3.889c0-5.313 2.555-8.296 7.609-8.296 5.346-.001 7.826 2.46 7.826 7.713zm-5.421 10.287c-3.252 1.587-4.814 2.686-4.814 7.06v5.555c0 2.674.215 4.634 2.18 4.634 1.709 0 2.636-1.047 2.636-5.741V62.172h-.002zm71.863 1.134c0 17.472-7.089 33.309-18.545 44.764s-27.28 18.545-44.755 18.536c-17.481.009-33.314-7.081-44.767-18.536S0 80.778 0 63.306c0-17.481 7.089-33.305 18.545-44.761S45.833.002 63.312.002c17.476 0 33.3 7.089 44.755 18.545s18.545 27.28 18.545 44.759zm-12.787.009c0-27.905-22.617-50.525-50.513-50.525-27.905 0-50.525 22.621-50.525 50.525a50.326 50.326 0 0 0 10.462 30.779V44.403h2.657c.784 0 1.596-.041 2.137.994a4.83 4.83 0 0 1 .39 1.047c1.311-2.154 3.302-2.288 5.087-2.288 4.61 0 6.599 3.209 6.599 9.238V75.5c0 4.985-2.421 8.413-6.599 8.413-1.529 0-3.063-.209-4.496-1.962v18.452a50.284 50.284 0 0 0 34.289 13.424c27.895.001 50.512-22.617 50.512-50.512zM31.701 79.319c1.5.017 2.712-.453 2.712-4.642V52.932c0-4.119-1.014-4.616-2.48-4.616-1.852 0-2.907 1.433-2.907 4.848v22.571c-.002 2.244 1.43 3.569 2.675 3.584zm65.256-35.148a6.041 6.041 0 0 0-5.233 3.154c-1.145-2.531-3.046-3.154-5.238-3.154-1.811 0-3.473.738-4.683 2.401 0 0-.076-1.337-.753-1.835-.474-.343-.704-.335-1.399-.335h-3.183v39.276h5.756V53.515c0-3.997 1.102-4.894 2.875-4.894 1.316 0 2.526.596 2.526 3.372v31.684h5.651V53.515c0-3.997 1.098-4.894 2.875-4.894 1.308 0 2.523.596 2.523 3.372v31.684h5.656V53.623c-.004-6.046-2.271-9.452-7.373-9.452" /><path
   id="G"
   d="M63.175 34.078h8.133v49.598h-5.782V39.391c0-.343-.378-.573-.738-.573h-1.613v-4.74zM60.17 51.885v31.792h-3.122c-.378 0-.884.034-1.496-.712-.369-.444-.566-1.316-.566-1.316-1.303 1.593-2.607 2.145-4.383 2.145-4.541 0-6.096-2.631-6.096-7.944v-7.156c0-6.575 4.491-8.795 10.24-10.947v-5.509c0-2.765-.934-3.691-2.291-3.691-1.639 0-2.703.532-2.703 3.34v2.802c0 1.11-.424 1.692-2.291 1.668h-2.727v-3.889c0-5.313 2.555-8.296 7.609-8.296 5.346-.001 7.826 2.46 7.826 7.713zm-5.421 10.287c-3.252 1.587-4.814 2.686-4.814 7.06v5.555c0 2.674.215 4.634 2.18 4.634 1.709 0 2.636-1.047 2.636-5.741V62.172h-.002zm71.863 1.134c0 17.472-7.089 33.309-18.545 44.764s-27.28 18.545-44.755 18.536c-17.481.009-33.314-7.081-44.767-18.536S0 80.778 0 63.306c0-17.481 7.089-33.305 18.545-44.761S45.833.002 63.312.002c17.476 0 33.3 7.089 44.755 18.545s18.545 27.28 18.545 44.759zm-12.787.009c0-27.905-22.617-50.525-50.513-50.525-27.905 0-50.525 22.621-50.525 50.525a50.326 50.326 0 0 0 10.462 30.779V44.403h2.657c.784 0 1.596-.041 2.137.994a4.83 4.83 0 0 1 .39 1.047c1.311-2.154 3.302-2.288 5.087-2.288 4.61 0 6.599 3.209 6.599 9.238V75.5c0 4.985-2.421 8.413-6.599 8.413-1.529 0-3.063-.209-4.496-1.962v18.452a50.284 50.284 0 0 0 34.289 13.424c27.895.001 50.512-22.617 50.512-50.512zM31.701 79.319c1.5.017 2.712-.453 2.712-4.642V52.932c0-4.119-1.014-4.616-2.48-4.616-1.852 0-2.907 1.433-2.907 4.848v22.571c-.002 2.244 1.43 3.569 2.675 3.584zm65.256-35.148a6.041 6.041 0 0 0-5.233 3.154c-1.145-2.531-3.046-3.154-5.238-3.154-1.811 0-3.473.738-4.683 2.401 0 0-.076-1.337-.753-1.835-.474-.343-.704-.335-1.399-.335h-3.183v39.276h5.756V53.515c0-3.997 1.102-4.894 2.875-4.894 1.316 0 2.526.596 2.526 3.372v31.684h5.651V53.515c0-3.997 1.098-4.894 2.875-4.894 1.308 0 2.523.596 2.523 3.372v31.684h5.656V53.623c-.004-6.046-2.271-9.452-7.373-9.452" /><path
   id="I"
   d="M63.175 34.078h8.133v49.598h-5.782V39.391c0-.343-.378-.573-.738-.573h-1.613v-4.74zM60.17 51.885v31.792h-3.122c-.378 0-.884.034-1.496-.712-.369-.444-.566-1.316-.566-1.316-1.303 1.593-2.607 2.145-4.383 2.145-4.541 0-6.096-2.631-6.096-7.944v-7.156c0-6.575 4.491-8.795 10.24-10.947v-5.509c0-2.765-.934-3.691-2.291-3.691-1.639 0-2.703.532-2.703 3.34v2.802c0 1.11-.424 1.692-2.291 1.668h-2.727v-3.889c0-5.313 2.555-8.296 7.609-8.296 5.346-.001 7.826 2.46 7.826 7.713zm-5.421 10.287c-3.252 1.587-4.814 2.686-4.814 7.06v5.555c0 2.674.215 4.634 2.18 4.634 1.709 0 2.636-1.047 2.636-5.741V62.172h-.002zm71.863 1.134c0 17.472-7.089 33.309-18.545 44.764s-27.28 18.545-44.755 18.536c-17.481.009-33.314-7.081-44.767-18.536S0 80.778 0 63.306c0-17.481 7.089-33.305 18.545-44.761S45.833.002 63.312.002c17.476 0 33.3 7.089 44.755 18.545s18.545 27.28 18.545 44.759zm-12.787.009c0-27.905-22.617-50.525-50.513-50.525-27.905 0-50.525 22.621-50.525 50.525a50.326 50.326 0 0 0 10.462 30.779V44.403h2.657c.784 0 1.596-.041 2.137.994a4.83 4.83 0 0 1 .39 1.047c1.311-2.154 3.302-2.288 5.087-2.288 4.61 0 6.599 3.209 6.599 9.238V75.5c0 4.985-2.421 8.413-6.599 8.413-1.529 0-3.063-.209-4.496-1.962v18.452a50.284 50.284 0 0 0 34.289 13.424c27.895.001 50.512-22.617 50.512-50.512zM31.701 79.319c1.5.017 2.712-.453 2.712-4.642V52.932c0-4.119-1.014-4.616-2.48-4.616-1.852 0-2.907 1.433-2.907 4.848v22.571c-.002 2.244 1.43 3.569 2.675 3.584zm65.256-35.148a6.041 6.041 0 0 0-5.233 3.154c-1.145-2.531-3.046-3.154-5.238-3.154-1.811 0-3.473.738-4.683 2.401 0 0-.076-1.337-.753-1.835-.474-.343-.704-.335-1.399-.335h-3.183v39.276h5.756V53.515c0-3.997 1.102-4.894 2.875-4.894 1.316 0 2.526.596 2.526 3.372v31.684h5.651V53.515c0-3.997 1.098-4.894 2.875-4.894 1.308 0 2.523.596 2.523 3.372v31.684h5.656V53.623c-.004-6.046-2.271-9.452-7.373-9.452" /><path
   id="K"
   d="M63.175 34.078h8.133v49.598h-5.782V39.391c0-.343-.378-.573-.738-.573h-1.613v-4.74zM60.17 51.885v31.792h-3.122c-.378 0-.884.034-1.496-.712-.369-.444-.566-1.316-.566-1.316-1.303 1.593-2.607 2.145-4.383 2.145-4.541 0-6.096-2.631-6.096-7.944v-7.156c0-6.575 4.491-8.795 10.24-10.947v-5.509c0-2.765-.934-3.691-2.291-3.691-1.639 0-2.703.532-2.703 3.34v2.802c0 1.11-.424 1.692-2.291 1.668h-2.727v-3.889c0-5.313 2.555-8.296 7.609-8.296 5.346-.001 7.826 2.46 7.826 7.713zm-5.421 10.287c-3.252 1.587-4.814 2.686-4.814 7.06v5.555c0 2.674.215 4.634 2.18 4.634 1.709 0 2.636-1.047 2.636-5.741V62.172h-.002zm71.863 1.134c0 17.472-7.089 33.309-18.545 44.764s-27.28 18.545-44.755 18.536c-17.481.009-33.314-7.081-44.767-18.536S0 80.778 0 63.306c0-17.481 7.089-33.305 18.545-44.761S45.833.002 63.312.002c17.476 0 33.3 7.089 44.755 18.545s18.545 27.28 18.545 44.759zm-12.787.009c0-27.905-22.617-50.525-50.513-50.525-27.905 0-50.525 22.621-50.525 50.525a50.326 50.326 0 0 0 10.462 30.779V44.403h2.657c.784 0 1.596-.041 2.137.994a4.83 4.83 0 0 1 .39 1.047c1.311-2.154 3.302-2.288 5.087-2.288 4.61 0 6.599 3.209 6.599 9.238V75.5c0 4.985-2.421 8.413-6.599 8.413-1.529 0-3.063-.209-4.496-1.962v18.452a50.284 50.284 0 0 0 34.289 13.424c27.895.001 50.512-22.617 50.512-50.512zM31.701 79.319c1.5.017 2.712-.453 2.712-4.642V52.932c0-4.119-1.014-4.616-2.48-4.616-1.852 0-2.907 1.433-2.907 4.848v22.571c-.002 2.244 1.43 3.569 2.675 3.584zm65.256-35.148a6.041 6.041 0 0 0-5.233 3.154c-1.145-2.531-3.046-3.154-5.238-3.154-1.811 0-3.473.738-4.683 2.401 0 0-.076-1.337-.753-1.835-.474-.343-.704-.335-1.399-.335h-3.183v39.276h5.756V53.515c0-3.997 1.102-4.894 2.875-4.894 1.316 0 2.526.596 2.526 3.372v31.684h5.651V53.515c0-3.997 1.098-4.894 2.875-4.894 1.308 0 2.523.596 2.523 3.372v31.684h5.656V53.623c-.004-6.046-2.271-9.452-7.373-9.452" /><path
   id="M"
   d="M63.175 34.078h8.133v49.598h-5.782V39.391c0-.343-.378-.573-.738-.573h-1.613v-4.74zM60.17 51.885v31.792h-3.122c-.378 0-.884.034-1.496-.712-.369-.444-.566-1.316-.566-1.316-1.303 1.593-2.607 2.145-4.383 2.145-4.541 0-6.096-2.631-6.096-7.944v-7.156c0-6.575 4.491-8.795 10.24-10.947v-5.509c0-2.765-.934-3.691-2.291-3.691-1.639 0-2.703.532-2.703 3.34v2.802c0 1.11-.424 1.692-2.291 1.668h-2.727v-3.889c0-5.313 2.555-8.296 7.609-8.296 5.346-.001 7.826 2.46 7.826 7.713zm-5.421 10.287c-3.252 1.587-4.814 2.686-4.814 7.06v5.555c0 2.674.215 4.634 2.18 4.634 1.709 0 2.636-1.047 2.636-5.741V62.172h-.002zm71.863 1.134c0 17.472-7.089 33.309-18.545 44.764s-27.28 18.545-44.755 18.536c-17.481.009-33.314-7.081-44.767-18.536S0 80.778 0 63.306c0-17.481 7.089-33.305 18.545-44.761S45.833.002 63.312.002c17.476 0 33.3 7.089 44.755 18.545s18.545 27.28 18.545 44.759zm-12.787.009c0-27.905-22.617-50.525-50.513-50.525-27.905 0-50.525 22.621-50.525 50.525a50.326 50.326 0 0 0 10.462 30.779V44.403h2.657c.784 0 1.596-.041 2.137.994a4.83 4.83 0 0 1 .39 1.047c1.311-2.154 3.302-2.288 5.087-2.288 4.61 0 6.599 3.209 6.599 9.238V75.5c0 4.985-2.421 8.413-6.599 8.413-1.529 0-3.063-.209-4.496-1.962v18.452a50.284 50.284 0 0 0 34.289 13.424c27.895.001 50.512-22.617 50.512-50.512zM31.701 79.319c1.5.017 2.712-.453 2.712-4.642V52.932c0-4.119-1.014-4.616-2.48-4.616-1.852 0-2.907 1.433-2.907 4.848v22.571c-.002 2.244 1.43 3.569 2.675 3.584zm65.256-35.148a6.041 6.041 0 0 0-5.233 3.154c-1.145-2.531-3.046-3.154-5.238-3.154-1.811 0-3.473.738-4.683 2.401 0 0-.076-1.337-.753-1.835-.474-.343-.704-.335-1.399-.335h-3.183v39.276h5.756V53.515c0-3.997 1.102-4.894 2.875-4.894 1.316 0 2.526.596 2.526 3.372v31.684h5.651V53.515c0-3.997 1.098-4.894 2.875-4.894 1.308 0 2.523.596 2.523 3.372v31.684h5.656V53.623c-.004-6.046-2.271-9.452-7.373-9.452" /><path
   id="O"
   d="M63.175 34.078h8.133v49.598h-5.782V39.391c0-.343-.378-.573-.738-.573h-1.613v-4.74zM60.17 51.885v31.792h-3.122c-.378 0-.884.034-1.496-.712-.369-.444-.566-1.316-.566-1.316-1.303 1.593-2.607 2.145-4.383 2.145-4.541 0-6.096-2.631-6.096-7.944v-7.156c0-6.575 4.491-8.795 10.24-10.947v-5.509c0-2.765-.934-3.691-2.291-3.691-1.639 0-2.703.532-2.703 3.34v2.802c0 1.11-.424 1.692-2.291 1.668h-2.727v-3.889c0-5.313 2.555-8.296 7.609-8.296 5.346-.001 7.826 2.46 7.826 7.713zm-5.421 10.287c-3.252 1.587-4.814 2.686-4.814 7.06v5.555c0 2.674.215 4.634 2.18 4.634 1.709 0 2.636-1.047 2.636-5.741V62.172h-.002zm71.863 1.134c0 17.472-7.089 33.309-18.545 44.764s-27.28 18.545-44.755 18.536c-17.481.009-33.314-7.081-44.767-18.536S0 80.778 0 63.306c0-17.481 7.089-33.305 18.545-44.761S45.833.002 63.312.002c17.476 0 33.3 7.089 44.755 18.545s18.545 27.28 18.545 44.759zm-12.787.009c0-27.905-22.617-50.525-50.513-50.525-27.905 0-50.525 22.621-50.525 50.525a50.326 50.326 0 0 0 10.462 30.779V44.403h2.657c.784 0 1.596-.041 2.137.994a4.83 4.83 0 0 1 .39 1.047c1.311-2.154 3.302-2.288 5.087-2.288 4.61 0 6.599 3.209 6.599 9.238V75.5c0 4.985-2.421 8.413-6.599 8.413-1.529 0-3.063-.209-4.496-1.962v18.452a50.284 50.284 0 0 0 34.289 13.424c27.895.001 50.512-22.617 50.512-50.512zM31.701 79.319c1.5.017 2.712-.453 2.712-4.642V52.932c0-4.119-1.014-4.616-2.48-4.616-1.852 0-2.907 1.433-2.907 4.848v22.571c-.002 2.244 1.43 3.569 2.675 3.584zm65.256-35.148a6.041 6.041 0 0 0-5.233 3.154c-1.145-2.531-3.046-3.154-5.238-3.154-1.811 0-3.473.738-4.683 2.401 0 0-.076-1.337-.753-1.835-.474-.343-.704-.335-1.399-.335h-3.183v39.276h5.756V53.515c0-3.997 1.102-4.894 2.875-4.894 1.316 0 2.526.596 2.526 3.372v31.684h5.651V53.515c0-3.997 1.098-4.894 2.875-4.894 1.308 0 2.523.596 2.523 3.372v31.684h5.656V53.623c-.004-6.046-2.271-9.452-7.373-9.452" /><path
   id="Q"
   d="M63.175 34.078h8.133v49.598h-5.782V39.391c0-.343-.378-.573-.738-.573h-1.613v-4.74zM60.17 51.885v31.792h-3.122c-.378 0-.884.034-1.496-.712-.369-.444-.566-1.316-.566-1.316-1.303 1.593-2.607 2.145-4.383 2.145-4.541 0-6.096-2.631-6.096-7.944v-7.156c0-6.575 4.491-8.795 10.24-10.947v-5.509c0-2.765-.934-3.691-2.291-3.691-1.639 0-2.703.532-2.703 3.34v2.802c0 1.11-.424 1.692-2.291 1.668h-2.727v-3.889c0-5.313 2.555-8.296 7.609-8.296 5.346-.001 7.826 2.46 7.826 7.713zm-5.421 10.287c-3.252 1.587-4.814 2.686-4.814 7.06v5.555c0 2.674.215 4.634 2.18 4.634 1.709 0 2.636-1.047 2.636-5.741V62.172h-.002zm71.863 1.134c0 17.472-7.089 33.309-18.545 44.764s-27.28 18.545-44.755 18.536c-17.481.009-33.314-7.081-44.767-18.536S0 80.778 0 63.306c0-17.481 7.089-33.305 18.545-44.761S45.833.002 63.312.002c17.476 0 33.3 7.089 44.755 18.545s18.545 27.28 18.545 44.759zm-12.787.009c0-27.905-22.617-50.525-50.513-50.525-27.905 0-50.525 22.621-50.525 50.525a50.326 50.326 0 0 0 10.462 30.779V44.403h2.657c.784 0 1.596-.041 2.137.994a4.83 4.83 0 0 1 .39 1.047c1.311-2.154 3.302-2.288 5.087-2.288 4.61 0 6.599 3.209 6.599 9.238V75.5c0 4.985-2.421 8.413-6.599 8.413-1.529 0-3.063-.209-4.496-1.962v18.452a50.284 50.284 0 0 0 34.289 13.424c27.895.001 50.512-22.617 50.512-50.512zM31.701 79.319c1.5.017 2.712-.453 2.712-4.642V52.932c0-4.119-1.014-4.616-2.48-4.616-1.852 0-2.907 1.433-2.907 4.848v22.571c-.002 2.244 1.43 3.569 2.675 3.584zm65.256-35.148a6.041 6.041 0 0 0-5.233 3.154c-1.145-2.531-3.046-3.154-5.238-3.154-1.811 0-3.473.738-4.683 2.401 0 0-.076-1.337-.753-1.835-.474-.343-.704-.335-1.399-.335h-3.183v39.276h5.756V53.515c0-3.997 1.102-4.894 2.875-4.894 1.316 0 2.526.596 2.526 3.372v31.684h5.651V53.515c0-3.997 1.098-4.894 2.875-4.894 1.308 0 2.523.596 2.523 3.372v31.684h5.656V53.623c-.004-6.046-2.271-9.452-7.373-9.452" /><path
   id="S"
   d="M63.175 34.078h8.133v49.598h-5.782V39.391c0-.343-.378-.573-.738-.573h-1.613v-4.74zM60.17 51.885v31.792h-3.122c-.378 0-.884.034-1.496-.712-.369-.444-.566-1.316-.566-1.316-1.303 1.593-2.607 2.145-4.383 2.145-4.541 0-6.096-2.631-6.096-7.944v-7.156c0-6.575 4.491-8.795 10.24-10.947v-5.509c0-2.765-.934-3.691-2.291-3.691-1.639 0-2.703.532-2.703 3.34v2.802c0 1.11-.424 1.692-2.291 1.668h-2.727v-3.889c0-5.313 2.555-8.296 7.609-8.296 5.346-.001 7.826 2.46 7.826 7.713zm-5.421 10.287c-3.252 1.587-4.814 2.686-4.814 7.06v5.555c0 2.674.215 4.634 2.18 4.634 1.709 0 2.636-1.047 2.636-5.741V62.172h-.002zm71.863 1.134c0 17.472-7.089 33.309-18.545 44.764s-27.28 18.545-44.755 18.536c-17.481.009-33.314-7.081-44.767-18.536S0 80.778 0 63.306c0-17.481 7.089-33.305 18.545-44.761S45.833.002 63.312.002c17.476 0 33.3 7.089 44.755 18.545s18.545 27.28 18.545 44.759zm-12.787.009c0-27.905-22.617-50.525-50.513-50.525-27.905 0-50.525 22.621-50.525 50.525a50.326 50.326 0 0 0 10.462 30.779V44.403h2.657c.784 0 1.596-.041 2.137.994a4.83 4.83 0 0 1 .39 1.047c1.311-2.154 3.302-2.288 5.087-2.288 4.61 0 6.599 3.209 6.599 9.238V75.5c0 4.985-2.421 8.413-6.599 8.413-1.529 0-3.063-.209-4.496-1.962v18.452a50.284 50.284 0 0 0 34.289 13.424c27.895.001 50.512-22.617 50.512-50.512zM31.701 79.319c1.5.017 2.712-.453 2.712-4.642V52.932c0-4.119-1.014-4.616-2.48-4.616-1.852 0-2.907 1.433-2.907 4.848v22.571c-.002 2.244 1.43 3.569 2.675 3.584zm65.256-35.148a6.041 6.041 0 0 0-5.233 3.154c-1.145-2.531-3.046-3.154-5.238-3.154-1.811 0-3.473.738-4.683 2.401 0 0-.076-1.337-.753-1.835-.474-.343-.704-.335-1.399-.335h-3.183v39.276h5.756V53.515c0-3.997 1.102-4.894 2.875-4.894 1.316 0 2.526.596 2.526 3.372v31.684h5.651V53.515c0-3.997 1.098-4.894 2.875-4.894 1.308 0 2.523.596 2.523 3.372v31.684h5.656V53.623c-.004-6.046-2.271-9.452-7.373-9.452" /><path
   id="U"
   d="M63.175 34.078h8.133v49.598h-5.782V39.391c0-.343-.378-.573-.738-.573h-1.613v-4.74zM60.17 51.885v31.792h-3.122c-.378 0-.884.034-1.496-.712-.369-.444-.566-1.316-.566-1.316-1.303 1.593-2.607 2.145-4.383 2.145-4.541 0-6.096-2.631-6.096-7.944v-7.156c0-6.575 4.491-8.795 10.24-10.947v-5.509c0-2.765-.934-3.691-2.291-3.691-1.639 0-2.703.532-2.703 3.34v2.802c0 1.11-.424 1.692-2.291 1.668h-2.727v-3.889c0-5.313 2.555-8.296 7.609-8.296 5.346-.001 7.826 2.46 7.826 7.713zm-5.421 10.287c-3.252 1.587-4.814 2.686-4.814 7.06v5.555c0 2.674.215 4.634 2.18 4.634 1.709 0 2.636-1.047 2.636-5.741V62.172h-.002zm71.863 1.134c0 17.472-7.089 33.309-18.545 44.764s-27.28 18.545-44.755 18.536c-17.481.009-33.314-7.081-44.767-18.536S0 80.778 0 63.306c0-17.481 7.089-33.305 18.545-44.761S45.833.002 63.312.002c17.476 0 33.3 7.089 44.755 18.545s18.545 27.28 18.545 44.759zm-12.787.009c0-27.905-22.617-50.525-50.513-50.525-27.905 0-50.525 22.621-50.525 50.525a50.326 50.326 0 0 0 10.462 30.779V44.403h2.657c.784 0 1.596-.041 2.137.994a4.83 4.83 0 0 1 .39 1.047c1.311-2.154 3.302-2.288 5.087-2.288 4.61 0 6.599 3.209 6.599 9.238V75.5c0 4.985-2.421 8.413-6.599 8.413-1.529 0-3.063-.209-4.496-1.962v18.452a50.284 50.284 0 0 0 34.289 13.424c27.895.001 50.512-22.617 50.512-50.512zM31.701 79.319c1.5.017 2.712-.453 2.712-4.642V52.932c0-4.119-1.014-4.616-2.48-4.616-1.852 0-2.907 1.433-2.907 4.848v22.571c-.002 2.244 1.43 3.569 2.675 3.584zm65.256-35.148a6.041 6.041 0 0 0-5.233 3.154c-1.145-2.531-3.046-3.154-5.238-3.154-1.811 0-3.473.738-4.683 2.401 0 0-.076-1.337-.753-1.835-.474-.343-.704-.335-1.399-.335h-3.183v39.276h5.756V53.515c0-3.997 1.102-4.894 2.875-4.894 1.316 0 2.526.596 2.526 3.372v31.684h5.651V53.515c0-3.997 1.098-4.894 2.875-4.894 1.308 0 2.523.596 2.523 3.372v31.684h5.656V53.623c-.004-6.046-2.271-9.452-7.373-9.452" /><path
   id="W"
   d="M63.175 34.078h8.133v49.598h-5.782V39.391c0-.343-.378-.573-.738-.573h-1.613v-4.74zM60.17 51.885v31.792h-3.122c-.378 0-.884.034-1.496-.712-.369-.444-.566-1.316-.566-1.316-1.303 1.593-2.607 2.145-4.383 2.145-4.541 0-6.096-2.631-6.096-7.944v-7.156c0-6.575 4.491-8.795 10.24-10.947v-5.509c0-2.765-.934-3.691-2.291-3.691-1.639 0-2.703.532-2.703 3.34v2.802c0 1.11-.424 1.692-2.291 1.668h-2.727v-3.889c0-5.313 2.555-8.296 7.609-8.296 5.346-.001 7.826 2.46 7.826 7.713zm-5.421 10.287c-3.252 1.587-4.814 2.686-4.814 7.06v5.555c0 2.674.215 4.634 2.18 4.634 1.709 0 2.636-1.047 2.636-5.741V62.172h-.002zm71.863 1.134c0 17.472-7.089 33.309-18.545 44.764s-27.28 18.545-44.755 18.536c-17.481.009-33.314-7.081-44.767-18.536S0 80.778 0 63.306c0-17.481 7.089-33.305 18.545-44.761S45.833.002 63.312.002c17.476 0 33.3 7.089 44.755 18.545s18.545 27.28 18.545 44.759zm-12.787.009c0-27.905-22.617-50.525-50.513-50.525-27.905 0-50.525 22.621-50.525 50.525a50.326 50.326 0 0 0 10.462 30.779V44.403h2.657c.784 0 1.596-.041 2.137.994a4.83 4.83 0 0 1 .39 1.047c1.311-2.154 3.302-2.288 5.087-2.288 4.61 0 6.599 3.209 6.599 9.238V75.5c0 4.985-2.421 8.413-6.599 8.413-1.529 0-3.063-.209-4.496-1.962v18.452a50.284 50.284 0 0 0 34.289 13.424c27.895.001 50.512-22.617 50.512-50.512zM31.701 79.319c1.5.017 2.712-.453 2.712-4.642V52.932c0-4.119-1.014-4.616-2.48-4.616-1.852 0-2.907 1.433-2.907 4.848v22.571c-.002 2.244 1.43 3.569 2.675 3.584zm65.256-35.148a6.041 6.041 0 0 0-5.233 3.154c-1.145-2.531-3.046-3.154-5.238-3.154-1.811 0-3.473.738-4.683 2.401 0 0-.076-1.337-.753-1.835-.474-.343-.704-.335-1.399-.335h-3.183v39.276h5.756V53.515c0-3.997 1.102-4.894 2.875-4.894 1.316 0 2.526.596 2.526 3.372v31.684h5.651V53.515c0-3.997 1.098-4.894 2.875-4.894 1.308 0 2.523.596 2.523 3.372v31.684h5.656V53.623c-.004-6.046-2.271-9.452-7.373-9.452" /><path
   id="Y"
   d="M63.175 34.078h8.133v49.598h-5.782V39.391c0-.343-.378-.573-.738-.573h-1.613v-4.74zM60.17 51.885v31.792h-3.122c-.378 0-.884.034-1.496-.712-.369-.444-.566-1.316-.566-1.316-1.303 1.593-2.607 2.145-4.383 2.145-4.541 0-6.096-2.631-6.096-7.944v-7.156c0-6.575 4.491-8.795 10.24-10.947v-5.509c0-2.765-.934-3.691-2.291-3.691-1.639 0-2.703.532-2.703 3.34v2.802c0 1.11-.424 1.692-2.291 1.668h-2.727v-3.889c0-5.313 2.555-8.296 7.609-8.296 5.346-.001 7.826 2.46 7.826 7.713zm-5.421 10.287c-3.252 1.587-4.814 2.686-4.814 7.06v5.555c0 2.674.215 4.634 2.18 4.634 1.709 0 2.636-1.047 2.636-5.741V62.172h-.002zm71.863 1.134c0 17.472-7.089 33.309-18.545 44.764s-27.28 18.545-44.755 18.536c-17.481.009-33.314-7.081-44.767-18.536S0 80.778 0 63.306c0-17.481 7.089-33.305 18.545-44.761S45.833.002 63.312.002c17.476 0 33.3 7.089 44.755 18.545s18.545 27.28 18.545 44.759zm-12.787.009c0-27.905-22.617-50.525-50.513-50.525-27.905 0-50.525 22.621-50.525 50.525a50.326 50.326 0 0 0 10.462 30.779V44.403h2.657c.784 0 1.596-.041 2.137.994a4.83 4.83 0 0 1 .39 1.047c1.311-2.154 3.302-2.288 5.087-2.288 4.61 0 6.599 3.209 6.599 9.238V75.5c0 4.985-2.421 8.413-6.599 8.413-1.529 0-3.063-.209-4.496-1.962v18.452a50.284 50.284 0 0 0 34.289 13.424c27.895.001 50.512-22.617 50.512-50.512zM31.701 79.319c1.5.017 2.712-.453 2.712-4.642V52.932c0-4.119-1.014-4.616-2.48-4.616-1.852 0-2.907 1.433-2.907 4.848v22.571c-.002 2.244 1.43 3.569 2.675 3.584zm65.256-35.148a6.041 6.041 0 0 0-5.233 3.154c-1.145-2.531-3.046-3.154-5.238-3.154-1.811 0-3.473.738-4.683 2.401 0 0-.076-1.337-.753-1.835-.474-.343-.704-.335-1.399-.335h-3.183v39.276h5.756V53.515c0-3.997 1.102-4.894 2.875-4.894 1.316 0 2.526.596 2.526 3.372v31.684h5.651V53.515c0-3.997 1.098-4.894 2.875-4.894 1.308 0 2.523.596 2.523 3.372v31.684h5.656V53.623c-.004-6.046-2.271-9.452-7.373-9.452" /><path
   id="aa"
   d="M63.175 34.078h8.133v49.598h-5.782V39.391c0-.343-.378-.573-.738-.573h-1.613v-4.74zM60.17 51.885v31.792h-3.122c-.378 0-.884.034-1.496-.712-.369-.444-.566-1.316-.566-1.316-1.303 1.593-2.607 2.145-4.383 2.145-4.541 0-6.096-2.631-6.096-7.944v-7.156c0-6.575 4.491-8.795 10.24-10.947v-5.509c0-2.765-.934-3.691-2.291-3.691-1.639 0-2.703.532-2.703 3.34v2.802c0 1.11-.424 1.692-2.291 1.668h-2.727v-3.889c0-5.313 2.555-8.296 7.609-8.296 5.346-.001 7.826 2.46 7.826 7.713zm-5.421 10.287c-3.252 1.587-4.814 2.686-4.814 7.06v5.555c0 2.674.215 4.634 2.18 4.634 1.709 0 2.636-1.047 2.636-5.741V62.172h-.002zm71.863 1.134c0 17.472-7.089 33.309-18.545 44.764s-27.28 18.545-44.755 18.536c-17.481.009-33.314-7.081-44.767-18.536S0 80.778 0 63.306c0-17.481 7.089-33.305 18.545-44.761S45.833.002 63.312.002c17.476 0 33.3 7.089 44.755 18.545s18.545 27.28 18.545 44.759zm-12.787.009c0-27.905-22.617-50.525-50.513-50.525-27.905 0-50.525 22.621-50.525 50.525a50.326 50.326 0 0 0 10.462 30.779V44.403h2.657c.784 0 1.596-.041 2.137.994a4.83 4.83 0 0 1 .39 1.047c1.311-2.154 3.302-2.288 5.087-2.288 4.61 0 6.599 3.209 6.599 9.238V75.5c0 4.985-2.421 8.413-6.599 8.413-1.529 0-3.063-.209-4.496-1.962v18.452a50.284 50.284 0 0 0 34.289 13.424c27.895.001 50.512-22.617 50.512-50.512zM31.701 79.319c1.5.017 2.712-.453 2.712-4.642V52.932c0-4.119-1.014-4.616-2.48-4.616-1.852 0-2.907 1.433-2.907 4.848v22.571c-.002 2.244 1.43 3.569 2.675 3.584zm65.256-35.148a6.041 6.041 0 0 0-5.233 3.154c-1.145-2.531-3.046-3.154-5.238-3.154-1.811 0-3.473.738-4.683 2.401 0 0-.076-1.337-.753-1.835-.474-.343-.704-.335-1.399-.335h-3.183v39.276h5.756V53.515c0-3.997 1.102-4.894 2.875-4.894 1.316 0 2.526.596 2.526 3.372v31.684h5.651V53.515c0-3.997 1.098-4.894 2.875-4.894 1.308 0 2.523.596 2.523 3.372v31.684h5.656V53.623c-.004-6.046-2.271-9.452-7.373-9.452" /><path
   id="ac"
   d="M63.175 34.078h8.133v49.598h-5.782V39.391c0-.343-.378-.573-.738-.573h-1.613v-4.74zM60.17 51.885v31.792h-3.122c-.378 0-.884.034-1.496-.712-.369-.444-.566-1.316-.566-1.316-1.303 1.593-2.607 2.145-4.383 2.145-4.541 0-6.096-2.631-6.096-7.944v-7.156c0-6.575 4.491-8.795 10.24-10.947v-5.509c0-2.765-.934-3.691-2.291-3.691-1.639 0-2.703.532-2.703 3.34v2.802c0 1.11-.424 1.692-2.291 1.668h-2.727v-3.889c0-5.313 2.555-8.296 7.609-8.296 5.346-.001 7.826 2.46 7.826 7.713zm-5.421 10.287c-3.252 1.587-4.814 2.686-4.814 7.06v5.555c0 2.674.215 4.634 2.18 4.634 1.709 0 2.636-1.047 2.636-5.741V62.172h-.002zm71.863 1.134c0 17.472-7.089 33.309-18.545 44.764s-27.28 18.545-44.755 18.536c-17.481.009-33.314-7.081-44.767-18.536S0 80.778 0 63.306c0-17.481 7.089-33.305 18.545-44.761S45.833.002 63.312.002c17.476 0 33.3 7.089 44.755 18.545s18.545 27.28 18.545 44.759zm-12.787.009c0-27.905-22.617-50.525-50.513-50.525-27.905 0-50.525 22.621-50.525 50.525a50.326 50.326 0 0 0 10.462 30.779V44.403h2.657c.784 0 1.596-.041 2.137.994a4.83 4.83 0 0 1 .39 1.047c1.311-2.154 3.302-2.288 5.087-2.288 4.61 0 6.599 3.209 6.599 9.238V75.5c0 4.985-2.421 8.413-6.599 8.413-1.529 0-3.063-.209-4.496-1.962v18.452a50.284 50.284 0 0 0 34.289 13.424c27.895.001 50.512-22.617 50.512-50.512zM31.701 79.319c1.5.017 2.712-.453 2.712-4.642V52.932c0-4.119-1.014-4.616-2.48-4.616-1.852 0-2.907 1.433-2.907 4.848v22.571c-.002 2.244 1.43 3.569 2.675 3.584zm65.256-35.148a6.041 6.041 0 0 0-5.233 3.154c-1.145-2.531-3.046-3.154-5.238-3.154-1.811 0-3.473.738-4.683 2.401 0 0-.076-1.337-.753-1.835-.474-.343-.704-.335-1.399-.335h-3.183v39.276h5.756V53.515c0-3.997 1.102-4.894 2.875-4.894 1.316 0 2.526.596 2.526 3.372v31.684h5.651V53.515c0-3.997 1.098-4.894 2.875-4.894 1.308 0 2.523.596 2.523 3.372v31.684h5.656V53.623c-.004-6.046-2.271-9.452-7.373-9.452" /><path
   id="ae"
   d="M63.175 34.078h8.133v49.598h-5.782V39.391c0-.343-.378-.573-.738-.573h-1.613v-4.74zM60.17 51.885v31.792h-3.122c-.378 0-.884.034-1.496-.712-.369-.444-.566-1.316-.566-1.316-1.303 1.593-2.607 2.145-4.383 2.145-4.541 0-6.096-2.631-6.096-7.944v-7.156c0-6.575 4.491-8.795 10.24-10.947v-5.509c0-2.765-.934-3.691-2.291-3.691-1.639 0-2.703.532-2.703 3.34v2.802c0 1.11-.424 1.692-2.291 1.668h-2.727v-3.889c0-5.313 2.555-8.296 7.609-8.296 5.346-.001 7.826 2.46 7.826 7.713zm-5.421 10.287c-3.252 1.587-4.814 2.686-4.814 7.06v5.555c0 2.674.215 4.634 2.18 4.634 1.709 0 2.636-1.047 2.636-5.741V62.172h-.002zm71.863 1.134c0 17.472-7.089 33.309-18.545 44.764s-27.28 18.545-44.755 18.536c-17.481.009-33.314-7.081-44.767-18.536S0 80.778 0 63.306c0-17.481 7.089-33.305 18.545-44.761S45.833.002 63.312.002c17.476 0 33.3 7.089 44.755 18.545s18.545 27.28 18.545 44.759zm-12.787.009c0-27.905-22.617-50.525-50.513-50.525-27.905 0-50.525 22.621-50.525 50.525a50.326 50.326 0 0 0 10.462 30.779V44.403h2.657c.784 0 1.596-.041 2.137.994a4.83 4.83 0 0 1 .39 1.047c1.311-2.154 3.302-2.288 5.087-2.288 4.61 0 6.599 3.209 6.599 9.238V75.5c0 4.985-2.421 8.413-6.599 8.413-1.529 0-3.063-.209-4.496-1.962v18.452a50.284 50.284 0 0 0 34.289 13.424c27.895.001 50.512-22.617 50.512-50.512zM31.701 79.319c1.5.017 2.712-.453 2.712-4.642V52.932c0-4.119-1.014-4.616-2.48-4.616-1.852 0-2.907 1.433-2.907 4.848v22.571c-.002 2.244 1.43 3.569 2.675 3.584zm65.256-35.148a6.041 6.041 0 0 0-5.233 3.154c-1.145-2.531-3.046-3.154-5.238-3.154-1.811 0-3.473.738-4.683 2.401 0 0-.076-1.337-.753-1.835-.474-.343-.704-.335-1.399-.335h-3.183v39.276h5.756V53.515c0-3.997 1.102-4.894 2.875-4.894 1.316 0 2.526.596 2.526 3.372v31.684h5.651V53.515c0-3.997 1.098-4.894 2.875-4.894 1.308 0 2.523.596 2.523 3.372v31.684h5.656V53.623c-.004-6.046-2.271-9.452-7.373-9.452" /><path
   id="ag"
   d="M63.175 34.078h8.133v49.598h-5.782V39.391c0-.343-.378-.573-.738-.573h-1.613v-4.74zM60.17 51.885v31.792h-3.122c-.378 0-.884.034-1.496-.712-.369-.444-.566-1.316-.566-1.316-1.303 1.593-2.607 2.145-4.383 2.145-4.541 0-6.096-2.631-6.096-7.944v-7.156c0-6.575 4.491-8.795 10.24-10.947v-5.509c0-2.765-.934-3.691-2.291-3.691-1.639 0-2.703.532-2.703 3.34v2.802c0 1.11-.424 1.692-2.291 1.668h-2.727v-3.889c0-5.313 2.555-8.296 7.609-8.296 5.346-.001 7.826 2.46 7.826 7.713zm-5.421 10.287c-3.252 1.587-4.814 2.686-4.814 7.06v5.555c0 2.674.215 4.634 2.18 4.634 1.709 0 2.636-1.047 2.636-5.741V62.172h-.002zm71.863 1.134c0 17.472-7.089 33.309-18.545 44.764s-27.28 18.545-44.755 18.536c-17.481.009-33.314-7.081-44.767-18.536S0 80.778 0 63.306c0-17.481 7.089-33.305 18.545-44.761S45.833.002 63.312.002c17.476 0 33.3 7.089 44.755 18.545s18.545 27.28 18.545 44.759zm-12.787.009c0-27.905-22.617-50.525-50.513-50.525-27.905 0-50.525 22.621-50.525 50.525a50.326 50.326 0 0 0 10.462 30.779V44.403h2.657c.784 0 1.596-.041 2.137.994a4.83 4.83 0 0 1 .39 1.047c1.311-2.154 3.302-2.288 5.087-2.288 4.61 0 6.599 3.209 6.599 9.238V75.5c0 4.985-2.421 8.413-6.599 8.413-1.529 0-3.063-.209-4.496-1.962v18.452a50.284 50.284 0 0 0 34.289 13.424c27.895.001 50.512-22.617 50.512-50.512zM31.701 79.319c1.5.017 2.712-.453 2.712-4.642V52.932c0-4.119-1.014-4.616-2.48-4.616-1.852 0-2.907 1.433-2.907 4.848v22.571c-.002 2.244 1.43 3.569 2.675 3.584zm65.256-35.148a6.041 6.041 0 0 0-5.233 3.154c-1.145-2.531-3.046-3.154-5.238-3.154-1.811 0-3.473.738-4.683 2.401 0 0-.076-1.337-.753-1.835-.474-.343-.704-.335-1.399-.335h-3.183v39.276h5.756V53.515c0-3.997 1.102-4.894 2.875-4.894 1.316 0 2.526.596 2.526 3.372v31.684h5.651V53.515c0-3.997 1.098-4.894 2.875-4.894 1.308 0 2.523.596 2.523 3.372v31.684h5.656V53.623c-.004-6.046-2.271-9.452-7.373-9.452" /><linearGradient
   id="linearGradient34773"
   gradientUnits="userSpaceOnUse"
   x1="15.196"
   y1="312.37051"
   x2="3854.196"
   y2="312.37051"
   gradientTransform="translate(1160.9631,-2.2896484e-5)">
				<stop
   offset="0"
   style="stop-color:#f3dd42;stop-opacity:1"
   id="stop34769" />
				<stop
   offset="1"
   style="stop-color:#d7861b;stop-opacity:1"
   id="stop34771" />
			</linearGradient><linearGradient
   id="SVGID_1_"
   gradientUnits="userSpaceOnUse"
   x1="15.196"
   y1="312.37051"
   x2="3854.196"
   y2="312.37051"
   gradientTransform="translate(1160.9631,-2.2896484e-5)">
				<stop
   offset="0"
   style="stop-color:#FF2422"
   id="stop4" />
				<stop
   offset="1"
   style="stop-color:#C24FFF"
   id="stop6" />
			</linearGradient><linearGradient
   xlink:href="#linearGradient34773"
   id="linearGradient6574"
   gradientUnits="userSpaceOnUse"
   gradientTransform="translate(1160.9631,-7.145e-5)"
   x1="15.196"
   y1="312.37051"
   x2="3588.2239"
   y2="316.50259" />
		
		
		
		
		
		
	
			
				<linearGradient
   id="SVGID_00000145054330599880703690000004533480753458681732_"
   gradientUnits="userSpaceOnUse"
   x1="2220.6216"
   y1="604.23328"
   x2="2220.6216"
   y2="16.339899">
				<stop
   offset="0"
   style="stop-color:#FF0000"
   id="stop78" />
				<stop
   offset="0.2634"
   style="stop-color:#E42372"
   id="stop80" />
				<stop
   offset="0.3192"
   style="stop-color:#FFA1FF"
   id="stop82" />
				<stop
   offset="0.4267"
   style="stop-color:#DA2F9A"
   id="stop84" />
				<stop
   offset="0.7554"
   style="stop-color:#CC41D4"
   id="stop86" />
				<stop
   offset="0.7881"
   style="stop-color:#FFA1FF"
   id="stop88" />
				<stop
   offset="0.8413"
   style="stop-color:#C846E3"
   id="stop90" />
				<stop
   offset="1"
   style="stop-color:#C24FFF"
   id="stop92" />
			</linearGradient>
			
		
			
				<linearGradient
   id="SVGID_00000135673619673579814740000002913345356260872074_"
   gradientUnits="userSpaceOnUse"
   x1="1037.5408"
   y1="604.23328"
   x2="1037.5408"
   y2="20.5096">
				<stop
   offset="0"
   style="stop-color:#FF0000"
   id="stop36" />
				<stop
   offset="0.2634"
   style="stop-color:#E42372"
   id="stop38" />
				<stop
   offset="0.3192"
   style="stop-color:#FFA1FF"
   id="stop40" />
				<stop
   offset="0.4267"
   style="stop-color:#DA2F9A"
   id="stop42" />
				<stop
   offset="0.7554"
   style="stop-color:#CC41D4"
   id="stop44" />
				<stop
   offset="0.7881"
   style="stop-color:#FFA1FF"
   id="stop46" />
				<stop
   offset="0.8413"
   style="stop-color:#C846E3"
   id="stop48" />
				<stop
   offset="1"
   style="stop-color:#C24FFF"
   id="stop50" />
			</linearGradient>
			
		
			
				<linearGradient
   id="SVGID_00000128444796063564815230000007252927678799283094_"
   gradientUnits="userSpaceOnUse"
   x1="357.92542"
   y1="604.23328"
   x2="357.92542"
   y2="16.339899">
				<stop
   offset="0"
   style="stop-color:#FF0000"
   id="stop15" />
				<stop
   offset="0.2634"
   style="stop-color:#E42372"
   id="stop17" />
				<stop
   offset="0.3192"
   style="stop-color:#FFA1FF"
   id="stop19" />
				<stop
   offset="0.4267"
   style="stop-color:#DA2F9A"
   id="stop21" />
				<stop
   offset="0.7554"
   style="stop-color:#CC41D4"
   id="stop23" />
				<stop
   offset="0.7881"
   style="stop-color:#FFA1FF"
   id="stop25" />
				<stop
   offset="0.8413"
   style="stop-color:#C846E3"
   id="stop27" />
				<stop
   offset="1"
   style="stop-color:#C24FFF"
   id="stop29" />
			</linearGradient>
			
		
			
				<linearGradient
   id="SVGID_00000021080724737336074490000000910687952145319586_"
   gradientUnits="userSpaceOnUse"
   x1="3526.8933"
   y1="604.23328"
   x2="3526.8933"
   y2="20.5096">
				<stop
   offset="0"
   style="stop-color:#FF0000"
   id="stop120" />
				<stop
   offset="0.2634"
   style="stop-color:#E42372"
   id="stop122" />
				<stop
   offset="0.3192"
   style="stop-color:#FFA1FF"
   id="stop124" />
				<stop
   offset="0.4267"
   style="stop-color:#DA2F9A"
   id="stop126" />
				<stop
   offset="0.7554"
   style="stop-color:#CC41D4"
   id="stop128" />
				<stop
   offset="0.7881"
   style="stop-color:#FFA1FF"
   id="stop130" />
				<stop
   offset="0.8413"
   style="stop-color:#C846E3"
   id="stop132" />
				<stop
   offset="1"
   style="stop-color:#C24FFF"
   id="stop134" />
			</linearGradient>
			
		
			
				<linearGradient
   id="SVGID_00000106148091704042031110000017185161894946614463_"
   gradientUnits="userSpaceOnUse"
   x1="2905.2402"
   y1="604.23328"
   x2="2905.2402"
   y2="20.5096">
				<stop
   offset="0"
   style="stop-color:#FF0000"
   id="stop99" />
				<stop
   offset="0.2634"
   style="stop-color:#E42372"
   id="stop101" />
				<stop
   offset="0.3192"
   style="stop-color:#FFA1FF"
   id="stop103" />
				<stop
   offset="0.4267"
   style="stop-color:#DA2F9A"
   id="stop105" />
				<stop
   offset="0.7554"
   style="stop-color:#CC41D4"
   id="stop107" />
				<stop
   offset="0.7881"
   style="stop-color:#FFA1FF"
   id="stop109" />
				<stop
   offset="0.8413"
   style="stop-color:#C846E3"
   id="stop111" />
				<stop
   offset="1"
   style="stop-color:#C24FFF"
   id="stop113" />
			</linearGradient>
			
		
			
				<linearGradient
   id="SVGID_00000093171400342485411010000004786870807831186310_"
   gradientUnits="userSpaceOnUse"
   x1="1682.7727"
   y1="616.74109"
   x2="1682.7727"
   y2="8.0001001">
				<stop
   offset="0"
   style="stop-color:#FF0000"
   id="stop57" />
				<stop
   offset="0.2634"
   style="stop-color:#E42372"
   id="stop59" />
				<stop
   offset="0.3192"
   style="stop-color:#FFA1FF"
   id="stop61" />
				<stop
   offset="0.4267"
   style="stop-color:#DA2F9A"
   id="stop63" />
				<stop
   offset="0.7554"
   style="stop-color:#CC41D4"
   id="stop65" />
				<stop
   offset="0.7881"
   style="stop-color:#FFA1FF"
   id="stop67" />
				<stop
   offset="0.8413"
   style="stop-color:#C846E3"
   id="stop69" />
				<stop
   offset="1"
   style="stop-color:#C24FFF"
   id="stop71" />
			</linearGradient>
			
		
	
	
	
	
	

		
		
		
		
		
	
		
		
		
		
		
		
		
		
		
	
		
	
		
		
		
	
		
		
		
		
	
			
			
			
			
		
			
			
			
			
		
			
			
			
			
			
		
			
			
			
		
				
			
				
			
				
			
				
			
				
			
				
			
				
			
				
			
				
			
				
			
				
			
				
			
					
					
					
					
					
				
		
		
		
		
	
			
			
		
			
			
			
			
			
		
			
			
			
			
		
		
		
		
		
		
		
		
		
		
		
		
		
		
		
		
		
	
			
		
			
		
			
			
		</defs><g
     inkscape:label="Layer 1"
     inkscape:groupmode="layer"
     id="layer1"><path
       id="rect231"
       style="fill:#ffffff;stroke-width:0.8001;stroke-linecap:square;paint-order:fill markers stroke"
       d="M 0 0 L 0 132.29167 L 396.875 132.29167 L 396.875 0 L 225.85288 0 C 228.49832 0 230.74474 1.7500825 231.50835 4.1702881 L 239.34715 28.477332 L 224.49224 28.477332 L 224.49224 24.825358 L 234.1423 24.825358 L 227.59954 4.5521769 C 227.21687 3.437081 226.53402 3.3052246 225.85288 3.3052246 C 225.14036 3.3052246 224.48247 3.6004425 224.11139 4.6188395 L 216.43072 28.477332 L 199.80899 28.477332 L 199.80899 28.475781 C 195.76 28.475781 192.47456 25.157275 192.47456 21.066931 L 192.47456 8.0971802 C 192.47456 4.0051723 195.76 0.68833008 199.80899 0.68833008 L 212.68004 0.68833008 L 212.68004 4.39198 L 200.11905 4.39198 C 197.98984 4.39198 196.10483 6.3770639 196.10483 8.5255778 L 196.10483 20.643184 C 196.10483 22.791697 197.98821 24.826908 200.11905 24.826908 L 209.01722 24.826908 L 209.01722 13.933 L 202.09826 13.933 L 202.09826 10.296012 L 212.69503 10.296012 L 212.69503 27.622603 L 220.2434 4.0152588 C 221.05488 1.6767261 223.25853 3.133293e-16 225.85288 0 L 0 0 z M 154.83293 0.65008952 L 166.67148 0.65008952 L 166.67975 4.3837118 L 154.88254 4.3837118 C 151.9171 4.3837118 149.51594 6.8124181 149.51594 9.8076701 C 149.51594 12.801254 151.91878 15.229561 154.88254 15.229561 L 158.03118 15.242997 C 160.31543 15.242997 162.16891 17.083054 162.16891 19.391581 C 162.16891 21.696772 160.31543 23.570138 158.03118 23.570138 L 145.87895 23.570138 L 145.87895 19.996712 L 158.43994 19.996712 L 158.43994 18.764746 L 154.83293 18.764746 C 149.84552 18.808082 145.79989 14.819791 145.79989 9.7776978 C 145.79989 4.7372738 149.84552 0.65008952 154.83293 0.65008952 z M 177.49924 0.68006185 L 189.85715 0.68006185 L 189.85715 4.3837118 L 177.8062 4.3837118 C 175.68032 4.3837118 173.79508 6.3687967 173.79508 8.5173096 L 173.79508 20.636983 C 173.79508 22.783828 175.68032 24.820707 177.8062 24.820707 L 189.85715 24.820707 L 189.85715 28.472681 L 177.49924 28.472681 C 173.45025 28.472681 170.16636 25.155326 170.16636 21.063314 L 170.16636 8.0940796 C 170.16636 4.0037357 173.45025 0.68522949 177.49924 0.68522949 L 177.49924 0.68006185 z M 225.85288 4.5537272 C 226.24858 4.5537272 226.29961 4.6368608 226.44664 4.9852254 L 232.46643 23.585124 L 224.49224 23.585124 L 224.49224 19.900077 L 227.29414 19.900077 L 225.89732 15.526184 L 221.6521 28.477332 L 217.70351 28.472681 L 225.20796 5.1102824 C 225.3598 4.7619377 225.45536 4.5537272 225.85288 4.5537272 z M 177.92454 5.6105103 L 189.85404 5.6105103 L 189.85404 9.264034 L 178.65059 9.264034 L 178.65059 10.292395 L 187.479 10.292395 L 187.479 13.996045 L 175.00379 13.996045 L 175.02187 8.5307454 C 175.02187 7.012284 176.31484 5.6038423 177.92454 5.6105103 z M 200.23429 5.6105103 L 212.68004 5.6105103 L 212.68004 9.264034 L 200.89575 9.264034 L 200.89575 19.995162 L 204.20614 19.995162 L 204.20614 18.769914 L 202.09516 18.769914 L 202.09516 15.149463 L 207.80644 15.149463 L 207.82607 23.568587 L 200.23481 23.568587 C 198.64164 23.585255 197.31715 22.280172 197.31715 20.633366 L 197.33162 8.5307454 C 197.33162 7.012284 198.62459 5.6041103 200.23429 5.6105103 z M 154.88254 5.6229126 L 166.67975 5.6229126 L 166.67148 9.1658488 L 154.36629 9.1658488 L 154.36629 10.391097 L 158.05754 10.397298 C 163.04826 10.397298 167.09058 14.385784 167.09058 19.426204 C 167.09058 24.468297 163.04826 28.466996 158.05754 28.466996 L 145.87895 28.442192 L 145.87895 24.809855 L 158.03118 24.809855 C 160.99493 24.809855 163.39778 22.383217 163.39778 19.387964 C 163.39778 16.39438 160.99493 13.997595 158.03118 13.997595 L 154.88254 13.98571 C 152.59828 13.98571 150.7448 12.112063 150.7448 9.803536 C 150.7448 7.4950083 152.59828 5.6229126 154.88254 5.6229126 z M 175.02032 15.214575 L 187.47745 15.214575 L 187.47745 18.868099 L 178.64904 18.868099 L 178.64904 19.89646 L 189.85249 19.89646 L 189.85249 23.568587 L 177.92299 23.568587 C 176.32977 23.585255 175.00224 22.280172 175.00224 20.633366 L 175.02032 15.214575 z M 194.47133 43.037683 C 201.68169 43.109991 211.08162 44.33429 221.30949 48.889006 C 226.10338 50.996493 230.21586 53.979986 233.31754 58.18973 C 235.15387 60.679687 242.06721 74.341202 227.97627 85.248027 C 222.93742 89.296662 216.92516 91.799704 210.8476 93.925533 C 205.64633 95.746175 201.83089 97.10997 193.32102 99.576351 C 186.85841 101.49784 182.22043 103.00532 174.82654 106.52218 C 168.94547 109.3147 165.08295 112.71353 165.08295 112.71353 C 165.08295 112.71353 163.15754 114.20012 163.53214 115.36453 C 163.85194 116.37571 165.46121 116.2748 166.4069 116.27611 C 189.15707 116.29051 211.9076 116.28546 234.65906 116.28696 C 237.01411 116.28696 239.29549 116.12182 241.09123 114.27106 C 241.35559 113.99992 242.04502 113.85578 242.35937 114.01165 C 242.65789 114.15835 242.86602 114.78169 242.86993 115.19297 C 242.90453 120.53308 242.9047 125.98704 242.8751 131.32583 C 242.8701 131.84452 242.69956 132.03097 242.44412 132.1816 C 242.05501 132.40689 241.22862 132.28865 240.78065 131.81056 L 240.78324 131.81056 C 239.14725 130.08422 234.74746 129.9285 234.06375 129.9285 C 203.25295 129.9285 172.4406 129.9255 141.62856 129.9285 C 138.49417 129.9285 137.93128 130.31228 138.31766 126.33699 C 138.94503 119.82983 141.33132 113.78224 146.04793 109.11014 C 146.95169 108.19065 147.25429 107.88055 149.31853 106.0049 C 158.06549 98.063493 175.49523 91.697762 175.49523 91.697762 C 175.49523 91.697762 190.08031 86.3009 198.27059 83.070898 C 201.94854 81.622244 205.54109 79.949957 208.81826 77.677429 C 220.69694 68.297851 214.52944 58.986018 198.86538 56.815653 C 187.897 55.245188 177.90149 57.926363 168.66206 63.829696 C 167.45444 64.601173 166.43648 65.37139 165.27208 66.208362 C 163.20782 67.958273 161.43603 69.997697 161.0496 72.254504 C 160.84267 73.470013 161.03927 74.309815 161.06407 74.507597 C 161.14377 75.140237 161.33558 76.142093 160.86925 76.597909 C 160.30598 77.14934 159.13746 76.596622 158.61874 76.105432 C 153.85629 71.59705 149.08888 67.09901 144.32246 62.599797 C 144.02395 62.316876 143.47496 61.713029 143.47496 61.713029 C 143.47496 61.713029 142.95198 61.109456 142.93494 60.692936 C 142.91514 60.227939 143.36959 59.790689 143.91731 59.6191 C 146.51468 59.138408 147.7131 58.986209 149.27048 57.841431 C 153.46709 54.773846 157.84727 52.027288 162.53116 49.741667 C 168.78684 46.683245 175.36897 44.865032 182.26123 43.933752 C 184.57976 43.622018 188.86328 42.981444 194.47133 43.037683 z M 80.76613 43.262992 C 85.306103 43.232867 90.063165 43.44793 94.056791 44.038656 C 99.393016 44.848118 104.68427 45.920704 109.6393 48.132979 C 114.01018 50.084602 118.27763 52.264328 121.54038 55.944906 C 123.89805 58.603829 125.48301 61.578454 126.0135 65.185685 C 126.52172 68.642284 125.95588 71.802592 124.47819 74.902922 C 123.46438 77.039229 121.94415 78.419885 119.85367 79.677307 C 115.75526 82.141069 113.32676 82.75444 112.8081 83.071415 C 111.98161 83.577004 111.94587 84.246149 112.78795 84.728162 C 113.54498 85.161709 114.41483 85.418319 115.25963 85.681592 C 120.19373 87.224553 124.43228 89.936149 127.96222 93.657332 C 130.54652 96.369958 132.0738 99.624831 132.58726 103.46914 C 133.1138 107.40382 132.1917 110.8852 130.49023 114.30775 C 129.17122 116.9706 126.97851 118.84237 124.67456 120.54251 C 120.00898 123.98339 114.81947 126.30796 109.25018 127.95963 C 105.10851 129.18693 100.90959 130.01872 96.656632 130.58324 C 82.119007 132.17467 74.692352 131.3483 71.288155 131.14135 L 71.287638 131.14135 C 67.554632 130.91344 63.813935 130.43169 60.125529 129.78071 C 45.121614 127.12834 38.143066 123.57955 33.95555 121.93313 C 31.954182 121.14462 29.998229 120.40085 27.822591 121.19984 C 27.576561 121.29024 27.283434 121.28497 27.012305 121.29027 C 25.631756 121.30467 25.204681 120.76898 25.80721 119.53121 C 26.52107 118.05898 27.361708 116.64153 28.206547 115.23741 C 30.497385 111.43239 32.818338 107.64349 35.130155 103.84896 C 35.236095 103.67083 35.357931 103.50698 35.461401 103.32754 C 35.934171 102.53641 36.450183 101.80538 37.529492 101.95863 C 38.544581 102.09878 38.766049 102.9387 38.976949 103.73114 C 39.441799 105.46401 40.496409 106.75375 41.882198 107.82649 C 45.164615 110.37147 48.870207 112.08366 52.759054 113.44062 C 57.800529 115.20364 62.989712 116.30769 68.263017 117.13549 C 74.504281 118.11785 80.778386 118.24376 87.04585 117.87963 C 92.358454 117.57052 97.589905 116.60886 102.59994 114.64675 C 105.64786 113.45351 107.9572 111.35013 109.8119 108.77372 C 112.26521 105.35904 111.26199 100.66573 107.91279 97.997636 C 103.36771 94.37076 98.079884 92.936945 92.47911 91.974231 C 87.442895 91.111063 82.415554 91.203874 77.374089 91.269364 C 75.005931 91.299514 69.349157 91.523465 67.181429 93.53796 C 66.38505 94.245259 65.748173 94.297368 65.369653 93.955505 C 64.988474 93.609714 64.972614 93.063851 64.968644 92.589697 C 64.929044 87.658246 64.924475 82.72663 64.954175 77.800419 C 64.964175 76.186728 65.717459 75.699423 66.964388 76.575688 C 68.541406 77.679862 70.292671 78.164338 72.121179 78.401416 C 75.156016 78.791741 85.064787 78.446122 87.089775 78.182825 C 92.501889 77.472905 92.027658 77.558012 95.186955 76.710563 C 98.567591 75.804171 101.79403 73.425479 103.47844 71.460754 C 103.50314 71.428084 103.53232 71.396583 103.55802 71.365153 C 105.90519 68.533336 105.11646 65.272089 102.93429 62.939311 C 100.83597 60.6956 98.202084 59.264048 95.268087 58.396952 C 90.457152 56.977116 85.529737 56.197481 80.534102 56.433248 C 71.481951 56.858939 62.610594 58.246079 54.428202 62.459753 C 52.555134 63.429012 50.797271 64.640904 49.068323 65.859029 C 47.592134 66.896401 46.848365 68.415752 46.806445 70.246875 C 46.786645 71.19911 46.936082 72.284745 45.807023 72.699955 C 44.668764 73.119098 44.08168 72.12917 43.42939 71.469023 C 39.264165 67.229155 35.114813 62.969279 30.961418 58.716313 C 30.720328 58.471363 30.454819 58.239933 30.279289 57.950468 C 29.776309 57.137075 30.084798 56.462181 31.047717 56.349532 C 32.123116 56.226414 33.277052 56.396518 34.276461 56.070479 C 35.753929 55.587164 37.135928 54.800146 38.541317 54.109875 C 42.279523 52.274826 45.919614 50.206441 49.75872 48.622872 C 55.837554 46.117196 62.238394 44.770644 68.775647 43.958557 C 71.902844 43.568232 76.226157 43.293117 80.76613 43.262992 z M 286.83262 43.974577 C 287.07216 43.972287 287.31051 43.977079 287.54627 44.004549 C 288.63082 44.134203 288.79555 44.592441 288.11575 45.47526 C 286.90283 47.058824 286.91339 47.230604 288.29403 48.693669 C 288.34353 48.742179 288.39215 48.789114 288.43821 48.836296 C 295.20868 55.697106 301.979 62.55797 308.74808 69.417468 C 309.0862 69.759349 309.40319 70.131253 309.79091 70.405005 C 310.46943 70.893567 311.1977 70.903132 311.86572 70.367281 C 312.23899 70.068618 312.56623 69.714649 312.90286 69.371476 C 319.58948 62.618072 326.27373 55.865961 332.959 49.10863 C 333.19861 48.863681 333.45001 48.629337 333.6649 48.363456 C 334.55688 47.254044 334.53484 46.863801 333.7047 45.673181 C 332.95549 44.662001 332.95515 44.039673 334.48243 44.002999 C 334.81758 43.993599 335.16224 43.986462 335.50407 43.986462 C 345.34473 43.986462 355.18571 43.982546 365.02113 43.989046 C 365.63281 43.989046 366.25846 43.980755 366.85048 44.110486 C 367.10197 44.166826 367.40619 44.544234 367.44941 44.815352 C 367.48901 45.079906 367.3054 45.54507 367.0856 45.655094 C 366.42154 45.99039 365.70987 46.277197 364.98289 46.434375 C 362.22839 47.039506 359.98506 48.401574 357.99417 50.433097 C 349.4293 59.174798 340.7767 67.831664 332.16991 76.53538 C 330.01263 78.720151 327.8877 80.949322 325.77236 83.179936 C 324.43241 84.587986 324.42998 85.25723 325.78735 86.644324 C 328.17121 89.083197 330.62053 91.451376 332.99259 93.900728 C 334.75036 95.710893 336.38522 97.64441 338.1561 99.441475 C 342.8649 104.21182 347.63111 108.92308 352.34645 113.68557 C 355.52015 116.89067 358.66487 120.12439 361.78619 123.38058 C 363.58063 125.26148 365.67367 126.56893 368.19768 127.21859 C 369.11584 127.44912 370.017 127.80112 370.88279 128.18752 C 371.11992 128.29492 371.36596 128.7391 371.33082 128.99058 C 371.29122 129.24862 370.95616 129.57902 370.68383 129.66547 C 370.24225 129.80693 369.74486 129.8081 369.27203 129.8081 C 359.22706 129.8161 349.18448 129.8131 339.13951 129.8081 C 338.7311 129.8081 338.30814 129.81711 337.92304 129.70991 C 337.28255 129.52392 337.04003 129.13996 337.43573 128.47588 C 337.76691 127.9179 338.29233 127.28268 338.23465 126.73387 C 338.16785 126.15361 337.57177 125.58541 337.10811 125.10864 C 329.31471 117.14497 321.5095 109.19433 313.70695 101.23982 C 313.41884 100.94773 313.12939 100.65405 312.83465 100.37113 C 311.11228 98.699816 310.4798 98.679148 308.7548 100.40162 C 303.76569 105.37237 298.77105 110.34301 293.82651 115.36092 C 290.61617 118.62103 287.48741 121.96224 284.32683 125.27607 C 283.13753 126.52301 283.13869 126.60192 284.04106 128.25884 C 284.5571 129.2019 284.36311 129.61682 283.28503 129.77399 C 282.8187 129.84209 282.33269 129.81326 281.85463 129.81326 C 272.15282 129.81626 262.44998 129.8276 252.74685 129.7988 C 251.87843 129.7948 250.41674 130.03089 250.34338 128.96732 C 250.18892 127.8566 251.52843 127.80147 252.31431 127.61547 C 255.84821 126.78768 258.54775 124.77064 261.04556 122.20339 C 269.00926 114.01837 277.10791 105.9667 285.12006 97.835372 C 287.61129 95.30743 289.98893 92.676285 292.4514 90.122148 C 293.39709 89.135858 294.44864 88.259435 295.41918 87.298031 C 297.44417 85.282227 297.45069 84.74658 295.50186 82.775309 C 289.596 76.789472 283.67426 70.819448 277.77219 64.827051 C 272.97305 59.963709 268.15457 55.113091 263.41958 50.185567 C 261.59369 48.291578 259.452 47.107744 256.93057 46.519641 C 256.46671 46.410929 256.01001 46.265499 255.55288 46.12535 C 254.90452 45.924954 254.10133 45.77032 254.19172 44.883565 C 254.28082 43.982415 255.07199 43.982536 255.77664 43.986462 C 256.18506 43.986462 256.59654 43.982328 257.00653 43.982328 L 271.56379 43.982328 C 276.41053 43.982328 281.26237 43.982563 286.11174 43.986462 C 286.35208 43.986462 286.59309 43.976867 286.83262 43.974577 z " /></g><style
     type="text/css"
     id="style2">
	.st0{fill:#F05100;}
	.st1{fill:#FFFFFF;}
	.st2{fill:#1281C4;}
	.st3{fill:#034693;}
	.st4{fill:#CF3312;}
</style><style
     type="text/css"
     id="style2-4">
	.st0{fill:#FFFFFF;}
	.st1{fill:#FF0000;}
	.st2{fill:url(#SVGID_1_);}
	.st3{fill:url(#SVGID_00000060022068257817767130000001067164073883981741_);}
	.st4{fill:url(#SVGID_00000144308182761068376180000004131709304805192586_);}
	.st5{fill:url(#SVGID_00000000935997520668853970000011105419993307822477_);}
	.st6{fill:url(#SVGID_00000018200174457167754170000000853354448091225986_);}
	.st7{fill:url(#SVGID_00000072987630451721579260000010409738167651109522_);}
	.st8{fill:#3636FF;}
	.st9{display:none;}
	.st10{display:inline;}
	.st11{enable-background:new    ;}
	.st12{fill:url(#SVGID_00000099639162208554751810000013272208193612295339_);}
	.st13{fill:url(#SVGID_00000158736166008707814920000018426778185460247990_);}
	.st14{fill:url(#SVGID_00000133527000259551881150000004185836194023049859_);}
	.st15{fill:url(#SVGID_00000093164219829473752460000004603917870326250679_);}
	.st16{fill:url(#SVGID_00000156556395246081825560000005894267688922753411_);}
	.st17{fill:url(#SVGID_00000135690321830567168220000000437954853257014148_);}
	.st18{fill:url(#SVGID_00000040565659643257570880000002075315462357006765_);}
	.st19{fill:url(#SVGID_00000017508175736194757820000008863537906517323707_);}
	.st20{fill:url(#SVGID_00000126293465477839731700000000626789561221784705_);}
	.st21{fill:url(#SVGID_00000087403315896914670680000008996143154280075168_);}
	.st22{fill:url(#SVGID_00000151540686432933406660000011628697137491540393_);}
	.st23{fill:url(#SVGID_00000143589059756432772880000012524823099024141722_);}
	.st24{fill:url(#SVGID_00000052088033699595628130000015515451372212444082_);}
	.st25{fill:url(#SVGID_00000126294377186336552610000001799937443100725399_);}
	.st26{fill:url(#SVGID_00000070835762807858034660000013936331226864194476_);}
	.st27{fill:url(#SVGID_00000092457199491666826160000016742156659903073436_);}
	.st28{fill:url(#SVGID_00000138556585880754416440000017272986633013561527_);}
	.st29{fill:url(#SVGID_00000032624778419303139080000015394367773870234245_);}
	.st30{fill:url(#SVGID_00000040539262103052545880000003837399106474199717_);}
	.st31{fill:url(#SVGID_00000115483974547727894610000006699104590764616355_);}
	.st32{fill:url(#SVGID_00000041285316495664937430000010139118778734034608_);}
	.st33{fill:url(#SVGID_00000178199001922562380240000009661348160359078294_);}
	.st34{fill:url(#SVGID_00000145019290134935790460000010249637267404127883_);}
	.st35{fill:url(#SVGID_00000117636406951782473700000003654222835714608307_);}
	.st36{fill:url(#SVGID_00000158745280490234840560000003483236744759648947_);}
	.st37{fill:url(#SVGID_00000146474604070782972690000015670225624893543309_);}
	.st38{fill:url(#SVGID_00000173847499186819278890000011550608873747634579_);}
	.st39{fill:url(#SVGID_00000141427567100195222880000010417319602782459071_);}
</style><style
     type="text/css"
     id="style3783">
	.st0{fill-rule:evenodd;clip-rule:evenodd;fill:#FFFFFF;}
	.st1{fill:#FFFFFF;}
</style><style
     type="text/css"
     id="style740">
	.st0{fill:#2A4E78;}
</style><style
     type="text/css"
     id="style2-6">
	.st0{fill:#FF221D;}
	.st1{fill:#FDEB05;}
	.st2{display:none;}
	.st3{display:inline;}
	.st4{fill:#FBE901;}
	.st5{fill:#FFFFFF;}
</style></svg>
