<?xml version="1.0" encoding="UTF-8" standalone="no"?>
<!-- Created with Inkscape (http://www.inkscape.org/) -->

<svg
   width="1500"
   height="500"
   viewBox="0 0 396.87498 132.29167"
   version="1.1"
   id="svg5"
   inkscape:version="1.2.2 (732a01da63, 2022-12-09)"
   xml:space="preserve"
   sodipodi:docname="snes.svg"
   xmlns:inkscape="http://www.inkscape.org/namespaces/inkscape"
   xmlns:sodipodi="http://sodipodi.sourceforge.net/DTD/sodipodi-0.dtd"
   xmlns:xlink="http://www.w3.org/1999/xlink"
   xmlns="http://www.w3.org/2000/svg"
   xmlns:svg="http://www.w3.org/2000/svg"><sodipodi:namedview
     id="namedview7"
     pagecolor="#000000"
     bordercolor="#111111"
     borderopacity="1"
     inkscape:showpageshadow="0"
     inkscape:pageopacity="0"
     inkscape:pagecheckerboard="1"
     inkscape:deskcolor="#d1d1d1"
     inkscape:document-units="mm"
     showgrid="false"
     inkscape:zoom="0.5"
     inkscape:cx="826"
     inkscape:cy="142"
     inkscape:window-width="1920"
     inkscape:window-height="1009"
     inkscape:window-x="-8"
     inkscape:window-y="-8"
     inkscape:window-maximized="1"
     inkscape:current-layer="layer1" /><defs
     id="defs2">
		
		
	
			
				
			
		
			
			
			
			
			
				
			
			
			
			
			
		
		
		
		
	<path
   id="a"
   d="M63.175 34.078h8.133v49.598h-5.782V39.391c0-.343-.378-.573-.738-.573h-1.613v-4.74zM60.17 51.885v31.792h-3.122c-.378 0-.884.034-1.496-.712-.369-.444-.566-1.316-.566-1.316-1.303 1.593-2.607 2.145-4.383 2.145-4.541 0-6.096-2.631-6.096-7.944v-7.156c0-6.575 4.491-8.795 10.24-10.947v-5.509c0-2.765-.934-3.691-2.291-3.691-1.639 0-2.703.532-2.703 3.34v2.802c0 1.11-.424 1.692-2.291 1.668h-2.727v-3.889c0-5.313 2.555-8.296 7.609-8.296 5.346-.001 7.826 2.46 7.826 7.713zm-5.421 10.287c-3.252 1.587-4.814 2.686-4.814 7.06v5.555c0 2.674.215 4.634 2.18 4.634 1.709 0 2.636-1.047 2.636-5.741V62.172h-.002zm71.863 1.134c0 17.472-7.089 33.309-18.545 44.764s-27.28 18.545-44.755 18.536c-17.481.009-33.314-7.081-44.767-18.536S0 80.778 0 63.306c0-17.481 7.089-33.305 18.545-44.761S45.833.002 63.312.002c17.476 0 33.3 7.089 44.755 18.545s18.545 27.28 18.545 44.759zm-12.787.009c0-27.905-22.617-50.525-50.513-50.525-27.905 0-50.525 22.621-50.525 50.525a50.326 50.326 0 0 0 10.462 30.779V44.403h2.657c.784 0 1.596-.041 2.137.994a4.83 4.83 0 0 1 .39 1.047c1.311-2.154 3.302-2.288 5.087-2.288 4.61 0 6.599 3.209 6.599 9.238V75.5c0 4.985-2.421 8.413-6.599 8.413-1.529 0-3.063-.209-4.496-1.962v18.452a50.284 50.284 0 0 0 34.289 13.424c27.895.001 50.512-22.617 50.512-50.512zM31.701 79.319c1.5.017 2.712-.453 2.712-4.642V52.932c0-4.119-1.014-4.616-2.48-4.616-1.852 0-2.907 1.433-2.907 4.848v22.571c-.002 2.244 1.43 3.569 2.675 3.584zm65.256-35.148a6.041 6.041 0 0 0-5.233 3.154c-1.145-2.531-3.046-3.154-5.238-3.154-1.811 0-3.473.738-4.683 2.401 0 0-.076-1.337-.753-1.835-.474-.343-.704-.335-1.399-.335h-3.183v39.276h5.756V53.515c0-3.997 1.102-4.894 2.875-4.894 1.316 0 2.526.596 2.526 3.372v31.684h5.651V53.515c0-3.997 1.098-4.894 2.875-4.894 1.308 0 2.523.596 2.523 3.372v31.684h5.656V53.623c-.004-6.046-2.271-9.452-7.373-9.452" /><path
   id="c"
   d="M63.175 34.078h8.133v49.598h-5.782V39.391c0-.343-.378-.573-.738-.573h-1.613v-4.74zM60.17 51.885v31.792h-3.122c-.378 0-.884.034-1.496-.712-.369-.444-.566-1.316-.566-1.316-1.303 1.593-2.607 2.145-4.383 2.145-4.541 0-6.096-2.631-6.096-7.944v-7.156c0-6.575 4.491-8.795 10.24-10.947v-5.509c0-2.765-.934-3.691-2.291-3.691-1.639 0-2.703.532-2.703 3.34v2.802c0 1.11-.424 1.692-2.291 1.668h-2.727v-3.889c0-5.313 2.555-8.296 7.609-8.296 5.346-.001 7.826 2.46 7.826 7.713zm-5.421 10.287c-3.252 1.587-4.814 2.686-4.814 7.06v5.555c0 2.674.215 4.634 2.18 4.634 1.709 0 2.636-1.047 2.636-5.741V62.172h-.002zm71.863 1.134c0 17.472-7.089 33.309-18.545 44.764s-27.28 18.545-44.755 18.536c-17.481.009-33.314-7.081-44.767-18.536S0 80.778 0 63.306c0-17.481 7.089-33.305 18.545-44.761S45.833.002 63.312.002c17.476 0 33.3 7.089 44.755 18.545s18.545 27.28 18.545 44.759zm-12.787.009c0-27.905-22.617-50.525-50.513-50.525-27.905 0-50.525 22.621-50.525 50.525a50.326 50.326 0 0 0 10.462 30.779V44.403h2.657c.784 0 1.596-.041 2.137.994a4.83 4.83 0 0 1 .39 1.047c1.311-2.154 3.302-2.288 5.087-2.288 4.61 0 6.599 3.209 6.599 9.238V75.5c0 4.985-2.421 8.413-6.599 8.413-1.529 0-3.063-.209-4.496-1.962v18.452a50.284 50.284 0 0 0 34.289 13.424c27.895.001 50.512-22.617 50.512-50.512zM31.701 79.319c1.5.017 2.712-.453 2.712-4.642V52.932c0-4.119-1.014-4.616-2.48-4.616-1.852 0-2.907 1.433-2.907 4.848v22.571c-.002 2.244 1.43 3.569 2.675 3.584zm65.256-35.148a6.041 6.041 0 0 0-5.233 3.154c-1.145-2.531-3.046-3.154-5.238-3.154-1.811 0-3.473.738-4.683 2.401 0 0-.076-1.337-.753-1.835-.474-.343-.704-.335-1.399-.335h-3.183v39.276h5.756V53.515c0-3.997 1.102-4.894 2.875-4.894 1.316 0 2.526.596 2.526 3.372v31.684h5.651V53.515c0-3.997 1.098-4.894 2.875-4.894 1.308 0 2.523.596 2.523 3.372v31.684h5.656V53.623c-.004-6.046-2.271-9.452-7.373-9.452" /><path
   id="e"
   d="M63.175 34.078h8.133v49.598h-5.782V39.391c0-.343-.378-.573-.738-.573h-1.613v-4.74zM60.17 51.885v31.792h-3.122c-.378 0-.884.034-1.496-.712-.369-.444-.566-1.316-.566-1.316-1.303 1.593-2.607 2.145-4.383 2.145-4.541 0-6.096-2.631-6.096-7.944v-7.156c0-6.575 4.491-8.795 10.24-10.947v-5.509c0-2.765-.934-3.691-2.291-3.691-1.639 0-2.703.532-2.703 3.34v2.802c0 1.11-.424 1.692-2.291 1.668h-2.727v-3.889c0-5.313 2.555-8.296 7.609-8.296 5.346-.001 7.826 2.46 7.826 7.713zm-5.421 10.287c-3.252 1.587-4.814 2.686-4.814 7.06v5.555c0 2.674.215 4.634 2.18 4.634 1.709 0 2.636-1.047 2.636-5.741V62.172h-.002zm71.863 1.134c0 17.472-7.089 33.309-18.545 44.764s-27.28 18.545-44.755 18.536c-17.481.009-33.314-7.081-44.767-18.536S0 80.778 0 63.306c0-17.481 7.089-33.305 18.545-44.761S45.833.002 63.312.002c17.476 0 33.3 7.089 44.755 18.545s18.545 27.28 18.545 44.759zm-12.787.009c0-27.905-22.617-50.525-50.513-50.525-27.905 0-50.525 22.621-50.525 50.525a50.326 50.326 0 0 0 10.462 30.779V44.403h2.657c.784 0 1.596-.041 2.137.994a4.83 4.83 0 0 1 .39 1.047c1.311-2.154 3.302-2.288 5.087-2.288 4.61 0 6.599 3.209 6.599 9.238V75.5c0 4.985-2.421 8.413-6.599 8.413-1.529 0-3.063-.209-4.496-1.962v18.452a50.284 50.284 0 0 0 34.289 13.424c27.895.001 50.512-22.617 50.512-50.512zM31.701 79.319c1.5.017 2.712-.453 2.712-4.642V52.932c0-4.119-1.014-4.616-2.48-4.616-1.852 0-2.907 1.433-2.907 4.848v22.571c-.002 2.244 1.43 3.569 2.675 3.584zm65.256-35.148a6.041 6.041 0 0 0-5.233 3.154c-1.145-2.531-3.046-3.154-5.238-3.154-1.811 0-3.473.738-4.683 2.401 0 0-.076-1.337-.753-1.835-.474-.343-.704-.335-1.399-.335h-3.183v39.276h5.756V53.515c0-3.997 1.102-4.894 2.875-4.894 1.316 0 2.526.596 2.526 3.372v31.684h5.651V53.515c0-3.997 1.098-4.894 2.875-4.894 1.308 0 2.523.596 2.523 3.372v31.684h5.656V53.623c-.004-6.046-2.271-9.452-7.373-9.452" /><path
   id="g"
   d="M63.175 34.078h8.133v49.598h-5.782V39.391c0-.343-.378-.573-.738-.573h-1.613v-4.74zM60.17 51.885v31.792h-3.122c-.378 0-.884.034-1.496-.712-.369-.444-.566-1.316-.566-1.316-1.303 1.593-2.607 2.145-4.383 2.145-4.541 0-6.096-2.631-6.096-7.944v-7.156c0-6.575 4.491-8.795 10.24-10.947v-5.509c0-2.765-.934-3.691-2.291-3.691-1.639 0-2.703.532-2.703 3.34v2.802c0 1.11-.424 1.692-2.291 1.668h-2.727v-3.889c0-5.313 2.555-8.296 7.609-8.296 5.346-.001 7.826 2.46 7.826 7.713zm-5.421 10.287c-3.252 1.587-4.814 2.686-4.814 7.06v5.555c0 2.674.215 4.634 2.18 4.634 1.709 0 2.636-1.047 2.636-5.741V62.172h-.002zm71.863 1.134c0 17.472-7.089 33.309-18.545 44.764s-27.28 18.545-44.755 18.536c-17.481.009-33.314-7.081-44.767-18.536S0 80.778 0 63.306c0-17.481 7.089-33.305 18.545-44.761S45.833.002 63.312.002c17.476 0 33.3 7.089 44.755 18.545s18.545 27.28 18.545 44.759zm-12.787.009c0-27.905-22.617-50.525-50.513-50.525-27.905 0-50.525 22.621-50.525 50.525a50.326 50.326 0 0 0 10.462 30.779V44.403h2.657c.784 0 1.596-.041 2.137.994a4.83 4.83 0 0 1 .39 1.047c1.311-2.154 3.302-2.288 5.087-2.288 4.61 0 6.599 3.209 6.599 9.238V75.5c0 4.985-2.421 8.413-6.599 8.413-1.529 0-3.063-.209-4.496-1.962v18.452a50.284 50.284 0 0 0 34.289 13.424c27.895.001 50.512-22.617 50.512-50.512zM31.701 79.319c1.5.017 2.712-.453 2.712-4.642V52.932c0-4.119-1.014-4.616-2.48-4.616-1.852 0-2.907 1.433-2.907 4.848v22.571c-.002 2.244 1.43 3.569 2.675 3.584zm65.256-35.148a6.041 6.041 0 0 0-5.233 3.154c-1.145-2.531-3.046-3.154-5.238-3.154-1.811 0-3.473.738-4.683 2.401 0 0-.076-1.337-.753-1.835-.474-.343-.704-.335-1.399-.335h-3.183v39.276h5.756V53.515c0-3.997 1.102-4.894 2.875-4.894 1.316 0 2.526.596 2.526 3.372v31.684h5.651V53.515c0-3.997 1.098-4.894 2.875-4.894 1.308 0 2.523.596 2.523 3.372v31.684h5.656V53.623c-.004-6.046-2.271-9.452-7.373-9.452" /><path
   id="i"
   d="M63.175 34.078h8.133v49.598h-5.782V39.391c0-.343-.378-.573-.738-.573h-1.613v-4.74zM60.17 51.885v31.792h-3.122c-.378 0-.884.034-1.496-.712-.369-.444-.566-1.316-.566-1.316-1.303 1.593-2.607 2.145-4.383 2.145-4.541 0-6.096-2.631-6.096-7.944v-7.156c0-6.575 4.491-8.795 10.24-10.947v-5.509c0-2.765-.934-3.691-2.291-3.691-1.639 0-2.703.532-2.703 3.34v2.802c0 1.11-.424 1.692-2.291 1.668h-2.727v-3.889c0-5.313 2.555-8.296 7.609-8.296 5.346-.001 7.826 2.46 7.826 7.713zm-5.421 10.287c-3.252 1.587-4.814 2.686-4.814 7.06v5.555c0 2.674.215 4.634 2.18 4.634 1.709 0 2.636-1.047 2.636-5.741V62.172h-.002zm71.863 1.134c0 17.472-7.089 33.309-18.545 44.764s-27.28 18.545-44.755 18.536c-17.481.009-33.314-7.081-44.767-18.536S0 80.778 0 63.306c0-17.481 7.089-33.305 18.545-44.761S45.833.002 63.312.002c17.476 0 33.3 7.089 44.755 18.545s18.545 27.28 18.545 44.759zm-12.787.009c0-27.905-22.617-50.525-50.513-50.525-27.905 0-50.525 22.621-50.525 50.525a50.326 50.326 0 0 0 10.462 30.779V44.403h2.657c.784 0 1.596-.041 2.137.994a4.83 4.83 0 0 1 .39 1.047c1.311-2.154 3.302-2.288 5.087-2.288 4.61 0 6.599 3.209 6.599 9.238V75.5c0 4.985-2.421 8.413-6.599 8.413-1.529 0-3.063-.209-4.496-1.962v18.452a50.284 50.284 0 0 0 34.289 13.424c27.895.001 50.512-22.617 50.512-50.512zM31.701 79.319c1.5.017 2.712-.453 2.712-4.642V52.932c0-4.119-1.014-4.616-2.48-4.616-1.852 0-2.907 1.433-2.907 4.848v22.571c-.002 2.244 1.43 3.569 2.675 3.584zm65.256-35.148a6.041 6.041 0 0 0-5.233 3.154c-1.145-2.531-3.046-3.154-5.238-3.154-1.811 0-3.473.738-4.683 2.401 0 0-.076-1.337-.753-1.835-.474-.343-.704-.335-1.399-.335h-3.183v39.276h5.756V53.515c0-3.997 1.102-4.894 2.875-4.894 1.316 0 2.526.596 2.526 3.372v31.684h5.651V53.515c0-3.997 1.098-4.894 2.875-4.894 1.308 0 2.523.596 2.523 3.372v31.684h5.656V53.623c-.004-6.046-2.271-9.452-7.373-9.452" /><path
   id="k"
   d="M63.175 34.078h8.133v49.598h-5.782V39.391c0-.343-.378-.573-.738-.573h-1.613v-4.74zM60.17 51.885v31.792h-3.122c-.378 0-.884.034-1.496-.712-.369-.444-.566-1.316-.566-1.316-1.303 1.593-2.607 2.145-4.383 2.145-4.541 0-6.096-2.631-6.096-7.944v-7.156c0-6.575 4.491-8.795 10.24-10.947v-5.509c0-2.765-.934-3.691-2.291-3.691-1.639 0-2.703.532-2.703 3.34v2.802c0 1.11-.424 1.692-2.291 1.668h-2.727v-3.889c0-5.313 2.555-8.296 7.609-8.296 5.346-.001 7.826 2.46 7.826 7.713zm-5.421 10.287c-3.252 1.587-4.814 2.686-4.814 7.06v5.555c0 2.674.215 4.634 2.18 4.634 1.709 0 2.636-1.047 2.636-5.741V62.172h-.002zm71.863 1.134c0 17.472-7.089 33.309-18.545 44.764s-27.28 18.545-44.755 18.536c-17.481.009-33.314-7.081-44.767-18.536S0 80.778 0 63.306c0-17.481 7.089-33.305 18.545-44.761S45.833.002 63.312.002c17.476 0 33.3 7.089 44.755 18.545s18.545 27.28 18.545 44.759zm-12.787.009c0-27.905-22.617-50.525-50.513-50.525-27.905 0-50.525 22.621-50.525 50.525a50.326 50.326 0 0 0 10.462 30.779V44.403h2.657c.784 0 1.596-.041 2.137.994a4.83 4.83 0 0 1 .39 1.047c1.311-2.154 3.302-2.288 5.087-2.288 4.61 0 6.599 3.209 6.599 9.238V75.5c0 4.985-2.421 8.413-6.599 8.413-1.529 0-3.063-.209-4.496-1.962v18.452a50.284 50.284 0 0 0 34.289 13.424c27.895.001 50.512-22.617 50.512-50.512zM31.701 79.319c1.5.017 2.712-.453 2.712-4.642V52.932c0-4.119-1.014-4.616-2.48-4.616-1.852 0-2.907 1.433-2.907 4.848v22.571c-.002 2.244 1.43 3.569 2.675 3.584zm65.256-35.148a6.041 6.041 0 0 0-5.233 3.154c-1.145-2.531-3.046-3.154-5.238-3.154-1.811 0-3.473.738-4.683 2.401 0 0-.076-1.337-.753-1.835-.474-.343-.704-.335-1.399-.335h-3.183v39.276h5.756V53.515c0-3.997 1.102-4.894 2.875-4.894 1.316 0 2.526.596 2.526 3.372v31.684h5.651V53.515c0-3.997 1.098-4.894 2.875-4.894 1.308 0 2.523.596 2.523 3.372v31.684h5.656V53.623c-.004-6.046-2.271-9.452-7.373-9.452" /><path
   id="m"
   d="M63.175 34.078h8.133v49.598h-5.782V39.391c0-.343-.378-.573-.738-.573h-1.613v-4.74zM60.17 51.885v31.792h-3.122c-.378 0-.884.034-1.496-.712-.369-.444-.566-1.316-.566-1.316-1.303 1.593-2.607 2.145-4.383 2.145-4.541 0-6.096-2.631-6.096-7.944v-7.156c0-6.575 4.491-8.795 10.24-10.947v-5.509c0-2.765-.934-3.691-2.291-3.691-1.639 0-2.703.532-2.703 3.34v2.802c0 1.11-.424 1.692-2.291 1.668h-2.727v-3.889c0-5.313 2.555-8.296 7.609-8.296 5.346-.001 7.826 2.46 7.826 7.713zm-5.421 10.287c-3.252 1.587-4.814 2.686-4.814 7.06v5.555c0 2.674.215 4.634 2.18 4.634 1.709 0 2.636-1.047 2.636-5.741V62.172h-.002zm71.863 1.134c0 17.472-7.089 33.309-18.545 44.764s-27.28 18.545-44.755 18.536c-17.481.009-33.314-7.081-44.767-18.536S0 80.778 0 63.306c0-17.481 7.089-33.305 18.545-44.761S45.833.002 63.312.002c17.476 0 33.3 7.089 44.755 18.545s18.545 27.28 18.545 44.759zm-12.787.009c0-27.905-22.617-50.525-50.513-50.525-27.905 0-50.525 22.621-50.525 50.525a50.326 50.326 0 0 0 10.462 30.779V44.403h2.657c.784 0 1.596-.041 2.137.994a4.83 4.83 0 0 1 .39 1.047c1.311-2.154 3.302-2.288 5.087-2.288 4.61 0 6.599 3.209 6.599 9.238V75.5c0 4.985-2.421 8.413-6.599 8.413-1.529 0-3.063-.209-4.496-1.962v18.452a50.284 50.284 0 0 0 34.289 13.424c27.895.001 50.512-22.617 50.512-50.512zM31.701 79.319c1.5.017 2.712-.453 2.712-4.642V52.932c0-4.119-1.014-4.616-2.48-4.616-1.852 0-2.907 1.433-2.907 4.848v22.571c-.002 2.244 1.43 3.569 2.675 3.584zm65.256-35.148a6.041 6.041 0 0 0-5.233 3.154c-1.145-2.531-3.046-3.154-5.238-3.154-1.811 0-3.473.738-4.683 2.401 0 0-.076-1.337-.753-1.835-.474-.343-.704-.335-1.399-.335h-3.183v39.276h5.756V53.515c0-3.997 1.102-4.894 2.875-4.894 1.316 0 2.526.596 2.526 3.372v31.684h5.651V53.515c0-3.997 1.098-4.894 2.875-4.894 1.308 0 2.523.596 2.523 3.372v31.684h5.656V53.623c-.004-6.046-2.271-9.452-7.373-9.452" /><path
   id="o"
   d="M63.175 34.078h8.133v49.598h-5.782V39.391c0-.343-.378-.573-.738-.573h-1.613v-4.74zM60.17 51.885v31.792h-3.122c-.378 0-.884.034-1.496-.712-.369-.444-.566-1.316-.566-1.316-1.303 1.593-2.607 2.145-4.383 2.145-4.541 0-6.096-2.631-6.096-7.944v-7.156c0-6.575 4.491-8.795 10.24-10.947v-5.509c0-2.765-.934-3.691-2.291-3.691-1.639 0-2.703.532-2.703 3.34v2.802c0 1.11-.424 1.692-2.291 1.668h-2.727v-3.889c0-5.313 2.555-8.296 7.609-8.296 5.346-.001 7.826 2.46 7.826 7.713zm-5.421 10.287c-3.252 1.587-4.814 2.686-4.814 7.06v5.555c0 2.674.215 4.634 2.18 4.634 1.709 0 2.636-1.047 2.636-5.741V62.172h-.002zm71.863 1.134c0 17.472-7.089 33.309-18.545 44.764s-27.28 18.545-44.755 18.536c-17.481.009-33.314-7.081-44.767-18.536S0 80.778 0 63.306c0-17.481 7.089-33.305 18.545-44.761S45.833.002 63.312.002c17.476 0 33.3 7.089 44.755 18.545s18.545 27.28 18.545 44.759zm-12.787.009c0-27.905-22.617-50.525-50.513-50.525-27.905 0-50.525 22.621-50.525 50.525a50.326 50.326 0 0 0 10.462 30.779V44.403h2.657c.784 0 1.596-.041 2.137.994a4.83 4.83 0 0 1 .39 1.047c1.311-2.154 3.302-2.288 5.087-2.288 4.61 0 6.599 3.209 6.599 9.238V75.5c0 4.985-2.421 8.413-6.599 8.413-1.529 0-3.063-.209-4.496-1.962v18.452a50.284 50.284 0 0 0 34.289 13.424c27.895.001 50.512-22.617 50.512-50.512zM31.701 79.319c1.5.017 2.712-.453 2.712-4.642V52.932c0-4.119-1.014-4.616-2.48-4.616-1.852 0-2.907 1.433-2.907 4.848v22.571c-.002 2.244 1.43 3.569 2.675 3.584zm65.256-35.148a6.041 6.041 0 0 0-5.233 3.154c-1.145-2.531-3.046-3.154-5.238-3.154-1.811 0-3.473.738-4.683 2.401 0 0-.076-1.337-.753-1.835-.474-.343-.704-.335-1.399-.335h-3.183v39.276h5.756V53.515c0-3.997 1.102-4.894 2.875-4.894 1.316 0 2.526.596 2.526 3.372v31.684h5.651V53.515c0-3.997 1.098-4.894 2.875-4.894 1.308 0 2.523.596 2.523 3.372v31.684h5.656V53.623c-.004-6.046-2.271-9.452-7.373-9.452" /><path
   id="q"
   d="M63.175 34.078h8.133v49.598h-5.782V39.391c0-.343-.378-.573-.738-.573h-1.613v-4.74zM60.17 51.885v31.792h-3.122c-.378 0-.884.034-1.496-.712-.369-.444-.566-1.316-.566-1.316-1.303 1.593-2.607 2.145-4.383 2.145-4.541 0-6.096-2.631-6.096-7.944v-7.156c0-6.575 4.491-8.795 10.24-10.947v-5.509c0-2.765-.934-3.691-2.291-3.691-1.639 0-2.703.532-2.703 3.34v2.802c0 1.11-.424 1.692-2.291 1.668h-2.727v-3.889c0-5.313 2.555-8.296 7.609-8.296 5.346-.001 7.826 2.46 7.826 7.713zm-5.421 10.287c-3.252 1.587-4.814 2.686-4.814 7.06v5.555c0 2.674.215 4.634 2.18 4.634 1.709 0 2.636-1.047 2.636-5.741V62.172h-.002zm71.863 1.134c0 17.472-7.089 33.309-18.545 44.764s-27.28 18.545-44.755 18.536c-17.481.009-33.314-7.081-44.767-18.536S0 80.778 0 63.306c0-17.481 7.089-33.305 18.545-44.761S45.833.002 63.312.002c17.476 0 33.3 7.089 44.755 18.545s18.545 27.28 18.545 44.759zm-12.787.009c0-27.905-22.617-50.525-50.513-50.525-27.905 0-50.525 22.621-50.525 50.525a50.326 50.326 0 0 0 10.462 30.779V44.403h2.657c.784 0 1.596-.041 2.137.994a4.83 4.83 0 0 1 .39 1.047c1.311-2.154 3.302-2.288 5.087-2.288 4.61 0 6.599 3.209 6.599 9.238V75.5c0 4.985-2.421 8.413-6.599 8.413-1.529 0-3.063-.209-4.496-1.962v18.452a50.284 50.284 0 0 0 34.289 13.424c27.895.001 50.512-22.617 50.512-50.512zM31.701 79.319c1.5.017 2.712-.453 2.712-4.642V52.932c0-4.119-1.014-4.616-2.48-4.616-1.852 0-2.907 1.433-2.907 4.848v22.571c-.002 2.244 1.43 3.569 2.675 3.584zm65.256-35.148a6.041 6.041 0 0 0-5.233 3.154c-1.145-2.531-3.046-3.154-5.238-3.154-1.811 0-3.473.738-4.683 2.401 0 0-.076-1.337-.753-1.835-.474-.343-.704-.335-1.399-.335h-3.183v39.276h5.756V53.515c0-3.997 1.102-4.894 2.875-4.894 1.316 0 2.526.596 2.526 3.372v31.684h5.651V53.515c0-3.997 1.098-4.894 2.875-4.894 1.308 0 2.523.596 2.523 3.372v31.684h5.656V53.623c-.004-6.046-2.271-9.452-7.373-9.452" /><path
   id="s"
   d="M63.175 34.078h8.133v49.598h-5.782V39.391c0-.343-.378-.573-.738-.573h-1.613v-4.74zM60.17 51.885v31.792h-3.122c-.378 0-.884.034-1.496-.712-.369-.444-.566-1.316-.566-1.316-1.303 1.593-2.607 2.145-4.383 2.145-4.541 0-6.096-2.631-6.096-7.944v-7.156c0-6.575 4.491-8.795 10.24-10.947v-5.509c0-2.765-.934-3.691-2.291-3.691-1.639 0-2.703.532-2.703 3.34v2.802c0 1.11-.424 1.692-2.291 1.668h-2.727v-3.889c0-5.313 2.555-8.296 7.609-8.296 5.346-.001 7.826 2.46 7.826 7.713zm-5.421 10.287c-3.252 1.587-4.814 2.686-4.814 7.06v5.555c0 2.674.215 4.634 2.18 4.634 1.709 0 2.636-1.047 2.636-5.741V62.172h-.002zm71.863 1.134c0 17.472-7.089 33.309-18.545 44.764s-27.28 18.545-44.755 18.536c-17.481.009-33.314-7.081-44.767-18.536S0 80.778 0 63.306c0-17.481 7.089-33.305 18.545-44.761S45.833.002 63.312.002c17.476 0 33.3 7.089 44.755 18.545s18.545 27.28 18.545 44.759zm-12.787.009c0-27.905-22.617-50.525-50.513-50.525-27.905 0-50.525 22.621-50.525 50.525a50.326 50.326 0 0 0 10.462 30.779V44.403h2.657c.784 0 1.596-.041 2.137.994a4.83 4.83 0 0 1 .39 1.047c1.311-2.154 3.302-2.288 5.087-2.288 4.61 0 6.599 3.209 6.599 9.238V75.5c0 4.985-2.421 8.413-6.599 8.413-1.529 0-3.063-.209-4.496-1.962v18.452a50.284 50.284 0 0 0 34.289 13.424c27.895.001 50.512-22.617 50.512-50.512zM31.701 79.319c1.5.017 2.712-.453 2.712-4.642V52.932c0-4.119-1.014-4.616-2.48-4.616-1.852 0-2.907 1.433-2.907 4.848v22.571c-.002 2.244 1.43 3.569 2.675 3.584zm65.256-35.148a6.041 6.041 0 0 0-5.233 3.154c-1.145-2.531-3.046-3.154-5.238-3.154-1.811 0-3.473.738-4.683 2.401 0 0-.076-1.337-.753-1.835-.474-.343-.704-.335-1.399-.335h-3.183v39.276h5.756V53.515c0-3.997 1.102-4.894 2.875-4.894 1.316 0 2.526.596 2.526 3.372v31.684h5.651V53.515c0-3.997 1.098-4.894 2.875-4.894 1.308 0 2.523.596 2.523 3.372v31.684h5.656V53.623c-.004-6.046-2.271-9.452-7.373-9.452" /><path
   id="u"
   d="M63.175 34.078h8.133v49.598h-5.782V39.391c0-.343-.378-.573-.738-.573h-1.613v-4.74zM60.17 51.885v31.792h-3.122c-.378 0-.884.034-1.496-.712-.369-.444-.566-1.316-.566-1.316-1.303 1.593-2.607 2.145-4.383 2.145-4.541 0-6.096-2.631-6.096-7.944v-7.156c0-6.575 4.491-8.795 10.24-10.947v-5.509c0-2.765-.934-3.691-2.291-3.691-1.639 0-2.703.532-2.703 3.34v2.802c0 1.11-.424 1.692-2.291 1.668h-2.727v-3.889c0-5.313 2.555-8.296 7.609-8.296 5.346-.001 7.826 2.46 7.826 7.713zm-5.421 10.287c-3.252 1.587-4.814 2.686-4.814 7.06v5.555c0 2.674.215 4.634 2.18 4.634 1.709 0 2.636-1.047 2.636-5.741V62.172h-.002zm71.863 1.134c0 17.472-7.089 33.309-18.545 44.764s-27.28 18.545-44.755 18.536c-17.481.009-33.314-7.081-44.767-18.536S0 80.778 0 63.306c0-17.481 7.089-33.305 18.545-44.761S45.833.002 63.312.002c17.476 0 33.3 7.089 44.755 18.545s18.545 27.28 18.545 44.759zm-12.787.009c0-27.905-22.617-50.525-50.513-50.525-27.905 0-50.525 22.621-50.525 50.525a50.326 50.326 0 0 0 10.462 30.779V44.403h2.657c.784 0 1.596-.041 2.137.994a4.83 4.83 0 0 1 .39 1.047c1.311-2.154 3.302-2.288 5.087-2.288 4.61 0 6.599 3.209 6.599 9.238V75.5c0 4.985-2.421 8.413-6.599 8.413-1.529 0-3.063-.209-4.496-1.962v18.452a50.284 50.284 0 0 0 34.289 13.424c27.895.001 50.512-22.617 50.512-50.512zM31.701 79.319c1.5.017 2.712-.453 2.712-4.642V52.932c0-4.119-1.014-4.616-2.48-4.616-1.852 0-2.907 1.433-2.907 4.848v22.571c-.002 2.244 1.43 3.569 2.675 3.584zm65.256-35.148a6.041 6.041 0 0 0-5.233 3.154c-1.145-2.531-3.046-3.154-5.238-3.154-1.811 0-3.473.738-4.683 2.401 0 0-.076-1.337-.753-1.835-.474-.343-.704-.335-1.399-.335h-3.183v39.276h5.756V53.515c0-3.997 1.102-4.894 2.875-4.894 1.316 0 2.526.596 2.526 3.372v31.684h5.651V53.515c0-3.997 1.098-4.894 2.875-4.894 1.308 0 2.523.596 2.523 3.372v31.684h5.656V53.623c-.004-6.046-2.271-9.452-7.373-9.452" /><path
   id="w"
   d="M63.175 34.078h8.133v49.598h-5.782V39.391c0-.343-.378-.573-.738-.573h-1.613v-4.74zM60.17 51.885v31.792h-3.122c-.378 0-.884.034-1.496-.712-.369-.444-.566-1.316-.566-1.316-1.303 1.593-2.607 2.145-4.383 2.145-4.541 0-6.096-2.631-6.096-7.944v-7.156c0-6.575 4.491-8.795 10.24-10.947v-5.509c0-2.765-.934-3.691-2.291-3.691-1.639 0-2.703.532-2.703 3.34v2.802c0 1.11-.424 1.692-2.291 1.668h-2.727v-3.889c0-5.313 2.555-8.296 7.609-8.296 5.346-.001 7.826 2.46 7.826 7.713zm-5.421 10.287c-3.252 1.587-4.814 2.686-4.814 7.06v5.555c0 2.674.215 4.634 2.18 4.634 1.709 0 2.636-1.047 2.636-5.741V62.172h-.002zm71.863 1.134c0 17.472-7.089 33.309-18.545 44.764s-27.28 18.545-44.755 18.536c-17.481.009-33.314-7.081-44.767-18.536S0 80.778 0 63.306c0-17.481 7.089-33.305 18.545-44.761S45.833.002 63.312.002c17.476 0 33.3 7.089 44.755 18.545s18.545 27.28 18.545 44.759zm-12.787.009c0-27.905-22.617-50.525-50.513-50.525-27.905 0-50.525 22.621-50.525 50.525a50.326 50.326 0 0 0 10.462 30.779V44.403h2.657c.784 0 1.596-.041 2.137.994a4.83 4.83 0 0 1 .39 1.047c1.311-2.154 3.302-2.288 5.087-2.288 4.61 0 6.599 3.209 6.599 9.238V75.5c0 4.985-2.421 8.413-6.599 8.413-1.529 0-3.063-.209-4.496-1.962v18.452a50.284 50.284 0 0 0 34.289 13.424c27.895.001 50.512-22.617 50.512-50.512zM31.701 79.319c1.5.017 2.712-.453 2.712-4.642V52.932c0-4.119-1.014-4.616-2.48-4.616-1.852 0-2.907 1.433-2.907 4.848v22.571c-.002 2.244 1.43 3.569 2.675 3.584zm65.256-35.148a6.041 6.041 0 0 0-5.233 3.154c-1.145-2.531-3.046-3.154-5.238-3.154-1.811 0-3.473.738-4.683 2.401 0 0-.076-1.337-.753-1.835-.474-.343-.704-.335-1.399-.335h-3.183v39.276h5.756V53.515c0-3.997 1.102-4.894 2.875-4.894 1.316 0 2.526.596 2.526 3.372v31.684h5.651V53.515c0-3.997 1.098-4.894 2.875-4.894 1.308 0 2.523.596 2.523 3.372v31.684h5.656V53.623c-.004-6.046-2.271-9.452-7.373-9.452" /><path
   id="y"
   d="M63.175 34.078h8.133v49.598h-5.782V39.391c0-.343-.378-.573-.738-.573h-1.613v-4.74zM60.17 51.885v31.792h-3.122c-.378 0-.884.034-1.496-.712-.369-.444-.566-1.316-.566-1.316-1.303 1.593-2.607 2.145-4.383 2.145-4.541 0-6.096-2.631-6.096-7.944v-7.156c0-6.575 4.491-8.795 10.24-10.947v-5.509c0-2.765-.934-3.691-2.291-3.691-1.639 0-2.703.532-2.703 3.34v2.802c0 1.11-.424 1.692-2.291 1.668h-2.727v-3.889c0-5.313 2.555-8.296 7.609-8.296 5.346-.001 7.826 2.46 7.826 7.713zm-5.421 10.287c-3.252 1.587-4.814 2.686-4.814 7.06v5.555c0 2.674.215 4.634 2.18 4.634 1.709 0 2.636-1.047 2.636-5.741V62.172h-.002zm71.863 1.134c0 17.472-7.089 33.309-18.545 44.764s-27.28 18.545-44.755 18.536c-17.481.009-33.314-7.081-44.767-18.536S0 80.778 0 63.306c0-17.481 7.089-33.305 18.545-44.761S45.833.002 63.312.002c17.476 0 33.3 7.089 44.755 18.545s18.545 27.28 18.545 44.759zm-12.787.009c0-27.905-22.617-50.525-50.513-50.525-27.905 0-50.525 22.621-50.525 50.525a50.326 50.326 0 0 0 10.462 30.779V44.403h2.657c.784 0 1.596-.041 2.137.994a4.83 4.83 0 0 1 .39 1.047c1.311-2.154 3.302-2.288 5.087-2.288 4.61 0 6.599 3.209 6.599 9.238V75.5c0 4.985-2.421 8.413-6.599 8.413-1.529 0-3.063-.209-4.496-1.962v18.452a50.284 50.284 0 0 0 34.289 13.424c27.895.001 50.512-22.617 50.512-50.512zM31.701 79.319c1.5.017 2.712-.453 2.712-4.642V52.932c0-4.119-1.014-4.616-2.48-4.616-1.852 0-2.907 1.433-2.907 4.848v22.571c-.002 2.244 1.43 3.569 2.675 3.584zm65.256-35.148a6.041 6.041 0 0 0-5.233 3.154c-1.145-2.531-3.046-3.154-5.238-3.154-1.811 0-3.473.738-4.683 2.401 0 0-.076-1.337-.753-1.835-.474-.343-.704-.335-1.399-.335h-3.183v39.276h5.756V53.515c0-3.997 1.102-4.894 2.875-4.894 1.316 0 2.526.596 2.526 3.372v31.684h5.651V53.515c0-3.997 1.098-4.894 2.875-4.894 1.308 0 2.523.596 2.523 3.372v31.684h5.656V53.623c-.004-6.046-2.271-9.452-7.373-9.452" /><path
   id="A"
   d="M63.175 34.078h8.133v49.598h-5.782V39.391c0-.343-.378-.573-.738-.573h-1.613v-4.74zM60.17 51.885v31.792h-3.122c-.378 0-.884.034-1.496-.712-.369-.444-.566-1.316-.566-1.316-1.303 1.593-2.607 2.145-4.383 2.145-4.541 0-6.096-2.631-6.096-7.944v-7.156c0-6.575 4.491-8.795 10.24-10.947v-5.509c0-2.765-.934-3.691-2.291-3.691-1.639 0-2.703.532-2.703 3.34v2.802c0 1.11-.424 1.692-2.291 1.668h-2.727v-3.889c0-5.313 2.555-8.296 7.609-8.296 5.346-.001 7.826 2.46 7.826 7.713zm-5.421 10.287c-3.252 1.587-4.814 2.686-4.814 7.06v5.555c0 2.674.215 4.634 2.18 4.634 1.709 0 2.636-1.047 2.636-5.741V62.172h-.002zm71.863 1.134c0 17.472-7.089 33.309-18.545 44.764s-27.28 18.545-44.755 18.536c-17.481.009-33.314-7.081-44.767-18.536S0 80.778 0 63.306c0-17.481 7.089-33.305 18.545-44.761S45.833.002 63.312.002c17.476 0 33.3 7.089 44.755 18.545s18.545 27.28 18.545 44.759zm-12.787.009c0-27.905-22.617-50.525-50.513-50.525-27.905 0-50.525 22.621-50.525 50.525a50.326 50.326 0 0 0 10.462 30.779V44.403h2.657c.784 0 1.596-.041 2.137.994a4.83 4.83 0 0 1 .39 1.047c1.311-2.154 3.302-2.288 5.087-2.288 4.61 0 6.599 3.209 6.599 9.238V75.5c0 4.985-2.421 8.413-6.599 8.413-1.529 0-3.063-.209-4.496-1.962v18.452a50.284 50.284 0 0 0 34.289 13.424c27.895.001 50.512-22.617 50.512-50.512zM31.701 79.319c1.5.017 2.712-.453 2.712-4.642V52.932c0-4.119-1.014-4.616-2.48-4.616-1.852 0-2.907 1.433-2.907 4.848v22.571c-.002 2.244 1.43 3.569 2.675 3.584zm65.256-35.148a6.041 6.041 0 0 0-5.233 3.154c-1.145-2.531-3.046-3.154-5.238-3.154-1.811 0-3.473.738-4.683 2.401 0 0-.076-1.337-.753-1.835-.474-.343-.704-.335-1.399-.335h-3.183v39.276h5.756V53.515c0-3.997 1.102-4.894 2.875-4.894 1.316 0 2.526.596 2.526 3.372v31.684h5.651V53.515c0-3.997 1.098-4.894 2.875-4.894 1.308 0 2.523.596 2.523 3.372v31.684h5.656V53.623c-.004-6.046-2.271-9.452-7.373-9.452" /><path
   id="C"
   d="M63.175 34.078h8.133v49.598h-5.782V39.391c0-.343-.378-.573-.738-.573h-1.613v-4.74zM60.17 51.885v31.792h-3.122c-.378 0-.884.034-1.496-.712-.369-.444-.566-1.316-.566-1.316-1.303 1.593-2.607 2.145-4.383 2.145-4.541 0-6.096-2.631-6.096-7.944v-7.156c0-6.575 4.491-8.795 10.24-10.947v-5.509c0-2.765-.934-3.691-2.291-3.691-1.639 0-2.703.532-2.703 3.34v2.802c0 1.11-.424 1.692-2.291 1.668h-2.727v-3.889c0-5.313 2.555-8.296 7.609-8.296 5.346-.001 7.826 2.46 7.826 7.713zm-5.421 10.287c-3.252 1.587-4.814 2.686-4.814 7.06v5.555c0 2.674.215 4.634 2.18 4.634 1.709 0 2.636-1.047 2.636-5.741V62.172h-.002zm71.863 1.134c0 17.472-7.089 33.309-18.545 44.764s-27.28 18.545-44.755 18.536c-17.481.009-33.314-7.081-44.767-18.536S0 80.778 0 63.306c0-17.481 7.089-33.305 18.545-44.761S45.833.002 63.312.002c17.476 0 33.3 7.089 44.755 18.545s18.545 27.28 18.545 44.759zm-12.787.009c0-27.905-22.617-50.525-50.513-50.525-27.905 0-50.525 22.621-50.525 50.525a50.326 50.326 0 0 0 10.462 30.779V44.403h2.657c.784 0 1.596-.041 2.137.994a4.83 4.83 0 0 1 .39 1.047c1.311-2.154 3.302-2.288 5.087-2.288 4.61 0 6.599 3.209 6.599 9.238V75.5c0 4.985-2.421 8.413-6.599 8.413-1.529 0-3.063-.209-4.496-1.962v18.452a50.284 50.284 0 0 0 34.289 13.424c27.895.001 50.512-22.617 50.512-50.512zM31.701 79.319c1.5.017 2.712-.453 2.712-4.642V52.932c0-4.119-1.014-4.616-2.48-4.616-1.852 0-2.907 1.433-2.907 4.848v22.571c-.002 2.244 1.43 3.569 2.675 3.584zm65.256-35.148a6.041 6.041 0 0 0-5.233 3.154c-1.145-2.531-3.046-3.154-5.238-3.154-1.811 0-3.473.738-4.683 2.401 0 0-.076-1.337-.753-1.835-.474-.343-.704-.335-1.399-.335h-3.183v39.276h5.756V53.515c0-3.997 1.102-4.894 2.875-4.894 1.316 0 2.526.596 2.526 3.372v31.684h5.651V53.515c0-3.997 1.098-4.894 2.875-4.894 1.308 0 2.523.596 2.523 3.372v31.684h5.656V53.623c-.004-6.046-2.271-9.452-7.373-9.452" /><path
   id="E"
   d="M63.175 34.078h8.133v49.598h-5.782V39.391c0-.343-.378-.573-.738-.573h-1.613v-4.74zM60.17 51.885v31.792h-3.122c-.378 0-.884.034-1.496-.712-.369-.444-.566-1.316-.566-1.316-1.303 1.593-2.607 2.145-4.383 2.145-4.541 0-6.096-2.631-6.096-7.944v-7.156c0-6.575 4.491-8.795 10.24-10.947v-5.509c0-2.765-.934-3.691-2.291-3.691-1.639 0-2.703.532-2.703 3.34v2.802c0 1.11-.424 1.692-2.291 1.668h-2.727v-3.889c0-5.313 2.555-8.296 7.609-8.296 5.346-.001 7.826 2.46 7.826 7.713zm-5.421 10.287c-3.252 1.587-4.814 2.686-4.814 7.06v5.555c0 2.674.215 4.634 2.18 4.634 1.709 0 2.636-1.047 2.636-5.741V62.172h-.002zm71.863 1.134c0 17.472-7.089 33.309-18.545 44.764s-27.28 18.545-44.755 18.536c-17.481.009-33.314-7.081-44.767-18.536S0 80.778 0 63.306c0-17.481 7.089-33.305 18.545-44.761S45.833.002 63.312.002c17.476 0 33.3 7.089 44.755 18.545s18.545 27.28 18.545 44.759zm-12.787.009c0-27.905-22.617-50.525-50.513-50.525-27.905 0-50.525 22.621-50.525 50.525a50.326 50.326 0 0 0 10.462 30.779V44.403h2.657c.784 0 1.596-.041 2.137.994a4.83 4.83 0 0 1 .39 1.047c1.311-2.154 3.302-2.288 5.087-2.288 4.61 0 6.599 3.209 6.599 9.238V75.5c0 4.985-2.421 8.413-6.599 8.413-1.529 0-3.063-.209-4.496-1.962v18.452a50.284 50.284 0 0 0 34.289 13.424c27.895.001 50.512-22.617 50.512-50.512zM31.701 79.319c1.5.017 2.712-.453 2.712-4.642V52.932c0-4.119-1.014-4.616-2.48-4.616-1.852 0-2.907 1.433-2.907 4.848v22.571c-.002 2.244 1.43 3.569 2.675 3.584zm65.256-35.148a6.041 6.041 0 0 0-5.233 3.154c-1.145-2.531-3.046-3.154-5.238-3.154-1.811 0-3.473.738-4.683 2.401 0 0-.076-1.337-.753-1.835-.474-.343-.704-.335-1.399-.335h-3.183v39.276h5.756V53.515c0-3.997 1.102-4.894 2.875-4.894 1.316 0 2.526.596 2.526 3.372v31.684h5.651V53.515c0-3.997 1.098-4.894 2.875-4.894 1.308 0 2.523.596 2.523 3.372v31.684h5.656V53.623c-.004-6.046-2.271-9.452-7.373-9.452" /><path
   id="G"
   d="M63.175 34.078h8.133v49.598h-5.782V39.391c0-.343-.378-.573-.738-.573h-1.613v-4.74zM60.17 51.885v31.792h-3.122c-.378 0-.884.034-1.496-.712-.369-.444-.566-1.316-.566-1.316-1.303 1.593-2.607 2.145-4.383 2.145-4.541 0-6.096-2.631-6.096-7.944v-7.156c0-6.575 4.491-8.795 10.24-10.947v-5.509c0-2.765-.934-3.691-2.291-3.691-1.639 0-2.703.532-2.703 3.34v2.802c0 1.11-.424 1.692-2.291 1.668h-2.727v-3.889c0-5.313 2.555-8.296 7.609-8.296 5.346-.001 7.826 2.46 7.826 7.713zm-5.421 10.287c-3.252 1.587-4.814 2.686-4.814 7.06v5.555c0 2.674.215 4.634 2.18 4.634 1.709 0 2.636-1.047 2.636-5.741V62.172h-.002zm71.863 1.134c0 17.472-7.089 33.309-18.545 44.764s-27.28 18.545-44.755 18.536c-17.481.009-33.314-7.081-44.767-18.536S0 80.778 0 63.306c0-17.481 7.089-33.305 18.545-44.761S45.833.002 63.312.002c17.476 0 33.3 7.089 44.755 18.545s18.545 27.28 18.545 44.759zm-12.787.009c0-27.905-22.617-50.525-50.513-50.525-27.905 0-50.525 22.621-50.525 50.525a50.326 50.326 0 0 0 10.462 30.779V44.403h2.657c.784 0 1.596-.041 2.137.994a4.83 4.83 0 0 1 .39 1.047c1.311-2.154 3.302-2.288 5.087-2.288 4.61 0 6.599 3.209 6.599 9.238V75.5c0 4.985-2.421 8.413-6.599 8.413-1.529 0-3.063-.209-4.496-1.962v18.452a50.284 50.284 0 0 0 34.289 13.424c27.895.001 50.512-22.617 50.512-50.512zM31.701 79.319c1.5.017 2.712-.453 2.712-4.642V52.932c0-4.119-1.014-4.616-2.48-4.616-1.852 0-2.907 1.433-2.907 4.848v22.571c-.002 2.244 1.43 3.569 2.675 3.584zm65.256-35.148a6.041 6.041 0 0 0-5.233 3.154c-1.145-2.531-3.046-3.154-5.238-3.154-1.811 0-3.473.738-4.683 2.401 0 0-.076-1.337-.753-1.835-.474-.343-.704-.335-1.399-.335h-3.183v39.276h5.756V53.515c0-3.997 1.102-4.894 2.875-4.894 1.316 0 2.526.596 2.526 3.372v31.684h5.651V53.515c0-3.997 1.098-4.894 2.875-4.894 1.308 0 2.523.596 2.523 3.372v31.684h5.656V53.623c-.004-6.046-2.271-9.452-7.373-9.452" /><path
   id="I"
   d="M63.175 34.078h8.133v49.598h-5.782V39.391c0-.343-.378-.573-.738-.573h-1.613v-4.74zM60.17 51.885v31.792h-3.122c-.378 0-.884.034-1.496-.712-.369-.444-.566-1.316-.566-1.316-1.303 1.593-2.607 2.145-4.383 2.145-4.541 0-6.096-2.631-6.096-7.944v-7.156c0-6.575 4.491-8.795 10.24-10.947v-5.509c0-2.765-.934-3.691-2.291-3.691-1.639 0-2.703.532-2.703 3.34v2.802c0 1.11-.424 1.692-2.291 1.668h-2.727v-3.889c0-5.313 2.555-8.296 7.609-8.296 5.346-.001 7.826 2.46 7.826 7.713zm-5.421 10.287c-3.252 1.587-4.814 2.686-4.814 7.06v5.555c0 2.674.215 4.634 2.18 4.634 1.709 0 2.636-1.047 2.636-5.741V62.172h-.002zm71.863 1.134c0 17.472-7.089 33.309-18.545 44.764s-27.28 18.545-44.755 18.536c-17.481.009-33.314-7.081-44.767-18.536S0 80.778 0 63.306c0-17.481 7.089-33.305 18.545-44.761S45.833.002 63.312.002c17.476 0 33.3 7.089 44.755 18.545s18.545 27.28 18.545 44.759zm-12.787.009c0-27.905-22.617-50.525-50.513-50.525-27.905 0-50.525 22.621-50.525 50.525a50.326 50.326 0 0 0 10.462 30.779V44.403h2.657c.784 0 1.596-.041 2.137.994a4.83 4.83 0 0 1 .39 1.047c1.311-2.154 3.302-2.288 5.087-2.288 4.61 0 6.599 3.209 6.599 9.238V75.5c0 4.985-2.421 8.413-6.599 8.413-1.529 0-3.063-.209-4.496-1.962v18.452a50.284 50.284 0 0 0 34.289 13.424c27.895.001 50.512-22.617 50.512-50.512zM31.701 79.319c1.5.017 2.712-.453 2.712-4.642V52.932c0-4.119-1.014-4.616-2.48-4.616-1.852 0-2.907 1.433-2.907 4.848v22.571c-.002 2.244 1.43 3.569 2.675 3.584zm65.256-35.148a6.041 6.041 0 0 0-5.233 3.154c-1.145-2.531-3.046-3.154-5.238-3.154-1.811 0-3.473.738-4.683 2.401 0 0-.076-1.337-.753-1.835-.474-.343-.704-.335-1.399-.335h-3.183v39.276h5.756V53.515c0-3.997 1.102-4.894 2.875-4.894 1.316 0 2.526.596 2.526 3.372v31.684h5.651V53.515c0-3.997 1.098-4.894 2.875-4.894 1.308 0 2.523.596 2.523 3.372v31.684h5.656V53.623c-.004-6.046-2.271-9.452-7.373-9.452" /><path
   id="K"
   d="M63.175 34.078h8.133v49.598h-5.782V39.391c0-.343-.378-.573-.738-.573h-1.613v-4.74zM60.17 51.885v31.792h-3.122c-.378 0-.884.034-1.496-.712-.369-.444-.566-1.316-.566-1.316-1.303 1.593-2.607 2.145-4.383 2.145-4.541 0-6.096-2.631-6.096-7.944v-7.156c0-6.575 4.491-8.795 10.24-10.947v-5.509c0-2.765-.934-3.691-2.291-3.691-1.639 0-2.703.532-2.703 3.34v2.802c0 1.11-.424 1.692-2.291 1.668h-2.727v-3.889c0-5.313 2.555-8.296 7.609-8.296 5.346-.001 7.826 2.46 7.826 7.713zm-5.421 10.287c-3.252 1.587-4.814 2.686-4.814 7.06v5.555c0 2.674.215 4.634 2.18 4.634 1.709 0 2.636-1.047 2.636-5.741V62.172h-.002zm71.863 1.134c0 17.472-7.089 33.309-18.545 44.764s-27.28 18.545-44.755 18.536c-17.481.009-33.314-7.081-44.767-18.536S0 80.778 0 63.306c0-17.481 7.089-33.305 18.545-44.761S45.833.002 63.312.002c17.476 0 33.3 7.089 44.755 18.545s18.545 27.28 18.545 44.759zm-12.787.009c0-27.905-22.617-50.525-50.513-50.525-27.905 0-50.525 22.621-50.525 50.525a50.326 50.326 0 0 0 10.462 30.779V44.403h2.657c.784 0 1.596-.041 2.137.994a4.83 4.83 0 0 1 .39 1.047c1.311-2.154 3.302-2.288 5.087-2.288 4.61 0 6.599 3.209 6.599 9.238V75.5c0 4.985-2.421 8.413-6.599 8.413-1.529 0-3.063-.209-4.496-1.962v18.452a50.284 50.284 0 0 0 34.289 13.424c27.895.001 50.512-22.617 50.512-50.512zM31.701 79.319c1.5.017 2.712-.453 2.712-4.642V52.932c0-4.119-1.014-4.616-2.48-4.616-1.852 0-2.907 1.433-2.907 4.848v22.571c-.002 2.244 1.43 3.569 2.675 3.584zm65.256-35.148a6.041 6.041 0 0 0-5.233 3.154c-1.145-2.531-3.046-3.154-5.238-3.154-1.811 0-3.473.738-4.683 2.401 0 0-.076-1.337-.753-1.835-.474-.343-.704-.335-1.399-.335h-3.183v39.276h5.756V53.515c0-3.997 1.102-4.894 2.875-4.894 1.316 0 2.526.596 2.526 3.372v31.684h5.651V53.515c0-3.997 1.098-4.894 2.875-4.894 1.308 0 2.523.596 2.523 3.372v31.684h5.656V53.623c-.004-6.046-2.271-9.452-7.373-9.452" /><path
   id="M"
   d="M63.175 34.078h8.133v49.598h-5.782V39.391c0-.343-.378-.573-.738-.573h-1.613v-4.74zM60.17 51.885v31.792h-3.122c-.378 0-.884.034-1.496-.712-.369-.444-.566-1.316-.566-1.316-1.303 1.593-2.607 2.145-4.383 2.145-4.541 0-6.096-2.631-6.096-7.944v-7.156c0-6.575 4.491-8.795 10.24-10.947v-5.509c0-2.765-.934-3.691-2.291-3.691-1.639 0-2.703.532-2.703 3.34v2.802c0 1.11-.424 1.692-2.291 1.668h-2.727v-3.889c0-5.313 2.555-8.296 7.609-8.296 5.346-.001 7.826 2.46 7.826 7.713zm-5.421 10.287c-3.252 1.587-4.814 2.686-4.814 7.06v5.555c0 2.674.215 4.634 2.18 4.634 1.709 0 2.636-1.047 2.636-5.741V62.172h-.002zm71.863 1.134c0 17.472-7.089 33.309-18.545 44.764s-27.28 18.545-44.755 18.536c-17.481.009-33.314-7.081-44.767-18.536S0 80.778 0 63.306c0-17.481 7.089-33.305 18.545-44.761S45.833.002 63.312.002c17.476 0 33.3 7.089 44.755 18.545s18.545 27.28 18.545 44.759zm-12.787.009c0-27.905-22.617-50.525-50.513-50.525-27.905 0-50.525 22.621-50.525 50.525a50.326 50.326 0 0 0 10.462 30.779V44.403h2.657c.784 0 1.596-.041 2.137.994a4.83 4.83 0 0 1 .39 1.047c1.311-2.154 3.302-2.288 5.087-2.288 4.61 0 6.599 3.209 6.599 9.238V75.5c0 4.985-2.421 8.413-6.599 8.413-1.529 0-3.063-.209-4.496-1.962v18.452a50.284 50.284 0 0 0 34.289 13.424c27.895.001 50.512-22.617 50.512-50.512zM31.701 79.319c1.5.017 2.712-.453 2.712-4.642V52.932c0-4.119-1.014-4.616-2.48-4.616-1.852 0-2.907 1.433-2.907 4.848v22.571c-.002 2.244 1.43 3.569 2.675 3.584zm65.256-35.148a6.041 6.041 0 0 0-5.233 3.154c-1.145-2.531-3.046-3.154-5.238-3.154-1.811 0-3.473.738-4.683 2.401 0 0-.076-1.337-.753-1.835-.474-.343-.704-.335-1.399-.335h-3.183v39.276h5.756V53.515c0-3.997 1.102-4.894 2.875-4.894 1.316 0 2.526.596 2.526 3.372v31.684h5.651V53.515c0-3.997 1.098-4.894 2.875-4.894 1.308 0 2.523.596 2.523 3.372v31.684h5.656V53.623c-.004-6.046-2.271-9.452-7.373-9.452" /><path
   id="O"
   d="M63.175 34.078h8.133v49.598h-5.782V39.391c0-.343-.378-.573-.738-.573h-1.613v-4.74zM60.17 51.885v31.792h-3.122c-.378 0-.884.034-1.496-.712-.369-.444-.566-1.316-.566-1.316-1.303 1.593-2.607 2.145-4.383 2.145-4.541 0-6.096-2.631-6.096-7.944v-7.156c0-6.575 4.491-8.795 10.24-10.947v-5.509c0-2.765-.934-3.691-2.291-3.691-1.639 0-2.703.532-2.703 3.34v2.802c0 1.11-.424 1.692-2.291 1.668h-2.727v-3.889c0-5.313 2.555-8.296 7.609-8.296 5.346-.001 7.826 2.46 7.826 7.713zm-5.421 10.287c-3.252 1.587-4.814 2.686-4.814 7.06v5.555c0 2.674.215 4.634 2.18 4.634 1.709 0 2.636-1.047 2.636-5.741V62.172h-.002zm71.863 1.134c0 17.472-7.089 33.309-18.545 44.764s-27.28 18.545-44.755 18.536c-17.481.009-33.314-7.081-44.767-18.536S0 80.778 0 63.306c0-17.481 7.089-33.305 18.545-44.761S45.833.002 63.312.002c17.476 0 33.3 7.089 44.755 18.545s18.545 27.28 18.545 44.759zm-12.787.009c0-27.905-22.617-50.525-50.513-50.525-27.905 0-50.525 22.621-50.525 50.525a50.326 50.326 0 0 0 10.462 30.779V44.403h2.657c.784 0 1.596-.041 2.137.994a4.83 4.83 0 0 1 .39 1.047c1.311-2.154 3.302-2.288 5.087-2.288 4.61 0 6.599 3.209 6.599 9.238V75.5c0 4.985-2.421 8.413-6.599 8.413-1.529 0-3.063-.209-4.496-1.962v18.452a50.284 50.284 0 0 0 34.289 13.424c27.895.001 50.512-22.617 50.512-50.512zM31.701 79.319c1.5.017 2.712-.453 2.712-4.642V52.932c0-4.119-1.014-4.616-2.48-4.616-1.852 0-2.907 1.433-2.907 4.848v22.571c-.002 2.244 1.43 3.569 2.675 3.584zm65.256-35.148a6.041 6.041 0 0 0-5.233 3.154c-1.145-2.531-3.046-3.154-5.238-3.154-1.811 0-3.473.738-4.683 2.401 0 0-.076-1.337-.753-1.835-.474-.343-.704-.335-1.399-.335h-3.183v39.276h5.756V53.515c0-3.997 1.102-4.894 2.875-4.894 1.316 0 2.526.596 2.526 3.372v31.684h5.651V53.515c0-3.997 1.098-4.894 2.875-4.894 1.308 0 2.523.596 2.523 3.372v31.684h5.656V53.623c-.004-6.046-2.271-9.452-7.373-9.452" /><path
   id="Q"
   d="M63.175 34.078h8.133v49.598h-5.782V39.391c0-.343-.378-.573-.738-.573h-1.613v-4.74zM60.17 51.885v31.792h-3.122c-.378 0-.884.034-1.496-.712-.369-.444-.566-1.316-.566-1.316-1.303 1.593-2.607 2.145-4.383 2.145-4.541 0-6.096-2.631-6.096-7.944v-7.156c0-6.575 4.491-8.795 10.24-10.947v-5.509c0-2.765-.934-3.691-2.291-3.691-1.639 0-2.703.532-2.703 3.34v2.802c0 1.11-.424 1.692-2.291 1.668h-2.727v-3.889c0-5.313 2.555-8.296 7.609-8.296 5.346-.001 7.826 2.46 7.826 7.713zm-5.421 10.287c-3.252 1.587-4.814 2.686-4.814 7.06v5.555c0 2.674.215 4.634 2.18 4.634 1.709 0 2.636-1.047 2.636-5.741V62.172h-.002zm71.863 1.134c0 17.472-7.089 33.309-18.545 44.764s-27.28 18.545-44.755 18.536c-17.481.009-33.314-7.081-44.767-18.536S0 80.778 0 63.306c0-17.481 7.089-33.305 18.545-44.761S45.833.002 63.312.002c17.476 0 33.3 7.089 44.755 18.545s18.545 27.28 18.545 44.759zm-12.787.009c0-27.905-22.617-50.525-50.513-50.525-27.905 0-50.525 22.621-50.525 50.525a50.326 50.326 0 0 0 10.462 30.779V44.403h2.657c.784 0 1.596-.041 2.137.994a4.83 4.83 0 0 1 .39 1.047c1.311-2.154 3.302-2.288 5.087-2.288 4.61 0 6.599 3.209 6.599 9.238V75.5c0 4.985-2.421 8.413-6.599 8.413-1.529 0-3.063-.209-4.496-1.962v18.452a50.284 50.284 0 0 0 34.289 13.424c27.895.001 50.512-22.617 50.512-50.512zM31.701 79.319c1.5.017 2.712-.453 2.712-4.642V52.932c0-4.119-1.014-4.616-2.48-4.616-1.852 0-2.907 1.433-2.907 4.848v22.571c-.002 2.244 1.43 3.569 2.675 3.584zm65.256-35.148a6.041 6.041 0 0 0-5.233 3.154c-1.145-2.531-3.046-3.154-5.238-3.154-1.811 0-3.473.738-4.683 2.401 0 0-.076-1.337-.753-1.835-.474-.343-.704-.335-1.399-.335h-3.183v39.276h5.756V53.515c0-3.997 1.102-4.894 2.875-4.894 1.316 0 2.526.596 2.526 3.372v31.684h5.651V53.515c0-3.997 1.098-4.894 2.875-4.894 1.308 0 2.523.596 2.523 3.372v31.684h5.656V53.623c-.004-6.046-2.271-9.452-7.373-9.452" /><path
   id="S"
   d="M63.175 34.078h8.133v49.598h-5.782V39.391c0-.343-.378-.573-.738-.573h-1.613v-4.74zM60.17 51.885v31.792h-3.122c-.378 0-.884.034-1.496-.712-.369-.444-.566-1.316-.566-1.316-1.303 1.593-2.607 2.145-4.383 2.145-4.541 0-6.096-2.631-6.096-7.944v-7.156c0-6.575 4.491-8.795 10.24-10.947v-5.509c0-2.765-.934-3.691-2.291-3.691-1.639 0-2.703.532-2.703 3.34v2.802c0 1.11-.424 1.692-2.291 1.668h-2.727v-3.889c0-5.313 2.555-8.296 7.609-8.296 5.346-.001 7.826 2.46 7.826 7.713zm-5.421 10.287c-3.252 1.587-4.814 2.686-4.814 7.06v5.555c0 2.674.215 4.634 2.18 4.634 1.709 0 2.636-1.047 2.636-5.741V62.172h-.002zm71.863 1.134c0 17.472-7.089 33.309-18.545 44.764s-27.28 18.545-44.755 18.536c-17.481.009-33.314-7.081-44.767-18.536S0 80.778 0 63.306c0-17.481 7.089-33.305 18.545-44.761S45.833.002 63.312.002c17.476 0 33.3 7.089 44.755 18.545s18.545 27.28 18.545 44.759zm-12.787.009c0-27.905-22.617-50.525-50.513-50.525-27.905 0-50.525 22.621-50.525 50.525a50.326 50.326 0 0 0 10.462 30.779V44.403h2.657c.784 0 1.596-.041 2.137.994a4.83 4.83 0 0 1 .39 1.047c1.311-2.154 3.302-2.288 5.087-2.288 4.61 0 6.599 3.209 6.599 9.238V75.5c0 4.985-2.421 8.413-6.599 8.413-1.529 0-3.063-.209-4.496-1.962v18.452a50.284 50.284 0 0 0 34.289 13.424c27.895.001 50.512-22.617 50.512-50.512zM31.701 79.319c1.5.017 2.712-.453 2.712-4.642V52.932c0-4.119-1.014-4.616-2.48-4.616-1.852 0-2.907 1.433-2.907 4.848v22.571c-.002 2.244 1.43 3.569 2.675 3.584zm65.256-35.148a6.041 6.041 0 0 0-5.233 3.154c-1.145-2.531-3.046-3.154-5.238-3.154-1.811 0-3.473.738-4.683 2.401 0 0-.076-1.337-.753-1.835-.474-.343-.704-.335-1.399-.335h-3.183v39.276h5.756V53.515c0-3.997 1.102-4.894 2.875-4.894 1.316 0 2.526.596 2.526 3.372v31.684h5.651V53.515c0-3.997 1.098-4.894 2.875-4.894 1.308 0 2.523.596 2.523 3.372v31.684h5.656V53.623c-.004-6.046-2.271-9.452-7.373-9.452" /><path
   id="U"
   d="M63.175 34.078h8.133v49.598h-5.782V39.391c0-.343-.378-.573-.738-.573h-1.613v-4.74zM60.17 51.885v31.792h-3.122c-.378 0-.884.034-1.496-.712-.369-.444-.566-1.316-.566-1.316-1.303 1.593-2.607 2.145-4.383 2.145-4.541 0-6.096-2.631-6.096-7.944v-7.156c0-6.575 4.491-8.795 10.24-10.947v-5.509c0-2.765-.934-3.691-2.291-3.691-1.639 0-2.703.532-2.703 3.34v2.802c0 1.11-.424 1.692-2.291 1.668h-2.727v-3.889c0-5.313 2.555-8.296 7.609-8.296 5.346-.001 7.826 2.46 7.826 7.713zm-5.421 10.287c-3.252 1.587-4.814 2.686-4.814 7.06v5.555c0 2.674.215 4.634 2.18 4.634 1.709 0 2.636-1.047 2.636-5.741V62.172h-.002zm71.863 1.134c0 17.472-7.089 33.309-18.545 44.764s-27.28 18.545-44.755 18.536c-17.481.009-33.314-7.081-44.767-18.536S0 80.778 0 63.306c0-17.481 7.089-33.305 18.545-44.761S45.833.002 63.312.002c17.476 0 33.3 7.089 44.755 18.545s18.545 27.28 18.545 44.759zm-12.787.009c0-27.905-22.617-50.525-50.513-50.525-27.905 0-50.525 22.621-50.525 50.525a50.326 50.326 0 0 0 10.462 30.779V44.403h2.657c.784 0 1.596-.041 2.137.994a4.83 4.83 0 0 1 .39 1.047c1.311-2.154 3.302-2.288 5.087-2.288 4.61 0 6.599 3.209 6.599 9.238V75.5c0 4.985-2.421 8.413-6.599 8.413-1.529 0-3.063-.209-4.496-1.962v18.452a50.284 50.284 0 0 0 34.289 13.424c27.895.001 50.512-22.617 50.512-50.512zM31.701 79.319c1.5.017 2.712-.453 2.712-4.642V52.932c0-4.119-1.014-4.616-2.48-4.616-1.852 0-2.907 1.433-2.907 4.848v22.571c-.002 2.244 1.43 3.569 2.675 3.584zm65.256-35.148a6.041 6.041 0 0 0-5.233 3.154c-1.145-2.531-3.046-3.154-5.238-3.154-1.811 0-3.473.738-4.683 2.401 0 0-.076-1.337-.753-1.835-.474-.343-.704-.335-1.399-.335h-3.183v39.276h5.756V53.515c0-3.997 1.102-4.894 2.875-4.894 1.316 0 2.526.596 2.526 3.372v31.684h5.651V53.515c0-3.997 1.098-4.894 2.875-4.894 1.308 0 2.523.596 2.523 3.372v31.684h5.656V53.623c-.004-6.046-2.271-9.452-7.373-9.452" /><path
   id="W"
   d="M63.175 34.078h8.133v49.598h-5.782V39.391c0-.343-.378-.573-.738-.573h-1.613v-4.74zM60.17 51.885v31.792h-3.122c-.378 0-.884.034-1.496-.712-.369-.444-.566-1.316-.566-1.316-1.303 1.593-2.607 2.145-4.383 2.145-4.541 0-6.096-2.631-6.096-7.944v-7.156c0-6.575 4.491-8.795 10.24-10.947v-5.509c0-2.765-.934-3.691-2.291-3.691-1.639 0-2.703.532-2.703 3.34v2.802c0 1.11-.424 1.692-2.291 1.668h-2.727v-3.889c0-5.313 2.555-8.296 7.609-8.296 5.346-.001 7.826 2.46 7.826 7.713zm-5.421 10.287c-3.252 1.587-4.814 2.686-4.814 7.06v5.555c0 2.674.215 4.634 2.18 4.634 1.709 0 2.636-1.047 2.636-5.741V62.172h-.002zm71.863 1.134c0 17.472-7.089 33.309-18.545 44.764s-27.28 18.545-44.755 18.536c-17.481.009-33.314-7.081-44.767-18.536S0 80.778 0 63.306c0-17.481 7.089-33.305 18.545-44.761S45.833.002 63.312.002c17.476 0 33.3 7.089 44.755 18.545s18.545 27.28 18.545 44.759zm-12.787.009c0-27.905-22.617-50.525-50.513-50.525-27.905 0-50.525 22.621-50.525 50.525a50.326 50.326 0 0 0 10.462 30.779V44.403h2.657c.784 0 1.596-.041 2.137.994a4.83 4.83 0 0 1 .39 1.047c1.311-2.154 3.302-2.288 5.087-2.288 4.61 0 6.599 3.209 6.599 9.238V75.5c0 4.985-2.421 8.413-6.599 8.413-1.529 0-3.063-.209-4.496-1.962v18.452a50.284 50.284 0 0 0 34.289 13.424c27.895.001 50.512-22.617 50.512-50.512zM31.701 79.319c1.5.017 2.712-.453 2.712-4.642V52.932c0-4.119-1.014-4.616-2.48-4.616-1.852 0-2.907 1.433-2.907 4.848v22.571c-.002 2.244 1.43 3.569 2.675 3.584zm65.256-35.148a6.041 6.041 0 0 0-5.233 3.154c-1.145-2.531-3.046-3.154-5.238-3.154-1.811 0-3.473.738-4.683 2.401 0 0-.076-1.337-.753-1.835-.474-.343-.704-.335-1.399-.335h-3.183v39.276h5.756V53.515c0-3.997 1.102-4.894 2.875-4.894 1.316 0 2.526.596 2.526 3.372v31.684h5.651V53.515c0-3.997 1.098-4.894 2.875-4.894 1.308 0 2.523.596 2.523 3.372v31.684h5.656V53.623c-.004-6.046-2.271-9.452-7.373-9.452" /><path
   id="Y"
   d="M63.175 34.078h8.133v49.598h-5.782V39.391c0-.343-.378-.573-.738-.573h-1.613v-4.74zM60.17 51.885v31.792h-3.122c-.378 0-.884.034-1.496-.712-.369-.444-.566-1.316-.566-1.316-1.303 1.593-2.607 2.145-4.383 2.145-4.541 0-6.096-2.631-6.096-7.944v-7.156c0-6.575 4.491-8.795 10.24-10.947v-5.509c0-2.765-.934-3.691-2.291-3.691-1.639 0-2.703.532-2.703 3.34v2.802c0 1.11-.424 1.692-2.291 1.668h-2.727v-3.889c0-5.313 2.555-8.296 7.609-8.296 5.346-.001 7.826 2.46 7.826 7.713zm-5.421 10.287c-3.252 1.587-4.814 2.686-4.814 7.06v5.555c0 2.674.215 4.634 2.18 4.634 1.709 0 2.636-1.047 2.636-5.741V62.172h-.002zm71.863 1.134c0 17.472-7.089 33.309-18.545 44.764s-27.28 18.545-44.755 18.536c-17.481.009-33.314-7.081-44.767-18.536S0 80.778 0 63.306c0-17.481 7.089-33.305 18.545-44.761S45.833.002 63.312.002c17.476 0 33.3 7.089 44.755 18.545s18.545 27.28 18.545 44.759zm-12.787.009c0-27.905-22.617-50.525-50.513-50.525-27.905 0-50.525 22.621-50.525 50.525a50.326 50.326 0 0 0 10.462 30.779V44.403h2.657c.784 0 1.596-.041 2.137.994a4.83 4.83 0 0 1 .39 1.047c1.311-2.154 3.302-2.288 5.087-2.288 4.61 0 6.599 3.209 6.599 9.238V75.5c0 4.985-2.421 8.413-6.599 8.413-1.529 0-3.063-.209-4.496-1.962v18.452a50.284 50.284 0 0 0 34.289 13.424c27.895.001 50.512-22.617 50.512-50.512zM31.701 79.319c1.5.017 2.712-.453 2.712-4.642V52.932c0-4.119-1.014-4.616-2.48-4.616-1.852 0-2.907 1.433-2.907 4.848v22.571c-.002 2.244 1.43 3.569 2.675 3.584zm65.256-35.148a6.041 6.041 0 0 0-5.233 3.154c-1.145-2.531-3.046-3.154-5.238-3.154-1.811 0-3.473.738-4.683 2.401 0 0-.076-1.337-.753-1.835-.474-.343-.704-.335-1.399-.335h-3.183v39.276h5.756V53.515c0-3.997 1.102-4.894 2.875-4.894 1.316 0 2.526.596 2.526 3.372v31.684h5.651V53.515c0-3.997 1.098-4.894 2.875-4.894 1.308 0 2.523.596 2.523 3.372v31.684h5.656V53.623c-.004-6.046-2.271-9.452-7.373-9.452" /><path
   id="aa"
   d="M63.175 34.078h8.133v49.598h-5.782V39.391c0-.343-.378-.573-.738-.573h-1.613v-4.74zM60.17 51.885v31.792h-3.122c-.378 0-.884.034-1.496-.712-.369-.444-.566-1.316-.566-1.316-1.303 1.593-2.607 2.145-4.383 2.145-4.541 0-6.096-2.631-6.096-7.944v-7.156c0-6.575 4.491-8.795 10.24-10.947v-5.509c0-2.765-.934-3.691-2.291-3.691-1.639 0-2.703.532-2.703 3.34v2.802c0 1.11-.424 1.692-2.291 1.668h-2.727v-3.889c0-5.313 2.555-8.296 7.609-8.296 5.346-.001 7.826 2.46 7.826 7.713zm-5.421 10.287c-3.252 1.587-4.814 2.686-4.814 7.06v5.555c0 2.674.215 4.634 2.18 4.634 1.709 0 2.636-1.047 2.636-5.741V62.172h-.002zm71.863 1.134c0 17.472-7.089 33.309-18.545 44.764s-27.28 18.545-44.755 18.536c-17.481.009-33.314-7.081-44.767-18.536S0 80.778 0 63.306c0-17.481 7.089-33.305 18.545-44.761S45.833.002 63.312.002c17.476 0 33.3 7.089 44.755 18.545s18.545 27.28 18.545 44.759zm-12.787.009c0-27.905-22.617-50.525-50.513-50.525-27.905 0-50.525 22.621-50.525 50.525a50.326 50.326 0 0 0 10.462 30.779V44.403h2.657c.784 0 1.596-.041 2.137.994a4.83 4.83 0 0 1 .39 1.047c1.311-2.154 3.302-2.288 5.087-2.288 4.61 0 6.599 3.209 6.599 9.238V75.5c0 4.985-2.421 8.413-6.599 8.413-1.529 0-3.063-.209-4.496-1.962v18.452a50.284 50.284 0 0 0 34.289 13.424c27.895.001 50.512-22.617 50.512-50.512zM31.701 79.319c1.5.017 2.712-.453 2.712-4.642V52.932c0-4.119-1.014-4.616-2.48-4.616-1.852 0-2.907 1.433-2.907 4.848v22.571c-.002 2.244 1.43 3.569 2.675 3.584zm65.256-35.148a6.041 6.041 0 0 0-5.233 3.154c-1.145-2.531-3.046-3.154-5.238-3.154-1.811 0-3.473.738-4.683 2.401 0 0-.076-1.337-.753-1.835-.474-.343-.704-.335-1.399-.335h-3.183v39.276h5.756V53.515c0-3.997 1.102-4.894 2.875-4.894 1.316 0 2.526.596 2.526 3.372v31.684h5.651V53.515c0-3.997 1.098-4.894 2.875-4.894 1.308 0 2.523.596 2.523 3.372v31.684h5.656V53.623c-.004-6.046-2.271-9.452-7.373-9.452" /><path
   id="ac"
   d="M63.175 34.078h8.133v49.598h-5.782V39.391c0-.343-.378-.573-.738-.573h-1.613v-4.74zM60.17 51.885v31.792h-3.122c-.378 0-.884.034-1.496-.712-.369-.444-.566-1.316-.566-1.316-1.303 1.593-2.607 2.145-4.383 2.145-4.541 0-6.096-2.631-6.096-7.944v-7.156c0-6.575 4.491-8.795 10.24-10.947v-5.509c0-2.765-.934-3.691-2.291-3.691-1.639 0-2.703.532-2.703 3.34v2.802c0 1.11-.424 1.692-2.291 1.668h-2.727v-3.889c0-5.313 2.555-8.296 7.609-8.296 5.346-.001 7.826 2.46 7.826 7.713zm-5.421 10.287c-3.252 1.587-4.814 2.686-4.814 7.06v5.555c0 2.674.215 4.634 2.18 4.634 1.709 0 2.636-1.047 2.636-5.741V62.172h-.002zm71.863 1.134c0 17.472-7.089 33.309-18.545 44.764s-27.28 18.545-44.755 18.536c-17.481.009-33.314-7.081-44.767-18.536S0 80.778 0 63.306c0-17.481 7.089-33.305 18.545-44.761S45.833.002 63.312.002c17.476 0 33.3 7.089 44.755 18.545s18.545 27.28 18.545 44.759zm-12.787.009c0-27.905-22.617-50.525-50.513-50.525-27.905 0-50.525 22.621-50.525 50.525a50.326 50.326 0 0 0 10.462 30.779V44.403h2.657c.784 0 1.596-.041 2.137.994a4.83 4.83 0 0 1 .39 1.047c1.311-2.154 3.302-2.288 5.087-2.288 4.61 0 6.599 3.209 6.599 9.238V75.5c0 4.985-2.421 8.413-6.599 8.413-1.529 0-3.063-.209-4.496-1.962v18.452a50.284 50.284 0 0 0 34.289 13.424c27.895.001 50.512-22.617 50.512-50.512zM31.701 79.319c1.5.017 2.712-.453 2.712-4.642V52.932c0-4.119-1.014-4.616-2.48-4.616-1.852 0-2.907 1.433-2.907 4.848v22.571c-.002 2.244 1.43 3.569 2.675 3.584zm65.256-35.148a6.041 6.041 0 0 0-5.233 3.154c-1.145-2.531-3.046-3.154-5.238-3.154-1.811 0-3.473.738-4.683 2.401 0 0-.076-1.337-.753-1.835-.474-.343-.704-.335-1.399-.335h-3.183v39.276h5.756V53.515c0-3.997 1.102-4.894 2.875-4.894 1.316 0 2.526.596 2.526 3.372v31.684h5.651V53.515c0-3.997 1.098-4.894 2.875-4.894 1.308 0 2.523.596 2.523 3.372v31.684h5.656V53.623c-.004-6.046-2.271-9.452-7.373-9.452" /><path
   id="ae"
   d="M63.175 34.078h8.133v49.598h-5.782V39.391c0-.343-.378-.573-.738-.573h-1.613v-4.74zM60.17 51.885v31.792h-3.122c-.378 0-.884.034-1.496-.712-.369-.444-.566-1.316-.566-1.316-1.303 1.593-2.607 2.145-4.383 2.145-4.541 0-6.096-2.631-6.096-7.944v-7.156c0-6.575 4.491-8.795 10.24-10.947v-5.509c0-2.765-.934-3.691-2.291-3.691-1.639 0-2.703.532-2.703 3.34v2.802c0 1.11-.424 1.692-2.291 1.668h-2.727v-3.889c0-5.313 2.555-8.296 7.609-8.296 5.346-.001 7.826 2.46 7.826 7.713zm-5.421 10.287c-3.252 1.587-4.814 2.686-4.814 7.06v5.555c0 2.674.215 4.634 2.18 4.634 1.709 0 2.636-1.047 2.636-5.741V62.172h-.002zm71.863 1.134c0 17.472-7.089 33.309-18.545 44.764s-27.28 18.545-44.755 18.536c-17.481.009-33.314-7.081-44.767-18.536S0 80.778 0 63.306c0-17.481 7.089-33.305 18.545-44.761S45.833.002 63.312.002c17.476 0 33.3 7.089 44.755 18.545s18.545 27.28 18.545 44.759zm-12.787.009c0-27.905-22.617-50.525-50.513-50.525-27.905 0-50.525 22.621-50.525 50.525a50.326 50.326 0 0 0 10.462 30.779V44.403h2.657c.784 0 1.596-.041 2.137.994a4.83 4.83 0 0 1 .39 1.047c1.311-2.154 3.302-2.288 5.087-2.288 4.61 0 6.599 3.209 6.599 9.238V75.5c0 4.985-2.421 8.413-6.599 8.413-1.529 0-3.063-.209-4.496-1.962v18.452a50.284 50.284 0 0 0 34.289 13.424c27.895.001 50.512-22.617 50.512-50.512zM31.701 79.319c1.5.017 2.712-.453 2.712-4.642V52.932c0-4.119-1.014-4.616-2.48-4.616-1.852 0-2.907 1.433-2.907 4.848v22.571c-.002 2.244 1.43 3.569 2.675 3.584zm65.256-35.148a6.041 6.041 0 0 0-5.233 3.154c-1.145-2.531-3.046-3.154-5.238-3.154-1.811 0-3.473.738-4.683 2.401 0 0-.076-1.337-.753-1.835-.474-.343-.704-.335-1.399-.335h-3.183v39.276h5.756V53.515c0-3.997 1.102-4.894 2.875-4.894 1.316 0 2.526.596 2.526 3.372v31.684h5.651V53.515c0-3.997 1.098-4.894 2.875-4.894 1.308 0 2.523.596 2.523 3.372v31.684h5.656V53.623c-.004-6.046-2.271-9.452-7.373-9.452" /><path
   id="ag"
   d="M63.175 34.078h8.133v49.598h-5.782V39.391c0-.343-.378-.573-.738-.573h-1.613v-4.74zM60.17 51.885v31.792h-3.122c-.378 0-.884.034-1.496-.712-.369-.444-.566-1.316-.566-1.316-1.303 1.593-2.607 2.145-4.383 2.145-4.541 0-6.096-2.631-6.096-7.944v-7.156c0-6.575 4.491-8.795 10.24-10.947v-5.509c0-2.765-.934-3.691-2.291-3.691-1.639 0-2.703.532-2.703 3.34v2.802c0 1.11-.424 1.692-2.291 1.668h-2.727v-3.889c0-5.313 2.555-8.296 7.609-8.296 5.346-.001 7.826 2.46 7.826 7.713zm-5.421 10.287c-3.252 1.587-4.814 2.686-4.814 7.06v5.555c0 2.674.215 4.634 2.18 4.634 1.709 0 2.636-1.047 2.636-5.741V62.172h-.002zm71.863 1.134c0 17.472-7.089 33.309-18.545 44.764s-27.28 18.545-44.755 18.536c-17.481.009-33.314-7.081-44.767-18.536S0 80.778 0 63.306c0-17.481 7.089-33.305 18.545-44.761S45.833.002 63.312.002c17.476 0 33.3 7.089 44.755 18.545s18.545 27.28 18.545 44.759zm-12.787.009c0-27.905-22.617-50.525-50.513-50.525-27.905 0-50.525 22.621-50.525 50.525a50.326 50.326 0 0 0 10.462 30.779V44.403h2.657c.784 0 1.596-.041 2.137.994a4.83 4.83 0 0 1 .39 1.047c1.311-2.154 3.302-2.288 5.087-2.288 4.61 0 6.599 3.209 6.599 9.238V75.5c0 4.985-2.421 8.413-6.599 8.413-1.529 0-3.063-.209-4.496-1.962v18.452a50.284 50.284 0 0 0 34.289 13.424c27.895.001 50.512-22.617 50.512-50.512zM31.701 79.319c1.5.017 2.712-.453 2.712-4.642V52.932c0-4.119-1.014-4.616-2.48-4.616-1.852 0-2.907 1.433-2.907 4.848v22.571c-.002 2.244 1.43 3.569 2.675 3.584zm65.256-35.148a6.041 6.041 0 0 0-5.233 3.154c-1.145-2.531-3.046-3.154-5.238-3.154-1.811 0-3.473.738-4.683 2.401 0 0-.076-1.337-.753-1.835-.474-.343-.704-.335-1.399-.335h-3.183v39.276h5.756V53.515c0-3.997 1.102-4.894 2.875-4.894 1.316 0 2.526.596 2.526 3.372v31.684h5.651V53.515c0-3.997 1.098-4.894 2.875-4.894 1.308 0 2.523.596 2.523 3.372v31.684h5.656V53.623c-.004-6.046-2.271-9.452-7.373-9.452" /><linearGradient
   id="linearGradient34773"
   gradientUnits="userSpaceOnUse"
   x1="15.196"
   y1="312.37051"
   x2="3854.196"
   y2="312.37051"
   gradientTransform="translate(1160.9631,-2.2896484e-5)">
				<stop
   offset="0"
   style="stop-color:#f3dd42;stop-opacity:1"
   id="stop34769" />
				<stop
   offset="1"
   style="stop-color:#d7861b;stop-opacity:1"
   id="stop34771" />
			</linearGradient><linearGradient
   id="SVGID_1_"
   gradientUnits="userSpaceOnUse"
   x1="15.196"
   y1="312.37051"
   x2="3854.196"
   y2="312.37051"
   gradientTransform="translate(1160.9631,-2.2896484e-5)">
				<stop
   offset="0"
   style="stop-color:#FF2422"
   id="stop4" />
				<stop
   offset="1"
   style="stop-color:#C24FFF"
   id="stop6" />
			</linearGradient><linearGradient
   xlink:href="#linearGradient34773"
   id="linearGradient6574"
   gradientUnits="userSpaceOnUse"
   gradientTransform="translate(1160.9631,-7.145e-5)"
   x1="15.196"
   y1="312.37051"
   x2="3588.2239"
   y2="316.50259" />
		
		
		
		
		
		
	
			
				<linearGradient
   id="SVGID_00000145054330599880703690000004533480753458681732_"
   gradientUnits="userSpaceOnUse"
   x1="2220.6216"
   y1="604.23328"
   x2="2220.6216"
   y2="16.339899">
				<stop
   offset="0"
   style="stop-color:#FF0000"
   id="stop78" />
				<stop
   offset="0.2634"
   style="stop-color:#E42372"
   id="stop80" />
				<stop
   offset="0.3192"
   style="stop-color:#FFA1FF"
   id="stop82" />
				<stop
   offset="0.4267"
   style="stop-color:#DA2F9A"
   id="stop84" />
				<stop
   offset="0.7554"
   style="stop-color:#CC41D4"
   id="stop86" />
				<stop
   offset="0.7881"
   style="stop-color:#FFA1FF"
   id="stop88" />
				<stop
   offset="0.8413"
   style="stop-color:#C846E3"
   id="stop90" />
				<stop
   offset="1"
   style="stop-color:#C24FFF"
   id="stop92" />
			</linearGradient>
			
		
			
				<linearGradient
   id="SVGID_00000135673619673579814740000002913345356260872074_"
   gradientUnits="userSpaceOnUse"
   x1="1037.5408"
   y1="604.23328"
   x2="1037.5408"
   y2="20.5096">
				<stop
   offset="0"
   style="stop-color:#FF0000"
   id="stop36" />
				<stop
   offset="0.2634"
   style="stop-color:#E42372"
   id="stop38" />
				<stop
   offset="0.3192"
   style="stop-color:#FFA1FF"
   id="stop40" />
				<stop
   offset="0.4267"
   style="stop-color:#DA2F9A"
   id="stop42" />
				<stop
   offset="0.7554"
   style="stop-color:#CC41D4"
   id="stop44" />
				<stop
   offset="0.7881"
   style="stop-color:#FFA1FF"
   id="stop46" />
				<stop
   offset="0.8413"
   style="stop-color:#C846E3"
   id="stop48" />
				<stop
   offset="1"
   style="stop-color:#C24FFF"
   id="stop50" />
			</linearGradient>
			
		
			
				<linearGradient
   id="SVGID_00000128444796063564815230000007252927678799283094_"
   gradientUnits="userSpaceOnUse"
   x1="357.92542"
   y1="604.23328"
   x2="357.92542"
   y2="16.339899">
				<stop
   offset="0"
   style="stop-color:#FF0000"
   id="stop15" />
				<stop
   offset="0.2634"
   style="stop-color:#E42372"
   id="stop17" />
				<stop
   offset="0.3192"
   style="stop-color:#FFA1FF"
   id="stop19" />
				<stop
   offset="0.4267"
   style="stop-color:#DA2F9A"
   id="stop21" />
				<stop
   offset="0.7554"
   style="stop-color:#CC41D4"
   id="stop23" />
				<stop
   offset="0.7881"
   style="stop-color:#FFA1FF"
   id="stop25" />
				<stop
   offset="0.8413"
   style="stop-color:#C846E3"
   id="stop27" />
				<stop
   offset="1"
   style="stop-color:#C24FFF"
   id="stop29" />
			</linearGradient>
			
		
			
				<linearGradient
   id="SVGID_00000021080724737336074490000000910687952145319586_"
   gradientUnits="userSpaceOnUse"
   x1="3526.8933"
   y1="604.23328"
   x2="3526.8933"
   y2="20.5096">
				<stop
   offset="0"
   style="stop-color:#FF0000"
   id="stop120" />
				<stop
   offset="0.2634"
   style="stop-color:#E42372"
   id="stop122" />
				<stop
   offset="0.3192"
   style="stop-color:#FFA1FF"
   id="stop124" />
				<stop
   offset="0.4267"
   style="stop-color:#DA2F9A"
   id="stop126" />
				<stop
   offset="0.7554"
   style="stop-color:#CC41D4"
   id="stop128" />
				<stop
   offset="0.7881"
   style="stop-color:#FFA1FF"
   id="stop130" />
				<stop
   offset="0.8413"
   style="stop-color:#C846E3"
   id="stop132" />
				<stop
   offset="1"
   style="stop-color:#C24FFF"
   id="stop134" />
			</linearGradient>
			
		
			
				<linearGradient
   id="SVGID_00000106148091704042031110000017185161894946614463_"
   gradientUnits="userSpaceOnUse"
   x1="2905.2402"
   y1="604.23328"
   x2="2905.2402"
   y2="20.5096">
				<stop
   offset="0"
   style="stop-color:#FF0000"
   id="stop99" />
				<stop
   offset="0.2634"
   style="stop-color:#E42372"
   id="stop101" />
				<stop
   offset="0.3192"
   style="stop-color:#FFA1FF"
   id="stop103" />
				<stop
   offset="0.4267"
   style="stop-color:#DA2F9A"
   id="stop105" />
				<stop
   offset="0.7554"
   style="stop-color:#CC41D4"
   id="stop107" />
				<stop
   offset="0.7881"
   style="stop-color:#FFA1FF"
   id="stop109" />
				<stop
   offset="0.8413"
   style="stop-color:#C846E3"
   id="stop111" />
				<stop
   offset="1"
   style="stop-color:#C24FFF"
   id="stop113" />
			</linearGradient>
			
		
			
				<linearGradient
   id="SVGID_00000093171400342485411010000004786870807831186310_"
   gradientUnits="userSpaceOnUse"
   x1="1682.7727"
   y1="616.74109"
   x2="1682.7727"
   y2="8.0001001">
				<stop
   offset="0"
   style="stop-color:#FF0000"
   id="stop57" />
				<stop
   offset="0.2634"
   style="stop-color:#E42372"
   id="stop59" />
				<stop
   offset="0.3192"
   style="stop-color:#FFA1FF"
   id="stop61" />
				<stop
   offset="0.4267"
   style="stop-color:#DA2F9A"
   id="stop63" />
				<stop
   offset="0.7554"
   style="stop-color:#CC41D4"
   id="stop65" />
				<stop
   offset="0.7881"
   style="stop-color:#FFA1FF"
   id="stop67" />
				<stop
   offset="0.8413"
   style="stop-color:#C846E3"
   id="stop69" />
				<stop
   offset="1"
   style="stop-color:#C24FFF"
   id="stop71" />
			</linearGradient>
			
		
	
	
	
	
	

		
		
		
		
		
	
		
		
		
		
		
		
		
		
		
	
		
	
		
		
		
	
		
		
		
		
	
			
			
			
			
		
			
			
			
			
		
			
			
			
			
			
		
			
			
			
		
				
			
				
			
				
			
				
			
				
			
				
			
				
			
				
			
				
			
				
			
				
			
				
			
					
					
					
					
					
				
		
		
		
		
	
			
			
		
			
			
			
			
			
		
			
			
			
			
		
		
		
		
		
		
		
		
		
		
		
		
		
		
		
		
		
	
			
		
			
		
			
			
		</defs><g
     inkscape:label="Layer 1"
     inkscape:groupmode="layer"
     id="layer1"><path
       id="rect231"
       style="fill:#ffffff;stroke-width:0.8001;stroke-linecap:square;paint-order:fill markers stroke"
       d="M 0 0 L 0 92.358187 L 388.44606 92.358187 L 388.44606 115.00383 L 0 115.00383 L 0 132.29167 L 396.875 132.29167 L 396.875 0 L 0 0 z M 19.326986 17.287834 L 32.801615 17.287834 C 36.533542 17.287834 38.968323 20.356023 38.244694 24.153048 L 35.045406 41.220223 L 25.859403 41.220223 L 27.830859 29.866394 C 28.273989 27.300676 27.200909 25.242904 24.633122 25.242904 C 22.063354 25.242904 19.630953 27.300676 19.190043 29.866394 C 19.190043 29.866394 17.741606 37.028759 17.758606 38.094832 C 17.774456 39.167512 18.168157 40.94261 18.644857 41.220223 C 19.756106 41.887756 30.623454 59.813708 30.623454 61.146139 C 30.623454 61.146139 30.949501 61.272693 30.960901 62.438566 C 30.976751 63.595849 27.628288 79.983232 27.628288 79.983232 C 26.968178 83.543642 23.540481 86.373022 19.938835 86.373022 L 6.9401449 86.373022 C 3.3550384 86.373022 0.93981619 83.543642 1.5642456 79.983232 L 4.6271077 62.438566 L 13.746448 62.438566 L 11.433411 75.086373 C 10.990231 77.659358 12.742993 79.706763 15.31276 79.706763 C 17.878548 79.706763 19.631554 77.651426 20.074744 75.086373 C 20.074744 75.086373 21.515271 67.472459 21.843111 64.884928 C 22.194361 62.305329 9.9825377 45.358816 9.3224284 41.699264 C 8.8036189 41.27627 8.5714331 39.00813 8.641333 37.346558 L 11.298535 24.155115 C 11.963934 20.356108 15.594379 17.287834 19.326986 17.287834 z M 44.369902 17.287834 L 53.080481 17.287834 L 42.259436 78.215898 C 42.112616 79.107482 42.716384 79.847323 43.620593 79.847323 L 50.087382 79.847323 C 50.969771 79.847323 51.830342 79.101539 51.991142 78.215898 L 63.084521 17.287834 L 71.250948 17.287834 L 59.615483 79.984782 C 58.949403 83.545192 55.45731 86.374573 51.858333 86.374573 L 38.85861 86.374573 C 35.271574 86.374573 32.859418 83.545192 33.483228 79.984782 L 44.369902 17.287834 z M 75.674967 17.287834 L 84.385547 17.287834 L 95.344051 17.287834 C 99.076035 17.287834 101.50472 20.348177 100.78506 24.155115 L 96.021529 48.702454 C 95.362042 52.2437 91.941508 55.095345 88.332593 55.095345 L 77.24128 55.095345 L 71.250948 86.374573 L 62.540369 86.374573 L 75.674967 17.287834 z M 106.77539 17.287834 L 125.08022 17.287834 L 123.7232 25.856303 L 114.05867 25.856303 L 109.77211 47.275151 L 119.43302 47.275151 L 118.0729 54.484013 L 108.41044 54.484013 L 104.46132 77.80662 L 114.1243 77.80662 L 112.76469 86.374573 L 93.165889 86.374573 L 106.77539 17.287834 z M 130.18637 17.287834 L 149.85287 17.287834 C 153.58678 17.287834 156.01958 20.348177 155.29595 24.155115 L 150.53448 48.702454 C 150.03374 51.339553 145.3351 52.956459 142.84141 53.937276 L 143.45533 53.937276 C 143.45533 53.937276 144.82635 54.45188 146.04277 55.231771 C 146.67447 55.630969 147.22362 56.72566 147.54293 57.202193 C 148.0168 57.945072 148.0339 59.289399 148.01681 59.718319 C 148.01681 60.139329 143.11788 86.373022 143.11788 86.373022 L 134.40575 86.373022 C 134.40575 86.373022 139.05776 62.291137 139.17083 61.282564 C 139.2964 60.266054 139.12544 58.96749 138.96464 57.950985 C 138.85748 57.249741 138.75941 55.854089 137.94714 55.095345 L 131.75268 55.095345 L 125.8316 86.374573 L 117.12102 86.374573 L 130.18637 17.287834 z M 176.80368 17.287834 L 185.51271 17.287834 L 190.00597 53.39519 L 196.81021 17.287834 L 206.81477 17.287834 L 193.68017 86.374573 L 184.96804 86.374573 L 181.76823 46.323787 L 173.67209 86.374573 L 163.66701 86.374573 L 176.80368 17.287834 z M 211.37211 17.287834 L 220.08217 17.287834 L 206.95068 86.374573 L 198.23958 86.374573 L 211.37211 17.287834 z M 224.64003 17.287834 L 233.42193 17.287834 L 237.91313 53.39519 L 244.65018 17.287834 L 254.72244 17.287834 L 241.5899 86.374573 L 232.87674 86.374573 L 229.67952 46.323787 L 221.58131 86.374573 L 211.50699 86.374573 L 224.64003 17.287834 z M 258.3987 17.287834 L 278.94835 17.287834 L 277.58719 25.856303 L 272.34823 25.856303 L 261.3918 86.374573 L 251.45545 86.374573 L 262.20673 25.856303 L 256.76366 25.856303 L 258.3987 17.287834 z M 282.35279 17.287834 L 300.65865 17.287834 L 299.29646 25.856303 L 289.63297 25.856303 L 285.41514 47.275151 L 295.07966 47.275151 L 293.71644 54.484013 L 284.05605 54.484013 L 280.03975 77.80662 L 289.70221 77.80662 L 288.34106 86.374573 L 268.74329 86.374573 L 282.35279 17.287834 z M 304.46979 17.287834 L 313.24806 17.287834 L 317.73926 53.39519 L 324.4789 17.287834 L 334.55116 17.287834 L 321.41656 86.374573 L 312.70598 86.374573 L 309.50617 46.323787 L 301.40538 86.374573 L 291.33519 86.374573 L 304.46979 17.287834 z M 339.1116 17.287834 L 358.7073 17.287834 C 362.44122 17.287834 364.86606 20.348261 364.15038 24.157182 L 353.60581 79.984782 C 352.93575 83.545192 349.45412 86.374573 345.84452 86.374573 L 325.97338 86.374573 L 339.1116 17.287834 z M 376.47004 17.287834 L 391.30635 17.287834 C 395.03237 17.287834 397.47292 20.356108 396.74736 24.155115 L 386.20227 79.983232 C 385.53289 83.543642 382.04322 86.374573 378.44357 86.374573 L 364.08527 86.374573 C 360.50215 86.374573 358.14259 83.545625 358.77293 79.983232 L 368.50722 24.155115 C 369.17466 20.356108 372.73346 17.287834 376.47004 17.287834 z M 346.52665 25.244971 L 336.38515 79.780143 L 340.3322 79.780143 C 342.90198 79.780143 345.39736 77.652978 345.84452 75.087923 L 354.42074 29.867944 C 354.86392 27.300243 353.11072 25.244971 350.54294 25.244971 L 346.52665 25.244971 z M 381.57413 25.244971 L 381.3638 25.306466 L 381.0894 25.306466 L 380.88735 25.376229 L 380.68271 25.376229 L 380.47962 25.441858 L 380.20935 25.511621 L 380.07241 25.5788 L 379.86777 25.715743 L 379.66261 25.782922 L 379.46056 25.920382 L 379.3231 26.055257 L 379.11691 26.190133 L 378.91641 26.327592 L 378.77895 26.464535 L 378.642 26.601477 L 378.43892 26.738936 L 378.30042 26.943058 L 378.1671 27.145113 L 378.02809 27.282572 L 377.89218 27.486694 L 377.825 27.689783 L 377.68547 27.893905 L 377.61778 28.09906 L 377.48445 28.301115 L 377.41521 28.505754 L 377.34958 28.710392 L 377.28033 28.982727 L 377.21315 29.186849 L 377.14701 29.459184 L 377.07776 29.663306 L 377.01265 29.867944 L 368.91443 75.087923 C 368.47323 77.652978 369.54408 79.780143 372.11579 79.780143 C 374.67965 79.780143 377.04571 77.645046 377.49117 75.087923 L 385.65553 29.867944 C 386.09871 27.300243 384.4132 25.244971 381.84543 25.244971 L 381.57413 25.244971 z M 84.043449 25.517306 C 83.582426 25.517306 83.125555 25.753448 82.749988 26.061458 L 78.665999 46.937187 C 78.45293 47.420322 79.077344 48.228064 79.077344 48.228064 L 79.949125 48.649227 L 85.136922 48.566028 C 86.019307 48.566028 87.211032 46.528934 87.378646 45.645276 L 90.987728 28.577584 C 91.156421 27.63642 89.190975 25.517306 88.264897 25.517306 L 84.043449 25.517306 z M 138.28045 25.517306 L 138.2789 25.52144 L 138.27321 25.52144 L 138.27321 25.588619 L 138.20552 25.588619 L 138.14041 25.588619 L 138.07271 25.588619 L 137.93732 25.656315 L 137.86755 25.656315 L 137.79986 25.723494 L 137.73216 25.723494 L 137.66447 25.791191 L 137.59729 25.858887 L 137.52959 25.858887 L 137.39575 25.92865 L 137.3265 25.993762 L 137.26139 26.061458 L 133.2451 46.937187 C 133.2281 47.070653 133.2451 47.233453 133.2451 47.346464 C 133.30067 48.059622 133.83302 48.567578 134.60625 48.567578 L 138.35073 48.567578 C 139.24107 48.567578 141.45676 46.466586 141.61358 45.574996 L 145.22266 28.577584 C 145.4059 27.63642 143.42992 25.517306 142.5019 25.517306 L 138.5533 25.517306 L 138.4856 25.517306 L 138.41791 25.517306 L 138.35021 25.517306 L 138.28045 25.517306 z M 285.55415 94.73892 L 285.46733 94.820052 L 285.33039 94.820052 L 285.26269 94.820052 L 285.19448 94.886198 L 285.12678 94.886198 L 285.05909 94.953894 L 284.98984 94.953894 L 284.92473 95.021073 L 284.85962 95.086702 L 284.79192 95.086702 L 284.79192 95.155949 L 284.72371 95.221578 L 284.65808 95.290824 L 284.58883 95.359037 L 284.52372 95.359037 L 284.52372 95.42415 L 284.45447 95.493913 L 284.38678 95.559025 L 284.38678 95.628271 L 284.31856 95.693901 L 284.31856 95.762113 L 284.25345 95.83136 L 284.25345 95.896989 L 284.18782 96.033931 L 284.18782 96.101111 L 284.18782 96.16674 L 284.18782 96.234436 L 284.11858 96.234436 C 284.11858 96.234436 283.59712 98.756143 283.57442 99.159322 C 283.56079 99.528782 283.6047 100.01897 283.70981 100.11017 C 283.86458 100.92245 286.27365 104.34216 286.63728 105.27936 L 286.23007 107.52522 C 286.14075 108.09559 285.55399 108.61198 285.00173 108.61198 C 284.42747 108.61198 284.09736 108.09164 284.18885 107.52522 L 284.66118 104.73728 L 282.69024 104.73728 L 282.00604 108.61198 C 281.85922 109.38658 282.37001 110.03721 283.16308 110.03721 L 286.02285 110.03721 C 286.82188 110.03721 287.57709 109.38658 287.72197 108.61198 C 287.72197 108.61198 288.40368 105.23364 288.47128 104.73728 C 288.49508 104.68171 288.46297 104.61025 288.40617 104.46287 C 288.40617 104.16942 286.0033 100.19046 285.75103 100.04506 C 285.66069 99.989539 285.4898 99.473068 285.5495 99.366028 L 285.88798 97.52738 C 285.98128 96.956981 286.54401 96.506254 287.11219 96.506254 C 287.68446 96.506254 288.02033 96.958981 287.92713 97.52738 L 287.52147 100.04299 L 289.35753 100.04299 L 290.10684 96.234436 C 290.26951 95.384483 289.6916 94.73892 288.88263 94.73892 L 285.88746 94.73892 L 285.81976 94.73892 L 285.75465 94.73892 L 285.6854 94.73892 L 285.61926 94.73892 L 285.55415 94.73892 z M 301.2028 94.73892 L 302.22806 103.1012 L 301.13717 110.03721 L 303.31534 110.03721 L 304.53903 103.57921 L 309.57542 94.73892 L 307.12286 94.73892 L 303.99281 100.51945 L 303.65278 94.73892 L 301.2028 94.73892 z M 323.45726 94.73892 L 323.36683 94.820569 L 323.23143 94.820569 L 323.16632 94.820569 L 323.09862 94.886715 L 323.03248 94.886715 L 322.96323 94.953894 L 322.89605 94.953894 L 322.82836 95.021073 L 322.76066 95.086702 L 322.69296 95.155949 L 322.62527 95.221578 L 322.55706 95.290824 L 322.49349 95.359037 L 322.42425 95.359037 L 322.42425 95.424666 L 322.35655 95.493913 L 322.28937 95.559025 L 322.28937 95.628788 L 322.22168 95.695968 L 322.22168 95.762113 L 322.15346 95.83136 L 322.15346 95.899056 L 322.08577 96.035482 L 322.08577 96.103178 L 322.08577 96.16829 L 322.02065 96.236503 C 322.02065 96.236503 321.49868 98.75622 321.47598 99.161389 C 321.46405 99.530849 321.50797 100.01904 321.61138 100.11224 C 321.76882 100.92451 324.16519 104.34423 324.53678 105.28143 L 324.12957 107.52522 C 324.01844 108.09757 323.47126 108.61353 322.90535 108.61353 C 322.35127 108.61353 321.99722 108.09361 322.09042 107.52522 L 322.56532 104.73728 L 320.59025 104.73728 L 319.90812 108.61198 C 319.76329 109.38658 320.27623 110.03721 321.06929 110.03721 L 323.99263 110.03721 C 324.78706 110.03721 325.55023 109.38658 325.69795 108.61198 C 325.69795 108.61198 326.28584 105.23364 326.37904 104.73728 C 326.37904 104.68171 326.3814 104.61025 326.3098 104.46287 C 326.3098 104.16942 323.895 100.19046 323.65466 100.04506 C 323.54382 99.989539 323.38049 99.473068 323.45209 99.366028 L 323.79212 97.52738 C 323.88144 96.956981 324.44867 96.506254 325.01685 96.506254 C 325.59282 96.506254 325.92536 96.958981 325.83386 97.52738 L 325.42406 100.04299 L 327.26219 100.04299 L 328.0115 96.234436 C 328.15838 95.384483 327.59423 94.73892 326.78729 94.73892 L 323.79212 94.73892 L 323.72701 94.73892 L 323.65776 94.73892 L 323.59213 94.73892 L 323.52289 94.73892 L 323.45726 94.73892 z M 339.31211 94.73892 L 338.97259 96.5755 L 340.12911 96.5755 L 337.74838 110.03928 L 339.99423 110.03928 L 342.37497 96.5755 L 343.53355 96.5755 L 343.87565 94.73892 L 339.31211 94.73892 z M 357.14099 94.73892 L 354.14376 110.03721 L 358.50008 110.03721 L 358.77087 108.135 L 356.66402 108.135 L 357.54613 102.96632 L 359.65712 102.96632 L 359.9987 101.40311 L 357.82312 101.40311 L 358.77293 96.5755 L 360.8834 96.5755 L 361.22498 94.73892 L 357.14099 94.73892 z M 373.95185 94.73892 L 371.02128 110.03721 L 373.26869 110.03721 L 374.76679 101.74056 L 375.17297 110.03721 L 376.53412 110.03721 L 379.93857 101.94778 L 378.7159 110.03721 L 380.62173 110.03721 L 383.20348 94.73892 L 380.75557 94.806099 L 376.8757 103.57921 L 376.47004 94.73892 L 373.95185 94.73892 z M 8.4382446 95.284623 L 5.3758993 110.65268 L 9.7322225 110.65268 L 10.072253 108.7484 L 7.9633382 108.7484 L 8.7782756 103.58127 L 10.956437 103.58127 L 11.230839 101.94778 L 9.1203735 101.94778 L 10.004557 97.185799 L 12.180652 97.185799 L 12.454537 95.284623 L 8.4382446 95.284623 z M 27.221077 95.284623 L 24.293608 110.64854 L 26.538949 110.64854 L 28.307833 101.73901 L 29.057141 110.64854 L 30.960901 110.64854 L 33.890438 95.284623 L 31.64303 95.284623 L 30.14648 103.30791 L 29.126904 95.284623 L 27.221077 95.284623 z M 47.636886 95.284623 L 47.229675 97.185799 L 48.45389 97.185799 L 46.075224 110.65061 L 48.249768 110.65061 L 50.699748 97.185799 L 51.858333 97.185799 L 52.129118 95.284623 L 47.636886 95.284623 z M 67.440845 95.284623 L 64.448263 110.65268 L 68.802002 110.65268 L 69.074854 108.7484 L 66.963871 108.7484 L 67.848572 103.58127 L 69.95697 103.58127 L 70.229822 101.94778 L 68.121423 101.94778 L 69.072786 97.185799 L 71.183769 97.185799 L 71.523283 95.284623 L 67.440845 95.284623 z M 86.632955 95.284623 L 83.704968 110.64699 L 85.679008 110.64699 L 86.972986 103.71305 L 88.334143 103.71305 C 88.515958 103.87958 88.521732 104.16191 88.538782 104.32645 C 88.577982 104.54722 88.628691 104.83459 88.605961 105.07317 C 88.570279 105.29326 87.515588 110.64699 87.515588 110.64699 L 89.488078 110.64699 C 89.488078 110.64699 90.579484 104.68585 90.579484 104.59465 C 90.579484 104.5008 90.536605 104.01247 90.445125 103.84792 L 90.376912 103.84792 L 90.376912 103.77868 L 90.307666 103.77868 L 90.23997 103.77868 L 90.23997 103.71305 L 90.170723 103.71305 L 90.103027 103.71305 L 90.035331 103.71305 L 89.967635 103.64484 L 89.897872 103.64484 L 89.83276 103.64484 L 89.763513 103.64484 L 89.695817 103.64484 L 89.695817 103.57921 L 89.626571 103.57921 L 89.558875 103.57921 L 89.421415 103.57921 C 89.97437 103.35516 91.011603 102.87492 91.12467 102.28471 L 92.144246 96.845768 C 92.304984 95.997803 91.794715 95.284623 90.987728 95.284623 L 86.632955 95.284623 z M 106.09327 95.284623 L 105.7553 97.185799 L 106.97952 97.185799 L 104.59723 110.65061 L 106.77539 110.65061 L 109.22537 97.185799 L 110.38241 97.185799 L 110.65268 95.284623 L 106.09327 95.284623 z M 128.75545 95.284623 L 123.10928 110.64854 L 125.42025 110.64854 L 126.71423 107.11233 L 128.27847 107.11233 L 127.93844 110.64854 L 130.5264 110.64854 L 131.3434 95.284623 L 128.75545 95.284623 z M 146.86029 95.284623 L 143.99793 110.64854 L 145.90427 110.64854 L 148.83123 95.284623 L 146.86029 95.284623 z M 164.41684 95.284623 L 161.49092 110.64854 L 163.73471 110.64854 L 165.50566 101.73901 L 166.18727 110.64854 L 168.1608 110.64854 L 171.0185 95.284623 L 168.84241 95.284623 L 167.34172 103.30791 L 166.32215 95.284623 L 164.41684 95.284623 z M 186.94311 95.284623 L 184.0823 110.65268 L 186.2615 110.65268 L 187.7565 102.35861 L 188.16371 110.65268 L 189.52538 110.65268 L 192.92983 102.56118 L 191.70561 110.65268 L 193.61092 110.65268 L 196.19681 95.354903 L 193.75045 95.354903 L 189.86696 104.19364 L 189.4613 95.284623 L 186.94311 95.284623 z M 211.646 95.284623 L 208.65341 110.65268 L 212.93842 110.65268 L 213.27794 108.7484 L 211.10391 108.7484 L 211.98809 103.58127 L 214.16264 103.58127 L 214.43704 101.94778 L 212.32812 101.94778 L 213.21024 97.185799 L 215.38685 97.185799 L 215.66074 95.284623 L 211.646 95.284623 z M 231.37864 95.284623 L 228.45117 110.64854 L 230.69755 110.64854 L 232.46798 101.73901 L 233.21677 110.64854 L 235.12312 110.64854 L 237.97876 95.284623 L 235.80266 95.284623 L 234.30663 103.30791 L 233.28447 95.284623 L 231.37864 95.284623 z M 251.5924 95.284623 L 251.25443 97.185799 L 252.47865 97.185799 L 250.0943 110.65061 L 252.27452 110.65061 L 254.65474 97.185799 L 255.81178 97.185799 L 256.15077 95.284623 L 251.5924 95.284623 z M 89.352169 97.116036 C 89.557283 97.116036 89.930412 97.579002 89.896322 97.797131 L 89.149597 101.6062 C 89.111926 101.81046 88.602562 102.21753 88.400289 102.21753 L 87.583285 102.21753 C 87.414535 102.21753 87.31095 102.09449 87.31095 101.94778 L 87.31095 101.8775 L 88.19565 97.255046 C 88.272922 97.181736 88.362149 97.118103 88.469535 97.118103 L 89.352169 97.116036 z M 128.75545 101.74056 L 128.41542 105.61733 L 127.32608 105.61733 L 128.75545 101.74056 z " /></g><style
     type="text/css"
     id="style2">
	.st0{fill:#F05100;}
	.st1{fill:#FFFFFF;}
	.st2{fill:#1281C4;}
	.st3{fill:#034693;}
	.st4{fill:#CF3312;}
</style><style
     type="text/css"
     id="style2-4">
	.st0{fill:#FFFFFF;}
	.st1{fill:#FF0000;}
	.st2{fill:url(#SVGID_1_);}
	.st3{fill:url(#SVGID_00000060022068257817767130000001067164073883981741_);}
	.st4{fill:url(#SVGID_00000144308182761068376180000004131709304805192586_);}
	.st5{fill:url(#SVGID_00000000935997520668853970000011105419993307822477_);}
	.st6{fill:url(#SVGID_00000018200174457167754170000000853354448091225986_);}
	.st7{fill:url(#SVGID_00000072987630451721579260000010409738167651109522_);}
	.st8{fill:#3636FF;}
	.st9{display:none;}
	.st10{display:inline;}
	.st11{enable-background:new    ;}
	.st12{fill:url(#SVGID_00000099639162208554751810000013272208193612295339_);}
	.st13{fill:url(#SVGID_00000158736166008707814920000018426778185460247990_);}
	.st14{fill:url(#SVGID_00000133527000259551881150000004185836194023049859_);}
	.st15{fill:url(#SVGID_00000093164219829473752460000004603917870326250679_);}
	.st16{fill:url(#SVGID_00000156556395246081825560000005894267688922753411_);}
	.st17{fill:url(#SVGID_00000135690321830567168220000000437954853257014148_);}
	.st18{fill:url(#SVGID_00000040565659643257570880000002075315462357006765_);}
	.st19{fill:url(#SVGID_00000017508175736194757820000008863537906517323707_);}
	.st20{fill:url(#SVGID_00000126293465477839731700000000626789561221784705_);}
	.st21{fill:url(#SVGID_00000087403315896914670680000008996143154280075168_);}
	.st22{fill:url(#SVGID_00000151540686432933406660000011628697137491540393_);}
	.st23{fill:url(#SVGID_00000143589059756432772880000012524823099024141722_);}
	.st24{fill:url(#SVGID_00000052088033699595628130000015515451372212444082_);}
	.st25{fill:url(#SVGID_00000126294377186336552610000001799937443100725399_);}
	.st26{fill:url(#SVGID_00000070835762807858034660000013936331226864194476_);}
	.st27{fill:url(#SVGID_00000092457199491666826160000016742156659903073436_);}
	.st28{fill:url(#SVGID_00000138556585880754416440000017272986633013561527_);}
	.st29{fill:url(#SVGID_00000032624778419303139080000015394367773870234245_);}
	.st30{fill:url(#SVGID_00000040539262103052545880000003837399106474199717_);}
	.st31{fill:url(#SVGID_00000115483974547727894610000006699104590764616355_);}
	.st32{fill:url(#SVGID_00000041285316495664937430000010139118778734034608_);}
	.st33{fill:url(#SVGID_00000178199001922562380240000009661348160359078294_);}
	.st34{fill:url(#SVGID_00000145019290134935790460000010249637267404127883_);}
	.st35{fill:url(#SVGID_00000117636406951782473700000003654222835714608307_);}
	.st36{fill:url(#SVGID_00000158745280490234840560000003483236744759648947_);}
	.st37{fill:url(#SVGID_00000146474604070782972690000015670225624893543309_);}
	.st38{fill:url(#SVGID_00000173847499186819278890000011550608873747634579_);}
	.st39{fill:url(#SVGID_00000141427567100195222880000010417319602782459071_);}
</style><style
     type="text/css"
     id="style3783">
	.st0{fill-rule:evenodd;clip-rule:evenodd;fill:#FFFFFF;}
	.st1{fill:#FFFFFF;}
</style><style
     type="text/css"
     id="style740">
	.st0{fill:#2A4E78;}
</style><style
     type="text/css"
     id="style2-6">
	.st0{fill:#FF221D;}
	.st1{fill:#FDEB05;}
	.st2{display:none;}
	.st3{display:inline;}
	.st4{fill:#FBE901;}
	.st5{fill:#FFFFFF;}
</style><style
     type="text/css"
     id="style2-5">
	.st0{fill:#CBCBCA;}
	.st1{fill:#30308F;}
	.st2{fill:#EA2427;}
	.st3{fill:#EC2024;}
	.st4{fill:#FFFFFF;}
	.st5{stroke:#FFFFFF;stroke-width:6.1889;stroke-miterlimit:10;}
	.st6{fill:#FFFFFF;stroke:#231F20;stroke-width:6.1889;stroke-miterlimit:10;}
	.st7{fill:#FFFFFF;stroke:#000000;stroke-width:6.1889;stroke-miterlimit:10;}
	.st8{stroke:#DCE0DF;stroke-width:6.1889;stroke-miterlimit:10;}
</style></svg>
