<?xml version="1.0" encoding="UTF-8" standalone="no"?>
<!-- Created with Inkscape (http://www.inkscape.org/) -->

<svg
   width="1500"
   height="500"
   viewBox="0 0 396.87498 132.29167"
   version="1.1"
   id="svg5"
   inkscape:version="1.2.2 (732a01da63, 2022-12-09)"
   xml:space="preserve"
   sodipodi:docname="steam.svg"
   xmlns:inkscape="http://www.inkscape.org/namespaces/inkscape"
   xmlns:sodipodi="http://sodipodi.sourceforge.net/DTD/sodipodi-0.dtd"
   xmlns:xlink="http://www.w3.org/1999/xlink"
   xmlns="http://www.w3.org/2000/svg"
   xmlns:svg="http://www.w3.org/2000/svg"><sodipodi:namedview
     id="namedview7"
     pagecolor="#000000"
     bordercolor="#111111"
     borderopacity="1"
     inkscape:showpageshadow="0"
     inkscape:pageopacity="0"
     inkscape:pagecheckerboard="1"
     inkscape:deskcolor="#d1d1d1"
     inkscape:document-units="mm"
     showgrid="false"
     inkscape:zoom="0.5"
     inkscape:cx="826"
     inkscape:cy="142"
     inkscape:window-width="1920"
     inkscape:window-height="1009"
     inkscape:window-x="-8"
     inkscape:window-y="-8"
     inkscape:window-maximized="1"
     inkscape:current-layer="layer1" /><defs
     id="defs2">
		
		
	
			
				
			
		
			
			
			
			
			
				
			
			
			
			
			
		
		
		
		
	<path
   id="a"
   d="M63.175 34.078h8.133v49.598h-5.782V39.391c0-.343-.378-.573-.738-.573h-1.613v-4.74zM60.17 51.885v31.792h-3.122c-.378 0-.884.034-1.496-.712-.369-.444-.566-1.316-.566-1.316-1.303 1.593-2.607 2.145-4.383 2.145-4.541 0-6.096-2.631-6.096-7.944v-7.156c0-6.575 4.491-8.795 10.24-10.947v-5.509c0-2.765-.934-3.691-2.291-3.691-1.639 0-2.703.532-2.703 3.34v2.802c0 1.11-.424 1.692-2.291 1.668h-2.727v-3.889c0-5.313 2.555-8.296 7.609-8.296 5.346-.001 7.826 2.46 7.826 7.713zm-5.421 10.287c-3.252 1.587-4.814 2.686-4.814 7.06v5.555c0 2.674.215 4.634 2.18 4.634 1.709 0 2.636-1.047 2.636-5.741V62.172h-.002zm71.863 1.134c0 17.472-7.089 33.309-18.545 44.764s-27.28 18.545-44.755 18.536c-17.481.009-33.314-7.081-44.767-18.536S0 80.778 0 63.306c0-17.481 7.089-33.305 18.545-44.761S45.833.002 63.312.002c17.476 0 33.3 7.089 44.755 18.545s18.545 27.28 18.545 44.759zm-12.787.009c0-27.905-22.617-50.525-50.513-50.525-27.905 0-50.525 22.621-50.525 50.525a50.326 50.326 0 0 0 10.462 30.779V44.403h2.657c.784 0 1.596-.041 2.137.994a4.83 4.83 0 0 1 .39 1.047c1.311-2.154 3.302-2.288 5.087-2.288 4.61 0 6.599 3.209 6.599 9.238V75.5c0 4.985-2.421 8.413-6.599 8.413-1.529 0-3.063-.209-4.496-1.962v18.452a50.284 50.284 0 0 0 34.289 13.424c27.895.001 50.512-22.617 50.512-50.512zM31.701 79.319c1.5.017 2.712-.453 2.712-4.642V52.932c0-4.119-1.014-4.616-2.48-4.616-1.852 0-2.907 1.433-2.907 4.848v22.571c-.002 2.244 1.43 3.569 2.675 3.584zm65.256-35.148a6.041 6.041 0 0 0-5.233 3.154c-1.145-2.531-3.046-3.154-5.238-3.154-1.811 0-3.473.738-4.683 2.401 0 0-.076-1.337-.753-1.835-.474-.343-.704-.335-1.399-.335h-3.183v39.276h5.756V53.515c0-3.997 1.102-4.894 2.875-4.894 1.316 0 2.526.596 2.526 3.372v31.684h5.651V53.515c0-3.997 1.098-4.894 2.875-4.894 1.308 0 2.523.596 2.523 3.372v31.684h5.656V53.623c-.004-6.046-2.271-9.452-7.373-9.452" /><path
   id="c"
   d="M63.175 34.078h8.133v49.598h-5.782V39.391c0-.343-.378-.573-.738-.573h-1.613v-4.74zM60.17 51.885v31.792h-3.122c-.378 0-.884.034-1.496-.712-.369-.444-.566-1.316-.566-1.316-1.303 1.593-2.607 2.145-4.383 2.145-4.541 0-6.096-2.631-6.096-7.944v-7.156c0-6.575 4.491-8.795 10.24-10.947v-5.509c0-2.765-.934-3.691-2.291-3.691-1.639 0-2.703.532-2.703 3.34v2.802c0 1.11-.424 1.692-2.291 1.668h-2.727v-3.889c0-5.313 2.555-8.296 7.609-8.296 5.346-.001 7.826 2.46 7.826 7.713zm-5.421 10.287c-3.252 1.587-4.814 2.686-4.814 7.06v5.555c0 2.674.215 4.634 2.18 4.634 1.709 0 2.636-1.047 2.636-5.741V62.172h-.002zm71.863 1.134c0 17.472-7.089 33.309-18.545 44.764s-27.28 18.545-44.755 18.536c-17.481.009-33.314-7.081-44.767-18.536S0 80.778 0 63.306c0-17.481 7.089-33.305 18.545-44.761S45.833.002 63.312.002c17.476 0 33.3 7.089 44.755 18.545s18.545 27.28 18.545 44.759zm-12.787.009c0-27.905-22.617-50.525-50.513-50.525-27.905 0-50.525 22.621-50.525 50.525a50.326 50.326 0 0 0 10.462 30.779V44.403h2.657c.784 0 1.596-.041 2.137.994a4.83 4.83 0 0 1 .39 1.047c1.311-2.154 3.302-2.288 5.087-2.288 4.61 0 6.599 3.209 6.599 9.238V75.5c0 4.985-2.421 8.413-6.599 8.413-1.529 0-3.063-.209-4.496-1.962v18.452a50.284 50.284 0 0 0 34.289 13.424c27.895.001 50.512-22.617 50.512-50.512zM31.701 79.319c1.5.017 2.712-.453 2.712-4.642V52.932c0-4.119-1.014-4.616-2.48-4.616-1.852 0-2.907 1.433-2.907 4.848v22.571c-.002 2.244 1.43 3.569 2.675 3.584zm65.256-35.148a6.041 6.041 0 0 0-5.233 3.154c-1.145-2.531-3.046-3.154-5.238-3.154-1.811 0-3.473.738-4.683 2.401 0 0-.076-1.337-.753-1.835-.474-.343-.704-.335-1.399-.335h-3.183v39.276h5.756V53.515c0-3.997 1.102-4.894 2.875-4.894 1.316 0 2.526.596 2.526 3.372v31.684h5.651V53.515c0-3.997 1.098-4.894 2.875-4.894 1.308 0 2.523.596 2.523 3.372v31.684h5.656V53.623c-.004-6.046-2.271-9.452-7.373-9.452" /><path
   id="e"
   d="M63.175 34.078h8.133v49.598h-5.782V39.391c0-.343-.378-.573-.738-.573h-1.613v-4.74zM60.17 51.885v31.792h-3.122c-.378 0-.884.034-1.496-.712-.369-.444-.566-1.316-.566-1.316-1.303 1.593-2.607 2.145-4.383 2.145-4.541 0-6.096-2.631-6.096-7.944v-7.156c0-6.575 4.491-8.795 10.24-10.947v-5.509c0-2.765-.934-3.691-2.291-3.691-1.639 0-2.703.532-2.703 3.34v2.802c0 1.11-.424 1.692-2.291 1.668h-2.727v-3.889c0-5.313 2.555-8.296 7.609-8.296 5.346-.001 7.826 2.46 7.826 7.713zm-5.421 10.287c-3.252 1.587-4.814 2.686-4.814 7.06v5.555c0 2.674.215 4.634 2.18 4.634 1.709 0 2.636-1.047 2.636-5.741V62.172h-.002zm71.863 1.134c0 17.472-7.089 33.309-18.545 44.764s-27.28 18.545-44.755 18.536c-17.481.009-33.314-7.081-44.767-18.536S0 80.778 0 63.306c0-17.481 7.089-33.305 18.545-44.761S45.833.002 63.312.002c17.476 0 33.3 7.089 44.755 18.545s18.545 27.28 18.545 44.759zm-12.787.009c0-27.905-22.617-50.525-50.513-50.525-27.905 0-50.525 22.621-50.525 50.525a50.326 50.326 0 0 0 10.462 30.779V44.403h2.657c.784 0 1.596-.041 2.137.994a4.83 4.83 0 0 1 .39 1.047c1.311-2.154 3.302-2.288 5.087-2.288 4.61 0 6.599 3.209 6.599 9.238V75.5c0 4.985-2.421 8.413-6.599 8.413-1.529 0-3.063-.209-4.496-1.962v18.452a50.284 50.284 0 0 0 34.289 13.424c27.895.001 50.512-22.617 50.512-50.512zM31.701 79.319c1.5.017 2.712-.453 2.712-4.642V52.932c0-4.119-1.014-4.616-2.48-4.616-1.852 0-2.907 1.433-2.907 4.848v22.571c-.002 2.244 1.43 3.569 2.675 3.584zm65.256-35.148a6.041 6.041 0 0 0-5.233 3.154c-1.145-2.531-3.046-3.154-5.238-3.154-1.811 0-3.473.738-4.683 2.401 0 0-.076-1.337-.753-1.835-.474-.343-.704-.335-1.399-.335h-3.183v39.276h5.756V53.515c0-3.997 1.102-4.894 2.875-4.894 1.316 0 2.526.596 2.526 3.372v31.684h5.651V53.515c0-3.997 1.098-4.894 2.875-4.894 1.308 0 2.523.596 2.523 3.372v31.684h5.656V53.623c-.004-6.046-2.271-9.452-7.373-9.452" /><path
   id="g"
   d="M63.175 34.078h8.133v49.598h-5.782V39.391c0-.343-.378-.573-.738-.573h-1.613v-4.74zM60.17 51.885v31.792h-3.122c-.378 0-.884.034-1.496-.712-.369-.444-.566-1.316-.566-1.316-1.303 1.593-2.607 2.145-4.383 2.145-4.541 0-6.096-2.631-6.096-7.944v-7.156c0-6.575 4.491-8.795 10.24-10.947v-5.509c0-2.765-.934-3.691-2.291-3.691-1.639 0-2.703.532-2.703 3.34v2.802c0 1.11-.424 1.692-2.291 1.668h-2.727v-3.889c0-5.313 2.555-8.296 7.609-8.296 5.346-.001 7.826 2.46 7.826 7.713zm-5.421 10.287c-3.252 1.587-4.814 2.686-4.814 7.06v5.555c0 2.674.215 4.634 2.18 4.634 1.709 0 2.636-1.047 2.636-5.741V62.172h-.002zm71.863 1.134c0 17.472-7.089 33.309-18.545 44.764s-27.28 18.545-44.755 18.536c-17.481.009-33.314-7.081-44.767-18.536S0 80.778 0 63.306c0-17.481 7.089-33.305 18.545-44.761S45.833.002 63.312.002c17.476 0 33.3 7.089 44.755 18.545s18.545 27.28 18.545 44.759zm-12.787.009c0-27.905-22.617-50.525-50.513-50.525-27.905 0-50.525 22.621-50.525 50.525a50.326 50.326 0 0 0 10.462 30.779V44.403h2.657c.784 0 1.596-.041 2.137.994a4.83 4.83 0 0 1 .39 1.047c1.311-2.154 3.302-2.288 5.087-2.288 4.61 0 6.599 3.209 6.599 9.238V75.5c0 4.985-2.421 8.413-6.599 8.413-1.529 0-3.063-.209-4.496-1.962v18.452a50.284 50.284 0 0 0 34.289 13.424c27.895.001 50.512-22.617 50.512-50.512zM31.701 79.319c1.5.017 2.712-.453 2.712-4.642V52.932c0-4.119-1.014-4.616-2.48-4.616-1.852 0-2.907 1.433-2.907 4.848v22.571c-.002 2.244 1.43 3.569 2.675 3.584zm65.256-35.148a6.041 6.041 0 0 0-5.233 3.154c-1.145-2.531-3.046-3.154-5.238-3.154-1.811 0-3.473.738-4.683 2.401 0 0-.076-1.337-.753-1.835-.474-.343-.704-.335-1.399-.335h-3.183v39.276h5.756V53.515c0-3.997 1.102-4.894 2.875-4.894 1.316 0 2.526.596 2.526 3.372v31.684h5.651V53.515c0-3.997 1.098-4.894 2.875-4.894 1.308 0 2.523.596 2.523 3.372v31.684h5.656V53.623c-.004-6.046-2.271-9.452-7.373-9.452" /><path
   id="i"
   d="M63.175 34.078h8.133v49.598h-5.782V39.391c0-.343-.378-.573-.738-.573h-1.613v-4.74zM60.17 51.885v31.792h-3.122c-.378 0-.884.034-1.496-.712-.369-.444-.566-1.316-.566-1.316-1.303 1.593-2.607 2.145-4.383 2.145-4.541 0-6.096-2.631-6.096-7.944v-7.156c0-6.575 4.491-8.795 10.24-10.947v-5.509c0-2.765-.934-3.691-2.291-3.691-1.639 0-2.703.532-2.703 3.34v2.802c0 1.11-.424 1.692-2.291 1.668h-2.727v-3.889c0-5.313 2.555-8.296 7.609-8.296 5.346-.001 7.826 2.46 7.826 7.713zm-5.421 10.287c-3.252 1.587-4.814 2.686-4.814 7.06v5.555c0 2.674.215 4.634 2.18 4.634 1.709 0 2.636-1.047 2.636-5.741V62.172h-.002zm71.863 1.134c0 17.472-7.089 33.309-18.545 44.764s-27.28 18.545-44.755 18.536c-17.481.009-33.314-7.081-44.767-18.536S0 80.778 0 63.306c0-17.481 7.089-33.305 18.545-44.761S45.833.002 63.312.002c17.476 0 33.3 7.089 44.755 18.545s18.545 27.28 18.545 44.759zm-12.787.009c0-27.905-22.617-50.525-50.513-50.525-27.905 0-50.525 22.621-50.525 50.525a50.326 50.326 0 0 0 10.462 30.779V44.403h2.657c.784 0 1.596-.041 2.137.994a4.83 4.83 0 0 1 .39 1.047c1.311-2.154 3.302-2.288 5.087-2.288 4.61 0 6.599 3.209 6.599 9.238V75.5c0 4.985-2.421 8.413-6.599 8.413-1.529 0-3.063-.209-4.496-1.962v18.452a50.284 50.284 0 0 0 34.289 13.424c27.895.001 50.512-22.617 50.512-50.512zM31.701 79.319c1.5.017 2.712-.453 2.712-4.642V52.932c0-4.119-1.014-4.616-2.48-4.616-1.852 0-2.907 1.433-2.907 4.848v22.571c-.002 2.244 1.43 3.569 2.675 3.584zm65.256-35.148a6.041 6.041 0 0 0-5.233 3.154c-1.145-2.531-3.046-3.154-5.238-3.154-1.811 0-3.473.738-4.683 2.401 0 0-.076-1.337-.753-1.835-.474-.343-.704-.335-1.399-.335h-3.183v39.276h5.756V53.515c0-3.997 1.102-4.894 2.875-4.894 1.316 0 2.526.596 2.526 3.372v31.684h5.651V53.515c0-3.997 1.098-4.894 2.875-4.894 1.308 0 2.523.596 2.523 3.372v31.684h5.656V53.623c-.004-6.046-2.271-9.452-7.373-9.452" /><path
   id="k"
   d="M63.175 34.078h8.133v49.598h-5.782V39.391c0-.343-.378-.573-.738-.573h-1.613v-4.74zM60.17 51.885v31.792h-3.122c-.378 0-.884.034-1.496-.712-.369-.444-.566-1.316-.566-1.316-1.303 1.593-2.607 2.145-4.383 2.145-4.541 0-6.096-2.631-6.096-7.944v-7.156c0-6.575 4.491-8.795 10.24-10.947v-5.509c0-2.765-.934-3.691-2.291-3.691-1.639 0-2.703.532-2.703 3.34v2.802c0 1.11-.424 1.692-2.291 1.668h-2.727v-3.889c0-5.313 2.555-8.296 7.609-8.296 5.346-.001 7.826 2.46 7.826 7.713zm-5.421 10.287c-3.252 1.587-4.814 2.686-4.814 7.06v5.555c0 2.674.215 4.634 2.18 4.634 1.709 0 2.636-1.047 2.636-5.741V62.172h-.002zm71.863 1.134c0 17.472-7.089 33.309-18.545 44.764s-27.28 18.545-44.755 18.536c-17.481.009-33.314-7.081-44.767-18.536S0 80.778 0 63.306c0-17.481 7.089-33.305 18.545-44.761S45.833.002 63.312.002c17.476 0 33.3 7.089 44.755 18.545s18.545 27.28 18.545 44.759zm-12.787.009c0-27.905-22.617-50.525-50.513-50.525-27.905 0-50.525 22.621-50.525 50.525a50.326 50.326 0 0 0 10.462 30.779V44.403h2.657c.784 0 1.596-.041 2.137.994a4.83 4.83 0 0 1 .39 1.047c1.311-2.154 3.302-2.288 5.087-2.288 4.61 0 6.599 3.209 6.599 9.238V75.5c0 4.985-2.421 8.413-6.599 8.413-1.529 0-3.063-.209-4.496-1.962v18.452a50.284 50.284 0 0 0 34.289 13.424c27.895.001 50.512-22.617 50.512-50.512zM31.701 79.319c1.5.017 2.712-.453 2.712-4.642V52.932c0-4.119-1.014-4.616-2.48-4.616-1.852 0-2.907 1.433-2.907 4.848v22.571c-.002 2.244 1.43 3.569 2.675 3.584zm65.256-35.148a6.041 6.041 0 0 0-5.233 3.154c-1.145-2.531-3.046-3.154-5.238-3.154-1.811 0-3.473.738-4.683 2.401 0 0-.076-1.337-.753-1.835-.474-.343-.704-.335-1.399-.335h-3.183v39.276h5.756V53.515c0-3.997 1.102-4.894 2.875-4.894 1.316 0 2.526.596 2.526 3.372v31.684h5.651V53.515c0-3.997 1.098-4.894 2.875-4.894 1.308 0 2.523.596 2.523 3.372v31.684h5.656V53.623c-.004-6.046-2.271-9.452-7.373-9.452" /><path
   id="m"
   d="M63.175 34.078h8.133v49.598h-5.782V39.391c0-.343-.378-.573-.738-.573h-1.613v-4.74zM60.17 51.885v31.792h-3.122c-.378 0-.884.034-1.496-.712-.369-.444-.566-1.316-.566-1.316-1.303 1.593-2.607 2.145-4.383 2.145-4.541 0-6.096-2.631-6.096-7.944v-7.156c0-6.575 4.491-8.795 10.24-10.947v-5.509c0-2.765-.934-3.691-2.291-3.691-1.639 0-2.703.532-2.703 3.34v2.802c0 1.11-.424 1.692-2.291 1.668h-2.727v-3.889c0-5.313 2.555-8.296 7.609-8.296 5.346-.001 7.826 2.46 7.826 7.713zm-5.421 10.287c-3.252 1.587-4.814 2.686-4.814 7.06v5.555c0 2.674.215 4.634 2.18 4.634 1.709 0 2.636-1.047 2.636-5.741V62.172h-.002zm71.863 1.134c0 17.472-7.089 33.309-18.545 44.764s-27.28 18.545-44.755 18.536c-17.481.009-33.314-7.081-44.767-18.536S0 80.778 0 63.306c0-17.481 7.089-33.305 18.545-44.761S45.833.002 63.312.002c17.476 0 33.3 7.089 44.755 18.545s18.545 27.28 18.545 44.759zm-12.787.009c0-27.905-22.617-50.525-50.513-50.525-27.905 0-50.525 22.621-50.525 50.525a50.326 50.326 0 0 0 10.462 30.779V44.403h2.657c.784 0 1.596-.041 2.137.994a4.83 4.83 0 0 1 .39 1.047c1.311-2.154 3.302-2.288 5.087-2.288 4.61 0 6.599 3.209 6.599 9.238V75.5c0 4.985-2.421 8.413-6.599 8.413-1.529 0-3.063-.209-4.496-1.962v18.452a50.284 50.284 0 0 0 34.289 13.424c27.895.001 50.512-22.617 50.512-50.512zM31.701 79.319c1.5.017 2.712-.453 2.712-4.642V52.932c0-4.119-1.014-4.616-2.48-4.616-1.852 0-2.907 1.433-2.907 4.848v22.571c-.002 2.244 1.43 3.569 2.675 3.584zm65.256-35.148a6.041 6.041 0 0 0-5.233 3.154c-1.145-2.531-3.046-3.154-5.238-3.154-1.811 0-3.473.738-4.683 2.401 0 0-.076-1.337-.753-1.835-.474-.343-.704-.335-1.399-.335h-3.183v39.276h5.756V53.515c0-3.997 1.102-4.894 2.875-4.894 1.316 0 2.526.596 2.526 3.372v31.684h5.651V53.515c0-3.997 1.098-4.894 2.875-4.894 1.308 0 2.523.596 2.523 3.372v31.684h5.656V53.623c-.004-6.046-2.271-9.452-7.373-9.452" /><path
   id="o"
   d="M63.175 34.078h8.133v49.598h-5.782V39.391c0-.343-.378-.573-.738-.573h-1.613v-4.74zM60.17 51.885v31.792h-3.122c-.378 0-.884.034-1.496-.712-.369-.444-.566-1.316-.566-1.316-1.303 1.593-2.607 2.145-4.383 2.145-4.541 0-6.096-2.631-6.096-7.944v-7.156c0-6.575 4.491-8.795 10.24-10.947v-5.509c0-2.765-.934-3.691-2.291-3.691-1.639 0-2.703.532-2.703 3.34v2.802c0 1.11-.424 1.692-2.291 1.668h-2.727v-3.889c0-5.313 2.555-8.296 7.609-8.296 5.346-.001 7.826 2.46 7.826 7.713zm-5.421 10.287c-3.252 1.587-4.814 2.686-4.814 7.06v5.555c0 2.674.215 4.634 2.18 4.634 1.709 0 2.636-1.047 2.636-5.741V62.172h-.002zm71.863 1.134c0 17.472-7.089 33.309-18.545 44.764s-27.28 18.545-44.755 18.536c-17.481.009-33.314-7.081-44.767-18.536S0 80.778 0 63.306c0-17.481 7.089-33.305 18.545-44.761S45.833.002 63.312.002c17.476 0 33.3 7.089 44.755 18.545s18.545 27.28 18.545 44.759zm-12.787.009c0-27.905-22.617-50.525-50.513-50.525-27.905 0-50.525 22.621-50.525 50.525a50.326 50.326 0 0 0 10.462 30.779V44.403h2.657c.784 0 1.596-.041 2.137.994a4.83 4.83 0 0 1 .39 1.047c1.311-2.154 3.302-2.288 5.087-2.288 4.61 0 6.599 3.209 6.599 9.238V75.5c0 4.985-2.421 8.413-6.599 8.413-1.529 0-3.063-.209-4.496-1.962v18.452a50.284 50.284 0 0 0 34.289 13.424c27.895.001 50.512-22.617 50.512-50.512zM31.701 79.319c1.5.017 2.712-.453 2.712-4.642V52.932c0-4.119-1.014-4.616-2.48-4.616-1.852 0-2.907 1.433-2.907 4.848v22.571c-.002 2.244 1.43 3.569 2.675 3.584zm65.256-35.148a6.041 6.041 0 0 0-5.233 3.154c-1.145-2.531-3.046-3.154-5.238-3.154-1.811 0-3.473.738-4.683 2.401 0 0-.076-1.337-.753-1.835-.474-.343-.704-.335-1.399-.335h-3.183v39.276h5.756V53.515c0-3.997 1.102-4.894 2.875-4.894 1.316 0 2.526.596 2.526 3.372v31.684h5.651V53.515c0-3.997 1.098-4.894 2.875-4.894 1.308 0 2.523.596 2.523 3.372v31.684h5.656V53.623c-.004-6.046-2.271-9.452-7.373-9.452" /><path
   id="q"
   d="M63.175 34.078h8.133v49.598h-5.782V39.391c0-.343-.378-.573-.738-.573h-1.613v-4.74zM60.17 51.885v31.792h-3.122c-.378 0-.884.034-1.496-.712-.369-.444-.566-1.316-.566-1.316-1.303 1.593-2.607 2.145-4.383 2.145-4.541 0-6.096-2.631-6.096-7.944v-7.156c0-6.575 4.491-8.795 10.24-10.947v-5.509c0-2.765-.934-3.691-2.291-3.691-1.639 0-2.703.532-2.703 3.34v2.802c0 1.11-.424 1.692-2.291 1.668h-2.727v-3.889c0-5.313 2.555-8.296 7.609-8.296 5.346-.001 7.826 2.46 7.826 7.713zm-5.421 10.287c-3.252 1.587-4.814 2.686-4.814 7.06v5.555c0 2.674.215 4.634 2.18 4.634 1.709 0 2.636-1.047 2.636-5.741V62.172h-.002zm71.863 1.134c0 17.472-7.089 33.309-18.545 44.764s-27.28 18.545-44.755 18.536c-17.481.009-33.314-7.081-44.767-18.536S0 80.778 0 63.306c0-17.481 7.089-33.305 18.545-44.761S45.833.002 63.312.002c17.476 0 33.3 7.089 44.755 18.545s18.545 27.28 18.545 44.759zm-12.787.009c0-27.905-22.617-50.525-50.513-50.525-27.905 0-50.525 22.621-50.525 50.525a50.326 50.326 0 0 0 10.462 30.779V44.403h2.657c.784 0 1.596-.041 2.137.994a4.83 4.83 0 0 1 .39 1.047c1.311-2.154 3.302-2.288 5.087-2.288 4.61 0 6.599 3.209 6.599 9.238V75.5c0 4.985-2.421 8.413-6.599 8.413-1.529 0-3.063-.209-4.496-1.962v18.452a50.284 50.284 0 0 0 34.289 13.424c27.895.001 50.512-22.617 50.512-50.512zM31.701 79.319c1.5.017 2.712-.453 2.712-4.642V52.932c0-4.119-1.014-4.616-2.48-4.616-1.852 0-2.907 1.433-2.907 4.848v22.571c-.002 2.244 1.43 3.569 2.675 3.584zm65.256-35.148a6.041 6.041 0 0 0-5.233 3.154c-1.145-2.531-3.046-3.154-5.238-3.154-1.811 0-3.473.738-4.683 2.401 0 0-.076-1.337-.753-1.835-.474-.343-.704-.335-1.399-.335h-3.183v39.276h5.756V53.515c0-3.997 1.102-4.894 2.875-4.894 1.316 0 2.526.596 2.526 3.372v31.684h5.651V53.515c0-3.997 1.098-4.894 2.875-4.894 1.308 0 2.523.596 2.523 3.372v31.684h5.656V53.623c-.004-6.046-2.271-9.452-7.373-9.452" /><path
   id="s"
   d="M63.175 34.078h8.133v49.598h-5.782V39.391c0-.343-.378-.573-.738-.573h-1.613v-4.74zM60.17 51.885v31.792h-3.122c-.378 0-.884.034-1.496-.712-.369-.444-.566-1.316-.566-1.316-1.303 1.593-2.607 2.145-4.383 2.145-4.541 0-6.096-2.631-6.096-7.944v-7.156c0-6.575 4.491-8.795 10.24-10.947v-5.509c0-2.765-.934-3.691-2.291-3.691-1.639 0-2.703.532-2.703 3.34v2.802c0 1.11-.424 1.692-2.291 1.668h-2.727v-3.889c0-5.313 2.555-8.296 7.609-8.296 5.346-.001 7.826 2.46 7.826 7.713zm-5.421 10.287c-3.252 1.587-4.814 2.686-4.814 7.06v5.555c0 2.674.215 4.634 2.18 4.634 1.709 0 2.636-1.047 2.636-5.741V62.172h-.002zm71.863 1.134c0 17.472-7.089 33.309-18.545 44.764s-27.28 18.545-44.755 18.536c-17.481.009-33.314-7.081-44.767-18.536S0 80.778 0 63.306c0-17.481 7.089-33.305 18.545-44.761S45.833.002 63.312.002c17.476 0 33.3 7.089 44.755 18.545s18.545 27.28 18.545 44.759zm-12.787.009c0-27.905-22.617-50.525-50.513-50.525-27.905 0-50.525 22.621-50.525 50.525a50.326 50.326 0 0 0 10.462 30.779V44.403h2.657c.784 0 1.596-.041 2.137.994a4.83 4.83 0 0 1 .39 1.047c1.311-2.154 3.302-2.288 5.087-2.288 4.61 0 6.599 3.209 6.599 9.238V75.5c0 4.985-2.421 8.413-6.599 8.413-1.529 0-3.063-.209-4.496-1.962v18.452a50.284 50.284 0 0 0 34.289 13.424c27.895.001 50.512-22.617 50.512-50.512zM31.701 79.319c1.5.017 2.712-.453 2.712-4.642V52.932c0-4.119-1.014-4.616-2.48-4.616-1.852 0-2.907 1.433-2.907 4.848v22.571c-.002 2.244 1.43 3.569 2.675 3.584zm65.256-35.148a6.041 6.041 0 0 0-5.233 3.154c-1.145-2.531-3.046-3.154-5.238-3.154-1.811 0-3.473.738-4.683 2.401 0 0-.076-1.337-.753-1.835-.474-.343-.704-.335-1.399-.335h-3.183v39.276h5.756V53.515c0-3.997 1.102-4.894 2.875-4.894 1.316 0 2.526.596 2.526 3.372v31.684h5.651V53.515c0-3.997 1.098-4.894 2.875-4.894 1.308 0 2.523.596 2.523 3.372v31.684h5.656V53.623c-.004-6.046-2.271-9.452-7.373-9.452" /><path
   id="u"
   d="M63.175 34.078h8.133v49.598h-5.782V39.391c0-.343-.378-.573-.738-.573h-1.613v-4.74zM60.17 51.885v31.792h-3.122c-.378 0-.884.034-1.496-.712-.369-.444-.566-1.316-.566-1.316-1.303 1.593-2.607 2.145-4.383 2.145-4.541 0-6.096-2.631-6.096-7.944v-7.156c0-6.575 4.491-8.795 10.24-10.947v-5.509c0-2.765-.934-3.691-2.291-3.691-1.639 0-2.703.532-2.703 3.34v2.802c0 1.11-.424 1.692-2.291 1.668h-2.727v-3.889c0-5.313 2.555-8.296 7.609-8.296 5.346-.001 7.826 2.46 7.826 7.713zm-5.421 10.287c-3.252 1.587-4.814 2.686-4.814 7.06v5.555c0 2.674.215 4.634 2.18 4.634 1.709 0 2.636-1.047 2.636-5.741V62.172h-.002zm71.863 1.134c0 17.472-7.089 33.309-18.545 44.764s-27.28 18.545-44.755 18.536c-17.481.009-33.314-7.081-44.767-18.536S0 80.778 0 63.306c0-17.481 7.089-33.305 18.545-44.761S45.833.002 63.312.002c17.476 0 33.3 7.089 44.755 18.545s18.545 27.28 18.545 44.759zm-12.787.009c0-27.905-22.617-50.525-50.513-50.525-27.905 0-50.525 22.621-50.525 50.525a50.326 50.326 0 0 0 10.462 30.779V44.403h2.657c.784 0 1.596-.041 2.137.994a4.83 4.83 0 0 1 .39 1.047c1.311-2.154 3.302-2.288 5.087-2.288 4.61 0 6.599 3.209 6.599 9.238V75.5c0 4.985-2.421 8.413-6.599 8.413-1.529 0-3.063-.209-4.496-1.962v18.452a50.284 50.284 0 0 0 34.289 13.424c27.895.001 50.512-22.617 50.512-50.512zM31.701 79.319c1.5.017 2.712-.453 2.712-4.642V52.932c0-4.119-1.014-4.616-2.48-4.616-1.852 0-2.907 1.433-2.907 4.848v22.571c-.002 2.244 1.43 3.569 2.675 3.584zm65.256-35.148a6.041 6.041 0 0 0-5.233 3.154c-1.145-2.531-3.046-3.154-5.238-3.154-1.811 0-3.473.738-4.683 2.401 0 0-.076-1.337-.753-1.835-.474-.343-.704-.335-1.399-.335h-3.183v39.276h5.756V53.515c0-3.997 1.102-4.894 2.875-4.894 1.316 0 2.526.596 2.526 3.372v31.684h5.651V53.515c0-3.997 1.098-4.894 2.875-4.894 1.308 0 2.523.596 2.523 3.372v31.684h5.656V53.623c-.004-6.046-2.271-9.452-7.373-9.452" /><path
   id="w"
   d="M63.175 34.078h8.133v49.598h-5.782V39.391c0-.343-.378-.573-.738-.573h-1.613v-4.74zM60.17 51.885v31.792h-3.122c-.378 0-.884.034-1.496-.712-.369-.444-.566-1.316-.566-1.316-1.303 1.593-2.607 2.145-4.383 2.145-4.541 0-6.096-2.631-6.096-7.944v-7.156c0-6.575 4.491-8.795 10.24-10.947v-5.509c0-2.765-.934-3.691-2.291-3.691-1.639 0-2.703.532-2.703 3.34v2.802c0 1.11-.424 1.692-2.291 1.668h-2.727v-3.889c0-5.313 2.555-8.296 7.609-8.296 5.346-.001 7.826 2.46 7.826 7.713zm-5.421 10.287c-3.252 1.587-4.814 2.686-4.814 7.06v5.555c0 2.674.215 4.634 2.18 4.634 1.709 0 2.636-1.047 2.636-5.741V62.172h-.002zm71.863 1.134c0 17.472-7.089 33.309-18.545 44.764s-27.28 18.545-44.755 18.536c-17.481.009-33.314-7.081-44.767-18.536S0 80.778 0 63.306c0-17.481 7.089-33.305 18.545-44.761S45.833.002 63.312.002c17.476 0 33.3 7.089 44.755 18.545s18.545 27.28 18.545 44.759zm-12.787.009c0-27.905-22.617-50.525-50.513-50.525-27.905 0-50.525 22.621-50.525 50.525a50.326 50.326 0 0 0 10.462 30.779V44.403h2.657c.784 0 1.596-.041 2.137.994a4.83 4.83 0 0 1 .39 1.047c1.311-2.154 3.302-2.288 5.087-2.288 4.61 0 6.599 3.209 6.599 9.238V75.5c0 4.985-2.421 8.413-6.599 8.413-1.529 0-3.063-.209-4.496-1.962v18.452a50.284 50.284 0 0 0 34.289 13.424c27.895.001 50.512-22.617 50.512-50.512zM31.701 79.319c1.5.017 2.712-.453 2.712-4.642V52.932c0-4.119-1.014-4.616-2.48-4.616-1.852 0-2.907 1.433-2.907 4.848v22.571c-.002 2.244 1.43 3.569 2.675 3.584zm65.256-35.148a6.041 6.041 0 0 0-5.233 3.154c-1.145-2.531-3.046-3.154-5.238-3.154-1.811 0-3.473.738-4.683 2.401 0 0-.076-1.337-.753-1.835-.474-.343-.704-.335-1.399-.335h-3.183v39.276h5.756V53.515c0-3.997 1.102-4.894 2.875-4.894 1.316 0 2.526.596 2.526 3.372v31.684h5.651V53.515c0-3.997 1.098-4.894 2.875-4.894 1.308 0 2.523.596 2.523 3.372v31.684h5.656V53.623c-.004-6.046-2.271-9.452-7.373-9.452" /><path
   id="y"
   d="M63.175 34.078h8.133v49.598h-5.782V39.391c0-.343-.378-.573-.738-.573h-1.613v-4.74zM60.17 51.885v31.792h-3.122c-.378 0-.884.034-1.496-.712-.369-.444-.566-1.316-.566-1.316-1.303 1.593-2.607 2.145-4.383 2.145-4.541 0-6.096-2.631-6.096-7.944v-7.156c0-6.575 4.491-8.795 10.24-10.947v-5.509c0-2.765-.934-3.691-2.291-3.691-1.639 0-2.703.532-2.703 3.34v2.802c0 1.11-.424 1.692-2.291 1.668h-2.727v-3.889c0-5.313 2.555-8.296 7.609-8.296 5.346-.001 7.826 2.46 7.826 7.713zm-5.421 10.287c-3.252 1.587-4.814 2.686-4.814 7.06v5.555c0 2.674.215 4.634 2.18 4.634 1.709 0 2.636-1.047 2.636-5.741V62.172h-.002zm71.863 1.134c0 17.472-7.089 33.309-18.545 44.764s-27.28 18.545-44.755 18.536c-17.481.009-33.314-7.081-44.767-18.536S0 80.778 0 63.306c0-17.481 7.089-33.305 18.545-44.761S45.833.002 63.312.002c17.476 0 33.3 7.089 44.755 18.545s18.545 27.28 18.545 44.759zm-12.787.009c0-27.905-22.617-50.525-50.513-50.525-27.905 0-50.525 22.621-50.525 50.525a50.326 50.326 0 0 0 10.462 30.779V44.403h2.657c.784 0 1.596-.041 2.137.994a4.83 4.83 0 0 1 .39 1.047c1.311-2.154 3.302-2.288 5.087-2.288 4.61 0 6.599 3.209 6.599 9.238V75.5c0 4.985-2.421 8.413-6.599 8.413-1.529 0-3.063-.209-4.496-1.962v18.452a50.284 50.284 0 0 0 34.289 13.424c27.895.001 50.512-22.617 50.512-50.512zM31.701 79.319c1.5.017 2.712-.453 2.712-4.642V52.932c0-4.119-1.014-4.616-2.48-4.616-1.852 0-2.907 1.433-2.907 4.848v22.571c-.002 2.244 1.43 3.569 2.675 3.584zm65.256-35.148a6.041 6.041 0 0 0-5.233 3.154c-1.145-2.531-3.046-3.154-5.238-3.154-1.811 0-3.473.738-4.683 2.401 0 0-.076-1.337-.753-1.835-.474-.343-.704-.335-1.399-.335h-3.183v39.276h5.756V53.515c0-3.997 1.102-4.894 2.875-4.894 1.316 0 2.526.596 2.526 3.372v31.684h5.651V53.515c0-3.997 1.098-4.894 2.875-4.894 1.308 0 2.523.596 2.523 3.372v31.684h5.656V53.623c-.004-6.046-2.271-9.452-7.373-9.452" /><path
   id="A"
   d="M63.175 34.078h8.133v49.598h-5.782V39.391c0-.343-.378-.573-.738-.573h-1.613v-4.74zM60.17 51.885v31.792h-3.122c-.378 0-.884.034-1.496-.712-.369-.444-.566-1.316-.566-1.316-1.303 1.593-2.607 2.145-4.383 2.145-4.541 0-6.096-2.631-6.096-7.944v-7.156c0-6.575 4.491-8.795 10.24-10.947v-5.509c0-2.765-.934-3.691-2.291-3.691-1.639 0-2.703.532-2.703 3.34v2.802c0 1.11-.424 1.692-2.291 1.668h-2.727v-3.889c0-5.313 2.555-8.296 7.609-8.296 5.346-.001 7.826 2.46 7.826 7.713zm-5.421 10.287c-3.252 1.587-4.814 2.686-4.814 7.06v5.555c0 2.674.215 4.634 2.18 4.634 1.709 0 2.636-1.047 2.636-5.741V62.172h-.002zm71.863 1.134c0 17.472-7.089 33.309-18.545 44.764s-27.28 18.545-44.755 18.536c-17.481.009-33.314-7.081-44.767-18.536S0 80.778 0 63.306c0-17.481 7.089-33.305 18.545-44.761S45.833.002 63.312.002c17.476 0 33.3 7.089 44.755 18.545s18.545 27.28 18.545 44.759zm-12.787.009c0-27.905-22.617-50.525-50.513-50.525-27.905 0-50.525 22.621-50.525 50.525a50.326 50.326 0 0 0 10.462 30.779V44.403h2.657c.784 0 1.596-.041 2.137.994a4.83 4.83 0 0 1 .39 1.047c1.311-2.154 3.302-2.288 5.087-2.288 4.61 0 6.599 3.209 6.599 9.238V75.5c0 4.985-2.421 8.413-6.599 8.413-1.529 0-3.063-.209-4.496-1.962v18.452a50.284 50.284 0 0 0 34.289 13.424c27.895.001 50.512-22.617 50.512-50.512zM31.701 79.319c1.5.017 2.712-.453 2.712-4.642V52.932c0-4.119-1.014-4.616-2.48-4.616-1.852 0-2.907 1.433-2.907 4.848v22.571c-.002 2.244 1.43 3.569 2.675 3.584zm65.256-35.148a6.041 6.041 0 0 0-5.233 3.154c-1.145-2.531-3.046-3.154-5.238-3.154-1.811 0-3.473.738-4.683 2.401 0 0-.076-1.337-.753-1.835-.474-.343-.704-.335-1.399-.335h-3.183v39.276h5.756V53.515c0-3.997 1.102-4.894 2.875-4.894 1.316 0 2.526.596 2.526 3.372v31.684h5.651V53.515c0-3.997 1.098-4.894 2.875-4.894 1.308 0 2.523.596 2.523 3.372v31.684h5.656V53.623c-.004-6.046-2.271-9.452-7.373-9.452" /><path
   id="C"
   d="M63.175 34.078h8.133v49.598h-5.782V39.391c0-.343-.378-.573-.738-.573h-1.613v-4.74zM60.17 51.885v31.792h-3.122c-.378 0-.884.034-1.496-.712-.369-.444-.566-1.316-.566-1.316-1.303 1.593-2.607 2.145-4.383 2.145-4.541 0-6.096-2.631-6.096-7.944v-7.156c0-6.575 4.491-8.795 10.24-10.947v-5.509c0-2.765-.934-3.691-2.291-3.691-1.639 0-2.703.532-2.703 3.34v2.802c0 1.11-.424 1.692-2.291 1.668h-2.727v-3.889c0-5.313 2.555-8.296 7.609-8.296 5.346-.001 7.826 2.46 7.826 7.713zm-5.421 10.287c-3.252 1.587-4.814 2.686-4.814 7.06v5.555c0 2.674.215 4.634 2.18 4.634 1.709 0 2.636-1.047 2.636-5.741V62.172h-.002zm71.863 1.134c0 17.472-7.089 33.309-18.545 44.764s-27.28 18.545-44.755 18.536c-17.481.009-33.314-7.081-44.767-18.536S0 80.778 0 63.306c0-17.481 7.089-33.305 18.545-44.761S45.833.002 63.312.002c17.476 0 33.3 7.089 44.755 18.545s18.545 27.28 18.545 44.759zm-12.787.009c0-27.905-22.617-50.525-50.513-50.525-27.905 0-50.525 22.621-50.525 50.525a50.326 50.326 0 0 0 10.462 30.779V44.403h2.657c.784 0 1.596-.041 2.137.994a4.83 4.83 0 0 1 .39 1.047c1.311-2.154 3.302-2.288 5.087-2.288 4.61 0 6.599 3.209 6.599 9.238V75.5c0 4.985-2.421 8.413-6.599 8.413-1.529 0-3.063-.209-4.496-1.962v18.452a50.284 50.284 0 0 0 34.289 13.424c27.895.001 50.512-22.617 50.512-50.512zM31.701 79.319c1.5.017 2.712-.453 2.712-4.642V52.932c0-4.119-1.014-4.616-2.48-4.616-1.852 0-2.907 1.433-2.907 4.848v22.571c-.002 2.244 1.43 3.569 2.675 3.584zm65.256-35.148a6.041 6.041 0 0 0-5.233 3.154c-1.145-2.531-3.046-3.154-5.238-3.154-1.811 0-3.473.738-4.683 2.401 0 0-.076-1.337-.753-1.835-.474-.343-.704-.335-1.399-.335h-3.183v39.276h5.756V53.515c0-3.997 1.102-4.894 2.875-4.894 1.316 0 2.526.596 2.526 3.372v31.684h5.651V53.515c0-3.997 1.098-4.894 2.875-4.894 1.308 0 2.523.596 2.523 3.372v31.684h5.656V53.623c-.004-6.046-2.271-9.452-7.373-9.452" /><path
   id="E"
   d="M63.175 34.078h8.133v49.598h-5.782V39.391c0-.343-.378-.573-.738-.573h-1.613v-4.74zM60.17 51.885v31.792h-3.122c-.378 0-.884.034-1.496-.712-.369-.444-.566-1.316-.566-1.316-1.303 1.593-2.607 2.145-4.383 2.145-4.541 0-6.096-2.631-6.096-7.944v-7.156c0-6.575 4.491-8.795 10.24-10.947v-5.509c0-2.765-.934-3.691-2.291-3.691-1.639 0-2.703.532-2.703 3.34v2.802c0 1.11-.424 1.692-2.291 1.668h-2.727v-3.889c0-5.313 2.555-8.296 7.609-8.296 5.346-.001 7.826 2.46 7.826 7.713zm-5.421 10.287c-3.252 1.587-4.814 2.686-4.814 7.06v5.555c0 2.674.215 4.634 2.18 4.634 1.709 0 2.636-1.047 2.636-5.741V62.172h-.002zm71.863 1.134c0 17.472-7.089 33.309-18.545 44.764s-27.28 18.545-44.755 18.536c-17.481.009-33.314-7.081-44.767-18.536S0 80.778 0 63.306c0-17.481 7.089-33.305 18.545-44.761S45.833.002 63.312.002c17.476 0 33.3 7.089 44.755 18.545s18.545 27.28 18.545 44.759zm-12.787.009c0-27.905-22.617-50.525-50.513-50.525-27.905 0-50.525 22.621-50.525 50.525a50.326 50.326 0 0 0 10.462 30.779V44.403h2.657c.784 0 1.596-.041 2.137.994a4.83 4.83 0 0 1 .39 1.047c1.311-2.154 3.302-2.288 5.087-2.288 4.61 0 6.599 3.209 6.599 9.238V75.5c0 4.985-2.421 8.413-6.599 8.413-1.529 0-3.063-.209-4.496-1.962v18.452a50.284 50.284 0 0 0 34.289 13.424c27.895.001 50.512-22.617 50.512-50.512zM31.701 79.319c1.5.017 2.712-.453 2.712-4.642V52.932c0-4.119-1.014-4.616-2.48-4.616-1.852 0-2.907 1.433-2.907 4.848v22.571c-.002 2.244 1.43 3.569 2.675 3.584zm65.256-35.148a6.041 6.041 0 0 0-5.233 3.154c-1.145-2.531-3.046-3.154-5.238-3.154-1.811 0-3.473.738-4.683 2.401 0 0-.076-1.337-.753-1.835-.474-.343-.704-.335-1.399-.335h-3.183v39.276h5.756V53.515c0-3.997 1.102-4.894 2.875-4.894 1.316 0 2.526.596 2.526 3.372v31.684h5.651V53.515c0-3.997 1.098-4.894 2.875-4.894 1.308 0 2.523.596 2.523 3.372v31.684h5.656V53.623c-.004-6.046-2.271-9.452-7.373-9.452" /><path
   id="G"
   d="M63.175 34.078h8.133v49.598h-5.782V39.391c0-.343-.378-.573-.738-.573h-1.613v-4.74zM60.17 51.885v31.792h-3.122c-.378 0-.884.034-1.496-.712-.369-.444-.566-1.316-.566-1.316-1.303 1.593-2.607 2.145-4.383 2.145-4.541 0-6.096-2.631-6.096-7.944v-7.156c0-6.575 4.491-8.795 10.24-10.947v-5.509c0-2.765-.934-3.691-2.291-3.691-1.639 0-2.703.532-2.703 3.34v2.802c0 1.11-.424 1.692-2.291 1.668h-2.727v-3.889c0-5.313 2.555-8.296 7.609-8.296 5.346-.001 7.826 2.46 7.826 7.713zm-5.421 10.287c-3.252 1.587-4.814 2.686-4.814 7.06v5.555c0 2.674.215 4.634 2.18 4.634 1.709 0 2.636-1.047 2.636-5.741V62.172h-.002zm71.863 1.134c0 17.472-7.089 33.309-18.545 44.764s-27.28 18.545-44.755 18.536c-17.481.009-33.314-7.081-44.767-18.536S0 80.778 0 63.306c0-17.481 7.089-33.305 18.545-44.761S45.833.002 63.312.002c17.476 0 33.3 7.089 44.755 18.545s18.545 27.28 18.545 44.759zm-12.787.009c0-27.905-22.617-50.525-50.513-50.525-27.905 0-50.525 22.621-50.525 50.525a50.326 50.326 0 0 0 10.462 30.779V44.403h2.657c.784 0 1.596-.041 2.137.994a4.83 4.83 0 0 1 .39 1.047c1.311-2.154 3.302-2.288 5.087-2.288 4.61 0 6.599 3.209 6.599 9.238V75.5c0 4.985-2.421 8.413-6.599 8.413-1.529 0-3.063-.209-4.496-1.962v18.452a50.284 50.284 0 0 0 34.289 13.424c27.895.001 50.512-22.617 50.512-50.512zM31.701 79.319c1.5.017 2.712-.453 2.712-4.642V52.932c0-4.119-1.014-4.616-2.48-4.616-1.852 0-2.907 1.433-2.907 4.848v22.571c-.002 2.244 1.43 3.569 2.675 3.584zm65.256-35.148a6.041 6.041 0 0 0-5.233 3.154c-1.145-2.531-3.046-3.154-5.238-3.154-1.811 0-3.473.738-4.683 2.401 0 0-.076-1.337-.753-1.835-.474-.343-.704-.335-1.399-.335h-3.183v39.276h5.756V53.515c0-3.997 1.102-4.894 2.875-4.894 1.316 0 2.526.596 2.526 3.372v31.684h5.651V53.515c0-3.997 1.098-4.894 2.875-4.894 1.308 0 2.523.596 2.523 3.372v31.684h5.656V53.623c-.004-6.046-2.271-9.452-7.373-9.452" /><path
   id="I"
   d="M63.175 34.078h8.133v49.598h-5.782V39.391c0-.343-.378-.573-.738-.573h-1.613v-4.74zM60.17 51.885v31.792h-3.122c-.378 0-.884.034-1.496-.712-.369-.444-.566-1.316-.566-1.316-1.303 1.593-2.607 2.145-4.383 2.145-4.541 0-6.096-2.631-6.096-7.944v-7.156c0-6.575 4.491-8.795 10.24-10.947v-5.509c0-2.765-.934-3.691-2.291-3.691-1.639 0-2.703.532-2.703 3.34v2.802c0 1.11-.424 1.692-2.291 1.668h-2.727v-3.889c0-5.313 2.555-8.296 7.609-8.296 5.346-.001 7.826 2.46 7.826 7.713zm-5.421 10.287c-3.252 1.587-4.814 2.686-4.814 7.06v5.555c0 2.674.215 4.634 2.18 4.634 1.709 0 2.636-1.047 2.636-5.741V62.172h-.002zm71.863 1.134c0 17.472-7.089 33.309-18.545 44.764s-27.28 18.545-44.755 18.536c-17.481.009-33.314-7.081-44.767-18.536S0 80.778 0 63.306c0-17.481 7.089-33.305 18.545-44.761S45.833.002 63.312.002c17.476 0 33.3 7.089 44.755 18.545s18.545 27.28 18.545 44.759zm-12.787.009c0-27.905-22.617-50.525-50.513-50.525-27.905 0-50.525 22.621-50.525 50.525a50.326 50.326 0 0 0 10.462 30.779V44.403h2.657c.784 0 1.596-.041 2.137.994a4.83 4.83 0 0 1 .39 1.047c1.311-2.154 3.302-2.288 5.087-2.288 4.61 0 6.599 3.209 6.599 9.238V75.5c0 4.985-2.421 8.413-6.599 8.413-1.529 0-3.063-.209-4.496-1.962v18.452a50.284 50.284 0 0 0 34.289 13.424c27.895.001 50.512-22.617 50.512-50.512zM31.701 79.319c1.5.017 2.712-.453 2.712-4.642V52.932c0-4.119-1.014-4.616-2.48-4.616-1.852 0-2.907 1.433-2.907 4.848v22.571c-.002 2.244 1.43 3.569 2.675 3.584zm65.256-35.148a6.041 6.041 0 0 0-5.233 3.154c-1.145-2.531-3.046-3.154-5.238-3.154-1.811 0-3.473.738-4.683 2.401 0 0-.076-1.337-.753-1.835-.474-.343-.704-.335-1.399-.335h-3.183v39.276h5.756V53.515c0-3.997 1.102-4.894 2.875-4.894 1.316 0 2.526.596 2.526 3.372v31.684h5.651V53.515c0-3.997 1.098-4.894 2.875-4.894 1.308 0 2.523.596 2.523 3.372v31.684h5.656V53.623c-.004-6.046-2.271-9.452-7.373-9.452" /><path
   id="K"
   d="M63.175 34.078h8.133v49.598h-5.782V39.391c0-.343-.378-.573-.738-.573h-1.613v-4.74zM60.17 51.885v31.792h-3.122c-.378 0-.884.034-1.496-.712-.369-.444-.566-1.316-.566-1.316-1.303 1.593-2.607 2.145-4.383 2.145-4.541 0-6.096-2.631-6.096-7.944v-7.156c0-6.575 4.491-8.795 10.24-10.947v-5.509c0-2.765-.934-3.691-2.291-3.691-1.639 0-2.703.532-2.703 3.34v2.802c0 1.11-.424 1.692-2.291 1.668h-2.727v-3.889c0-5.313 2.555-8.296 7.609-8.296 5.346-.001 7.826 2.46 7.826 7.713zm-5.421 10.287c-3.252 1.587-4.814 2.686-4.814 7.06v5.555c0 2.674.215 4.634 2.18 4.634 1.709 0 2.636-1.047 2.636-5.741V62.172h-.002zm71.863 1.134c0 17.472-7.089 33.309-18.545 44.764s-27.28 18.545-44.755 18.536c-17.481.009-33.314-7.081-44.767-18.536S0 80.778 0 63.306c0-17.481 7.089-33.305 18.545-44.761S45.833.002 63.312.002c17.476 0 33.3 7.089 44.755 18.545s18.545 27.28 18.545 44.759zm-12.787.009c0-27.905-22.617-50.525-50.513-50.525-27.905 0-50.525 22.621-50.525 50.525a50.326 50.326 0 0 0 10.462 30.779V44.403h2.657c.784 0 1.596-.041 2.137.994a4.83 4.83 0 0 1 .39 1.047c1.311-2.154 3.302-2.288 5.087-2.288 4.61 0 6.599 3.209 6.599 9.238V75.5c0 4.985-2.421 8.413-6.599 8.413-1.529 0-3.063-.209-4.496-1.962v18.452a50.284 50.284 0 0 0 34.289 13.424c27.895.001 50.512-22.617 50.512-50.512zM31.701 79.319c1.5.017 2.712-.453 2.712-4.642V52.932c0-4.119-1.014-4.616-2.48-4.616-1.852 0-2.907 1.433-2.907 4.848v22.571c-.002 2.244 1.43 3.569 2.675 3.584zm65.256-35.148a6.041 6.041 0 0 0-5.233 3.154c-1.145-2.531-3.046-3.154-5.238-3.154-1.811 0-3.473.738-4.683 2.401 0 0-.076-1.337-.753-1.835-.474-.343-.704-.335-1.399-.335h-3.183v39.276h5.756V53.515c0-3.997 1.102-4.894 2.875-4.894 1.316 0 2.526.596 2.526 3.372v31.684h5.651V53.515c0-3.997 1.098-4.894 2.875-4.894 1.308 0 2.523.596 2.523 3.372v31.684h5.656V53.623c-.004-6.046-2.271-9.452-7.373-9.452" /><path
   id="M"
   d="M63.175 34.078h8.133v49.598h-5.782V39.391c0-.343-.378-.573-.738-.573h-1.613v-4.74zM60.17 51.885v31.792h-3.122c-.378 0-.884.034-1.496-.712-.369-.444-.566-1.316-.566-1.316-1.303 1.593-2.607 2.145-4.383 2.145-4.541 0-6.096-2.631-6.096-7.944v-7.156c0-6.575 4.491-8.795 10.24-10.947v-5.509c0-2.765-.934-3.691-2.291-3.691-1.639 0-2.703.532-2.703 3.34v2.802c0 1.11-.424 1.692-2.291 1.668h-2.727v-3.889c0-5.313 2.555-8.296 7.609-8.296 5.346-.001 7.826 2.46 7.826 7.713zm-5.421 10.287c-3.252 1.587-4.814 2.686-4.814 7.06v5.555c0 2.674.215 4.634 2.18 4.634 1.709 0 2.636-1.047 2.636-5.741V62.172h-.002zm71.863 1.134c0 17.472-7.089 33.309-18.545 44.764s-27.28 18.545-44.755 18.536c-17.481.009-33.314-7.081-44.767-18.536S0 80.778 0 63.306c0-17.481 7.089-33.305 18.545-44.761S45.833.002 63.312.002c17.476 0 33.3 7.089 44.755 18.545s18.545 27.28 18.545 44.759zm-12.787.009c0-27.905-22.617-50.525-50.513-50.525-27.905 0-50.525 22.621-50.525 50.525a50.326 50.326 0 0 0 10.462 30.779V44.403h2.657c.784 0 1.596-.041 2.137.994a4.83 4.83 0 0 1 .39 1.047c1.311-2.154 3.302-2.288 5.087-2.288 4.61 0 6.599 3.209 6.599 9.238V75.5c0 4.985-2.421 8.413-6.599 8.413-1.529 0-3.063-.209-4.496-1.962v18.452a50.284 50.284 0 0 0 34.289 13.424c27.895.001 50.512-22.617 50.512-50.512zM31.701 79.319c1.5.017 2.712-.453 2.712-4.642V52.932c0-4.119-1.014-4.616-2.48-4.616-1.852 0-2.907 1.433-2.907 4.848v22.571c-.002 2.244 1.43 3.569 2.675 3.584zm65.256-35.148a6.041 6.041 0 0 0-5.233 3.154c-1.145-2.531-3.046-3.154-5.238-3.154-1.811 0-3.473.738-4.683 2.401 0 0-.076-1.337-.753-1.835-.474-.343-.704-.335-1.399-.335h-3.183v39.276h5.756V53.515c0-3.997 1.102-4.894 2.875-4.894 1.316 0 2.526.596 2.526 3.372v31.684h5.651V53.515c0-3.997 1.098-4.894 2.875-4.894 1.308 0 2.523.596 2.523 3.372v31.684h5.656V53.623c-.004-6.046-2.271-9.452-7.373-9.452" /><path
   id="O"
   d="M63.175 34.078h8.133v49.598h-5.782V39.391c0-.343-.378-.573-.738-.573h-1.613v-4.74zM60.17 51.885v31.792h-3.122c-.378 0-.884.034-1.496-.712-.369-.444-.566-1.316-.566-1.316-1.303 1.593-2.607 2.145-4.383 2.145-4.541 0-6.096-2.631-6.096-7.944v-7.156c0-6.575 4.491-8.795 10.24-10.947v-5.509c0-2.765-.934-3.691-2.291-3.691-1.639 0-2.703.532-2.703 3.34v2.802c0 1.11-.424 1.692-2.291 1.668h-2.727v-3.889c0-5.313 2.555-8.296 7.609-8.296 5.346-.001 7.826 2.46 7.826 7.713zm-5.421 10.287c-3.252 1.587-4.814 2.686-4.814 7.06v5.555c0 2.674.215 4.634 2.18 4.634 1.709 0 2.636-1.047 2.636-5.741V62.172h-.002zm71.863 1.134c0 17.472-7.089 33.309-18.545 44.764s-27.28 18.545-44.755 18.536c-17.481.009-33.314-7.081-44.767-18.536S0 80.778 0 63.306c0-17.481 7.089-33.305 18.545-44.761S45.833.002 63.312.002c17.476 0 33.3 7.089 44.755 18.545s18.545 27.28 18.545 44.759zm-12.787.009c0-27.905-22.617-50.525-50.513-50.525-27.905 0-50.525 22.621-50.525 50.525a50.326 50.326 0 0 0 10.462 30.779V44.403h2.657c.784 0 1.596-.041 2.137.994a4.83 4.83 0 0 1 .39 1.047c1.311-2.154 3.302-2.288 5.087-2.288 4.61 0 6.599 3.209 6.599 9.238V75.5c0 4.985-2.421 8.413-6.599 8.413-1.529 0-3.063-.209-4.496-1.962v18.452a50.284 50.284 0 0 0 34.289 13.424c27.895.001 50.512-22.617 50.512-50.512zM31.701 79.319c1.5.017 2.712-.453 2.712-4.642V52.932c0-4.119-1.014-4.616-2.48-4.616-1.852 0-2.907 1.433-2.907 4.848v22.571c-.002 2.244 1.43 3.569 2.675 3.584zm65.256-35.148a6.041 6.041 0 0 0-5.233 3.154c-1.145-2.531-3.046-3.154-5.238-3.154-1.811 0-3.473.738-4.683 2.401 0 0-.076-1.337-.753-1.835-.474-.343-.704-.335-1.399-.335h-3.183v39.276h5.756V53.515c0-3.997 1.102-4.894 2.875-4.894 1.316 0 2.526.596 2.526 3.372v31.684h5.651V53.515c0-3.997 1.098-4.894 2.875-4.894 1.308 0 2.523.596 2.523 3.372v31.684h5.656V53.623c-.004-6.046-2.271-9.452-7.373-9.452" /><path
   id="Q"
   d="M63.175 34.078h8.133v49.598h-5.782V39.391c0-.343-.378-.573-.738-.573h-1.613v-4.74zM60.17 51.885v31.792h-3.122c-.378 0-.884.034-1.496-.712-.369-.444-.566-1.316-.566-1.316-1.303 1.593-2.607 2.145-4.383 2.145-4.541 0-6.096-2.631-6.096-7.944v-7.156c0-6.575 4.491-8.795 10.24-10.947v-5.509c0-2.765-.934-3.691-2.291-3.691-1.639 0-2.703.532-2.703 3.34v2.802c0 1.11-.424 1.692-2.291 1.668h-2.727v-3.889c0-5.313 2.555-8.296 7.609-8.296 5.346-.001 7.826 2.46 7.826 7.713zm-5.421 10.287c-3.252 1.587-4.814 2.686-4.814 7.06v5.555c0 2.674.215 4.634 2.18 4.634 1.709 0 2.636-1.047 2.636-5.741V62.172h-.002zm71.863 1.134c0 17.472-7.089 33.309-18.545 44.764s-27.28 18.545-44.755 18.536c-17.481.009-33.314-7.081-44.767-18.536S0 80.778 0 63.306c0-17.481 7.089-33.305 18.545-44.761S45.833.002 63.312.002c17.476 0 33.3 7.089 44.755 18.545s18.545 27.28 18.545 44.759zm-12.787.009c0-27.905-22.617-50.525-50.513-50.525-27.905 0-50.525 22.621-50.525 50.525a50.326 50.326 0 0 0 10.462 30.779V44.403h2.657c.784 0 1.596-.041 2.137.994a4.83 4.83 0 0 1 .39 1.047c1.311-2.154 3.302-2.288 5.087-2.288 4.61 0 6.599 3.209 6.599 9.238V75.5c0 4.985-2.421 8.413-6.599 8.413-1.529 0-3.063-.209-4.496-1.962v18.452a50.284 50.284 0 0 0 34.289 13.424c27.895.001 50.512-22.617 50.512-50.512zM31.701 79.319c1.5.017 2.712-.453 2.712-4.642V52.932c0-4.119-1.014-4.616-2.48-4.616-1.852 0-2.907 1.433-2.907 4.848v22.571c-.002 2.244 1.43 3.569 2.675 3.584zm65.256-35.148a6.041 6.041 0 0 0-5.233 3.154c-1.145-2.531-3.046-3.154-5.238-3.154-1.811 0-3.473.738-4.683 2.401 0 0-.076-1.337-.753-1.835-.474-.343-.704-.335-1.399-.335h-3.183v39.276h5.756V53.515c0-3.997 1.102-4.894 2.875-4.894 1.316 0 2.526.596 2.526 3.372v31.684h5.651V53.515c0-3.997 1.098-4.894 2.875-4.894 1.308 0 2.523.596 2.523 3.372v31.684h5.656V53.623c-.004-6.046-2.271-9.452-7.373-9.452" /><path
   id="S"
   d="M63.175 34.078h8.133v49.598h-5.782V39.391c0-.343-.378-.573-.738-.573h-1.613v-4.74zM60.17 51.885v31.792h-3.122c-.378 0-.884.034-1.496-.712-.369-.444-.566-1.316-.566-1.316-1.303 1.593-2.607 2.145-4.383 2.145-4.541 0-6.096-2.631-6.096-7.944v-7.156c0-6.575 4.491-8.795 10.24-10.947v-5.509c0-2.765-.934-3.691-2.291-3.691-1.639 0-2.703.532-2.703 3.34v2.802c0 1.11-.424 1.692-2.291 1.668h-2.727v-3.889c0-5.313 2.555-8.296 7.609-8.296 5.346-.001 7.826 2.46 7.826 7.713zm-5.421 10.287c-3.252 1.587-4.814 2.686-4.814 7.06v5.555c0 2.674.215 4.634 2.18 4.634 1.709 0 2.636-1.047 2.636-5.741V62.172h-.002zm71.863 1.134c0 17.472-7.089 33.309-18.545 44.764s-27.28 18.545-44.755 18.536c-17.481.009-33.314-7.081-44.767-18.536S0 80.778 0 63.306c0-17.481 7.089-33.305 18.545-44.761S45.833.002 63.312.002c17.476 0 33.3 7.089 44.755 18.545s18.545 27.28 18.545 44.759zm-12.787.009c0-27.905-22.617-50.525-50.513-50.525-27.905 0-50.525 22.621-50.525 50.525a50.326 50.326 0 0 0 10.462 30.779V44.403h2.657c.784 0 1.596-.041 2.137.994a4.83 4.83 0 0 1 .39 1.047c1.311-2.154 3.302-2.288 5.087-2.288 4.61 0 6.599 3.209 6.599 9.238V75.5c0 4.985-2.421 8.413-6.599 8.413-1.529 0-3.063-.209-4.496-1.962v18.452a50.284 50.284 0 0 0 34.289 13.424c27.895.001 50.512-22.617 50.512-50.512zM31.701 79.319c1.5.017 2.712-.453 2.712-4.642V52.932c0-4.119-1.014-4.616-2.48-4.616-1.852 0-2.907 1.433-2.907 4.848v22.571c-.002 2.244 1.43 3.569 2.675 3.584zm65.256-35.148a6.041 6.041 0 0 0-5.233 3.154c-1.145-2.531-3.046-3.154-5.238-3.154-1.811 0-3.473.738-4.683 2.401 0 0-.076-1.337-.753-1.835-.474-.343-.704-.335-1.399-.335h-3.183v39.276h5.756V53.515c0-3.997 1.102-4.894 2.875-4.894 1.316 0 2.526.596 2.526 3.372v31.684h5.651V53.515c0-3.997 1.098-4.894 2.875-4.894 1.308 0 2.523.596 2.523 3.372v31.684h5.656V53.623c-.004-6.046-2.271-9.452-7.373-9.452" /><path
   id="U"
   d="M63.175 34.078h8.133v49.598h-5.782V39.391c0-.343-.378-.573-.738-.573h-1.613v-4.74zM60.17 51.885v31.792h-3.122c-.378 0-.884.034-1.496-.712-.369-.444-.566-1.316-.566-1.316-1.303 1.593-2.607 2.145-4.383 2.145-4.541 0-6.096-2.631-6.096-7.944v-7.156c0-6.575 4.491-8.795 10.24-10.947v-5.509c0-2.765-.934-3.691-2.291-3.691-1.639 0-2.703.532-2.703 3.34v2.802c0 1.11-.424 1.692-2.291 1.668h-2.727v-3.889c0-5.313 2.555-8.296 7.609-8.296 5.346-.001 7.826 2.46 7.826 7.713zm-5.421 10.287c-3.252 1.587-4.814 2.686-4.814 7.06v5.555c0 2.674.215 4.634 2.18 4.634 1.709 0 2.636-1.047 2.636-5.741V62.172h-.002zm71.863 1.134c0 17.472-7.089 33.309-18.545 44.764s-27.28 18.545-44.755 18.536c-17.481.009-33.314-7.081-44.767-18.536S0 80.778 0 63.306c0-17.481 7.089-33.305 18.545-44.761S45.833.002 63.312.002c17.476 0 33.3 7.089 44.755 18.545s18.545 27.28 18.545 44.759zm-12.787.009c0-27.905-22.617-50.525-50.513-50.525-27.905 0-50.525 22.621-50.525 50.525a50.326 50.326 0 0 0 10.462 30.779V44.403h2.657c.784 0 1.596-.041 2.137.994a4.83 4.83 0 0 1 .39 1.047c1.311-2.154 3.302-2.288 5.087-2.288 4.61 0 6.599 3.209 6.599 9.238V75.5c0 4.985-2.421 8.413-6.599 8.413-1.529 0-3.063-.209-4.496-1.962v18.452a50.284 50.284 0 0 0 34.289 13.424c27.895.001 50.512-22.617 50.512-50.512zM31.701 79.319c1.5.017 2.712-.453 2.712-4.642V52.932c0-4.119-1.014-4.616-2.48-4.616-1.852 0-2.907 1.433-2.907 4.848v22.571c-.002 2.244 1.43 3.569 2.675 3.584zm65.256-35.148a6.041 6.041 0 0 0-5.233 3.154c-1.145-2.531-3.046-3.154-5.238-3.154-1.811 0-3.473.738-4.683 2.401 0 0-.076-1.337-.753-1.835-.474-.343-.704-.335-1.399-.335h-3.183v39.276h5.756V53.515c0-3.997 1.102-4.894 2.875-4.894 1.316 0 2.526.596 2.526 3.372v31.684h5.651V53.515c0-3.997 1.098-4.894 2.875-4.894 1.308 0 2.523.596 2.523 3.372v31.684h5.656V53.623c-.004-6.046-2.271-9.452-7.373-9.452" /><path
   id="W"
   d="M63.175 34.078h8.133v49.598h-5.782V39.391c0-.343-.378-.573-.738-.573h-1.613v-4.74zM60.17 51.885v31.792h-3.122c-.378 0-.884.034-1.496-.712-.369-.444-.566-1.316-.566-1.316-1.303 1.593-2.607 2.145-4.383 2.145-4.541 0-6.096-2.631-6.096-7.944v-7.156c0-6.575 4.491-8.795 10.24-10.947v-5.509c0-2.765-.934-3.691-2.291-3.691-1.639 0-2.703.532-2.703 3.34v2.802c0 1.11-.424 1.692-2.291 1.668h-2.727v-3.889c0-5.313 2.555-8.296 7.609-8.296 5.346-.001 7.826 2.46 7.826 7.713zm-5.421 10.287c-3.252 1.587-4.814 2.686-4.814 7.06v5.555c0 2.674.215 4.634 2.18 4.634 1.709 0 2.636-1.047 2.636-5.741V62.172h-.002zm71.863 1.134c0 17.472-7.089 33.309-18.545 44.764s-27.28 18.545-44.755 18.536c-17.481.009-33.314-7.081-44.767-18.536S0 80.778 0 63.306c0-17.481 7.089-33.305 18.545-44.761S45.833.002 63.312.002c17.476 0 33.3 7.089 44.755 18.545s18.545 27.28 18.545 44.759zm-12.787.009c0-27.905-22.617-50.525-50.513-50.525-27.905 0-50.525 22.621-50.525 50.525a50.326 50.326 0 0 0 10.462 30.779V44.403h2.657c.784 0 1.596-.041 2.137.994a4.83 4.83 0 0 1 .39 1.047c1.311-2.154 3.302-2.288 5.087-2.288 4.61 0 6.599 3.209 6.599 9.238V75.5c0 4.985-2.421 8.413-6.599 8.413-1.529 0-3.063-.209-4.496-1.962v18.452a50.284 50.284 0 0 0 34.289 13.424c27.895.001 50.512-22.617 50.512-50.512zM31.701 79.319c1.5.017 2.712-.453 2.712-4.642V52.932c0-4.119-1.014-4.616-2.48-4.616-1.852 0-2.907 1.433-2.907 4.848v22.571c-.002 2.244 1.43 3.569 2.675 3.584zm65.256-35.148a6.041 6.041 0 0 0-5.233 3.154c-1.145-2.531-3.046-3.154-5.238-3.154-1.811 0-3.473.738-4.683 2.401 0 0-.076-1.337-.753-1.835-.474-.343-.704-.335-1.399-.335h-3.183v39.276h5.756V53.515c0-3.997 1.102-4.894 2.875-4.894 1.316 0 2.526.596 2.526 3.372v31.684h5.651V53.515c0-3.997 1.098-4.894 2.875-4.894 1.308 0 2.523.596 2.523 3.372v31.684h5.656V53.623c-.004-6.046-2.271-9.452-7.373-9.452" /><path
   id="Y"
   d="M63.175 34.078h8.133v49.598h-5.782V39.391c0-.343-.378-.573-.738-.573h-1.613v-4.74zM60.17 51.885v31.792h-3.122c-.378 0-.884.034-1.496-.712-.369-.444-.566-1.316-.566-1.316-1.303 1.593-2.607 2.145-4.383 2.145-4.541 0-6.096-2.631-6.096-7.944v-7.156c0-6.575 4.491-8.795 10.24-10.947v-5.509c0-2.765-.934-3.691-2.291-3.691-1.639 0-2.703.532-2.703 3.34v2.802c0 1.11-.424 1.692-2.291 1.668h-2.727v-3.889c0-5.313 2.555-8.296 7.609-8.296 5.346-.001 7.826 2.46 7.826 7.713zm-5.421 10.287c-3.252 1.587-4.814 2.686-4.814 7.06v5.555c0 2.674.215 4.634 2.18 4.634 1.709 0 2.636-1.047 2.636-5.741V62.172h-.002zm71.863 1.134c0 17.472-7.089 33.309-18.545 44.764s-27.28 18.545-44.755 18.536c-17.481.009-33.314-7.081-44.767-18.536S0 80.778 0 63.306c0-17.481 7.089-33.305 18.545-44.761S45.833.002 63.312.002c17.476 0 33.3 7.089 44.755 18.545s18.545 27.28 18.545 44.759zm-12.787.009c0-27.905-22.617-50.525-50.513-50.525-27.905 0-50.525 22.621-50.525 50.525a50.326 50.326 0 0 0 10.462 30.779V44.403h2.657c.784 0 1.596-.041 2.137.994a4.83 4.83 0 0 1 .39 1.047c1.311-2.154 3.302-2.288 5.087-2.288 4.61 0 6.599 3.209 6.599 9.238V75.5c0 4.985-2.421 8.413-6.599 8.413-1.529 0-3.063-.209-4.496-1.962v18.452a50.284 50.284 0 0 0 34.289 13.424c27.895.001 50.512-22.617 50.512-50.512zM31.701 79.319c1.5.017 2.712-.453 2.712-4.642V52.932c0-4.119-1.014-4.616-2.48-4.616-1.852 0-2.907 1.433-2.907 4.848v22.571c-.002 2.244 1.43 3.569 2.675 3.584zm65.256-35.148a6.041 6.041 0 0 0-5.233 3.154c-1.145-2.531-3.046-3.154-5.238-3.154-1.811 0-3.473.738-4.683 2.401 0 0-.076-1.337-.753-1.835-.474-.343-.704-.335-1.399-.335h-3.183v39.276h5.756V53.515c0-3.997 1.102-4.894 2.875-4.894 1.316 0 2.526.596 2.526 3.372v31.684h5.651V53.515c0-3.997 1.098-4.894 2.875-4.894 1.308 0 2.523.596 2.523 3.372v31.684h5.656V53.623c-.004-6.046-2.271-9.452-7.373-9.452" /><path
   id="aa"
   d="M63.175 34.078h8.133v49.598h-5.782V39.391c0-.343-.378-.573-.738-.573h-1.613v-4.74zM60.17 51.885v31.792h-3.122c-.378 0-.884.034-1.496-.712-.369-.444-.566-1.316-.566-1.316-1.303 1.593-2.607 2.145-4.383 2.145-4.541 0-6.096-2.631-6.096-7.944v-7.156c0-6.575 4.491-8.795 10.24-10.947v-5.509c0-2.765-.934-3.691-2.291-3.691-1.639 0-2.703.532-2.703 3.34v2.802c0 1.11-.424 1.692-2.291 1.668h-2.727v-3.889c0-5.313 2.555-8.296 7.609-8.296 5.346-.001 7.826 2.46 7.826 7.713zm-5.421 10.287c-3.252 1.587-4.814 2.686-4.814 7.06v5.555c0 2.674.215 4.634 2.18 4.634 1.709 0 2.636-1.047 2.636-5.741V62.172h-.002zm71.863 1.134c0 17.472-7.089 33.309-18.545 44.764s-27.28 18.545-44.755 18.536c-17.481.009-33.314-7.081-44.767-18.536S0 80.778 0 63.306c0-17.481 7.089-33.305 18.545-44.761S45.833.002 63.312.002c17.476 0 33.3 7.089 44.755 18.545s18.545 27.28 18.545 44.759zm-12.787.009c0-27.905-22.617-50.525-50.513-50.525-27.905 0-50.525 22.621-50.525 50.525a50.326 50.326 0 0 0 10.462 30.779V44.403h2.657c.784 0 1.596-.041 2.137.994a4.83 4.83 0 0 1 .39 1.047c1.311-2.154 3.302-2.288 5.087-2.288 4.61 0 6.599 3.209 6.599 9.238V75.5c0 4.985-2.421 8.413-6.599 8.413-1.529 0-3.063-.209-4.496-1.962v18.452a50.284 50.284 0 0 0 34.289 13.424c27.895.001 50.512-22.617 50.512-50.512zM31.701 79.319c1.5.017 2.712-.453 2.712-4.642V52.932c0-4.119-1.014-4.616-2.48-4.616-1.852 0-2.907 1.433-2.907 4.848v22.571c-.002 2.244 1.43 3.569 2.675 3.584zm65.256-35.148a6.041 6.041 0 0 0-5.233 3.154c-1.145-2.531-3.046-3.154-5.238-3.154-1.811 0-3.473.738-4.683 2.401 0 0-.076-1.337-.753-1.835-.474-.343-.704-.335-1.399-.335h-3.183v39.276h5.756V53.515c0-3.997 1.102-4.894 2.875-4.894 1.316 0 2.526.596 2.526 3.372v31.684h5.651V53.515c0-3.997 1.098-4.894 2.875-4.894 1.308 0 2.523.596 2.523 3.372v31.684h5.656V53.623c-.004-6.046-2.271-9.452-7.373-9.452" /><path
   id="ac"
   d="M63.175 34.078h8.133v49.598h-5.782V39.391c0-.343-.378-.573-.738-.573h-1.613v-4.74zM60.17 51.885v31.792h-3.122c-.378 0-.884.034-1.496-.712-.369-.444-.566-1.316-.566-1.316-1.303 1.593-2.607 2.145-4.383 2.145-4.541 0-6.096-2.631-6.096-7.944v-7.156c0-6.575 4.491-8.795 10.24-10.947v-5.509c0-2.765-.934-3.691-2.291-3.691-1.639 0-2.703.532-2.703 3.34v2.802c0 1.11-.424 1.692-2.291 1.668h-2.727v-3.889c0-5.313 2.555-8.296 7.609-8.296 5.346-.001 7.826 2.46 7.826 7.713zm-5.421 10.287c-3.252 1.587-4.814 2.686-4.814 7.06v5.555c0 2.674.215 4.634 2.18 4.634 1.709 0 2.636-1.047 2.636-5.741V62.172h-.002zm71.863 1.134c0 17.472-7.089 33.309-18.545 44.764s-27.28 18.545-44.755 18.536c-17.481.009-33.314-7.081-44.767-18.536S0 80.778 0 63.306c0-17.481 7.089-33.305 18.545-44.761S45.833.002 63.312.002c17.476 0 33.3 7.089 44.755 18.545s18.545 27.28 18.545 44.759zm-12.787.009c0-27.905-22.617-50.525-50.513-50.525-27.905 0-50.525 22.621-50.525 50.525a50.326 50.326 0 0 0 10.462 30.779V44.403h2.657c.784 0 1.596-.041 2.137.994a4.83 4.83 0 0 1 .39 1.047c1.311-2.154 3.302-2.288 5.087-2.288 4.61 0 6.599 3.209 6.599 9.238V75.5c0 4.985-2.421 8.413-6.599 8.413-1.529 0-3.063-.209-4.496-1.962v18.452a50.284 50.284 0 0 0 34.289 13.424c27.895.001 50.512-22.617 50.512-50.512zM31.701 79.319c1.5.017 2.712-.453 2.712-4.642V52.932c0-4.119-1.014-4.616-2.48-4.616-1.852 0-2.907 1.433-2.907 4.848v22.571c-.002 2.244 1.43 3.569 2.675 3.584zm65.256-35.148a6.041 6.041 0 0 0-5.233 3.154c-1.145-2.531-3.046-3.154-5.238-3.154-1.811 0-3.473.738-4.683 2.401 0 0-.076-1.337-.753-1.835-.474-.343-.704-.335-1.399-.335h-3.183v39.276h5.756V53.515c0-3.997 1.102-4.894 2.875-4.894 1.316 0 2.526.596 2.526 3.372v31.684h5.651V53.515c0-3.997 1.098-4.894 2.875-4.894 1.308 0 2.523.596 2.523 3.372v31.684h5.656V53.623c-.004-6.046-2.271-9.452-7.373-9.452" /><path
   id="ae"
   d="M63.175 34.078h8.133v49.598h-5.782V39.391c0-.343-.378-.573-.738-.573h-1.613v-4.74zM60.17 51.885v31.792h-3.122c-.378 0-.884.034-1.496-.712-.369-.444-.566-1.316-.566-1.316-1.303 1.593-2.607 2.145-4.383 2.145-4.541 0-6.096-2.631-6.096-7.944v-7.156c0-6.575 4.491-8.795 10.24-10.947v-5.509c0-2.765-.934-3.691-2.291-3.691-1.639 0-2.703.532-2.703 3.34v2.802c0 1.11-.424 1.692-2.291 1.668h-2.727v-3.889c0-5.313 2.555-8.296 7.609-8.296 5.346-.001 7.826 2.46 7.826 7.713zm-5.421 10.287c-3.252 1.587-4.814 2.686-4.814 7.06v5.555c0 2.674.215 4.634 2.18 4.634 1.709 0 2.636-1.047 2.636-5.741V62.172h-.002zm71.863 1.134c0 17.472-7.089 33.309-18.545 44.764s-27.28 18.545-44.755 18.536c-17.481.009-33.314-7.081-44.767-18.536S0 80.778 0 63.306c0-17.481 7.089-33.305 18.545-44.761S45.833.002 63.312.002c17.476 0 33.3 7.089 44.755 18.545s18.545 27.28 18.545 44.759zm-12.787.009c0-27.905-22.617-50.525-50.513-50.525-27.905 0-50.525 22.621-50.525 50.525a50.326 50.326 0 0 0 10.462 30.779V44.403h2.657c.784 0 1.596-.041 2.137.994a4.83 4.83 0 0 1 .39 1.047c1.311-2.154 3.302-2.288 5.087-2.288 4.61 0 6.599 3.209 6.599 9.238V75.5c0 4.985-2.421 8.413-6.599 8.413-1.529 0-3.063-.209-4.496-1.962v18.452a50.284 50.284 0 0 0 34.289 13.424c27.895.001 50.512-22.617 50.512-50.512zM31.701 79.319c1.5.017 2.712-.453 2.712-4.642V52.932c0-4.119-1.014-4.616-2.48-4.616-1.852 0-2.907 1.433-2.907 4.848v22.571c-.002 2.244 1.43 3.569 2.675 3.584zm65.256-35.148a6.041 6.041 0 0 0-5.233 3.154c-1.145-2.531-3.046-3.154-5.238-3.154-1.811 0-3.473.738-4.683 2.401 0 0-.076-1.337-.753-1.835-.474-.343-.704-.335-1.399-.335h-3.183v39.276h5.756V53.515c0-3.997 1.102-4.894 2.875-4.894 1.316 0 2.526.596 2.526 3.372v31.684h5.651V53.515c0-3.997 1.098-4.894 2.875-4.894 1.308 0 2.523.596 2.523 3.372v31.684h5.656V53.623c-.004-6.046-2.271-9.452-7.373-9.452" /><path
   id="ag"
   d="M63.175 34.078h8.133v49.598h-5.782V39.391c0-.343-.378-.573-.738-.573h-1.613v-4.74zM60.17 51.885v31.792h-3.122c-.378 0-.884.034-1.496-.712-.369-.444-.566-1.316-.566-1.316-1.303 1.593-2.607 2.145-4.383 2.145-4.541 0-6.096-2.631-6.096-7.944v-7.156c0-6.575 4.491-8.795 10.24-10.947v-5.509c0-2.765-.934-3.691-2.291-3.691-1.639 0-2.703.532-2.703 3.34v2.802c0 1.11-.424 1.692-2.291 1.668h-2.727v-3.889c0-5.313 2.555-8.296 7.609-8.296 5.346-.001 7.826 2.46 7.826 7.713zm-5.421 10.287c-3.252 1.587-4.814 2.686-4.814 7.06v5.555c0 2.674.215 4.634 2.18 4.634 1.709 0 2.636-1.047 2.636-5.741V62.172h-.002zm71.863 1.134c0 17.472-7.089 33.309-18.545 44.764s-27.28 18.545-44.755 18.536c-17.481.009-33.314-7.081-44.767-18.536S0 80.778 0 63.306c0-17.481 7.089-33.305 18.545-44.761S45.833.002 63.312.002c17.476 0 33.3 7.089 44.755 18.545s18.545 27.28 18.545 44.759zm-12.787.009c0-27.905-22.617-50.525-50.513-50.525-27.905 0-50.525 22.621-50.525 50.525a50.326 50.326 0 0 0 10.462 30.779V44.403h2.657c.784 0 1.596-.041 2.137.994a4.83 4.83 0 0 1 .39 1.047c1.311-2.154 3.302-2.288 5.087-2.288 4.61 0 6.599 3.209 6.599 9.238V75.5c0 4.985-2.421 8.413-6.599 8.413-1.529 0-3.063-.209-4.496-1.962v18.452a50.284 50.284 0 0 0 34.289 13.424c27.895.001 50.512-22.617 50.512-50.512zM31.701 79.319c1.5.017 2.712-.453 2.712-4.642V52.932c0-4.119-1.014-4.616-2.48-4.616-1.852 0-2.907 1.433-2.907 4.848v22.571c-.002 2.244 1.43 3.569 2.675 3.584zm65.256-35.148a6.041 6.041 0 0 0-5.233 3.154c-1.145-2.531-3.046-3.154-5.238-3.154-1.811 0-3.473.738-4.683 2.401 0 0-.076-1.337-.753-1.835-.474-.343-.704-.335-1.399-.335h-3.183v39.276h5.756V53.515c0-3.997 1.102-4.894 2.875-4.894 1.316 0 2.526.596 2.526 3.372v31.684h5.651V53.515c0-3.997 1.098-4.894 2.875-4.894 1.308 0 2.523.596 2.523 3.372v31.684h5.656V53.623c-.004-6.046-2.271-9.452-7.373-9.452" /><linearGradient
   id="linearGradient34773"
   gradientUnits="userSpaceOnUse"
   x1="15.196"
   y1="312.37051"
   x2="3854.196"
   y2="312.37051"
   gradientTransform="translate(1160.9631,-2.2896484e-5)">
				<stop
   offset="0"
   style="stop-color:#f3dd42;stop-opacity:1"
   id="stop34769" />
				<stop
   offset="1"
   style="stop-color:#d7861b;stop-opacity:1"
   id="stop34771" />
			</linearGradient><linearGradient
   id="SVGID_1_"
   gradientUnits="userSpaceOnUse"
   x1="15.196"
   y1="312.37051"
   x2="3854.196"
   y2="312.37051"
   gradientTransform="translate(1160.9631,-2.2896484e-5)">
				<stop
   offset="0"
   style="stop-color:#FF2422"
   id="stop4" />
				<stop
   offset="1"
   style="stop-color:#C24FFF"
   id="stop6" />
			</linearGradient><linearGradient
   xlink:href="#linearGradient34773"
   id="linearGradient6574"
   gradientUnits="userSpaceOnUse"
   gradientTransform="translate(1160.9631,-7.145e-5)"
   x1="15.196"
   y1="312.37051"
   x2="3588.2239"
   y2="316.50259" />
		
		
		
		
		
		
	
			
				<linearGradient
   id="SVGID_00000145054330599880703690000004533480753458681732_"
   gradientUnits="userSpaceOnUse"
   x1="2220.6216"
   y1="604.23328"
   x2="2220.6216"
   y2="16.339899">
				<stop
   offset="0"
   style="stop-color:#FF0000"
   id="stop78" />
				<stop
   offset="0.2634"
   style="stop-color:#E42372"
   id="stop80" />
				<stop
   offset="0.3192"
   style="stop-color:#FFA1FF"
   id="stop82" />
				<stop
   offset="0.4267"
   style="stop-color:#DA2F9A"
   id="stop84" />
				<stop
   offset="0.7554"
   style="stop-color:#CC41D4"
   id="stop86" />
				<stop
   offset="0.7881"
   style="stop-color:#FFA1FF"
   id="stop88" />
				<stop
   offset="0.8413"
   style="stop-color:#C846E3"
   id="stop90" />
				<stop
   offset="1"
   style="stop-color:#C24FFF"
   id="stop92" />
			</linearGradient>
			
		
			
				<linearGradient
   id="SVGID_00000135673619673579814740000002913345356260872074_"
   gradientUnits="userSpaceOnUse"
   x1="1037.5408"
   y1="604.23328"
   x2="1037.5408"
   y2="20.5096">
				<stop
   offset="0"
   style="stop-color:#FF0000"
   id="stop36" />
				<stop
   offset="0.2634"
   style="stop-color:#E42372"
   id="stop38" />
				<stop
   offset="0.3192"
   style="stop-color:#FFA1FF"
   id="stop40" />
				<stop
   offset="0.4267"
   style="stop-color:#DA2F9A"
   id="stop42" />
				<stop
   offset="0.7554"
   style="stop-color:#CC41D4"
   id="stop44" />
				<stop
   offset="0.7881"
   style="stop-color:#FFA1FF"
   id="stop46" />
				<stop
   offset="0.8413"
   style="stop-color:#C846E3"
   id="stop48" />
				<stop
   offset="1"
   style="stop-color:#C24FFF"
   id="stop50" />
			</linearGradient>
			
		
			
				<linearGradient
   id="SVGID_00000128444796063564815230000007252927678799283094_"
   gradientUnits="userSpaceOnUse"
   x1="357.92542"
   y1="604.23328"
   x2="357.92542"
   y2="16.339899">
				<stop
   offset="0"
   style="stop-color:#FF0000"
   id="stop15" />
				<stop
   offset="0.2634"
   style="stop-color:#E42372"
   id="stop17" />
				<stop
   offset="0.3192"
   style="stop-color:#FFA1FF"
   id="stop19" />
				<stop
   offset="0.4267"
   style="stop-color:#DA2F9A"
   id="stop21" />
				<stop
   offset="0.7554"
   style="stop-color:#CC41D4"
   id="stop23" />
				<stop
   offset="0.7881"
   style="stop-color:#FFA1FF"
   id="stop25" />
				<stop
   offset="0.8413"
   style="stop-color:#C846E3"
   id="stop27" />
				<stop
   offset="1"
   style="stop-color:#C24FFF"
   id="stop29" />
			</linearGradient>
			
		
			
				<linearGradient
   id="SVGID_00000021080724737336074490000000910687952145319586_"
   gradientUnits="userSpaceOnUse"
   x1="3526.8933"
   y1="604.23328"
   x2="3526.8933"
   y2="20.5096">
				<stop
   offset="0"
   style="stop-color:#FF0000"
   id="stop120" />
				<stop
   offset="0.2634"
   style="stop-color:#E42372"
   id="stop122" />
				<stop
   offset="0.3192"
   style="stop-color:#FFA1FF"
   id="stop124" />
				<stop
   offset="0.4267"
   style="stop-color:#DA2F9A"
   id="stop126" />
				<stop
   offset="0.7554"
   style="stop-color:#CC41D4"
   id="stop128" />
				<stop
   offset="0.7881"
   style="stop-color:#FFA1FF"
   id="stop130" />
				<stop
   offset="0.8413"
   style="stop-color:#C846E3"
   id="stop132" />
				<stop
   offset="1"
   style="stop-color:#C24FFF"
   id="stop134" />
			</linearGradient>
			
		
			
				<linearGradient
   id="SVGID_00000106148091704042031110000017185161894946614463_"
   gradientUnits="userSpaceOnUse"
   x1="2905.2402"
   y1="604.23328"
   x2="2905.2402"
   y2="20.5096">
				<stop
   offset="0"
   style="stop-color:#FF0000"
   id="stop99" />
				<stop
   offset="0.2634"
   style="stop-color:#E42372"
   id="stop101" />
				<stop
   offset="0.3192"
   style="stop-color:#FFA1FF"
   id="stop103" />
				<stop
   offset="0.4267"
   style="stop-color:#DA2F9A"
   id="stop105" />
				<stop
   offset="0.7554"
   style="stop-color:#CC41D4"
   id="stop107" />
				<stop
   offset="0.7881"
   style="stop-color:#FFA1FF"
   id="stop109" />
				<stop
   offset="0.8413"
   style="stop-color:#C846E3"
   id="stop111" />
				<stop
   offset="1"
   style="stop-color:#C24FFF"
   id="stop113" />
			</linearGradient>
			
		
			
				<linearGradient
   id="SVGID_00000093171400342485411010000004786870807831186310_"
   gradientUnits="userSpaceOnUse"
   x1="1682.7727"
   y1="616.74109"
   x2="1682.7727"
   y2="8.0001001">
				<stop
   offset="0"
   style="stop-color:#FF0000"
   id="stop57" />
				<stop
   offset="0.2634"
   style="stop-color:#E42372"
   id="stop59" />
				<stop
   offset="0.3192"
   style="stop-color:#FFA1FF"
   id="stop61" />
				<stop
   offset="0.4267"
   style="stop-color:#DA2F9A"
   id="stop63" />
				<stop
   offset="0.7554"
   style="stop-color:#CC41D4"
   id="stop65" />
				<stop
   offset="0.7881"
   style="stop-color:#FFA1FF"
   id="stop67" />
				<stop
   offset="0.8413"
   style="stop-color:#C846E3"
   id="stop69" />
				<stop
   offset="1"
   style="stop-color:#C24FFF"
   id="stop71" />
			</linearGradient>
			
		
	
	
	
	
	

		
		
		
		
		
	
		
		
		
		
		
		
		
		
		
	
		
	
		
		
		
	
		
		
		
		
	
			
			
			
			
		
			
			
			
			
		
			
			
			
			
			
		
			
			
			
		
				
			
				
			
				
			
				
			
				
			
				
			
				
			
				
			
				
			
				
			
				
			
				
			
					
					
					
					
					
				
		
		
		
		
	
			
			
		
			
			
			
			
			
		
			
			
			
			
		
		
		
		
		
		
		
		
		
		
		
		
		
		
		
		
		
	
			
		
			
		
			
			
		</defs><g
     inkscape:label="Layer 1"
     inkscape:groupmode="layer"
     id="layer1"><path
       id="rect231"
       style="fill:#ffffff;stroke-width:0.8001;stroke-linecap:square;paint-order:fill markers stroke"
       d="M 0 0 L 0 66.145833 C 2.129473 39.476479 24.541739 18.489311 51.900191 18.489311 C 80.662752 18.489311 103.97815 41.685201 103.97815 70.302686 C 103.97815 98.914989 80.662752 122.11296 51.900191 122.11296 C 28.058045 122.11296 7.9753768 106.16893 1.7942057 84.42172 L 21.755778 92.632072 C 23.108073 99.341724 29.075167 104.40913 36.209676 104.40913 C 44.338978 104.40913 50.951929 97.830694 50.951929 89.742843 C 50.951929 89.509689 50.943501 89.276284 50.934875 89.048311 L 68.637154 76.480603 C 68.785683 76.484043 68.934418 76.489388 69.084672 76.489388 C 79.915105 76.489388 88.72275 67.722592 88.72275 56.947428 C 88.72275 46.172262 79.915105 37.407536 69.084672 37.407536 C 58.252514 37.407536 49.44401 46.172262 49.44401 56.947428 L 49.44401 57.199609 L 37.031848 75.100842 C 36.758973 75.085311 36.486007 75.075004 36.209676 75.075004 C 33.135499 75.075004 30.279107 76.019228 27.913025 77.628853 L 0 66.145833 L 0 132.29167 L 396.875 132.29167 L 396.875 96.502637 L 385.99298 96.502637 L 385.98988 63.377527 L 371.13755 94.929089 L 364.72554 94.929089 L 350.113 63.660714 L 350.113 96.502637 L 339.22891 96.502637 L 339.22891 42.507483 L 350.08871 42.507483 L 368.32842 81.483915 L 385.92218 42.507483 L 396.875 42.507483 L 396.875 0 L 0 0 z M 143.4729 41.583508 C 151.57802 41.583508 158.09235 44.137613 161.70538 46.871558 L 156.87828 55.311869 C 153.16163 52.728179 148.12185 51.17207 143.72301 51.17207 C 138.69552 51.17207 135.58501 53.242858 135.58501 56.952596 C 135.58501 61.458512 141.11202 62.506857 149.32422 65.439417 C 158.15298 68.54468 163.22673 72.195906 163.22673 80.24058 C 163.22673 91.245445 154.52785 97.426611 142.02389 97.426611 C 135.92907 97.426611 128.57679 95.86201 122.92583 92.442419 L 126.44706 83.083301 C 131.0376 85.496013 136.52976 86.92596 141.42599 86.92596 C 148.02511 86.92596 151.16183 84.504468 151.16183 80.924259 C 151.16183 76.825931 146.37767 75.594807 138.65769 73.050838 C 129.85829 70.128643 123.75989 66.292803 123.75989 57.389779 C 123.75989 47.348616 131.84283 41.583508 143.4729 41.583508 z M 171.57712 42.507483 L 215.88863 42.507483 L 215.88863 52.206632 L 199.44002 52.206632 L 199.44002 96.502637 L 188.07431 96.502637 L 188.07431 52.206632 L 171.57712 52.206632 L 171.57712 42.507483 z M 228.4858 42.507483 L 265.08615 42.507483 L 265.08615 52.177177 L 239.84841 52.177177 L 239.84841 64.344393 L 261.60057 64.344393 L 261.60057 74.041992 L 239.84841 74.041992 L 239.84841 86.71357 L 265.08615 86.71357 L 265.08615 96.502637 L 228.4858 96.502637 L 228.4858 42.507483 z M 295.29567 42.509033 L 306.7358 42.509033 L 327.66114 96.502637 L 315.34354 96.502637 L 311.67193 86.017489 L 290.45307 86.017489 L 290.45307 86.019039 L 286.86053 96.504187 L 274.94549 96.504187 L 295.29567 42.509033 z M 69.082605 43.927035 C 76.300013 43.927035 82.170178 49.768015 82.170178 56.947428 C 82.170178 64.126842 76.300013 69.96442 69.082605 69.966272 C 61.866922 69.966272 55.996582 64.126842 55.996582 56.947428 C 55.996582 49.768015 61.866922 43.927035 69.082605 43.927035 z M 69.105343 47.146476 C 63.677175 47.146476 59.274935 51.522945 59.274935 56.925208 C 59.274935 62.325745 63.677175 66.703422 69.105343 66.703422 C 74.535238 66.703422 78.937301 62.32747 78.937301 56.925208 C 78.937301 51.522945 74.535238 47.146476 69.105343 47.146476 z M 300.95217 55.387834 L 293.53919 77.007186 L 308.51657 77.007186 L 300.95217 55.387834 z M 36.309928 78.710441 C 37.691797 78.720803 39.094157 78.990785 40.448177 79.551217 C 43.175214 80.682447 45.295584 82.801783 46.419906 85.521912 C 47.547672 88.238587 47.539263 91.231269 46.402852 93.941036 C 44.057498 99.547091 37.567304 102.20521 31.937069 99.87194 C 29.332653 98.790798 27.372355 96.825214 26.237675 94.476404 L 32.634701 97.105184 C 36.788295 98.828794 41.560392 96.875529 43.28573 92.74266 C 45.016251 88.611518 43.053885 83.868809 38.902018 82.146924 L 32.292603 79.427193 C 33.566315 78.94966 34.92806 78.700079 36.309928 78.710441 z " /><g
       id="g8756"
       transform="matrix(0.26458333,0,0,0.26458333,194.4956,179.3875)" /></g><style
     type="text/css"
     id="style2">
	.st0{fill:#F05100;}
	.st1{fill:#FFFFFF;}
	.st2{fill:#1281C4;}
	.st3{fill:#034693;}
	.st4{fill:#CF3312;}
</style><style
     type="text/css"
     id="style2-4">
	.st0{fill:#FFFFFF;}
	.st1{fill:#FF0000;}
	.st2{fill:url(#SVGID_1_);}
	.st3{fill:url(#SVGID_00000060022068257817767130000001067164073883981741_);}
	.st4{fill:url(#SVGID_00000144308182761068376180000004131709304805192586_);}
	.st5{fill:url(#SVGID_00000000935997520668853970000011105419993307822477_);}
	.st6{fill:url(#SVGID_00000018200174457167754170000000853354448091225986_);}
	.st7{fill:url(#SVGID_00000072987630451721579260000010409738167651109522_);}
	.st8{fill:#3636FF;}
	.st9{display:none;}
	.st10{display:inline;}
	.st11{enable-background:new    ;}
	.st12{fill:url(#SVGID_00000099639162208554751810000013272208193612295339_);}
	.st13{fill:url(#SVGID_00000158736166008707814920000018426778185460247990_);}
	.st14{fill:url(#SVGID_00000133527000259551881150000004185836194023049859_);}
	.st15{fill:url(#SVGID_00000093164219829473752460000004603917870326250679_);}
	.st16{fill:url(#SVGID_00000156556395246081825560000005894267688922753411_);}
	.st17{fill:url(#SVGID_00000135690321830567168220000000437954853257014148_);}
	.st18{fill:url(#SVGID_00000040565659643257570880000002075315462357006765_);}
	.st19{fill:url(#SVGID_00000017508175736194757820000008863537906517323707_);}
	.st20{fill:url(#SVGID_00000126293465477839731700000000626789561221784705_);}
	.st21{fill:url(#SVGID_00000087403315896914670680000008996143154280075168_);}
	.st22{fill:url(#SVGID_00000151540686432933406660000011628697137491540393_);}
	.st23{fill:url(#SVGID_00000143589059756432772880000012524823099024141722_);}
	.st24{fill:url(#SVGID_00000052088033699595628130000015515451372212444082_);}
	.st25{fill:url(#SVGID_00000126294377186336552610000001799937443100725399_);}
	.st26{fill:url(#SVGID_00000070835762807858034660000013936331226864194476_);}
	.st27{fill:url(#SVGID_00000092457199491666826160000016742156659903073436_);}
	.st28{fill:url(#SVGID_00000138556585880754416440000017272986633013561527_);}
	.st29{fill:url(#SVGID_00000032624778419303139080000015394367773870234245_);}
	.st30{fill:url(#SVGID_00000040539262103052545880000003837399106474199717_);}
	.st31{fill:url(#SVGID_00000115483974547727894610000006699104590764616355_);}
	.st32{fill:url(#SVGID_00000041285316495664937430000010139118778734034608_);}
	.st33{fill:url(#SVGID_00000178199001922562380240000009661348160359078294_);}
	.st34{fill:url(#SVGID_00000145019290134935790460000010249637267404127883_);}
	.st35{fill:url(#SVGID_00000117636406951782473700000003654222835714608307_);}
	.st36{fill:url(#SVGID_00000158745280490234840560000003483236744759648947_);}
	.st37{fill:url(#SVGID_00000146474604070782972690000015670225624893543309_);}
	.st38{fill:url(#SVGID_00000173847499186819278890000011550608873747634579_);}
	.st39{fill:url(#SVGID_00000141427567100195222880000010417319602782459071_);}
</style><style
     type="text/css"
     id="style3783">
	.st0{fill-rule:evenodd;clip-rule:evenodd;fill:#FFFFFF;}
	.st1{fill:#FFFFFF;}
</style><style
     type="text/css"
     id="style740">
	.st0{fill:#2A4E78;}
</style><style
     type="text/css"
     id="style2-6">
	.st0{fill:#FF221D;}
	.st1{fill:#FDEB05;}
	.st2{display:none;}
	.st3{display:inline;}
	.st4{fill:#FBE901;}
	.st5{fill:#FFFFFF;}
</style><style
     type="text/css"
     id="style2-5">
	.st0{fill:#CBCBCA;}
	.st1{fill:#30308F;}
	.st2{fill:#EA2427;}
	.st3{fill:#EC2024;}
	.st4{fill:#FFFFFF;}
	.st5{stroke:#FFFFFF;stroke-width:6.1889;stroke-miterlimit:10;}
	.st6{fill:#FFFFFF;stroke:#231F20;stroke-width:6.1889;stroke-miterlimit:10;}
	.st7{fill:#FFFFFF;stroke:#000000;stroke-width:6.1889;stroke-miterlimit:10;}
	.st8{stroke:#DCE0DF;stroke-width:6.1889;stroke-miterlimit:10;}
</style></svg>
