<?xml version="1.0" encoding="UTF-8" standalone="no"?>
<!-- Generator: Adobe Illustrator 25.0.0, SVG Export Plug-In . SVG Version: 6.00 Build 0)  -->

<svg
   version="1.1"
   id="Layer_1"
   x="0px"
   y="0px"
   viewBox="0 0 3199.076 2159"
   style="enable-background:new 0 0 3199.076 2159;"
   xml:space="preserve"
   sodipodi:docname="megadrivejp2.svg"
   inkscape:version="1.2.2 (732a01da63, 2022-12-09)"
   xmlns:inkscape="http://www.inkscape.org/namespaces/inkscape"
   xmlns:sodipodi="http://sodipodi.sourceforge.net/DTD/sodipodi-0.dtd"
   xmlns="http://www.w3.org/2000/svg"
   xmlns:svg="http://www.w3.org/2000/svg"><defs
   id="defs1302" /><sodipodi:namedview
   id="namedview1300"
   pagecolor="#ffffff"
   bordercolor="#111111"
   borderopacity="1"
   inkscape:showpageshadow="0"
   inkscape:pageopacity="0"
   inkscape:pagecheckerboard="1"
   inkscape:deskcolor="#d1d1d1"
   showgrid="false"
   inkscape:zoom="0.37667127"
   inkscape:cx="1596.8831"
   inkscape:cy="1388.4786"
   inkscape:window-width="1920"
   inkscape:window-height="1009"
   inkscape:window-x="-8"
   inkscape:window-y="-8"
   inkscape:window-maximized="1"
   inkscape:current-layer="g1297" />
<style
   type="text/css"
   id="style1243">
	.st0{fill:#E62229;}
	.st1{fill:#019B43;}
	.st2{fill:#FFFFFF;}
</style>
<g
   id="g1297">
	<g
   id="g1273"
   style="fill:#ffffff;fill-opacity:1">
		<g
   id="g1271"
   style="fill:#ffffff;fill-opacity:1">
			<rect
   x="2414.286"
   y="1862.159"
   width="85.088"
   height="296.841"
   id="rect1245"
   style="fill:#ffffff;fill-opacity:1" />
			<g
   id="g1255"
   style="fill:#ffffff;fill-opacity:1">
				<polygon
   points="2616.833,1961.468 2531.745,1988.667 2531.745,1862.159 2616.833,1862.159     "
   id="polygon1247"
   style="fill:#ffffff;fill-opacity:1" />
				<polygon
   points="2870.315,1988.667 2785.227,1961.468 2785.227,1862.159 2870.315,1862.159     "
   id="polygon1249"
   style="fill:#ffffff;fill-opacity:1" />
				<polygon
   points="2632.61,2159 2735.138,2159 2559.365,1862.159 2531.745,1988.667     "
   id="polygon1251"
   style="fill:#ffffff;fill-opacity:1" />
				<polygon
   points="2769.449,2159 2666.922,2159 2842.694,1862.159 2870.315,1988.667     "
   id="polygon1253"
   style="fill:#ffffff;fill-opacity:1" />
			</g>
			<path
   d="M317.733,1883.278l-17.444,29.457v-50.577H198.192c-14.006,0-27.094,7.917-34.912,21.12L0,2159h102.533l131.168-221.493     h51.918L154.453,2159h102.533l136.93-231.223c1.735-2.929,5.759-1.534,5.759,1.996V2159h85.088v-296.842H352.645     C338.639,1862.158,325.551,1870.076,317.733,1883.278z"
   id="path1257"
   style="fill:#ffffff;fill-opacity:1" />
			<path
   d="M663.054,1925.208h155.41v-63.049l-129.037-0.525h-91.268c-7.044,0-13.625,3.982-17.557,10.621l-40.809,68.912V2159     h278.672v-63.049H624.88v-53.642h156.247l37.337-63.048H624.88v-8.632l20.602-34.791     C649.417,1929.193,656.005,1925.208,663.054,1925.208z"
   id="path1259"
   style="fill:#ffffff;fill-opacity:1" />
			<path
   d="M3043.666,1925.208h155.41v-63.049l-129.037-0.525h-91.268c-7.043,0-13.625,3.982-17.557,10.621l-40.809,68.912V2159     h278.672v-63.049h-193.584v-53.642h156.246l37.337-63.048h-193.584v-8.632l20.602-34.791     C3030.029,1929.193,3036.616,1925.208,3043.666,1925.208z"
   id="path1261"
   style="fill:#ffffff;fill-opacity:1" />
			<path
   d="M1555.006,2159l-163.118-275.471c-7.91-13.359-21.153-21.37-35.325-21.37h-155.029V2159h85.089v-116.428v-117.365h14.166     c8.278,0,16.014,4.68,20.635,12.483l62.108,104.881h-96.909l37.336,63.048h0.143h96.766l31.609,53.38H1555.006z"
   id="path1263"
   style="fill:#ffffff;fill-opacity:1" />
			<path
   d="M1157.418,1979.523h-9.093h-75.67h-27.02l-37.181,62.785h36.328v0.264h27.873v53.379H930.538V1987.97l30.87-52.129     c3.936-6.647,10.526-10.634,17.578-10.634h161.747v-63.049h-135.689l0.311-0.525h-87.928c-9.132,0-17.665,5.162-22.762,13.77     l-49.215,83.108v166.821c0,18.594,13.268,33.668,29.635,33.668h33.675h21.777h142.116h55.451     c16.368,0,29.637-15.074,29.637-33.67v-29.379v-116.428H1157.418z"
   id="path1265"
   style="fill:#ffffff;fill-opacity:1" />
			<path
   d="M1967.323,1890.057c-10.327-17.441-27.617-27.9-46.119-27.9l-72.938,0.003h-159.788V2159l214.391-0.003h18.334     c18.502,0,35.792-10.459,46.119-27.9l60.381-101.971c2.188-3.695,3.357-8.048,3.357-12.502v-12.094     c0-4.454-1.169-8.806-3.357-12.502L1967.323,1890.057z M1885.602,2095.951h-112.036v-170.742h112.036l42.599,71.932     c4.811,8.123,4.811,18.748,0,26.871L1885.602,2095.951z"
   id="path1267"
   style="fill:#ffffff;fill-opacity:1" />
			<path
   d="M2295.936,2048.271l48.865-82.522c2.187-3.693,3.355-8.044,3.355-12.495v-10.32c0-4.452-1.168-8.802-3.355-12.496     l-23.911-40.38c-10.328-17.442-27.619-27.902-46.123-27.902h-72.929l-161.184,0.003V2159h85.088v-233.791h108.002     c3.395,0,6.568,1.919,8.463,5.12l6.689,11.295c2.316,3.911,2.316,9.027,0,12.938l-33.172,56.016h-44.638L2258.978,2159h102.527     L2295.936,2048.271z"
   id="path1269"
   style="fill:#ffffff;fill-opacity:1" />
		</g>
	</g>
	
	<g
   id="g1295">
		<polygon
   class="st0"
   points="1601.785,1378.774 1601.785,138.627 928.398,1139.556 928.398,138.627 94.017,1378.856 "
   id="polygon1277"
   transform="matrix(0.6575042,0,0,0.6575042,592.18903,894.37147)"
   style="stroke-width:1.5209" />
		<polygon
   class="st1"
   points="2176.651,1378.857 2176.651,166.633 1776.451,166.633 1776.451,198.911 1776.451,1378.857 "
   id="polygon1279"
   transform="matrix(0.6575042,0,0,0.6575042,592.18903,894.37147)"
   style="stroke-width:1.5209" />
		<path
   class="st1"
   d="m 2206.6709,1415.4725 c -6.5521,65.8733 -62.1269,117.3184 -129.7243,117.3184 h -20.4898 v 268.1842 h 53.4972 c 215.7389,0 391.4135,-171.4337 398.2877,-385.5026 z"
   id="path1281"
   style="stroke-width:0.999998" />
		<path
   class="st1"
   d="m 2382.0299,1111.311 -218.4683,193.6909 c 6.8782,6.1253 13.0975,12.9713 18.5535,20.4149 l 248.7989,-159.1641 c -14.5881,-19.7928 -30.9612,-38.1832 -48.8841,-54.9417 z"
   id="path1283"
   style="stroke-width:0.999998" />
		<path
   class="st1"
   d="m 2098.3115,1273.8171 c 9.0401,1.4919 17.773,3.8898 26.0846,7.1412 l 119.6157,-253.9084 c -22.6687,-8.0972 -46.2929,-14.1745 -70.6475,-18.0695 z"
   id="path1285"
   style="stroke-width:0.999998" />
		<path
   class="st1"
   d="m 2348.2032,1083.0029 c -19.9664,-14.9182 -41.3767,-28.0045 -63.9869,-39.0183 l -151.7678,240.4657 c 8.7152,4.1107 16.8972,9.1551 24.4243,15.0115 z"
   id="path1287"
   style="stroke-width:0.999998" />
		<path
   class="st1"
   d="m 2201.0795,1362.598 c 2.3545,7.3476 4.0831,14.9759 5.1061,22.8272 h 301.9036 c -1.0566,-25.1173 -4.4645,-49.6232 -9.9592,-73.3288 z"
   id="path1289"
   style="stroke-width:0.999998" />
		<path
   class="st1"
   d="m 2485.4776,1268.8583 c -8.1004,-22.7714 -18.1977,-44.594 -30.1091,-65.2435 l -268.3859,128.955 c 4.3467,6.8387 8.0695,14.106 11.0986,21.7305 z"
   id="path1291"
   style="stroke-width:0.999998" />
		<path
   class="st1"
   d="m 2131.8495,1004.5442 c -7.2503,-0.3932 -14.5473,-0.6108 -21.8955,-0.6108 h -53.4972 v 268.1059 h 20.4898 c 4.3362,0 8.6199,0.2242 12.847,0.6371 z"
   id="path1293"
   style="stroke-width:0.999998" />
	</g>
</g>
</svg>
